<svg id="Calque_1" data-name="Calque 1" xmlns="http://www.w3.org/2000/svg" viewBox="0 0 4073.02 2347.24"><defs><style>.cls-1{fill:#1e1e1c;}.cls-2{fill:#c7c7c6;}</style></defs><title>scan</title><path class="cls-1" d="M3342.56,506.85a10.06,10.06,0,0,1-6.66,2.2,9.09,9.09,0,0,1-6-2.52,8.9,8.9,0,0,1-2.49-6,10.28,10.28,0,0,1,2.12-6.66,8.31,8.31,0,0,1,6.3-3.24,9.52,9.52,0,0,1,7.06,2.88,9.36,9.36,0,0,1,2.85,7A8.4,8.4,0,0,1,3342.56,506.85Z"/><path class="cls-2" d="M3336.16,510.12h-.28a9.65,9.65,0,0,1-9.56-9.53,11.44,11.44,0,0,1,2.35-7.35,9.39,9.39,0,0,1,7.12-3.65,10.62,10.62,0,0,1,7.85,3.21,10.37,10.37,0,0,1,3.14,7.77,9.48,9.48,0,0,1-3.55,7.1h0A11,11,0,0,1,3336.16,510.12Zm-.07-18.41h-.25a7.2,7.2,0,0,0-5.49,2.83,9.17,9.17,0,0,0-1.9,6,7.8,7.8,0,0,0,2.2,5.27,8,8,0,0,0,5.29,2.19,9,9,0,0,0,5.94-2h0a7.4,7.4,0,0,0,2.78-5.51,8.25,8.25,0,0,0-2.53-6.22A8.46,8.46,0,0,0,3336.09,491.71Z"/><path class="cls-1" d="M3065.91,1693.79a9.87,9.87,0,0,1,.28-3.62,10.55,10.55,0,0,1,1.39-3.19,8.73,8.73,0,0,1,2.21-2.35,7.2,7.2,0,0,1,2.9-1.44,9.27,9.27,0,0,1,3.23-.17,9,9,0,0,1,3.14,1.09,9.78,9.78,0,0,1,4.66,5.17,8.59,8.59,0,0,1-.38,7.1,9.62,9.62,0,0,1-2.45,2.83,9.16,9.16,0,0,1-3.66,1.79,11.19,11.19,0,0,1-4.09.22,9.62,9.62,0,0,1-3.56-1.4,8.06,8.06,0,0,1-2.51-2.56A8.55,8.55,0,0,1,3065.91,1693.79Z"/><path class="cls-2" d="M3074.55,1702.38a11.42,11.42,0,0,1-1.55-.1,10.71,10.71,0,0,1-4-1.57,9.21,9.21,0,0,1-2.84-2.89,9.74,9.74,0,0,1-1.31-3.92,10.9,10.9,0,0,1,.31-4,11.68,11.68,0,0,1,1.53-3.5,9.74,9.74,0,0,1,2.48-2.63,8.15,8.15,0,0,1,3.27-1.61,10.29,10.29,0,0,1,3.64-.19,10.08,10.08,0,0,1,3.5,1.21,10.79,10.79,0,0,1,5.13,5.71,9.61,9.61,0,0,1-.43,8,10.42,10.42,0,0,1-2.74,3.19,10.09,10.09,0,0,1-4.09,2A12.91,12.91,0,0,1,3074.55,1702.38Zm.32-18.37a9.88,9.88,0,0,0-2,.22,6.24,6.24,0,0,0-2.44,1.22,7.84,7.84,0,0,0-2,2.11,10,10,0,0,0-1.26,2.87,9.18,9.18,0,0,0-.25,3.24h0a7.61,7.61,0,0,0,1,3,7,7,0,0,0,2.18,2.22,8.77,8.77,0,0,0,3.17,1.25,10.12,10.12,0,0,0,3.65-.22,7.87,7.87,0,0,0,3.25-1.59,8.35,8.35,0,0,0,2.18-2.51,7.54,7.54,0,0,0,.32-6.2,8.86,8.86,0,0,0-4.15-4.61,8.17,8.17,0,0,0-2.8-1A6.62,6.62,0,0,0,3074.87,1684Z"/><path class="cls-1" d="M3047.57,1693a10.79,10.79,0,0,1,3.7-6,8.53,8.53,0,0,1,5.84-2.07,7,7,0,0,1,3,.72,10.81,10.81,0,0,1,1.38.84,8.6,8.6,0,0,1,1.27,1,10.46,10.46,0,0,1,3.13,6.26,8.15,8.15,0,0,1-2.25,6.7,9.67,9.67,0,0,1-1.45,1.24,8.93,8.93,0,0,1-1.75.87,11,11,0,0,1-4.15.71,9.75,9.75,0,0,1-7.11-3.47A8,8,0,0,1,3047.57,1693Z"/><path class="cls-2" d="M3056.61,1704.38h-.33a10.85,10.85,0,0,1-7.92-3.88,9,9,0,0,1-1.83-7.73h0a11.8,11.8,0,0,1,4.07-6.57,9.43,9.43,0,0,1,6.6-2.3,8.16,8.16,0,0,1,3.41.83,10.89,10.89,0,0,1,1.5.92,9,9,0,0,1,1.4,1.12,11.45,11.45,0,0,1,3.45,6.9,9.23,9.23,0,0,1-2.53,7.57,11.2,11.2,0,0,1-1.61,1.37,9.34,9.34,0,0,1-2,1A12.19,12.19,0,0,1,3056.61,1704.38Zm-8-11.17a7,7,0,0,0,1.41,6,8.76,8.76,0,0,0,6.37,3.08,10.09,10.09,0,0,0,3.7-.64,7.63,7.63,0,0,0,1.52-.76,8.38,8.38,0,0,0,1.28-1.09,7.12,7.12,0,0,0,2-5.85,9.52,9.52,0,0,0-2.81-5.62,7.17,7.17,0,0,0-1.12-.89,10.15,10.15,0,0,0-1.24-.77,6.11,6.11,0,0,0-2.6-.62,7.39,7.39,0,0,0-5.16,1.85,9.74,9.74,0,0,0-3.31,5.35Z"/><path class="cls-1" d="M3083.72,1689.28a9.89,9.89,0,0,1,0-7,9.37,9.37,0,0,1,1.67-2.92,9.27,9.27,0,0,1,2.64-2.05,9,9,0,0,1,6.6-.51,9.78,9.78,0,0,1,5.57,4.25,8.63,8.63,0,0,1,.92,7,9.37,9.37,0,0,1-4.86,5.69,9.65,9.65,0,0,1-7.5.52A8.57,8.57,0,0,1,3083.72,1689.28Z"/><path class="cls-2" d="M3091.88,1695.88a10.57,10.57,0,0,1-3.47-.58,9.61,9.61,0,0,1-5.68-5.65h0a10.78,10.78,0,0,1,0-7.71,10.06,10.06,0,0,1,1.85-3.24,10.2,10.2,0,0,1,2.93-2.28,10,10,0,0,1,7.39-.62,10.79,10.79,0,0,1,6.21,4.73,9.68,9.68,0,0,1,1,7.85,10.35,10.35,0,0,1-5.38,6.33A10.7,10.7,0,0,1,3091.88,1695.88Zm-7.17-7a7.56,7.56,0,0,0,4.42,4.4,8.69,8.69,0,0,0,6.65-.47,8.28,8.28,0,0,0,4.32-5,7.58,7.58,0,0,0-.81-6.16,8.62,8.62,0,0,0-5-3.79,7.92,7.92,0,0,0-5.8.43,7.57,7.57,0,0,0-3.81,4.39,8.85,8.85,0,0,0,0,6.23Z"/><path class="cls-1" d="M3329.51,493.89a10.14,10.14,0,0,1-6,3.61,10.92,10.92,0,0,1-3.27.14,8,8,0,0,1-3-1.05,6.8,6.8,0,0,1-2.35-2.11,10.24,10.24,0,0,1-1.46-2.85,10.74,10.74,0,0,1,.2-7,8,8,0,0,1,5.13-4.84,9,9,0,0,1,3.84-.37,11.61,11.61,0,0,1,3.94,1.35,9.93,9.93,0,0,1,3.06,2.79,8.1,8.1,0,0,1,1.55,3.47A8.31,8.31,0,0,1,3329.51,493.89Z"/><path class="cls-2" d="M3321.34,498.77a9.22,9.22,0,0,1-1.2-.07,8.81,8.81,0,0,1-3.37-1.18,7.89,7.89,0,0,1-2.7-2.42,11,11,0,0,1-1.61-3.17,11.8,11.8,0,0,1,.22-7.7,9.09,9.09,0,0,1,5.8-5.47,10,10,0,0,1,4.32-.41,12.63,12.63,0,0,1,4.3,1.47,11,11,0,0,1,3.39,3.08,9.22,9.22,0,0,1,1.75,3.93,9.35,9.35,0,0,1-1.9,7.72h0a11.19,11.19,0,0,1-6.6,4A14.26,14.26,0,0,1,3321.34,498.77Zm.25-18.38a8.51,8.51,0,0,0-2.48.4,6.9,6.9,0,0,0-4.45,4.21,9.66,9.66,0,0,0-.17,6.31,9.13,9.13,0,0,0,1.32,2.57,5.86,5.86,0,0,0,2,1.78,7.18,7.18,0,0,0,2.61.93,10.64,10.64,0,0,0,3-.13,9.2,9.2,0,0,0,5.32-3.23h0a7.29,7.29,0,0,0,1.47-6,7.09,7.09,0,0,0-1.36-3,9.13,9.13,0,0,0-2.72-2.5,10.62,10.62,0,0,0-3.58-1.21A5.54,5.54,0,0,0,3321.59,480.39Z"/><path class="cls-1" d="M3313.67,484.61a10.7,10.7,0,0,1-4.64,5.26,8.26,8.26,0,0,1-11.21-2.38,10.68,10.68,0,0,1-2.1-6.69,8.06,8.06,0,0,1,3.28-6.25,9.91,9.91,0,0,1,14.21,3A8.07,8.07,0,0,1,3313.67,484.61Z"/><path class="cls-2" d="M3304.54,492.21a7.32,7.32,0,0,1-1.82-.23,9.41,9.41,0,0,1-5.74-3.83,11.67,11.67,0,0,1-2.32-7.39,9.09,9.09,0,0,1,3.71-7.06,10.78,10.78,0,0,1,8.57-1.79,10.9,10.9,0,0,1,7.21,5.16,9.08,9.08,0,0,1,.5,7.94,11.7,11.7,0,0,1-5.09,5.79A11,11,0,0,1,3304.54,492.21Zm.08-18.38a8,8,0,0,0-5,1.55,7,7,0,0,0-2.88,5.46,9.73,9.73,0,0,0,1.89,6,7.32,7.32,0,0,0,4.43,3l.13,0a7.33,7.33,0,0,0,5.31-1,9.63,9.63,0,0,0,4.14-4.71,7,7,0,0,0-.4-6.13,8.71,8.71,0,0,0-5.78-4.1A11.1,11.1,0,0,0,3304.62,473.83Z"/><path class="cls-1" d="M3295.72,480.8a10.76,10.76,0,0,1-2.68,6.49,10,10,0,0,1-2.49,2,6.91,6.91,0,0,1-3,1,8,8,0,0,1-3.16-.26,11.31,11.31,0,0,1-2.93-1.46,10.17,10.17,0,0,1-4-5.72,8.38,8.38,0,0,1,1.26-7,8.14,8.14,0,0,1,2.83-2.53,9.93,9.93,0,0,1,3.93-1.31,11.55,11.55,0,0,1,4.15.37,8.91,8.91,0,0,1,3.36,1.9A8,8,0,0,1,3295.72,480.8Z"/><path class="cls-2" d="M3286.54,491.39a8,8,0,0,1-2.47-.36,12.27,12.27,0,0,1-3.2-1.58,11.23,11.23,0,0,1-4.43-6.35,9.44,9.44,0,0,1,1.42-7.85,9.29,9.29,0,0,1,3.17-2.85,11.07,11.07,0,0,1,4.36-1.44,12.71,12.71,0,0,1,4.54.41,9.91,9.91,0,0,1,3.77,2.12,9.12,9.12,0,0,1,3.08,7.36,11.87,11.87,0,0,1-2.94,7.14,11.28,11.28,0,0,1-2.74,2.22,8,8,0,0,1-3.47,1.13C3287.32,491.36,3287,491.39,3286.54,491.39Zm0-18.36c-.32,0-.63,0-1,0a8.91,8.91,0,0,0-3.51,1.19,7,7,0,0,0-2.45,2.19,7.3,7.3,0,0,0-1.12,6.12,9.19,9.19,0,0,0,3.57,5.12,9.59,9.59,0,0,0,2.63,1.31,7,7,0,0,0,2.76.22,5.9,5.9,0,0,0,2.55-.83,9,9,0,0,0,2.23-1.8,9.73,9.73,0,0,0,2.42-5.84h0a6.94,6.94,0,0,0-2.37-5.66,8,8,0,0,0-2.93-1.67A10.23,10.23,0,0,0,3286.53,473Z"/><path class="cls-1" d="M3067.2,1701.5a60.22,60.22,0,0,0,14.71,1.25c48.48,5.13,105.91-49,162.53-153.61,58.23-107.55,109.26-256.06,143.7-418.19q4.88-22.93,9.19-45.68h0c27.64-145.63,38.12-284.37,29.54-394.8-9.6-123.58-42.27-197.45-92-208a60.11,60.11,0,0,0-13.61-1.27c-.95-.25-1.89-.48-2.85-.69-49.72-10.56-109.59,43.66-168.61,152.66-58.22,107.55-109.25,256.06-143.7,418.19s-48.19,318.56-38.72,440.49c9.6,123.58,42.27,197.45,92,208,1.3.27,2.62.5,3.94.68C3064.6,1700.89,3065.9,1701.22,3067.2,1701.5Zm-46-67.88c-14.61-34.59-24.33-81.86-28.89-140.5-9.41-121.14,4.29-276.71,38.57-438.07s85-309,142.86-415.91c28-51.72,56.1-91,83.51-116.62,22.37-20.94,43.33-31.93,62.53-32.82.28,0,.55.08.83.12,20.93,6.22,38.55,26,52.42,58.83,14.62,34.6,24.34,81.87,28.89,140.51,9.41,121.14-4.28,276.71-38.56,438.07s-85,309-142.86,415.91c-28,51.72-56.1,90.95-83.52,116.62-22.5,21.06-43.58,32.06-62.88,32.84C3053,1686.53,3035.19,1666.72,3021.21,1633.62Z"/><path class="cls-2" d="M3088.32,1704.15a60.31,60.31,0,0,1-6.45-.34,61.94,61.94,0,0,1-14.89-1.27h0c-1.22-.26-2.49-.58-3.88-1-1.43-.21-2.72-.44-3.94-.69-50.22-10.67-83.19-84.89-92.83-209-9.48-122,4.28-278.57,38.74-440.79s85.54-310.85,143.81-418.48c59.25-109.45,119.55-163.85,169.76-153.19.84.18,1.72.39,2.75.67a61.09,61.09,0,0,1,13.71,1.29c50.22,10.67,83.19,84.89,92.83,209,8.51,109.53-2,249.84-29.55,395.08-2.89,15.19-6,30.57-9.2,45.71-34.46,162.23-85.53,310.84-143.8,418.48-28.22,52.12-56.66,91.89-84.53,118.21C3135.33,1692,3111,1704.15,3088.32,1704.15Zm-6.37-2.47h.07c47.95,5.06,105.31-49.28,161.49-153,58.17-107.46,109.17-255.88,143.59-417.91,3.22-15.12,6.31-30.49,9.19-45.66,27.53-145.06,38-285.17,29.52-394.53-9.56-123.07-41.93-196.6-91.15-207.06a59.29,59.29,0,0,0-13.37-1.25h-.15l-.15,0c-1.06-.28-1.95-.5-2.79-.68-49.22-10.45-108.68,43.57-167.45,152.12-58.18,107.46-109.17,255.88-143.6,417.91s-48.16,318.36-38.7,440.19c9.56,123.07,41.93,196.6,91.15,207.06,1.19.25,2.46.47,3.87.67l.14,0c1.37.39,2.62.7,3.81,1h0a58.83,58.83,0,0,0,14.45,1.22Zm-8-8-.17-.05c-21.46-6.16-39.49-26.21-53.59-59.58-14.66-34.7-24.4-82.09-29-140.84-9.41-121.24,4.29-276.92,38.59-438.37s85.07-309.25,143-416.19c28.06-51.82,56.23-91.15,83.73-116.9,22.49-21.06,43.76-32.2,63.2-33.1h.17l.52.07.49.08c21.25,6.32,39.11,26.32,53.1,59.44,14.66,34.7,24.41,82.09,29,140.84,9.42,121.24-4.28,276.92-38.58,438.37s-85.07,309.25-143,416.19c-28.05,51.82-56.22,91.15-83.72,116.9-22.64,21.19-44,32.34-63.56,33.12Zm-51.8-60.46c13.8,32.67,31.31,52.29,52,58.32,19-.82,39.84-11.77,62-32.55,27.33-25.58,55.36-64.73,83.3-116.35,57.8-106.76,108.5-254.37,142.76-415.62s48-316.73,38.54-437.77c-4.54-58.52-14.24-105.68-28.8-140.17-13.72-32.47-31.11-52.05-51.68-58.21l-.27,0-.37-.05c-18.9.91-39.68,11.85-61.76,32.53-27.33,25.58-55.36,64.73-83.31,116.35-57.8,106.76-108.49,254.37-142.75,415.62S2984,1372,2993.38,1493C2997.93,1551.56,3007.62,1598.72,3022.19,1633.21Z"/><path class="cls-1" d="M3030.5,1686.26a10.47,10.47,0,0,1,5.4-4.44,9.13,9.13,0,0,1,1.57-.42,10.93,10.93,0,0,1,1.6-.2,7,7,0,0,1,3.06.57,8.48,8.48,0,0,1,4.49,4.26,10.76,10.76,0,0,1,1,7,8,8,0,0,1-4.27,5.61,9.73,9.73,0,0,1-7.91.27,11.2,11.2,0,0,1-3.5-2.32,8.81,8.81,0,0,1-1.24-1.51,9.45,9.45,0,0,1-.83-1.73A8.21,8.21,0,0,1,3030.5,1686.26Z"/><path class="cls-2" d="M3039.25,1700.62a12.65,12.65,0,0,1-4.21-.75,12.15,12.15,0,0,1-3.89-2.57,9.88,9.88,0,0,1-1.41-1.71,11.31,11.31,0,0,1-.92-1.93,9.22,9.22,0,0,1,.76-7.94h0a11.45,11.45,0,0,1,6-4.9,9.32,9.32,0,0,1,1.76-.46,10,10,0,0,1,1.74-.22,8.05,8.05,0,0,1,3.5.65,9.41,9.41,0,0,1,5,4.73,11.84,11.84,0,0,1,1.05,7.68,9,9,0,0,1-4.83,6.34A9.45,9.45,0,0,1,3039.25,1700.62Zm.12-18.36h-.25a9.74,9.74,0,0,0-1.45.19,7.71,7.71,0,0,0-1.41.37,9.49,9.49,0,0,0-4.85,4h0a7.14,7.14,0,0,0-.59,6.14,8.7,8.7,0,0,0,.74,1.54,7,7,0,0,0,1.09,1.3,9.82,9.82,0,0,0,3.15,2.1,8.71,8.71,0,0,0,7-.22,7,7,0,0,0,3.74-4.9,9.67,9.67,0,0,0-.86-6.25,7.37,7.37,0,0,0-3.88-3.74A6.27,6.27,0,0,0,3039.37,1682.26Z"/><path class="cls-1" d="M3016.06,1674.9a9.83,9.83,0,0,1,6.35-2.83,9.09,9.09,0,0,1,3.31.29,9.29,9.29,0,0,1,2.89,1.47,7.25,7.25,0,0,1,2.06,2.48,8.91,8.91,0,0,1,1.07,3.06,11.23,11.23,0,0,1,0,3.47,10.11,10.11,0,0,1-1.22,3.42A8.61,8.61,0,0,1,3028,1689a8.08,8.08,0,0,1-3.33,1.31,9.59,9.59,0,0,1-3.83-.16,11.17,11.17,0,0,1-3.64-1.87,9.09,9.09,0,0,1-2.61-3.12,9.43,9.43,0,0,1-1.09-3.58A8.58,8.58,0,0,1,3016.06,1674.9Z"/><path class="cls-2" d="M3023.21,1691.46a10.88,10.88,0,0,1-2.6-.31,12.23,12.23,0,0,1-4-2.06,10.12,10.12,0,0,1-2.91-3.46,10.41,10.41,0,0,1-1.21-4,9.62,9.62,0,0,1,2.85-7.49h0a10.79,10.79,0,0,1,7-3.14,10.2,10.2,0,0,1,3.67.32,10.46,10.46,0,0,1,3.21,1.63,8.34,8.34,0,0,1,2.39,2.87,9.83,9.83,0,0,1,1.17,3.37,11.67,11.67,0,0,1,0,3.82,10.88,10.88,0,0,1-1.35,3.78,9.67,9.67,0,0,1-2.78,3,9.08,9.08,0,0,1-3.77,1.49A10,10,0,0,1,3023.21,1691.46Zm-6.4-15.81a7.57,7.57,0,0,0-2.23,5.84,8.21,8.21,0,0,0,1,3.14,7.85,7.85,0,0,0,2.3,2.76,10.15,10.15,0,0,0,3.31,1.71,8.64,8.64,0,0,0,3.36.13,7,7,0,0,0,2.9-1.14,7.48,7.48,0,0,0,2.16-2.37,8.88,8.88,0,0,0,1.09-3,10,10,0,0,0,0-3.14,7.77,7.77,0,0,0-.94-2.68,6.34,6.34,0,0,0-1.78-2.18,8.3,8.3,0,0,0-2.53-1.29,8.09,8.09,0,0,0-2.93-.25,8.85,8.85,0,0,0-5.7,2.52Z"/><path class="cls-1" d="M3004.33,1660.72a9.79,9.79,0,0,1,6.82-1.63,9,9,0,0,1,5.82,3.16,9.14,9.14,0,0,1,1.58,2.94,8.93,8.93,0,0,1,.33,3.35,9.8,9.8,0,0,1-2.82,6.36,8.58,8.58,0,0,1-6.64,2.54,9.69,9.69,0,0,1-6.65-3.53,9.37,9.37,0,0,1-2.13-7.17A8.67,8.67,0,0,1,3004.33,1660.72Z"/><path class="cls-2" d="M3009.93,1678.52l-.57,0a10.7,10.7,0,0,1-7.42-3.92,10.42,10.42,0,0,1-2.35-8,9.68,9.68,0,0,1,4.14-6.74h0a10.77,10.77,0,0,1,7.57-1.8,10.08,10.08,0,0,1,6.51,3.55,10.51,10.51,0,0,1,1.76,3.31,9.94,9.94,0,0,1,.37,3.72,10.83,10.83,0,0,1-3.13,7A9.61,9.61,0,0,1,3009.93,1678.52Zm-5-16.93a7.59,7.59,0,0,0-3.24,5.29,8.28,8.28,0,0,0,1.9,6.37,8.67,8.67,0,0,0,5.91,3.13,7.43,7.43,0,0,0,5.79-2.23,8.67,8.67,0,0,0,2.52-5.67,7.57,7.57,0,0,0-1.7-5.6,8,8,0,0,0-5.13-2.74,8.64,8.64,0,0,0-6,1.45Z"/><path class="cls-1" d="M2994.88,1644.92a9.51,9.51,0,0,1,7-.71,9.11,9.11,0,0,1,5.39,4,8.81,8.81,0,0,1,.72,1.6,7.75,7.75,0,0,1,.42,1.64,9.08,9.08,0,0,1-.15,3.4,9.78,9.78,0,0,1-3.91,5.82,8.6,8.6,0,0,1-6.93,1.35,9.27,9.27,0,0,1-3.32-1.53,9.63,9.63,0,0,1-1.45-1.27,9,9,0,0,1-1.16-1.6,9.25,9.25,0,0,1-1-7.28A8.79,8.79,0,0,1,2994.88,1644.92Z"/><path class="cls-2" d="M2999.35,1663.37a9.08,9.08,0,0,1-2.2-.27,10.15,10.15,0,0,1-3.69-1.7,9.35,9.35,0,0,1-2.91-3.19,10.28,10.28,0,0,1-1.14-8.12,9.79,9.79,0,0,1,5-6.12h0a10.58,10.58,0,0,1,7.75-.79,10.21,10.21,0,0,1,6,4.54,10.53,10.53,0,0,1,.81,1.79,9.08,9.08,0,0,1,.46,1.83,10,10,0,0,1-.17,3.8,10.81,10.81,0,0,1-4.33,6.45A9.79,9.79,0,0,1,2999.35,1663.37Zm-4-17.51a7.74,7.74,0,0,0-3.92,4.82,8.18,8.18,0,0,0,.94,6.46,8.93,8.93,0,0,0,1,1.42,10,10,0,0,0,1.29,1.12,8.42,8.42,0,0,0,3,1.36,7.54,7.54,0,0,0,6.08-1.19,8.75,8.75,0,0,0,3.47-5.2,7.77,7.77,0,0,0,.14-3,7,7,0,0,0-.37-1.43,7.41,7.41,0,0,0-.64-1.44,8.1,8.1,0,0,0-4.78-3.57,8.45,8.45,0,0,0-6.18.64Z"/><path class="cls-1" d="M2987.17,1628.19a9.29,9.29,0,0,1,7,0,9,9,0,0,1,5.28,11.45,9.56,9.56,0,0,1-4.56,5.31,8.8,8.8,0,0,1-7.05.51,9.46,9.46,0,0,1-5.63-12.21A8.9,8.9,0,0,1,2987.17,1628.19Z"/><path class="cls-2" d="M2990.74,1647a9.62,9.62,0,0,1-3.27-.57,10.54,10.54,0,0,1-6.27-13.59,10,10,0,0,1,5.57-5.64h0a10.39,10.39,0,0,1,7.79,0,10,10,0,0,1,5.88,12.8,10.64,10.64,0,0,1-5.07,5.89A10,10,0,0,1,2990.74,1647Zm-3.17-17.83a7.92,7.92,0,0,0-4.39,4.44,8.62,8.62,0,0,0,.26,6.44,8.5,8.5,0,0,0,4.75,4.38,7.71,7.71,0,0,0,6.19-.46,8.43,8.43,0,0,0,4.06-4.72,7.9,7.9,0,0,0-4.65-10.1,8.26,8.26,0,0,0-6.22,0Z"/><path class="cls-1" d="M2980.81,1610.89a9.42,9.42,0,0,1,7,.47,9.25,9.25,0,0,1,4.64,5.07,9.37,9.37,0,0,1-5.3,11.76,9.28,9.28,0,0,1-11.65-12.65A9,9,0,0,1,2980.81,1610.89Z"/><path class="cls-2" d="M2983.79,1629.93a10.41,10.41,0,0,1-9.22-14.85,9.91,9.91,0,0,1,5.91-5.2h0a10.47,10.47,0,0,1,7.81.52,10.23,10.23,0,0,1-.71,18.77A9.83,9.83,0,0,1,2983.79,1629.93Zm-2.65-18a7.84,7.84,0,0,0-4.66,4.1,8.36,8.36,0,0,0,4.11,11.12,7.79,7.79,0,0,0,6.17.09,8.16,8.16,0,0,0-5.62-15.31Z"/><path class="cls-1" d="M2975.54,1593.24a9.21,9.21,0,0,1,5.27,17.65,9.21,9.21,0,1,1-5.27-17.65Z"/><path class="cls-2" d="M2978,1612.42a9.85,9.85,0,0,1-4.54-1.11,10.38,10.38,0,0,1-5.21-6.27,10.51,10.51,0,0,1,.93-8.12,9.9,9.9,0,0,1,6.12-4.71,10.28,10.28,0,0,1,5.88,19.69A10,10,0,0,1,2978,1612.42Zm0-18.44a8.87,8.87,0,0,0-2.15.28h0A7.85,7.85,0,0,0,2971,1598a8.38,8.38,0,0,0-.73,6.46,8.28,8.28,0,0,0,4.14,5,7.73,7.73,0,0,0,6.07.46A8.14,8.14,0,0,0,2978,1594Z"/><path class="cls-1" d="M2971.17,1575.33a9.22,9.22,0,0,1,4.37,17.91,9.22,9.22,0,1,1-4.37-17.91Z"/><path class="cls-2" d="M2973.18,1594.62a10,10,0,0,1-5.07-1.39,10.4,10.4,0,0,1-3.53-14.46,10,10,0,0,1,6.37-4.48h0a10.28,10.28,0,0,1,4.87,20A9.94,9.94,0,0,1,2973.18,1594.62Zm-1.78-18.25a7.85,7.85,0,0,0-5,3.53,8.28,8.28,0,0,0,2.81,11.49,7.79,7.79,0,0,0,6.07.82,8.15,8.15,0,0,0-3.86-15.84Z"/><path class="cls-1" d="M2967.54,1557.27a9.24,9.24,0,0,1,6.87,1.46,9,9,0,0,1,3.87,5.78,9.27,9.27,0,0,1-7.11,10.82,9.12,9.12,0,0,1-10.9-7.2,9.35,9.35,0,0,1,1.37-7A9,9,0,0,1,2967.54,1557.27Z"/><path class="cls-2" d="M2969.19,1576.62a10.07,10.07,0,0,1-5.48-1.64,10.24,10.24,0,0,1-4.49-6.65,10.37,10.37,0,0,1,1.53-7.8,10.2,10.2,0,0,1,6.6-4.31h0a10.28,10.28,0,0,1,7.65,1.63,10,10,0,0,1,4.32,6.45,10.27,10.27,0,0,1-7.91,12.07A9.88,9.88,0,0,1,2969.19,1576.62Zm-1.46-18.31a8.07,8.07,0,0,0-5.21,3.4,8.25,8.25,0,0,0-1.21,6.21,8.12,8.12,0,0,0,3.56,5.28,7.9,7.9,0,0,0,6.07,1.1,8.18,8.18,0,0,0,6.3-9.59,8,8,0,0,0-3.42-5.1,8.24,8.24,0,0,0-6.09-1.3Z"/><path class="cls-1" d="M2964.54,1539.08a9.22,9.22,0,0,1,3,18.19,9.22,9.22,0,1,1-3-18.19Z"/><path class="cls-2" d="M2965.89,1558.48a10.05,10.05,0,0,1-5.79-1.84,10.37,10.37,0,0,1-2.38-14.6,10,10,0,0,1,6.67-4h0a10.28,10.28,0,0,1,3.35,20.28A9.72,9.72,0,0,1,2965.89,1558.48Zm-1.2-18.34a7.89,7.89,0,0,0-5.26,3.16,8.23,8.23,0,0,0-1.48,6.21,8.14,8.14,0,0,0,3.37,5.39,7.93,7.93,0,0,0,6,1.32,8.15,8.15,0,0,0-2.66-16.08Z"/><path class="cls-1" d="M2962.09,1520.82a9.21,9.21,0,1,1-8,10.36A9.23,9.23,0,0,1,2962.09,1520.82Z"/><path class="cls-2" d="M2963.17,1540.25a10,10,0,0,1-6-2,10.35,10.35,0,0,1-2-14.66,10,10,0,0,1,6.77-3.82h0a10.28,10.28,0,0,1,2.74,20.38A11.25,11.25,0,0,1,2963.17,1540.25Zm-1-18.37a7.87,7.87,0,0,0-5.34,3,8.22,8.22,0,0,0,1.55,11.64,7.92,7.92,0,0,0,6,1.5,8.15,8.15,0,0,0-2.17-16.15Z"/><path class="cls-1" d="M2960.14,1502.5a9.21,9.21,0,1,1-8.22,10.14A9.23,9.23,0,0,1,2960.14,1502.5Z"/><path class="cls-2" d="M2961,1522a10,10,0,0,1-6.24-2.18,10.34,10.34,0,0,1-1.6-14.65,10.07,10.07,0,0,1,6.91-3.68h0a10.28,10.28,0,0,1,2.18,20.44A10.59,10.59,0,0,1,2961,1522Zm-.73-18.4a8,8,0,0,0-5.46,2.91,8.11,8.11,0,0,0-1.8,6.07,8.24,8.24,0,0,0,3.07,5.58,8,8,0,0,0,5.91,1.66,8.16,8.16,0,0,0-1.73-16.22Z"/><path class="cls-1" d="M2958.61,1484.13a9.26,9.26,0,0,1,9.87,8.42,9.21,9.21,0,0,1-15.08,7.85,9.24,9.24,0,0,1-3.23-6.32A9.15,9.15,0,0,1,2958.61,1484.13Z"/><path class="cls-2" d="M2959.25,1503.6a10.16,10.16,0,0,1-6.53-2.38,10.28,10.28,0,0,1-3.61-7,10.21,10.21,0,0,1,9.42-11.1h0a10.38,10.38,0,0,1,11,9.39,10.33,10.33,0,0,1-9.3,11.09A8.21,8.21,0,0,1,2959.25,1503.6Zm-.56-18.41a8.09,8.09,0,0,0-7.46,8.8,8.13,8.13,0,0,0,2.86,5.6,8,8,0,0,0,5.95,1.85,8.16,8.16,0,0,0,5.49-2.9,8.07,8.07,0,0,0,1.89-5.9,8.22,8.22,0,0,0-8.73-7.45Z"/><path class="cls-1" d="M2957.46,1465.74a9.21,9.21,0,1,1-8.64,9.76A9.15,9.15,0,0,1,2957.46,1465.74Z"/><path class="cls-2" d="M2957.92,1485.22a10.23,10.23,0,0,1-10.16-9.66,10.31,10.31,0,0,1,2.62-7.53,10,10,0,0,1,7-3.35h0a10.28,10.28,0,0,1,1.28,20.51C2958.43,1485.21,2958.18,1485.22,2957.92,1485.22Zm-.41-18.42a8,8,0,0,0-5.55,2.65,8.22,8.22,0,0,0,.68,11.64,8,8,0,0,0,5.89,2,8.15,8.15,0,0,0-1-16.27Z"/><path class="cls-1" d="M2956.69,1447.33a9.21,9.21,0,1,1-8.84,9.59A9.21,9.21,0,0,1,2956.69,1447.33Z"/><path class="cls-2" d="M2957,1466.81a10.05,10.05,0,0,1-6.78-2.62,10.33,10.33,0,0,1-.65-14.68,10.12,10.12,0,0,1,7.12-3.25,10.28,10.28,0,0,1,.87,20.54Zm-.24-18.42a8,8,0,0,0-5.63,2.57,8.19,8.19,0,0,0,.51,11.65,7.94,7.94,0,0,0,5.8,2.07,8.15,8.15,0,0,0-.68-16.29Z"/><path class="cls-1" d="M2956.23,1428.9a9.22,9.22,0,0,1,.46,18.43,9.22,9.22,0,1,1-.46-18.43Z"/><path class="cls-2" d="M2956.36,1448.39a10.28,10.28,0,0,1-.14-20.55h.15a10.28,10.28,0,0,1,.36,20.55Zm-.11-18.43a8.18,8.18,0,0,0-5.41,14.1,7.92,7.92,0,0,0,5.81,2.2,8.15,8.15,0,0,0-.28-16.3Z"/><path class="cls-1" d="M2956.08,1410.47a9.22,9.22,0,1,1-9.16,9.29A9.21,9.21,0,0,1,2956.08,1410.47Z"/><path class="cls-2" d="M2956.07,1430a10.11,10.11,0,0,1-7.07-2.87,10.31,10.31,0,0,1-.13-14.69,10.09,10.09,0,0,1,7.2-3h0a10.28,10.28,0,0,1,.17,20.55Zm0-18.43a8,8,0,0,0-5.69,2.37,8.19,8.19,0,0,0,.1,11.66,8,8,0,0,0,5.73,2.27,8.15,8.15,0,0,0-.13-16.3Z"/><path class="cls-1" d="M2956.21,1392.05a9.21,9.21,0,0,1-.13,18.42,9.21,9.21,0,1,1,.13-18.42Z"/><path class="cls-2" d="M2956.07,1411.54a10.28,10.28,0,0,1,0-20.56h.17a10.28,10.28,0,0,1-.15,20.56Zm0-18.43a8,8,0,0,0-5.63,2.3,8.23,8.23,0,0,0-.09,11.61,8,8,0,0,0,5.73,2.39h0a8.15,8.15,0,0,0,.12-16.3h-.14Z"/><path class="cls-1" d="M2956.62,1373.62a9.22,9.22,0,1,1-9.43,9A9.21,9.21,0,0,1,2956.62,1373.62Z"/><path class="cls-2" d="M2956.34,1393.11h-.14A10.14,10.14,0,0,1,2949,1390a10.25,10.25,0,1,1,7.3,3.09Zm0-18.43a8,8,0,0,0-5.54,2.22,8.19,8.19,0,0,0-.24,11.64,8,8,0,0,0,5.67,2.44h.11a8.15,8.15,0,0,0,.24-16.3h-.24Z"/><path class="cls-1" d="M2957.25,1355.2a9.22,9.22,0,1,1-9.52,8.89A9.24,9.24,0,0,1,2957.25,1355.2Z"/><path class="cls-2" d="M2956.87,1374.69h-.28a10.23,10.23,0,0,1-9.93-10.63,10.32,10.32,0,0,1,3.31-7.23,10.15,10.15,0,0,1,7.33-2.68h0a10.28,10.28,0,0,1-.43,20.55Zm0-18.43a8,8,0,0,0-5.44,2.13A8.22,8.22,0,0,0,2951,1370a8,8,0,0,0,5.68,2.56h.22a8.15,8.15,0,0,0,.34-16.3Z"/><path class="cls-1" d="M2958.15,1336.8a9.21,9.21,0,1,1-9.65,8.76A9.23,9.23,0,0,1,2958.15,1336.8Z"/><path class="cls-2" d="M2957.63,1356.27h-.42a10.11,10.11,0,0,1-7.07-3.29,10.34,10.34,0,0,1,.65-14.61,10.14,10.14,0,0,1,7.42-2.64h0a10.28,10.28,0,0,1-.58,20.54Zm0-18.43a8.13,8.13,0,0,0-8.08,7.76,8.18,8.18,0,0,0,2.14,5.94,8,8,0,0,0,5.6,2.6,8.15,8.15,0,0,0,.8-16.28h0Z"/><path class="cls-1" d="M2959.26,1318.4a9.22,9.22,0,1,1-9.76,8.64A9.21,9.21,0,0,1,2959.26,1318.4Z"/><path class="cls-2" d="M2958.65,1337.87h-.55a10.28,10.28,0,0,1-6.16-18,10.08,10.08,0,0,1,7.39-2.51h0a10.28,10.28,0,0,1-.68,20.53Zm0-18.43a8,8,0,0,0-5.3,2,8.18,8.18,0,0,0-.72,11.6,8,8,0,0,0,5.59,2.69,8.15,8.15,0,0,0,1-16.27Z"/><path class="cls-1" d="M2960.59,1300a9.21,9.21,0,1,1-9.85,8.53A9.24,9.24,0,0,1,2960.59,1300Z"/><path class="cls-2" d="M2959.87,1319.48c-.23,0-.45,0-.68,0a10.22,10.22,0,0,1-9.51-11,10.26,10.26,0,0,1,3.55-7.08,10.15,10.15,0,0,1,7.44-2.43h0a10.28,10.28,0,0,1-.8,20.52Zm0-18.43a8,8,0,0,0-5.25,2,8.23,8.23,0,0,0-.84,11.58,8,8,0,0,0,5.56,2.76,8.15,8.15,0,0,0,1.18-16.26h0Z"/><path class="cls-1" d="M2962.14,1281.66a9.21,9.21,0,1,1-10,8.41A9.21,9.21,0,0,1,2962.14,1281.66Z"/><path class="cls-2" d="M2961.31,1301.11c-.27,0-.53,0-.8,0a10.12,10.12,0,0,1-7-3.54,10.33,10.33,0,0,1-2.43-7.56,10.24,10.24,0,0,1,11.11-9.38,10.28,10.28,0,0,1-.92,20.51Zm0-18.43a8.13,8.13,0,0,0-8.06,7.47,8.18,8.18,0,0,0,1.93,6,8,8,0,0,0,5.5,2.8,8.15,8.15,0,0,0,1.37-16.25h0C2961.79,1282.69,2961.55,1282.68,2961.3,1282.68Z"/><path class="cls-1" d="M2963.87,1263.31a9.22,9.22,0,1,1-10,8.3A9.21,9.21,0,0,1,2963.87,1263.31Z"/><path class="cls-2" d="M2963,1282.76c-.3,0-.6,0-.91,0a10.25,10.25,0,0,1-9.27-11.2,10.27,10.27,0,0,1,3.73-7,10.13,10.13,0,0,1,7.48-2.26,10.28,10.28,0,0,1-1,20.51Zm0-18.44a8,8,0,0,0-5.09,1.83,8.18,8.18,0,0,0-1.12,11.56,8,8,0,0,0,5.5,2.89,8.15,8.15,0,0,0,1.53-16.23A7.52,7.52,0,0,0,2962.94,1264.32Z"/><path class="cls-1" d="M2965.8,1245a9.22,9.22,0,1,1-10.12,8.2A9.24,9.24,0,0,1,2965.8,1245Z"/><path class="cls-2" d="M2964.78,1264.42c-.33,0-.67,0-1-.05a10.24,10.24,0,0,1-9.15-11.31,10.3,10.3,0,0,1,3.8-7,10.09,10.09,0,0,1,7.49-2.18h0a10.28,10.28,0,0,1-1.13,20.5Zm0-18.43a8,8,0,0,0-5,1.77,8.22,8.22,0,0,0-1.25,11.54,8,8,0,0,0,5.48,3,8.15,8.15,0,0,0,1.7-16.21A7,7,0,0,0,2964.77,1246Z"/><path class="cls-1" d="M2967.93,1226.68a9.21,9.21,0,1,1-10.21,8.09A9.22,9.22,0,0,1,2967.93,1226.68Z"/><path class="cls-2" d="M2966.81,1246.1a10.84,10.84,0,0,1-1.13-.06,10.12,10.12,0,0,1-6.84-3.77,10.25,10.25,0,0,1-2.18-7.62,10.24,10.24,0,0,1,11.4-9h0a10.28,10.28,0,0,1-1.25,20.48Zm0-18.43a8.11,8.11,0,0,0-8,7.22,8.17,8.17,0,0,0,1.73,6,8,8,0,0,0,5.41,3,8.15,8.15,0,1,0,.9-16.25Z"/><path class="cls-1" d="M2970.23,1208.39a9.22,9.22,0,1,1-10.3,8A9.2,9.2,0,0,1,2970.23,1208.39Z"/><path class="cls-2" d="M2969,1227.8a10.38,10.38,0,0,1-1.23-.07,10.14,10.14,0,0,1-6.81-3.84,10.3,10.3,0,0,1,1.82-14.51,10.12,10.12,0,0,1,7.56-2,10.27,10.27,0,0,1-1.34,20.46Zm0-18.42a8.15,8.15,0,0,0-1,16.24,8.15,8.15,0,0,0,2-16.17h0A7.55,7.55,0,0,0,2969,1209.38Z"/><path class="cls-1" d="M2972.71,1190.13a9.21,9.21,0,1,1-10.37,7.89A9.21,9.21,0,0,1,2972.71,1190.13Z"/><path class="cls-2" d="M2971.41,1209.53a11.66,11.66,0,0,1-1.31-.08,10.28,10.28,0,1,1,2.76-20.37h0a10.28,10.28,0,0,1-1.45,20.45Zm0-18.43a8,8,0,0,0-4.85,1.63,8.18,8.18,0,0,0-3.18,5.44,8.13,8.13,0,0,0,7,9.17,8.15,8.15,0,0,0,2.19-16.16h0A8.74,8.74,0,0,0,2971.42,1191.1Z"/><path class="cls-1" d="M2975.36,1171.89a9.22,9.22,0,1,1-10.43,7.8A9.22,9.22,0,0,1,2975.36,1171.89Z"/><path class="cls-2" d="M2974,1191.28a9.78,9.78,0,0,1-1.42-.1,10.28,10.28,0,0,1-4.62-18.45,10.06,10.06,0,0,1,7.57-1.89h0a10.28,10.28,0,0,1-1.53,20.44Zm0-18.43a8,8,0,0,0-4.78,1.58,8.17,8.17,0,0,0-3.22,5.41,8.12,8.12,0,0,0,6.88,9.24,8.15,8.15,0,0,0,2.34-16.14h0A8.45,8.45,0,0,0,2974,1172.85Z"/><path class="cls-1" d="M2978.19,1153.68a9.21,9.21,0,1,1-10.51,7.7A9.24,9.24,0,0,1,2978.19,1153.68Z"/><path class="cls-2" d="M2976.72,1173.06a9.83,9.83,0,0,1-1.52-.12,10.08,10.08,0,0,1-6.69-4,10.24,10.24,0,0,1-1.88-7.7,10.24,10.24,0,0,1,11.73-8.58,10.28,10.28,0,0,1-1.64,20.43Zm0-18.43a8,8,0,0,0-4.75,1.56,8.15,8.15,0,0,0,3.54,14.65,8.15,8.15,0,0,0,2.51-16.11h0A8.13,8.13,0,0,0,2976.72,1154.63Z"/><path class="cls-1" d="M2981.19,1135.5a9.21,9.21,0,1,1-10.59,7.59A9.21,9.21,0,0,1,2981.19,1135.5Z"/><path class="cls-2" d="M2979.64,1154.86a10,10,0,0,1-1.62-.13,10.13,10.13,0,0,1-6.65-4.09,10.31,10.31,0,0,1,2.34-14.42,10.14,10.14,0,0,1,7.65-1.77h0a10.28,10.28,0,0,1-1.72,20.41Zm0-18.43a8.15,8.15,0,0,0-8,6.83,8.19,8.19,0,0,0,1.45,6.13,8,8,0,0,0,5.27,3.24,8.15,8.15,0,0,0,2.65-16.08h0A8,8,0,0,0,2979.64,1136.43Z"/><path class="cls-1" d="M2984.34,1117.34a9.22,9.22,0,1,1-10.66,7.5A9.19,9.19,0,0,1,2984.34,1117.34Z"/><path class="cls-2" d="M2982.72,1136.69a11,11,0,0,1-1.71-.14,10.28,10.28,0,0,1-8.38-11.89,10.31,10.31,0,0,1,4.26-6.69,10.12,10.12,0,0,1,7.64-1.67,10.28,10.28,0,0,1-1.81,20.39Zm0-18.43a8,8,0,0,0-4.61,1.46,8.16,8.16,0,0,0-2,11.43,8,8,0,0,0,5.24,3.3,8.15,8.15,0,0,0,2.79-16.06A7.76,7.76,0,0,0,2982.72,1118.26Z"/><path class="cls-1" d="M2987.65,1099.21a9.21,9.21,0,1,1-10.71,7.41A9.21,9.21,0,0,1,2987.65,1099.21Z"/><path class="cls-2" d="M2985.94,1118.55a10.92,10.92,0,0,1-1.79-.16,10.24,10.24,0,0,1-8.26-12,10.31,10.31,0,0,1,4.31-6.64,10.13,10.13,0,0,1,7.65-1.61h0a10.28,10.28,0,0,1-1.91,20.38Zm0-18.43a8.06,8.06,0,0,0-4.55,1.41,8.19,8.19,0,0,0-3.42,5.28,8.11,8.11,0,0,0,6.55,9.48,8.15,8.15,0,0,0,2.93-16h0A7.79,7.79,0,0,0,2986,1100.12Z"/><path class="cls-1" d="M2991.12,1081.11a9.21,9.21,0,1,1-10.77,7.32A9.23,9.23,0,0,1,2991.12,1081.11Z"/><path class="cls-2" d="M2989.33,1100.43a10,10,0,0,1-1.87-.17,10.23,10.23,0,0,1-8.15-12,10.28,10.28,0,0,1,4.36-6.6,10.09,10.09,0,0,1,7.66-1.55h0a10.28,10.28,0,0,1-2,20.36Zm0-18.43a8,8,0,0,0-4.48,1.38,8.15,8.15,0,0,0,3,14.79,8.15,8.15,0,0,0,3.07-16h0A7.7,7.7,0,0,0,2989.34,1082Z"/><path class="cls-1" d="M2994.76,1063.05a9.21,9.21,0,1,1-10.83,7.22A9.23,9.23,0,0,1,2994.76,1063.05Z"/><path class="cls-2" d="M2992.9,1082.35a10.29,10.29,0,0,1-2-.19,10.09,10.09,0,0,1-6.5-4.33,10.34,10.34,0,0,1,2.86-14.34,10.12,10.12,0,0,1,7.7-1.48,10.28,10.28,0,0,1-2.08,20.34Zm0-18.43a8.1,8.1,0,0,0-7.93,6.55,8.2,8.2,0,0,0,1.21,6.18,8,8,0,0,0,5.15,3.42,8.15,8.15,0,0,0,3.22-16h0A7.71,7.71,0,0,0,2992.9,1063.92Z"/><path class="cls-1" d="M2998.56,1045a9.22,9.22,0,1,1-10.91,7.13A9.23,9.23,0,0,1,2998.56,1045Z"/><path class="cls-2" d="M2996.62,1064.3a10.46,10.46,0,0,1-2.07-.21,10.15,10.15,0,0,1-6.47-4.39,10.3,10.3,0,0,1-1.47-7.78,10.25,10.25,0,0,1,12.17-8h0a10.28,10.28,0,0,1-2.16,20.33Zm0-18.43A8.16,8.16,0,0,0,2995,1062a8.16,8.16,0,0,0,3.36-16h0A8.38,8.38,0,0,0,2996.62,1045.87Z"/><path class="cls-1" d="M3002.51,1027a9.21,9.21,0,1,1-11,7A9.21,9.21,0,0,1,3002.51,1027Z"/><path class="cls-2" d="M3000.49,1046.28a9.89,9.89,0,0,1-2.15-.23,10.09,10.09,0,0,1-6.43-4.44,10.28,10.28,0,0,1,3.1-14.27,10.12,10.12,0,0,1,7.73-1.36,10.28,10.28,0,0,1-2.25,20.3Zm0-18.43a8.15,8.15,0,0,0-7.92,6.42,8.17,8.17,0,0,0,1.12,6.19,8,8,0,0,0,5.09,3.51,8.15,8.15,0,0,0,3.5-15.92h0A8.39,8.39,0,0,0,3000.49,1027.85Z"/><path class="cls-1" d="M3006.61,1009.05a9.21,9.21,0,1,1-11,6.93A9.2,9.2,0,0,1,3006.61,1009.05Z"/><path class="cls-2" d="M3004.51,1028.3a10.25,10.25,0,0,1-8.63-4.75,10.28,10.28,0,0,1,3.26-14.26,10.11,10.11,0,0,1,7.71-1.28,10.28,10.28,0,0,1-2.34,20.29Zm0-18.43a8,8,0,0,0-4.26,1.22,8.15,8.15,0,0,0-2.58,11.32,7.94,7.94,0,0,0,5.06,3.56,8.15,8.15,0,0,0,3.63-15.89h0A8.33,8.33,0,0,0,3004.52,1009.87Z"/><path class="cls-1" d="M3010.87,991.11a9.22,9.22,0,1,1-11.09,6.84A9.22,9.22,0,0,1,3010.87,991.11Z"/><path class="cls-2" d="M3008.67,1010.35a10.26,10.26,0,0,1-8.69-4.87,10.28,10.28,0,0,1,11.14-15.4h0a10.28,10.28,0,0,1-2.45,20.27Zm0-18.43a8,8,0,0,0-4.2,1.19,8.19,8.19,0,0,0-2.71,11.26,8.06,8.06,0,0,0,5.06,3.64,8.15,8.15,0,0,0,3.76-15.86h0A7.74,7.74,0,0,0,3008.7,991.92Z"/><path class="cls-1" d="M3015.28,973.22a9.21,9.21,0,1,1-11.14,6.74A9.22,9.22,0,0,1,3015.28,973.22Z"/><path class="cls-2" d="M3013,992.43a10.33,10.33,0,0,1-2.39-.28,10.23,10.23,0,0,1-7.51-12.45,10.23,10.23,0,0,1,4.7-6.37,10.12,10.12,0,0,1,7.73-1.14h0a10.28,10.28,0,0,1-2.53,20.24Zm0-18.43a7.94,7.94,0,0,0-4.13,1.16,8.21,8.21,0,0,0-2.8,11.25,8,8,0,0,0,5,3.67,8.15,8.15,0,0,0,3.91-15.83A8.48,8.48,0,0,0,3013,974Z"/><path class="cls-1" d="M3019.86,955.37a9.21,9.21,0,1,1-11.2,6.64A9.25,9.25,0,0,1,3019.86,955.37Z"/><path class="cls-2" d="M3017.52,974.56a10.27,10.27,0,1,1,2.61-20.22,10.28,10.28,0,0,1-2.61,20.22Zm0-18.43a8,8,0,0,0-4.09,1.13,8.21,8.21,0,0,0-2.86,11.24,7.94,7.94,0,0,0,5,3.69,8.15,8.15,0,0,0,4.06-15.79h0A8,8,0,0,0,3017.53,956.13Z"/><path class="cls-1" d="M3024.61,937.56a9.22,9.22,0,1,1-11.28,6.54A9.24,9.24,0,0,1,3024.61,937.56Z"/><path class="cls-2" d="M3022.18,956.73a10.18,10.18,0,0,1-8.81-5.05,10.27,10.27,0,0,1,11.52-15.14,10.28,10.28,0,0,1-2.71,20.19Zm0-18.43a8.17,8.17,0,0,0-4.06,1.1,8.06,8.06,0,0,0-3.78,5,8.19,8.19,0,0,0,.84,6.24,8,8,0,0,0,4.93,3.73,8.15,8.15,0,0,0,4.2-15.75h0A8.22,8.22,0,0,0,3022.2,938.3Z"/><path class="cls-1" d="M3029.51,919.8a9.21,9.21,0,1,1-11.34,6.43A9.19,9.19,0,0,1,3029.51,919.8Z"/><path class="cls-2" d="M3027,939a10.29,10.29,0,0,1-2.68-.36,10.15,10.15,0,0,1-6.19-4.78,10.28,10.28,0,0,1,3.89-14.1,10.15,10.15,0,0,1,7.77-.93h0A10.28,10.28,0,0,1,3027,939Zm0-18.43a8.16,8.16,0,0,0-7.84,6,8.22,8.22,0,0,0,.8,6.25,8,8,0,0,0,4.89,3.78,8.15,8.15,0,0,0,4.34-15.72h0A8.2,8.2,0,0,0,3027,920.52Z"/><path class="cls-1" d="M3034.58,902.08a9.22,9.22,0,1,1-11.39,6.33A9.22,9.22,0,0,1,3034.58,902.08Z"/><path class="cls-2" d="M3032,921.2a10.21,10.21,0,0,1-8.92-5.26,10.28,10.28,0,0,1,11.83-14.88h0A10.28,10.28,0,0,1,3032,921.2Zm0-18.42a8,8,0,0,0-3.87,1,8.12,8.12,0,1,0,6.14-.68h0A8,8,0,0,0,3032,902.78Z"/><path class="cls-1" d="M3039.82,884.41a9.22,9.22,0,1,1-11.44,6.22A9.24,9.24,0,0,1,3039.82,884.41Z"/><path class="cls-2" d="M3037.13,903.51a10.23,10.23,0,0,1-9.77-13.19,10.24,10.24,0,0,1,5-6.15,10.07,10.07,0,0,1,7.77-.77h0a10.27,10.27,0,0,1-3,20.11Zm0-18.43a8,8,0,0,0-3.8,1,8.17,8.17,0,0,0-4,4.89,8.08,8.08,0,0,0,.65,6.24,8,8,0,0,0,4.84,3.89,8.15,8.15,0,0,0,4.63-15.63h0A8.21,8.21,0,0,0,3037.16,885.08Z"/><path class="cls-1" d="M3045.24,866.8a9.21,9.21,0,1,1-11.51,6.1A9.22,9.22,0,0,1,3045.24,866.8Z"/><path class="cls-2" d="M3042.47,885.87a10.22,10.22,0,0,1-9-5.39,10.27,10.27,0,0,1-.76-7.89,10.24,10.24,0,0,1,12.85-6.8h0a10.28,10.28,0,0,1-3.09,20.08Zm0-18.43a8.19,8.19,0,0,0-7.15,12,8,8,0,0,0,4.77,3.91,8.15,8.15,0,0,0,4.8-15.58h0A8,8,0,0,0,3042.5,867.44Z"/><path class="cls-1" d="M3050.84,849.24a9.22,9.22,0,1,1-11.59,6A9.2,9.2,0,0,1,3050.84,849.24Z"/><path class="cls-2" d="M3048,868.28a10.4,10.4,0,0,1-3.05-.46,10.28,10.28,0,1,1,6.24-19.59h0a10.28,10.28,0,0,1-3.19,20Zm0-18.43a8,8,0,0,0-3.68.9,8.16,8.16,0,0,0-3.51,11.07,8,8,0,0,0,4.74,4,8.15,8.15,0,0,0,5-15.54h0A8.27,8.27,0,0,0,3048,849.85Z"/><path class="cls-1" d="M3056.61,831.74A9.21,9.21,0,1,1,3045,837.6,9.2,9.2,0,0,1,3056.61,831.74Z"/><path class="cls-2" d="M3053.64,850.75a10,10,0,0,1-3.13-.5,10.28,10.28,0,1,1,6.44-19.52h0a10.28,10.28,0,0,1-3.31,20Zm.06-18.43a8.17,8.17,0,1,0,2.57.43A7.88,7.88,0,0,0,3053.7,832.32Z"/><path class="cls-1" d="M3062.57,814.3a9.22,9.22,0,1,1-11.69,5.74A9.25,9.25,0,0,1,3062.57,814.3Z"/><path class="cls-2" d="M3059.52,833.28a10.27,10.27,0,1,1,3.4-20h0a10.27,10.27,0,0,1-3.4,20Zm0-18.43a8.2,8.2,0,0,0-7.28,11.81,8,8,0,0,0,4.67,4.07,8.15,8.15,0,0,0,5.27-15.42h0A7.92,7.92,0,0,0,3059.56,814.85Z"/><path class="cls-1" d="M3068.74,796.93a9.22,9.22,0,1,1-11.77,5.61A9.23,9.23,0,0,1,3068.74,796.93Z"/><path class="cls-2" d="M3065.59,815.88a10.36,10.36,0,0,1-3.36-.57,10.1,10.1,0,0,1-5.83-5.2,10.31,10.31,0,0,1,4.86-13.8,10.12,10.12,0,0,1,7.84-.37h0a10.28,10.28,0,0,1-3.51,19.94Zm0-18.43a8.14,8.14,0,0,0-7.66,5.44,8.2,8.2,0,0,0,.34,6.3,8,8,0,0,0,4.61,4.11,8.15,8.15,0,0,0,5.45-15.37A8.07,8.07,0,0,0,3065.63,797.45Z"/><path class="cls-1" d="M3075.09,779.63a9.21,9.21,0,1,1-11.83,5.48A9.23,9.23,0,0,1,3075.09,779.63Z"/><path class="cls-2" d="M3071.82,798.54a10.24,10.24,0,0,1-9.24-5.91,10.32,10.32,0,0,1,5.08-13.72,10.1,10.1,0,0,1,7.8-.27h0a10.27,10.27,0,0,1-3.64,19.9Zm.07-18.43a8,8,0,0,0-3.35.74,8.19,8.19,0,0,0-4,10.88,8,8,0,0,0,4.59,4.2,8.15,8.15,0,0,0,5.61-15.3A7.86,7.86,0,0,0,3071.89,780.11Z"/><path class="cls-1" d="M3081.66,762.42a9.21,9.21,0,1,1-11.89,5.32A9.24,9.24,0,0,1,3081.66,762.42Z"/><path class="cls-2" d="M3078.3,781.28a10.27,10.27,0,1,1,3.74-19.85,10.27,10.27,0,0,1-3.74,19.85Zm0-18.43a8.16,8.16,0,0,0-2.88,15.79,8.15,8.15,0,0,0,5.81-15.23h0A8.07,8.07,0,0,0,3078.34,762.85Z"/><path class="cls-1" d="M3088.44,745.28a9.22,9.22,0,1,1-12,5.17A9.22,9.22,0,0,1,3088.44,745.28Z"/><path class="cls-2" d="M3085,764.1a10.32,10.32,0,0,1-3.71-.69,10.13,10.13,0,0,1-5.64-5.4,10.31,10.31,0,0,1,5.39-13.63,10.06,10.06,0,0,1,7.82-.08,10.27,10.27,0,0,1-3.86,19.8Zm.05-18.42a8.18,8.18,0,0,0-7.45,11.48,8,8,0,0,0,4.46,4.27,8.15,8.15,0,0,0,6-15.16h0A7.87,7.87,0,0,0,3085,745.68Z"/><path class="cls-1" d="M3095.44,728.23a9.22,9.22,0,1,1-12,5A9.25,9.25,0,0,1,3095.44,728.23Z"/><path class="cls-2" d="M3091.84,747a10.22,10.22,0,0,1-9.4-14.15,10.26,10.26,0,0,1,5.61-5.63,10.14,10.14,0,0,1,7.8,0,10.27,10.27,0,0,1-4,19.75Zm.07-18.42a7.91,7.91,0,0,0-3,.61,8.15,8.15,0,0,0-4.46,4.47,8.12,8.12,0,0,0,4.44,10.64,8.16,8.16,0,0,0,6.19-15.09h0A8.05,8.05,0,0,0,3091.91,728.58Z"/><path class="cls-1" d="M3102.7,711.29a9.22,9.22,0,1,1-12.11,4.85A9.23,9.23,0,0,1,3102.7,711.29Z"/><path class="cls-2" d="M3099,730a10.3,10.3,0,0,1-4-.79,10.1,10.1,0,0,1-5.49-5.55,10.34,10.34,0,0,1,.07-7.95,10.24,10.24,0,0,1,13.51-5.4A10.27,10.27,0,0,1,3099,730Zm.05-18.42a8.16,8.16,0,0,0-3.2,15.66,8.15,8.15,0,0,0,6.42-15h0A8,8,0,0,0,3099.05,711.59Z"/><path class="cls-1" d="M3110.18,694.45a9.21,9.21,0,1,1-12.16,4.67A9.25,9.25,0,0,1,3110.18,694.45Z"/><path class="cls-2" d="M3106.33,713.11a10.14,10.14,0,0,1-9.5-6.54,10.08,10.08,0,0,1,.22-7.88,10.23,10.23,0,0,1,5.78-5.46,10,10,0,0,1,7.79.26,10.26,10.26,0,0,1-4.29,19.62Zm.09-18.42a8.14,8.14,0,0,0-7.43,4.87,8.1,8.1,0,0,0,4.13,10.76,8.15,8.15,0,0,0,6.62-14.9h0A8.05,8.05,0,0,0,3106.42,694.69Z"/><path class="cls-1" d="M3118,677.75a9.21,9.21,0,1,1-12.25,4.46A9.23,9.23,0,0,1,3118,677.75Z"/><path class="cls-2" d="M3114,696.34a10.21,10.21,0,0,1-4.25-.92,10.05,10.05,0,0,1-5.31-5.7,10.33,10.33,0,0,1,6.14-13.31,10.14,10.14,0,0,1,7.85.38h0a10.27,10.27,0,0,1-4.43,19.55Zm.07-18.42a8.34,8.34,0,0,0-2.77.49,8.21,8.21,0,0,0-4.87,10.57,8,8,0,0,0,4.2,4.51,8.15,8.15,0,0,0,6.88-14.78h0A8,8,0,0,0,3114.06,677.92Z"/><path class="cls-1" d="M3126,661.17a9.21,9.21,0,1,1-12.32,4.26A9.23,9.23,0,0,1,3126,661.17Z"/><path class="cls-2" d="M3121.86,679.68a10.26,10.26,0,1,1,4.62-19.47h0a10.26,10.26,0,0,1-4.62,19.47Zm.1-18.41a8,8,0,0,0-2.59.43,8.17,8.17,0,0,0-4.73,4.19,8.09,8.09,0,0,0,3.78,10.9,8.15,8.15,0,0,0,7.11-14.67h0A7.91,7.91,0,0,0,3122,661.27Z"/><path class="cls-1" d="M3134.36,644.74a9.22,9.22,0,1,1-12.41,4A9.23,9.23,0,0,1,3134.36,644.74Z"/><path class="cls-2" d="M3130.1,663.19a10.24,10.24,0,0,1-4.57-1.07,10.07,10.07,0,0,1-5.11-5.88,10.31,10.31,0,0,1,6.66-13.11,10.08,10.08,0,0,1,7.78.67h0a10.28,10.28,0,0,1-4.76,19.39Zm.07-18.42a8.29,8.29,0,0,0-2.45.38,8.19,8.19,0,0,0-5.29,10.42,8,8,0,0,0,4,4.64,8.15,8.15,0,0,0,7.4-14.53h0A8,8,0,0,0,3130.17,644.77Z"/><path class="cls-1" d="M3143.05,628.49a9.27,9.27,0,0,1,3.72,12.44,9.21,9.21,0,0,1-16.92-1.6,9.26,9.26,0,0,1,.71-7.07A9.16,9.16,0,0,1,3143.05,628.49Z"/><path class="cls-2" d="M3138.6,646.85a10.28,10.28,0,0,1-2.86-20.12,10.09,10.09,0,0,1,7.83.83h0a10.38,10.38,0,0,1,4.14,13.86,10.12,10.12,0,0,1-6,5A10.45,10.45,0,0,1,3138.6,646.85Zm.08-18.43a8.18,8.18,0,0,0-2.33.35,8.09,8.09,0,0,0-4.85,4,8.2,8.2,0,0,0-.63,6.26,8,8,0,0,0,4,4.78,8.15,8.15,0,0,0,7.69-14.38A8,8,0,0,0,3138.68,628.42Z"/><path class="cls-1" d="M3152.09,612.43a9.22,9.22,0,0,1-9,16.06,9.21,9.21,0,1,1,9-16.06Z"/><path class="cls-2" d="M3147.44,630.67a10.2,10.2,0,0,1-8.84-15.27,10.31,10.31,0,0,1,6.29-4.91,10.08,10.08,0,0,1,7.74,1h0a10.26,10.26,0,0,1-5.19,19.16Zm.11-18.41a8.42,8.42,0,0,0-2.1.28,8.19,8.19,0,0,0-5,3.91,8.06,8.06,0,0,0-.76,6.24,8,8,0,0,0,3.87,4.87,8.15,8.15,0,0,0,8-14.21A8,8,0,0,0,3147.55,612.26Z"/><path class="cls-1" d="M3161.54,596.61a9.21,9.21,0,1,1-12.67,3.17A9.24,9.24,0,0,1,3161.54,596.61Z"/><path class="cls-2" d="M3156.73,614.74a10.32,10.32,0,0,1-5.17-1.39,10,10,0,0,1-4.72-6.18,10.33,10.33,0,0,1,7.58-12.69,10,10,0,0,1,7.68,1.22h0a10.27,10.27,0,0,1-5.37,19Zm.08-18.42a7.64,7.64,0,0,0-1.89.23,8.2,8.2,0,0,0-6,10.07,7.93,7.93,0,0,0,3.72,4.89,8.15,8.15,0,0,0,8.36-14A7.87,7.87,0,0,0,3156.81,596.32Z"/><path class="cls-1" d="M3171.43,581.06a9.21,9.21,0,0,1-9.89,15.55,9.21,9.21,0,1,1,9.89-15.55Z"/><path class="cls-2" d="M3166.4,599a10.32,10.32,0,0,1-5.42-1.53,10,10,0,0,1-4.55-6.29,10.35,10.35,0,0,1,7.92-12.49,10,10,0,0,1,7.67,1.44,10.36,10.36,0,0,1,3.06,14.13A10.21,10.21,0,0,1,3166.4,599Zm.08-18.41a8.21,8.21,0,0,0-6.91,3.81,8.19,8.19,0,0,0-1.07,6.3,7.93,7.93,0,0,0,3.59,5,8.15,8.15,0,0,0,8.75-13.75h0A7.86,7.86,0,0,0,3166.48,580.63Z"/><path class="cls-1" d="M3181.82,565.84a9.21,9.21,0,0,1-10.39,15.22,9.21,9.21,0,1,1,10.39-15.22Z"/><path class="cls-2" d="M3176.52,583.64a10.36,10.36,0,0,1-5.67-1.69,10,10,0,0,1-4.37-6.46,10.38,10.38,0,0,1,8.32-12.22,10,10,0,0,1,7.64,1.71h0a10.25,10.25,0,0,1-5.92,18.66Zm.09-18.41a7.68,7.68,0,0,0-1.43.13,8.24,8.24,0,0,0-6.61,9.71,7.84,7.84,0,0,0,3.44,5.1,8.15,8.15,0,0,0,9.19-13.46h0A7.83,7.83,0,0,0,3176.61,565.23Z"/><path class="cls-1" d="M3192.78,551a9.29,9.29,0,0,1,1.83,12.82,9,9,0,0,1-6,3.59,9.3,9.3,0,0,1-6.84-1.59,9,9,0,0,1-3.72-6,9.42,9.42,0,0,1,1.73-6.94A9.14,9.14,0,0,1,3192.78,551Z"/><path class="cls-2" d="M3187.17,568.61a10.3,10.3,0,0,1-6-1.9,10.15,10.15,0,0,1-4.16-6.7,10.35,10.35,0,0,1,1.93-7.72,10.24,10.24,0,0,1,6.91-4.12,10,10,0,0,1,7.54,2h0a10.3,10.3,0,0,1,2,14.29,10.08,10.08,0,0,1-6.65,4A11.46,11.46,0,0,1,3187.17,568.61Zm.11-18.41a8.48,8.48,0,0,0-1.11.07,8.3,8.3,0,0,0-7,9.42,8,8,0,0,0,3.29,5.28,8.2,8.2,0,0,0,6,1.41,8,8,0,0,0,5.26-3.17,8.16,8.16,0,0,0-1.63-11.35h0A7.8,7.8,0,0,0,3187.28,550.2Z"/><path class="cls-1" d="M3204.38,536.71a9.21,9.21,0,0,1-11.6,14.31,9.21,9.21,0,1,1,11.6-14.31Z"/><path class="cls-2" d="M3198.5,554a10.48,10.48,0,0,1-6.37-2.15,10,10,0,0,1-3.85-6.74,10.38,10.38,0,0,1,9.44-11.6,9.88,9.88,0,0,1,7.36,2.38,10.38,10.38,0,0,1,1.37,14.35A10.14,10.14,0,0,1,3198.5,554Zm.08-18.41c-.23,0-.46,0-.68,0a8.29,8.29,0,0,0-7.51,9.24,7.85,7.85,0,0,0,3,5.3,8.15,8.15,0,0,0,10.27-12.66h0A7.77,7.77,0,0,0,3198.58,535.61Z"/><path class="cls-1" d="M3216.79,523.09a9.33,9.33,0,0,1,2.83,6.41,9,9,0,0,1-2.33,6.48,9.32,9.32,0,0,1-12.91.73,9.11,9.11,0,0,1-.7-13.08,9.38,9.38,0,0,1,6.52-3.08A9,9,0,0,1,3216.79,523.09Z"/><path class="cls-2" d="M3210.5,540a10.47,10.47,0,0,1-6.8-2.49,9.87,9.87,0,0,1-3.49-6.95,10.28,10.28,0,0,1,2.68-7.65,10.42,10.42,0,0,1,7.26-3.43,10,10,0,0,1,7.38,2.84,10.3,10.3,0,0,1,3.15,7.13,10,10,0,0,1-2.61,7.24A10.17,10.17,0,0,1,3210.5,540Zm0-18.41h-.28a8.33,8.33,0,0,0-5.77,2.74,8.21,8.21,0,0,0-2.13,6.08,7.79,7.79,0,0,0,2.74,5.47,8.3,8.3,0,0,0,11.43-.63,7.89,7.89,0,0,0,2.05-5.73,8.21,8.21,0,0,0-2.5-5.69A7.92,7.92,0,0,0,3210.51,521.6Z"/><path class="cls-1" d="M3230.09,510.34a9.55,9.55,0,0,1,2.36,6.64,9.15,9.15,0,0,1-15.66,6.11A9.07,9.07,0,0,1,3217,510a9.24,9.24,0,0,1,6.77-2.62A8.79,8.79,0,0,1,3230.09,510.34Z"/><path class="cls-2" d="M3223.34,526.8a10.48,10.48,0,0,1-7.28-2.94,9.86,9.86,0,0,1-3.06-7.25,10.5,10.5,0,0,1,10.78-10.34,9.81,9.81,0,0,1,7.11,3.37h0a10.61,10.61,0,0,1,2.62,7.38,10.09,10.09,0,0,1-10.17,9.78Zm.09-18.41a8.4,8.4,0,0,0-8.31,8.23,7.77,7.77,0,0,0,2.41,5.7,8.27,8.27,0,0,0,11.42.13,8,8,0,0,0,2.43-5.51,8.43,8.43,0,0,0-2.09-5.9h0a7.71,7.71,0,0,0-5.59-2.65Z"/><path class="cls-1" d="M3244.53,498.91a9.61,9.61,0,0,1,1.65,6.82,9.08,9.08,0,0,1-3.29,5.9,9.19,9.19,0,0,1-6.52,1.9,9.61,9.61,0,0,1-6.28-3.19,8.73,8.73,0,0,1-2.17-6.69,9.52,9.52,0,0,1,10.59-8.41A8.75,8.75,0,0,1,3244.53,498.91Z"/><path class="cls-2" d="M3237.27,514.64a8.72,8.72,0,0,1-1-.06,10.62,10.62,0,0,1-6.95-3.53,9.76,9.76,0,0,1-2.44-7.51,10.59,10.59,0,0,1,11.8-9.35,9.76,9.76,0,0,1,6.74,4.11h0a10.64,10.64,0,0,1,1.84,7.57,10.16,10.16,0,0,1-3.7,6.6A10.41,10.41,0,0,1,3237.27,514.64Zm0-18.42a8.39,8.39,0,0,0-5.18,1.87,8.2,8.2,0,0,0-3.12,5.67,7.65,7.65,0,0,0,1.91,5.88,8.54,8.54,0,0,0,5.58,2.83,8.11,8.11,0,0,0,5.78-1.69,8,8,0,0,0,2.88-5.21,8.49,8.49,0,0,0-1.47-6.05,7.64,7.64,0,0,0-5.3-3.22A6.54,6.54,0,0,0,3237.28,496.22Z"/><path class="cls-1" d="M3260.28,489.37a9.9,9.9,0,0,1,.67,7,9,9,0,0,1-3.95,5.34,9.56,9.56,0,0,1-3.21,1.17,8.87,8.87,0,0,1-3.4-.13,9.66,9.66,0,0,1-5.86-3.83,8.72,8.72,0,0,1-1.43-6.92,9.46,9.46,0,0,1,1.5-3.34,8.93,8.93,0,0,1,2.86-2.66,9.37,9.37,0,0,1,7.37-1.1A8.54,8.54,0,0,1,3260.28,489.37Z"/><path class="cls-2" d="M3252.44,504a10.49,10.49,0,0,1-2.28-.26,10.69,10.69,0,0,1-6.5-4.26,9.73,9.73,0,0,1-1.59-7.77,10.32,10.32,0,0,1,1.66-3.71,9.92,9.92,0,0,1,3.21-3,10.38,10.38,0,0,1,8.19-1.2,9.55,9.55,0,0,1,6.1,5h0a10.85,10.85,0,0,1,.74,7.74,10.09,10.09,0,0,1-4.43,6,10.61,10.61,0,0,1-3.58,1.3A9.64,9.64,0,0,1,3252.44,504Zm0-18.42a8.84,8.84,0,0,0-4.48,1.29,8,8,0,0,0-2.53,2.35,8.29,8.29,0,0,0-1.33,3,7.62,7.62,0,0,0,1.26,6.07,8.63,8.63,0,0,0,5.23,3.42,8,8,0,0,0,3,.11,8.3,8.3,0,0,0,2.85-1.05,7.91,7.91,0,0,0,3.45-4.71,8.72,8.72,0,0,0-.6-6.21,7.46,7.46,0,0,0-4.78-3.93A7.25,7.25,0,0,0,3252.48,485.62Z"/><path class="cls-1" d="M3277.47,482.84a10.25,10.25,0,0,1-.77,6.94,8.85,8.85,0,0,1-4.7,4.45,9,9,0,0,1-6.53-.14,10,10,0,0,1-5.19-4.72,8.42,8.42,0,0,1-.32-7.05,9.33,9.33,0,0,1,5.46-5.24,9.44,9.44,0,0,1,7.62.24A8.27,8.27,0,0,1,3277.47,482.84Z"/><path class="cls-2" d="M3268.89,495.84a10,10,0,0,1-3.82-.77,11.05,11.05,0,0,1-5.74-5.22,9.52,9.52,0,0,1-.35-7.94,10.41,10.41,0,0,1,6.07-5.83,10.54,10.54,0,0,1,8.45.28,9.39,9.39,0,0,1,5,6.22,11.37,11.37,0,0,1-.83,7.65,10.09,10.09,0,0,1-5.26,5A10.62,10.62,0,0,1,3268.89,495.84Zm.05-18.38a8.82,8.82,0,0,0-8,5.26,7.4,7.4,0,0,0,.28,6.18,9,9,0,0,0,4.65,4.21,8,8,0,0,0,5.77.12,7.82,7.82,0,0,0,4.1-3.91,9.17,9.17,0,0,0,.69-6.22h0a7.29,7.29,0,0,0-3.85-4.82A8.42,8.42,0,0,0,3268.94,477.46Z"/><path class="cls-1" d="M3361.61,538.28a9.57,9.57,0,0,1-7,.36,8.92,8.92,0,0,1-5.8-11.11,9.57,9.57,0,0,1,4.28-5.56,8.71,8.71,0,0,1,7-.9,9.51,9.51,0,0,1,6.25,12A8.72,8.72,0,0,1,3361.61,538.28Z"/><path class="cls-2" d="M3357.67,540.21a10.83,10.83,0,0,1-3.41-.56,10.28,10.28,0,0,1-5.79-4.87,10.16,10.16,0,0,1-.7-7.54,10.66,10.66,0,0,1,4.75-6.19,9.79,9.79,0,0,1,7.85-1,10.57,10.57,0,0,1,7,13.33,9.74,9.74,0,0,1-5.27,5.87h0A10.46,10.46,0,0,1,3357.67,540.21Zm-.09-18.44a7.7,7.7,0,0,0-4,1.11,8.51,8.51,0,0,0-3.81,4.94,7.86,7.86,0,0,0,5.11,9.81,8.53,8.53,0,0,0,6.25-.31,7.64,7.64,0,0,0,4.14-4.6,8.45,8.45,0,0,0-5.53-10.63A8,8,0,0,0,3357.58,521.77Z"/><path class="cls-1" d="M3386.46,626.74a9.22,9.22,0,0,1-3.31-18.13,9.22,9.22,0,1,1,3.31,18.13Z"/><path class="cls-2" d="M3385,627.93a10.28,10.28,0,0,1-2-20.36,10,10,0,0,1,7.67,1.55,10.39,10.39,0,0,1,2.64,14.55,10,10,0,0,1-6.62,4.12A10.4,10.4,0,0,1,3385,627.93Zm0-18.44a8.57,8.57,0,0,0-1.59.16,8.15,8.15,0,0,0,2.92,16h0a7.89,7.89,0,0,0,5.22-3.25,8.25,8.25,0,0,0-2.09-11.56A7.84,7.84,0,0,0,3385,609.49Z"/><path class="cls-1" d="M3389.18,645a9.22,9.22,0,1,1,7.8-10.48A9.25,9.25,0,0,1,3389.18,645Z"/><path class="cls-2" d="M3388,646.11a10.28,10.28,0,0,1-1.68-20.42,10,10,0,0,1,7.6,1.8,10.35,10.35,0,0,1,2.15,14.64,10,10,0,0,1-6.71,3.89A10.47,10.47,0,0,1,3388,646.11Zm0-18.43a8.4,8.4,0,0,0-1.32.11,8.15,8.15,0,0,0,2.4,16.12h0a7.86,7.86,0,0,0,5.3-3.07,8.24,8.24,0,0,0-1.71-11.63A8,8,0,0,0,3388,627.68Z"/><path class="cls-1" d="M3391.37,663.27a9.22,9.22,0,1,1,8.09-10.25A9.22,9.22,0,0,1,3391.37,663.27Z"/><path class="cls-2" d="M3390.4,664.38a10.27,10.27,0,0,1-1.36-20.46,10,10,0,0,1,7.5,2,10.31,10.31,0,0,1,1.77,14.67,10,10,0,0,1-6.83,3.73h0A9.77,9.77,0,0,1,3390.4,664.38Zm0-18.43a8.08,8.08,0,0,0-1.09.07,8.15,8.15,0,0,0,1.94,16.19h0a7.94,7.94,0,0,0,5.4-3,8.21,8.21,0,0,0-1.41-11.66A7.93,7.93,0,0,0,3390.41,646Z"/><path class="cls-1" d="M3393.1,681.61a9.21,9.21,0,0,1-1.73-18.34,9.21,9.21,0,1,1,1.73,18.34Z"/><path class="cls-2" d="M3392.36,682.71a10.28,10.28,0,0,1-1.1-20.5,10,10,0,0,1,7.48,2.21,10.29,10.29,0,0,1,3.76,7.05,10.22,10.22,0,0,1-9.31,11.2A7.81,7.81,0,0,1,3392.36,682.71Zm0-18.43a8.64,8.64,0,0,0-.88,0,8.15,8.15,0,0,0,1.53,16.23h0a8,8,0,0,0,5.52-2.87,8,8,0,0,0,1.84-6,8.15,8.15,0,0,0-3-5.6A7.94,7.94,0,0,0,3392.37,664.28Z"/><path class="cls-1" d="M3394.44,700a9.28,9.28,0,0,1-9.79-8.53,9.27,9.27,0,0,1,8.45-9.85,9.21,9.21,0,1,1,1.34,18.38Z"/><path class="cls-2" d="M3393.86,701.07a10.32,10.32,0,0,1-10.27-9.53,10.4,10.4,0,0,1,9.42-11,10.22,10.22,0,0,1,11,9.52,10.19,10.19,0,0,1-9.54,11h-.64Zm0-18.43-.69,0a8.13,8.13,0,0,0-4.71,14.25,8.06,8.06,0,0,0,5.88,2h0a8,8,0,0,0,5.59-2.75,8.15,8.15,0,0,0,2-6,8.1,8.1,0,0,0-8-7.57Z"/><path class="cls-1" d="M3395.4,718.4a9.22,9.22,0,1,1,8.74-9.68A9.23,9.23,0,0,1,3395.4,718.4Z"/><path class="cls-2" d="M3395,719.47a10.28,10.28,0,0,1-.65-20.54,10.11,10.11,0,0,1,7.38,2.55,10.3,10.3,0,0,1,.75,14.69,10.05,10.05,0,0,1-7.06,3.29H3395Zm.34-2.13,0,1.06,0-1.06a8,8,0,0,0,5.58-2.6,8.21,8.21,0,0,0-.6-11.67,7.93,7.93,0,0,0-5.84-2,8.15,8.15,0,0,0,.86,16.28Z"/><path class="cls-1" d="M3396,736.82a9.22,9.22,0,0,1-.6-18.42,9.21,9.21,0,1,1,.6,18.42Z"/><path class="cls-2" d="M3395.79,737.88a10.27,10.27,0,0,1-.44-20.54,10.1,10.1,0,0,1,7.34,2.68,10.29,10.29,0,0,1,3.3,7.24,10.23,10.23,0,0,1-10,10.62h-.24Zm0-18.43h-.36a8.15,8.15,0,0,0,.53,16.29h0a8.1,8.1,0,0,0,7.88-8.41,8.15,8.15,0,0,0-2.62-5.76A8,8,0,0,0,3395.81,719.45Z"/><path class="cls-1" d="M3396.32,755.24a9.21,9.21,0,1,1,9.06-9.36A9.22,9.22,0,0,1,3396.32,755.24Z"/><path class="cls-2" d="M3396.26,756.31a10.28,10.28,0,0,1-.28-20.56,10.1,10.1,0,0,1,7.32,2.85,10.33,10.33,0,0,1,.2,14.66,10.08,10.08,0,0,1-7.18,3Zm0-18.43H3396a8.15,8.15,0,0,0,.23,16.3h0a7.94,7.94,0,0,0,5.67-2.41,8.18,8.18,0,0,0,2.34-5.88,8.09,8.09,0,0,0-8.07-8Z"/><path class="cls-1" d="M3396.31,773.67a9.22,9.22,0,1,1,9.22-9.22A9.23,9.23,0,0,1,3396.31,773.67Z"/><path class="cls-2" d="M3396.39,774.74h-.09a10.28,10.28,0,0,1,0-20.55,10,10,0,0,1,7.22,2.93,10.28,10.28,0,0,1,3.07,7.34,10.24,10.24,0,0,1-10.21,10.29Zm-.07-2.13a7.94,7.94,0,0,0,5.77-2.37,8,8,0,0,0,2.38-5.78,8.2,8.2,0,0,0-2.43-5.84,8,8,0,0,0-5.63-2.32h-.08a8.15,8.15,0,0,0,0,16.3Z"/><path class="cls-1" d="M3396.05,792.1a9.22,9.22,0,1,1,9.35-9.08A9.22,9.22,0,0,1,3396.05,792.1Z"/><path class="cls-2" d="M3396.27,793.16H3396a10.28,10.28,0,0,1,.23-20.55h.06A10.24,10.24,0,0,1,3406.47,783a10.29,10.29,0,0,1-3.18,7.29A10.06,10.06,0,0,1,3396.27,793.16Zm0-18.43a8.16,8.16,0,0,0-.18,16.31h0a8,8,0,0,0,5.74-2.24,8.21,8.21,0,0,0,.21-11.63,8.07,8.07,0,0,0-5.73-2.44Z"/><path class="cls-1" d="M3395.52,810.52a9.21,9.21,0,1,1,9.48-8.95A9.24,9.24,0,0,1,3395.52,810.52Z"/><path class="cls-2" d="M3395.86,811.59h-.38a10.27,10.27,0,0,1,.59-20.54,10.07,10.07,0,0,1,7.15,3.14,10.29,10.29,0,0,1,2.84,7.42,10.24,10.24,0,0,1-10.2,10Zm0-18.43a8.15,8.15,0,0,0-.3,16.3,8.09,8.09,0,0,0,8.37-7.91,8.17,8.17,0,0,0-2.25-5.9,8,8,0,0,0-5.65-2.49Z"/><path class="cls-1" d="M3394.75,828.93a9.21,9.21,0,1,1,9.6-8.82A9.21,9.21,0,0,1,3394.75,828.93Z"/><path class="cls-2" d="M3395.21,830l-.51,0h0a10.27,10.27,0,0,1,.85-20.53,10.1,10.1,0,0,1,7.12,3.25,10.3,10.3,0,0,1-.63,14.65A10.09,10.09,0,0,1,3395.21,830Zm-.41-2.14a8,8,0,0,0,5.81-2.09,8.17,8.17,0,0,0,.5-11.62,8,8,0,0,0-5.63-2.58,8.15,8.15,0,0,0-.68,16.29Z"/><path class="cls-1" d="M3393.75,847.33a9.21,9.21,0,1,1,9.7-8.7A9.24,9.24,0,0,1,3393.75,847.33Z"/><path class="cls-2" d="M3394.33,848.41h-.64a10.28,10.28,0,0,1,1.11-20.53,10.23,10.23,0,0,1,9.71,10.83,10.26,10.26,0,0,1-3.43,7.14A10.11,10.11,0,0,1,3394.33,848.41Zm0-18.42a8.15,8.15,0,0,0-.5,16.28h0a8,8,0,0,0,5.85-2,8.22,8.22,0,0,0,.65-11.59,8,8,0,0,0-5.62-2.67Z"/><path class="cls-1" d="M3392.52,865.72a9.22,9.22,0,1,1,9.81-8.58A9.22,9.22,0,0,1,3392.52,865.72Z"/><path class="cls-2" d="M3393.2,866.81l-.76,0h0a10.28,10.28,0,0,1,1.38-20.51,10.1,10.1,0,0,1,7,3.42,10.32,10.32,0,0,1,2.57,7.52,10.25,10.25,0,0,1-10.2,9.6Zm0-18.43a8.15,8.15,0,0,0-.6,16.28h0a8.11,8.11,0,0,0,8.67-7.59,8.19,8.19,0,0,0-2-6,7.94,7.94,0,0,0-5.55-2.7Z"/><path class="cls-1" d="M3391.09,884.1a9.22,9.22,0,1,1,9.91-8.47A9.22,9.22,0,0,1,3391.09,884.1Z"/><path class="cls-2" d="M3391.88,885.19a8.64,8.64,0,0,1-.88,0h0a10.28,10.28,0,0,1,1.6-20.49,10.25,10.25,0,0,1,9.46,11.05,10.32,10.32,0,0,1-3.62,7.07A10.12,10.12,0,0,1,3391.88,885.19Zm-.7-2.15a8,8,0,0,0,5.89-1.89,8.18,8.18,0,0,0,.92-11.57,8,8,0,0,0-5.54-2.8,8.15,8.15,0,0,0-1.27,16.26Z"/><path class="cls-1" d="M3389.45,902.45a9.21,9.21,0,1,1,10-8.36A9.23,9.23,0,0,1,3389.45,902.45Z"/><path class="cls-2" d="M3390.34,903.56c-.33,0-.66,0-1,0h0a10.28,10.28,0,0,1,1.83-20.47,10.11,10.11,0,0,1,7,3.6,10.35,10.35,0,0,1-1.32,14.56A10.07,10.07,0,0,1,3390.34,903.56Zm-.78-2.17a8,8,0,0,0,5.92-1.82,8.16,8.16,0,0,0-4.48-14.42,8.15,8.15,0,0,0-1.44,16.24Z"/><path class="cls-1" d="M3387.61,920.79a9.22,9.22,0,1,1,10.09-8.25A9.23,9.23,0,0,1,3387.61,920.79Z"/><path class="cls-2" d="M3388.59,921.9a10,10,0,0,1-1.09-.06,10.28,10.28,0,0,1,2.05-20.45,10.12,10.12,0,0,1,6.9,3.66,10.27,10.27,0,0,1,2.31,7.59,10.25,10.25,0,0,1-10.17,9.26Zm0-18.43a8.15,8.15,0,0,0-.87,16.26h0a8.12,8.12,0,0,0,8.92-7.29,8.15,8.15,0,0,0-1.83-6,8,8,0,0,0-5.45-2.89C3389.1,903.49,3388.84,903.47,3388.59,903.47Z"/><path class="cls-1" d="M3385.58,939.1a9.21,9.21,0,1,1,10.18-8.14A9.18,9.18,0,0,1,3385.58,939.1Z"/><path class="cls-2" d="M3386.66,940.23a9.66,9.66,0,0,1-1.2-.07h0a10.28,10.28,0,0,1,2.26-20.43,10.11,10.11,0,0,1,6.87,3.74A10.29,10.29,0,0,1,3393,938,10.12,10.12,0,0,1,3386.66,940.23Zm0-18.43a8.15,8.15,0,0,0-.94,16.25h0a8,8,0,0,0,5.94-1.7,8.15,8.15,0,0,0,1.29-11.54,8,8,0,0,0-5.44-3C3387.21,921.82,3386.93,921.8,3386.65,921.8Z"/><path class="cls-1" d="M3383.38,957.4a9.22,9.22,0,1,1,10.24-8A9.22,9.22,0,0,1,3383.38,957.4Z"/><path class="cls-2" d="M3384.55,958.54a11.34,11.34,0,0,1-1.3-.08h0a10.28,10.28,0,0,1,2.46-20.41,10.24,10.24,0,0,1,9,11.44,10.28,10.28,0,0,1-3.9,6.9A10.08,10.08,0,0,1,3384.55,958.54Zm-1-2.19a8,8,0,0,0,5.95-1.64,8.13,8.13,0,1,0-5.95,1.64Z"/><path class="cls-1" d="M3381,975.67a9.21,9.21,0,1,1,10.33-7.94A9.22,9.22,0,0,1,3381,975.67Z"/><path class="cls-2" d="M3382.24,976.82a11.09,11.09,0,0,1-1.4-.09h0a10.28,10.28,0,0,1,2.67-20.38,10.11,10.11,0,0,1,6.79,3.87,10.27,10.27,0,0,1-8.06,16.6Zm-1.11-2.2a8,8,0,0,0,6-1.59,8.22,8.22,0,0,0,1.49-11.51,8,8,0,0,0-5.37-3.06,8.15,8.15,0,0,0-2.12,16.16Z"/><path class="cls-1" d="M3378.41,993.92a9.22,9.22,0,1,1,10.41-7.84A9.22,9.22,0,0,1,3378.41,993.92Z"/><path class="cls-2" d="M3379.75,995.08a9.64,9.64,0,0,1-1.5-.11h0a10.28,10.28,0,0,1,2.88-20.35,10.12,10.12,0,0,1,6.74,3.94,10.27,10.27,0,0,1,2,7.67,10.24,10.24,0,0,1-10.12,8.85Zm0-18.43a8.15,8.15,0,0,0-1.18,16.22h0a8,8,0,0,0,6-1.54,8.19,8.19,0,0,0,1.58-11.49,8,8,0,0,0-5.34-3.11A8.14,8.14,0,0,0,3379.74,976.65Z"/><path class="cls-1" d="M3375.67,1012.15a9.22,9.22,0,1,1,10.49-7.74A9.2,9.2,0,0,1,3375.67,1012.15Z"/><path class="cls-2" d="M3377.09,1013.32a10.61,10.61,0,0,1-1.58-.12h0a10.28,10.28,0,0,1,3-20.33,10.1,10.1,0,0,1,6.72,4,10.28,10.28,0,0,1-8.19,16.44Zm-1.26-2.22a8,8,0,0,0,6-1.47,8.16,8.16,0,0,0,1.74-11.48,8.06,8.06,0,0,0-5.32-3.18,8.16,8.16,0,0,0-2.43,16.13Z"/><path class="cls-1" d="M3372.77,1030.35a9.21,9.21,0,1,1,10.54-7.65A9.21,9.21,0,0,1,3372.77,1030.35Z"/><path class="cls-2" d="M3374.27,1031.53a9.6,9.6,0,0,1-1.68-.14h0a10.27,10.27,0,0,1,3.24-20.29,10.23,10.23,0,0,1,8.53,11.77,10.24,10.24,0,0,1-4.16,6.74A10.13,10.13,0,0,1,3374.27,1031.53Zm0-18.43a8.15,8.15,0,0,0-1.34,16.2h0a8,8,0,0,0,6-1.41,8.13,8.13,0,0,0,3.3-5.36,8.09,8.09,0,0,0-6.75-9.33A7.46,7.46,0,0,0,3374.28,1013.1Z"/><path class="cls-1" d="M3369.7,1048.52a9.21,9.21,0,1,1,10.6-7.55A9.24,9.24,0,0,1,3369.7,1048.52Z"/><path class="cls-2" d="M3371.29,1049.72a9.82,9.82,0,0,1-1.78-.16h0a10.27,10.27,0,0,1,3.43-20.26,10.21,10.21,0,0,1,8.41,11.85,10.23,10.23,0,0,1-4.21,6.7A10.1,10.1,0,0,1,3371.29,1049.72Zm-1.41-2.25a8,8,0,0,0,6-1.36,8.12,8.12,0,0,0,3.34-5.32,8.12,8.12,0,0,0-6.66-9.4,8.15,8.15,0,0,0-2.71,16.08Z"/><path class="cls-1" d="M3366.45,1066.66a9.21,9.21,0,1,1,10.68-7.46A9.24,9.24,0,0,1,3366.45,1066.66Z"/><path class="cls-2" d="M3368.13,1067.88a9.87,9.87,0,0,1-1.87-.18h0a10.28,10.28,0,0,1,3.62-20.23,10.08,10.08,0,0,1,6.59,4.18,10.34,10.34,0,0,1-2.53,14.39A10.14,10.14,0,0,1,3368.13,1067.88Zm-1.49-2.27a8,8,0,0,0,6.08-1.31,8.19,8.19,0,0,0,2-11.42,8,8,0,0,0-5.21-3.32,8.15,8.15,0,0,0-2.88,16Z"/><path class="cls-1" d="M3363.05,1084.77a9.21,9.21,0,1,1,10.75-7.36A9.23,9.23,0,0,1,3363.05,1084.77Z"/><path class="cls-2" d="M3364.8,1086a9.91,9.91,0,0,1-2-.19h0a10.28,10.28,0,0,1,3.79-20.2,10.28,10.28,0,0,1-1.84,20.39Zm-1.55-2.27a8.12,8.12,0,0,0,9.51-6.51,8.15,8.15,0,0,0-1.31-6.16,8,8,0,0,0-5.19-3.36,8.16,8.16,0,0,0-3,16Z"/><path class="cls-1" d="M3359.49,1102.85a9.21,9.21,0,1,1,10.83-7.26A9.2,9.2,0,0,1,3359.49,1102.85Z"/><path class="cls-2" d="M3361.32,1104.1a10.09,10.09,0,0,1-2-.21,10.27,10.27,0,0,1,4-20.16,10.28,10.28,0,0,1-1.93,20.37Zm0-18.43a8.15,8.15,0,0,0-1.62,16.14h0a8,8,0,0,0,6.08-1.2,8.15,8.15,0,0,0-2.93-14.8A8.89,8.89,0,0,0,3361.32,1085.67Z"/><path class="cls-1" d="M3355.78,1120.9a9.21,9.21,0,1,1,10.88-7.16A9.2,9.2,0,0,1,3355.78,1120.9Z"/><path class="cls-2" d="M3357.68,1122.17a10.27,10.27,0,1,1,5.57-1.67A10.27,10.27,0,0,1,3357.68,1122.17Zm0-18.43a8.15,8.15,0,0,0-1.69,16.12h0a8,8,0,0,0,6.08-1.14,8.15,8.15,0,0,0,3.54-5.2,8.13,8.13,0,0,0-6.34-9.63A8.56,8.56,0,0,0,3357.69,1103.74Z"/><path class="cls-1" d="M3351.92,1138.92a9.21,9.21,0,1,1,10.93-7.07A9.21,9.21,0,0,1,3351.92,1138.92Z"/><path class="cls-2" d="M3353.9,1140.2a10.32,10.32,0,0,1-2.21-.24h0a10.28,10.28,0,1,1,10.8-15.64,10.3,10.3,0,0,1-8.59,15.88Zm-1.75-2.31a8.16,8.16,0,1,0,3.42-16,8.16,8.16,0,0,0-3.42,16Z"/><path class="cls-1" d="M3347.9,1156.91a9.22,9.22,0,1,1,11-7A9.23,9.23,0,0,1,3347.9,1156.91Z"/><path class="cls-2" d="M3350,1158.21a10.6,10.6,0,0,1-2.3-.26h0a10.28,10.28,0,0,1,4.49-20.06,10.1,10.1,0,0,1,6.42,4.48,10.33,10.33,0,0,1-3.21,14.26A10.08,10.08,0,0,1,3350,1158.21Zm-1.82-2.34a8,8,0,0,0,6.09-1,8.22,8.22,0,0,0,2.55-11.33,8,8,0,0,0-5.09-3.55,8.15,8.15,0,0,0-3.55,15.91Z"/><path class="cls-1" d="M3343.71,1174.86a9.22,9.22,0,1,1,11.06-6.89A9.24,9.24,0,0,1,3343.71,1174.86Z"/><path class="cls-2" d="M3345.85,1176.17a10.18,10.18,0,0,1-2.38-.28h0a10.28,10.28,0,0,1,4.67-20,10.28,10.28,0,0,1-2.29,20.3Zm-1.89-2.35a8.1,8.1,0,0,0,9.77-6.09,8.12,8.12,0,0,0-1-6.2,7.94,7.94,0,0,0-5-3.58,8.15,8.15,0,0,0-3.7,15.87Z"/><path class="cls-1" d="M3339.37,1192.77a9.21,9.21,0,1,1,11.12-6.79A9.23,9.23,0,0,1,3339.37,1192.77Z"/><path class="cls-2" d="M3341.58,1194.1a10.43,10.43,0,0,1-2.47-.3h0a10.28,10.28,0,0,1,4.85-20,10.15,10.15,0,0,1,6.33,4.58,10.33,10.33,0,0,1,1.24,7.83,10.25,10.25,0,0,1-10,7.87Zm-1.95-2.37a8.11,8.11,0,0,0,9.83-6,8.22,8.22,0,0,0-1-6.22,8,8,0,0,0-5-3.62,8.15,8.15,0,0,0-3.84,15.84Z"/><path class="cls-1" d="M3334.87,1210.64a9.21,9.21,0,1,1,11.19-6.69A9.21,9.21,0,0,1,3334.87,1210.64Z"/><path class="cls-2" d="M3337.16,1212a10.54,10.54,0,0,1-2.55-.32,10.28,10.28,0,0,1,5-19.94,10.15,10.15,0,0,1,6.3,4.64,10.28,10.28,0,0,1-3.57,14.19A10.12,10.12,0,0,1,3337.16,1212Zm0-18.43a8.15,8.15,0,0,0-2,16h0a8,8,0,0,0,6.13-.88,8.18,8.18,0,0,0,2.83-11.26,8,8,0,0,0-5-3.67A8.26,8.26,0,0,0,3337.17,1193.56Z"/><path class="cls-1" d="M3330.22,1228.47a9.21,9.21,0,1,1,11.24-6.59A9.21,9.21,0,0,1,3330.22,1228.47Z"/><path class="cls-2" d="M3332.58,1229.84a10.4,10.4,0,0,1-2.64-.34h0a10.28,10.28,0,0,1,5.19-19.89,10.26,10.26,0,0,1,7.36,12.54,10.3,10.3,0,0,1-4.8,6.31A10.11,10.11,0,0,1,3332.58,1229.84Zm0-18.43a8.15,8.15,0,0,0-2.12,16h0a8,8,0,0,0,6.13-.82,8.19,8.19,0,0,0,3-11.21,8,8,0,0,0-5-3.74A8.14,8.14,0,0,0,3332.61,1211.41Z"/><path class="cls-1" d="M3325.4,1246.26a9.22,9.22,0,1,1,11.29-6.49A9.23,9.23,0,0,1,3325.4,1246.26Z"/><path class="cls-2" d="M3327.85,1247.66a10.22,10.22,0,0,1-2.73-.38h0a10.28,10.28,0,0,1,5.37-19.84,10.24,10.24,0,0,1,7.23,12.61,10.28,10.28,0,0,1-9.87,7.61Zm-2.16-2.43a8,8,0,0,0,6.13-.76,8.14,8.14,0,0,0-1.88-15,8.15,8.15,0,0,0-4.25,15.73Z"/><path class="cls-1" d="M3320.41,1264a9.21,9.21,0,1,1,11.35-6.38A9.24,9.24,0,0,1,3320.41,1264Z"/><path class="cls-2" d="M3322.94,1265.42a10.28,10.28,0,1,1,2.74-20.19,10.11,10.11,0,0,1,6.16,4.81,10.29,10.29,0,0,1-8.9,15.38Zm0-18.43a8.15,8.15,0,0,0-2.25,16h0a8.1,8.1,0,0,0,10-5.64,8.16,8.16,0,0,0-.75-6.25,8,8,0,0,0-4.87-3.8A8.1,8.1,0,0,0,3323,1247Z"/><path class="cls-1" d="M3315.24,1281.69a9.22,9.22,0,1,1,11.43-6.27A9.22,9.22,0,0,1,3315.24,1281.69Z"/><path class="cls-2" d="M3317.86,1283.13a10.41,10.41,0,0,1-2.92-.42h0a10.28,10.28,0,0,1,5.76-19.74,10.12,10.12,0,0,1,6.11,4.87,10.28,10.28,0,0,1-8.95,15.29Zm-2.31-2.46a8.12,8.12,0,0,0,10.1-5.54,8.17,8.17,0,0,0-.7-6.26,8,8,0,0,0-4.84-3.85,8.15,8.15,0,0,0-4.56,15.65Z"/><path class="cls-1" d="M3309.92,1299.33a9.21,9.21,0,1,1,11.49-6.15A9.2,9.2,0,0,1,3309.92,1299.33Z"/><path class="cls-2" d="M3312.61,1300.8a10.09,10.09,0,0,1-3-.46,10.28,10.28,0,0,1,6-19.67,10.1,10.1,0,0,1,6.07,4.93,10.29,10.29,0,0,1-9,15.2Zm0-18.43a8.15,8.15,0,0,0-2.41,15.94h0a8,8,0,0,0,6.16-.58,8.17,8.17,0,0,0,3.36-11.12,8.12,8.12,0,0,0-7.11-4.24Z"/><path class="cls-1" d="M3304.42,1316.92a9.21,9.21,0,1,1,11.54-6A9.22,9.22,0,0,1,3304.42,1316.92Z"/><path class="cls-2" d="M3307.2,1318.42a10,10,0,0,1-3.1-.49,10.28,10.28,0,0,1,6.13-19.62,10.29,10.29,0,0,1-3,20.11Zm0-18.43a8.15,8.15,0,0,0-2.5,15.92,8,8,0,0,0,6.16-.53,8.14,8.14,0,0,0-3.66-15.39Z"/><path class="cls-1" d="M3298.73,1334.45a9.22,9.22,0,1,1,11.6-5.93A9.25,9.25,0,0,1,3298.73,1334.45Z"/><path class="cls-2" d="M3301.61,1336a10.23,10.23,0,0,1-3.22-.52h0a10.28,10.28,0,0,1,6.35-19.55,10.08,10.08,0,0,1,6,5,10.3,10.3,0,0,1-9.1,15Zm-2.55-2.54a8.11,8.11,0,0,0,10.26-5.24,8.16,8.16,0,0,0-.5-6.28,8,8,0,0,0-4.72-4,8.15,8.15,0,0,0-5,15.51Z"/><path class="cls-1" d="M3292.85,1351.92a9.22,9.22,0,1,1,11.68-5.8A9.22,9.22,0,0,1,3292.85,1351.92Z"/><path class="cls-2" d="M3295.82,1353.48a10.23,10.23,0,0,1-3.31-.56h0a10.28,10.28,0,0,1,6.55-19.48,10.07,10.07,0,0,1,5.91,5.1,10.29,10.29,0,0,1-9.15,14.94Zm0-18.43a8.15,8.15,0,0,0-2.65,15.86h0a8.15,8.15,0,0,0,5.2-15.45A8.14,8.14,0,0,0,3295.85,1335.05Z"/><path class="cls-1" d="M3286.8,1369.32a9.21,9.21,0,1,1,11.73-5.67A9.2,9.2,0,0,1,3286.8,1369.32Z"/><path class="cls-2" d="M3289.86,1370.92a10,10,0,0,1-3.41-.6,10.28,10.28,0,0,1,6.75-19.41,10.25,10.25,0,0,1,6.33,13.09,10.24,10.24,0,0,1-5.29,5.91A10.1,10.1,0,0,1,3289.86,1370.92Zm0-18.43a8.15,8.15,0,0,0-2.75,15.83,8,8,0,0,0,6.17-.32,8.21,8.21,0,0,0,4.2-4.7,8.09,8.09,0,0,0-7.62-10.81Z"/><path class="cls-1" d="M3280.54,1386.66a9.22,9.22,0,1,1,11.79-5.54A9.24,9.24,0,0,1,3280.54,1386.66Z"/><path class="cls-2" d="M3283.71,1388.29a10.11,10.11,0,0,1-3.54-.64h0a10.28,10.28,0,0,1,7-19.33,10.29,10.29,0,0,1-3.45,20Zm0-18.43a8.15,8.15,0,0,0-2.83,15.8h0a8,8,0,0,0,6.2-.26,8.16,8.16,0,0,0-.66-15.08A8.3,8.3,0,0,0,3283.74,1369.86Z"/><path class="cls-1" d="M3274.08,1403.91a9.21,9.21,0,1,1,11.87-5.39A9.21,9.21,0,0,1,3274.08,1403.91Z"/><path class="cls-2" d="M3277.33,1405.58a10.18,10.18,0,0,1-3.63-.67h0a10.28,10.28,0,0,1,7.21-19.25,10.12,10.12,0,0,1,5.74,5.29,10.32,10.32,0,0,1-5.12,13.72A10.12,10.12,0,0,1,3277.33,1405.58Zm-2.87-2.66a8,8,0,0,0,6.2-.19,8.1,8.1,0,0,0,4.29-4.59,8.2,8.2,0,0,0-.23-6.3,8,8,0,0,0-4.54-4.19,8.15,8.15,0,0,0-5.72,15.27Z"/><path class="cls-1" d="M3267.42,1421.1a9.22,9.22,0,1,1,11.92-5.26A9.23,9.23,0,0,1,3267.42,1421.1Z"/><path class="cls-2" d="M3270.77,1422.81a10,10,0,0,1-3.75-.73h0a10.28,10.28,0,0,1,7.43-19.16,10.23,10.23,0,0,1,5.87,13.31,10.28,10.28,0,0,1-9.55,6.58Zm-3-2.7a8,8,0,0,0,6.17-.1,8.22,8.22,0,0,0,4.37-4.56,8.1,8.1,0,0,0-4.65-10.54,8.15,8.15,0,0,0-5.89,15.2Z"/><path class="cls-1" d="M3260.51,1438.18a9.21,9.21,0,1,1,12-5.09A9.23,9.23,0,0,1,3260.51,1438.18Z"/><path class="cls-2" d="M3264,1439.94a10.25,10.25,0,0,1-3.88-.77h0a10.28,10.28,0,0,1,7.69-19.06,10.07,10.07,0,0,1,5.61,5.43,10.26,10.26,0,0,1,.08,7.94,10.28,10.28,0,0,1-9.5,6.46Zm-3.07-2.74a8.09,8.09,0,0,0,10.6-4.51,8.12,8.12,0,0,0-.07-6.31,8,8,0,0,0-4.42-4.29,8.15,8.15,0,0,0-6.11,15.11Z"/><path class="cls-1" d="M3253.39,1455.18a9.22,9.22,0,1,1,12.07-4.93A9.22,9.22,0,0,1,3253.39,1455.18Z"/><path class="cls-2" d="M3257,1457a10.12,10.12,0,0,1-4-.82h0a10.28,10.28,0,0,1,7.94-19,10.07,10.07,0,0,1,5.54,5.52,10.3,10.3,0,0,1-5.68,13.52A10.08,10.08,0,0,1,3257,1457Zm-3.16-2.78a8,8,0,0,0,6.17.07,8.19,8.19,0,0,0,4.51-10.73,8,8,0,0,0-4.38-4.37,8.15,8.15,0,0,0-6.3,15Z"/><path class="cls-1" d="M3246,1472.07a9.21,9.21,0,0,1,7.37-16.89,9.21,9.21,0,0,1-7.37,16.89Z"/><path class="cls-2" d="M3249.73,1473.93a10.23,10.23,0,0,1-4.15-.89h0a10.28,10.28,0,0,1,8.23-18.84,10.29,10.29,0,0,1-4.08,19.73Zm-3.28-2.83a8,8,0,0,0,6.21.15,8.22,8.22,0,0,0,4.64-10.65,8,8,0,0,0-4.33-4.44,8.15,8.15,0,0,0-6.52,14.94Z"/><path class="cls-1" d="M3238.39,1488.85a9.22,9.22,0,1,1,12.22-4.57A9.22,9.22,0,0,1,3238.39,1488.85Z"/><path class="cls-2" d="M3242.22,1490.76a10.18,10.18,0,0,1-4.28-1h0a10.28,10.28,0,0,1,8.51-18.71,10.07,10.07,0,0,1,5.37,5.67,10.32,10.32,0,0,1-9.6,14Zm-3.38-2.88a8,8,0,0,0,6.16.26,8.22,8.22,0,0,0,4.64-4.31,8.13,8.13,0,0,0,.19-6.31,8,8,0,0,0-4.25-4.48,8.15,8.15,0,0,0-6.74,14.84Z"/><path class="cls-1" d="M3230.48,1505.49a9.21,9.21,0,0,1,7.91-16.64,9.21,9.21,0,1,1-7.91,16.64Z"/><path class="cls-2" d="M3234.46,1507.48a10.25,10.25,0,0,1-4.45-1h0a10.28,10.28,0,0,1,8.82-18.57,10.08,10.08,0,0,1,5.3,5.78,10.32,10.32,0,0,1-9.67,13.82Zm-3.51-2.94a8,8,0,0,0,6.21.35,8.24,8.24,0,0,0,5-10.51,8,8,0,0,0-4.19-4.57,8.15,8.15,0,0,0-7,14.73Z"/><path class="cls-1" d="M3222.29,1522a9.21,9.21,0,1,1,12.36-4.15A9.22,9.22,0,0,1,3222.29,1522Z"/><path class="cls-2" d="M3226.4,1524.06a10.15,10.15,0,0,1-4.59-1.11h0a10.28,10.28,0,0,1,9.13-18.42,10.12,10.12,0,0,1,5.19,5.87,10.32,10.32,0,0,1-9.73,13.66Zm-3.63-3a8,8,0,0,0,6.14.48,8.21,8.21,0,0,0,5.21-10.44,8,8,0,0,0-4.1-4.64,8.15,8.15,0,0,0-7.25,14.6Z"/><path class="cls-1" d="M3213.76,1538.34a9.22,9.22,0,1,1,12.45-3.9A9.25,9.25,0,0,1,3213.76,1538.34Z"/><path class="cls-2" d="M3218,1540.48a10,10,0,0,1-4.78-1.21,10.28,10.28,0,0,1,9.51-18.22,10.05,10.05,0,0,1,5.06,5.92,10.29,10.29,0,0,1-.67,8,10.17,10.17,0,0,1-6.07,5.1A10.35,10.35,0,0,1,3218,1540.48Zm.06-18.42a8.14,8.14,0,0,0-3.83,15.34h0a8.09,8.09,0,0,0,11-3.45,8.22,8.22,0,0,0,.54-6.33,7.93,7.93,0,0,0-4-4.67A8.23,8.23,0,0,0,3218.1,1522.06Z"/><path class="cls-1" d="M3204.9,1554.49a9.21,9.21,0,1,1,12.53-3.63,9.28,9.28,0,0,1-5.53,4.46A9.09,9.09,0,0,1,3204.9,1554.49Z"/><path class="cls-2" d="M3209.37,1556.74a10.18,10.18,0,0,1-5-1.32h0a10.33,10.33,0,0,1-4-13.91,10.38,10.38,0,0,1,13.87-4.11,10.22,10.22,0,0,1,4.1,14,10.22,10.22,0,0,1-9,5.36Zm-3.95-3.17a8.06,8.06,0,0,0,6.19.73,8.2,8.2,0,0,0,4.89-4,8.09,8.09,0,0,0-3.24-11.08,8.23,8.23,0,0,0-11,3.27,8.21,8.21,0,0,0,3.17,11Z"/><path class="cls-1" d="M3195.67,1570.44a9.21,9.21,0,1,1,12.61-3.33A9.24,9.24,0,0,1,3195.67,1570.44Z"/><path class="cls-2" d="M3200.29,1572.8a10.06,10.06,0,0,1-5.17-1.44h0a10.28,10.28,0,0,1,10.3-17.79,10.07,10.07,0,0,1,4.82,6.17,10.35,10.35,0,0,1-9.95,13.06Zm-4.07-3.27a7.92,7.92,0,0,0,6.07.89,8.27,8.27,0,0,0,5.08-3.85,8.1,8.1,0,0,0,.81-6.27,8,8,0,0,0-3.8-4.88,8.15,8.15,0,0,0-8.16,14.11Z"/><path class="cls-1" d="M3186,1586.13a9.22,9.22,0,1,1,12.72-3A9.22,9.22,0,0,1,3186,1586.13Z"/><path class="cls-2" d="M3190.84,1588.62a10,10,0,0,1-5.41-1.59h0a10.28,10.28,0,0,1,10.78-17.5,10,10,0,0,1,4.64,6.23,10.34,10.34,0,0,1-7.75,12.6A10.25,10.25,0,0,1,3190.84,1588.62Zm.07-18.42a8.08,8.08,0,0,0-6.93,3.86,8.2,8.2,0,0,0,2.59,11.18h0a7.94,7.94,0,0,0,6.05,1,8.2,8.2,0,0,0,6.15-10,7.93,7.93,0,0,0-3.65-4.92A8.19,8.19,0,0,0,3190.91,1570.2Z"/><path class="cls-1" d="M3175.87,1601.52a9.21,9.21,0,0,1,10.13-15.39,9.21,9.21,0,1,1-10.13,15.39Z"/><path class="cls-2" d="M3180.94,1604.17a10,10,0,0,1-5.67-1.77h0a10.27,10.27,0,0,1,11.3-17.16,10,10,0,0,1,4.47,6.37,10.32,10.32,0,0,1-1.48,7.89,10.21,10.21,0,0,1-6.63,4.47A10.41,10.41,0,0,1,3180.94,1604.17Zm.08-18.41a8.09,8.09,0,0,0-6.81,3.64,8.24,8.24,0,0,0,2.26,11.25h0a7.93,7.93,0,0,0,6.05,1.24,8.14,8.14,0,0,0,5.26-3.55,8.23,8.23,0,0,0,1.18-6.28,7.92,7.92,0,0,0-3.52-5A8.31,8.31,0,0,0,3181,1585.76Z"/><path class="cls-1" d="M3165.21,1616.55a9.27,9.27,0,0,1-2.1-12.78,9.06,9.06,0,0,1,5.89-3.7,9.26,9.26,0,0,1,6.87,1.45,9.08,9.08,0,0,1,3.83,5.92,9.38,9.38,0,0,1-1.6,7A9.13,9.13,0,0,1,3165.21,1616.55Z"/><path class="cls-2" d="M3170.55,1619.39a10,10,0,0,1-6-2h0a10.3,10.3,0,0,1-2.33-14.25,10.09,10.09,0,0,1,6.58-4.14,10.33,10.33,0,0,1,7.65,1.63,10.15,10.15,0,0,1,4.27,6.61A10.36,10.36,0,0,1,3179,1615a10.19,10.19,0,0,1-6.8,4.24A9.92,9.92,0,0,1,3170.55,1619.39Zm.11-18.41a9.12,9.12,0,0,0-1.47.13,8,8,0,0,0-5.21,3.27,8.17,8.17,0,0,0,1.86,11.32h0a7.81,7.81,0,0,0,6,1.46,8.06,8.06,0,0,0,5.4-3.37,8.22,8.22,0,0,0,1.42-6.17,8.07,8.07,0,0,0-3.38-5.22A8.19,8.19,0,0,0,3170.66,1601Z"/><path class="cls-1" d="M3153.94,1631.14a9.22,9.22,0,0,1,11.27-14.59,9.22,9.22,0,1,1-11.27,14.59Z"/><path class="cls-2" d="M3159.57,1634.21a9.93,9.93,0,0,1-6.31-2.25h0a10.28,10.28,0,0,1,12.57-16.26,10,10,0,0,1,4,6.67,10.41,10.41,0,0,1-9.11,11.78A11.27,11.27,0,0,1,3159.57,1634.21Zm.09-18.4a8.06,8.06,0,0,0-6.43,3.12,8.26,8.26,0,0,0,1.38,11.38h0a7.88,7.88,0,0,0,5.88,1.73,8.28,8.28,0,0,0,7.24-9.37,7.84,7.84,0,0,0-3.15-5.26A8.33,8.33,0,0,0,3159.66,1615.81Z"/><path class="cls-1" d="M3141.94,1645.12a9.21,9.21,0,0,1,12-14,9.21,9.21,0,1,1-12,14Z"/><path class="cls-2" d="M3148,1648.53a9.87,9.87,0,0,1-6.72-2.62,10.27,10.27,0,0,1,13.37-15.6,9.89,9.89,0,0,1,3.68,6.79,10.41,10.41,0,0,1-9.76,11.41Zm.06-18.42a7.94,7.94,0,0,0-6.13,2.82,8.23,8.23,0,0,0,.78,11.41h0a7.78,7.78,0,0,0,5.74,2.05,8.29,8.29,0,0,0,7.76-9.08,7.79,7.79,0,0,0-2.89-5.35A8.4,8.4,0,0,0,3148,1630.11Z"/><path class="cls-1" d="M3129.11,1658.34a9.21,9.21,0,0,1,12.83-13.22,8.91,8.91,0,0,1,2.94,6.4,9.14,9.14,0,0,1-2.65,6.72A9,9,0,0,1,3129.11,1658.34Z"/><path class="cls-2" d="M3135.57,1662.17h0a9.87,9.87,0,0,1-7.21-3.1,10.28,10.28,0,0,1,14.33-14.73,9.92,9.92,0,0,1,3.29,7.15,10.48,10.48,0,0,1-10.38,10.68Zm.06-18.41h-.25a8.1,8.1,0,0,0-5.5,13.85h0a7.75,7.75,0,0,0,5.67,2.43h0a8.35,8.35,0,0,0,8.25-8.49,7.87,7.87,0,0,0-2.59-5.64A8.32,8.32,0,0,0,3135.63,1643.76Z"/><path class="cls-1" d="M3115.26,1670.49a9.53,9.53,0,0,1-2-6.71,9,9,0,0,1,9.48-8.31,9.36,9.36,0,0,1,6.38,2.87,9,9,0,0,1,2.49,6.62,9.48,9.48,0,0,1-10.11,8.87A8.83,8.83,0,0,1,3115.26,1670.49Z"/><path class="cls-2" d="M3122.14,1674.91c-.24,0-.49,0-.73,0a9.86,9.86,0,0,1-7-3.74,10.63,10.63,0,0,1-2.24-7.45,10,10,0,0,1,3.38-6.82,9.84,9.84,0,0,1,7.21-2.47,10.36,10.36,0,0,1,7.09,3.19,10,10,0,0,1,2.8,7.4,10.53,10.53,0,0,1-10.53,9.91Zm.07-18.39a7.71,7.71,0,0,0-5.23,2,7.79,7.79,0,0,0-2.67,5.38,8.41,8.41,0,0,0,1.78,6h0a7.8,7.8,0,0,0,5.48,2.94,8.4,8.4,0,0,0,9-7.87,7.87,7.87,0,0,0-2.2-5.82,8.25,8.25,0,0,0-5.66-2.55Z"/><path class="cls-1" d="M3100.2,1681.08a9.76,9.76,0,0,1-1.2-6.9,9,9,0,0,1,1.24-3.17,8.3,8.3,0,0,1,1.05-1.33,8.68,8.68,0,0,1,1.31-1.17,9.07,9.07,0,0,1,6.57-1.5,9.54,9.54,0,0,1,6.09,3.48,8.81,8.81,0,0,1,1.84,6.81,9.8,9.8,0,0,1-5.62,7.22,9.53,9.53,0,0,1-1.84.57,9.41,9.41,0,0,1-3.66.05A8.58,8.58,0,0,1,3100.2,1681.08Z"/><path class="cls-2" d="M3107.68,1686.36a10.11,10.11,0,0,1-1.9-.18,9.61,9.61,0,0,1-6.49-4.55h0A10.8,10.8,0,0,1,3098,1674a10.21,10.21,0,0,1,1.39-3.55,9,9,0,0,1,1.19-1.5,9.13,9.13,0,0,1,1.45-1.29,10.14,10.14,0,0,1,7.33-1.7,10.55,10.55,0,0,1,6.78,3.88,9.85,9.85,0,0,1,2.06,7.63,10.27,10.27,0,0,1-4.34,6.94,11.62,11.62,0,0,1-1.9,1.1,11.23,11.23,0,0,1-2,.63A10.84,10.84,0,0,1,3107.68,1686.36Zm.12-18.38a7.77,7.77,0,0,0-4.58,1.4,7.17,7.17,0,0,0-1.15,1,7.31,7.31,0,0,0-.94,1.17,8.18,8.18,0,0,0-1.09,2.8,8.71,8.71,0,0,0,1.07,6.15h0a7.49,7.49,0,0,0,5.06,3.56,8.33,8.33,0,0,0,3.26,0,8.18,8.18,0,0,0,1.64-.51,8.47,8.47,0,0,0,1.5-.87,8.14,8.14,0,0,0,3.47-5.51,7.73,7.73,0,0,0-1.61-6,8.39,8.39,0,0,0-6.63-3.17Z"/><path class="cls-1" d="M3353.07,522a9.71,9.71,0,0,1-6.91,1.12,9,9,0,0,1-3.16-1.27,9.54,9.54,0,0,1-2.46-2.37,9,9,0,0,1-1.43-6.49,9.88,9.88,0,0,1,3.45-6.11,8.54,8.54,0,0,1,6.8-1.88,9.42,9.42,0,0,1,6.29,4,9,9,0,0,1,1.53,3.59,9.54,9.54,0,0,1,0,3.65A8.72,8.72,0,0,1,3353.07,522Z"/><path class="cls-2" d="M3348.21,524.36a11.79,11.79,0,0,1-2.26-.23,10,10,0,0,1-3.53-1.42,10.55,10.55,0,0,1-2.73-2.63,10,10,0,0,1-1.63-7.26,10.88,10.88,0,0,1,3.82-6.79,9.6,9.6,0,0,1,7.64-2.11,10.41,10.41,0,0,1,7,4.44,10,10,0,0,1,1.71,4,10.33,10.33,0,0,1,0,4.07,9.69,9.69,0,0,1-4.62,6.45A10.42,10.42,0,0,1,3348.21,524.36Zm-.18-18.43a7.48,7.48,0,0,0-4.8,1.74,8.8,8.8,0,0,0-3.07,5.45,7.91,7.91,0,0,0,1.25,5.71,8.4,8.4,0,0,0,2.17,2.1,7.91,7.91,0,0,0,2.79,1.12,8.67,8.67,0,0,0,6.16-1h0a7.61,7.61,0,0,0,3.62-5,8.46,8.46,0,0,0,0-3.25,7.94,7.94,0,0,0-1.35-3.16,8.33,8.33,0,0,0-5.58-3.59A7.81,7.81,0,0,0,3348,505.93Z"/><path class="cls-1" d="M3368.59,555.34a9.37,9.37,0,0,1-11.83-5.11,9.19,9.19,0,0,1,0-6.84,9.6,9.6,0,0,1,4.84-5.11,8.83,8.83,0,0,1,7-.17,9.22,9.22,0,0,1,5.12,5.15A9.07,9.07,0,0,1,3368.59,555.34Z"/><path class="cls-2" d="M3365.35,557a10.16,10.16,0,0,1-9.57-14,10.57,10.57,0,0,1,5.39-5.67,9.8,9.8,0,0,1,7.87-.19,10.27,10.27,0,0,1,5.71,5.75,10.13,10.13,0,0,1-.07,8.08,9.86,9.86,0,0,1-5.73,5.38h0A10.59,10.59,0,0,1,3365.35,557Zm0-18.45a7.85,7.85,0,0,0-3.26.73,8.44,8.44,0,0,0-4.31,4.54,8.11,8.11,0,0,0,0,6.05,8.28,8.28,0,0,0,10.48,4.5h0a7.82,7.82,0,0,0,4.51-4.23,8.39,8.39,0,0,0-4.5-11A7.8,7.8,0,0,0,3365.32,538.52Z"/><path class="cls-1" d="M3374.38,572.83a9.31,9.31,0,0,1-11.49-5.91,9,9,0,0,1,.51-6.88,9.27,9.27,0,0,1,5.19-4.7,8.93,8.93,0,0,1,7,.36,9.38,9.38,0,0,1,4.7,5.46A9.1,9.1,0,0,1,3374.38,572.83Z"/><path class="cls-2" d="M3371.76,574.27a10.38,10.38,0,0,1-9.88-7,10.08,10.08,0,0,1,.56-7.68,10.39,10.39,0,0,1,5.78-5.23,10,10,0,0,1,7.89.4,10.48,10.48,0,0,1,4.59,14.18,9.91,9.91,0,0,1-6,4.93h0A10.52,10.52,0,0,1,3371.76,574.27Zm-.06-18.43a8,8,0,0,0-2.75.5,8.19,8.19,0,0,0-4.59,4.16,7.86,7.86,0,0,0-.46,6.07,8.29,8.29,0,0,0,10.18,5.24h0a7.81,7.81,0,0,0,4.74-3.89,8.21,8.21,0,0,0,.51-6.43,8.3,8.3,0,0,0-4.16-4.84A7.85,7.85,0,0,0,3371.7,555.84Z"/><path class="cls-1" d="M3383.15,608.61a9.28,9.28,0,0,1-6.89-1.33,9.05,9.05,0,0,1-4-5.7,9.28,9.28,0,0,1,6.89-11,9.14,9.14,0,0,1,11.06,7,9.42,9.42,0,0,1-1.24,7A9,9,0,0,1,3383.15,608.61Z"/><path class="cls-2" d="M3381.33,609.86a10.34,10.34,0,0,1-5.64-1.69,10.09,10.09,0,0,1-4.45-6.36,10.29,10.29,0,0,1,7.67-12.22,10,10,0,0,1,7.71,1.22,10.25,10.25,0,0,1,4.64,6.57,10.37,10.37,0,0,1-1.38,7.85,10.18,10.18,0,0,1-6.52,4.43h0A10.66,10.66,0,0,1,3381.33,609.86Zm0-18.44a8.22,8.22,0,0,0-8,9.93,8,8,0,0,0,3.52,5,8.25,8.25,0,0,0,6.11,1.18h0a8,8,0,0,0,5.14-3.49,8.27,8.27,0,0,0-2.59-11.46A7.91,7.91,0,0,0,3381.33,591.42Z"/><path class="cls-1" d="M3379.17,590.62a9.21,9.21,0,0,1-4.79-17.79,9.21,9.21,0,1,1,4.79,17.79Z"/><path class="cls-2" d="M3377,591.94a10.26,10.26,0,0,1-2.91-20.13,9.91,9.91,0,0,1,7.7.82,10.41,10.41,0,0,1,3.9,14.44,10,10,0,0,1-6.25,4.59A10.75,10.75,0,0,1,3377,591.94Zm0-18.43a7.71,7.71,0,0,0-2.27.34,8.15,8.15,0,0,0,4.23,15.74h0a7.84,7.84,0,0,0,4.93-3.61,8.28,8.28,0,0,0-3.11-11.49A7.8,7.8,0,0,0,3377,573.51Z"/></svg>