<?xml version="1.0" encoding="utf-8"?>
<!-- Generator: Adobe Illustrator 24.3.0, SVG Export Plug-In . SVG Version: 6.00 Build 0)  -->
<svg version="1.1" id="Calque_1" xmlns="http://www.w3.org/2000/svg" xmlns:xlink="http://www.w3.org/1999/xlink" x="0px" y="0px"
	 viewBox="0 0 595.3 908.8" style="enable-background:new 0 0 595.3 908.8;" xml:space="preserve">
<style type="text/css">
	.st0{fill:#1E1E1C;}
	.st1{fill:#C7C7C6;}
	.st2{fill:#B2B2B2;}
	.st3{fill:#FFFFFF;}
</style>
<g>
	<g>
		<path class="st0" d="M430.3,601.2c-9.1-29.2-7-68.8-6.2-94.6c1.8-55.4-44.8-143.2-125.4-143.2l0,0.2l0-0.2
			c-80.6,0-127.2,87.8-125.4,143.2c0.8,25.8,2.9,65.4-6.2,94.6c-9.1,29.2-17.5,84.9-17.5,116.9c0,0,0,0,0,0
			c0,24.1,66.3,43.7,148,43.7s148-19.5,148-43.7C445.6,686.1,439.4,630.4,430.3,601.2z"/>
		<path class="st1" d="M297.6,762.4c-39.6,0-76.8-4.6-104.8-12.8c-28.3-8.3-43.8-19.5-43.8-31.5c0-31.8,8.4-87.6,17.6-117.1
			c8.4-27,7.2-62.7,6.3-88.8c-0.1-1.9-0.1-3.8-0.2-5.6c-0.5-16.5,3.3-35.9,10.7-54.6c8-20.1,19.7-38.4,33.8-53
			c22.9-23.6,50.8-36.1,81-36.3v0l1.2,0c30.1,0.2,58.1,12.7,81,36.3c14.1,14.6,25.8,32.9,33.8,53c7.4,18.7,11.2,38,10.7,54.6
			c-0.1,1.8-0.1,3.7-0.2,5.6c-0.9,26.1-2.1,61.8,6.3,88.8c9,29,15.4,84.9,15.4,117.1c0,12-15.6,23.2-43.8,31.5
			C374.4,757.8,337.2,762.4,297.6,762.4z M298.7,363.7v0.4c-30,0-57.9,12.4-80.7,35.9c-14,14.4-25.6,32.6-33.5,52.5
			c-7.4,18.5-11.1,37.7-10.6,54c0.1,1.8,0.1,3.7,0.2,5.6c0.9,26.2,2.1,62-6.4,89.2c-9.2,29.3-17.5,85-17.5,116.7
			c0,5.7,3.8,11.2,11.4,16.5c7.4,5.2,18,9.8,31.5,13.8c27.9,8.2,65,12.8,104.5,12.8s76.6-4.5,104.5-12.8c13.5-4,24.1-8.6,31.5-13.8
			c7.5-5.3,11.4-10.8,11.4-16.5c0-32-6.3-87.8-15.3-116.7c-8.5-27.2-7.3-63.1-6.4-89.2c0.1-1.9,0.1-3.8,0.2-5.6
			c0.5-16.3-3.2-35.5-10.6-54c-7.9-19.9-19.5-38.1-33.5-52.5c-22.8-23.5-50.7-35.9-80.7-35.9L298.7,363.7L298.7,363.7z"/>
	</g>
	<path class="st1" d="M311.4,752.1c-2.1-3.5-4.8-7.1-7.7-10.9c-0.5-0.5-1-1.1-1.3-1.7c-6.1-7.6-13.5-15.9-21.1-24.4
		c-21.5-24-45.8-51.2-53.4-78c-2.3-8-5.1-16.7-8-25.9c-12.4-38.4-27.8-86.2-20.1-133.8c4.5-27.7,16.9-51.5,35.7-68.8
		c17-15.6,38.5-24.6,58.9-24.7c21.9-0.1,41.8,5.7,57.6,16.8c18.5,13,30.9,32.6,36.7,58.2c14.3,62.9,2.3,138-1.7,159.6
		c-2.3,12.5-11.6,34.7-42.5,69.2c-18.1,20.2-35.5,35.5-36.4,36.3c-0.5,0.5-7.9,9-4.6,14.8c3.5,4.4,6.6,8.6,9.1,12.6L311.4,752.1z
		 M294.9,385.3c-0.2,0-0.4,0-0.6,0c-20.1,0.1-41.3,9-58,24.4c-18.7,17.1-30.9,40.7-35.3,68.1c-7.7,47.3,7.7,94.9,20.1,133.2
		c3,9.2,5.8,17.9,8.1,25.9c7.5,26.5,31.8,53.6,53.1,77.5c6.8,7.6,13.4,15,19.1,22c-0.2-2,0.3-4.2,1.5-6.7c1.7-3.6,4.1-6.3,4.2-6.4
		l0.1-0.1c0.2-0.2,17.9-15.6,36.3-36.2c17-18.9,38.1-46.2,42.2-68.6c4-21.5,15.9-96.4,1.7-159.1c-5.7-25.3-17.9-44.6-36.2-57.4
		C335.7,391,316.2,385.3,294.9,385.3z"/>
	<g>
		<path class="st0" d="M243.7,903.1L243.7,903.1c-3.6,0-6.6-3-6.6-6.6v-172c0-3.6,3-6.6,6.6-6.6h0c3.6,0,6.6,3,6.6,6.6v172
			C250.3,900.2,247.3,903.1,243.7,903.1z"/>
		<path class="st3" d="M243.7,903.7c-4,0-7.2-3.2-7.2-7.2v-172c0-4,3.2-7.2,7.2-7.2c4,0,7.2,3.2,7.2,7.2v172
			C250.9,900.5,247.7,903.7,243.7,903.7z M243.7,718.6c-3.3,0-5.9,2.7-5.9,5.9v172c0,3.3,2.7,5.9,5.9,5.9c3.3,0,5.9-2.7,5.9-5.9
			v-172C249.6,721.3,247,718.6,243.7,718.6z"/>
	</g>
	<g>
		<path class="st0" d="M353.6,903.1L353.6,903.1c-3.6,0-6.6-3-6.6-6.6v-172c0-3.6,3-6.6,6.6-6.6h0c3.6,0,6.6,3,6.6,6.6v172
			C360.2,900.2,357.2,903.1,353.6,903.1z"/>
		<path class="st3" d="M353.6,903.7c-4,0-7.2-3.2-7.2-7.2v-172c0-4,3.2-7.2,7.2-7.2c4,0,7.2,3.2,7.2,7.2v172
			C360.8,900.5,357.6,903.7,353.6,903.7z M353.6,718.6c-3.3,0-5.9,2.7-5.9,5.9v172c0,3.3,2.7,5.9,5.9,5.9c3.3,0,5.9-2.7,5.9-5.9
			v-172C359.6,721.3,356.9,718.6,353.6,718.6z"/>
	</g>
	<g>
		<g>
			<circle class="st0" cx="145.3" cy="661.1" r="24.9"/>
			<path class="st1" d="M145.3,686.6c-14.1,0-25.6-11.5-25.6-25.6c0-14.1,11.5-25.6,25.6-25.6s25.6,11.5,25.6,25.6
				C170.9,675.2,159.4,686.6,145.3,686.6z M145.3,636.8c-13.4,0-24.3,10.9-24.3,24.3s10.9,24.3,24.3,24.3s24.3-10.9,24.3-24.3
				S158.7,636.8,145.3,636.8z"/>
		</g>
		<g>
			<path class="st1" d="M143,646.1h6.8l10.2,28.8h-6.5l-1.9-5.9h-10.6l-2,5.9h-6.3L143,646.1z M142.6,664h7.4l-3.6-11.3L142.6,664z"
				/>
		</g>
	</g>
</g>
</svg>
