<?xml version="1.0" encoding="utf-8"?>
<!-- Generator: Adobe Illustrator 24.3.0, SVG Export Plug-In . SVG Version: 6.00 Build 0)  -->
<svg version="1.1" id="Calque_1" xmlns="http://www.w3.org/2000/svg" xmlns:xlink="http://www.w3.org/1999/xlink" x="0px" y="0px"
	 viewBox="0 0 4073 2347.2" style="enable-background:new 0 0 4073 2347.2;" xml:space="preserve">
<style type="text/css">
	.st0{fill:#1D1D1B;stroke:#C7C7C6;stroke-width:8.5;stroke-miterlimit:10;}
	.st1{fill:#C6C6C6;}
	.st2{fill:#1D1D1B;stroke:#C7C7C6;stroke-width:5.67;stroke-miterlimit:10;}
</style>
<circle class="st0" cx="3613.6" cy="404.2" r="103.6"/>
<path class="st1" d="M3658.2,358c3.8,5.4,5.7,11.8,5.5,18.4c0,7.3-1.9,13.2-5.6,17.7c-2.6,2.9-5.7,5.2-9.2,6.9
	c5.7,1.9,10.6,5.6,13.9,10.6c3.1,4.8,4.7,10.7,4.7,17.6c0.1,6.8-1.8,13.4-5.4,19.2c-4.8,8.1-12.9,13.7-22.1,15.5
	c-5.6,1.1-11.3,1.7-17,1.6h-54.2V345.1h58.1C3641.7,345.4,3652.1,349.7,3658.2,358z M3592.9,366.1v26.5h29.2c5.2,0,9.5-1,12.7-3
	s4.9-5.5,4.9-10.6c0-5.6-2.2-9.3-6.5-11.1c-4.6-1.4-9.4-2-14.2-1.9L3592.9,366.1z M3592.9,412.5v32.1h29.2c5.2,0,9.3-0.7,12.2-2.1
	c5.3-2.6,7.9-7.6,7.9-15c0-6.3-2.6-10.6-7.7-12.9c-2.9-1.3-6.9-2-12-2L3592.9,412.5z"/>
<path class="st2" d="M4069.7,345.2l-351.3,58.6c0,0.3,0,0.7,0,1.1c0,57.6-46.7,104.2-104.2,104.2c-44.9,0-84.8-28.8-98.9-71.4
	l-191,31.9c-144.3-26-309.5,255.7-369,629.1c-23.3,146.2-26.9,284.8-14,400.9c13.3,165.8,13.2,690.7,10.2,847.8h1.5
	c0,218.4,250,395.5,558.4,395.5s558.4-177.1,558.4-395.5c0-8.8-0.4-17.6-1.2-26.3L4069.7,345.2z"/>
</svg>
