<?xml version="1.0" encoding="utf-8"?>
<!-- Generator: Adobe Illustrator 24.0.1, SVG Export Plug-In . SVG Version: 6.00 Build 0)  -->
<svg version="1.1" id="Calque_1" xmlns="http://www.w3.org/2000/svg" xmlns:xlink="http://www.w3.org/1999/xlink" x="0px" y="0px"
	 viewBox="0 0 374.9 331.8" style="enable-background:new 0 0 374.9 331.8;" xml:space="preserve">
<style type="text/css">
	.st0{fill:#E8E8E8;stroke:#000000;stroke-width:0.7087;stroke-miterlimit:10;}
	.st1{fill:none;}
	.st2{font-family:'Helvetica-Bold';}
	.st3{font-size:18.4203px;}
</style>
<g>
	<g>
		<path class="st0" d="M220.8,117.3c0,0,3.4-17.3,4.6-43.8c0.9-19.2-7.8-37.7-24-45c-20.3-9.1-45-6.2-53.9,7.3
			c-7.3,11.2-9,33-7.3,48.1c1.4,12.4,5.2,24.8,7,31.5c2.1,8.2,10.3,13.8,20.3,16.7C192,139.2,211.5,127,220.8,117.3z"/>
		<path class="st0" d="M165.3,126c0,0-15.7-20.1-19.8-44.2c-2.3-13.8-4-51.2,18.9-51.2c24.4,0,28.5,27.9,24.4,49.1
			C185.1,98.8,179.4,108.9,165.3,126z"/>
		<path class="st0" d="M174.5,174.8h-0.5c-0.8,0-1.5-0.7-1.5-1.5V125c0-0.8,0.7-1.5,1.5-1.5h0.5c0.8,0,1.5,0.7,1.5,1.5v48.3
			C176,174.1,175.4,174.8,174.5,174.8z"/>
		<path class="st0" d="M156.2,171.1h-0.5c-0.8,0-1.5-0.7-1.5-1.5v-48.3c0-0.8,0.7-1.5,1.5-1.5h0.5c0.8,0,1.5,0.7,1.5,1.5v48.3
			C157.7,170.4,157.1,171.1,156.2,171.1z"/>
	</g>
	<circle class="st0" cx="219.3" cy="40.5" r="11.5"/>
	<rect x="212.2" y="33.9" class="st1" width="33.7" height="32"/>
	<text transform="matrix(1 0 0 1 212.1849 47.1018)" class="st2 st3">C</text>
</g>
</svg>
