<?xml version="1.0" encoding="utf-8"?>
<!-- Generator: Adobe Illustrator 24.0.1, SVG Export Plug-In . SVG Version: 6.00 Build 0)  -->
<svg version="1.1" id="Calque_1" xmlns="http://www.w3.org/2000/svg" xmlns:xlink="http://www.w3.org/1999/xlink" x="0px" y="0px"
	 viewBox="0 0 374.9 331.8" style="enable-background:new 0 0 374.9 331.8;" xml:space="preserve">
<style type="text/css">
	.st0{fill:#E8E8E8;stroke:#000000;stroke-width:0.7087;stroke-miterlimit:10;}
	.st1{fill:none;}
	.st2{font-family:'Helvetica-Bold';}
	.st3{font-size:18.4203px;}
</style>
<g>
	<g>
		<path class="st0" d="M346.1,245.7c-0.1-0.5-0.3-1-0.4-1.5c0,0,0,0,0,0C345.8,244.7,345.9,245.2,346.1,245.7z"/>
		<path class="st0" d="M326.8,246.1c6.4-7.8,15.7-8,18.4-3c-0.9-2-2.2-4-4.2-5.9c-8.3-8.3-81.5-88.5-87.1-94.3
			c-5.5-5.9-13.5-5-21.1,1.1c-21.3,17.2-14.3,71.8,3.5,82.9c7.2,4.5,90.5,44.5,90.5,44.5C319.9,268,319.9,254.4,326.8,246.1z"/>
		<path class="st0" d="M345.1,243c0.2,0.4,0.3,0.8,0.5,1.2C345.5,243.8,345.4,243.4,345.1,243z"/>
		<path class="st0" d="M343.4,260.6c2.3-4.1,4.1-9.4,2.7-14.9c-0.2-0.5-0.3-1-0.4-1.5c0,0,0,0,0,0c-0.1-0.4-0.3-0.8-0.5-1.2
			c-2.7-5-12-4.7-18.4,3c-6.9,8.4-6.9,21.9,0,25.3C332.8,274.3,339.9,266.8,343.4,260.6z"/>
	</g>
	<circle class="st0" cx="249" cy="236.6" r="11.5"/>
	<rect x="242.8" y="230.2" class="st1" width="33.7" height="32"/>
	<text transform="matrix(1 0 0 1 242.7757 243.4523)" class="st2 st3">D</text>
</g>
</svg>
