<?xml version="1.0" encoding="utf-8"?>
<!-- Generator: Adobe Illustrator 24.3.0, SVG Export Plug-In . SVG Version: 6.00 Build 0)  -->
<svg version="1.1" id="Calque_1" xmlns="http://www.w3.org/2000/svg" xmlns:xlink="http://www.w3.org/1999/xlink" x="0px" y="0px"
	 viewBox="0 0 595.3 908.8" style="enable-background:new 0 0 595.3 908.8;" xml:space="preserve">
<style type="text/css">
	.st0{fill:#1E1E1C;}
	.st1{fill:#C7C7C6;}
	.st2{fill:none;}
	.st3{font-family:'Helvetica-LightOblique';}
	.st4{font-size:23.194px;}
	.st5{fill:#B2B2B2;}
	.st6{fill:#FFFFFF;}
</style>
<g>
	<rect x="17.6" y="707.9" class="st2" width="68.9" height="24.1"/>
	<text transform="matrix(1 0 0 1 17.6196 724.6138)" class="st1 st3 st4">60 cm</text>
	<g>
		<path class="st1" d="M438.9,729.2c-1.7,1.8-3.8,3.5-6.2,5.3c-7.4,5.2-18.1,9.8-31.6,13.8c-27.9,8.2-65.1,12.8-104.6,12.8
			s-76.6-4.5-104.6-12.8c-13.6-4-24.2-8.7-31.6-13.8c-7.6-5.3-11.5-10.9-11.5-16.7s3.9-11.4,11.5-16.7c7.4-5.2,18.1-9.8,31.6-13.8
			c27.9-8.2,65.1-12.8,104.6-12.8s76.6,4.5,104.6,12.8c13.6,4,24.2,8.7,31.6,13.8c2.3,1.6,4.3,3.3,5.9,5h0.9
			c-6.7-7.3-19.8-14-38.3-19.5c-28-8.3-65.2-12.8-104.8-12.8s-76.8,4.5-104.8,12.8c-28.1,8.3-43.6,19.4-43.6,31.2
			s15.5,22.9,43.6,31.2c28,8.3,65.2,12.8,104.8,12.8s76.8-4.5,104.8-12.8c18.8-5.5,31.9-12.3,38.6-19.8H438.9z"/>
		<path class="st5" d="M296.5,763c-39.7,0-77-4.6-105.1-12.9c-28.7-8.5-44.5-20-44.5-32.4c0-12.4,15.8-24,44.5-32.4
			c28.1-8.3,65.4-12.9,105.1-12.9c39.7,0,77,4.6,105.1,12.9c18.5,5.5,32,12.3,38.9,19.8l2,2.1h-4.4l-0.4-0.4
			c-1.6-1.6-3.5-3.2-5.8-4.8c-7.3-5.1-17.8-9.7-31.3-13.7c-27.8-8.2-64.8-12.7-104.2-12.7s-76.4,4.5-104.2,12.7
			c-13.4,4-23.9,8.6-31.3,13.7c-7.3,5.1-10.9,10.3-10.9,15.7c0,5.3,3.7,10.6,10.9,15.7c7.3,5.1,17.8,9.7,31.3,13.7
			c27.8,8.2,64.8,12.7,104.2,12.7s76.4-4.5,104.2-12.7c13.4-4,23.9-8.6,31.3-13.7c2.4-1.7,4.4-3.4,6-5.1l0.4-0.4h4.3l-1.9,2.1
			c-6.8,7.6-20.4,14.6-39.2,20.1C373.5,758.4,336.2,763,296.5,763z"/>
	</g>
	<rect x="92.9" y="715.8" class="st5" width="55.3" height="3.8"/>
</g>
</svg>
