<?xml version="1.0" encoding="utf-8"?>
<!-- Generator: Adobe Illustrator 24.3.0, SVG Export Plug-In . SVG Version: 6.00 Build 0)  -->
<svg version="1.1" id="Calque_1" xmlns="http://www.w3.org/2000/svg" xmlns:xlink="http://www.w3.org/1999/xlink" x="0px" y="0px"
	 viewBox="0 0 595.3 908.8" style="enable-background:new 0 0 595.3 908.8;" xml:space="preserve">
<style type="text/css">
	.st0{fill:#1E1E1C;}
	.st1{fill:#C7C7C6;}
	.st2{fill:#B2B2B2;}
	.st3{fill:#FFFFFF;}
</style>
<g>
	<g>
		<g>
			<path class="st0" d="M153.5,710.3c0.5,0.4,0.7,0.9,0.8,1.4c0.1,0.5,0,1.1-0.3,1.5c-0.3,0.4-0.7,0.7-1.3,0.9
				c-0.5,0.1-1.1,0.1-1.7-0.2c-0.5-0.3-0.9-0.7-1.1-1.3c-0.1-0.6-0.1-1.2,0.3-1.8c0.4-0.6,0.9-0.9,1.5-1
				C152.4,709.7,153,709.9,153.5,710.3z"/>
			<path class="st1" d="M152.2,714.7c-0.4,0-0.9-0.1-1.3-0.3c-0.7-0.3-1.2-0.9-1.3-1.6c-0.2-0.7,0-1.5,0.4-2.2
				c0.4-0.6,1.1-1.1,1.8-1.2c0.7-0.1,1.4,0.1,2,0.5c0.5,0.4,0.9,1,1,1.7c0.1,0.7,0,1.3-0.4,1.9c-0.4,0.6-0.9,0.9-1.6,1.1
				C152.7,714.6,152.4,714.7,152.2,714.7z M152.2,710.3c-0.1,0-0.2,0-0.3,0c-0.5,0.1-0.9,0.4-1.2,0.8c-0.3,0.4-0.4,1-0.3,1.4
				c0.1,0.4,0.4,0.8,0.8,1c0.4,0.2,0.9,0.2,1.3,0.1c0.4-0.1,0.7-0.3,1-0.7c0.2-0.3,0.3-0.8,0.2-1.2c-0.1-0.3-0.2-0.8-0.7-1.2l0,0
				C152.9,710.4,152.6,710.3,152.2,710.3z"/>
		</g>
	</g>
	<g>
		<g>
			<path class="st0" d="M444.9,716c-0.3,0.1-0.6,0.1-0.9,0.1c-0.3,0-0.6-0.1-0.8-0.2c-0.3-0.1-0.5-0.2-0.7-0.4
				c-0.2-0.2-0.4-0.4-0.5-0.6c-0.1-0.2-0.2-0.5-0.2-0.7c0-0.3,0-0.5,0.1-0.8c0.1-0.5,0.5-1,1-1.3c0.5-0.3,1.1-0.4,1.7-0.3
				c0.3,0.1,0.5,0.2,0.8,0.4c0.2,0.2,0.5,0.5,0.6,0.8c0.1,0.3,0.2,0.6,0.3,0.9c0,0.3,0,0.6-0.2,0.9c-0.1,0.3-0.3,0.5-0.5,0.7
				C445.4,715.7,445.2,715.9,444.9,716z"/>
			<path class="st1" d="M444.1,716.6c0,0-0.1,0-0.1,0c-0.3,0-0.7-0.1-1-0.2c-0.3-0.1-0.6-0.3-0.8-0.5c-0.2-0.2-0.5-0.5-0.6-0.8
				c-0.2-0.3-0.2-0.6-0.2-0.9c0-0.3,0-0.6,0.1-1c0.2-0.7,0.6-1.2,1.2-1.6c0.6-0.4,1.4-0.5,2.1-0.3c0.4,0.1,0.7,0.3,1,0.5
				c0.3,0.3,0.6,0.6,0.7,0.9c0.2,0.3,0.3,0.7,0.3,1.1c0,0.4-0.1,0.8-0.2,1.1c-0.1,0.3-0.3,0.6-0.6,0.9c-0.3,0.2-0.6,0.4-0.9,0.6l0,0
				C444.7,716.5,444.4,716.6,444.1,716.6z M444.1,712.2c-0.3,0-0.6,0.1-0.9,0.3c-0.4,0.2-0.7,0.6-0.8,1.1c-0.1,0.2-0.1,0.4-0.1,0.6
				c0,0.2,0.1,0.4,0.2,0.6c0.1,0.2,0.2,0.3,0.3,0.4c0.2,0.1,0.3,0.3,0.5,0.3c0.2,0.1,0.4,0.1,0.7,0.1c0.2,0,0.5,0,0.7-0.1h0
				c0.2-0.1,0.4-0.2,0.6-0.3c0.2-0.1,0.3-0.3,0.4-0.5c0.1-0.2,0.1-0.5,0.1-0.7c0-0.2-0.1-0.5-0.2-0.8c-0.1-0.2-0.3-0.4-0.5-0.6
				c-0.2-0.2-0.4-0.3-0.6-0.3C444.3,712.2,444.2,712.2,444.1,712.2z"/>
		</g>
	</g>
	<g>
		<g>
			<path class="st0" d="M445.6,720.3c-0.6,0-1.2-0.2-1.6-0.6c-0.4-0.3-0.7-0.8-0.8-1.3c0-0.3,0-0.5,0-0.7c0-0.1,0.1-0.2,0.1-0.4
				c0-0.1,0.1-0.2,0.2-0.3c0.3-0.4,0.7-0.8,1.3-1c0.6-0.2,1.2-0.1,1.7,0.2c0.1,0.1,0.2,0.2,0.4,0.3c0.1,0.1,0.2,0.2,0.3,0.4
				c0.2,0.3,0.3,0.6,0.4,0.9c0.1,0.7-0.1,1.4-0.5,1.8C446.7,720.1,446.2,720.3,445.6,720.3z"/>
			<path class="st1" d="M445.6,720.8C445.6,720.8,445.6,720.8,445.6,720.8c-0.7,0-1.3-0.2-1.9-0.7c-0.6-0.5-0.9-1-0.9-1.6
				c-0.1-0.3,0-0.6,0-0.9c0-0.1,0.1-0.3,0.1-0.4c0.1-0.1,0.1-0.3,0.2-0.4c0.4-0.6,0.9-1,1.6-1.2c0.7-0.2,1.4-0.2,2.1,0.2
				c0.2,0.1,0.3,0.2,0.4,0.3c0.1,0.1,0.2,0.3,0.4,0.5c0.2,0.4,0.4,0.7,0.4,1.1c0.1,0.9-0.1,1.7-0.6,2.2
				C447,720.5,446.3,720.8,445.6,720.8z M445.5,716.4c-0.2,0-0.3,0-0.5,0.1c-0.4,0.1-0.8,0.5-1.1,0.8c-0.1,0.1-0.1,0.2-0.1,0.3
				c0,0.1-0.1,0.2-0.1,0.3c0,0.2-0.1,0.4,0,0.5c0,0.4,0.2,0.7,0.6,1c0.4,0.3,0.8,0.5,1.3,0.5c0,0,0,0,0,0c0.5,0,0.9-0.2,1.1-0.5
				c0.3-0.4,0.4-0.9,0.4-1.5c0-0.2-0.1-0.5-0.3-0.7c-0.1-0.1-0.1-0.2-0.2-0.3c-0.1-0.1-0.2-0.2-0.3-0.2
				C446.1,716.4,445.8,716.4,445.5,716.4z"/>
		</g>
	</g>
	<g>
		<g>
			<path class="st0" d="M442.9,712.1c-0.5,0.3-1.1,0.4-1.6,0.3c-0.3,0-0.5-0.1-0.8-0.2c-0.2-0.1-0.4-0.3-0.6-0.5
				c-0.4-0.4-0.5-1-0.4-1.5c0-0.5,0.3-1.1,0.7-1.5c0.4-0.4,1-0.6,1.6-0.6c0.6,0,1.1,0.3,1.6,0.9c0.4,0.5,0.6,1.2,0.5,1.7
				C443.8,711.2,443.4,711.7,442.9,712.1z"/>
			<path class="st1" d="M441.7,712.9c-0.1,0-0.3,0-0.4,0c-0.3,0-0.6-0.1-0.9-0.3c-0.3-0.2-0.6-0.4-0.7-0.6c-0.4-0.5-0.6-1.1-0.6-1.9
				c0.1-0.7,0.4-1.4,0.9-1.8c0.5-0.5,1.2-0.7,2-0.7c0.7,0,1.4,0.4,1.9,1c0.5,0.6,0.7,1.3,0.6,2.1c-0.1,0.7-0.5,1.4-1.1,1.8v0
				C442.7,712.7,442.2,712.9,441.7,712.9z M441.6,708.5c-0.4,0-0.8,0.2-1.1,0.4c-0.3,0.3-0.5,0.7-0.6,1.2c0,0.3,0,0.8,0.3,1.2
				c0.2,0.2,0.3,0.3,0.5,0.4c0.2,0.1,0.4,0.2,0.6,0.2c0.5,0.1,0.9,0,1.3-0.3l0,0c0.4-0.3,0.6-0.6,0.7-1.1c0.1-0.5-0.1-1-0.4-1.4
				c-0.3-0.4-0.8-0.7-1.2-0.7C441.7,708.5,441.7,708.5,441.6,708.5z"/>
		</g>
	</g>
	<g>
		<g>
			<path class="st0" d="M151.1,714c0.5,0.3,0.9,0.7,1.1,1.2c0.1,0.2,0.2,0.5,0.2,0.8c0,0.3,0,0.5-0.1,0.8c-0.1,0.2-0.2,0.5-0.4,0.7
				c-0.2,0.2-0.4,0.4-0.6,0.5c-0.5,0.3-1.1,0.4-1.6,0.3c-0.6-0.1-1.1-0.4-1.4-1c-0.1-0.3-0.3-0.6-0.3-0.9c0-0.3,0-0.7,0.1-1
				c0.1-0.3,0.3-0.6,0.5-0.9c0.2-0.2,0.5-0.4,0.7-0.5C150,713.7,150.6,713.7,151.1,714z"/>
			<path class="st1" d="M150.1,718.6c-0.2,0-0.3,0-0.5,0c-0.7-0.1-1.4-0.5-1.7-1.2c-0.2-0.4-0.3-0.7-0.3-1.1c0-0.4,0-0.8,0.1-1.2
				c0.1-0.4,0.3-0.7,0.6-1c0.3-0.3,0.6-0.5,0.9-0.7c0.7-0.3,1.4-0.3,2.1,0.1l0,0c0.6,0.3,1.1,0.8,1.4,1.5c0.1,0.3,0.2,0.6,0.2,0.9
				c0,0.4,0,0.7-0.1,0.9c-0.1,0.3-0.3,0.6-0.5,0.8c-0.2,0.2-0.4,0.4-0.7,0.6C151.2,718.5,150.6,718.6,150.1,718.6z M150.2,714.2
				c-0.2,0-0.4,0-0.6,0.1c-0.2,0.1-0.4,0.2-0.6,0.4c-0.2,0.2-0.3,0.5-0.4,0.7c-0.1,0.3-0.1,0.6-0.1,0.8c0,0.3,0.1,0.5,0.2,0.7
				c0.2,0.4,0.6,0.6,1,0.7c0.4,0.1,0.9,0,1.3-0.2c0.2-0.1,0.3-0.3,0.5-0.4c0.1-0.1,0.2-0.3,0.3-0.5c0.1-0.2,0.1-0.4,0.1-0.6
				c0-0.2-0.1-0.4-0.2-0.6c-0.2-0.4-0.5-0.8-0.9-1l0,0C150.7,714.3,150.5,714.2,150.2,714.2z"/>
		</g>
	</g>
	<g>
		<g>
			<path class="st0" d="M149.7,718.1c0.6,0.1,1.1,0.4,1.5,0.8c0.3,0.4,0.6,0.9,0.6,1.4c0,0.5-0.2,1-0.6,1.4
				c-0.3,0.4-0.9,0.7-1.5,0.8c-0.6,0.1-1.2-0.1-1.6-0.5c-0.5-0.4-0.7-1-0.8-1.7c0-0.7,0.3-1.3,0.8-1.7
				C148.6,718.2,149.1,718,149.7,718.1z"/>
			<path class="st1" d="M149.4,723c-0.6,0-1.1-0.2-1.6-0.6c-0.6-0.5-0.9-1.2-0.9-2.1c0-0.9,0.4-1.7,0.9-2.1c0.6-0.5,1.3-0.7,2-0.6
				l0,0c0.7,0.1,1.3,0.5,1.7,1c0.5,0.6,0.7,1.1,0.7,1.7c0,0.6-0.2,1.1-0.7,1.7c-0.5,0.5-1.1,0.9-1.7,1
				C149.7,723,149.5,723,149.4,723z M149.4,718.6c-0.4,0-0.7,0.1-1,0.4c-0.4,0.3-0.6,0.8-0.6,1.4c0,0.6,0.2,1.1,0.6,1.3
				c0.4,0.3,0.8,0.4,1.2,0.4c0.4-0.1,0.9-0.3,1.2-0.7c0.3-0.4,0.5-0.7,0.4-1l0,0l0,0c0-0.3-0.1-0.7-0.4-1c-0.3-0.3-0.7-0.6-1.2-0.7
				C149.6,718.6,149.5,718.6,149.4,718.6z"/>
		</g>
	</g>
	<g>
		<g>
			<path class="st0" d="M149.7,722.5c0.6-0.1,1.2,0,1.6,0.3c0.2,0.1,0.4,0.3,0.6,0.5c0.2,0.2,0.3,0.4,0.4,0.7
				c0.1,0.2,0.1,0.5,0.1,0.8c0,0.3-0.1,0.5-0.2,0.8c-0.2,0.5-0.6,0.9-1.1,1.2c-0.5,0.3-1.1,0.3-1.7,0.1c-0.3-0.1-0.5-0.3-0.7-0.5
				c-0.2-0.2-0.4-0.5-0.5-0.9c-0.1-0.3-0.1-0.7-0.1-1c0-0.3,0.1-0.6,0.3-0.9C148.7,723,149.1,722.6,149.7,722.5z"/>
			<path class="st1" d="M150.2,727.4c-0.3,0-0.7-0.1-1-0.2c-0.3-0.1-0.6-0.4-0.9-0.7c-0.3-0.3-0.5-0.7-0.6-1
				c-0.1-0.4-0.2-0.8-0.1-1.2c0-0.3,0.1-0.7,0.3-1.1c0.4-0.7,1-1.1,1.7-1.2l0,0c0.7-0.1,1.4,0,2,0.4c0.3,0.2,0.5,0.4,0.7,0.6
				c0.2,0.3,0.4,0.5,0.5,0.8c0.1,0.2,0.2,0.6,0.1,0.9c0,0.3-0.1,0.6-0.2,0.9c-0.3,0.6-0.8,1.2-1.4,1.5
				C151,727.3,150.6,727.4,150.2,727.4z M150.1,723c-0.1,0-0.2,0-0.3,0h0c-0.5,0.1-0.8,0.3-1.1,0.7c-0.1,0.2-0.2,0.5-0.2,0.7
				c0,0.3,0,0.6,0.1,0.8c0.1,0.2,0.2,0.4,0.4,0.7c0.2,0.2,0.4,0.3,0.6,0.4c0.4,0.2,0.9,0.2,1.3,0c0.4-0.2,0.7-0.6,0.9-1
				c0.1-0.2,0.1-0.4,0.2-0.6c0-0.2,0-0.3-0.1-0.6c-0.1-0.2-0.1-0.3-0.3-0.5c-0.1-0.1-0.3-0.3-0.5-0.4
				C150.8,723.1,150.5,723,150.1,723z"/>
		</g>
	</g>
	<g>
		<path class="st0" d="M446.6,715.3c0-1.2-0.1-2.3-0.4-3.5c-1.2-11.6-16.7-22.3-44-30.4c-28-8.3-65.3-12.8-105-12.8
			c-3.7,0-7.5,0-11.1,0.1l0,0l0,0c-35.4,0.8-68.4,5.2-93.8,12.7c-28.4,8.4-44.1,19.7-44.1,31.9c0,1.1,0.1,2.2,0.4,3.2
			c0,0.2,0,0.5,0,0.7c0,12.2,15.7,23.5,44.1,31.9c28,8.3,65.3,12.8,105,12.8s76.9-4.6,105-12.8c28.4-8.4,44.1-19.7,44.1-31.9
			c0-0.3,0-0.6,0-1C446.6,715.9,446.6,715.6,446.6,715.3z M433,729.4c-7.4,5.1-17.9,9.8-31.4,13.7c-27.9,8.2-64.9,12.7-104.4,12.7
			s-76.5-4.5-104.4-12.7c-13.5-4-24.1-8.6-31.4-13.7c-6-4.2-9.6-8.5-10.8-13c0-0.1,0-0.1,0-0.2c0.4-5.2,4.2-10.3,11.2-15.2
			c7.4-5.1,17.9-9.8,31.4-13.7c27.9-8.2,64.9-12.7,104.4-12.7s76.5,4.5,104.4,12.7c13.5,4,24.1,8.6,31.4,13.7
			c6,4.2,9.7,8.6,10.8,13.1C443.8,719.4,440.1,724.5,433,729.4z"/>
		<path class="st1" d="M297.6,762.4c-39.7,0-77-4.6-105.1-12.9c-28.6-8.5-44.4-19.9-44.4-32.3c0-0.2,0-0.4,0-0.7
			c-0.2-1.1-0.4-2.2-0.4-3.3c0-12.4,15.8-23.9,44.4-32.3c25.2-7.4,58.5-11.9,93.8-12.7l0.1,0c3.7-0.1,7.4-0.1,11.2-0.1
			c39.7,0,77,4.6,105.1,12.8c27.3,8.1,43.1,19,44.3,30.8c0.3,1.2,0.4,2.4,0.4,3.6c0,0.3,0,0.6,0,1c0,0.3,0,0.7,0,1
			c0,12.4-15.8,23.9-44.4,32.3C374.6,757.8,337.3,762.4,297.6,762.4z M297.2,669.1c-3.7,0-7.4,0-11.1,0.1
			c-35.3,0.8-68.5,5.3-93.7,12.7c-28.2,8.3-43.7,19.5-43.7,31.4c0,1,0.1,2.1,0.4,3.1l0,0.1l0,0.1c0,0.2,0,0.4,0,0.7
			c0,11.9,15.5,23.1,43.7,31.4c28,8.3,65.2,12.8,104.8,12.8s76.8-4.6,104.8-12.8c28.2-8.3,43.7-19.5,43.7-31.4c0-0.3,0-0.6,0-0.9
			l0,0l0,0c0-0.3,0-0.6,0-0.9c0-1.1-0.1-2.3-0.4-3.4l0-0.1c-1.2-11.4-16.7-22-43.7-30C374,673.6,336.8,669.1,297.2,669.1z
			 M297.2,756.4c-39.5,0-76.6-4.5-104.5-12.8c-13.5-4-24.2-8.6-31.6-13.8c-6.1-4.2-9.8-8.7-11-13.3l0-0.1l0-0.2l0,0
			c0.4-5.4,4.3-10.6,11.4-15.5c7.4-5.2,18-9.8,31.6-13.8c27.9-8.2,65-12.8,104.5-12.8c39.5,0,76.6,4.5,104.5,12.8
			c13.5,4,24.2,8.6,31.6,13.8c6.1,4.3,9.8,8.8,11,13.3l0,0.1l0,0.1c-0.4,5.4-4.2,10.7-11.4,15.7c-7.4,5.2-18,9.8-31.6,13.8
			C373.8,751.9,336.7,756.4,297.2,756.4z M151.1,716.4c1.1,4.3,4.7,8.6,10.6,12.7c7.3,5.1,17.9,9.7,31.3,13.7
			c27.8,8.2,64.8,12.7,104.2,12.7c39.4,0,76.4-4.5,104.2-12.7c13.4-4,24-8.6,31.3-13.7l0,0c6.9-4.8,10.6-9.8,11-14.9
			c-1.1-4.3-4.7-8.6-10.6-12.7c-7.3-5.1-17.9-9.7-31.3-13.7c-27.8-8.2-64.8-12.7-104.2-12.7c-39.4,0-76.4,4.5-104.2,12.7
			c-13.4,4-24,8.6-31.3,13.7c-6.8,4.8-10.5,9.8-11,14.8L151.1,716.4z"/>
	</g>
	<g>
		<g>
			<path class="st0" d="M444.9,724.7c-0.6-0.2-1-0.6-1.3-1c-0.1-0.1-0.1-0.2-0.2-0.3c0-0.1-0.1-0.2-0.1-0.4c-0.1-0.2-0.1-0.5,0-0.7
				c0.1-0.5,0.4-0.9,0.8-1.3c0.4-0.3,1-0.6,1.6-0.6c0.6,0,1.1,0.3,1.5,0.7c0.4,0.5,0.6,1.1,0.5,1.8c-0.1,0.3-0.2,0.7-0.4,0.9
				c-0.1,0.1-0.2,0.3-0.3,0.4c-0.1,0.1-0.2,0.2-0.4,0.3C446,724.8,445.4,724.8,444.9,724.7z"/>
			<path class="st1" d="M445.5,725.2c-0.3,0-0.5,0-0.8-0.1l0,0c-0.6-0.2-1.2-0.7-1.6-1.2c-0.1-0.1-0.2-0.3-0.2-0.4
				c0-0.1-0.1-0.3-0.1-0.4c-0.1-0.3-0.1-0.6,0-0.9c0.1-0.5,0.4-1.1,0.9-1.5c0.6-0.4,1.2-0.7,1.9-0.7c0,0,0,0,0,0
				c0.7,0,1.4,0.3,1.9,0.9c0.5,0.5,0.7,1.4,0.6,2.2c-0.1,0.4-0.2,0.8-0.4,1.1c-0.1,0.2-0.2,0.3-0.4,0.5c-0.1,0.1-0.3,0.2-0.4,0.3
				C446.4,725.1,446,725.2,445.5,725.2z M445,724.2c0.4,0.1,0.9,0.1,1.3-0.1c0.1-0.1,0.2-0.1,0.3-0.2c0.1-0.1,0.1-0.2,0.2-0.3
				c0.2-0.2,0.3-0.5,0.3-0.8c0.1-0.6-0.1-1.1-0.4-1.4c-0.3-0.4-0.7-0.6-1.2-0.6c0,0,0,0,0,0c-0.4,0-0.9,0.2-1.3,0.5
				c-0.4,0.3-0.6,0.6-0.6,0.9c0,0.2,0,0.4,0,0.6c0,0.1,0.1,0.2,0.1,0.3c0,0.1,0.1,0.2,0.1,0.3C444.2,723.8,444.6,724.1,445,724.2
				L445,724.2z"/>
		</g>
	</g>
	<g>
		<g>
			<path class="st0" d="M442.9,728.6c-0.5-0.3-0.8-0.8-1-1.3c-0.1-0.3-0.1-0.5-0.1-0.8c0-0.3,0.1-0.5,0.2-0.7
				c0.1-0.2,0.3-0.4,0.5-0.6c0.2-0.2,0.4-0.3,0.7-0.4c0.3-0.1,0.5-0.2,0.8-0.2c0.3,0,0.6,0,0.9,0.1c0.3,0.1,0.5,0.2,0.8,0.4
				c0.2,0.2,0.4,0.4,0.5,0.7c0.1,0.3,0.2,0.6,0.2,0.9c0,0.3-0.1,0.6-0.3,0.9c-0.1,0.3-0.4,0.6-0.6,0.8c-0.2,0.2-0.5,0.3-0.8,0.4
				C444,729,443.4,728.9,442.9,728.6z"/>
			<path class="st1" d="M444.1,729.4c-0.5,0-1-0.1-1.4-0.4l0,0c-0.6-0.4-1-1-1.2-1.6c-0.1-0.3-0.1-0.6-0.1-0.9
				c0-0.3,0.1-0.6,0.2-0.9c0.1-0.3,0.4-0.6,0.6-0.8c0.2-0.2,0.5-0.4,0.8-0.5c0.3-0.1,0.6-0.2,1-0.2c0.4,0,0.7,0,1,0.1
				c0.4,0.1,0.7,0.3,0.9,0.6c0.3,0.2,0.5,0.5,0.6,0.9c0.1,0.3,0.2,0.7,0.2,1.1c0,0.4-0.1,0.8-0.3,1.1c-0.1,0.3-0.4,0.6-0.7,0.9
				c-0.3,0.2-0.6,0.4-1,0.5C444.5,729.4,444.3,729.4,444.1,729.4z M443.2,728.2c0.4,0.3,0.8,0.3,1.3,0.2c0.2-0.1,0.4-0.2,0.6-0.3
				c0.2-0.2,0.4-0.4,0.5-0.6c0.1-0.3,0.2-0.5,0.2-0.8c0-0.2,0-0.5-0.1-0.7c-0.1-0.2-0.2-0.4-0.4-0.5c-0.2-0.1-0.4-0.3-0.6-0.3
				c-0.2-0.1-0.4-0.1-0.7-0.1c-0.2,0-0.5,0.1-0.7,0.1c-0.2,0.1-0.4,0.2-0.5,0.3c-0.2,0.1-0.3,0.3-0.4,0.5c-0.1,0.2-0.1,0.4-0.2,0.6
				c0,0.2,0,0.4,0.1,0.6C442.5,727.6,442.8,728,443.2,728.2z"/>
		</g>
	</g>
	<g>
		<g>
			<path class="st0" d="M440.2,732c-0.4-0.4-0.7-1-0.7-1.5c0-0.5,0.1-1.1,0.4-1.5c0.2-0.2,0.4-0.4,0.6-0.5c0.2-0.1,0.5-0.2,0.8-0.2
				c0.5-0.1,1.1,0,1.6,0.3c0.5,0.3,0.8,0.8,0.9,1.4c0.1,0.6-0.1,1.2-0.5,1.7c-0.4,0.5-1,0.8-1.6,0.9
				C441.2,732.7,440.6,732.5,440.2,732z"/>
			<path class="st1" d="M441.6,733.1c-0.6,0-1.3-0.2-1.7-0.7c-0.5-0.5-0.8-1.1-0.9-1.8c0-0.7,0.2-1.4,0.6-1.9
				c0.2-0.2,0.4-0.5,0.8-0.6c0.3-0.2,0.6-0.3,0.9-0.3c0.7-0.1,1.4,0,1.9,0.4c0.6,0.4,1,1,1.1,1.8c0.1,0.8-0.1,1.5-0.6,2.1
				c-0.5,0.6-1.2,1-1.9,1C441.7,733.1,441.7,733.1,441.6,733.1z M441.7,728.7c-0.1,0-0.2,0-0.3,0c-0.2,0-0.4,0.1-0.6,0.2
				c-0.2,0.1-0.3,0.2-0.5,0.4c-0.3,0.4-0.3,0.8-0.3,1.2c0,0.5,0.2,0.9,0.6,1.2c0.3,0.3,0.8,0.5,1.2,0.4c0.5,0,0.9-0.3,1.2-0.7
				c0.3-0.4,0.4-0.9,0.4-1.4c-0.1-0.4-0.3-0.8-0.7-1.1C442.4,728.8,442,728.7,441.7,728.7z"/>
		</g>
	</g>
	<g>
		<g>
			<path class="st0" d="M437,735c-0.4-0.5-0.5-1-0.5-1.6c0-0.5,0.3-1.1,0.7-1.5c0.1-0.1,0.2-0.2,0.3-0.2c0.1-0.1,0.2-0.1,0.4-0.2
				c0.3-0.1,0.5-0.1,0.8-0.1c0.6,0,1.1,0.2,1.6,0.6c0.4,0.4,0.7,1,0.7,1.6c0,0.3-0.1,0.6-0.2,0.9c-0.1,0.1-0.1,0.3-0.2,0.4
				c-0.1,0.1-0.2,0.2-0.3,0.4c-0.5,0.4-1.1,0.6-1.7,0.6C437.9,735.8,437.4,735.5,437,735z"/>
			<path class="st1" d="M438.6,736.3c-0.1,0-0.1,0-0.2,0c-0.7,0-1.4-0.4-1.8-0.9c-0.4-0.5-0.7-1.2-0.6-1.9c0.1-0.7,0.4-1.4,0.8-1.8
				c0.1-0.1,0.3-0.2,0.4-0.3c0.1-0.1,0.3-0.2,0.4-0.2c0.3-0.1,0.6-0.2,1-0.2c0.7,0,1.4,0.3,1.9,0.8c0.5,0.5,0.8,1.2,0.8,1.9
				c0,0.3-0.1,0.7-0.2,1c-0.1,0.2-0.2,0.3-0.3,0.5c-0.1,0.2-0.2,0.3-0.4,0.4C439.9,736,439.3,736.3,438.6,736.3z M438.6,731.9
				c-0.2,0-0.4,0-0.6,0.1c-0.1,0-0.2,0.1-0.3,0.1c-0.1,0.1-0.2,0.1-0.3,0.2c-0.3,0.3-0.5,0.7-0.5,1.1c0,0.5,0.1,0.9,0.4,1.3
				c0.3,0.4,0.7,0.6,1.2,0.6c0.5,0,0.9-0.1,1.3-0.5c0.1-0.1,0.2-0.2,0.3-0.3c0.1-0.1,0.1-0.2,0.2-0.3c0.1-0.2,0.1-0.4,0.2-0.7
				c0-0.4-0.2-0.9-0.5-1.2C439.5,732,439,731.9,438.6,731.9C438.6,731.9,438.6,731.9,438.6,731.9z"/>
		</g>
	</g>
	<g>
		<g>
			<path class="st0" d="M433.4,737.7c-0.3-0.5-0.4-1.1-0.4-1.6c0.1-0.6,0.4-1.1,0.8-1.4c0.5-0.3,1-0.5,1.6-0.4
				c0.6,0.1,1.1,0.3,1.5,0.8c0.4,0.5,0.5,1.1,0.5,1.6c-0.1,0.6-0.4,1.1-0.9,1.5c-0.5,0.4-1.1,0.5-1.7,0.4
				C434.3,738.5,433.8,738.2,433.4,737.7z"/>
			<path class="st1" d="M435.2,739.1c-0.1,0-0.3,0-0.4,0c-0.7-0.1-1.3-0.5-1.7-1.1l0,0c-0.4-0.6-0.5-1.3-0.4-2
				c0.1-0.7,0.5-1.3,1-1.7c0.5-0.4,1.2-0.6,1.9-0.5c0.7,0.1,1.3,0.4,1.8,1c0.5,0.6,0.7,1.3,0.6,2c-0.1,0.7-0.5,1.4-1.1,1.8
				C436.3,738.9,435.8,739.1,435.2,739.1z M433.8,737.4c0.3,0.4,0.7,0.6,1.1,0.7c0.4,0.1,0.9-0.1,1.3-0.3c0.4-0.3,0.6-0.7,0.7-1.2
				c0.1-0.4-0.1-0.9-0.4-1.3c-0.4-0.4-0.8-0.6-1.2-0.6c-0.5-0.1-0.9,0-1.2,0.3c-0.4,0.3-0.6,0.6-0.7,1.1
				C433.5,736.6,433.6,737,433.8,737.4L433.8,737.4z"/>
		</g>
	</g>
	<g>
		<g>
			<path class="st0" d="M429.7,740c-0.3-0.5-0.4-1.1-0.2-1.7c0.1-0.5,0.5-1,1-1.3c1-0.6,2.3-0.3,3,0.7c0.7,1,0.4,2.4-0.7,3.1
				c-0.5,0.3-1.1,0.4-1.7,0.3C430.5,740.9,430,740.5,429.7,740z"/>
			<path class="st1" d="M431.6,741.6c-0.2,0-0.4,0-0.6-0.1c-0.7-0.2-1.3-0.6-1.6-1.2c-0.4-0.6-0.5-1.3-0.3-2
				c0.2-0.7,0.6-1.2,1.2-1.6c1.2-0.8,2.8-0.4,3.7,0.8c0.4,0.6,0.5,1.3,0.4,2c-0.2,0.7-0.6,1.3-1.2,1.7
				C432.6,741.4,432.1,741.6,431.6,741.6z M431.6,737.2c-0.3,0-0.6,0.1-0.9,0.3c-0.4,0.2-0.6,0.6-0.7,1c-0.1,0.4,0,0.9,0.2,1.3
				c0.2,0.4,0.6,0.7,1.1,0.8c0.5,0.1,0.9,0,1.3-0.2c0.4-0.3,0.7-0.7,0.8-1.1c0.1-0.5,0-0.9-0.3-1.3
				C432.7,737.4,432.1,737.2,431.6,737.2z"/>
		</g>
	</g>
	<g>
		<g>
			<path class="st0" d="M425.8,742.1c-0.5-1.1-0.1-2.4,0.9-3c1-0.6,2.4-0.2,3,0.8c0.6,1.1,0.2,2.4-0.9,3
				C427.7,743.6,426.4,743.2,425.8,742.1z"/>
			<path class="st1" d="M427.8,743.8c-0.3,0-0.5,0-0.8-0.1c-0.7-0.2-1.2-0.7-1.5-1.3l0,0c-0.7-1.3-0.2-2.9,1.1-3.6
				c1.2-0.7,2.9-0.2,3.6,1c0.4,0.6,0.5,1.3,0.3,2c-0.2,0.7-0.7,1.3-1.3,1.7C428.7,743.7,428.2,743.8,427.8,743.8z M426.3,741.9
				c0.2,0.4,0.5,0.7,1,0.8c0.5,0.1,0.9,0.1,1.4-0.1c0.4-0.2,0.7-0.6,0.9-1.1c0.1-0.4,0.1-0.9-0.2-1.3c-0.5-0.8-1.5-1.1-2.3-0.7
				C426.2,740,425.8,741.1,426.3,741.9L426.3,741.9z"/>
		</g>
	</g>
	<g>
		<g>
			<path class="st0" d="M421.9,744c-0.5-1.1,0-2.4,1-2.9c1.1-0.5,2.4-0.1,2.9,1c0.6,1.1,0.1,2.4-1,3
				C423.7,745.6,422.4,745.2,421.9,744z"/>
			<path class="st1" d="M423.8,745.8c-0.3,0-0.6-0.1-0.9-0.2c-0.7-0.2-1.2-0.7-1.5-1.4l0,0c-0.6-1.3,0-2.9,1.3-3.5
				c1.3-0.6,2.9-0.1,3.6,1.2c0.3,0.6,0.4,1.3,0.2,2c-0.2,0.7-0.7,1.3-1.4,1.6C424.7,745.7,424.2,745.8,423.8,745.8z M423.9,741.4
				c-0.2,0-0.5,0.1-0.7,0.2c-0.8,0.4-1.2,1.4-0.8,2.3l0,0c0.2,0.4,0.5,0.7,0.9,0.9c0.4,0.2,0.9,0.1,1.4-0.1c0.4-0.2,0.8-0.6,0.9-1
				c0.1-0.4,0.1-0.9-0.1-1.3C425.1,741.7,424.5,741.4,423.9,741.4z"/>
		</g>
	</g>
	<g>
		<g>
			<path class="st0" d="M417.8,745.8c-0.2-0.6-0.2-1.2,0-1.7c0.2-0.5,0.6-1,1.2-1.2c1.1-0.5,2.4,0,2.9,1.1c0.5,1.1,0,2.4-1.1,2.9
				c-0.6,0.2-1.2,0.2-1.7,0C418.5,746.8,418.1,746.3,417.8,745.8z"/>
			<path class="st1" d="M419.8,747.6c-0.3,0-0.7-0.1-1-0.2c-0.7-0.3-1.2-0.8-1.5-1.5l0,0c-0.3-0.7-0.3-1.4,0-2
				c0.3-0.7,0.8-1.2,1.4-1.5c1.3-0.6,2.9,0,3.5,1.4c0.3,0.6,0.3,1.4,0.1,2c-0.3,0.7-0.8,1.2-1.5,1.5
				C420.6,747.5,420.2,747.6,419.8,747.6z M418.3,745.6c0.2,0.4,0.5,0.8,0.9,0.9c0.4,0.2,0.9,0.2,1.3,0c0.4-0.2,0.8-0.5,0.9-1
				c0.2-0.4,0.2-0.9,0-1.3c-0.4-0.9-1.4-1.3-2.3-0.9c-0.4,0.2-0.7,0.5-0.9,0.9C418.1,744.7,418.1,745.2,418.3,745.6L418.3,745.6z"/>
		</g>
	</g>
	<g>
		<g>
			<path class="st0" d="M413.7,747.4c-0.4-1.1,0.1-2.4,1.3-2.8c1.1-0.4,2.4,0.1,2.8,1.2c0.5,1.1-0.1,2.4-1.2,2.9
				C415.4,749.1,414.1,748.5,413.7,747.4z"/>
			<path class="st1" d="M415.8,749.3c-0.4,0-0.8-0.1-1.1-0.2c-0.6-0.3-1.1-0.8-1.4-1.5c-0.5-1.4,0.2-2.9,1.5-3.4
				c1.3-0.5,2.9,0.1,3.5,1.5c0.3,0.7,0.3,1.4,0,2c-0.3,0.7-0.8,1.2-1.5,1.4C416.4,749.2,416.1,749.3,415.8,749.3z M415.8,744.9
				c-0.2,0-0.4,0-0.6,0.1c-0.9,0.3-1.3,1.3-1,2.2l0,0c0.2,0.4,0.5,0.8,0.9,0.9c0.4,0.2,0.9,0.2,1.4,0c0.4-0.2,0.8-0.5,1-0.9
				c0.2-0.4,0.2-0.9,0-1.3C417.1,745.3,416.5,744.9,415.8,744.9z"/>
		</g>
	</g>
	<g>
		<g>
			<path class="st0" d="M409.6,748.9c-0.4-1.1,0.2-2.4,1.3-2.8c1.1-0.4,2.4,0.2,2.8,1.3c0.4,1.1-0.2,2.4-1.3,2.8
				C411.2,750.6,410,750,409.6,748.9z"/>
			<path class="st1" d="M411.6,750.8c-0.4,0-0.8-0.1-1.2-0.3c-0.6-0.3-1.1-0.9-1.3-1.5c-0.5-1.4,0.3-2.9,1.6-3.4
				c1.4-0.5,2.9,0.2,3.4,1.6c0.2,0.7,0.2,1.4-0.1,2c-0.3,0.7-0.9,1.2-1.5,1.4C412.3,750.8,411.9,750.8,411.6,750.8z M411.7,746.4
				c-0.2,0-0.4,0-0.6,0.1c-0.9,0.3-1.4,1.3-1.1,2.2c0.1,0.4,0.4,0.8,0.9,1c0.4,0.2,0.9,0.2,1.4,0.1c0.4-0.2,0.8-0.5,1-0.9
				c0.2-0.4,0.2-0.9,0-1.3C413,746.9,412.4,746.4,411.7,746.4z"/>
		</g>
	</g>
	<g>
		<g>
			<path class="st0" d="M405.4,750.2c-0.4-1.2,0.3-2.4,1.4-2.8c1.1-0.4,2.4,0.2,2.8,1.4c0.4,1.1-0.2,2.4-1.4,2.8
				C407,752,405.7,751.4,405.4,750.2z"/>
			<path class="st1" d="M407.5,752.2c-0.4,0-0.8-0.1-1.2-0.3c-0.6-0.3-1.1-0.9-1.3-1.6c-0.4-1.4,0.3-2.9,1.7-3.4
				c1.4-0.5,2.9,0.3,3.4,1.7c0.2,0.7,0.2,1.4-0.1,2c-0.3,0.6-0.9,1.1-1.6,1.4C408,752.2,407.8,752.2,407.5,752.2z M407.5,747.8
				c-0.2,0-0.4,0-0.5,0.1c-0.9,0.3-1.4,1.3-1.1,2.2v0c0.1,0.4,0.4,0.8,0.8,1c0.4,0.2,0.9,0.3,1.3,0.1c0.5-0.1,0.8-0.5,1-0.9
				c0.2-0.4,0.2-0.9,0.1-1.3C408.9,748.3,408.2,747.8,407.5,747.8z"/>
		</g>
	</g>
	<g>
		<g>
			<path class="st0" d="M401.2,751.5c-0.3-1.2,0.3-2.4,1.5-2.7c0.6-0.2,1.2-0.1,1.7,0.2c0.5,0.3,0.9,0.7,1.1,1.3
				c0.2,0.6,0.1,1.2-0.2,1.7c-0.3,0.5-0.7,0.9-1.3,1.1C402.7,753.4,401.5,752.7,401.2,751.5z"/>
			<path class="st1" d="M403.3,753.6c-0.4,0-0.9-0.1-1.3-0.3c-0.6-0.3-1.1-0.9-1.3-1.6v0c-0.4-1.4,0.4-2.9,1.8-3.3
				c0.7-0.2,1.4-0.1,2,0.2c0.6,0.3,1.1,0.9,1.3,1.6c0.2,0.7,0.1,1.4-0.2,2c-0.3,0.6-0.9,1.1-1.6,1.3
				C403.8,753.5,403.5,753.6,403.3,753.6z M401.6,751.4c0.1,0.4,0.4,0.8,0.8,1c0.4,0.2,0.9,0.3,1.3,0.1c0.5-0.1,0.8-0.4,1-0.8
				c0.2-0.4,0.3-0.9,0.1-1.3c-0.1-0.4-0.4-0.8-0.8-1c-0.4-0.2-0.9-0.3-1.3-0.1C401.9,749.5,401.4,750.5,401.6,751.4L401.6,751.4z"/>
		</g>
	</g>
	<g>
		<g>
			<path class="st0" d="M396.9,752.7c-0.3-1.2,0.4-2.4,1.5-2.7c1.2-0.3,2.4,0.3,2.7,1.5c0.3,1.2-0.3,2.4-1.5,2.7
				C398.4,754.6,397.2,753.9,396.9,752.7z"/>
			<path class="st1" d="M399,754.8c-0.5,0-0.9-0.1-1.3-0.4c-0.6-0.4-1.1-0.9-1.2-1.6l0,0c-0.4-1.4,0.5-2.9,1.9-3.3
				c1.4-0.4,2.9,0.4,3.3,1.8c0.2,0.7,0.1,1.4-0.2,2c-0.4,0.6-0.9,1.1-1.6,1.3C399.5,754.8,399.3,754.8,399,754.8z M399.1,750.4
				c-0.2,0-0.3,0-0.5,0.1c-0.9,0.2-1.4,1.2-1.2,2.1l0,0c0.1,0.4,0.4,0.8,0.8,1c0.4,0.2,0.9,0.3,1.3,0.2c0.4-0.1,0.8-0.4,1-0.8
				c0.2-0.4,0.3-0.9,0.2-1.3C400.5,750.9,399.8,750.4,399.1,750.4z"/>
		</g>
	</g>
	<g>
		<g>
			<path class="st0" d="M392.7,753.8c-0.3-1.2,0.4-2.4,1.6-2.7c1.2-0.3,2.4,0.4,2.7,1.6c0.3,1.2-0.4,2.4-1.6,2.7
				C394.1,755.7,392.9,755,392.7,753.8z"/>
			<path class="st1" d="M394.8,755.9c-0.5,0-1-0.1-1.4-0.4c-0.6-0.4-1-1-1.2-1.6c-0.4-1.4,0.5-2.9,1.9-3.2c1.4-0.4,2.9,0.5,3.3,1.9
				c0.2,0.7,0.1,1.4-0.3,2c-0.4,0.6-1,1.1-1.7,1.3C395.2,755.9,395,755.9,394.8,755.9z M394.8,751.5c-0.1,0-0.3,0-0.4,0.1
				c-0.9,0.2-1.5,1.2-1.2,2.1l0,0c0.1,0.4,0.4,0.8,0.8,1.1c0.4,0.2,0.9,0.3,1.3,0.2c0.5-0.1,0.8-0.4,1.1-0.8
				c0.2-0.4,0.3-0.9,0.2-1.3C396.3,752,395.6,751.5,394.8,751.5z"/>
		</g>
	</g>
	<g>
		<g>
			<path class="st0" d="M388.4,754.8c-0.3-1.2,0.5-2.4,1.6-2.6c1.2-0.3,2.4,0.4,2.7,1.6c0.3,1.2-0.4,2.4-1.6,2.7
				C389.8,756.7,388.6,756,388.4,754.8z"/>
			<path class="st1" d="M390.5,757c-0.5,0-1-0.1-1.4-0.4c-0.6-0.4-1-1-1.2-1.7l0,0c-0.3-1.4,0.6-2.9,2-3.2c1.4-0.3,2.9,0.5,3.2,2
				c0.2,0.7,0.1,1.4-0.3,2c-0.4,0.6-1,1-1.7,1.2C390.9,757,390.7,757,390.5,757z M388.8,754.7c0.1,0.4,0.4,0.8,0.8,1.1
				c0.4,0.2,0.9,0.3,1.3,0.2c0.5-0.1,0.8-0.4,1.1-0.8c0.2-0.4,0.3-0.9,0.2-1.3c-0.2-0.9-1.2-1.5-2.1-1.3
				C389.2,752.9,388.6,753.8,388.8,754.7L388.8,754.7z"/>
		</g>
	</g>
	<g>
		<g>
			<path class="st0" d="M384.1,755.8c-0.3-1.2,0.5-2.4,1.7-2.6c1.2-0.3,2.3,0.5,2.6,1.7c0.3,1.2-0.5,2.4-1.7,2.6
				C385.5,757.7,384.3,756.9,384.1,755.8z"/>
			<path class="st1" d="M386.2,758c-0.5,0-1-0.1-1.5-0.4c-0.6-0.4-1-1-1.2-1.7l0,0c-0.3-1.4,0.6-2.9,2-3.2c1.4-0.3,2.9,0.6,3.2,2
				c0.2,0.7,0,1.4-0.3,2c-0.4,0.6-1,1-1.7,1.2C386.6,757.9,386.4,758,386.2,758z M384.5,755.7c0.1,0.4,0.4,0.8,0.7,1.1
				c0.4,0.3,0.9,0.3,1.3,0.2c0.5-0.1,0.8-0.4,1.1-0.8c0.2-0.4,0.3-0.8,0.2-1.3c-0.2-0.9-1.1-1.5-2.1-1.3
				C384.9,753.8,384.3,754.7,384.5,755.7L384.5,755.7z"/>
		</g>
	</g>
	<g>
		<g>
			<path class="st0" d="M379.7,756.6c-0.2-1.2,0.5-2.3,1.7-2.6c1.2-0.2,2.3,0.5,2.6,1.7c0.3,1.2-0.5,2.4-1.7,2.6
				C381.1,758.6,380,757.8,379.7,756.6z"/>
			<path class="st1" d="M381.9,758.9c-0.5,0-1-0.2-1.5-0.4c-0.6-0.4-1-1-1.1-1.7l0,0c-0.3-1.4,0.7-2.8,2.1-3.1
				c1.4-0.3,2.9,0.6,3.2,2.1c0.1,0.7,0,1.4-0.4,2c-0.4,0.6-1,1-1.7,1.2C382.3,758.9,382.1,758.9,381.9,758.9z M380.2,756.6
				c0.1,0.4,0.3,0.8,0.7,1.1c0.4,0.3,0.9,0.3,1.3,0.3c0.5-0.1,0.9-0.4,1.1-0.7c0.3-0.4,0.3-0.8,0.2-1.3c-0.2-0.9-1.1-1.5-2-1.3
				C380.6,754.7,380,755.6,380.2,756.6L380.2,756.6z"/>
		</g>
	</g>
	<g>
		<g>
			<path class="st0" d="M375.4,757.5c-0.2-1.2,0.6-2.3,1.8-2.6c1.2-0.2,2.3,0.5,2.6,1.7c0.2,1.2-0.5,2.3-1.8,2.6
				C376.8,759.5,375.6,758.7,375.4,757.5z"/>
			<path class="st1" d="M377.6,759.7c-0.5,0-1.1-0.2-1.5-0.5c-0.6-0.4-1-1-1.1-1.7l0,0c-0.3-1.4,0.7-2.8,2.1-3.1
				c1.4-0.3,2.8,0.7,3.1,2.1c0.1,0.7,0,1.4-0.4,2c-0.4,0.6-1,1-1.7,1.1C377.9,759.7,377.7,759.7,377.6,759.7z M375.9,757.4
				c0.1,0.4,0.3,0.8,0.7,1.1c0.4,0.3,0.8,0.4,1.3,0.3c0.5-0.1,0.9-0.4,1.1-0.7c0.3-0.4,0.3-0.8,0.3-1.3c-0.2-0.9-1.1-1.5-2-1.4
				C376.3,755.6,375.7,756.5,375.9,757.4L375.9,757.4z"/>
		</g>
	</g>
	<g>
		<g>
			<path class="st0" d="M371.1,758.2c-0.2-1.2,0.6-2.3,1.8-2.5c1.2-0.2,2.3,0.6,2.5,1.8c0.2,1.2-0.6,2.3-1.8,2.6
				C372.4,760.2,371.3,759.4,371.1,758.2z"/>
			<path class="st1" d="M373.2,760.5c-0.6,0-1.1-0.2-1.5-0.5c-0.6-0.4-1-1-1.1-1.7l0,0c-0.2-1.5,0.7-2.8,2.2-3.1
				c1.4-0.2,2.8,0.7,3.1,2.2c0.1,0.7,0,1.4-0.4,2c-0.4,0.6-1,1-1.7,1.1C373.6,760.5,373.4,760.5,373.2,760.5z M371.5,758.2
				c0.1,0.4,0.3,0.8,0.7,1.1c0.4,0.3,0.8,0.4,1.3,0.3c0.5-0.1,0.9-0.3,1.1-0.7c0.3-0.4,0.4-0.8,0.3-1.3c-0.2-0.9-1.1-1.6-2-1.4
				C372,756.3,371.4,757.2,371.5,758.2L371.5,758.2z"/>
		</g>
	</g>
	<g>
		<g>
			<path class="st0" d="M366.7,758.9c-0.2-1.2,0.6-2.3,1.8-2.5c1.2-0.2,2.3,0.6,2.5,1.8c0.2,1.2-0.6,2.3-1.8,2.5
				C368,761,366.9,760.1,366.7,758.9z"/>
			<path class="st1" d="M368.9,761.3c-0.6,0-1.1-0.2-1.6-0.5c-0.6-0.4-1-1-1.1-1.8l0,0c-0.2-1.4,0.8-2.8,2.2-3.1
				c1.5-0.2,2.8,0.7,3.1,2.2c0.1,0.7,0,1.4-0.5,2c-0.4,0.6-1,1-1.8,1.1C369.2,761.3,369,761.3,368.9,761.3z M367.2,758.9
				c0.1,0.5,0.3,0.9,0.7,1.1c0.4,0.3,0.8,0.4,1.3,0.3c0.5-0.1,0.9-0.3,1.1-0.7c0.3-0.4,0.4-0.8,0.3-1.3c-0.2-0.9-1-1.6-2-1.4
				C367.7,757.1,367.1,757.9,367.2,758.9L367.2,758.9z"/>
		</g>
	</g>
	<g>
		<g>
			<path class="st0" d="M362.4,759.6c-0.2-1.2,0.7-2.3,1.9-2.5c1.2-0.2,2.3,0.6,2.5,1.8c0.2,1.2-0.6,2.3-1.9,2.5
				C363.7,761.6,362.5,760.8,362.4,759.6z"/>
			<path class="st1" d="M364.5,761.9c-0.6,0-1.1-0.2-1.6-0.5c-0.6-0.4-0.9-1-1-1.8l0,0c-0.2-1.5,0.8-2.8,2.3-3
				c1.5-0.2,2.8,0.8,3,2.2c0.1,0.7-0.1,1.4-0.5,2c-0.4,0.6-1.1,1-1.8,1.1C364.8,761.9,364.7,761.9,364.5,761.9z M362.8,759.5
				c0.1,0.5,0.3,0.9,0.7,1.1c0.4,0.3,0.8,0.4,1.3,0.3c0.5-0.1,0.9-0.3,1.1-0.7c0.3-0.4,0.4-0.8,0.3-1.3c-0.1-0.9-1-1.6-2-1.4
				C363.4,757.7,362.7,758.6,362.8,759.5L362.8,759.5z"/>
		</g>
	</g>
	<g>
		<g>
			<path class="st0" d="M358,760.2c-0.2-1.2,0.7-2.3,1.9-2.5c1.2-0.2,2.3,0.7,2.5,1.9c0.2,1.2-0.7,2.3-1.9,2.5
				C359.3,762.2,358.2,761.4,358,760.2z"/>
			<path class="st1" d="M360.2,762.6c-0.6,0-1.1-0.2-1.6-0.5c-0.6-0.4-0.9-1.1-1-1.8v0c-0.2-1.5,0.8-2.8,2.3-3
				c1.5-0.2,2.8,0.8,3,2.3c0.1,0.7-0.1,1.4-0.5,2c-0.4,0.6-1.1,0.9-1.8,1C360.4,762.6,360.3,762.6,360.2,762.6z M360.2,758.2
				c-0.1,0-0.2,0-0.2,0c-0.9,0.1-1.6,1-1.5,1.9v0c0.1,0.5,0.3,0.9,0.7,1.1c0.4,0.3,0.8,0.4,1.3,0.3c0.5-0.1,0.9-0.3,1.1-0.7
				c0.3-0.4,0.4-0.8,0.3-1.3C361.8,758.8,361,758.2,360.2,758.2z"/>
		</g>
	</g>
	<g>
		<g>
			<path class="st0" d="M353.6,760.7c-0.1-1.2,0.7-2.3,1.9-2.4c1.2-0.2,2.3,0.7,2.5,1.9c0.2,1.2-0.7,2.3-1.9,2.5
				C354.9,762.8,353.8,761.9,353.6,760.7z"/>
			<path class="st1" d="M355.8,763.2c-0.6,0-1.2-0.2-1.6-0.6c-0.6-0.4-0.9-1.1-1-1.8v0c-0.2-1.5,0.9-2.8,2.3-3
				c1.5-0.2,2.8,0.8,3,2.3c0.1,0.7-0.1,1.4-0.5,2c-0.4,0.6-1.1,0.9-1.8,1C356,763.1,355.9,763.2,355.8,763.2z M355.8,758.8
				c-0.1,0-0.1,0-0.2,0c-0.9,0.1-1.6,1-1.5,1.9v0c0.1,0.5,0.3,0.9,0.6,1.1c0.4,0.3,0.8,0.4,1.3,0.3c0.5-0.1,0.9-0.3,1.2-0.7
				c0.3-0.4,0.4-0.8,0.3-1.3C357.4,759.4,356.7,758.8,355.8,758.8z"/>
		</g>
	</g>
	<g>
		<g>
			<path class="st0" d="M349.3,761.3c-0.1-1.2,0.7-2.3,1.9-2.4c1.2-0.1,2.3,0.7,2.4,1.9c0.1,1.2-0.7,2.3-1.9,2.4
				C350.5,763.3,349.4,762.5,349.3,761.3z"/>
			<path class="st1" d="M351.4,763.7c-0.6,0-1.2-0.2-1.7-0.6c-0.6-0.4-0.9-1.1-1-1.8l0,0c-0.2-1.5,0.9-2.8,2.4-3
				c1.5-0.2,2.8,0.9,3,2.3c0.1,0.7-0.1,1.4-0.6,2c-0.4,0.6-1.1,0.9-1.8,1C351.6,763.7,351.5,763.7,351.4,763.7z M349.7,761.2
				c0,0.5,0.3,0.9,0.6,1.1c0.4,0.3,0.8,0.4,1.3,0.4c0.5-0.1,0.9-0.3,1.2-0.6c0.3-0.4,0.4-0.8,0.4-1.3c-0.1-0.9-1-1.6-1.9-1.5
				C350.3,759.4,349.6,760.3,349.7,761.2L349.7,761.2z"/>
		</g>
	</g>
	<g>
		<g>
			<path class="st0" d="M344.9,761.7c-0.1-1.2,0.8-2.3,2-2.4c1.2-0.1,2.3,0.7,2.4,2c0.1,1.2-0.7,2.3-2,2.4
				C346.1,763.8,345,762.9,344.9,761.7z"/>
			<path class="st1" d="M347.1,764.2c-0.6,0-1.2-0.2-1.7-0.6c-0.6-0.4-0.9-1.1-1-1.8v0c-0.1-1.5,0.9-2.8,2.4-2.9
				c1.5-0.1,2.8,0.9,2.9,2.4c0.1,0.7-0.1,1.4-0.6,2c-0.5,0.6-1.1,0.9-1.8,1C347.2,764.2,347.2,764.2,347.1,764.2z M345.3,761.7
				c0,0.5,0.3,0.9,0.6,1.2c0.4,0.3,0.8,0.4,1.3,0.4c0.5,0,0.9-0.3,1.2-0.6c0.3-0.4,0.4-0.8,0.4-1.3c-0.1-0.9-1-1.6-1.9-1.5
				C345.9,759.9,345.3,760.7,345.3,761.7L345.3,761.7z"/>
		</g>
	</g>
	<g>
		<g>
			<path class="st0" d="M340.5,762.1c-0.1-1.2,0.8-2.3,2-2.4c1.2-0.1,2.3,0.8,2.4,2s-0.8,2.3-2,2.4
				C341.7,764.2,340.6,763.3,340.5,762.1z"/>
			<path class="st1" d="M342.7,764.6c-0.6,0-1.2-0.2-1.7-0.6c-0.6-0.5-0.9-1.1-1-1.8l0,0c-0.1-1.5,1-2.8,2.4-2.9s2.8,0.9,2.9,2.4
				c0.1,0.7-0.1,1.4-0.6,1.9c-0.5,0.6-1.1,0.9-1.8,1C342.8,764.6,342.8,764.6,342.7,764.6z M341,762.1c0,0.5,0.3,0.9,0.6,1.2
				c0.4,0.3,0.8,0.4,1.3,0.4c0.5,0,0.9-0.3,1.2-0.6c0.3-0.4,0.4-0.8,0.4-1.3c-0.1-0.9-0.9-1.6-1.9-1.6
				C341.6,760.3,340.9,761.1,341,762.1L341,762.1z"/>
		</g>
	</g>
	<g>
		<g>
			<path class="st0" d="M336.1,762.5c-0.1-1.2,0.8-2.3,2-2.4c1.2-0.1,2.3,0.8,2.4,2c0.1,1.2-0.8,2.3-2,2.4
				C337.3,764.6,336.2,763.7,336.1,762.5z"/>
			<path class="st1" d="M338.3,765c-0.6,0-1.2-0.2-1.7-0.6c-0.5-0.5-0.9-1.1-0.9-1.8l0,0c-0.1-1.5,1-2.8,2.4-2.9
				c1.5-0.1,2.8,1,2.9,2.4c0.1,0.7-0.2,1.4-0.6,1.9c-0.5,0.6-1.1,0.9-1.8,1C338.4,765,338.4,765,338.3,765z M338.3,760.6
				c0,0-0.1,0-0.2,0c-0.9,0.1-1.7,0.9-1.6,1.9l0,0c0,0.5,0.2,0.9,0.6,1.2c0.4,0.3,0.8,0.4,1.3,0.4c0.5,0,0.9-0.3,1.2-0.6
				c0.3-0.4,0.4-0.8,0.4-1.2C339.9,761.3,339.2,760.6,338.3,760.6z"/>
		</g>
	</g>
	<g>
		<g>
			<path class="st0" d="M331.7,762.8c-0.1-1.2,0.8-2.3,2-2.3c1.2-0.1,2.3,0.8,2.4,2c0.1,1.2-0.8,2.3-2,2.4
				C332.8,764.9,331.8,764,331.7,762.8z"/>
			<path class="st1" d="M333.9,765.3c-0.6,0-1.3-0.2-1.8-0.7c-0.5-0.5-0.9-1.1-0.9-1.8c-0.1-1.5,1-2.8,2.5-2.9
				c1.5-0.1,2.8,1,2.9,2.5c0.1,0.7-0.2,1.4-0.6,1.9c-0.5,0.5-1.1,0.9-1.8,0.9C334,765.3,334,765.3,333.9,765.3z M333.9,760.9
				c0,0-0.1,0-0.1,0c-0.9,0.1-1.7,0.9-1.6,1.8c0,0.5,0.2,0.9,0.6,1.2c0.4,0.3,0.8,0.5,1.3,0.4c0.5,0,0.9-0.2,1.2-0.6
				c0.3-0.4,0.4-0.8,0.4-1.3C335.5,761.6,334.8,760.9,333.9,760.9z"/>
		</g>
	</g>
	<g>
		<g>
			<path class="st0" d="M327.3,763.1c-0.1-1.2,0.8-2.3,2.1-2.3c1.2-0.1,2.3,0.8,2.3,2c0.1,1.2-0.8,2.3-2.1,2.3
				C328.4,765.2,327.4,764.3,327.3,763.1z"/>
			<path class="st1" d="M329.5,765.6c-0.7,0-1.3-0.2-1.8-0.7c-0.5-0.5-0.8-1.1-0.9-1.8c-0.1-1.5,1-2.7,2.5-2.8
				c1.5-0.1,2.7,1,2.8,2.5c0.1,0.7-0.2,1.4-0.7,1.9c-0.5,0.5-1.1,0.9-1.8,0.9C329.6,765.6,329.6,765.6,329.5,765.6z M329.5,761.2
				c0,0-0.1,0-0.1,0c-0.9,0.1-1.7,0.9-1.6,1.8l0,0c0,0.5,0.2,0.9,0.6,1.2c0.3,0.3,0.8,0.5,1.3,0.4c0.5,0,0.9-0.2,1.2-0.6
				c0.3-0.3,0.5-0.8,0.4-1.2C331.2,761.9,330.4,761.2,329.5,761.2z"/>
		</g>
	</g>
	<g>
		<g>
			<path class="st0" d="M322.9,763.4c-0.1-1.2,0.9-2.2,2.1-2.3c1.2-0.1,2.2,0.9,2.3,2.1c0.1,1.2-0.9,2.2-2.1,2.3
				C324,765.5,323,764.6,322.9,763.4z"/>
			<path class="st1" d="M325.1,765.9c-0.7,0-1.3-0.2-1.8-0.7c-0.5-0.5-0.8-1.1-0.9-1.8l0,0c-0.1-1.5,1.1-2.7,2.5-2.8
				c1.5-0.1,2.7,1,2.8,2.5c0,0.7-0.2,1.4-0.7,1.9c-0.5,0.5-1.1,0.9-1.9,0.9C325.2,765.9,325.1,765.9,325.1,765.9z M323.4,763.3
				c0,0.5,0.2,0.9,0.6,1.2c0.3,0.3,0.8,0.5,1.3,0.4c0.5,0,0.9-0.2,1.2-0.6c0.3-0.3,0.5-0.8,0.4-1.2c-0.1-0.9-0.9-1.7-1.8-1.6
				C324.1,761.6,323.3,762.4,323.4,763.3L323.4,763.3z"/>
		</g>
	</g>
	<g>
		<g>
			<path class="st0" d="M318.5,763.6c0-1.2,0.9-2.2,2.1-2.3c1.2-0.1,2.2,0.9,2.3,2.1c0.1,1.2-0.9,2.2-2.1,2.3
				C319.6,765.7,318.6,764.8,318.5,763.6z"/>
			<path class="st1" d="M320.7,766.1c-0.7,0-1.3-0.2-1.8-0.7c-0.5-0.5-0.8-1.1-0.9-1.9l0,0c-0.1-1.5,1.1-2.7,2.6-2.8
				c1.5-0.1,2.7,1.1,2.8,2.5c0,0.7-0.2,1.4-0.7,1.9c-0.5,0.5-1.1,0.8-1.9,0.9C320.8,766.1,320.7,766.1,320.7,766.1z M320.7,761.7
				C320.7,761.7,320.7,761.7,320.7,761.7c-1,0-1.8,0.9-1.7,1.8v0c0,0.5,0.2,0.9,0.6,1.2c0.3,0.3,0.8,0.5,1.2,0.4
				c0.5,0,0.9-0.2,1.2-0.6c0.3-0.3,0.5-0.8,0.4-1.2C322.4,762.5,321.6,761.7,320.7,761.7z"/>
		</g>
	</g>
	<g>
		<g>
			<path class="st0" d="M314.1,763.7c0-1.2,0.9-2.2,2.1-2.3c1.2,0,2.2,0.9,2.3,2.1c0.1,1.2-0.9,2.2-2.1,2.3
				C315.2,765.9,314.1,764.9,314.1,763.7z"/>
			<path class="st1" d="M316.3,766.3c-0.7,0-1.3-0.3-1.8-0.7c-0.5-0.5-0.8-1.1-0.8-1.9c0-1.5,1.1-2.7,2.6-2.8c1.5,0,2.7,1.1,2.8,2.6
				c0,0.7-0.2,1.4-0.7,1.9C317.8,766,317.1,766.3,316.3,766.3C316.4,766.3,316.3,766.3,316.3,766.3z M316.3,761.9
				C316.3,761.9,316.3,761.9,316.3,761.9c-1,0-1.8,0.8-1.7,1.8c0,0.5,0.2,0.9,0.5,1.2c0.3,0.3,0.8,0.5,1.3,0.5
				c0.5,0,0.9-0.2,1.2-0.6c0.3-0.3,0.5-0.8,0.5-1.2C318,762.7,317.2,761.9,316.3,761.9z"/>
		</g>
	</g>
	<g>
		<g>
			<path class="st0" d="M309.7,763.8c0-1.2,0.9-2.2,2.1-2.3c1.2,0,2.2,0.9,2.3,2.1c0,1.2-0.9,2.2-2.1,2.3
				C310.7,766,309.7,765.1,309.7,763.8z"/>
			<path class="st1" d="M311.9,766.5c-0.7,0-1.4-0.3-1.9-0.7c-0.5-0.5-0.8-1.2-0.8-1.9c0-1.5,1.1-2.7,2.6-2.7c1.5,0,2.7,1.1,2.8,2.6
				c0,0.7-0.2,1.4-0.7,1.9C313.4,766.1,312.7,766.4,311.9,766.5C311.9,766.5,311.9,766.5,311.9,766.5z M311.9,762.1
				C311.9,762.1,311.9,762.1,311.9,762.1c-1,0-1.7,0.8-1.7,1.8l0,0c0,0.5,0.2,0.9,0.5,1.2c0.3,0.3,0.8,0.5,1.2,0.5
				c0.5,0,0.9-0.2,1.2-0.5c0.3-0.3,0.5-0.8,0.5-1.2C313.6,762.8,312.8,762.1,311.9,762.1z"/>
		</g>
	</g>
	<g>
		<g>
			<path class="st0" d="M305.3,763.9c0-1.2,0.9-2.2,2.2-2.2c1.2,0,2.2,0.9,2.2,2.2c0,1.2-0.9,2.2-2.2,2.2
				C306.3,766.1,305.3,765.1,305.3,763.9z"/>
			<path class="st1" d="M307.5,766.6c-0.7,0-1.4-0.3-1.9-0.8c-0.5-0.5-0.8-1.2-0.8-1.9c0-1.5,1.2-2.7,2.6-2.7c1.5,0,2.7,1.1,2.7,2.6
				c0,0.7-0.2,1.4-0.7,1.9C308.9,766.3,308.3,766.6,307.5,766.6C307.5,766.6,307.5,766.6,307.5,766.6z M307.5,762.2
				C307.5,762.2,307.5,762.2,307.5,762.2c-1,0-1.7,0.8-1.7,1.8c0,0.5,0.2,0.9,0.5,1.2c0.3,0.3,0.8,0.5,1.2,0.5
				c0.5,0,0.9-0.2,1.2-0.5c0.3-0.3,0.5-0.8,0.5-1.2C309.2,762.9,308.4,762.2,307.5,762.2z"/>
		</g>
	</g>
	<g>
		<g>
			<path class="st0" d="M300.9,764c0-1.2,1-2.2,2.2-2.2c1.2,0,2.2,1,2.2,2.2c0,1.2-1,2.2-2.2,2.2C301.9,766.2,300.9,765.2,300.9,764
				z"/>
			<path class="st1" d="M303.1,766.6c-0.7,0-1.4-0.3-1.9-0.8c-0.5-0.5-0.8-1.2-0.8-1.9l0,0c0-1.5,1.2-2.7,2.6-2.7
				c1.5,0,2.7,1.2,2.7,2.6c0,0.7-0.3,1.4-0.8,1.9C304.5,766.3,303.8,766.6,303.1,766.6C303.1,766.6,303.1,766.6,303.1,766.6z
				 M303.1,762.2C303.1,762.2,303.1,762.2,303.1,762.2c-1,0-1.7,0.8-1.7,1.7l0,0c0,0.5,0.2,0.9,0.5,1.2c0.3,0.3,0.8,0.5,1.2,0.5
				c0.5,0,0.9-0.2,1.2-0.5c0.3-0.3,0.5-0.8,0.5-1.2C304.8,763,304,762.2,303.1,762.2z"/>
		</g>
	</g>
	<g>
		<g>
			<path class="st0" d="M296.5,764c0-1.2,1-2.2,2.2-2.2c1.2,0,2.2,1,2.2,2.2s-1,2.2-2.2,2.2C297.5,766.2,296.5,765.2,296.5,764z"/>
			<path class="st1" d="M298.7,766.7c-0.7,0-1.4-0.3-1.9-0.8c-0.5-0.5-0.8-1.2-0.8-1.9l0,0c0-1.5,1.2-2.7,2.7-2.7c0,0,0,0,0,0
				c1.5,0,2.7,1.2,2.7,2.7c0,0.7-0.3,1.4-0.8,1.9C300.1,766.4,299.4,766.7,298.7,766.7C298.7,766.7,298.7,766.7,298.7,766.7z
				 M296.9,764c0,0.5,0.2,0.9,0.5,1.2c0.3,0.3,0.8,0.5,1.2,0.5c0.5,0,0.9-0.2,1.2-0.5c0.3-0.3,0.5-0.8,0.5-1.2
				c0-0.9-0.8-1.7-1.7-1.7c0,0,0,0,0,0C297.7,762.3,297,763,296.9,764L296.9,764z"/>
		</g>
	</g>
	<g>
		<g>
			<path class="st0" d="M292.1,764c0-1.2,1-2.2,2.2-2.2c1.2,0,2.2,1,2.2,2.2c0,1.2-1,2.2-2.2,2.2C293,766.2,292.1,765.2,292.1,764z"
				/>
			<path class="st1" d="M294.3,766.7C294.3,766.7,294.3,766.7,294.3,766.7c-0.7,0-1.4-0.3-1.9-0.8c-0.5-0.5-0.8-1.2-0.8-1.9
				c0-1.5,1.2-2.6,2.7-2.6c0,0,0,0,0,0c1.5,0,2.7,1.2,2.7,2.7c0,0.7-0.3,1.4-0.8,1.9C295.7,766.4,295,766.7,294.3,766.7z
				 M294.3,762.3c-0.9,0-1.7,0.8-1.7,1.7l0,0c0,0.5,0.2,0.9,0.5,1.2c0.3,0.3,0.8,0.5,1.2,0.5c0,0,0,0,0,0c0.5,0,0.9-0.2,1.2-0.5
				c0.3-0.3,0.5-0.8,0.5-1.2C296,763,295.2,762.3,294.3,762.3C294.3,762.3,294.3,762.3,294.3,762.3z"/>
		</g>
	</g>
	<g>
		<g>
			<path class="st0" d="M287.7,763.9c0-1.2,1-2.2,2.2-2.2c1.2,0,2.2,1,2.2,2.2c0,1.2-1,2.2-2.2,2.2
				C288.6,766.1,287.6,765.1,287.7,763.9z"/>
			<path class="st1" d="M289.9,766.6C289.8,766.6,289.8,766.6,289.9,766.6c-0.8,0-1.4-0.3-1.9-0.8c-0.5-0.5-0.8-1.2-0.7-1.9l0,0
				c0-1.5,1.3-2.7,2.7-2.6c1.5,0,2.7,1.2,2.6,2.7c0,0.7-0.3,1.4-0.8,1.9C291.2,766.3,290.6,766.6,289.9,766.6z M288.1,763.9
				c0,0.5,0.2,0.9,0.5,1.2c0.3,0.3,0.8,0.5,1.2,0.5c0.5,0,0.9-0.2,1.2-0.5c0.3-0.3,0.5-0.7,0.5-1.2c0-0.9-0.8-1.7-1.7-1.7
				C288.9,762.2,288.2,763,288.1,763.9L288.1,763.9z"/>
		</g>
	</g>
	<g>
		<g>
			<path class="st0" d="M283.3,763.8c0-1.2,1-2.2,2.3-2.1c1.2,0,2.2,1,2.2,2.2c0,1.2-1,2.2-2.3,2.1C284.2,766,283.2,765,283.3,763.8
				z"/>
			<path class="st1" d="M285.5,766.5C285.4,766.5,285.4,766.5,285.5,766.5c-0.8,0-1.5-0.3-2-0.8c-0.5-0.5-0.7-1.2-0.7-1.9l0,0
				c0-1.4,1.2-2.6,2.7-2.6c0,0,0,0,0.1,0c1.5,0,2.6,1.3,2.6,2.7c0,0.7-0.3,1.4-0.8,1.9C286.8,766.3,286.2,766.5,285.5,766.5z
				 M285.5,762.1c-0.9,0-1.7,0.7-1.7,1.7l0,0c0,0.5,0.2,0.9,0.5,1.2c0.3,0.3,0.8,0.5,1.2,0.5c0.5,0,0.9-0.2,1.2-0.5
				c0.3-0.3,0.5-0.7,0.5-1.2C287.2,762.9,286.4,762.1,285.5,762.1C285.5,762.1,285.5,762.1,285.5,762.1z"/>
		</g>
	</g>
	<g>
		<g>
			<path class="st0" d="M278.9,763.6c0-1.2,1.1-2.2,2.3-2.1c1.2,0,2.2,1.1,2.1,2.3c0,1.2-1.1,2.2-2.3,2.1
				C279.8,765.9,278.8,764.9,278.9,763.6z"/>
			<path class="st1" d="M281.1,766.4C281,766.4,281,766.4,281.1,766.4c-0.8,0-1.5-0.3-2-0.9c-0.5-0.5-0.7-1.2-0.7-1.9
				c0.1-1.5,1.3-2.6,2.8-2.6c1.5,0.1,2.6,1.3,2.6,2.8c0,0.7-0.3,1.4-0.8,1.9C282.4,766.1,281.7,766.4,281.1,766.4z M281,762
				c-0.9,0-1.7,0.7-1.7,1.7c0,0.5,0.1,0.9,0.5,1.2c0.3,0.3,0.7,0.5,1.2,0.6c0.5,0,0.9-0.1,1.2-0.5c0.3-0.3,0.5-0.7,0.5-1.2
				C282.8,762.8,282.1,762,281,762C281.1,762,281.1,762,281,762z"/>
		</g>
	</g>
	<g>
		<g>
			<path class="st0" d="M274.4,763.5c0.1-1.2,1.1-2.1,2.3-2.1c1.2,0,2.2,1.1,2.1,2.3c0,1.2-1.1,2.2-2.3,2.1
				C275.3,765.7,274.4,764.7,274.4,763.5z"/>
			<path class="st1" d="M276.7,766.2c0,0-0.1,0-0.1,0c-0.7,0-1.4-0.3-1.9-0.9c-0.5-0.5-0.7-1.2-0.7-1.9c0.1-1.5,1.3-2.6,2.8-2.6
				c1.5,0.1,2.6,1.3,2.6,2.8c0,0.7-0.3,1.4-0.8,1.9C278,766,277.3,766.2,276.7,766.2z M276.7,761.8c-0.9,0-1.7,0.7-1.7,1.6l0,0
				c0,0.5,0.1,0.9,0.4,1.2c0.3,0.3,0.7,0.5,1.2,0.6c0.5,0,0.9-0.1,1.3-0.5c0.3-0.3,0.5-0.7,0.5-1.2
				C278.4,762.7,277.7,761.9,276.7,761.8C276.7,761.8,276.7,761.8,276.7,761.8z"/>
		</g>
	</g>
	<g>
		<g>
			<path class="st0" d="M270,763.2c0.1-1.2,1.1-2.1,2.3-2.1c1.2,0.1,2.1,1.1,2.1,2.3c-0.1,1.2-1.1,2.1-2.3,2.1
				C270.9,765.5,270,764.4,270,763.2z"/>
			<path class="st1" d="M272.2,766c0,0-0.1,0-0.1,0c-0.7,0-1.4-0.3-1.9-0.9c-0.5-0.5-0.7-1.2-0.7-1.9c0.1-1.5,1.3-2.6,2.8-2.5
				c1.5,0.1,2.6,1.3,2.5,2.8c0,0.7-0.3,1.4-0.9,1.8C273.6,765.8,272.9,766,272.2,766z M272.3,761.6c-0.9,0-1.7,0.7-1.7,1.6l0,0
				c0,0.5,0.1,0.9,0.4,1.2c0.3,0.3,0.7,0.5,1.2,0.6c0.5,0,0.9-0.1,1.3-0.4c0.3-0.3,0.5-0.7,0.6-1.2
				C274,762.5,273.3,761.7,272.3,761.6C272.3,761.6,272.3,761.6,272.3,761.6z"/>
		</g>
	</g>
	<g>
		<g>
			<path class="st0" d="M265.6,763c0.1-1.2,1.1-2.1,2.3-2.1c1.2,0.1,2.1,1.1,2.1,2.3c-0.1,1.2-1.1,2.1-2.3,2.1
				C266.5,765.2,265.6,764.2,265.6,763z"/>
			<path class="st1" d="M267.8,765.8c-0.1,0-0.1,0-0.2,0c-0.7,0-1.4-0.4-1.9-0.9c-0.5-0.5-0.7-1.2-0.7-1.9c0.1-1.5,1.4-2.6,2.8-2.5
				c1.5,0.1,2.6,1.3,2.5,2.8c0,0.7-0.4,1.4-0.9,1.8C269.1,765.5,268.5,765.8,267.8,765.8z M267.8,761.4c-0.9,0-1.7,0.7-1.7,1.6l0,0
				c0,0.5,0.1,0.9,0.4,1.2c0.3,0.3,0.7,0.6,1.2,0.6c0.5,0,0.9-0.1,1.3-0.4c0.3-0.3,0.5-0.7,0.6-1.2c0.1-0.9-0.7-1.8-1.6-1.8
				C267.9,761.4,267.9,761.4,267.8,761.4z"/>
		</g>
	</g>
	<g>
		<g>
			<path class="st0" d="M261.3,762.7c0.1-1.2,1.1-2.1,2.4-2c1.2,0.1,2.1,1.1,2,2.3c-0.1,1.2-1.1,2.1-2.4,2
				C262.1,764.9,261.2,763.9,261.3,762.7z"/>
			<path class="st1" d="M263.5,765.5c-0.1,0-0.1,0-0.2,0c-0.7-0.1-1.4-0.4-1.8-0.9c-0.5-0.5-0.7-1.2-0.6-1.9
				c0.1-1.5,1.4-2.6,2.9-2.5c1.5,0.1,2.6,1.4,2.5,2.8c0,0.7-0.4,1.4-0.9,1.8C264.7,765.3,264.1,765.5,263.5,765.5z M263.4,761.1
				c-0.9,0-1.6,0.7-1.7,1.6l0,0c0,0.5,0.1,0.9,0.4,1.2c0.3,0.4,0.7,0.6,1.2,0.6c0.5,0,0.9-0.1,1.3-0.4c0.3-0.3,0.6-0.7,0.6-1.2
				c0.1-0.9-0.7-1.8-1.6-1.8C263.5,761.1,263.5,761.1,263.4,761.1z"/>
		</g>
	</g>
	<g>
		<g>
			<path class="st0" d="M256.9,762.3c0.1-1.2,1.2-2.1,2.4-2c1.2,0.1,2.1,1.2,2,2.4c-0.1,1.2-1.2,2.1-2.4,2
				C257.7,764.6,256.8,763.5,256.9,762.3z"/>
			<path class="st1" d="M259.1,765.2c-0.1,0-0.1,0-0.2,0c-0.7-0.1-1.4-0.4-1.8-0.9c-0.5-0.5-0.7-1.2-0.6-1.9l0,0
				c0.1-1.5,1.4-2.6,2.9-2.4c1.5,0.1,2.6,1.4,2.5,2.9c-0.1,0.7-0.4,1.4-0.9,1.8C260.3,764.9,259.7,765.2,259.1,765.2z M257.3,762.4
				c0,0.5,0.1,0.9,0.4,1.2c0.3,0.4,0.7,0.6,1.2,0.6c0.5,0,0.9-0.1,1.3-0.4c0.3-0.3,0.6-0.7,0.6-1.2c0.1-0.9-0.6-1.8-1.6-1.9
				C258.3,760.7,257.4,761.4,257.3,762.4L257.3,762.4z"/>
		</g>
	</g>
	<g>
		<g>
			<path class="st0" d="M252.5,761.9c0.1-1.2,1.2-2.1,2.4-2c1.2,0.1,2.1,1.2,2,2.4c-0.1,1.2-1.2,2.1-2.4,2
				C253.3,764.2,252.4,763.1,252.5,761.9z"/>
			<path class="st1" d="M254.7,764.8c-0.1,0-0.2,0-0.2,0c-0.7-0.1-1.4-0.4-1.8-0.9c-0.5-0.6-0.7-1.2-0.6-2c0.1-1.5,1.4-2.5,2.9-2.4
				c1.5,0.1,2.6,1.4,2.4,2.9c-0.1,0.7-0.4,1.4-0.9,1.8C255.9,764.6,255.3,764.8,254.7,764.8z M254.7,760.4c-0.9,0-1.6,0.7-1.7,1.6
				l0,0c0,0.5,0.1,0.9,0.4,1.3c0.3,0.4,0.7,0.6,1.2,0.6c0.5,0,0.9-0.1,1.3-0.4c0.3-0.3,0.6-0.7,0.6-1.2c0.1-0.9-0.6-1.8-1.6-1.9
				C254.8,760.4,254.7,760.4,254.7,760.4z"/>
		</g>
	</g>
	<g>
		<g>
			<path class="st0" d="M248.1,761.5c0.1-1.2,1.2-2.1,2.4-2c1.2,0.1,2.1,1.2,2,2.4c-0.1,1.2-1.2,2.1-2.4,2
				C248.8,763.8,248,762.7,248.1,761.5z"/>
			<path class="st1" d="M250.3,764.4c-0.1,0-0.2,0-0.3,0c-0.7-0.1-1.4-0.4-1.8-1c-0.4-0.6-0.7-1.2-0.6-2l0,0
				c0.2-1.5,1.5-2.5,2.9-2.4c1.5,0.1,2.5,1.4,2.4,2.9c-0.1,0.7-0.4,1.3-1,1.8C251.5,764.2,250.9,764.4,250.3,764.4z M248.6,761.5
				c0,0.5,0.1,0.9,0.4,1.3c0.3,0.4,0.7,0.6,1.2,0.6c0.5,0,0.9-0.1,1.3-0.4c0.4-0.3,0.6-0.7,0.6-1.2c0.1-0.9-0.6-1.8-1.5-1.9
				C249.5,759.9,248.7,760.6,248.6,761.5L248.6,761.5z"/>
		</g>
	</g>
	<g>
		<g>
			<path class="st0" d="M243.7,761c0.1-1.2,1.2-2.1,2.4-1.9c1.2,0.1,2.1,1.2,2,2.4c-0.1,1.2-1.2,2.1-2.4,1.9
				C244.4,763.3,243.6,762.2,243.7,761z"/>
			<path class="st1" d="M245.9,763.9c-0.1,0-0.2,0-0.3,0c-0.7-0.1-1.4-0.4-1.8-1c-0.4-0.6-0.6-1.3-0.6-2c0.2-1.5,1.5-2.5,3-2.4
				c1.5,0.2,2.5,1.5,2.4,2.9c-0.1,0.7-0.4,1.4-1,1.8C247.1,763.7,246.5,763.9,245.9,763.9z M245.9,759.5c-0.9,0-1.6,0.7-1.7,1.5
				c-0.1,0.5,0.1,0.9,0.4,1.3c0.3,0.4,0.7,0.6,1.2,0.6c0.5,0.1,0.9-0.1,1.3-0.4c0.4-0.3,0.6-0.7,0.6-1.2c0.1-0.9-0.6-1.8-1.5-1.9
				C246,759.5,246,759.5,245.9,759.5z"/>
		</g>
	</g>
	<g>
		<g>
			<path class="st0" d="M239.3,760.5c0.2-1.2,1.2-2.1,2.5-1.9c1.2,0.1,2.1,1.2,1.9,2.4c-0.1,1.2-1.2,2.1-2.5,1.9
				C240,762.8,239.2,761.7,239.3,760.5z"/>
			<path class="st1" d="M241.5,763.4c-0.1,0-0.2,0-0.3,0c-0.7-0.1-1.4-0.4-1.8-1c-0.4-0.6-0.6-1.3-0.5-2l0,0c0.2-1.5,1.5-2.5,3-2.3
				c1.5,0.2,2.5,1.5,2.3,3c-0.1,0.7-0.4,1.3-1,1.8C242.7,763.2,242.1,763.4,241.5,763.4z M239.8,760.5c-0.1,0.5,0.1,0.9,0.3,1.3
				c0.3,0.4,0.7,0.6,1.2,0.7c0.5,0.1,0.9-0.1,1.3-0.4c0.4-0.3,0.6-0.7,0.6-1.1c0.1-0.9-0.6-1.8-1.5-1.9
				C240.8,758.9,239.9,759.6,239.8,760.5L239.8,760.5z"/>
		</g>
	</g>
	<g>
		<g>
			<path class="st0" d="M235,759.9c0.2-1.2,1.3-2,2.5-1.9c1.2,0.2,2,1.3,1.9,2.5s-1.3,2.1-2.5,1.9
				C235.6,762.2,234.8,761.1,235,759.9z"/>
			<path class="st1" d="M237.2,762.9c-0.1,0-0.2,0-0.4,0c-0.7-0.1-1.3-0.5-1.8-1c-0.4-0.6-0.6-1.3-0.5-2l0,0c0.2-1.5,1.5-2.5,3-2.3
				c1.5,0.2,2.5,1.5,2.3,3c-0.1,0.7-0.4,1.3-1,1.8C238.3,762.7,237.7,762.9,237.2,762.9z M235.4,760c-0.1,0.5,0.1,0.9,0.3,1.3
				c0.3,0.4,0.7,0.6,1.2,0.7c0.5,0.1,0.9-0.1,1.3-0.3c0.4-0.3,0.6-0.7,0.6-1.1c0.1-0.9-0.5-1.8-1.5-1.9
				C236.4,758.4,235.6,759,235.4,760L235.4,760z"/>
		</g>
	</g>
	<g>
		<g>
			<path class="st0" d="M230.6,759.3c0.2-1.2,1.3-2,2.5-1.9c1.2,0.2,2,1.3,1.9,2.5c-0.2,1.2-1.3,2-2.5,1.9
				C231.3,761.6,230.4,760.5,230.6,759.3z"/>
			<path class="st1" d="M232.8,762.3c-0.1,0-0.3,0-0.4,0c-0.7-0.1-1.3-0.5-1.8-1.1c-0.4-0.6-0.6-1.3-0.5-2l0,0
				c0.2-1.5,1.6-2.5,3-2.3c1.5,0.2,2.5,1.6,2.3,3c-0.1,0.7-0.5,1.3-1,1.8C233.9,762.1,233.4,762.3,232.8,762.3z M231.1,759.3
				c-0.1,0.4,0,0.9,0.3,1.3c0.3,0.4,0.7,0.6,1.1,0.7c0.5,0.1,0.9,0,1.3-0.3c0.4-0.3,0.6-0.7,0.7-1.1c0.1-0.9-0.5-1.8-1.5-1.9
				C232.1,757.8,231.2,758.4,231.1,759.3L231.1,759.3z"/>
		</g>
	</g>
	<g>
		<g>
			<path class="st0" d="M226.2,758.6c0.2-1.2,1.3-2,2.5-1.8c1.2,0.2,2,1.3,1.8,2.5c-0.2,1.2-1.3,2-2.5,1.8
				C226.9,760.9,226.1,759.8,226.2,758.6z"/>
			<path class="st1" d="M228.4,761.6c-0.1,0-0.3,0-0.4,0c-0.7-0.1-1.3-0.5-1.8-1.1c-0.4-0.6-0.6-1.3-0.5-2l0,0
				c0.2-1.4,1.6-2.4,3.1-2.2c1.5,0.2,2.5,1.6,2.2,3c-0.1,0.7-0.5,1.3-1.1,1.7C229.6,761.4,229,761.6,228.4,761.6z M226.7,758.7
				c-0.1,0.5,0,0.9,0.3,1.3c0.3,0.4,0.7,0.6,1.1,0.7c0.5,0.1,0.9,0,1.3-0.3c0.4-0.3,0.6-0.7,0.7-1.1c0.1-0.9-0.5-1.8-1.4-2
				C227.8,757.1,226.9,757.7,226.7,758.7L226.7,758.7z"/>
		</g>
	</g>
	<g>
		<g>
			<path class="st0" d="M221.9,757.9c0.2-1.2,1.3-2,2.5-1.8c1.2,0.2,2,1.3,1.8,2.5c-0.2,1.2-1.3,2-2.5,1.8
				C222.5,760.2,221.7,759.1,221.9,757.9z"/>
			<path class="st1" d="M224.1,760.9c-0.1,0-0.3,0-0.4,0c-0.7-0.1-1.3-0.5-1.8-1.1c-0.4-0.6-0.6-1.3-0.4-2c0.3-1.4,1.6-2.4,3.1-2.2
				c1.4,0.2,2.4,1.6,2.2,3.1c-0.1,0.7-0.5,1.3-1.1,1.7C225.2,760.7,224.6,760.9,224.1,760.9z M224.1,756.5c-0.8,0-1.6,0.6-1.7,1.4
				l0,0c-0.1,0.4,0,0.9,0.3,1.3c0.3,0.4,0.7,0.6,1.1,0.7c0.5,0.1,0.9,0,1.3-0.3c0.4-0.3,0.6-0.7,0.7-1.1c0.2-0.9-0.5-1.8-1.4-2
				C224.3,756.5,224.2,756.5,224.1,756.5z"/>
		</g>
	</g>
	<g>
		<g>
			<path class="st0" d="M217.6,757.1c0.2-1.2,1.4-2,2.6-1.8c1.2,0.2,2,1.4,1.8,2.6c-0.2,1.2-1.4,2-2.6,1.8
				C218.1,759.4,217.3,758.3,217.6,757.1z"/>
			<path class="st1" d="M219.7,760.1c-0.2,0-0.3,0-0.5,0c-0.7-0.1-1.3-0.5-1.7-1.1c-0.4-0.6-0.5-1.3-0.4-2l0,0
				c0.3-1.4,1.7-2.4,3.1-2.1c1.4,0.3,2.4,1.7,2.2,3.1c-0.1,0.7-0.5,1.3-1.1,1.7C220.8,760,220.3,760.1,219.7,760.1z M219.7,755.7
				c-0.8,0-1.5,0.6-1.7,1.4v0c-0.1,0.4,0,0.9,0.3,1.3c0.3,0.4,0.7,0.6,1.1,0.7c0.5,0.1,0.9,0,1.3-0.3c0.4-0.3,0.6-0.7,0.7-1.1
				c0.2-0.9-0.5-1.8-1.4-2C219.9,755.8,219.8,755.7,219.7,755.7z"/>
		</g>
	</g>
	<g>
		<g>
			<path class="st0" d="M213.2,756.2c0.2-1.2,1.4-2,2.6-1.7c1.2,0.2,2,1.4,1.7,2.6s-1.4,2-2.6,1.7
				C213.8,758.6,213,757.4,213.2,756.2z"/>
			<path class="st1" d="M215.4,759.3c-0.2,0-0.3,0-0.5-0.1c-0.7-0.1-1.3-0.5-1.7-1.1c-0.4-0.6-0.5-1.3-0.4-2l0,0
				c0.3-1.4,1.7-2.4,3.1-2.1c1.4,0.3,2.4,1.7,2.1,3.1c-0.1,0.7-0.5,1.3-1.1,1.7C216.5,759.2,215.9,759.3,215.4,759.3z M213.7,756.3
				c-0.1,0.4,0,0.9,0.3,1.3c0.3,0.4,0.7,0.6,1.1,0.7c0.5,0.1,0.9,0,1.3-0.3c0.4-0.3,0.6-0.6,0.7-1.1c0.2-0.9-0.4-1.8-1.4-2
				C214.8,754.8,213.9,755.4,213.7,756.3L213.7,756.3z"/>
		</g>
	</g>
	<g>
		<g>
			<path class="st0" d="M208.9,755.3c0.3-1.2,1.4-1.9,2.6-1.7c1.2,0.3,1.9,1.4,1.7,2.6c-0.2,1.2-1.4,2-2.6,1.7
				C209.4,757.7,208.7,756.5,208.9,755.3z"/>
			<path class="st1" d="M211.1,758.4c-0.2,0-0.4,0-0.6-0.1c-0.7-0.2-1.3-0.6-1.7-1.2c-0.4-0.6-0.5-1.3-0.4-2c0.3-1.4,1.7-2.4,3.2-2
				c1.4,0.3,2.4,1.7,2.1,3.2c-0.1,0.7-0.6,1.3-1.2,1.7C212.1,758.3,211.6,758.4,211.1,758.4z M211.1,754c-0.8,0-1.5,0.6-1.7,1.4l0,0
				c-0.1,0.4,0,0.9,0.2,1.3c0.3,0.4,0.6,0.7,1.1,0.8c0.5,0.1,0.9,0,1.3-0.2c0.4-0.3,0.7-0.6,0.7-1.1c0.2-0.9-0.4-1.8-1.3-2
				C211.3,754.1,211.2,754,211.1,754z"/>
		</g>
	</g>
	<g>
		<g>
			<path class="st0" d="M204.6,754.3c0.3-1.2,1.5-1.9,2.6-1.6s1.9,1.4,1.7,2.6c-0.3,1.2-1.4,1.9-2.6,1.7
				C205.1,756.7,204.4,755.5,204.6,754.3z"/>
			<path class="st1" d="M206.8,757.5c-0.2,0-0.4,0-0.6-0.1c-0.7-0.2-1.3-0.6-1.7-1.2c-0.4-0.6-0.5-1.3-0.3-2l0,0
				c0.3-1.4,1.8-2.3,3.2-2c1.4,0.3,2.3,1.8,2,3.2c-0.2,0.7-0.6,1.3-1.2,1.7C207.8,757.3,207.3,757.5,206.8,757.5z M205.1,754.4
				c-0.1,0.4,0,0.9,0.2,1.3c0.2,0.4,0.6,0.7,1.1,0.8c0.5,0.1,0.9,0,1.3-0.2c0.4-0.2,0.7-0.6,0.7-1.1c0.2-0.9-0.4-1.9-1.3-2.1
				C206.3,752.9,205.3,753.5,205.1,754.4L205.1,754.4z"/>
		</g>
	</g>
	<g>
		<g>
			<path class="st0" d="M200.4,753.3c0.3-1.2,1.5-1.9,2.7-1.6c1.2,0.3,1.9,1.5,1.6,2.7c-0.3,1.2-1.5,1.9-2.7,1.6
				C200.8,755.6,200.1,754.4,200.4,753.3z"/>
			<path class="st1" d="M202.5,756.5c-0.2,0-0.4,0-0.7-0.1c-0.7-0.2-1.3-0.6-1.7-1.2c-0.4-0.6-0.5-1.3-0.3-2h0
				c0.4-1.4,1.8-2.3,3.2-1.9c1.4,0.4,2.3,1.8,2,3.2c-0.2,0.7-0.6,1.3-1.2,1.7C203.5,756.3,203,756.5,202.5,756.5z M200.8,753.4
				c-0.1,0.4,0,0.9,0.2,1.3c0.2,0.4,0.6,0.7,1.1,0.8c0.5,0.1,0.9,0,1.3-0.2c0.4-0.2,0.7-0.6,0.8-1.1c0.2-0.9-0.3-1.8-1.3-2.1
				C202,751.9,201.1,752.5,200.8,753.4L200.8,753.4z"/>
		</g>
	</g>
	<g>
		<g>
			<path class="st0" d="M196.1,752.1c0.3-1.2,1.5-1.9,2.7-1.5c1.2,0.3,1.9,1.5,1.6,2.7c-0.3,1.2-1.5,1.9-2.7,1.6
				C196.5,754.5,195.8,753.3,196.1,752.1z"/>
			<path class="st1" d="M198.2,755.4c-0.2,0-0.5,0-0.7-0.1c-0.7-0.2-1.3-0.6-1.6-1.3c-0.4-0.6-0.4-1.3-0.2-2l0,0
				c0.4-1.4,1.9-2.3,3.3-1.9c1.4,0.4,2.3,1.8,1.9,3.3c-0.2,0.7-0.6,1.3-1.2,1.6C199.2,755.2,198.7,755.4,198.2,755.4z M196.6,752.2
				c-0.1,0.4-0.1,0.9,0.2,1.3c0.2,0.4,0.6,0.7,1.1,0.8c0.5,0.1,0.9,0.1,1.3-0.2c0.4-0.2,0.7-0.6,0.8-1c0.2-0.9-0.3-1.9-1.2-2.1
				C197.8,750.8,196.8,751.3,196.6,752.2L196.6,752.2z"/>
		</g>
	</g>
	<g>
		<g>
			<path class="st0" d="M191.9,750.9c0.4-1.2,1.6-1.8,2.7-1.5c0.6,0.2,1,0.6,1.3,1c0.3,0.5,0.4,1.1,0.2,1.7c-0.2,0.6-0.5,1-1,1.3
				c-0.5,0.3-1.1,0.4-1.7,0.2C192.2,753.3,191.5,752,191.9,750.9z"/>
			<path class="st1" d="M194,754.2c-0.3,0-0.5,0-0.8-0.1c-0.7-0.2-1.3-0.7-1.6-1.3c-0.3-0.6-0.4-1.4-0.2-2l0,0
				c0.4-1.4,1.9-2.2,3.3-1.8c0.7,0.2,1.2,0.6,1.6,1.3c0.3,0.6,0.4,1.3,0.2,2c-0.2,0.7-0.6,1.3-1.3,1.6
				C194.9,754.1,194.5,754.2,194,754.2z M192.3,751c-0.1,0.4-0.1,0.9,0.1,1.3c0.2,0.4,0.6,0.7,1,0.8c0.5,0.1,0.9,0.1,1.3-0.1
				c0.4-0.2,0.7-0.6,0.8-1c0.1-0.4,0.1-0.9-0.2-1.3c-0.2-0.4-0.6-0.7-1-0.8C193.5,749.6,192.6,750.1,192.3,751L192.3,751z"/>
		</g>
	</g>
	<g>
		<g>
			<path class="st0" d="M187.7,749.6c0.4-1.1,1.6-1.8,2.8-1.4c1.1,0.4,1.8,1.6,1.4,2.7c-0.3,1.2-1.6,1.8-2.8,1.5
				C187.9,752,187.3,750.7,187.7,749.6z"/>
			<path class="st1" d="M189.8,752.9c-0.3,0-0.5,0-0.8-0.1c-0.7-0.2-1.3-0.7-1.6-1.3c-0.3-0.6-0.4-1.4-0.2-2c0.5-1.4,2-2.2,3.4-1.7
				c1.4,0.4,2.2,1.9,1.8,3.3c-0.2,0.7-0.7,1.2-1.3,1.6C190.6,752.8,190.2,752.9,189.8,752.9z M189.8,748.5c-0.7,0-1.4,0.5-1.7,1.2v0
				c-0.1,0.4-0.1,0.9,0.1,1.3c0.2,0.4,0.6,0.7,1,0.9c0.4,0.1,0.9,0.1,1.3-0.1c0.4-0.2,0.7-0.6,0.8-1c0.3-0.9-0.2-1.9-1.1-2.2
				C190.1,748.5,189.9,748.5,189.8,748.5z"/>
		</g>
	</g>
	<g>
		<g>
			<path class="st0" d="M183.5,748.1c0.4-1.1,1.7-1.7,2.8-1.4c1.1,0.4,1.8,1.6,1.4,2.8c-0.4,1.2-1.6,1.8-2.8,1.4
				C183.7,750.5,183.1,749.3,183.5,748.1z"/>
			<path class="st1" d="M185.6,751.5c-0.3,0-0.6,0-0.9-0.1c-0.7-0.2-1.3-0.7-1.6-1.4c-0.3-0.6-0.3-1.4-0.1-2c0.5-1.4,2-2.1,3.4-1.6
				c1.4,0.5,2.1,2,1.7,3.4c-0.2,0.7-0.7,1.2-1.3,1.5C186.4,751.5,186,751.5,185.6,751.5z M185.6,747.2c-0.7,0-1.4,0.4-1.6,1.2
				c-0.2,0.4-0.1,0.9,0.1,1.3c0.2,0.4,0.6,0.7,1,0.9c0.4,0.1,0.9,0.1,1.3-0.1c0.4-0.2,0.7-0.6,0.8-1c0.3-0.9-0.2-1.9-1.1-2.2
				C186,747.2,185.8,747.2,185.6,747.2z"/>
		</g>
	</g>
	<g>
		<g>
			<path class="st0" d="M179.4,746.6c0.4-1.1,1.7-1.7,2.8-1.3c1.1,0.4,1.7,1.7,1.3,2.8c-0.4,1.1-1.7,1.7-2.8,1.3
				C179.5,749,178.9,747.7,179.4,746.6z"/>
			<path class="st1" d="M181.4,750.1c-0.3,0-0.6-0.1-0.9-0.2c-0.7-0.3-1.2-0.8-1.5-1.4c-0.3-0.7-0.3-1.4,0-2
				c0.5-1.4,2.1-2.1,3.4-1.5c1.4,0.5,2.1,2,1.6,3.4c-0.2,0.7-0.7,1.2-1.4,1.5C182.2,750,181.8,750.1,181.4,750.1z M181.4,745.7
				c-0.7,0-1.4,0.4-1.6,1.1l0,0c-0.2,0.4-0.2,0.9,0,1.3c0.2,0.4,0.5,0.8,1,0.9c0.4,0.2,0.9,0.1,1.4-0.1c0.4-0.2,0.7-0.5,0.9-1
				c0.3-0.9-0.1-1.9-1-2.2C181.8,745.7,181.6,745.7,181.4,745.7z"/>
		</g>
	</g>
	<g>
		<g>
			<path class="st0" d="M175.3,744.9c0.5-1.1,1.8-1.6,2.9-1.2c1.1,0.4,1.6,1.7,1.2,2.9c-0.4,1.1-1.7,1.7-2.9,1.2
				C175.3,747.4,174.8,746,175.3,744.9z"/>
			<path class="st1" d="M177.3,748.5c-0.3,0-0.7-0.1-1-0.2c-0.7-0.3-1.2-0.8-1.5-1.5c-0.3-0.7-0.3-1.4,0-2h0c0.6-1.4,2.1-2,3.5-1.4
				c1.3,0.5,2,2.1,1.5,3.5c-0.3,0.7-0.8,1.2-1.4,1.5C178.1,748.4,177.7,748.5,177.3,748.5z M175.7,745.1c-0.2,0.4-0.2,0.9,0,1.3
				c0.2,0.4,0.5,0.8,1,1c0.4,0.2,0.9,0.2,1.4,0c0.4-0.2,0.7-0.5,0.9-0.9c0.3-0.9-0.1-1.9-0.9-2.2
				C177.1,743.8,176.1,744.2,175.7,745.1L175.7,745.1z"/>
		</g>
	</g>
	<g>
		<g>
			<path class="st0" d="M171.3,743.1c0.5-1.1,1.8-1.6,2.9-1.1c0.5,0.2,0.9,0.7,1.1,1.2c0.2,0.5,0.2,1.1,0,1.7
				c-0.2,0.6-0.7,1-1.2,1.2c-0.5,0.2-1.1,0.2-1.7-0.1C171.2,745.5,170.8,744.2,171.3,743.1z"/>
			<path class="st1" d="M173.3,746.7c-0.4,0-0.8-0.1-1.1-0.2c-0.7-0.3-1.2-0.9-1.4-1.5c-0.2-0.7-0.2-1.4,0.1-2l0,0
				c0.6-1.3,2.2-1.9,3.5-1.3c0.6,0.3,1.1,0.8,1.4,1.5c0.3,0.7,0.2,1.4,0,2c-0.3,0.7-0.8,1.2-1.5,1.4
				C173.9,746.7,173.6,746.7,173.3,746.7z M171.7,743.3c-0.2,0.4-0.2,0.9-0.1,1.3c0.2,0.4,0.5,0.8,0.9,1c0.4,0.2,0.9,0.2,1.3,0
				c0.4-0.2,0.8-0.5,0.9-0.9c0.2-0.4,0.2-0.9,0-1.3c-0.2-0.4-0.5-0.8-0.9-0.9C173.1,742.1,172.1,742.5,171.7,743.3L171.7,743.3z"/>
		</g>
	</g>
	<g>
		<g>
			<path class="st0" d="M167.4,741.1c0.6-1.1,1.9-1.5,2.9-0.9c1.1,0.5,1.5,1.8,1,2.9c-0.5,1.1-1.9,1.5-3,1
				C167.2,743.5,166.8,742.2,167.4,741.1z"/>
			<path class="st1" d="M169.3,744.8c-0.4,0-0.8-0.1-1.2-0.3c-0.7-0.3-1.2-0.9-1.4-1.6c-0.2-0.7-0.1-1.4,0.2-2l0,0
				c0.7-1.3,2.3-1.8,3.6-1.1c1.3,0.6,1.8,2.2,1.2,3.6c-0.3,0.6-0.8,1.1-1.5,1.3C169.9,744.8,169.6,744.8,169.3,744.8z M169.3,740.4
				c-0.6,0-1.2,0.3-1.5,0.9l0,0c-0.2,0.4-0.3,0.8-0.1,1.3c0.1,0.5,0.5,0.8,0.9,1.1c0.4,0.2,0.9,0.2,1.4,0.1c0.4-0.1,0.8-0.5,1-0.9
				c0.4-0.9,0.1-1.9-0.8-2.3C169.8,740.5,169.6,740.4,169.3,740.4z"/>
		</g>
	</g>
	<g>
		<g>
			<path class="st0" d="M163.6,738.9c0.3-0.5,0.8-0.8,1.4-1c0.5-0.1,1.1-0.1,1.6,0.2c1,0.6,1.4,1.9,0.8,3c-0.6,1.1-1.9,1.4-3,0.8
				c-0.5-0.3-0.9-0.8-1-1.4C163.2,740,163.2,739.4,163.6,738.9z"/>
			<path class="st1" d="M165.5,742.7c-0.5,0-0.9-0.1-1.4-0.4c-0.6-0.4-1.1-1-1.3-1.7c-0.2-0.7-0.1-1.4,0.3-2c0.4-0.6,1-1,1.6-1.2
				c0.7-0.2,1.4-0.1,2,0.3c1.2,0.7,1.7,2.3,1,3.6c-0.3,0.6-0.9,1.1-1.6,1.3C165.9,742.7,165.7,742.7,165.5,742.7z M165.5,738.3
				c-0.1,0-0.3,0-0.4,0.1c-0.4,0.1-0.8,0.4-1.1,0.8c-0.2,0.4-0.3,0.9-0.2,1.3c0.1,0.4,0.4,0.8,0.8,1.1c0.4,0.2,0.9,0.3,1.4,0.2
				c0.4-0.1,0.8-0.4,1-0.8c0.4-0.8,0.2-1.9-0.6-2.3C166.1,738.4,165.8,738.3,165.5,738.3z"/>
		</g>
	</g>
	<g>
		<g>
			<path class="st0" d="M159.9,736.4c0.4-0.5,0.9-0.8,1.4-0.9c0.5-0.1,1.1,0,1.6,0.3c1,0.7,1.2,2,0.6,3c-0.6,1-2,1.3-3.1,0.6
				c-0.5-0.3-0.9-0.9-1-1.5C159.4,737.5,159.5,736.9,159.9,736.4z"/>
			<path class="st1" d="M161.7,740.4c-0.5,0-1.1-0.2-1.5-0.5c-0.6-0.4-1-1-1.1-1.8c-0.1-0.7,0-1.4,0.5-2l0,0c0.4-0.6,1-0.9,1.7-1.1
				c0.7-0.1,1.4,0,1.9,0.4c1.2,0.8,1.5,2.4,0.8,3.7c-0.4,0.6-1,1-1.7,1.2C162.1,740.3,161.9,740.4,161.7,740.4z M161.7,736
				c-0.1,0-0.2,0-0.3,0c-0.5,0.1-0.9,0.3-1.1,0.7h0c-0.3,0.4-0.4,0.8-0.3,1.3c0.1,0.5,0.4,0.9,0.7,1.1c0.4,0.3,0.9,0.4,1.3,0.3
				c0.5-0.1,0.8-0.4,1.1-0.7c0.5-0.8,0.3-1.9-0.5-2.4C162.4,736.1,162.1,736,161.7,736z"/>
		</g>
	</g>
	<g>
		<g>
			<path class="st0" d="M156.5,733.6c0.4-0.4,1-0.7,1.5-0.7c0.5,0,1.1,0.1,1.5,0.5c0.4,0.4,0.7,0.9,0.8,1.4c0.1,0.6-0.1,1.1-0.4,1.6
				c-0.4,0.5-0.9,0.8-1.5,0.8c-0.6,0.1-1.2-0.1-1.7-0.5c-0.5-0.4-0.8-1-0.8-1.6C155.9,734.6,156.1,734,156.5,733.6z"/>
			<path class="st1" d="M158.2,737.7c-0.6,0-1.3-0.2-1.7-0.6c-0.6-0.5-0.9-1.2-1-1.9c-0.1-0.7,0.2-1.4,0.7-1.9l0,0
				c0.5-0.5,1.1-0.8,1.8-0.9c0.7,0,1.4,0.2,1.9,0.6c0.5,0.5,0.9,1.1,0.9,1.7c0.1,0.7-0.1,1.4-0.5,2c-0.4,0.6-1.1,1-1.8,1
				C158.4,737.7,158.3,737.7,158.2,737.7z M156.9,733.9c-0.3,0.3-0.5,0.8-0.4,1.2c0,0.5,0.3,0.9,0.7,1.2c0.4,0.3,0.8,0.4,1.3,0.4
				c0.4,0,0.8-0.3,1.1-0.7c0.3-0.4,0.4-0.8,0.3-1.3c0-0.4-0.3-0.8-0.6-1.1c-0.3-0.3-0.7-0.4-1.2-0.4
				C157.6,733.4,157.2,733.6,156.9,733.9L156.9,733.9z"/>
		</g>
	</g>
	<g>
		<g>
			<path class="st0" d="M153.5,730.4c0.5-0.4,1.1-0.5,1.6-0.5c0.5,0,1.1,0.2,1.4,0.7c0.2,0.2,0.3,0.4,0.4,0.7
				c0.1,0.3,0.1,0.5,0.1,0.8c0,0.6-0.2,1.1-0.6,1.6c-0.4,0.4-1,0.7-1.5,0.7c-0.3,0-0.6-0.1-0.9-0.2c-0.3-0.1-0.5-0.3-0.8-0.5
				c-0.4-0.5-0.7-1.1-0.6-1.7C152.8,731.3,153,730.8,153.5,730.4z"/>
			<path class="st1" d="M155,734.7C155,734.7,155,734.7,155,734.7c-0.4,0-0.7-0.1-1.1-0.2c-0.4-0.2-0.7-0.4-0.9-0.7
				c-0.5-0.6-0.8-1.3-0.7-2c0-0.7,0.4-1.4,1-1.8c0.5-0.4,1.2-0.6,1.9-0.6c0.7,0.1,1.3,0.3,1.8,0.8c0.2,0.3,0.4,0.6,0.5,0.8
				c0.1,0.3,0.2,0.6,0.2,1c0,0.7-0.3,1.4-0.7,1.9C156.4,734.4,155.7,734.7,155,734.7z M155,730.4c-0.4,0-0.8,0.1-1.2,0.4l0,0
				c-0.4,0.3-0.6,0.7-0.6,1.2c0,0.5,0.1,0.9,0.5,1.3c0.2,0.2,0.4,0.3,0.6,0.4c0.2,0.1,0.4,0.1,0.7,0.1c0.4,0,0.9-0.2,1.2-0.5
				c0.4-0.4,0.5-0.9,0.5-1.2c0-0.2,0-0.4-0.1-0.6c-0.1-0.2-0.2-0.4-0.3-0.5c-0.3-0.3-0.7-0.5-1.1-0.5C155,730.4,155,730.4,155,730.4
				z"/>
		</g>
	</g>
	<g>
		<g>
			<path class="st0" d="M151.1,726.7c0.5-0.3,1.1-0.3,1.7-0.2c0.5,0.1,1,0.4,1.3,0.9c0.3,0.5,0.4,1,0.3,1.5
				c-0.1,0.5-0.4,1.1-0.8,1.4c-0.5,0.4-1.1,0.5-1.6,0.4c-0.6-0.1-1.1-0.4-1.5-1c-0.4-0.6-0.5-1.2-0.3-1.8
				C150.2,727.4,150.6,727,151.1,726.7z"/>
			<path class="st1" d="M152.2,731.3c-0.1,0-0.3,0-0.4,0c-0.7-0.1-1.4-0.6-1.8-1.2c-0.4-0.6-0.6-1.4-0.4-2.2
				c0.2-0.7,0.7-1.3,1.3-1.6l0,0c0.6-0.3,1.3-0.4,2-0.2c0.6,0.2,1.2,0.5,1.6,1.1c0.4,0.6,0.5,1.2,0.4,1.9c-0.1,0.7-0.5,1.3-1,1.7
				C153.3,731.1,152.8,731.3,152.2,731.3z M152.2,726.9c-0.3,0-0.6,0.1-0.8,0.2h0c-0.4,0.2-0.7,0.6-0.8,1c-0.1,0.5,0,1,0.3,1.4
				c0.3,0.4,0.7,0.7,1.2,0.8c0.4,0.1,0.9,0,1.3-0.3c0.4-0.4,0.6-0.8,0.7-1.2c0.1-0.4,0-0.8-0.2-1.2c-0.2-0.3-0.6-0.6-1-0.7
				C152.5,726.9,152.3,726.9,152.2,726.9z"/>
		</g>
	</g>
	<g>
		<g>
			<path class="st0" d="M159.9,704.3c0.4,0.5,0.5,1.1,0.4,1.6c-0.1,0.6-0.3,1.1-0.8,1.4c-0.4,0.4-1,0.5-1.5,0.5
				c-0.5,0-1.1-0.3-1.5-0.7c-0.4-0.4-0.6-1-0.6-1.6c0-0.6,0.3-1.1,0.8-1.6c0.5-0.4,1.1-0.6,1.7-0.5
				C159,703.5,159.5,703.8,159.9,704.3z"/>
			<path class="st1" d="M158.2,708.3c-0.1,0-0.1,0-0.2,0c-0.7-0.1-1.4-0.4-1.8-0.9c-0.5-0.5-0.7-1.2-0.7-2c0-0.7,0.4-1.4,1-1.9
				c0.5-0.5,1.3-0.7,2-0.6c0.7,0.1,1.4,0.4,1.8,1l0,0c0.4,0.6,0.6,1.3,0.5,2c-0.1,0.7-0.4,1.3-0.9,1.7
				C159.4,708.1,158.8,708.3,158.2,708.3z M158.2,703.9c-0.4,0-0.8,0.1-1.1,0.4c-0.4,0.3-0.6,0.8-0.7,1.2c0,0.5,0.1,0.9,0.4,1.2
				c0.3,0.3,0.7,0.5,1.2,0.6c0.5,0,0.9-0.1,1.2-0.4c0.3-0.3,0.6-0.7,0.6-1.1c0.1-0.5-0.1-0.9-0.3-1.3c-0.3-0.4-0.7-0.6-1.1-0.7
				C158.3,703.9,158.3,703.9,158.2,703.9z"/>
		</g>
	</g>
	<g>
		<g>
			<path class="st0" d="M179.4,694c0.4,1.1-0.1,2.4-1.2,2.9c-1.1,0.5-2.4-0.1-2.9-1.2c-0.5-1.1,0-2.4,1.2-2.9
				C177.6,692.4,178.9,692.9,179.4,694z"/>
			<path class="st1" d="M177.3,697.5c-1,0-2-0.6-2.5-1.6c-0.3-0.7-0.3-1.4,0-2c0.3-0.7,0.8-1.2,1.5-1.5c0.7-0.3,1.4-0.3,2.1,0
				c0.7,0.3,1.2,0.8,1.4,1.5c0.5,1.4-0.1,2.9-1.5,3.5C178,697.5,177.7,697.5,177.3,697.5z M177.3,693.1c-0.2,0-0.5,0-0.7,0.1
				c-0.4,0.2-0.8,0.5-1,1c-0.2,0.4-0.2,0.9,0,1.3c0.4,0.9,1.4,1.3,2.2,0.9c0.9-0.4,1.3-1.4,0.9-2.2l0,0c-0.2-0.4-0.5-0.8-0.9-0.9
				C177.8,693.2,177.6,693.1,177.3,693.1z"/>
		</g>
	</g>
	<g>
		<g>
			<path class="st0" d="M183.5,692.5c0.4,1.1-0.2,2.4-1.3,2.8c-1.1,0.4-2.4-0.1-2.8-1.3c-0.4-1.1,0.1-2.4,1.3-2.8
				C181.8,690.8,183.1,691.4,183.5,692.5z"/>
			<path class="st1" d="M181.4,695.9c-1.1,0-2.1-0.7-2.5-1.7c-0.3-0.7-0.2-1.4,0-2c0.3-0.7,0.8-1.2,1.5-1.4c0.7-0.3,1.4-0.2,2.1,0.1
				c0.6,0.3,1.1,0.8,1.4,1.5l0,0c0.5,1.4-0.2,2.9-1.6,3.4C182.1,695.9,181.7,695.9,181.4,695.9z M181.4,691.5c-0.2,0-0.4,0-0.6,0.1
				c-0.4,0.2-0.8,0.5-1,0.9c-0.2,0.4-0.2,0.9,0,1.3c0.3,0.9,1.3,1.3,2.2,1c0.9-0.3,1.3-1.3,1-2.2l0,0c-0.2-0.4-0.5-0.8-0.9-1
				C181.9,691.6,181.7,691.5,181.4,691.5z"/>
		</g>
	</g>
	<g>
		<g>
			<path class="st0" d="M187.7,691.1c0.4,1.2-0.2,2.4-1.4,2.8c-1.1,0.4-2.4-0.2-2.8-1.4c-0.4-1.1,0.2-2.4,1.4-2.8
				C186,689.3,187.3,689.9,187.7,691.1z"/>
			<path class="st1" d="M185.6,694.5c-1.1,0-2.1-0.7-2.5-1.8c-0.2-0.7-0.2-1.4,0.1-2c0.3-0.7,0.9-1.1,1.6-1.4
				c0.7-0.2,1.4-0.2,2.1,0.1c0.6,0.3,1.1,0.9,1.3,1.5c0.5,1.4-0.3,2.9-1.7,3.4C186.2,694.4,185.9,694.5,185.6,694.5z M185.6,690.1
				c-0.2,0-0.4,0-0.6,0.1c-0.4,0.2-0.8,0.5-1,0.9c-0.2,0.4-0.2,0.9-0.1,1.3c0.3,0.9,1.3,1.4,2.2,1.1c0.9-0.3,1.4-1.3,1.1-2.2l0,0
				c-0.1-0.4-0.4-0.8-0.8-1C186.1,690.1,185.9,690.1,185.6,690.1z"/>
		</g>
	</g>
	<g>
		<g>
			<path class="st0" d="M191.9,689.8c0.3,1.2-0.3,2.4-1.4,2.7c-1.1,0.4-2.4-0.3-2.8-1.4c-0.4-1.2,0.3-2.4,1.4-2.8
				C190.3,687.9,191.5,688.6,191.9,689.8z"/>
			<path class="st1" d="M189.8,693.1c-1.1,0-2.2-0.7-2.6-1.9c-0.2-0.7-0.2-1.4,0.2-2c0.3-0.6,0.9-1.1,1.6-1.3
				c0.7-0.2,1.4-0.2,2.1,0.2c0.6,0.3,1.1,0.9,1.3,1.6c0.4,1.4-0.4,2.9-1.8,3.3C190.3,693,190,693.1,189.8,693.1z M189.8,688.7
				c-0.2,0-0.4,0-0.5,0.1c-0.5,0.1-0.8,0.5-1,0.9c-0.2,0.4-0.2,0.9-0.1,1.3c0.3,0.9,1.3,1.4,2.2,1.1c0.9-0.3,1.4-1.2,1.1-2.2l0,0
				c-0.1-0.4-0.4-0.8-0.8-1C190.3,688.8,190.1,688.7,189.8,688.7z"/>
		</g>
	</g>
	<g>
		<g>
			<path class="st0" d="M196.1,688.5c0.2,0.6,0.1,1.2-0.2,1.7c-0.3,0.5-0.7,0.9-1.3,1c-1.2,0.3-2.4-0.3-2.7-1.5
				c-0.4-1.2,0.3-2.4,1.5-2.7c0.6-0.2,1.2-0.1,1.7,0.2C195.6,687.5,195.9,688,196.1,688.5z"/>
			<path class="st1" d="M194,691.8c-1.2,0-2.2-0.8-2.6-1.9c-0.2-0.7-0.1-1.4,0.2-2c0.3-0.6,0.9-1.1,1.6-1.3c0.7-0.2,1.4-0.1,2,0.2
				c0.6,0.4,1.1,0.9,1.3,1.6c0.2,0.7,0.1,1.4-0.2,2c-0.3,0.6-0.9,1.1-1.6,1.3C194.5,691.8,194.2,691.8,194,691.8z M194,687.4
				c-0.2,0-0.3,0-0.5,0.1c-0.4,0.1-0.8,0.4-1,0.8c-0.2,0.4-0.3,0.9-0.1,1.3c0.3,0.9,1.2,1.4,2.1,1.2c0.4-0.1,0.8-0.4,1-0.8
				c0.2-0.4,0.3-0.9,0.2-1.3c-0.1-0.4-0.4-0.8-0.8-1C194.6,687.5,194.3,687.4,194,687.4z"/>
		</g>
	</g>
	<g>
		<g>
			<path class="st0" d="M200.4,687.4c0.3,1.2-0.4,2.4-1.6,2.7c-1.2,0.3-2.4-0.4-2.7-1.5c-0.3-1.2,0.4-2.4,1.6-2.7
				C198.9,685.5,200.1,686.2,200.4,687.4z"/>
			<path class="st1" d="M198.2,690.6c-1.2,0-2.3-0.8-2.6-2c-0.2-0.7-0.1-1.4,0.2-2c0.4-0.6,0.9-1.1,1.6-1.3c0.7-0.2,1.4-0.1,2.1,0.3
				c0.6,0.4,1,0.9,1.2,1.6c0.4,1.4-0.5,2.9-1.9,3.3C198.7,690.6,198.5,690.6,198.2,690.6z M198.2,686.2c-0.2,0-0.3,0-0.5,0.1
				c-0.5,0.1-0.8,0.4-1.1,0.8c-0.2,0.4-0.3,0.9-0.2,1.3c0.3,0.9,1.2,1.5,2.1,1.2c0.9-0.2,1.5-1.2,1.2-2.1c-0.1-0.4-0.4-0.8-0.8-1
				C198.8,686.3,198.5,686.2,198.2,686.2z"/>
		</g>
	</g>
	<g>
		<g>
			<path class="st0" d="M204.6,686.3c0.3,1.2-0.4,2.4-1.6,2.7c-1.2,0.3-2.4-0.4-2.7-1.6c-0.3-1.2,0.4-2.4,1.6-2.7
				C203.2,684.4,204.4,685.2,204.6,686.3z"/>
			<path class="st1" d="M202.5,689.5c-1.2,0-2.3-0.8-2.6-2c-0.2-0.7-0.1-1.4,0.3-2c0.4-0.6,1-1.1,1.7-1.2c0.7-0.2,1.4-0.1,2,0.3
				c0.6,0.4,1,1,1.2,1.7l0,0c0.3,1.4-0.5,2.9-2,3.2C202.9,689.5,202.7,689.5,202.5,689.5z M202.5,685.1c-0.1,0-0.3,0-0.4,0.1
				c-0.5,0.1-0.8,0.4-1.1,0.8c-0.2,0.4-0.3,0.9-0.2,1.3c0.2,0.9,1.2,1.5,2.1,1.3c0.9-0.2,1.5-1.2,1.3-2.1l0,0
				c-0.1-0.4-0.4-0.8-0.8-1.1C203.1,685.2,202.8,685.1,202.5,685.1z"/>
		</g>
	</g>
	<g>
		<g>
			<path class="st0" d="M208.9,685.4c0.3,1.2-0.5,2.4-1.7,2.6s-2.4-0.5-2.6-1.6c-0.3-1.2,0.5-2.4,1.7-2.6
				C207.5,683.4,208.7,684.2,208.9,685.4z"/>
			<path class="st1" d="M206.8,688.5c-1.2,0-2.3-0.8-2.6-2.1c-0.2-0.7,0-1.4,0.3-2c0.4-0.6,1-1,1.7-1.2c0.7-0.2,1.4,0,2,0.4
				c0.6,0.4,1,1,1.2,1.7c0.3,1.4-0.6,2.9-2,3.2C207.2,688.5,207,688.5,206.8,688.5z M206.8,684.1c-0.1,0-0.3,0-0.4,0
				c-0.5,0.1-0.8,0.4-1.1,0.8c-0.2,0.4-0.3,0.9-0.2,1.3c0.2,0.9,1.1,1.5,2.1,1.3c0.9-0.2,1.5-1.1,1.3-2.1c-0.1-0.4-0.4-0.8-0.7-1.1
				C207.4,684.2,207.1,684.1,206.8,684.1z"/>
		</g>
	</g>
	<g>
		<g>
			<path class="st0" d="M213.2,684.4c0.2,1.2-0.5,2.3-1.7,2.6c-1.2,0.3-2.3-0.5-2.6-1.7c-0.3-1.2,0.5-2.4,1.7-2.6
				C211.8,682.5,213,683.3,213.2,684.4z"/>
			<path class="st1" d="M211.1,687.6c-1.2,0-2.3-0.9-2.6-2.1c-0.2-0.7,0-1.4,0.4-2c0.4-0.6,1-1,1.7-1.2c0.7-0.2,1.4,0,2,0.4
				c0.6,0.4,1,1,1.2,1.7l0,0c0.3,1.4-0.6,2.8-2.1,3.2C211.5,687.5,211.3,687.6,211.1,687.6z M211.1,683.2c-0.1,0-0.2,0-0.4,0
				c-0.5,0.1-0.9,0.4-1.1,0.8c-0.2,0.4-0.3,0.8-0.2,1.3c0.2,0.9,1.1,1.5,2,1.3c0.9-0.2,1.5-1.1,1.3-2l0,0c-0.1-0.5-0.4-0.8-0.7-1.1
				C211.8,683.3,211.4,683.2,211.1,683.2z"/>
		</g>
	</g>
	<g>
		<g>
			<path class="st0" d="M217.6,683.6c0.2,1.2-0.6,2.3-1.7,2.6c-1.2,0.2-2.3-0.5-2.6-1.7c-0.2-1.2,0.5-2.4,1.7-2.6
				C216.2,681.6,217.3,682.4,217.6,683.6z"/>
			<path class="st1" d="M215.4,686.7c-1.2,0-2.4-0.9-2.6-2.1c-0.1-0.7,0-1.4,0.4-2c0.4-0.6,1-1,1.7-1.1c0.7-0.1,1.4,0,2,0.4
				c0.6,0.4,1,1,1.1,1.7l0,0c0.3,1.4-0.7,2.9-2.1,3.1C215.7,686.7,215.6,686.7,215.4,686.7z M215.4,682.3c-0.1,0-0.2,0-0.3,0
				c-0.5,0.1-0.8,0.4-1.1,0.7c-0.3,0.4-0.3,0.8-0.3,1.3c0.2,0.9,1.1,1.5,2,1.3c0.9-0.2,1.5-1.1,1.4-2l0,0c-0.1-0.4-0.3-0.8-0.7-1.1
				C216.1,682.4,215.8,682.3,215.4,682.3z"/>
		</g>
	</g>
	<g>
		<g>
			<path class="st0" d="M221.9,682.8c0.2,1.2-0.6,2.3-1.8,2.6c-1.2,0.2-2.3-0.6-2.6-1.8c-0.2-1.2,0.6-2.3,1.8-2.6
				C220.5,680.8,221.7,681.6,221.9,682.8z"/>
			<path class="st1" d="M219.7,685.9c-1.3,0-2.4-0.9-2.6-2.2c-0.1-0.7,0-1.4,0.4-2c0.4-0.6,1-1,1.7-1.1c0.7-0.1,1.4,0,2,0.4
				c0.6,0.4,1,1,1.1,1.7l0,0c0.3,1.4-0.7,2.8-2.2,3.1C220.1,685.8,219.9,685.9,219.7,685.9z M219.7,681.5c-0.1,0-0.2,0-0.3,0
				c-0.5,0.1-0.9,0.3-1.1,0.7c-0.3,0.4-0.4,0.8-0.3,1.3c0.2,0.9,1.1,1.6,2,1.4c0.9-0.2,1.6-1.1,1.4-2l0,0c-0.1-0.5-0.3-0.8-0.7-1.1
				C220.4,681.6,220.1,681.5,219.7,681.5z"/>
		</g>
	</g>
	<g>
		<g>
			<path class="st0" d="M226.2,682.1c0.2,1.2-0.6,2.3-1.8,2.5c-1.2,0.2-2.3-0.6-2.5-1.8c-0.2-1.2,0.6-2.3,1.8-2.5
				C224.9,680.1,226.1,680.9,226.2,682.1z"/>
			<path class="st1" d="M224.1,685.1c-1.3,0-2.4-0.9-2.6-2.2c-0.1-0.7,0-1.4,0.4-2c0.4-0.6,1-1,1.7-1.1c0.7-0.1,1.4,0,2,0.5
				c0.6,0.4,1,1,1.1,1.7l0,0c0.2,1.5-0.8,2.8-2.2,3.1C224.4,685.1,224.2,685.1,224.1,685.1z M224.1,680.7c-0.1,0-0.2,0-0.3,0
				c-0.5,0.1-0.9,0.3-1.1,0.7c-0.3,0.4-0.4,0.8-0.3,1.3c0.2,0.9,1.1,1.6,2,1.4c0.9-0.2,1.6-1,1.4-2l0,0c-0.1-0.4-0.3-0.8-0.7-1.1
				C224.8,680.8,224.4,680.7,224.1,680.7z"/>
		</g>
	</g>
	<g>
		<g>
			<path class="st0" d="M230.6,681.4c0.2,1.2-0.6,2.3-1.8,2.5c-1.2,0.2-2.3-0.6-2.5-1.8c-0.2-1.2,0.6-2.3,1.8-2.5
				C229.3,679.4,230.4,680.2,230.6,681.4z"/>
			<path class="st1" d="M228.4,684.4c-1.3,0-2.4-0.9-2.7-2.2c-0.1-0.7,0.1-1.4,0.5-2c0.4-0.6,1-1,1.8-1.1c0.7-0.1,1.4,0.1,2,0.5
				c0.6,0.4,0.9,1,1.1,1.7l0,0c0.2,1.5-0.8,2.8-2.2,3C228.7,684.4,228.6,684.4,228.4,684.4z M228.4,680c-0.1,0-0.2,0-0.3,0
				c-0.5,0.1-0.9,0.3-1.1,0.7c-0.3,0.4-0.4,0.8-0.3,1.3c0.2,0.9,1,1.6,2,1.4c0.9-0.1,1.6-1,1.4-2l0,0c-0.1-0.5-0.3-0.9-0.7-1.1
				C229.2,680.1,228.8,680,228.4,680z"/>
		</g>
	</g>
	<g>
		<g>
			<path class="st0" d="M235,680.8c0.2,1.2-0.7,2.3-1.9,2.5c-1.2,0.2-2.3-0.7-2.5-1.9c-0.2-1.2,0.7-2.3,1.9-2.5
				C233.7,678.7,234.8,679.6,235,680.8z"/>
			<path class="st1" d="M232.8,683.7c-1.3,0-2.4-1-2.6-2.3c-0.1-0.7,0.1-1.4,0.5-2c0.4-0.6,1.1-1,1.8-1.1c0.7-0.1,1.4,0.1,2,0.5
				c0.6,0.4,0.9,1.1,1,1.8c0.2,1.4-0.8,2.8-2.3,3C233,683.7,232.9,683.7,232.8,683.7z M232.8,679.3c-0.1,0-0.2,0-0.3,0
				c-0.5,0.1-0.9,0.3-1.1,0.7c-0.3,0.4-0.4,0.8-0.3,1.3c0.1,0.9,1,1.6,2,1.5c0.9-0.1,1.6-1,1.5-1.9l0,0c-0.1-0.5-0.3-0.9-0.7-1.1
				C233.5,679.5,233.2,679.3,232.8,679.3z"/>
		</g>
	</g>
	<g>
		<g>
			<path class="st0" d="M239.3,680.2c0.2,1.2-0.7,2.3-1.9,2.5c-1.2,0.2-2.3-0.7-2.5-1.9c-0.2-1.2,0.7-2.3,1.9-2.5
				C238.1,678.1,239.2,679,239.3,680.2z"/>
			<path class="st1" d="M237.1,683.1c-1.3,0-2.5-1-2.7-2.3c-0.1-0.7,0.1-1.4,0.5-2c0.4-0.6,1.1-0.9,1.8-1c0.7-0.1,1.4,0.1,2,0.5
				c0.6,0.4,0.9,1.1,1,1.8c0.2,1.5-0.9,2.8-2.3,3C237.4,683.1,237.3,683.1,237.1,683.1z M237.1,678.7c-0.1,0-0.2,0-0.2,0
				c-0.5,0.1-0.9,0.3-1.1,0.7c-0.3,0.4-0.4,0.8-0.3,1.3c0.1,0.9,1,1.6,1.9,1.5c0.9-0.1,1.6-1,1.5-1.9l0,0c-0.1-0.5-0.3-0.9-0.6-1.1
				C237.9,678.9,237.5,678.7,237.1,678.7z"/>
		</g>
	</g>
	<g>
		<g>
			<path class="st0" d="M243.7,679.6c0.1,1.2-0.7,2.3-1.9,2.4c-1.2,0.1-2.3-0.7-2.5-1.9c-0.2-1.2,0.7-2.3,1.9-2.5
				C242.5,677.6,243.6,678.4,243.7,679.6z"/>
			<path class="st1" d="M241.5,682.6c-1.3,0-2.5-1-2.7-2.3c-0.1-0.7,0.1-1.4,0.5-2c0.4-0.6,1.1-0.9,1.8-1c0.7-0.1,1.4,0.1,2,0.6
				c0.6,0.4,0.9,1.1,1,1.8l0,0c0.2,1.5-0.9,2.8-2.3,3C241.7,682.6,241.6,682.6,241.5,682.6z M241.5,678.2c-0.1,0-0.1,0-0.2,0
				c-0.5,0.1-0.9,0.3-1.2,0.7c-0.3,0.4-0.4,0.8-0.3,1.3c0.1,0.9,1,1.6,1.9,1.5c0.9-0.1,1.6-1,1.5-1.9c-0.1-0.5-0.3-0.9-0.6-1.1
				C242.3,678.3,241.9,678.2,241.5,678.2z"/>
		</g>
	</g>
	<g>
		<g>
			<path class="st0" d="M248.1,679.2c0.1,1.2-0.7,2.3-2,2.4c-1.2,0.1-2.3-0.7-2.4-1.9c-0.1-1.2,0.7-2.3,1.9-2.4
				C246.9,677.1,248,678,248.1,679.2z"/>
			<path class="st1" d="M245.9,682.1c-1.3,0-2.5-1-2.7-2.4c-0.1-0.7,0.1-1.4,0.6-2c0.4-0.6,1.1-0.9,1.8-1c0.7-0.1,1.4,0.1,2,0.6
				c0.6,0.5,0.9,1.1,1,1.8c0.2,1.5-0.9,2.8-2.4,2.9C246.1,682.1,246,682.1,245.9,682.1z M245.9,677.7c-0.1,0-0.1,0-0.2,0
				c-0.5,0.1-0.9,0.3-1.2,0.6c-0.3,0.4-0.4,0.8-0.4,1.3c0.1,0.9,1,1.6,1.9,1.5c0.9-0.1,1.6-1,1.5-1.9l0,0c0-0.5-0.3-0.9-0.6-1.2
				C246.7,677.8,246.3,677.7,245.9,677.7z"/>
		</g>
	</g>
	<g>
		<g>
			<path class="st0" d="M252.5,678.7c0.1,1.2-0.8,2.3-2,2.4c-1.2,0.1-2.3-0.8-2.4-2c-0.1-1.2,0.8-2.3,2-2.4
				C251.3,676.6,252.4,677.5,252.5,678.7z"/>
			<path class="st1" d="M250.3,681.6c-1.3,0-2.5-1-2.7-2.4c-0.1-0.7,0.1-1.4,0.6-2c0.5-0.6,1.1-0.9,1.8-1c0.7-0.1,1.4,0.1,2,0.6
				c0.5,0.5,0.9,1.1,1,1.8l0,0c0.1,1.5-0.9,2.8-2.4,2.9C250.5,681.6,250.4,681.6,250.3,681.6z M250.3,677.2c-0.1,0-0.1,0-0.2,0
				c-0.5,0-0.9,0.3-1.2,0.6c-0.3,0.4-0.4,0.8-0.4,1.3c0.1,0.9,0.9,1.6,1.9,1.5c0.9-0.1,1.6-0.9,1.6-1.9l0,0c0-0.5-0.3-0.9-0.6-1.2
				C251.1,677.4,250.7,677.2,250.3,677.2z"/>
		</g>
	</g>
	<g>
		<g>
			<path class="st0" d="M256.9,678.3c0.1,1.2-0.8,2.3-2,2.4c-1.2,0.1-2.3-0.8-2.4-2c-0.1-1.2,0.8-2.3,2-2.4
				C255.7,676.2,256.8,677.1,256.9,678.3z"/>
			<path class="st1" d="M254.7,681.2c-1.4,0-2.5-1-2.7-2.4c-0.1-0.7,0.1-1.4,0.6-2c0.5-0.6,1.1-0.9,1.8-0.9c0.7-0.1,1.4,0.2,2,0.6
				c0.5,0.5,0.9,1.1,0.9,1.8c0.1,1.5-1,2.8-2.4,2.9C254.8,681.2,254.7,681.2,254.7,681.2z M254.7,676.8c-0.1,0-0.1,0-0.2,0
				c-0.5,0-0.9,0.3-1.2,0.6c-0.3,0.4-0.4,0.8-0.4,1.3c0.1,0.9,0.9,1.6,1.9,1.6c0.9-0.1,1.6-0.9,1.6-1.9v0c0-0.5-0.3-0.9-0.6-1.2
				C255.5,676.9,255.1,676.8,254.7,676.8z"/>
		</g>
	</g>
	<g>
		<g>
			<path class="st0" d="M261.3,678c0.1,1.2-0.8,2.3-2,2.4c-1.2,0.1-2.3-0.8-2.4-2c-0.1-1.2,0.8-2.3,2-2.4
				C260.1,675.9,261.2,676.8,261.3,678z"/>
			<path class="st1" d="M259.1,680.8c-1.4,0-2.5-1.1-2.7-2.5c-0.1-0.7,0.2-1.4,0.6-1.9c0.5-0.5,1.1-0.9,1.8-0.9
				c0.7-0.1,1.4,0.2,2,0.6c0.5,0.5,0.9,1.1,0.9,1.8l0,0c0.1,1.5-1,2.7-2.5,2.9C259.2,680.8,259.1,680.8,259.1,680.8z M259.1,676.4
				c0,0-0.1,0-0.1,0c-0.5,0-0.9,0.3-1.2,0.6c-0.3,0.3-0.4,0.8-0.4,1.2c0.1,0.9,0.9,1.7,1.9,1.6c0.9-0.1,1.7-0.9,1.6-1.9l0,0
				c0-0.5-0.2-0.9-0.6-1.2C259.9,676.6,259.5,676.4,259.1,676.4z"/>
		</g>
	</g>
	<g>
		<g>
			<path class="st0" d="M265.6,677.7c0.1,1.2-0.8,2.3-2,2.3c-1.2,0.1-2.3-0.8-2.4-2c-0.1-1.2,0.8-2.3,2-2.3
				C264.5,675.5,265.6,676.5,265.6,677.7z"/>
			<path class="st1" d="M263.4,680.5c-1.4,0-2.6-1.1-2.7-2.5c-0.1-0.7,0.2-1.4,0.6-1.9c0.5-0.5,1.1-0.9,1.8-0.9
				c0.7-0.1,1.4,0.2,2,0.7c0.5,0.5,0.9,1.1,0.9,1.8v0c0.1,1.5-1,2.7-2.5,2.8C263.6,680.5,263.5,680.5,263.4,680.5z M263.5,676.1
				c0,0-0.1,0-0.1,0c-0.5,0-0.9,0.2-1.2,0.6c-0.3,0.3-0.4,0.8-0.4,1.2c0.1,0.9,0.9,1.7,1.8,1.6c0.9-0.1,1.7-0.9,1.6-1.8
				c0-0.5-0.2-0.9-0.6-1.2C264.3,676.3,263.9,676.1,263.5,676.1z"/>
		</g>
	</g>
	<g>
		<g>
			<path class="st0" d="M270,677.4c0.1,1.2-0.9,2.2-2.1,2.3c-1.2,0.1-2.3-0.8-2.3-2.1c-0.1-1.2,0.8-2.3,2.1-2.3
				C268.9,675.3,270,676.2,270,677.4z"/>
			<path class="st1" d="M267.8,680.2c-1.4,0-2.6-1.1-2.7-2.5c0-0.7,0.2-1.4,0.7-1.9c0.5-0.5,1.1-0.9,1.9-0.9c0.7,0,1.4,0.2,2,0.7
				c0.5,0.5,0.8,1.1,0.9,1.8v0c0.1,1.5-1,2.7-2.5,2.8C268,680.2,267.9,680.2,267.8,680.2z M267.8,675.8c0,0-0.1,0-0.1,0
				c-0.5,0-0.9,0.2-1.2,0.6c-0.3,0.3-0.5,0.8-0.4,1.2c0.1,0.9,0.9,1.7,1.8,1.6c0.9-0.1,1.7-0.9,1.6-1.8c0-0.5-0.2-0.9-0.6-1.2
				C268.7,676,268.3,675.8,267.8,675.8z"/>
		</g>
	</g>
	<g>
		<g>
			<path class="st0" d="M274.4,677.2c0.1,1.2-0.9,2.2-2.1,2.3c-1.2,0.1-2.2-0.9-2.3-2.1c-0.1-1.2,0.9-2.3,2.1-2.3
				C273.4,675,274.4,676,274.4,677.2z"/>
			<path class="st1" d="M272.3,680c-1.4,0-2.6-1.1-2.7-2.5c0-0.7,0.2-1.4,0.7-1.9c0.5-0.5,1.1-0.8,1.9-0.9c0.7,0,1.4,0.2,1.9,0.7
				c0.5,0.5,0.8,1.1,0.9,1.8l0,0c0.1,1.5-1.1,2.7-2.5,2.8C272.3,680,272.3,680,272.3,680z M272.2,675.6
				C272.2,675.6,272.2,675.6,272.2,675.6c-0.6,0-1,0.2-1.3,0.6c-0.3,0.3-0.5,0.8-0.4,1.2c0.1,0.9,0.9,1.7,1.8,1.6
				c0.9,0,1.7-0.9,1.6-1.8l0,0c0-0.5-0.2-0.9-0.6-1.2C273.1,675.7,272.7,675.6,272.2,675.6z"/>
		</g>
	</g>
	<g>
		<g>
			<path class="st0" d="M278.9,677c0,1.2-0.9,2.2-2.1,2.3c-1.2,0-2.2-0.9-2.3-2.1c-0.1-1.2,0.9-2.2,2.1-2.3
				C277.8,674.9,278.8,675.8,278.9,677z"/>
			<path class="st1" d="M276.7,679.8c-1.4,0-2.6-1.1-2.7-2.6c0-0.7,0.2-1.4,0.7-1.9c0.5-0.5,1.1-0.8,1.9-0.9c0.7,0,1.4,0.2,1.9,0.7
				c0.5,0.5,0.8,1.1,0.8,1.9l0,0c0.1,1.5-1.1,2.7-2.6,2.8C276.7,679.8,276.7,679.8,276.7,679.8z M276.7,675.4
				C276.6,675.4,276.6,675.4,276.7,675.4c-0.5,0-1,0.2-1.3,0.6c-0.3,0.3-0.5,0.8-0.4,1.2c0,0.9,0.9,1.7,1.8,1.6
				c0.9,0,1.7-0.8,1.7-1.8l0,0c0-0.5-0.2-0.9-0.5-1.2C277.5,675.5,277.1,675.4,276.7,675.4z"/>
		</g>
	</g>
	<g>
		<g>
			<path class="st0" d="M283.3,676.9c0,1.2-0.9,2.2-2.1,2.3c-1.2,0-2.2-0.9-2.3-2.1c0-1.2,0.9-2.2,2.1-2.3
				C282.2,674.7,283.2,675.7,283.3,676.9z"/>
			<path class="st1" d="M281.1,679.6c-1.4,0-2.6-1.1-2.7-2.6c0-0.7,0.2-1.4,0.7-1.9c0.5-0.5,1.2-0.8,1.9-0.9c0.7,0,1.4,0.2,1.9,0.7
				c0.5,0.5,0.8,1.2,0.8,1.9l0,0C283.8,678.3,282.6,679.6,281.1,679.6C281.1,679.6,281.1,679.6,281.1,679.6z M281.1,675.2
				C281,675.2,281,675.2,281.1,675.2c-0.5,0-1,0.2-1.3,0.6c-0.3,0.3-0.5,0.8-0.5,1.2c0,0.9,0.8,1.7,1.8,1.7c0.9,0,1.7-0.8,1.7-1.8
				l0,0c0-0.5-0.2-0.9-0.5-1.2C281.9,675.4,281.5,675.2,281.1,675.2z"/>
		</g>
	</g>
	<g>
		<g>
			<path class="st0" d="M287.7,676.8c0,1.2-0.9,2.2-2.2,2.2c-1.2,0-2.2-0.9-2.3-2.1c0-1.2,0.9-2.2,2.2-2.3
				C286.6,674.6,287.6,675.5,287.7,676.8z"/>
			<path class="st1" d="M285.5,679.5c-1.4,0-2.6-1.2-2.7-2.6c0-0.7,0.2-1.4,0.7-1.9c0.5-0.5,1.2-0.8,1.9-0.8c0.7,0,1.4,0.2,1.9,0.7
				c0.5,0.5,0.8,1.2,0.8,1.9v0C288.2,678.2,287,679.4,285.5,679.5C285.5,679.5,285.5,679.5,285.5,679.5z M285.5,675.1
				C285.5,675.1,285.4,675.1,285.5,675.1c-0.5,0-0.9,0.2-1.3,0.5c-0.3,0.3-0.5,0.8-0.5,1.2c0,0.9,0.8,1.7,1.8,1.7
				c0.9,0,1.7-0.8,1.7-1.8v0c0-0.5-0.2-0.9-0.5-1.2C286.3,675.3,285.9,675.1,285.5,675.1z"/>
		</g>
	</g>
	<g>
		<g>
			<path class="st0" d="M292.1,676.7c0,1.2-1,2.2-2.2,2.2c-1.2,0-2.2-0.9-2.2-2.2c0-1.2,0.9-2.2,2.2-2.2
				C291.1,674.5,292.1,675.5,292.1,676.7z"/>
			<path class="st1" d="M289.9,679.4c-1.4,0-2.6-1.2-2.7-2.6c0-0.7,0.2-1.4,0.7-1.9c0.5-0.5,1.2-0.8,1.9-0.8c0,0,0,0,0,0
				c0.7,0,1.4,0.3,1.9,0.8c0.5,0.5,0.8,1.2,0.8,1.9C292.6,678.2,291.4,679.4,289.9,679.4C289.9,679.4,289.9,679.4,289.9,679.4z
				 M289.9,675C289.9,675,289.8,675,289.9,675c-0.5,0-0.9,0.2-1.2,0.5c-0.3,0.3-0.5,0.8-0.5,1.2c0,0.9,0.8,1.7,1.7,1.7c0,0,0,0,0,0
				c0.9,0,1.7-0.8,1.7-1.7l0,0c0-0.5-0.2-0.9-0.5-1.2C290.7,675.2,290.3,675,289.9,675z"/>
		</g>
	</g>
	<g>
		<g>
			<path class="st0" d="M296.5,676.7c0,1.2-1,2.2-2.2,2.2c-1.2,0-2.2-1-2.2-2.2c0-1.2,1-2.2,2.2-2.2
				C295.5,674.5,296.5,675.5,296.5,676.7z"/>
			<path class="st1" d="M294.3,679.3c-1.5,0-2.7-1.2-2.7-2.6c0-0.7,0.3-1.4,0.8-1.9c0.5-0.5,1.2-0.8,1.9-0.8c0,0,0,0,0,0
				c0.7,0,1.4,0.3,1.9,0.8c0.5,0.5,0.8,1.2,0.8,1.9l0,0C297,678.1,295.8,679.3,294.3,679.3C294.3,679.3,294.3,679.3,294.3,679.3z
				 M294.3,675C294.3,675,294.3,675,294.3,675c-0.5,0-0.9,0.2-1.2,0.5c-0.3,0.3-0.5,0.8-0.5,1.2c0,0.9,0.8,1.7,1.7,1.7c0,0,0,0,0,0
				c0.9,0,1.7-0.8,1.7-1.7v0c0-0.5-0.2-0.9-0.5-1.2C295.2,675.1,294.7,675,294.3,675z"/>
		</g>
	</g>
	<g>
		<g>
			<path class="st0" d="M300.9,676.7c0,1.2-1,2.2-2.2,2.2c-1.2,0-2.2-1-2.2-2.2c0-1.2,1-2.2,2.2-2.2
				C299.9,674.5,300.9,675.5,300.9,676.7z"/>
			<path class="st1" d="M298.7,679.3C298.7,679.3,298.7,679.3,298.7,679.3c-1.5,0-2.7-1.2-2.7-2.7c0-0.7,0.3-1.4,0.8-1.9
				c0.5-0.5,1.2-0.8,1.9-0.8c0,0,0,0,0,0c0.7,0,1.4,0.3,1.9,0.8c0.5,0.5,0.8,1.2,0.8,1.9C301.3,678.1,300.1,679.3,298.7,679.3z
				 M298.7,674.9c-0.5,0-0.9,0.2-1.2,0.5c-0.3,0.3-0.5,0.8-0.5,1.2c0,0.9,0.8,1.7,1.7,1.7c0,0,0,0,0,0c0.9,0,1.7-0.8,1.7-1.7
				c0-0.5-0.2-0.9-0.5-1.2C299.6,675.1,299.1,674.9,298.7,674.9C298.7,674.9,298.7,674.9,298.7,674.9z"/>
		</g>
	</g>
	<g>
		<g>
			<path class="st0" d="M305.3,676.7c0,1.2-1,2.2-2.2,2.2c-1.2,0-2.2-1-2.2-2.2c0-1.2,1-2.2,2.2-2.2
				C304.3,674.5,305.3,675.5,305.3,676.7z"/>
			<path class="st1" d="M303.1,679.4C303.1,679.4,303.1,679.4,303.1,679.4c-1.5,0-2.7-1.2-2.7-2.7c0-0.7,0.3-1.4,0.8-1.9
				c0.5-0.5,1.2-0.8,1.9-0.8c0.7,0,1.4,0.3,1.9,0.8c0.5,0.5,0.8,1.2,0.8,1.9l0,0C305.7,678.2,304.5,679.4,303.1,679.4z M303.1,675
				c-0.5,0-0.9,0.2-1.2,0.5c-0.3,0.3-0.5,0.8-0.5,1.2c0,0.9,0.8,1.7,1.7,1.7c1,0,1.7-0.8,1.7-1.7c0-0.5-0.2-0.9-0.5-1.2
				C304,675.2,303.6,675,303.1,675C303.1,675,303.1,675,303.1,675z"/>
		</g>
	</g>
	<g>
		<g>
			<path class="st0" d="M309.7,676.8c0,1.2-1,2.2-2.2,2.2c-1.2,0-2.2-1-2.2-2.2c0-1.2,1-2.2,2.2-2.2
				C308.8,674.6,309.7,675.6,309.7,676.8z"/>
			<path class="st1" d="M307.5,679.4C307.5,679.4,307.5,679.4,307.5,679.4c-1.5,0-2.7-1.2-2.7-2.7c0-0.7,0.3-1.4,0.8-1.9
				c0.5-0.5,1.2-0.8,1.9-0.8c0.7,0,1.4,0.3,1.9,0.8c0.5,0.5,0.8,1.2,0.7,1.9l0,0C310.1,678.3,308.9,679.4,307.5,679.4z M307.5,675
				c-0.5,0-0.9,0.2-1.2,0.5c-0.3,0.3-0.5,0.7-0.5,1.2c0,0.9,0.7,1.7,1.7,1.8c0,0,0,0,0,0c0.9,0,1.7-0.8,1.7-1.7l0,0
				c0-0.5-0.2-0.9-0.5-1.2C308.4,675.2,308,675,307.5,675C307.5,675,307.5,675,307.5,675z"/>
		</g>
	</g>
	<g>
		<g>
			<path class="st0" d="M314.1,676.9c0,1.2-1.1,2.2-2.3,2.1c-1.2,0-2.2-1-2.1-2.3c0-1.2,1-2.2,2.3-2.1
				C313.2,674.7,314.1,675.7,314.1,676.9z"/>
			<path class="st1" d="M311.9,679.5C311.9,679.5,311.8,679.5,311.9,679.5c-1.5,0-2.7-1.3-2.7-2.7c0-0.7,0.3-1.4,0.8-1.9
				c0.5-0.5,1.2-0.8,1.9-0.7c0.7,0,1.4,0.3,1.9,0.8c0.5,0.5,0.8,1.2,0.7,1.9l0,0C314.5,678.4,313.3,679.5,311.9,679.5z M311.9,675.1
				c-0.5,0-0.9,0.2-1.2,0.5c-0.3,0.3-0.5,0.7-0.5,1.2c0,0.9,0.7,1.7,1.7,1.8c0.9,0,1.7-0.7,1.8-1.7c0-0.5-0.2-0.9-0.5-1.2
				C312.8,675.3,312.4,675.2,311.9,675.1C311.9,675.1,311.9,675.1,311.9,675.1z"/>
		</g>
	</g>
	<g>
		<g>
			<path class="st0" d="M318.5,677.1c-0.1,1.2-1.1,2.2-2.3,2.1c-1.2,0-2.2-1.1-2.1-2.3c0-1.2,1.1-2.2,2.3-2.1
				C317.6,674.9,318.6,675.9,318.5,677.1z"/>
			<path class="st1" d="M316.3,679.7c0,0-0.1,0-0.1,0c-1.5,0-2.6-1.3-2.6-2.8c0-0.7,0.3-1.4,0.8-1.9c0.5-0.5,1.2-0.7,1.9-0.7
				c0.7,0,1.4,0.3,1.9,0.9c0.5,0.5,0.7,1.2,0.7,1.9l0,0C318.9,678.6,317.7,679.7,316.3,679.7z M316.3,675.3c-0.4,0-0.9,0.2-1.2,0.5
				c-0.3,0.3-0.5,0.7-0.5,1.2c0,0.9,0.7,1.7,1.7,1.8c0.9,0,1.8-0.7,1.8-1.7l0,0c0-0.5-0.1-0.9-0.5-1.2
				C317.3,675.5,316.8,675.3,316.3,675.3C316.3,675.3,316.3,675.3,316.3,675.3z"/>
		</g>
	</g>
	<g>
		<g>
			<path class="st0" d="M322.9,677.3c-0.1,1.2-1.1,2.1-2.3,2.1c-1.2-0.1-2.1-1.1-2.1-2.3c0-1.2,1.1-2.2,2.3-2.1
				C322,675.1,323,676.1,322.9,677.3z"/>
			<path class="st1" d="M320.7,679.9c0,0-0.1,0-0.1,0c-1.5-0.1-2.6-1.3-2.6-2.8c0-0.7,0.3-1.4,0.9-1.9c0.5-0.5,1.2-0.7,1.9-0.7
				c0.7,0,1.4,0.3,1.9,0.9c0.5,0.5,0.7,1.2,0.7,1.9C323.3,678.8,322.1,679.9,320.7,679.9z M320.7,675.5c-0.4,0-0.8,0.2-1.2,0.5
				c-0.3,0.3-0.5,0.7-0.6,1.2c0,0.9,0.7,1.7,1.6,1.8c0.9,0,1.8-0.7,1.8-1.6l0,0c0-0.5-0.1-0.9-0.4-1.2
				C321.7,675.7,321.2,675.5,320.7,675.5C320.8,675.5,320.7,675.5,320.7,675.5z"/>
		</g>
	</g>
	<g>
		<g>
			<path class="st0" d="M327.3,677.5c-0.1,1.2-1.1,2.1-2.3,2.1c-1.2-0.1-2.1-1.1-2.1-2.3c0.1-1.2,1.1-2.1,2.3-2.1
				C326.4,675.3,327.4,676.3,327.3,677.5z"/>
			<path class="st1" d="M325.1,680.1c-0.1,0-0.1,0-0.2,0c-1.5-0.1-2.6-1.3-2.5-2.8c0-0.7,0.3-1.4,0.9-1.8c0.5-0.5,1.2-0.7,1.9-0.7
				c0.7,0,1.4,0.4,1.9,0.9c0.5,0.5,0.7,1.2,0.7,1.9C327.7,679,326.5,680.1,325.1,680.1z M325.1,675.7c-0.4,0-0.8,0.2-1.1,0.4
				c-0.3,0.3-0.5,0.7-0.6,1.2c0,0.9,0.7,1.8,1.6,1.8c0.9,0.1,1.8-0.7,1.8-1.6c0-0.5-0.1-0.9-0.4-1.2c-0.3-0.3-0.7-0.6-1.2-0.6
				C325.2,675.7,325.1,675.7,325.1,675.7z"/>
		</g>
	</g>
	<g>
		<g>
			<path class="st0" d="M331.7,677.8c-0.1,1.2-1.1,2.1-2.3,2c-1.2-0.1-2.1-1.1-2.1-2.3c0.1-1.2,1.1-2.1,2.3-2.1
				C330.9,675.6,331.8,676.6,331.7,677.8z"/>
			<path class="st1" d="M329.5,680.4c-0.1,0-0.1,0-0.2,0c-1.5-0.1-2.6-1.4-2.5-2.8c0-0.7,0.4-1.4,0.9-1.8c0.5-0.5,1.2-0.7,2-0.7
				c0.7,0,1.4,0.4,1.8,0.9c0.5,0.5,0.7,1.2,0.7,1.9l-0.5,0l0.5,0C332.1,679.3,330.9,680.4,329.5,680.4z M329.5,676
				c-0.4,0-0.8,0.2-1.1,0.4c-0.3,0.3-0.5,0.7-0.6,1.2c-0.1,0.9,0.7,1.8,1.6,1.8c0.9,0.1,1.8-0.7,1.8-1.6l0,0c0-0.5-0.1-0.9-0.4-1.2
				c-0.3-0.3-0.7-0.6-1.2-0.6C329.6,676,329.5,676,329.5,676z"/>
		</g>
	</g>
	<g>
		<g>
			<path class="st0" d="M336.1,678.2c-0.1,1.2-1.2,2.1-2.4,2c-1.2-0.1-2.1-1.1-2-2.3s1.1-2.1,2.4-2
				C335.3,675.9,336.2,676.9,336.1,678.2z"/>
			<path class="st1" d="M333.9,680.7c-0.1,0-0.1,0-0.2,0c-1.5-0.1-2.6-1.4-2.5-2.9c0-0.7,0.4-1.4,0.9-1.8c0.5-0.5,1.2-0.7,2-0.7
				c0.7,0.1,1.4,0.4,1.8,0.9c0.5,0.5,0.7,1.2,0.6,1.9l0,0C336.5,679.6,335.3,680.7,333.9,680.7z M333.9,676.3
				c-0.4,0-0.8,0.1-1.1,0.4c-0.3,0.3-0.6,0.7-0.6,1.2c-0.1,0.9,0.6,1.8,1.6,1.8c0.9,0.1,1.8-0.6,1.9-1.6c0-0.5-0.1-0.9-0.4-1.3
				c-0.3-0.4-0.7-0.6-1.2-0.6C334,676.3,333.9,676.3,333.9,676.3z"/>
		</g>
	</g>
	<g>
		<g>
			<path class="st0" d="M340.5,678.5c-0.1,1.2-1.2,2.1-2.4,2c-1.2-0.1-2.1-1.2-2-2.4c0.1-1.2,1.2-2.1,2.4-2
				C339.7,676.3,340.6,677.3,340.5,678.5z"/>
			<path class="st1" d="M338.3,681c-0.1,0-0.2,0-0.2,0c-1.5-0.1-2.6-1.4-2.4-2.9c0.1-0.7,0.4-1.4,0.9-1.8c0.5-0.5,1.2-0.7,2-0.6
				c0.7,0.1,1.4,0.4,1.8,1c0.5,0.5,0.7,1.2,0.6,1.9C340.8,680,339.7,681,338.3,681z M338.3,676.6c-0.4,0-0.8,0.1-1.1,0.4
				c-0.3,0.3-0.6,0.7-0.6,1.2c-0.1,0.9,0.6,1.8,1.6,1.9c0.9,0.1,1.8-0.6,1.9-1.6l0,0c0-0.5-0.1-0.9-0.4-1.2
				c-0.3-0.4-0.7-0.6-1.2-0.6C338.4,676.6,338.3,676.6,338.3,676.6z"/>
		</g>
	</g>
	<g>
		<g>
			<path class="st0" d="M344.9,678.9c-0.1,1.2-1.2,2.1-2.4,2c-1.2-0.1-2.1-1.2-2-2.4c0.1-1.2,1.2-2.1,2.4-2
				C344.1,676.7,345,677.7,344.9,678.9z"/>
			<path class="st1" d="M342.7,681.4c-0.1,0-0.2,0-0.3,0c-1.5-0.1-2.5-1.4-2.4-2.9c0.1-0.7,0.4-1.4,1-1.8c0.6-0.5,1.3-0.7,2-0.6
				c0.7,0.1,1.4,0.4,1.8,1c0.5,0.6,0.7,1.2,0.6,1.9C345.2,680.4,344,681.4,342.7,681.4z M342.7,677c-0.4,0-0.8,0.1-1.1,0.4
				c-0.4,0.3-0.6,0.7-0.6,1.2c-0.1,0.9,0.6,1.8,1.6,1.9c0.9,0.1,1.8-0.6,1.9-1.6l0,0c0-0.5-0.1-0.9-0.4-1.3
				c-0.3-0.4-0.7-0.6-1.2-0.6C342.8,677,342.7,677,342.7,677z"/>
		</g>
	</g>
	<g>
		<g>
			<path class="st0" d="M349.3,679.4c-0.1,1.2-1.2,2.1-2.4,2c-1.2-0.1-2.1-1.2-2-2.4c0.1-1.2,1.2-2.1,2.4-2
				C348.5,677.1,349.4,678.2,349.3,679.4z"/>
			<path class="st1" d="M347.1,681.8c-0.1,0-0.2,0-0.3,0c-1.5-0.2-2.5-1.5-2.4-2.9c0.1-0.7,0.4-1.3,1-1.8c0.6-0.5,1.3-0.7,2-0.6
				c0.7,0.1,1.4,0.4,1.8,1c0.4,0.6,0.7,1.3,0.6,2l0,0C349.6,680.8,348.4,681.8,347.1,681.8z M347.1,677.4c-0.4,0-0.8,0.1-1.1,0.4
				c-0.4,0.3-0.6,0.7-0.6,1.2c-0.1,0.9,0.6,1.8,1.5,1.9c0.9,0.1,1.8-0.6,1.9-1.5c0.1-0.5-0.1-0.9-0.4-1.3c-0.3-0.4-0.7-0.6-1.2-0.6
				C347.2,677.4,347.1,677.4,347.1,677.4z"/>
		</g>
	</g>
	<g>
		<g>
			<path class="st0" d="M353.6,679.9c-0.1,1.2-1.2,2.1-2.4,1.9c-1.2-0.1-2.1-1.2-1.9-2.4c0.1-1.2,1.2-2.1,2.4-1.9
				C352.9,677.6,353.8,678.7,353.6,679.9z"/>
			<path class="st1" d="M351.4,682.3c-0.1,0-0.2,0-0.3,0c-1.5-0.2-2.5-1.5-2.4-3c0.1-0.7,0.4-1.3,1-1.8c0.6-0.5,1.3-0.7,2-0.6
				c0.7,0.1,1.4,0.4,1.8,1c0.4,0.6,0.6,1.3,0.6,2l0,0C353.9,681.3,352.8,682.3,351.4,682.3z M351.4,677.9c-0.4,0-0.8,0.1-1.1,0.4
				c-0.4,0.3-0.6,0.7-0.6,1.1c-0.1,0.9,0.6,1.8,1.5,1.9c0.9,0.1,1.8-0.6,1.9-1.5c0.1-0.5-0.1-0.9-0.4-1.3c-0.3-0.4-0.7-0.6-1.2-0.6
				C351.6,677.9,351.5,677.9,351.4,677.9z"/>
		</g>
	</g>
	<g>
		<g>
			<path class="st0" d="M358,680.5c-0.2,1.2-1.3,2.1-2.5,1.9c-1.2-0.2-2.1-1.2-1.9-2.4c0.1-1.2,1.2-2.1,2.5-1.9
				C357.3,678.1,358.2,679.3,358,680.5z"/>
			<path class="st1" d="M355.8,682.8c-0.1,0-0.2,0-0.3,0c-1.5-0.2-2.5-1.5-2.3-3c0.1-0.7,0.4-1.3,1-1.8c0.6-0.4,1.3-0.6,2-0.5
				c0.7,0.1,1.4,0.5,1.8,1c0.4,0.6,0.6,1.3,0.5,2C358.3,681.9,357.1,682.8,355.8,682.8z M355.8,678.4c-0.4,0-0.7,0.1-1.1,0.4
				c-0.4,0.3-0.6,0.7-0.6,1.1c-0.1,0.9,0.6,1.8,1.5,1.9c0.9,0.1,1.8-0.5,1.9-1.5c0.1-0.5-0.1-0.9-0.3-1.3c-0.3-0.4-0.7-0.6-1.2-0.7
				C356,678.5,355.9,678.4,355.8,678.4z"/>
		</g>
	</g>
	<g>
		<g>
			<path class="st0" d="M362.4,681.1c-0.2,1.2-1.3,2-2.5,1.9c-1.2-0.2-2-1.3-1.9-2.5c0.2-1.2,1.3-2,2.5-1.9
				C361.7,678.7,362.5,679.9,362.4,681.1z"/>
			<path class="st1" d="M360.2,683.4c-0.1,0-0.2,0-0.4,0c-1.5-0.2-2.5-1.6-2.3-3c0.1-0.7,0.5-1.3,1-1.8c0.6-0.4,1.3-0.6,2-0.5
				c0.7,0.1,1.3,0.5,1.8,1c0.4,0.6,0.6,1.3,0.5,2C362.6,682.5,361.5,683.4,360.2,683.4z M360.2,679c-0.4,0-0.7,0.1-1,0.4
				c-0.4,0.3-0.6,0.7-0.7,1.1c-0.1,0.9,0.5,1.8,1.5,1.9c0.9,0.1,1.8-0.5,1.9-1.5l0,0c0.1-0.5-0.1-0.9-0.3-1.3
				c-0.3-0.4-0.7-0.6-1.1-0.7C360.3,679,360.3,679,360.2,679z"/>
		</g>
	</g>
	<g>
		<g>
			<path class="st0" d="M366.7,681.7c-0.2,1.2-1.3,2-2.5,1.8c-1.2-0.2-2-1.3-1.9-2.5c0.2-1.2,1.3-2,2.5-1.9
				C366.1,679.4,366.9,680.5,366.7,681.7z"/>
			<path class="st1" d="M364.5,684c-0.1,0-0.3,0-0.4,0c-1.5-0.2-2.5-1.6-2.3-3c0.1-0.7,0.5-1.3,1-1.8c0.6-0.4,1.3-0.6,2-0.5
				c0.7,0.1,1.3,0.5,1.8,1.1c0.4,0.6,0.6,1.3,0.5,2l0,0C367,683.1,365.8,684,364.5,684z M364.5,679.7c-0.4,0-0.7,0.1-1,0.3
				c-0.4,0.3-0.6,0.7-0.7,1.1c-0.1,0.9,0.5,1.8,1.5,2c0.9,0.1,1.8-0.5,2-1.4h0c0.1-0.5,0-0.9-0.3-1.3c-0.3-0.4-0.7-0.6-1.1-0.7
				C364.7,679.7,364.6,679.7,364.5,679.7z"/>
		</g>
	</g>
	<g>
		<g>
			<path class="st0" d="M371.1,682.4c-0.2,1.2-1.3,2-2.5,1.8c-1.2-0.2-2-1.3-1.8-2.5c0.2-1.2,1.3-2,2.5-1.8
				C370.5,680.1,371.3,681.2,371.1,682.4z"/>
			<path class="st1" d="M368.9,684.7c-0.1,0-0.3,0-0.4,0c-1.4-0.2-2.4-1.6-2.2-3.1c0.1-0.7,0.5-1.3,1.1-1.7c0.6-0.4,1.3-0.6,2-0.5
				c0.7,0.1,1.3,0.5,1.8,1.1c0.4,0.6,0.6,1.3,0.5,2C371.3,683.8,370.2,684.7,368.9,684.7z M368.9,680.3c-0.4,0-0.7,0.1-1,0.3
				c-0.4,0.3-0.6,0.7-0.7,1.1c-0.1,0.9,0.5,1.8,1.4,2c0.9,0.2,1.8-0.5,2-1.4c0.1-0.4,0-0.9-0.3-1.3c-0.3-0.4-0.7-0.6-1.1-0.7
				C369.1,680.3,369,680.3,368.9,680.3z"/>
		</g>
	</g>
	<g>
		<g>
			<path class="st0" d="M375.4,683.2c-0.2,1.2-1.4,2-2.5,1.8c-1.2-0.2-2-1.3-1.8-2.5c0.2-1.2,1.3-2,2.6-1.8
				C374.8,680.8,375.6,682,375.4,683.2z"/>
			<path class="st1" d="M373.2,685.5c-0.1,0-0.3,0-0.5,0c-1.4-0.3-2.4-1.6-2.2-3.1c0.1-0.7,0.5-1.3,1.1-1.7c0.6-0.4,1.3-0.6,2-0.5
				c0.7,0.1,1.3,0.5,1.7,1.1c0.4,0.6,0.6,1.3,0.4,2l0,0C375.6,684.6,374.5,685.5,373.2,685.5z M373.2,681.1c-0.4,0-0.7,0.1-1,0.3
				c-0.4,0.3-0.6,0.7-0.7,1.1c-0.2,0.9,0.5,1.8,1.4,2c0.9,0.2,1.8-0.5,2-1.4l0,0c0.1-0.5,0-0.9-0.3-1.3c-0.3-0.4-0.7-0.6-1.1-0.7
				C373.4,681.1,373.3,681.1,373.2,681.1z"/>
		</g>
	</g>
	<g>
		<g>
			<path class="st0" d="M379.7,684c-0.2,1.2-1.4,2-2.6,1.7c-1.2-0.2-2-1.4-1.8-2.6c0.2-1.2,1.4-2,2.6-1.8
				C379.2,681.7,380,682.8,379.7,684z"/>
			<path class="st1" d="M377.6,686.3c-0.2,0-0.3,0-0.5,0c-1.4-0.3-2.4-1.7-2.1-3.1c0.1-0.7,0.5-1.3,1.1-1.7c0.6-0.4,1.3-0.6,2-0.4
				c0.7,0.1,1.3,0.5,1.7,1.1c0.4,0.6,0.5,1.3,0.4,2l0,0C380,685.4,378.8,686.3,377.6,686.3z M377.6,681.9c-0.3,0-0.7,0.1-1,0.3
				c-0.4,0.3-0.6,0.7-0.7,1.1c-0.2,0.9,0.4,1.8,1.4,2c0.9,0.2,1.8-0.4,2-1.4l0,0c0.1-0.4,0-0.9-0.3-1.3c-0.3-0.4-0.7-0.6-1.1-0.7
				C377.8,681.9,377.7,681.9,377.6,681.9z"/>
		</g>
	</g>
	<g>
		<g>
			<path class="st0" d="M384.1,684.9c-0.3,1.2-1.4,1.9-2.6,1.7c-1.2-0.2-2-1.4-1.7-2.6c0.2-1.2,1.4-2,2.6-1.7
				C383.6,682.5,384.3,683.7,384.1,684.9z"/>
			<path class="st1" d="M381.9,687.1c-0.2,0-0.3,0-0.5-0.1c-1.4-0.3-2.4-1.7-2.1-3.1c0.1-0.7,0.5-1.3,1.1-1.7c0.6-0.4,1.3-0.5,2-0.4
				c0.7,0.1,1.3,0.6,1.7,1.2c0.4,0.6,0.5,1.3,0.4,2l0,0C384.3,686.2,383.1,687.1,381.9,687.1z M381.9,682.7c-0.3,0-0.7,0.1-1,0.3
				c-0.4,0.3-0.6,0.6-0.7,1.1c-0.2,0.9,0.4,1.8,1.3,2c0.9,0.2,1.8-0.4,2-1.3c0.1-0.4,0-0.9-0.2-1.3c-0.3-0.4-0.6-0.7-1.1-0.7
				C382.1,682.7,382,682.7,381.9,682.7z"/>
		</g>
	</g>
	<g>
		<g>
			<path class="st0" d="M388.4,685.8c-0.3,1.2-1.4,1.9-2.6,1.7c-1.2-0.3-1.9-1.4-1.7-2.6c0.3-1.2,1.4-1.9,2.6-1.7
				C387.9,683.5,388.6,684.7,388.4,685.8z"/>
			<path class="st1" d="M386.2,688c-0.2,0-0.4,0-0.6-0.1c-1.4-0.3-2.3-1.7-2-3.2c0.1-0.7,0.6-1.3,1.2-1.7c0.6-0.4,1.3-0.5,2-0.4
				c0.7,0.2,1.3,0.6,1.7,1.2c0.4,0.6,0.5,1.3,0.3,2C388.5,687.2,387.4,688,386.2,688z M386.2,683.6c-0.3,0-0.7,0.1-0.9,0.3
				c-0.4,0.2-0.6,0.6-0.7,1.1c-0.2,0.9,0.4,1.8,1.3,2c0.9,0.2,1.8-0.4,2.1-1.3c0.1-0.4,0-0.9-0.2-1.3c-0.2-0.4-0.6-0.7-1.1-0.8
				C386.5,683.6,386.3,683.6,386.2,683.6z"/>
		</g>
	</g>
	<g>
		<g>
			<path class="st0" d="M392.7,686.9c-0.3,1.2-1.5,1.9-2.7,1.6c-1.2-0.3-1.9-1.5-1.6-2.6c0.3-1.2,1.5-1.9,2.7-1.6
				C392.2,684.5,392.9,685.7,392.7,686.9z"/>
			<path class="st1" d="M390.5,689c-0.2,0-0.4,0-0.6-0.1c-1.4-0.3-2.3-1.8-2-3.2c0.2-0.7,0.6-1.3,1.2-1.7c0.6-0.4,1.3-0.5,2-0.3
				c0.7,0.2,1.3,0.6,1.7,1.2c0.4,0.6,0.5,1.3,0.3,2l0,0C392.8,688.2,391.7,689,390.5,689z M390.5,684.6c-0.3,0-0.6,0.1-0.9,0.3
				c-0.4,0.2-0.7,0.6-0.8,1.1c-0.2,0.9,0.4,1.9,1.3,2.1c0.9,0.2,1.8-0.4,2.1-1.3l0,0c0.1-0.4,0-0.9-0.2-1.3
				c-0.2-0.4-0.6-0.7-1.1-0.8C390.8,684.6,390.6,684.6,390.5,684.6z"/>
		</g>
	</g>
	<g>
		<g>
			<path class="st0" d="M396.9,688c-0.3,1.2-1.5,1.9-2.7,1.6c-1.2-0.3-1.9-1.5-1.6-2.7c0.3-1.2,1.5-1.9,2.7-1.6
				C396.5,685.6,397.2,686.8,396.9,688z"/>
			<path class="st1" d="M394.8,690.1c-0.2,0-0.4,0-0.7-0.1c-1.4-0.4-2.3-1.8-1.9-3.2c0.2-0.7,0.6-1.3,1.2-1.6c0.6-0.4,1.3-0.5,2-0.3
				c0.7,0.2,1.3,0.6,1.7,1.3c0.4,0.6,0.5,1.3,0.3,2l0,0C397.1,689.3,396,690.1,394.8,690.1z M394.8,685.7c-0.3,0-0.6,0.1-0.9,0.2
				c-0.4,0.2-0.7,0.6-0.8,1.1c-0.2,0.9,0.3,1.9,1.2,2.1c0.9,0.2,1.9-0.3,2.1-1.2l0,0c0.1-0.4,0.1-0.9-0.2-1.3
				c-0.2-0.4-0.6-0.7-1.1-0.8C395.1,685.7,394.9,685.7,394.8,685.7z"/>
		</g>
	</g>
	<g>
		<g>
			<path class="st0" d="M401.2,689.1c-0.3,1.2-1.5,1.8-2.7,1.5c-1.2-0.3-1.8-1.5-1.5-2.7c0.3-1.2,1.5-1.9,2.7-1.5
				C400.8,686.7,401.5,688,401.2,689.1z"/>
			<path class="st1" d="M399,691.2c-0.2,0-0.5,0-0.7-0.1c-1.4-0.4-2.2-1.9-1.9-3.3c0.2-0.7,0.6-1.3,1.2-1.6c0.6-0.4,1.4-0.5,2.1-0.3
				c0.7,0.2,1.3,0.6,1.6,1.3c0.4,0.6,0.4,1.4,0.2,2l0,0C401.3,690.4,400.2,691.2,399,691.2z M399,686.8c-0.3,0-0.6,0.1-0.9,0.2
				c-0.4,0.2-0.7,0.6-0.8,1c-0.2,0.9,0.3,1.9,1.2,2.1c0.9,0.3,1.9-0.3,2.1-1.2v0c0.1-0.4,0.1-0.9-0.2-1.3c-0.2-0.4-0.6-0.7-1-0.8
				C399.4,686.8,399.2,686.8,399,686.8z"/>
		</g>
	</g>
	<g>
		<g>
			<path class="st0" d="M405.4,690.4c-0.2,0.6-0.6,1-1.1,1.3c-0.5,0.3-1.1,0.3-1.7,0.2c-1.1-0.4-1.8-1.6-1.5-2.7
				c0.3-1.2,1.6-1.8,2.7-1.5c0.6,0.2,1.1,0.6,1.3,1.1C405.5,689.2,405.6,689.8,405.4,690.4z"/>
			<path class="st1" d="M403.3,692.4c-0.3,0-0.5,0-0.8-0.1c-1.4-0.4-2.2-1.9-1.8-3.3c0.2-0.7,0.7-1.3,1.3-1.6
				c0.6-0.3,1.4-0.4,2.1-0.2c0.7,0.2,1.3,0.7,1.6,1.3c0.3,0.6,0.4,1.4,0.2,2l0,0c-0.2,0.7-0.7,1.2-1.3,1.6
				C404.1,692.3,403.7,692.4,403.3,692.4z M403.3,688c-0.3,0-0.6,0.1-0.8,0.2c-0.4,0.2-0.7,0.6-0.8,1c-0.3,0.9,0.3,1.9,1.2,2.1
				c0.4,0.1,0.9,0.1,1.3-0.1c0.4-0.2,0.7-0.6,0.8-1l0,0c0.1-0.4,0.1-0.9-0.1-1.3c-0.2-0.4-0.6-0.7-1-0.8
				C403.6,688.1,403.4,688,403.3,688z"/>
		</g>
	</g>
	<g>
		<g>
			<path class="st0" d="M409.6,691.8c-0.4,1.1-1.6,1.8-2.8,1.4c-1.1-0.4-1.8-1.6-1.4-2.8c0.4-1.2,1.6-1.8,2.8-1.4
				C409.3,689.4,410,690.6,409.6,691.8z"/>
			<path class="st1" d="M407.5,693.8c-0.3,0-0.6,0-0.8-0.1c-1.4-0.5-2.2-2-1.7-3.4c0.2-0.7,0.7-1.2,1.3-1.6c0.6-0.3,1.4-0.4,2.1-0.2
				c0.7,0.2,1.3,0.7,1.6,1.4c0.3,0.6,0.4,1.4,0.1,2l0,0C409.6,693,408.6,693.8,407.5,693.8z M407.5,689.4c-0.3,0-0.5,0.1-0.8,0.2
				c-0.4,0.2-0.7,0.6-0.8,1c-0.3,0.9,0.2,1.9,1.1,2.2c0.9,0.3,1.9-0.2,2.2-1.1l0,0c0.1-0.4,0.1-0.9-0.1-1.3c-0.2-0.4-0.6-0.7-1-0.9
				C407.8,689.4,407.7,689.4,407.5,689.4z"/>
		</g>
	</g>
	<g>
		<g>
			<path class="st0" d="M413.7,693.3c-0.4,1.1-1.7,1.7-2.8,1.3c-1.1-0.4-1.7-1.6-1.3-2.8c0.4-1.1,1.7-1.8,2.8-1.3
				C413.6,690.9,414.2,692.1,413.7,693.3z"/>
			<path class="st1" d="M411.6,695.2c-0.3,0-0.6-0.1-0.9-0.2c-1.4-0.5-2.1-2-1.6-3.4c0.2-0.7,0.7-1.2,1.3-1.5
				c0.7-0.3,1.4-0.4,2.1-0.1c0.7,0.3,1.2,0.8,1.5,1.4c0.3,0.6,0.3,1.4,0.1,2l0,0C413.8,694.5,412.7,695.2,411.6,695.2z M411.6,690.8
				c-0.3,0-0.5,0.1-0.8,0.2c-0.4,0.2-0.7,0.5-0.9,1c-0.3,0.9,0.2,1.9,1,2.2c0.9,0.3,1.9-0.1,2.2-1l0,0c0.2-0.4,0.1-0.9,0-1.3
				c-0.2-0.4-0.6-0.8-1-0.9C412,690.8,411.8,690.8,411.6,690.8z"/>
		</g>
	</g>
	<g>
		<g>
			<path class="st0" d="M417.8,694.9c-0.5,1.1-1.7,1.7-2.8,1.2c-1.1-0.4-1.7-1.7-1.3-2.8c0.4-1.1,1.7-1.7,2.9-1.3
				C417.7,692.4,418.3,693.7,417.8,694.9z"/>
			<path class="st1" d="M415.8,696.7c-0.3,0-0.6-0.1-1-0.2c-1.4-0.5-2-2.1-1.5-3.4c0.2-0.7,0.7-1.2,1.4-1.5c0.7-0.3,1.4-0.3,2.1-0.1
				c0.7,0.3,1.2,0.8,1.5,1.5c0.3,0.7,0.3,1.4,0,2l0,0C417.8,696.1,416.8,696.7,415.8,696.7z M415.8,692.3c-0.2,0-0.5,0.1-0.7,0.2
				c-0.4,0.2-0.7,0.5-0.9,0.9c-0.3,0.9,0.1,1.9,1,2.2c0.9,0.3,1.9-0.1,2.2-1v0c0.2-0.4,0.2-0.9,0-1.3c-0.2-0.4-0.5-0.8-1-0.9
				C416.2,692.4,416,692.3,415.8,692.3z"/>
		</g>
	</g>
	<g>
		<g>
			<path class="st0" d="M421.9,696.6c-0.5,1.1-1.8,1.6-2.9,1.1c-0.5-0.2-1-0.7-1.2-1.2c-0.2-0.5-0.2-1.1,0-1.7
				c0.2-0.6,0.7-1,1.2-1.2c0.5-0.2,1.1-0.2,1.7,0C421.9,694.2,422.4,695.5,421.9,696.6z"/>
			<path class="st1" d="M419.9,698.4c-0.4,0-0.7-0.1-1.1-0.2c-0.6-0.3-1.1-0.8-1.4-1.5c-0.3-0.7-0.3-1.4,0-2
				c0.3-0.7,0.8-1.2,1.5-1.5c0.7-0.3,1.4-0.3,2.1,0c0.7,0.3,1.2,0.8,1.5,1.5c0.3,0.7,0.2,1.4-0.1,2l0,0
				C421.8,697.8,420.9,698.4,419.9,698.4z M419.8,694c-0.2,0-0.4,0-0.6,0.1c-0.4,0.2-0.8,0.5-0.9,0.9c-0.2,0.4-0.2,0.9,0,1.3
				c0.2,0.4,0.5,0.8,0.9,0.9c0.9,0.4,1.9,0,2.3-0.9c0.2-0.4,0.2-0.9,0-1.3c-0.2-0.4-0.5-0.8-0.9-1C420.3,694,420.1,694,419.8,694z"
				/>
		</g>
	</g>
	<g>
		<g>
			<path class="st0" d="M425.8,698.5c-0.6,1.1-1.9,1.5-2.9,1c-1.1-0.5-1.5-1.8-1-2.9c0.5-1.1,1.8-1.6,2.9-1
				C425.9,696.1,426.4,697.4,425.8,698.5z"/>
			<path class="st1" d="M423.8,700.2c-0.4,0-0.8-0.1-1.1-0.3c-1.3-0.6-1.9-2.2-1.3-3.5c0.3-0.6,0.8-1.1,1.5-1.4
				c0.7-0.3,1.4-0.2,2.1,0.1c0.7,0.3,1.2,0.9,1.4,1.6c0.2,0.7,0.2,1.4-0.2,2l0,0C425.8,699.7,424.8,700.2,423.8,700.2z M423.9,695.8
				c-0.2,0-0.4,0-0.6,0.1c-0.4,0.2-0.8,0.5-0.9,0.9c-0.4,0.9,0,1.9,0.8,2.3c0.8,0.4,1.9,0.1,2.3-0.8l0,0c0.2-0.4,0.2-0.9,0.1-1.3
				c-0.1-0.4-0.5-0.8-0.9-1C424.4,695.9,424.1,695.8,423.9,695.8z"/>
		</g>
	</g>
	<g>
		<g>
			<path class="st0" d="M429.7,700.6c-0.6,1-1.9,1.4-3,0.8c-1-0.6-1.4-1.9-0.9-3c0.5-1.1,1.9-1.5,3-0.9
				C429.9,698.2,430.3,699.6,429.7,700.6z"/>
			<path class="st1" d="M427.8,702.2c-0.4,0-0.9-0.1-1.3-0.3c-1.3-0.7-1.8-2.3-1.1-3.6c0.3-0.6,0.9-1.1,1.5-1.3
				c0.7-0.2,1.4-0.2,2.1,0.2c0.7,0.4,1.1,1,1.3,1.7c0.2,0.7,0.1,1.4-0.3,2C429.6,701.7,428.7,702.2,427.8,702.2z M427.8,697.8
				c-0.2,0-0.4,0-0.5,0.1c-0.4,0.1-0.8,0.4-1,0.8c-0.4,0.8-0.1,1.9,0.7,2.3c0.8,0.5,1.9,0.1,2.3-0.7l0,0c0.2-0.4,0.3-0.8,0.2-1.3
				c-0.1-0.5-0.4-0.8-0.9-1.1C428.3,697.9,428.1,697.8,427.8,697.8z"/>
		</g>
	</g>
	<g>
		<g>
			<path class="st0" d="M433.4,703c-0.7,1-2,1.3-3,0.7c-0.5-0.3-0.8-0.8-1-1.3c-0.1-0.5-0.1-1.1,0.2-1.7c0.3-0.5,0.8-0.9,1.3-1
				c0.6-0.1,1.2-0.1,1.7,0.3C433.8,700.6,434.1,702,433.4,703z"/>
			<path class="st1" d="M431.6,704.4c-0.5,0-1-0.1-1.4-0.4c-0.6-0.4-1-1-1.2-1.6c-0.2-0.7-0.1-1.4,0.3-2c0.4-0.6,0.9-1.1,1.6-1.2
				c0.7-0.2,1.5,0,2.1,0.3c0.6,0.4,1.1,1,1.2,1.7c0.1,0.7,0,1.4-0.4,2C433.3,704,432.4,704.4,431.6,704.4z M431.6,700
				c-0.1,0-0.3,0-0.4,0c-0.4,0.1-0.8,0.4-1.1,0.8c-0.2,0.4-0.3,0.9-0.2,1.3c0.1,0.4,0.4,0.8,0.8,1.1c0.8,0.5,1.8,0.3,2.4-0.5l0,0
				c0.3-0.4,0.3-0.8,0.3-1.3c-0.1-0.5-0.4-0.9-0.8-1.1C432.2,700.1,431.9,700,431.6,700z"/>
		</g>
	</g>
	<g>
		<g>
			<path class="st0" d="M437,705.6c-0.4,0.5-0.9,0.7-1.5,0.8c-0.6,0.1-1.1-0.1-1.6-0.4c-0.5-0.3-0.8-0.8-0.8-1.4
				c-0.1-0.5,0-1.1,0.4-1.6c0.3-0.5,0.9-0.8,1.4-0.9c0.6-0.1,1.2,0.1,1.7,0.4c0.5,0.4,0.8,0.9,0.9,1.5
				C437.5,704.6,437.4,705.1,437,705.6z"/>
			<path class="st1" d="M435.2,706.9c-0.6,0-1.1-0.2-1.6-0.5c-0.5-0.4-0.9-1-1-1.7c-0.1-0.7,0-1.4,0.4-2c0.4-0.6,1-1,1.7-1.1
				c0.7-0.1,1.4,0.1,2,0.5c0.6,0.4,1,1.1,1.1,1.8c0.1,0.7-0.1,1.4-0.6,2c-0.4,0.5-1.1,0.9-1.8,1
				C435.4,706.9,435.3,706.9,435.2,706.9z M435.2,702.5c-0.1,0-0.2,0-0.3,0c-0.4,0.1-0.8,0.3-1.1,0.7c-0.3,0.4-0.4,0.8-0.3,1.3
				c0.1,0.5,0.3,0.8,0.6,1.1c0.4,0.3,0.8,0.4,1.2,0.3c0.3,0,0.8-0.2,1.2-0.6h0c0.3-0.4,0.4-0.8,0.4-1.3c-0.1-0.5-0.3-0.9-0.7-1.2
				C435.9,702.6,435.6,702.5,435.2,702.5z"/>
		</g>
	</g>
	<g>
		<g>
			<path class="st0" d="M440.2,708.6c-0.4,0.4-1,0.6-1.6,0.6c-0.3,0-0.5,0-0.8-0.1c-0.1,0-0.2-0.1-0.4-0.2c-0.1-0.1-0.2-0.2-0.3-0.2
				c-0.4-0.4-0.6-0.9-0.7-1.5c0-0.5,0.1-1.1,0.5-1.6s0.9-0.7,1.5-0.8c0.6,0,1.2,0.2,1.7,0.6c0.1,0.1,0.2,0.2,0.3,0.4
				c0.1,0.1,0.2,0.3,0.2,0.4c0.1,0.3,0.2,0.6,0.2,0.9C440.9,707.6,440.6,708.2,440.2,708.6z"/>
			<path class="st1" d="M438.6,709.7c-0.3,0-0.6-0.1-0.9-0.2c-0.2-0.1-0.3-0.1-0.5-0.2c-0.1-0.1-0.3-0.2-0.4-0.3
				c-0.5-0.4-0.8-1.1-0.8-1.8c0-0.7,0.2-1.4,0.6-1.9c0.5-0.6,1.1-0.9,1.8-0.9c0.7-0.1,1.4,0.2,2,0.7c0.2,0.1,0.3,0.3,0.4,0.4
				c0.1,0.2,0.2,0.3,0.3,0.5c0.1,0.3,0.2,0.7,0.2,1c0,0.7-0.3,1.4-0.8,1.9l0,0C440,709.4,439.4,709.7,438.6,709.7
				C438.6,709.7,438.6,709.7,438.6,709.7z M438.6,705.3c0,0-0.1,0-0.1,0c-0.5,0-0.9,0.2-1.2,0.6c-0.3,0.4-0.4,0.8-0.4,1.3
				c0,0.5,0.2,0.9,0.5,1.1c0.1,0.1,0.2,0.1,0.3,0.2c0.1,0.1,0.2,0.1,0.3,0.1c0.2,0.1,0.4,0.1,0.6,0.1c0.3,0,0.8-0.1,1.2-0.5l0,0
				c0.3-0.3,0.5-0.8,0.5-1.2c0-0.2-0.1-0.5-0.2-0.7c0-0.1-0.1-0.2-0.2-0.3c-0.1-0.1-0.1-0.2-0.2-0.3
				C439.5,705.5,439,705.3,438.6,705.3z"/>
		</g>
	</g>
	<g>
		<g>
			<path class="st0" d="M156.5,707.1c0.4,0.4,0.6,1,0.6,1.6c0,0.3,0,0.5-0.1,0.8c-0.1,0.3-0.2,0.5-0.4,0.7c-0.4,0.4-0.9,0.6-1.4,0.7
				c-0.5,0-1.1-0.1-1.6-0.5s-0.7-0.9-0.8-1.5c0-0.6,0.2-1.2,0.6-1.7c0.2-0.2,0.5-0.4,0.8-0.5c0.3-0.1,0.6-0.2,0.9-0.2
				C155.5,706.4,156.1,706.6,156.5,707.1z"/>
			<path class="st1" d="M155,711.3c-0.6,0-1.3-0.2-1.8-0.6c-0.6-0.5-0.9-1.1-1-1.8c-0.1-0.7,0.2-1.4,0.7-2c0.2-0.3,0.6-0.5,0.9-0.7
				c0.3-0.1,0.7-0.2,1-0.2c0.7,0,1.4,0.3,1.9,0.8l0,0c0.5,0.5,0.7,1.2,0.7,1.9c0,0.3-0.1,0.7-0.2,1c-0.1,0.3-0.3,0.6-0.5,0.8
				c-0.4,0.5-1.1,0.8-1.8,0.8C155.1,711.2,155,711.3,155,711.3z M155,706.9C155,706.9,155,706.9,155,706.9c-0.3,0-0.5,0.1-0.7,0.1
				c-0.2,0.1-0.4,0.2-0.6,0.4c-0.4,0.4-0.5,0.9-0.5,1.3c0,0.5,0.2,0.9,0.6,1.2c0.4,0.3,0.8,0.4,1.3,0.4c0.5,0,0.9-0.2,1.1-0.5
				c0.2-0.2,0.3-0.4,0.3-0.5c0.1-0.2,0.1-0.4,0.1-0.6c0-0.3-0.1-0.8-0.5-1.2v0C155.9,707,155.4,706.9,155,706.9z"/>
		</g>
	</g>
	<g>
		<g>
			<path class="st0" d="M163.6,701.8c0.6,1,0.3,2.4-0.6,3c-0.5,0.3-1.1,0.4-1.6,0.3c-0.5-0.1-1.1-0.4-1.4-0.9
				c-0.4-0.5-0.5-1.1-0.4-1.6c0.1-0.6,0.4-1.1,1-1.5C161.5,700.4,162.9,700.7,163.6,701.8z"/>
			<path class="st1" d="M161.7,705.6c-0.2,0-0.3,0-0.5,0c-0.7-0.1-1.3-0.5-1.7-1.1c-0.4-0.6-0.6-1.3-0.5-2c0.1-0.7,0.6-1.4,1.2-1.8
				c0.6-0.4,1.3-0.6,2.1-0.4c0.7,0.1,1.3,0.6,1.7,1.2l0,0c0.8,1.2,0.4,2.8-0.7,3.7C162.8,705.5,162.2,705.6,161.7,705.6z
				 M161.7,701.2c-0.3,0-0.7,0.1-1,0.3c-0.4,0.3-0.7,0.7-0.8,1.1c-0.1,0.4,0,0.9,0.3,1.3c0.3,0.4,0.7,0.6,1.1,0.7
				c0.4,0.1,0.9,0,1.3-0.3c0.8-0.5,1-1.6,0.5-2.4l0,0c-0.2-0.4-0.6-0.7-1.1-0.7C162,701.3,161.8,701.2,161.7,701.2z"/>
		</g>
	</g>
	<g>
		<g>
			<path class="st0" d="M167.4,699.5c0.6,1.1,0.2,2.4-0.8,3c-0.5,0.3-1.1,0.4-1.6,0.2c-0.5-0.1-1-0.5-1.4-1
				c-0.3-0.5-0.4-1.1-0.3-1.7c0.1-0.5,0.5-1,1-1.4C165.4,698.1,166.8,698.5,167.4,699.5z"/>
			<path class="st1" d="M165.5,703.3c-0.2,0-0.5,0-0.7-0.1c-0.7-0.2-1.3-0.6-1.6-1.2c-0.4-0.6-0.5-1.3-0.3-2
				c0.2-0.7,0.6-1.3,1.3-1.7c0.6-0.4,1.4-0.5,2.1-0.3c0.7,0.2,1.3,0.6,1.6,1.3l0,0l0,0c0.7,1.3,0.2,2.9-1,3.6
				C166.4,703.2,165.9,703.3,165.5,703.3z M165.5,698.9c-0.3,0-0.6,0.1-0.9,0.2c-0.4,0.2-0.7,0.6-0.8,1.1c-0.1,0.4,0,0.9,0.2,1.3
				c0.2,0.4,0.6,0.7,1.1,0.8c0.5,0.1,0.9,0.1,1.3-0.2c0.8-0.5,1.1-1.5,0.6-2.3l0,0c-0.2-0.4-0.6-0.7-1-0.8
				C165.8,698.9,165.6,698.9,165.5,698.9z"/>
		</g>
	</g>
	<g>
		<g>
			<path class="st0" d="M175.3,695.7c0.2,0.6,0.2,1.2,0,1.7c-0.2,0.5-0.6,1-1.1,1.2c-1.1,0.5-2.4,0-2.9-1.1c-0.5-1.1,0-2.4,1.1-2.9
				c0.6-0.3,1.2-0.3,1.7-0.1C174.6,694.8,175.1,695.2,175.3,695.7z"/>
			<path class="st1" d="M173.3,699.3c-1,0-1.9-0.6-2.4-1.5c-0.3-0.6-0.3-1.4-0.1-2c0.2-0.7,0.8-1.2,1.4-1.5c0.7-0.3,1.4-0.3,2.1-0.1
				c0.7,0.3,1.2,0.8,1.5,1.4l0,0c0.3,0.6,0.3,1.4,0,2c-0.3,0.7-0.7,1.2-1.4,1.5C174,699.2,173.6,699.3,173.3,699.3z M173.3,694.9
				c-0.2,0-0.5,0.1-0.7,0.2c-0.4,0.2-0.8,0.5-0.9,1c-0.2,0.4-0.1,0.9,0.1,1.3c0.4,0.9,1.4,1.2,2.3,0.8c0.4-0.2,0.7-0.5,0.9-0.9
				c0.2-0.4,0.2-0.9,0-1.3c-0.2-0.4-0.5-0.8-0.9-0.9C173.7,694.9,173.5,694.9,173.3,694.9z"/>
		</g>
	</g>
	<g>
		<g>
			<path class="st0" d="M171.3,697.5c0.5,1.1,0.1,2.4-1,2.9c-1,0.5-2.4,0.1-2.9-0.9c-0.6-1.1-0.2-2.4,0.9-3
				C169.4,696,170.8,696.4,171.3,697.5z"/>
			<path class="st1" d="M169.3,701.2c-1,0-1.9-0.5-2.4-1.4c-0.3-0.6-0.4-1.3-0.2-2c0.2-0.7,0.7-1.3,1.4-1.6c0.7-0.3,1.4-0.4,2.1-0.2
				c0.7,0.2,1.2,0.7,1.5,1.3l0,0c0.6,1.3,0.1,2.9-1.2,3.6C170.1,701.1,169.7,701.2,169.3,701.2z M169.3,696.8
				c-0.3,0-0.5,0.1-0.8,0.2c-0.4,0.2-0.7,0.6-0.9,1.1c-0.1,0.4-0.1,0.9,0.1,1.3c0.5,0.8,1.5,1.2,2.3,0.7c0.8-0.4,1.2-1.5,0.8-2.3
				l0,0c-0.2-0.4-0.5-0.7-1-0.9C169.7,696.8,169.5,696.8,169.3,696.8z"/>
		</g>
	</g>
</g>
</svg>
