<svg id="Calque_1" data-name="Calque 1" xmlns="http://www.w3.org/2000/svg" viewBox="0 0 4073.02 2347.24"><defs><style>.cls-1{fill:none;stroke:#c7c7c6;stroke-miterlimit:10;stroke-width:14.17px;}.cls-2{fill:#c7c7c6;}</style></defs><title>scan</title><ellipse class="cls-1" cx="3171.67" cy="1090.1" rx="619.03" ry="199.51" transform="translate(1491.16 3992.47) rotate(-78.9)"/><path class="cls-2" d="M3216.91,102.56a12.48,12.48,0,0,0-2.47-8.39c-1.71-2.1-4.41-3.16-8.1-3.16a17.92,17.92,0,0,0-10.57,3,26.56,26.56,0,0,0-7.18,7.62,47,47,0,0,0-4.75,10q-1.85,5.43-3.2,10.28,1.83-2,3.83-3.88a26.58,26.58,0,0,1,4.36-3.45,22.63,22.63,0,0,1,5.29-2.42,22.31,22.31,0,0,1,6.69-.92q10.38,0,14.84,5.87t2.23,16.15q-2.22,10.38-9.21,16.29t-17.46,5.92a23.46,23.46,0,0,1-9.17-1.7,13.52,13.52,0,0,1-6.4-5.58,22.61,22.61,0,0,1-2.86-10.13,54.33,54.33,0,0,1,1.45-15.28c.59-2.72,1.33-5.51,2.24-8.39a66.7,66.7,0,0,1,3.29-8.44,51.91,51.91,0,0,1,4.56-7.81,34,34,0,0,1,6-6.45,26.82,26.82,0,0,1,7.47-4.36,25,25,0,0,1,9.16-1.6c5.44,0,9.65,1.42,12.66,4.26s4.25,7,3.74,12.52Zm-17.46,14a16.94,16.94,0,0,0-6.74,1.35,19.41,19.41,0,0,0-5.62,3.69,23,23,0,0,0-4.22,5.38,21.11,21.11,0,0,0-2.43,6.55,22.25,22.25,0,0,0-.39,5.87,12.47,12.47,0,0,0,1.56,5.38,10.6,10.6,0,0,0,4,4,13.37,13.37,0,0,0,6.89,1.55,18.34,18.34,0,0,0,7.66-1.5,17.66,17.66,0,0,0,5.63-4,21.53,21.53,0,0,0,3.78-5.53,28.92,28.92,0,0,0,2.14-6.16q1.65-8-1.27-12.27T3199.45,116.53Z"/><path class="cls-2" d="M3259,85.78a20.55,20.55,0,0,1,8.39,1.5,13.94,13.94,0,0,1,5.39,4.12,15.88,15.88,0,0,1,2.86,6.11,34,34,0,0,1,.87,7.42,55.15,55.15,0,0,1-.53,8.1c-.39,2.79-.88,5.5-1.46,8.15a95.94,95.94,0,0,1-3.73,13,43.08,43.08,0,0,1-5.82,11,26.88,26.88,0,0,1-8.64,7.57,24.85,24.85,0,0,1-12.17,2.81q-7.08,0-11-2.81a14.63,14.63,0,0,1-5.48-7.62,30.3,30.3,0,0,1-1.16-11.15,86.21,86.21,0,0,1,1.94-13.44,98.24,98.24,0,0,1,3.54-12.7,43.32,43.32,0,0,1,5.72-11.11,28,28,0,0,1,8.73-7.91A24.71,24.71,0,0,1,3259,85.78Zm9.51,34.72a97.08,97.08,0,0,0,1.65-10.81,29.79,29.79,0,0,0-.49-9.46,12.56,12.56,0,0,0-3.78-6.69c-1.88-1.68-4.62-2.53-8.25-2.53a15.45,15.45,0,0,0-8.92,2.58,23.8,23.8,0,0,0-6.55,6.83,45.18,45.18,0,0,0-4.65,9.7,91.47,91.47,0,0,0-4.76,23,25.91,25.91,0,0,0,.83,9.17,11.12,11.12,0,0,0,4,5.87q2.82,2.09,7.76,2.08a16,16,0,0,0,9.41-2.71,24.28,24.28,0,0,0,6.6-7,40.65,40.65,0,0,0,4.41-9.6A105.1,105.1,0,0,0,3268.52,120.5Z"/><path class="cls-2" d="M3348.25,119.73q-.28-5.62-3.39-8.78t-8.93-3.15a17.35,17.35,0,0,0-8,1.84,21.52,21.52,0,0,0-6.3,4.9,27.52,27.52,0,0,0-4.47,6.88,39.69,39.69,0,0,0-2.61,7.72,30.09,30.09,0,0,0-.73,7.76,17.5,17.5,0,0,0,1.55,6.79,11.26,11.26,0,0,0,4.22,4.8,13.56,13.56,0,0,0,7.37,1.79,17.92,17.92,0,0,0,11.21-3.59,21.42,21.42,0,0,0,7-9.89h6.21a36.15,36.15,0,0,1-4.08,7.61,27.32,27.32,0,0,1-5.62,5.92,24.65,24.65,0,0,1-7.18,3.83,26.73,26.73,0,0,1-8.73,1.36,21.44,21.44,0,0,1-9.94-2,14.53,14.53,0,0,1-6-5.58,18.49,18.49,0,0,1-2.38-8.39,39,39,0,0,1,.88-10.37,37.21,37.21,0,0,1,3.59-10,35,35,0,0,1,6.2-8.49,28.61,28.61,0,0,1,8.49-5.87,24.83,24.83,0,0,1,10.43-2.18q8.73,0,13.24,4.17t3.93,13Z"/><path class="cls-2" d="M3364.35,154.16h-5.82l10.67-50.24H3375l-1.55,7.56h.2a20.39,20.39,0,0,1,7.76-6.64,21.56,21.56,0,0,1,9.6-2.28,18.39,18.39,0,0,1,5.77.77,10.23,10.23,0,0,1,3.69,2.09,8.67,8.67,0,0,1,2.13,3.06,18.72,18.72,0,0,1,1.12,3.78,21.78,21.78,0,0,1,18.43-9.7c3.42,0,6,.56,7.85,1.7a9,9,0,0,1,3.79,4.46,14.78,14.78,0,0,1,.82,6.35,54.51,54.51,0,0,1-1,7.37l-6.79,31.72H3421l7.37-34.72a21.19,21.19,0,0,0,.54-4.85,7.25,7.25,0,0,0-1-3.64,6,6,0,0,0-2.82-2.33,12.63,12.63,0,0,0-5-.82,16.59,16.59,0,0,0-6.5,1.4,18.71,18.71,0,0,0-6.11,4.32,17.87,17.87,0,0,0-2.18,3,28,28,0,0,0-1.8,3.54c-.52,1.23-1,2.46-1.36,3.68a30.47,30.47,0,0,0-.87,3.4l-5.72,27.06h-5.82l7.37-34.72a20.59,20.59,0,0,0,.53-4.85,7.06,7.06,0,0,0-1-3.64,6,6,0,0,0-2.81-2.33,12.67,12.67,0,0,0-5-.82,16.56,16.56,0,0,0-6.5,1.4,18.85,18.85,0,0,0-6.12,4.32,18.45,18.45,0,0,0-2.18,3,26.68,26.68,0,0,0-1.79,3.54c-.52,1.23-1,2.46-1.36,3.68a28.43,28.43,0,0,0-.87,3.4Z"/><line class="cls-1" x1="3278.95" y1="479.92" x2="3278.95" y2="191.45"/></svg>