<svg id="Calque_1" data-name="Calque 1" xmlns="http://www.w3.org/2000/svg" viewBox="0 0 4073.02 2347.24"><defs><style>.cls-1{fill:#fff;}.cls-2{fill:#1e1e1c;}.cls-3{fill:#c7c7c6;}</style></defs><title>scan</title><path class="cls-1" d="M3014.79,1045.92c34.44-162.13,85.47-310.64,143.7-418.19,59-109,118.89-163.21,168.61-152.65s82.38,84.44,92,208c9.47,121.93-4.28,278.37-38.73,440.5s-85.47,310.64-143.7,418.19c-59,109-118.89,163.21-168.61,152.65s-82.38-84.44-92-208C2966.59,1364.48,2980.34,1208.05,3014.79,1045.92Zm357.25,75.9c34.28-161.35,48-316.93,38.57-438.07-4.56-58.64-14.28-105.91-28.89-140.5-14.74-34.9-33.71-55-56.39-59.85s-48.19,5.86-75.85,31.75c-27.41,25.67-55.51,64.91-83.51,116.63-57.85,106.85-108.59,254.56-142.86,415.91s-48,316.93-38.57,438.07c4.56,58.63,14.28,105.91,28.89,140.5,14.74,34.9,33.71,55,56.39,59.85s48.19-5.87,75.85-31.76c27.41-25.66,55.51-64.9,83.51-116.62C3287,1430.88,3337.77,1283.17,3372,1121.82Z"/><path class="cls-2" d="M3053.27,1691.29a60.37,60.37,0,0,0,15.57,1.21c48.09,3.58,104.78-50.5,160.69-153.78,58.22-107.54,109.26-256.06,143.7-418.19S3421.43,802,3412,680c-9.6-123.58-42.26-197.45-92-208a59.38,59.38,0,0,0-13.46-1.28c-.67-.17-1.34-.33-2-.48-49.72-10.56-109.6,43.66-168.61,152.66-58.22,107.55-109.26,256.06-143.7,418.19s-48.2,318.56-38.73,440.49c9.61,123.58,42.27,197.45,92,208,1.31.27,2.62.5,3.95.68C3050.67,1690.68,3052,1691,3053.27,1691.29ZM3306.6,479.58c21,6.2,38.62,26,52.51,58.86C3373.72,573,3383.44,620.31,3388,679c9.41,121.14-4.29,276.71-38.57,438.07s-85,309-142.86,415.91c-28,51.72-56.1,91-83.51,116.62-22.59,21.14-43.75,32.14-63.1,32.84-21.47-5.81-39.51-25.69-53.66-59.18-14.61-34.6-24.33-81.87-28.89-140.51C2968,1361.56,2981.7,1206,3016,1044.64s85-309.06,142.87-415.91c28-51.72,56.09-91,83.51-116.63,22.12-20.7,42.86-31.67,61.88-32.78C3305,479.39,3305.82,479.48,3306.6,479.58Z"/><path class="cls-3" d="M3073.4,1693.73c-1.54,0-3.06-.06-4.58-.17a61.64,61.64,0,0,1-15.77-1.23h0c-1.23-.26-2.51-.58-3.89-1-1.43-.21-2.72-.44-3.94-.69-50.22-10.67-83.18-84.89-92.82-209-9.48-122,4.27-278.57,38.74-440.79s85.53-310.84,143.8-418.48C3194.2,513,3254.5,458.57,3304.71,469.24c.64.13,1.28.28,1.92.44a61,61,0,0,1,13.56,1.31c50.22,10.66,83.18,84.88,92.82,209,9.48,122-4.28,278.57-38.74,440.8s-85.53,310.84-143.81,418.47c-27.85,51.45-55.94,90.89-83.48,117.22C3121.09,1681.21,3096.36,1693.73,3073.4,1693.73Zm-4.55-2.3h.07c47.56,3.58,104.26-50.86,159.68-153.21,58.17-107.46,109.17-255.88,143.59-417.91s48.17-318.36,38.7-440.19c-9.56-123.06-41.93-196.6-91.14-207a58.54,58.54,0,0,0-13.22-1.26h-.14l-.14,0c-.66-.17-1.32-.32-2-.47-49.21-10.45-108.69,43.57-167.46,152.12-58.17,107.47-109.17,255.88-143.59,417.91s-48.17,318.36-38.71,440.19c9.57,123.07,41.94,196.6,91.15,207.06,1.2.25,2.46.47,3.88.67l.14,0c1.36.39,2.61.7,3.81,1h0a59.26,59.26,0,0,0,15.29,1.18Zm-9-8-.16,0c-21.8-5.9-40.09-26-54.36-59.8-14.66-34.7-24.4-82.08-29-140.83-9.42-121.25,4.29-276.93,38.58-438.37s85.08-309.26,143-416.2c28.06-51.82,56.22-91.15,83.72-116.89,22.24-20.82,43.29-31.95,62.55-33.07h.15c.81.07,1.62.16,2.42.27l.16,0c21.28,6.3,39.18,26.31,53.19,59.47,14.66,34.7,24.4,82.09,29,140.84,9.42,121.23-4.29,276.92-38.59,438.37s-85.07,309.25-143,416.19c-28.06,51.82-56.22,91.15-83.72,116.9-22.73,21.27-44.19,32.42-63.79,33.12ZM3304.22,480.39c-18.73,1.11-39.3,12-61.14,32.49-27.34,25.59-55.36,64.73-83.31,116.35C3102,736,3051.27,883.6,3017,1044.86s-47.94,316.72-38.54,437.76c4.55,58.52,14.24,105.68,28.81,140.17,14,33.07,31.73,52.76,52.8,58.53,19-.74,40-11.69,62.25-32.55,27.34-25.58,55.36-64.73,83.31-116.35,57.8-106.77,108.5-254.37,142.75-415.62s48-316.73,38.55-437.77c-4.55-58.52-14.24-105.68-28.81-140.17-13.73-32.51-31.14-52.1-51.75-58.23Q3305.3,480.48,3304.22,480.39Z"/><path class="cls-2" d="M3058.84,1685a10.51,10.51,0,0,1,5.41-4.45,8.26,8.26,0,0,1,1.57-.41,11,11,0,0,1,1.6-.21,7.18,7.18,0,0,1,3.06.57,8.51,8.51,0,0,1,4.49,4.26,10.76,10.76,0,0,1,1,7,8,8,0,0,1-4.27,5.61,9.73,9.73,0,0,1-7.91.28,11.1,11.1,0,0,1-3.5-2.33,9.37,9.37,0,0,1-1.25-1.51,10.37,10.37,0,0,1-.82-1.72A8.17,8.17,0,0,1,3058.84,1685Z"/><path class="cls-3" d="M3067.6,1699.39a12.75,12.75,0,0,1-4.22-.75,12.1,12.1,0,0,1-3.88-2.57,9.52,9.52,0,0,1-1.41-1.71,10.3,10.3,0,0,1-.92-1.93,9.22,9.22,0,0,1,.76-7.94h0a11.51,11.51,0,0,1,6-4.9,9.52,9.52,0,0,1,1.76-.46,10.85,10.85,0,0,1,1.74-.22,8.23,8.23,0,0,1,3.5.65,9.36,9.36,0,0,1,5,4.73A11.79,11.79,0,0,1,3077,1692a9,9,0,0,1-4.83,6.34A9.47,9.47,0,0,1,3067.6,1699.39Zm.11-18.36h-.25a11.26,11.26,0,0,0-1.45.19,7.82,7.82,0,0,0-1.4.37,9.47,9.47,0,0,0-4.85,4h0a7.14,7.14,0,0,0-.59,6.14,8.56,8.56,0,0,0,.73,1.53,7.88,7.88,0,0,0,1.09,1.31,9.84,9.84,0,0,0,3.15,2.09,8.69,8.69,0,0,0,7-.22,7,7,0,0,0,3.74-4.89,9.76,9.76,0,0,0-.86-6.26,7.35,7.35,0,0,0-3.88-3.73A6.15,6.15,0,0,0,3067.71,1681Z"/><path class="cls-2" d="M3044.4,1673.67a9.88,9.88,0,0,1,6.36-2.83,9.11,9.11,0,0,1,3.31.29,9.4,9.4,0,0,1,2.89,1.47,7.19,7.19,0,0,1,2.06,2.49,8.64,8.64,0,0,1,1.06,3.05,10.7,10.7,0,0,1,0,3.48,9.77,9.77,0,0,1-1.22,3.42,8.55,8.55,0,0,1-2.47,2.7,8.24,8.24,0,0,1-3.33,1.32,9.77,9.77,0,0,1-3.83-.17,11.17,11.17,0,0,1-3.64-1.87,9,9,0,0,1-2.62-3.12,9.41,9.41,0,0,1-1.08-3.58A8.62,8.62,0,0,1,3044.4,1673.67Z"/><path class="cls-3" d="M3051.55,1690.24a10.81,10.81,0,0,1-2.59-.32,12.06,12.06,0,0,1-4-2.05,10,10,0,0,1-2.9-3.47,10.24,10.24,0,0,1-1.21-4,9.66,9.66,0,0,1,2.84-7.49,10.89,10.89,0,0,1,7-3.14,10.13,10.13,0,0,1,3.66.33,10.42,10.42,0,0,1,3.21,1.62,8.41,8.41,0,0,1,2.39,2.87,9.57,9.57,0,0,1,1.17,3.37,11.66,11.66,0,0,1,0,3.82,11,11,0,0,1-1.35,3.78,9.49,9.49,0,0,1-2.79,3,9.19,9.19,0,0,1-3.76,1.5A11.38,11.38,0,0,1,3051.55,1690.24Zm.12-18.37-.82,0a8.84,8.84,0,0,0-5.7,2.53h0a7.49,7.49,0,0,0-2.22,5.83,8.37,8.37,0,0,0,1,3.14,7.78,7.78,0,0,0,2.31,2.76,10.15,10.15,0,0,0,3.31,1.71,8.63,8.63,0,0,0,3.36.14,7.06,7.06,0,0,0,2.89-1.15,7.36,7.36,0,0,0,2.17-2.36,9,9,0,0,0,1.08-3.06,9.4,9.4,0,0,0,0-3.13,7.61,7.61,0,0,0-.93-2.69,6.3,6.3,0,0,0-1.78-2.17,8.51,8.51,0,0,0-2.54-1.3A7.68,7.68,0,0,0,3051.67,1671.87Z"/><path class="cls-2" d="M3032.68,1659.49a9.72,9.72,0,0,1,6.82-1.62,9,9,0,0,1,5.82,3.15,9.24,9.24,0,0,1,1.58,2.94,9.14,9.14,0,0,1,.33,3.35,9.86,9.86,0,0,1-2.83,6.36,8.57,8.57,0,0,1-6.64,2.54,9.67,9.67,0,0,1-6.64-3.53,9.36,9.36,0,0,1-2.13-7.17A8.62,8.62,0,0,1,3032.68,1659.49Z"/><path class="cls-3" d="M3038.28,1677.29l-.58,0a10.69,10.69,0,0,1-7.41-3.92,10.41,10.41,0,0,1-2.35-8,9.66,9.66,0,0,1,4.14-6.73,10.71,10.71,0,0,1,7.56-1.81,10.1,10.1,0,0,1,6.51,3.55,10.32,10.32,0,0,1,1.77,3.31,10.21,10.21,0,0,1,.37,3.73,10.82,10.82,0,0,1-3.13,7A9.61,9.61,0,0,1,3038.28,1677.29Zm-.1-18.45a8.62,8.62,0,0,0-4.9,1.52,7.61,7.61,0,0,0-3.24,5.29A8.29,8.29,0,0,0,3032,1672a8.67,8.67,0,0,0,5.9,3.13,7.43,7.43,0,0,0,5.8-2.23,8.72,8.72,0,0,0,2.52-5.67,8.1,8.1,0,0,0-.29-3,8.3,8.3,0,0,0-1.41-2.62,8,8,0,0,0-5.13-2.73A9,9,0,0,0,3038.18,1658.84Z"/><path class="cls-2" d="M3023.22,1643.69a9.56,9.56,0,0,1,7-.71,9.05,9.05,0,0,1,5.39,4,8.5,8.5,0,0,1,.73,1.6,7.75,7.75,0,0,1,.42,1.64,8.88,8.88,0,0,1-.16,3.4,9.81,9.81,0,0,1-3.9,5.82,8.61,8.61,0,0,1-6.93,1.35,9.31,9.31,0,0,1-3.33-1.53,10.07,10.07,0,0,1-1.45-1.26,10.57,10.57,0,0,1-1.16-1.6,9.3,9.3,0,0,1-1-7.28A8.74,8.74,0,0,1,3023.22,1643.69Z"/><path class="cls-3" d="M3027.7,1662.14a9.59,9.59,0,0,1-2.2-.26,10.44,10.44,0,0,1-3.7-1.7,11.15,11.15,0,0,1-1.6-1.4,10.69,10.69,0,0,1-1.3-1.79,10.25,10.25,0,0,1-1.14-8.12,9.81,9.81,0,0,1,5-6.12h0a10.51,10.51,0,0,1,7.76-.79,10.19,10.19,0,0,1,6,4.54,8.86,8.86,0,0,1,.81,1.78,8.56,8.56,0,0,1,.47,1.84,9.94,9.94,0,0,1-.17,3.79,10.82,10.82,0,0,1-4.33,6.45A9.79,9.79,0,0,1,3027.7,1662.14Zm-.1-18.46a8.46,8.46,0,0,0-3.89,1h0a7.76,7.76,0,0,0-3.91,4.82,8.17,8.17,0,0,0,.93,6.46,8.39,8.39,0,0,0,5.26,3.9,7.54,7.54,0,0,0,6.08-1.19,8.72,8.72,0,0,0,3.48-5.2,8,8,0,0,0,.14-3,7,7,0,0,0-.37-1.43,7.65,7.65,0,0,0-.64-1.43,8.06,8.06,0,0,0-4.78-3.57A8.62,8.62,0,0,0,3027.6,1643.68Z"/><path class="cls-2" d="M3015.51,1627a9.36,9.36,0,0,1,7,0,9,9,0,0,1,5.28,11.45,9.52,9.52,0,0,1-4.57,5.31,8.78,8.78,0,0,1-7,.51,9.47,9.47,0,0,1-5.64-12.21A9,9,0,0,1,3015.51,1627Z"/><path class="cls-3" d="M3019.09,1645.77a9.62,9.62,0,0,1-3.27-.57,10.62,10.62,0,0,1-6-5.49,10.74,10.74,0,0,1-.3-8.1,10,10,0,0,1,5.56-5.64h0a10.39,10.39,0,0,1,7.79,0,10,10,0,0,1,5.89,12.8,10.68,10.68,0,0,1-5.07,5.89A10,10,0,0,1,3019.09,1645.77Zm-3.17-17.83a7.89,7.89,0,0,0-4.39,4.44,8.6,8.6,0,0,0,.25,6.45,8.5,8.5,0,0,0,4.76,4.37,7.74,7.74,0,0,0,6.19-.45,8.47,8.47,0,0,0,4.06-4.73,7.89,7.89,0,0,0-4.66-10.1,8.29,8.29,0,0,0-6.21,0Z"/><path class="cls-2" d="M3009.16,1609.67a9.21,9.21,0,0,1,6.35,17.29,9.27,9.27,0,0,1-11.64-12.65A8.9,8.9,0,0,1,3009.16,1609.67Z"/><path class="cls-3" d="M3012.13,1628.71a10,10,0,0,1-4.05-.87,10.48,10.48,0,0,1-5.17-14,9.94,9.94,0,0,1,5.92-5.19,10.27,10.27,0,0,1,7.09,19.28A9.8,9.8,0,0,1,3012.13,1628.71Zm0-18.45a8.56,8.56,0,0,0-2.6.41,7.87,7.87,0,0,0-4.66,4.1,8.34,8.34,0,0,0,4.11,11.12,7.68,7.68,0,0,0,6.16.09,8.31,8.31,0,0,0,4.72-10.42,8.18,8.18,0,0,0-4.11-4.47A8.37,8.37,0,0,0,3012.09,1610.26Z"/><path class="cls-2" d="M3003.89,1592a9.22,9.22,0,0,1,5.27,17.66,9.22,9.22,0,1,1-5.27-17.66Z"/><path class="cls-3" d="M3006.32,1611.2a10,10,0,0,1-4.55-1.11,10.42,10.42,0,0,1-4.28-14.39,9.88,9.88,0,0,1,6.13-4.72h0a10.28,10.28,0,0,1,5.88,19.69A10,10,0,0,1,3006.32,1611.2Zm0-18.44a8.28,8.28,0,0,0-2.14.28h0a7.77,7.77,0,0,0-4.82,3.71,8.28,8.28,0,0,0,3.41,11.44,7.73,7.73,0,0,0,6.07.47,8.24,8.24,0,0,0,5.36-10.09A8.14,8.14,0,0,0,3006.3,1592.76Z"/><path class="cls-2" d="M2999.52,1574.11a9.21,9.21,0,0,1,4.37,17.9,9.21,9.21,0,1,1-4.37-17.9Z"/><path class="cls-3" d="M3001.53,1593.39a10,10,0,0,1-5.07-1.39,10.42,10.42,0,0,1-3.54-14.46,10,10,0,0,1,6.37-4.47h0a10.28,10.28,0,0,1,4.88,20A10,10,0,0,1,3001.53,1593.39Zm-1.78-18.25a7.9,7.9,0,0,0-5,3.53,8.29,8.29,0,0,0,2.81,11.5,7.81,7.81,0,0,0,6.08.81,8.15,8.15,0,0,0-3.86-15.84Z"/><path class="cls-2" d="M2995.89,1556a9.25,9.25,0,0,1,6.87,1.46,9,9,0,0,1,3.87,5.78,9.28,9.28,0,0,1-7.11,10.83,9.14,9.14,0,0,1-10.91-7.21,9.35,9.35,0,0,1,1.37-7A9.07,9.07,0,0,1,2995.89,1556Z"/><path class="cls-3" d="M2997.54,1575.39a10,10,0,0,1-5.48-1.64,10.21,10.21,0,0,1-4.49-6.64,10.4,10.4,0,0,1,1.53-7.81,10.17,10.17,0,0,1,6.6-4.31h0a10.34,10.34,0,0,1,7.65,1.63,10,10,0,0,1,4.32,6.46,10.28,10.28,0,0,1-7.92,12.06A9.79,9.79,0,0,1,2997.54,1575.39Zm-1.46-18.3a8,8,0,0,0-5.21,3.39,8.3,8.3,0,0,0-1.22,6.21,8.15,8.15,0,0,0,3.57,5.28,7.89,7.89,0,0,0,6.07,1.1,8.17,8.17,0,0,0,6.3-9.58,8,8,0,0,0-3.43-5.11,8.17,8.17,0,0,0-6.08-1.29Z"/><path class="cls-2" d="M2992.89,1537.86a9.21,9.21,0,0,1,3,18.18,9.21,9.21,0,1,1-3-18.18Z"/><path class="cls-3" d="M2994.23,1557.26a10,10,0,0,1-5.78-1.85,10.38,10.38,0,0,1-2.39-14.6,10,10,0,0,1,6.67-4h0a10.27,10.27,0,0,1,3.35,20.27A9.59,9.59,0,0,1,2994.23,1557.26Zm-1.19-18.35a7.89,7.89,0,0,0-5.26,3.16,8.25,8.25,0,0,0,1.89,11.6,7.9,7.9,0,0,0,6,1.32,8.15,8.15,0,0,0-2.66-16.08Z"/><path class="cls-2" d="M2990.43,1519.59a9.22,9.22,0,1,1-7.94,10.36A9.24,9.24,0,0,1,2990.43,1519.59Z"/><path class="cls-3" d="M2991.52,1539a10,10,0,0,1-6-2,10.33,10.33,0,0,1-2-14.66,10,10,0,0,1,6.77-3.81h0a10.28,10.28,0,0,1,2.74,20.37A9.84,9.84,0,0,1,2991.52,1539Zm-1-18.37a7.89,7.89,0,0,0-5.34,3,8.21,8.21,0,0,0,1.55,11.65,8,8,0,0,0,6,1.5,8.15,8.15,0,0,0-2.17-16.16Z"/><path class="cls-2" d="M2988.48,1501.27a9.21,9.21,0,1,1-8.21,10.14A9.23,9.23,0,0,1,2988.48,1501.27Z"/><path class="cls-3" d="M2989.32,1520.72a10,10,0,0,1-6.24-2.17,10.35,10.35,0,0,1-3.87-7,10.23,10.23,0,0,1,2.27-7.64,10.07,10.07,0,0,1,6.9-3.68h0a10.28,10.28,0,1,1,.93,20.51Zm-.74-18.39a8,8,0,0,0-5.46,2.91,8.22,8.22,0,0,0,1.28,11.64,7.89,7.89,0,0,0,5.9,1.66,8.15,8.15,0,0,0-1.72-16.21Z"/><path class="cls-2" d="M2987,1482.9a9.27,9.27,0,0,1,9.87,8.43,9.21,9.21,0,0,1-15.08,7.84,9.27,9.27,0,0,1-3.24-6.32A9.16,9.16,0,0,1,2987,1482.9Z"/><path class="cls-3" d="M2987.6,1502.37a10.12,10.12,0,0,1-6.53-2.38,10.31,10.31,0,0,1-3.62-7,10.23,10.23,0,0,1,9.43-11.1,10.41,10.41,0,0,1,11,9.39,10.37,10.37,0,0,1-9.31,11.1C2988.25,1502.36,2987.93,1502.37,2987.6,1502.37Zm0-18.43-.57,0h0a8.11,8.11,0,0,0-7.46,8.8,8.18,8.18,0,0,0,2.87,5.6,8,8,0,0,0,5.94,1.85,8.11,8.11,0,0,0,5.49-2.9,8,8,0,0,0,1.9-5.89A8.25,8.25,0,0,0,2987.6,1483.94Z"/><path class="cls-2" d="M2985.81,1464.51a9.21,9.21,0,0,1,1.15,18.39,9.21,9.21,0,1,1-1.15-18.39Z"/><path class="cls-3" d="M2986.27,1484a10.08,10.08,0,0,1-6.69-2.53,10.21,10.21,0,0,1-3.48-7.12,10.32,10.32,0,0,1,2.62-7.54,10.07,10.07,0,0,1,7-3.35A10.28,10.28,0,0,1,2987,1484C2986.78,1484,2986.53,1484,2986.27,1484Zm0-18.43h-.41a8,8,0,0,0-5.56,2.65,8.23,8.23,0,0,0-2.07,6,8.09,8.09,0,0,0,8.65,7.63,8.15,8.15,0,0,0-.61-16.28Z"/><path class="cls-2" d="M2985,1446.1a9.21,9.21,0,1,1-8.84,9.6A9.22,9.22,0,0,1,2985,1446.1Z"/><path class="cls-3" d="M2985.31,1465.59a10.06,10.06,0,0,1-6.79-2.63,10.32,10.32,0,0,1-.65-14.67A10.08,10.08,0,0,1,2985,1445a10.27,10.27,0,0,1,.86,20.53Zm-.24-18.43a8,8,0,0,0-5.64,2.57,8.22,8.22,0,0,0,.52,11.66,8,8,0,0,0,5.8,2.06,8.15,8.15,0,0,0-.68-16.29Z"/><path class="cls-2" d="M2984.58,1427.67a9.22,9.22,0,0,1,.46,18.43,9.22,9.22,0,1,1-.46-18.43Z"/><path class="cls-3" d="M2984.71,1447.17a10.24,10.24,0,0,1-10.19-10,10.23,10.23,0,0,1,2.85-7.39,10.09,10.09,0,0,1,7.19-3.13h.15a10.28,10.28,0,0,1,.36,20.55Zm-.12-18.43a8,8,0,0,0-5.68,2.47A8.16,8.16,0,0,0,2985,1445a8.15,8.15,0,0,0-.29-16.3Z"/><path class="cls-2" d="M2984.43,1409.25a9.21,9.21,0,1,1-9.16,9.29A9.19,9.19,0,0,1,2984.43,1409.25Z"/><path class="cls-3" d="M2984.41,1428.74a10.09,10.09,0,0,1-7.06-2.87,10.31,10.31,0,0,1-.13-14.69,10.12,10.12,0,0,1,7.2-3h0a10.28,10.28,0,0,1,.17,20.56Zm0-18.43a8,8,0,0,0-5.69,2.37,8.16,8.16,0,0,0,.1,11.66,7.91,7.91,0,0,0,5.73,2.27,8.15,8.15,0,0,0-.13-16.3Z"/><path class="cls-2" d="M2984.56,1390.82a9.22,9.22,0,1,1-9.28,9.15A9.14,9.14,0,0,1,2984.56,1390.82Z"/><path class="cls-3" d="M2984.41,1410.31a10.1,10.1,0,0,1-7.23-3,10.36,10.36,0,0,1,.11-14.63,10.1,10.1,0,0,1,7.29-2.9,10.28,10.28,0,0,1-.15,20.55Zm0-18.43a8,8,0,0,0-5.63,2.3,8.23,8.23,0,0,0-.09,11.61,8,8,0,0,0,5.72,2.39h0a8.15,8.15,0,0,0,.11-16.3h-.13Z"/><path class="cls-2" d="M2985,1372.39a9.22,9.22,0,1,1-9.43,9A9.21,9.21,0,0,1,2985,1372.39Z"/><path class="cls-3" d="M2984.68,1391.88h-.13a10.12,10.12,0,0,1-7.17-3.09,10.3,10.3,0,0,1,.31-14.66,10,10,0,0,1,7.3-2.8,10.28,10.28,0,0,1-.31,20.55Zm0-18.43a8,8,0,0,0-5.54,2.22,8.19,8.19,0,0,0-.24,11.64,8,8,0,0,0,5.66,2.45h.11a8.15,8.15,0,0,0,.25-16.3h-.24Z"/><path class="cls-2" d="M2985.6,1354a9.21,9.21,0,1,1-9.53,8.88A9.23,9.23,0,0,1,2985.6,1354Z"/><path class="cls-3" d="M2985.21,1373.46h-.28a10.23,10.23,0,0,1-9.92-10.64,10.3,10.3,0,0,1,3.31-7.22,10.07,10.07,0,0,1,7.33-2.69h0a10.28,10.28,0,0,1-.44,20.55Zm0-18.43a8,8,0,0,0-5.44,2.13,8.17,8.17,0,0,0-2.62,5.74,8.08,8.08,0,0,0,7.85,8.43,8.15,8.15,0,0,0,.57-16.29Z"/><path class="cls-2" d="M2986.5,1335.57a9.22,9.22,0,1,1-9.65,8.76A9.23,9.23,0,0,1,2986.5,1335.57Z"/><path class="cls-3" d="M2986,1355.05h-.42a10.11,10.11,0,0,1-7.08-3.29,10.3,10.3,0,0,1-2.69-7.47,10.22,10.22,0,0,1,10.77-9.77h0a10.28,10.28,0,0,1-.58,20.54Zm0-18.43a8.12,8.12,0,0,0-8.08,7.75,8.16,8.16,0,0,0,2.14,5.94,8,8,0,0,0,5.59,2.6,8.15,8.15,0,0,0,.8-16.28H2986Z"/><path class="cls-2" d="M2987.61,1317.17a9.22,9.22,0,1,1-9.76,8.64A9.21,9.21,0,0,1,2987.61,1317.17Z"/><path class="cls-3" d="M2987,1336.64h-.56a10.25,10.25,0,0,1-9.65-10.88,10.28,10.28,0,0,1,3.5-7.13,10.12,10.12,0,0,1,7.39-2.51h0a10.28,10.28,0,0,1-.68,20.53Zm0-18.43a8,8,0,0,0-5.3,2,8.18,8.18,0,0,0-.73,11.59,8,8,0,0,0,5.6,2.7,8.15,8.15,0,0,0,1-16.28Z"/><path class="cls-2" d="M2988.94,1298.79a9.21,9.21,0,1,1-9.85,8.53A9.24,9.24,0,0,1,2988.94,1298.79Z"/><path class="cls-3" d="M2988.21,1318.26c-.22,0-.45,0-.67,0a10.28,10.28,0,1,1,1.48-20.5h0a10.28,10.28,0,0,1-.81,20.53Zm0-18.43a8,8,0,0,0-5.24,2,8.22,8.22,0,0,0-.84,11.57,8,8,0,0,0,5.56,2.76,8.15,8.15,0,0,0,1.17-16.26C2988.64,1299.83,2988.42,1299.83,2988.2,1299.83Z"/><path class="cls-2" d="M2990.48,1280.43a9.21,9.21,0,1,1-9.95,8.41A9.22,9.22,0,0,1,2990.48,1280.43Z"/><path class="cls-3" d="M2989.66,1299.88c-.27,0-.54,0-.8,0a10.12,10.12,0,0,1-7-3.54,10.33,10.33,0,0,1,1.18-14.57,10.11,10.11,0,0,1,7.5-2.37h0a10.28,10.28,0,0,1-.92,20.51Zm0-18.43a8.17,8.17,0,0,0-6.13,13.48,8,8,0,0,0,5.5,2.8,8.15,8.15,0,0,0,1.37-16.24h0A6.23,6.23,0,0,0,2989.65,1281.45Z"/><path class="cls-2" d="M2992.22,1262.08a9.22,9.22,0,1,1-10,8.31A9.21,9.21,0,0,1,2992.22,1262.08Z"/><path class="cls-3" d="M2991.29,1281.53c-.29,0-.6,0-.9,0a10.28,10.28,0,0,1-9.28-11.21,10.28,10.28,0,0,1,3.74-7,10.13,10.13,0,0,1,7.48-2.26h0a10.28,10.28,0,0,1-1,20.51Zm0-18.43a8,8,0,0,0-5.09,1.83,8.17,8.17,0,0,0-1.12,11.55,8,8,0,0,0,5.5,2.89,8.15,8.15,0,0,0,1.53-16.23A7.5,7.5,0,0,0,2991.29,1263.1Z"/><path class="cls-2" d="M2994.14,1243.75A9.22,9.22,0,1,1,2984,1252,9.23,9.23,0,0,1,2994.14,1243.75Z"/><path class="cls-3" d="M2993.13,1263.19c-.34,0-.68,0-1,0a10.28,10.28,0,1,1,2.15-20.44h0a10.28,10.28,0,0,1-1.13,20.49Zm0-18.43a8,8,0,0,0-5,1.77,8.21,8.21,0,0,0-3,5.54,8.11,8.11,0,0,0,7.24,9,8.15,8.15,0,0,0,1.71-16.21h0C2993.72,1244.78,2993.42,1244.76,2993.12,1244.76Z"/><path class="cls-2" d="M2996.27,1225.45a9.21,9.21,0,1,1-10.21,8.09A9.23,9.23,0,0,1,2996.27,1225.45Z"/><path class="cls-3" d="M2995.16,1244.87a10.69,10.69,0,0,1-1.13-.06,10.12,10.12,0,0,1-6.84-3.77,10.28,10.28,0,0,1,9.21-16.65h0a10.28,10.28,0,0,1-1.24,20.48Zm0-18.43a8.16,8.16,0,0,0-.9,16.26,8.15,8.15,0,1,0,.9-16.26Z"/><path class="cls-2" d="M2998.58,1207.16a9.22,9.22,0,1,1-10.3,8A9.21,9.21,0,0,1,2998.58,1207.16Z"/><path class="cls-3" d="M2997.38,1226.58a10.33,10.33,0,0,1-8-3.91,10.29,10.29,0,0,1,1.82-14.52,10.17,10.17,0,0,1,7.56-2,10.28,10.28,0,0,1-1.34,20.47Zm0-18.43a8,8,0,0,0-4.91,1.68,8.16,8.16,0,0,0-1.45,11.52,8,8,0,0,0,5.39,3,8.15,8.15,0,0,0,2-16.17h0A7.69,7.69,0,0,0,2997.37,1208.15Z"/><path class="cls-2" d="M3001.05,1188.9a9.21,9.21,0,1,1-10.36,7.89A9.22,9.22,0,0,1,3001.05,1188.9Z"/><path class="cls-3" d="M2999.76,1208.3a9.74,9.74,0,0,1-1.32-.08,10.28,10.28,0,0,1-4.8-18.41,10.06,10.06,0,0,1,7.56-2h0a10.28,10.28,0,0,1-1.44,20.45Zm0-18.43a8,8,0,0,0-4.84,1.64,8.15,8.15,0,0,0,3.79,14.6,8.15,8.15,0,0,0,2.2-16.16h0A9,9,0,0,0,2999.76,1189.87Z"/><path class="cls-2" d="M3003.7,1170.66a9.22,9.22,0,1,1-10.43,7.8A9.24,9.24,0,0,1,3003.7,1170.66Z"/><path class="cls-3" d="M3002.33,1190.05a9.69,9.69,0,0,1-1.42-.1,10.06,10.06,0,0,1-6.76-4,10.28,10.28,0,0,1,9.71-16.35h0a10.28,10.28,0,0,1-1.53,20.44Zm0-18.43a8,8,0,0,0-4.77,1.59,8.2,8.2,0,0,0-1.7,11.48,8,8,0,0,0,5.35,3.16,8.15,8.15,0,1,0,1.12-16.23Z"/><path class="cls-2" d="M3006.54,1152.45a9.22,9.22,0,1,1-10.51,7.7A9.25,9.25,0,0,1,3006.54,1152.45Z"/><path class="cls-3" d="M3005.07,1171.83a11.48,11.48,0,0,1-1.53-.11,10.11,10.11,0,0,1-6.68-4,10.27,10.27,0,0,1,9.85-16.28h0a10.28,10.28,0,0,1-1.64,20.43Zm0-18.43a8.15,8.15,0,0,0-1.21,16.21,8.15,8.15,0,1,0,1.21-16.21Z"/><path class="cls-2" d="M3009.53,1134.27a9.21,9.21,0,1,1-10.59,7.6A9.22,9.22,0,0,1,3009.53,1134.27Z"/><path class="cls-3" d="M3008,1153.63a9.92,9.92,0,0,1-1.62-.13,10.11,10.11,0,0,1-6.66-4.09,10.32,10.32,0,0,1-1.82-7.71,10.25,10.25,0,0,1,11.82-8.48,10.28,10.28,0,0,1-1.72,20.41Zm0-18.43a8.14,8.14,0,0,0-8,6.84,8.13,8.13,0,0,0,1.45,6.12,8,8,0,0,0,5.26,3.24,8.15,8.15,0,0,0,2.65-16.08h0A7.81,7.81,0,0,0,3008,1135.2Z"/><path class="cls-2" d="M3012.69,1116.11a9.22,9.22,0,1,1-10.67,7.5A9.21,9.21,0,0,1,3012.69,1116.11Z"/><path class="cls-3" d="M3011.06,1135.46a10,10,0,0,1-1.71-.14,10.13,10.13,0,0,1-6.62-4.16,10.29,10.29,0,0,1,2.51-14.41,10.05,10.05,0,0,1,7.63-1.68,10.28,10.28,0,0,1-1.81,20.39Zm0-18.43a8,8,0,0,0-4.6,1.46,8.16,8.16,0,0,0-2,11.44,8.14,8.14,0,1,0,8-12.77h0A7.79,7.79,0,0,0,3011.06,1117Z"/><path class="cls-2" d="M3016,1098a9.21,9.21,0,1,1-10.72,7.4A9.2,9.2,0,0,1,3016,1098Z"/><path class="cls-3" d="M3014.28,1117.32a9.82,9.82,0,0,1-1.78-.16,10.24,10.24,0,0,1-8.26-12,10.27,10.27,0,0,1,4.31-6.64,10.16,10.16,0,0,1,7.65-1.61,10.28,10.28,0,0,1-1.92,20.38Zm0-18.43a8,8,0,0,0-4.55,1.42,8.14,8.14,0,0,0-3.42,5.27,8.13,8.13,0,0,0,6.54,9.49,8.15,8.15,0,0,0,2.93-16h0A8.46,8.46,0,0,0,3014.3,1098.89Z"/><path class="cls-2" d="M3019.47,1079.89a9.21,9.21,0,1,1-10.77,7.31A9.22,9.22,0,0,1,3019.47,1079.89Z"/><path class="cls-3" d="M3017.68,1099.21a10.25,10.25,0,0,1-8.44-4.48,10.28,10.28,0,0,1,10.44-15.89,10.28,10.28,0,0,1-2,20.37Zm0-18.44a7.94,7.94,0,0,0-4.48,1.38,8.14,8.14,0,0,0,3,14.79,8.15,8.15,0,0,0,3.06-16h0A8.36,8.36,0,0,0,3017.69,1080.77Z"/><path class="cls-2" d="M3023.11,1061.82a9.22,9.22,0,1,1-10.84,7.22A9.23,9.23,0,0,1,3023.11,1061.82Z"/><path class="cls-3" d="M3021.25,1081.12a10.27,10.27,0,1,1,2.08-20.34h0a10.28,10.28,0,0,1-2.08,20.34Zm0-18.43a8.16,8.16,0,0,0-1.58,16.15,8.15,8.15,0,0,0,3.23-16h0A8.48,8.48,0,0,0,3021.25,1062.69Z"/><path class="cls-2" d="M3026.91,1043.79a9.21,9.21,0,1,1-10.91,7.12A9.22,9.22,0,0,1,3026.91,1043.79Z"/><path class="cls-3" d="M3025,1063.07a10.36,10.36,0,0,1-2.06-.21,10.11,10.11,0,0,1-6.47-4.39,10.27,10.27,0,0,1,10.7-15.72h0a10.28,10.28,0,0,1-2.17,20.32Zm0-18.43a8.13,8.13,0,0,0-7.93,6.48,8.18,8.18,0,0,0,1.17,6.19,8,8,0,0,0,5.11,3.47,8.16,8.16,0,0,0,3.36-16h0A8.28,8.28,0,0,0,3025,1044.64Z"/><path class="cls-2" d="M3030.86,1025.79a9.21,9.21,0,1,1-11,7A9.21,9.21,0,0,1,3030.86,1025.79Z"/><path class="cls-3" d="M3028.84,1045.05a10.7,10.7,0,0,1-2.16-.22,10.15,10.15,0,0,1-6.43-4.45,10.31,10.31,0,0,1,3.1-14.27,10.16,10.16,0,0,1,7.74-1.36h0a10.28,10.28,0,0,1-2.25,20.3Zm0-18.43a8.17,8.17,0,0,0-6.8,12.61,8,8,0,0,0,5.09,3.52,8.15,8.15,0,0,0,3.49-15.93h0A8.3,8.3,0,0,0,3028.84,1026.62Z"/><path class="cls-2" d="M3035,1007.82a9.22,9.22,0,1,1-11,6.93A9.19,9.19,0,0,1,3035,1007.82Z"/><path class="cls-3" d="M3032.86,1027.07a10.23,10.23,0,0,1-8.63-4.75,10.24,10.24,0,1,1,8.63,4.75Zm0-18.43a8.16,8.16,0,0,0-6.85,12.54,8,8,0,0,0,5.07,3.57,8.15,8.15,0,0,0,3.62-15.9A8.24,8.24,0,0,0,3032.87,1008.64Z"/><path class="cls-2" d="M3039.21,989.89a9.21,9.21,0,1,1-11.09,6.83A9.21,9.21,0,0,1,3039.21,989.89Z"/><path class="cls-3" d="M3037,1009.12a10.24,10.24,0,0,1-9.93-12.65,10.3,10.3,0,0,1,4.65-6.41,10.16,10.16,0,0,1,7.72-1.21h0a10.28,10.28,0,0,1-2.44,20.27Zm0-18.43a8,8,0,0,0-4.2,1.19,8.12,8.12,0,0,0-3.69,5.09,8.11,8.11,0,0,0,6,9.81,8.15,8.15,0,0,0,3.76-15.86h0A8.31,8.31,0,0,0,3037.05,990.69Z"/><path class="cls-2" d="M3043.62,972a9.22,9.22,0,1,1-11.14,6.74A9.25,9.25,0,0,1,3043.62,972Z"/><path class="cls-3" d="M3041.36,991.21a10.43,10.43,0,0,1-2.4-.29,10.28,10.28,0,0,1,4.92-20h0a10.28,10.28,0,0,1-2.52,20.25Zm0-18.43a8.15,8.15,0,0,0-1.92,16.07,8.15,8.15,0,0,0,3.9-15.83A8.32,8.32,0,0,0,3041.38,972.78Z"/><path class="cls-2" d="M3048.21,954.14a9.22,9.22,0,1,1-11.21,6.64A9.24,9.24,0,0,1,3048.21,954.14Z"/><path class="cls-3" d="M3045.86,973.34a10.83,10.83,0,0,1-2.5-.31,10.1,10.1,0,0,1-6.26-4.67,10.32,10.32,0,0,1,3.61-14.16,10.12,10.12,0,0,1,7.77-1.08h0a10.28,10.28,0,0,1-2.62,20.22Zm0-18.44a8.15,8.15,0,0,0-7.84,6.15,8.15,8.15,0,0,0,.89,6.22,8,8,0,0,0,5,3.69,8.15,8.15,0,0,0,4.06-15.79h0A8.17,8.17,0,0,0,3045.87,954.9Z"/><path class="cls-2" d="M3053,936.34a9.21,9.21,0,1,1-11.27,6.53A9.22,9.22,0,0,1,3053,936.34Z"/><path class="cls-3" d="M3050.53,955.51a10.27,10.27,0,0,1-8.82-5.06,10.26,10.26,0,0,1-1.06-7.85,10.25,10.25,0,0,1,12.58-7.29,10.28,10.28,0,0,1-2.7,20.2Zm0-18.43a8.16,8.16,0,0,0-2.07,16,8.16,8.16,0,0,0,4.2-15.76h0A8.15,8.15,0,0,0,3050.54,937.08Z"/><path class="cls-2" d="M3057.86,918.57a9.22,9.22,0,1,1-11.34,6.43A9.21,9.21,0,0,1,3057.86,918.57Z"/><path class="cls-3" d="M3055.35,937.72a10,10,0,0,1-2.68-.36,10.11,10.11,0,0,1-6.18-4.77,10.29,10.29,0,0,1,3.89-14.11,10.14,10.14,0,0,1,7.77-.93h0a10.28,10.28,0,0,1-2.8,20.17Zm0-18.43a8,8,0,0,0-3.95,1,8.18,8.18,0,0,0-3.09,11.2,8.14,8.14,0,1,0,9.24-11.93h0A7.9,7.9,0,0,0,3055.37,919.29Z"/><path class="cls-2" d="M3062.93,900.85a9.22,9.22,0,1,1-11.4,6.33A9.21,9.21,0,0,1,3062.93,900.85Z"/><path class="cls-3" d="M3060.32,920a10.48,10.48,0,0,1-2.75-.38,10.28,10.28,0,1,1,5.65-19.77h0a10.28,10.28,0,0,1-2.9,20.15Zm0-18.43a8.16,8.16,0,0,0-2.21,16,8.15,8.15,0,0,0,4.48-15.68A8.41,8.41,0,0,0,3060.36,901.55Z"/><path class="cls-2" d="M3068.16,883.19a9.21,9.21,0,1,1-11.44,6.21A9.23,9.23,0,0,1,3068.16,883.19Z"/><path class="cls-3" d="M3065.48,902.28a10.37,10.37,0,0,1-2.85-.4A10.29,10.29,0,0,1,3060.7,883a10.07,10.07,0,0,1,7.77-.78h0a10.27,10.27,0,0,1-3,20.11Zm0-18.43a8,8,0,0,0-3.8,1,8.22,8.22,0,0,0-3.33,11.12,8,8,0,0,0,4.84,3.89,8.15,8.15,0,0,0,4.63-15.63h0A8.19,8.19,0,0,0,3065.51,883.85Z"/><path class="cls-2" d="M3073.59,865.57a9.22,9.22,0,1,1-11.51,6.1A9.24,9.24,0,0,1,3073.59,865.57Z"/><path class="cls-3" d="M3070.82,884.64a10.22,10.22,0,0,1-9-5.39,10.33,10.33,0,0,1,4.25-14,10.15,10.15,0,0,1,7.84-.72h0a10.28,10.28,0,0,1-3.09,20.08Zm0-18.43a8,8,0,0,0-3.77.95,8.09,8.09,0,0,0-4,4.82,8.19,8.19,0,0,0,.6,6.27,8,8,0,0,0,4.78,3.92,8.15,8.15,0,0,0,4.8-15.58h0A8.11,8.11,0,0,0,3070.84,866.21Z"/><path class="cls-2" d="M3079.18,848a9.21,9.21,0,1,1-11.58,6A9.22,9.22,0,0,1,3079.18,848Z"/><path class="cls-3" d="M3076.33,867.06a10.53,10.53,0,0,1-3.06-.47,10.1,10.1,0,0,1-6-5,10.3,10.3,0,0,1,4.43-14,10.13,10.13,0,0,1,7.8-.63h0a10.28,10.28,0,0,1-3.18,20.06Zm0-18.43a8.16,8.16,0,0,0-7.75,5.69,8.19,8.19,0,0,0,.55,6.27,8,8,0,0,0,4.74,4,8.15,8.15,0,0,0,5-15.53h0A8,8,0,0,0,3076.36,848.63Z"/><path class="cls-2" d="M3085,830.51a9.21,9.21,0,1,1-11.63,5.87A9.22,9.22,0,0,1,3085,830.51Z"/><path class="cls-3" d="M3082,849.52A10.28,10.28,0,0,1,3077.5,830a10.14,10.14,0,0,1,7.79-.54h0a10.28,10.28,0,0,1-3.31,20Zm.06-18.43a8,8,0,0,0-3.59.86,8.19,8.19,0,0,0-3.67,11,8,8,0,0,0,4.73,4.06,8.15,8.15,0,1,0,2.53-15.91Z"/><path class="cls-2" d="M3090.92,813.08a9.21,9.21,0,1,1-11.69,5.73A9.23,9.23,0,0,1,3090.92,813.08Z"/><path class="cls-3" d="M3087.87,832.05a10.27,10.27,0,1,1,3.4-20h0a10.27,10.27,0,0,1-3.4,20Zm0-18.43a8,8,0,0,0-3.53.83,8.2,8.2,0,0,0-3.74,11,7.94,7.94,0,0,0,4.66,4.07,8.15,8.15,0,0,0,5.28-15.42h0A7.94,7.94,0,0,0,3087.9,813.62Z"/><path class="cls-2" d="M3097.08,795.71a9.21,9.21,0,1,1-11.77,5.6A9.2,9.2,0,0,1,3097.08,795.71Z"/><path class="cls-3" d="M3093.94,814.65a10.27,10.27,0,1,1,3.51-19.94h0a10.28,10.28,0,0,1-3.51,19.94Zm0-18.43a8.2,8.2,0,0,0-7.67,5.44,8.2,8.2,0,0,0,.35,6.3,8,8,0,0,0,4.61,4.11,8.15,8.15,0,0,0,5.45-15.36h0A7.88,7.88,0,0,0,3094,796.22Z"/><path class="cls-2" d="M3103.43,778.41a9.21,9.21,0,1,1-11.82,5.47A9.22,9.22,0,0,1,3103.43,778.41Z"/><path class="cls-3" d="M3100.17,797.31a10.27,10.27,0,1,1,3.64-19.9,10.28,10.28,0,0,1-3.64,19.9Zm.06-18.42a8,8,0,0,0-3.34.73,8.19,8.19,0,0,0-4,10.88,8.05,8.05,0,0,0,4.59,4.21,8.15,8.15,0,0,0,5.62-15.31h0A8.13,8.13,0,0,0,3100.23,778.89Z"/><path class="cls-2" d="M3110,761.19a9.22,9.22,0,1,1-11.89,5.33A9.23,9.23,0,0,1,3110,761.19Z"/><path class="cls-3" d="M3106.64,780.05a10.23,10.23,0,0,1-3.58-.65,10.06,10.06,0,0,1-5.71-5.34,10.34,10.34,0,0,1,5.19-13.67,10.09,10.09,0,0,1,7.85-.19h0a10.27,10.27,0,0,1-3.75,19.85Zm.05-18.42a8.12,8.12,0,0,0-7.58,5.26,8.12,8.12,0,0,0,.17,6.29,8,8,0,0,0,4.53,4.23,8.15,8.15,0,0,0,5.81-15.23A8.05,8.05,0,0,0,3106.69,761.63Z"/><path class="cls-2" d="M3116.79,744.05a9.22,9.22,0,1,1-12,5.18A9.22,9.22,0,0,1,3116.79,744.05Z"/><path class="cls-3" d="M3113.33,762.88a10.29,10.29,0,0,1-3.71-.7,10.1,10.1,0,0,1-5.64-5.4,10.31,10.31,0,0,1,5.39-13.63,10.1,10.1,0,0,1,7.82-.08,10.28,10.28,0,0,1-3.86,19.81Zm0-18.43a8.17,8.17,0,0,0-7.44,11.48,8,8,0,0,0,4.46,4.27,8.15,8.15,0,0,0,6-15.16h0A8.08,8.08,0,0,0,3113.37,744.45Z"/><path class="cls-2" d="M3123.79,727a9.21,9.21,0,1,1-12,5A9.15,9.15,0,0,1,3123.79,727Z"/><path class="cls-3" d="M3120.19,745.78a10.23,10.23,0,0,1-9.41-14.16,10.31,10.31,0,0,1,5.61-5.62,10.08,10.08,0,0,1,7.81,0,10.27,10.27,0,0,1-4,19.75Zm.07-18.43a8.21,8.21,0,0,0-7.51,11.34,8,8,0,0,0,4.43,4.38,8.15,8.15,0,0,0,6.2-15.08h0A7.92,7.92,0,0,0,3120.26,727.35Z"/><path class="cls-2" d="M3131,710.07a9.21,9.21,0,1,1-12.1,4.84A9.22,9.22,0,0,1,3131,710.07Z"/><path class="cls-3" d="M3127.34,728.78a10.25,10.25,0,0,1-4-.79,10.11,10.11,0,0,1-5.49-5.54,10.29,10.29,0,0,1,.07-8,10.25,10.25,0,0,1,13.51-5.41h0a10.27,10.27,0,0,1-4.13,19.69Zm.06-18.42a8.25,8.25,0,0,0-3,.58,8.21,8.21,0,0,0-4.54,10.7,8,8,0,0,0,4.34,4.39,8.15,8.15,0,0,0,6.42-15A8.06,8.06,0,0,0,3127.4,710.36Z"/><path class="cls-2" d="M3138.53,693.23a9.22,9.22,0,1,1-12.16,4.67A9.22,9.22,0,0,1,3138.53,693.23Z"/><path class="cls-3" d="M3134.68,711.89a10.27,10.27,0,0,1-3.5-19.89,10.07,10.07,0,0,1,7.79.26h0a10.27,10.27,0,0,1-4.29,19.63Zm.09-18.42a8,8,0,0,0-2.84.52,8.17,8.17,0,0,0-4.6,4.34,8.12,8.12,0,0,0,4.14,10.76,8.15,8.15,0,0,0,6.62-14.9h0A8,8,0,0,0,3134.77,693.47Z"/><path class="cls-2" d="M3146.31,676.52a9.22,9.22,0,1,1-12.26,4.47A9.23,9.23,0,0,1,3146.31,676.52Z"/><path class="cls-3" d="M3142.34,695.11a10.21,10.21,0,0,1-4.25-.92,10.07,10.07,0,0,1-5.31-5.69,10.34,10.34,0,0,1,6.14-13.32,10.11,10.11,0,0,1,7.84.38h0a10.27,10.27,0,0,1-4.42,19.55Zm.06-18.42a8.28,8.28,0,0,0-2.76.49,8.21,8.21,0,0,0-4.87,10.57,8,8,0,0,0,4.2,4.51,8.15,8.15,0,0,0,6.88-14.78h0A8,8,0,0,0,3142.4,676.69Z"/><path class="cls-2" d="M3154.35,659.94a9.21,9.21,0,0,1-8,16.58,9.21,9.21,0,1,1,8-16.58Z"/><path class="cls-3" d="M3150.21,678.46a10.18,10.18,0,0,1-9.62-6.85,10.1,10.1,0,0,1,.49-7.88,10.21,10.21,0,0,1,6-5.27,10.05,10.05,0,0,1,7.79.53h0a10.26,10.26,0,0,1-4.61,19.47Zm.09-18.42a8,8,0,0,0-2.59.43,8.23,8.23,0,0,0-4.73,4.19,8.11,8.11,0,0,0,3.78,10.9,8.15,8.15,0,0,0,7.11-14.67h0A8,8,0,0,0,3150.3,660Z"/><path class="cls-2" d="M3162.71,643.51a9.22,9.22,0,1,1-12.42,4A9.22,9.22,0,0,1,3162.71,643.51Z"/><path class="cls-3" d="M3158.45,662a10.24,10.24,0,0,1-4.57-1.07,10.07,10.07,0,0,1-5.12-5.87,10.31,10.31,0,0,1,6.66-13.12,10.08,10.08,0,0,1,7.78.67h0a10.27,10.27,0,0,1-4.75,19.39Zm.07-18.42a8.19,8.19,0,0,0-7.74,10.8,8,8,0,0,0,4,4.65,8.15,8.15,0,0,0,7.4-14.53h0A8,8,0,0,0,3158.52,643.54Z"/><path class="cls-2" d="M3171.4,627.26a9.27,9.27,0,0,1,3.72,12.44,9.19,9.19,0,1,1-3.72-12.44Z"/><path class="cls-3" d="M3167,645.62a10.24,10.24,0,0,1-4.73-1.16,10.13,10.13,0,0,1-5-6.05,10.25,10.25,0,0,1,.79-7.87,10.23,10.23,0,0,1,13.94-4.21,10.39,10.39,0,0,1,4.15,13.86,10.17,10.17,0,0,1-6,5A10,10,0,0,1,3167,645.62Zm.08-18.42a8.11,8.11,0,0,0-7.18,4.33,8.2,8.2,0,0,0-.64,6.26,8.17,8.17,0,0,0,15,1.41,8.15,8.15,0,0,0-3.29-11h0A8,8,0,0,0,3167,627.2Z"/><path class="cls-2" d="M3180.44,611.21a9.21,9.21,0,0,1-9,16,9.21,9.21,0,1,1,9-16Z"/><path class="cls-3" d="M3175.79,629.44a10.25,10.25,0,0,1-4.9-1.24,10.22,10.22,0,0,1-3.94-14,10.28,10.28,0,0,1,6.29-4.91,10.08,10.08,0,0,1,7.74,1h0a10.26,10.26,0,0,1-5.19,19.15Zm.11-18.41a8.07,8.07,0,0,0-2.11.29,8.17,8.17,0,0,0-5,3.9,8.12,8.12,0,1,0,14.16,8,8.19,8.19,0,0,0-3-11.07A8,8,0,0,0,3175.9,611Z"/><path class="cls-2" d="M3189.88,595.38a9.22,9.22,0,1,1-12.67,3.17A9.22,9.22,0,0,1,3189.88,595.38Z"/><path class="cls-3" d="M3185.08,613.51a10.41,10.41,0,0,1-5.17-1.38,10.06,10.06,0,0,1-4.72-6.19,10.33,10.33,0,0,1,7.58-12.69,10,10,0,0,1,7.67,1.23h0a10.27,10.27,0,0,1-5.36,19Zm.08-18.42a8.14,8.14,0,0,0-1.89.23,8.2,8.2,0,0,0-6,10.08,8,8,0,0,0,3.73,4.88,8.15,8.15,0,0,0,8.35-14h0A7.93,7.93,0,0,0,3185.16,595.09Z"/><path class="cls-2" d="M3199.78,579.83a9.22,9.22,0,0,1-9.9,15.55,9.22,9.22,0,1,1,9.9-15.55Z"/><path class="cls-3" d="M3194.75,597.81a10.4,10.4,0,0,1-5.42-1.52,10,10,0,0,1-4.55-6.29,10.36,10.36,0,0,1,7.92-12.5,10,10,0,0,1,7.66,1.45h0a10.34,10.34,0,0,1,3.06,14.12A10.2,10.2,0,0,1,3194.75,597.81Zm.07-18.41a8,8,0,0,0-1.68.18,8.23,8.23,0,0,0-6.29,9.93,7.86,7.86,0,0,0,3.59,5,8.15,8.15,0,0,0,8.75-13.75h0A7.87,7.87,0,0,0,3194.82,579.4Z"/><path class="cls-2" d="M3210.17,564.61a9.21,9.21,0,0,1-10.39,15.22,9.21,9.21,0,1,1,10.39-15.22Z"/><path class="cls-3" d="M3204.87,582.41a10.34,10.34,0,0,1-5.67-1.69,10,10,0,0,1-4.37-6.46,10.38,10.38,0,0,1,8.32-12.22,10,10,0,0,1,7.64,1.71h0a10.25,10.25,0,0,1-5.92,18.66ZM3205,564a8.76,8.76,0,0,0-1.44.13,8.09,8.09,0,0,0-5.32,3.47,8.18,8.18,0,0,0-1.29,6.25,7.86,7.86,0,0,0,3.45,5.09,8.15,8.15,0,0,0,9.19-13.46A7.87,7.87,0,0,0,3205,564Z"/><path class="cls-2" d="M3221.12,549.8a9.27,9.27,0,0,1,1.84,12.81,9,9,0,0,1-5.95,3.59,9.28,9.28,0,0,1-6.84-1.59,9,9,0,0,1-3.72-6,9.34,9.34,0,0,1,1.73-6.93A9.11,9.11,0,0,1,3221.12,549.8Z"/><path class="cls-3" d="M3215.52,567.38a10.26,10.26,0,0,1-6-1.9,10.14,10.14,0,0,1-4.15-6.7,10.4,10.4,0,0,1,1.92-7.72,10.26,10.26,0,0,1,6.91-4.12,10,10,0,0,1,7.55,2h0a10.28,10.28,0,0,1,2,14.28,10,10,0,0,1-6.64,4A10.19,10.19,0,0,1,3215.52,567.38Zm.11-18.41a8.29,8.29,0,0,0-1.11.08,8.12,8.12,0,0,0-5.48,3.27,8.24,8.24,0,0,0-1.54,6.14,8,8,0,0,0,3.28,5.29,8.22,8.22,0,0,0,6.06,1.4,7.94,7.94,0,0,0,5.26-3.17,8.17,8.17,0,0,0-1.63-11.35h0A7.82,7.82,0,0,0,3215.63,549Z"/><path class="cls-2" d="M3232.73,535.49a9.21,9.21,0,0,1-11.61,14.31,9.21,9.21,0,1,1,11.61-14.31Z"/><path class="cls-3" d="M3226.85,552.8a10.45,10.45,0,0,1-6.37-2.16,9.91,9.91,0,0,1-3.85-6.73,10.39,10.39,0,0,1,9.43-11.61,9.93,9.93,0,0,1,7.37,2.38,10.37,10.37,0,0,1,1.36,14.35A10.09,10.09,0,0,1,3226.85,552.8Zm.07-18.41-.68,0a8.26,8.26,0,0,0-7.5,9.23,7.81,7.81,0,0,0,3,5.3A8.15,8.15,0,0,0,3232,536.29h0A7.78,7.78,0,0,0,3226.92,534.39Z"/><path class="cls-2" d="M3245.14,521.86a9.32,9.32,0,0,1,2.82,6.41,8.91,8.91,0,0,1-2.33,6.48,9.3,9.3,0,0,1-12.9.74,9.11,9.11,0,0,1-.7-13.09,9.42,9.42,0,0,1,6.51-3.08A9,9,0,0,1,3245.14,521.86Z"/><path class="cls-3" d="M3238.84,538.78a10.55,10.55,0,0,1-6.8-2.48,9.91,9.91,0,0,1-3.49-7,10.31,10.31,0,0,1,2.69-7.65,10.44,10.44,0,0,1,7.26-3.43,10,10,0,0,1,7.38,2.84,10.39,10.39,0,0,1,3.15,7.14,10,10,0,0,1-2.62,7.24A10.16,10.16,0,0,1,3238.84,538.78Zm0-18.4h-.27a8.35,8.35,0,0,0-5.77,2.74,8.22,8.22,0,0,0-2.14,6.08,7.78,7.78,0,0,0,2.75,5.47,8.27,8.27,0,0,0,11.42-.63,7.85,7.85,0,0,0,2.06-5.73,8.21,8.21,0,0,0-2.5-5.68h0A7.89,7.89,0,0,0,3238.85,520.38Z"/><path class="cls-2" d="M3258.44,509.11a9.59,9.59,0,0,1,2.35,6.64A9.16,9.16,0,0,1,3258,522a9.35,9.35,0,0,1-12.88-.14,9.05,9.05,0,0,1,.17-13.13,9.21,9.21,0,0,1,6.78-2.63A8.79,8.79,0,0,1,3258.44,509.11Z"/><path class="cls-3" d="M3251.68,525.57a10.49,10.49,0,0,1-7.28-2.94,9.89,9.89,0,0,1-3.06-7.24A10.5,10.5,0,0,1,3252.12,505a9.83,9.83,0,0,1,7.12,3.37,10.58,10.58,0,0,1,2.61,7.38,10.06,10.06,0,0,1-10.17,9.78Zm.1-18.41a8.38,8.38,0,0,0-8.31,8.23,7.78,7.78,0,0,0,2.4,5.7,8.27,8.27,0,0,0,11.42.14,8.08,8.08,0,0,0,2.44-5.52,8.43,8.43,0,0,0-2.09-5.89,7.69,7.69,0,0,0-5.59-2.65Z"/><path class="cls-2" d="M3272.88,497.68a9.62,9.62,0,0,1,1.65,6.82,8.94,8.94,0,0,1-9.82,7.8,9.6,9.6,0,0,1-6.27-3.19,8.69,8.69,0,0,1-2.17-6.69,9.51,9.51,0,0,1,10.58-8.41A8.74,8.74,0,0,1,3272.88,497.68Z"/><path class="cls-3" d="M3265.62,513.41c-.34,0-.68,0-1,0a10.65,10.65,0,0,1-7-3.54,9.74,9.74,0,0,1-2.43-7.51A10.57,10.57,0,0,1,3267,493a9.76,9.76,0,0,1,6.74,4.11,10.59,10.59,0,0,1,1.83,7.57,10.12,10.12,0,0,1-3.7,6.6A10.38,10.38,0,0,1,3265.62,513.41Zm0-18.42a8.38,8.38,0,0,0-5.17,1.87,8.19,8.19,0,0,0-3.12,5.68,7.63,7.63,0,0,0,1.91,5.87,8.49,8.49,0,0,0,5.58,2.83,7.86,7.86,0,0,0,8.66-6.9,8.5,8.5,0,0,0-1.47-6,7.66,7.66,0,0,0-5.3-3.22A6.67,6.67,0,0,0,3265.62,495Z"/><path class="cls-2" d="M3288.63,488.15a9.82,9.82,0,0,1,.66,7,8.94,8.94,0,0,1-3.94,5.34,9.35,9.35,0,0,1-3.21,1.17,9.07,9.07,0,0,1-3.4-.12,9.67,9.67,0,0,1-5.86-3.84,8.68,8.68,0,0,1-1.43-6.92,9.28,9.28,0,0,1,1.5-3.34,8.79,8.79,0,0,1,2.86-2.65,9.37,9.37,0,0,1,7.37-1.11A8.58,8.58,0,0,1,3288.63,488.15Z"/><path class="cls-3" d="M3280.79,502.81a9.85,9.85,0,0,1-2.28-.26,10.67,10.67,0,0,1-6.5-4.26,9.77,9.77,0,0,1-1.6-7.77,10.34,10.34,0,0,1,1.67-3.71,10,10,0,0,1,3.2-3,10.41,10.41,0,0,1,8.2-1.2,9.58,9.58,0,0,1,6.1,5,10.9,10.9,0,0,1,.74,7.74,10,10,0,0,1-4.44,6,10.47,10.47,0,0,1-3.58,1.3A9.51,9.51,0,0,1,3280.79,502.81Zm0-18.41a8.82,8.82,0,0,0-4.47,1.28,7.85,7.85,0,0,0-2.53,2.36,8.08,8.08,0,0,0-1.33,2.95,7.58,7.58,0,0,0,1.26,6.08,8.65,8.65,0,0,0,5.23,3.41,7.76,7.76,0,0,0,3,.11,8.52,8.52,0,0,0,2.86-1,8,8,0,0,0,3.44-4.72,8.77,8.77,0,0,0-.59-6.21h0a7.49,7.49,0,0,0-4.78-3.93A7.26,7.26,0,0,0,3280.82,484.4Z"/><path class="cls-2" d="M3305.82,481.61a10.34,10.34,0,0,1-.77,6.95,8.92,8.92,0,0,1-4.7,4.45,9.11,9.11,0,0,1-6.54-.15,10.08,10.08,0,0,1-5.18-4.71,8.41,8.41,0,0,1-.32-7.06,9.31,9.31,0,0,1,5.45-5.24,9.44,9.44,0,0,1,7.62.24A8.28,8.28,0,0,1,3305.82,481.61Z"/><path class="cls-3" d="M3297.24,494.61a10.22,10.22,0,0,1-3.83-.76,11,11,0,0,1-5.73-5.23,9.45,9.45,0,0,1-.35-7.94,10.38,10.38,0,0,1,6.07-5.83,10.54,10.54,0,0,1,8.45.28,9.39,9.39,0,0,1,5,6.22h0A11.35,11.35,0,0,1,3306,489a10,10,0,0,1-5.26,5A10.52,10.52,0,0,1,3297.24,494.61Zm.05-18.38a8.83,8.83,0,0,0-8,5.27,7.38,7.38,0,0,0,.29,6.17,9,9,0,0,0,4.64,4.21,8,8,0,0,0,5.77.12,7.77,7.77,0,0,0,4.1-3.9,9.21,9.21,0,0,0,.7-6.23h0a7.27,7.27,0,0,0-3.86-4.82A8.35,8.35,0,0,0,3297.29,476.23Z"/><path class="cls-2" d="M3324.07,479.57a10.74,10.74,0,0,1-2.68,6.49,9.79,9.79,0,0,1-2.5,2,6.91,6.91,0,0,1-3,1,8,8,0,0,1-3.16-.26,11.44,11.44,0,0,1-2.93-1.45,10.14,10.14,0,0,1-4-5.73,8.34,8.34,0,0,1,1.26-7,8.21,8.21,0,0,1,2.82-2.53,10,10,0,0,1,3.94-1.31,11.37,11.37,0,0,1,4.15.38,8.85,8.85,0,0,1,3.35,1.89A8.06,8.06,0,0,1,3324.07,479.57Z"/><path class="cls-3" d="M3314.86,490.16a7.83,7.83,0,0,1-2.45-.36,11.76,11.76,0,0,1-3.19-1.58,11.19,11.19,0,0,1-4.43-6.35,9.5,9.5,0,0,1,4.59-10.7,11.13,11.13,0,0,1,4.36-1.44,12.71,12.71,0,0,1,4.54.41,9.87,9.87,0,0,1,3.76,2.12,9.1,9.1,0,0,1,3.09,7.36h0a11.82,11.82,0,0,1-2.94,7.14,11,11,0,0,1-2.74,2.22,8,8,0,0,1-3.47,1.13C3315.58,490.14,3315.21,490.16,3314.86,490.16Zm0-18.35c-.32,0-.64,0-1,0a8.88,8.88,0,0,0-3.51,1.18,7.14,7.14,0,0,0-2.46,2.19,7.34,7.34,0,0,0-1.11,6.12,9.15,9.15,0,0,0,3.57,5.13,9.93,9.93,0,0,0,2.62,1.3,7,7,0,0,0,2.77.22,5.86,5.86,0,0,0,2.54-.83,9.08,9.08,0,0,0,2.24-1.79,9.69,9.69,0,0,0,2.41-5.84h0a6.91,6.91,0,0,0-2.36-5.67,8,8,0,0,0-2.93-1.67A10.62,10.62,0,0,0,3314.88,471.81Z"/><path class="cls-2" d="M3342,483.39a10.77,10.77,0,0,1-4.63,5.26,8.29,8.29,0,0,1-11.22-2.39,10.68,10.68,0,0,1-2.09-6.69,8,8,0,0,1,3.28-6.25,9.9,9.9,0,0,1,14.2,3A8.05,8.05,0,0,1,3342,483.39Z"/><path class="cls-3" d="M3332.89,491a6.83,6.83,0,0,1-1.82-.23,9.41,9.41,0,0,1-5.74-3.83,11.74,11.74,0,0,1-2.33-7.39,9.15,9.15,0,0,1,3.71-7.06,11,11,0,0,1,15.79,3.38,9.09,9.09,0,0,1,.5,7.93h0a11.68,11.68,0,0,1-5.1,5.79A10.89,10.89,0,0,1,3332.89,491Zm.07-18.38a7.89,7.89,0,0,0-4.95,1.56,7,7,0,0,0-2.88,5.46,9.59,9.59,0,0,0,1.89,6,7.29,7.29,0,0,0,4.43,3l.13,0a7.29,7.29,0,0,0,5.3-1A9.7,9.7,0,0,0,3341,483h0a7,7,0,0,0-.39-6.13,8.76,8.76,0,0,0-5.79-4.1A12.24,12.24,0,0,0,3333,472.6Z"/><path class="cls-2" d="M3357.86,492.66a10.2,10.2,0,0,1-6,3.62,11.17,11.17,0,0,1-3.26.13,8,8,0,0,1-3-1.05,6.84,6.84,0,0,1-2.34-2.1,10.3,10.3,0,0,1-1.46-2.86,10.77,10.77,0,0,1,.19-7,8,8,0,0,1,5.13-4.84,8.82,8.82,0,0,1,3.84-.37,11.36,11.36,0,0,1,3.95,1.34,10,10,0,0,1,3.06,2.79,8.1,8.1,0,0,1,1.55,3.47A8.34,8.34,0,0,1,3357.86,492.66Z"/><path class="cls-3" d="M3349.69,497.54a9.49,9.49,0,0,1-1.21-.07,9.06,9.06,0,0,1-3.37-1.17,8.11,8.11,0,0,1-2.7-2.43,11.11,11.11,0,0,1-1.61-3.16A11.83,11.83,0,0,1,3341,483a9.11,9.11,0,0,1,5.8-5.47,9.94,9.94,0,0,1,4.32-.4,12.58,12.58,0,0,1,4.31,1.46,11.16,11.16,0,0,1,3.39,3.08,9.51,9.51,0,0,1-.15,11.66h0a11.16,11.16,0,0,1-6.6,4A14.26,14.26,0,0,1,3349.69,497.54Zm.25-18.38a8.86,8.86,0,0,0-2.48.4,6.94,6.94,0,0,0-4.46,4.21,9.73,9.73,0,0,0-.17,6.31,8.89,8.89,0,0,0,1.33,2.57,5.76,5.76,0,0,0,2,1.78,6.9,6.9,0,0,0,2.6.93,10.25,10.25,0,0,0,3-.13A9.12,9.12,0,0,0,3357,492h0a7.3,7.3,0,0,0,1.48-6,7.17,7.17,0,0,0-1.37-3,8.84,8.84,0,0,0-2.72-2.49,10.44,10.44,0,0,0-3.57-1.22A5.63,5.63,0,0,0,3349.94,479.16Z"/><path class="cls-2" d="M3370.9,505.63a10.08,10.08,0,0,1-6.65,2.2,9.05,9.05,0,0,1-6-2.53,8.88,8.88,0,0,1-2.49-6,10.31,10.31,0,0,1,2.13-6.66,8.25,8.25,0,0,1,6.29-3.23,9.44,9.44,0,0,1,7.06,2.87,9.31,9.31,0,0,1,2.85,7A8.44,8.44,0,0,1,3370.9,505.63Z"/><path class="cls-3" d="M3364.5,508.89h-.27a9.63,9.63,0,0,1-9.56-9.53A11.4,11.4,0,0,1,3357,492a9.41,9.41,0,0,1,7.11-3.65,10.6,10.6,0,0,1,7.85,3.21,10.38,10.38,0,0,1,3.15,7.77,9.5,9.5,0,0,1-3.55,7.11h0A11,11,0,0,1,3364.5,508.89Zm-.06-18.41h-.25a7.29,7.29,0,0,0-5.5,2.83,9.12,9.12,0,0,0-1.89,6,7.81,7.81,0,0,0,2.19,5.26,8,8,0,0,0,5.29,2.19,9,9,0,0,0,5.95-2h0a7.32,7.32,0,0,0,2.77-5.51,8.3,8.3,0,0,0-2.52-6.22A8.46,8.46,0,0,0,3364.44,490.48Z"/><path class="cls-2" d="M3381.42,520.74a9.68,9.68,0,0,1-6.92,1.12,9,9,0,0,1-3.15-1.27,9.54,9.54,0,0,1-2.46-2.37,9,9,0,0,1-1.43-6.48,9.86,9.86,0,0,1,3.44-6.11,8.57,8.57,0,0,1,6.8-1.89,9.4,9.4,0,0,1,6.29,4,8.79,8.79,0,0,1,1.53,3.59,9.4,9.4,0,0,1,0,3.66A8.72,8.72,0,0,1,3381.42,520.74Z"/><path class="cls-3" d="M3376.56,523.13a11.71,11.71,0,0,1-2.26-.23,10,10,0,0,1-3.53-1.41,10.55,10.55,0,0,1-2.73-2.63,10.08,10.08,0,0,1-1.64-7.27,10.92,10.92,0,0,1,3.83-6.79,9.59,9.59,0,0,1,7.63-2.11,10.46,10.46,0,0,1,7,4.44,10.12,10.12,0,0,1,1.71,4,10.52,10.52,0,0,1,0,4.07,9.73,9.73,0,0,1-4.62,6.45A10.44,10.44,0,0,1,3376.56,523.13Zm-.18-18.42a7.48,7.48,0,0,0-4.8,1.74,8.68,8.68,0,0,0-3.07,5.45,7.94,7.94,0,0,0,1.24,5.7,8.55,8.55,0,0,0,2.17,2.1,8.06,8.06,0,0,0,2.79,1.12,8.71,8.71,0,0,0,6.16-1h0a7.62,7.62,0,0,0,3.62-5,8.27,8.27,0,0,0,0-3.25,7.78,7.78,0,0,0-1.34-3.16,8.28,8.28,0,0,0-5.58-3.58A7.91,7.91,0,0,0,3376.38,504.71Z"/><path class="cls-2" d="M3390,537.06a9.67,9.67,0,0,1-7,.36,8.93,8.93,0,0,1-5.8-11.12,9.6,9.6,0,0,1,4.28-5.56,8.72,8.72,0,0,1,7-.9,9.5,9.5,0,0,1,6.26,12A8.77,8.77,0,0,1,3390,537.06Z"/><path class="cls-3" d="M3386,539a10.87,10.87,0,0,1-3.41-.56,10,10,0,0,1-6.49-12.41,10.62,10.62,0,0,1,4.76-6.18,9.77,9.77,0,0,1,7.84-1,10.58,10.58,0,0,1,7,13.33,9.75,9.75,0,0,1-5.28,5.87h0A10.43,10.43,0,0,1,3386,539Zm-.09-18.44a7.72,7.72,0,0,0-4,1.11,8.55,8.55,0,0,0-3.8,5,7.86,7.86,0,0,0,5.1,9.8,8.56,8.56,0,0,0,6.26-.31,7.71,7.71,0,0,0,4.14-4.6,8.47,8.47,0,0,0-5.53-10.63A8,8,0,0,0,3385.92,520.54Z"/><path class="cls-2" d="M3396.93,554.11A9.36,9.36,0,0,1,3385.1,549a9.24,9.24,0,0,1,0-6.84,9.57,9.57,0,0,1,4.85-5.1,8.75,8.75,0,0,1,7-.17,9.19,9.19,0,0,1,5.12,5.15A9.05,9.05,0,0,1,3396.93,554.11Z"/><path class="cls-3" d="M3393.7,555.74a10.14,10.14,0,0,1-9.57-14,10.55,10.55,0,0,1,5.39-5.68,9.8,9.8,0,0,1,7.87-.19,10.51,10.51,0,0,1,5.64,13.84,9.91,9.91,0,0,1-5.74,5.37A10.49,10.49,0,0,1,3393.7,555.74Zm0-18.44a7.77,7.77,0,0,0-3.26.72,8.47,8.47,0,0,0-4.31,4.54,8.11,8.11,0,0,0,0,6.05,8.28,8.28,0,0,0,10.48,4.5h0a7.78,7.78,0,0,0,4.52-4.23,8.12,8.12,0,0,0,0-6.43,8.2,8.2,0,0,0-4.54-4.58A7.82,7.82,0,0,0,3393.67,537.3Z"/><path class="cls-2" d="M3402.73,571.6a9.3,9.3,0,0,1-11.49-5.91,8.91,8.91,0,0,1,.51-6.88,9.35,9.35,0,0,1,5.18-4.7,9,9,0,0,1,7.06.36,9.41,9.41,0,0,1,4.7,5.46A9.11,9.11,0,0,1,3402.73,571.6Z"/><path class="cls-3" d="M3400.1,573a10.37,10.37,0,0,1-9.87-7,10,10,0,0,1,.56-7.67,10.37,10.37,0,0,1,5.78-5.24,10,10,0,0,1,7.89.4,10.47,10.47,0,0,1,5.24,6.08,10.32,10.32,0,0,1-.66,8.1,9.87,9.87,0,0,1-6,4.93A10.59,10.59,0,0,1,3400.1,573Zm0-18.42a7.94,7.94,0,0,0-2.75.49,8.2,8.2,0,0,0-4.6,4.17,7.94,7.94,0,0,0-.46,6.07,8.3,8.3,0,0,0,10.19,5.23h0a7.78,7.78,0,0,0,4.73-3.88,8.19,8.19,0,0,0,.52-6.44,8.33,8.33,0,0,0-4.16-4.84A8,8,0,0,0,3400.05,554.62Z"/><path class="cls-2" d="M3407.52,589.39a9.21,9.21,0,0,1-4.79-17.79,9.21,9.21,0,1,1,4.79,17.79Z"/><path class="cls-3" d="M3405.33,590.72a10.27,10.27,0,0,1-2.91-20.14,9.91,9.91,0,0,1,7.7.82,10.41,10.41,0,0,1,3.9,14.44,9.94,9.94,0,0,1-6.26,4.59A10.68,10.68,0,0,1,3405.33,590.72Zm0-18.44a7.66,7.66,0,0,0-2.27.34,8.15,8.15,0,0,0,4.23,15.74h0a7.82,7.82,0,0,0,4.92-3.61,8.27,8.27,0,0,0-3.1-11.49A7.83,7.83,0,0,0,3405.31,572.28Z"/><path class="cls-2" d="M3411.5,607.39a9.24,9.24,0,0,1-6.89-1.34,9,9,0,0,1-4-5.69,9.29,9.29,0,0,1,6.89-11,9.12,9.12,0,0,1,11.05,7,9.35,9.35,0,0,1-1.24,7A9,9,0,0,1,3411.5,607.39Z"/><path class="cls-3" d="M3409.68,608.63A10.39,10.39,0,0,1,3404,607a10.07,10.07,0,0,1-4.44-6.37,10.29,10.29,0,0,1,7.67-12.22,10,10,0,0,1,7.71,1.23,10.24,10.24,0,0,1,4.64,6.56,10.42,10.42,0,0,1-1.38,7.85,10.17,10.17,0,0,1-6.52,4.43h0A10.66,10.66,0,0,1,3409.68,608.63Zm0-18.44a7.81,7.81,0,0,0-1.91.24,8.17,8.17,0,0,0-6.1,9.7,7.92,7.92,0,0,0,3.51,5,8.22,8.22,0,0,0,6.11,1.18h0a8,8,0,0,0,5.15-3.49,8.25,8.25,0,0,0,1.09-6.24,8.14,8.14,0,0,0-3.68-5.22A7.94,7.94,0,0,0,3409.68,590.19Z"/><path class="cls-2" d="M3414.81,625.52a9.22,9.22,0,0,1-3.31-18.13,9.21,9.21,0,1,1,3.31,18.13Z"/><path class="cls-3" d="M3413.32,626.7a10.28,10.28,0,0,1-2-20.36,10,10,0,0,1,7.67,1.55,10.37,10.37,0,0,1,2.63,14.55,9.94,9.94,0,0,1-6.61,4.12A10.43,10.43,0,0,1,3413.32,626.7Zm0-18.43a8,8,0,0,0-1.6.16,8.15,8.15,0,0,0-6.47,9.46,8.23,8.23,0,0,0,9.4,6.58h0a7.93,7.93,0,0,0,5.22-3.26,8.25,8.25,0,0,0-2.09-11.56A8,8,0,0,0,3413.31,608.27Z"/><path class="cls-2" d="M3417.53,643.74a9.21,9.21,0,0,1-2.72-18.22,9.21,9.21,0,1,1,2.72,18.22Z"/><path class="cls-3" d="M3416.31,644.88a10.27,10.27,0,0,1-1.68-20.41,10,10,0,0,1,7.6,1.79,10.38,10.38,0,0,1,2.15,14.64,10,10,0,0,1-6.71,3.9A10.44,10.44,0,0,1,3416.31,644.88Zm0-18.43a8.52,8.52,0,0,0-1.33.11,8.15,8.15,0,0,0,2.41,16.13h0a7.91,7.91,0,0,0,5.3-3.08A8.24,8.24,0,0,0,3421,628,8,8,0,0,0,3416.31,626.45Z"/><path class="cls-2" d="M3419.72,662a9.22,9.22,0,1,1,8.09-10.25A9.21,9.21,0,0,1,3419.72,662Z"/><path class="cls-3" d="M3418.75,663.15a10.27,10.27,0,0,1-1.37-20.46,10,10,0,0,1,7.51,2,10.31,10.31,0,0,1,1.77,14.67,10,10,0,0,1-6.83,3.74h0C3419.47,663.13,3419.1,663.15,3418.75,663.15Zm0-18.43a10,10,0,0,0-1.09.07,8.15,8.15,0,0,0,1.94,16.19h0a7.89,7.89,0,0,0,5.39-3,8.19,8.19,0,0,0-1.41-11.66A7.91,7.91,0,0,0,3418.76,644.72Z"/><path class="cls-2" d="M3421.45,680.39a9.22,9.22,0,0,1-1.73-18.35,9.22,9.22,0,1,1,1.73,18.35Z"/><path class="cls-3" d="M3420.71,681.48a10.28,10.28,0,0,1-1.11-20.5,10.1,10.1,0,0,1,7.49,2.21,10.28,10.28,0,0,1,3.75,7,10.22,10.22,0,0,1-9.3,11.21h0Zm0-18.43a6.73,6.73,0,0,0-.89.05,8.15,8.15,0,0,0,1.54,16.23h0a8.1,8.1,0,0,0,7.36-8.88,8.2,8.2,0,0,0-3-5.61A7.91,7.91,0,0,0,3420.72,663.05Z"/><path class="cls-2" d="M3422.78,698.77a9.14,9.14,0,1,1,6.33-3.12A9.19,9.19,0,0,1,3422.78,698.77Z"/><path class="cls-3" d="M3422.21,699.85a10.34,10.34,0,0,1-10.27-9.54,10.37,10.37,0,0,1,9.42-11,10.2,10.2,0,0,1,11,9.51,10.2,10.2,0,0,1-9.54,11h0Zm0-18.43c-.24,0-.47,0-.7,0a8.23,8.23,0,0,0-7.48,8.71,8.22,8.22,0,0,0,8.66,7.55h0a8.08,8.08,0,0,0,5.59-2.76,8.19,8.19,0,0,0,2-6,8.1,8.1,0,0,0-2.81-5.63A8,8,0,0,0,3422.24,681.42Z"/><path class="cls-2" d="M3423.75,717.17a9.21,9.21,0,1,1,8.74-9.68A9.21,9.21,0,0,1,3423.75,717.17Z"/><path class="cls-3" d="M3423.36,718.24a10.27,10.27,0,0,1-.64-20.53,10.06,10.06,0,0,1,7.38,2.54,10.32,10.32,0,0,1,.75,14.69,10.07,10.07,0,0,1-7.06,3.29h-.43Zm0-18.43-.52,0a8.15,8.15,0,0,0,.85,16.28,7.94,7.94,0,0,0,5.58-2.6,8.19,8.19,0,0,0-.59-11.67A8,8,0,0,0,3423.37,699.81Z"/><path class="cls-2" d="M3424.35,735.59a9.21,9.21,0,1,1,8.92-9.52A9.24,9.24,0,0,1,3424.35,735.59Z"/><path class="cls-3" d="M3424.14,736.65a10.27,10.27,0,0,1-.44-20.54,10,10,0,0,1,7.33,2.69,10.27,10.27,0,0,1-6.66,17.85h-.23Zm0-18.43h-.36a8.15,8.15,0,0,0,.54,16.3h0a8.1,8.1,0,0,0,7.88-8.42,8.17,8.17,0,0,0-2.62-5.75A7.94,7.94,0,0,0,3424.15,718.22Z"/><path class="cls-2" d="M3424.66,754a9.21,9.21,0,1,1,9.07-9.36A9.21,9.21,0,0,1,3424.66,754Z"/><path class="cls-3" d="M3424.6,755.08a10.28,10.28,0,0,1-.28-20.55,10.21,10.21,0,0,1,10.47,10.11,10.25,10.25,0,0,1-2.95,7.39,10,10,0,0,1-7.17,3.05h-.07Zm0-18.43h-.21a8.15,8.15,0,0,0,.22,16.3h.06a8,8,0,0,0,5.67-2.41,8.2,8.2,0,0,0-.16-11.63A8,8,0,0,0,3424.59,736.65Z"/><path class="cls-2" d="M3424.66,772.44a9.22,9.22,0,1,1,9.22-9.21A9.23,9.23,0,0,1,3424.66,772.44Z"/><path class="cls-3" d="M3424.74,773.51h-.09a10.28,10.28,0,0,1,0-20.56,10,10,0,0,1,7.23,2.93,10.27,10.27,0,0,1,3.06,7.34,10.23,10.23,0,0,1-10.2,10.29Zm0-18.43h-.08a8.15,8.15,0,0,0,0,16.3h0a8.11,8.11,0,0,0,8.15-8.15,8.18,8.18,0,0,0-2.44-5.84A8,8,0,0,0,3424.75,755.08Z"/><path class="cls-2" d="M3424.4,790.87a9.22,9.22,0,1,1,9.35-9.08A9.24,9.24,0,0,1,3424.4,790.87Z"/><path class="cls-3" d="M3424.62,791.94h-.24a10.28,10.28,0,0,1,.22-20.55h.06a10.24,10.24,0,0,1,10.15,10.43,10.25,10.25,0,0,1-3.17,7.29A10.09,10.09,0,0,1,3424.62,791.94Zm0-18.43a8.15,8.15,0,0,0-.18,16.3h0a7.93,7.93,0,0,0,5.75-2.24,8.2,8.2,0,0,0,.2-11.63,8,8,0,0,0-5.72-2.43Z"/><path class="cls-2" d="M3423.86,809.29a9.21,9.21,0,1,1,9.48-8.95A9.24,9.24,0,0,1,3423.86,809.29Z"/><path class="cls-3" d="M3424.21,810.36h-.38a10.27,10.27,0,0,1,.59-20.54,10.09,10.09,0,0,1,7.15,3.14,10.33,10.33,0,0,1,2.84,7.42,10.24,10.24,0,0,1-10.2,10Zm-.31-2.13a8.11,8.11,0,0,0,8.38-7.91,8.17,8.17,0,0,0-2.25-5.9,8,8,0,0,0-5.65-2.49,8.15,8.15,0,0,0-.48,16.3Z"/><path class="cls-2" d="M3423.1,827.71a9.22,9.22,0,1,1,9.6-8.83A9.22,9.22,0,0,1,3423.1,827.71Z"/><path class="cls-3" d="M3423.56,828.78H3423a10.28,10.28,0,0,1,.86-20.54,10.12,10.12,0,0,1,7.11,3.25,10.31,10.31,0,0,1-.62,14.65A10.09,10.09,0,0,1,3423.56,828.78Zm-.41-2.14a8,8,0,0,0,5.81-2.08,8.18,8.18,0,0,0,.5-11.63,8,8,0,0,0-5.63-2.58,8.15,8.15,0,0,0-.68,16.29Z"/><path class="cls-2" d="M3422.1,846.11a9.21,9.21,0,1,1,9.7-8.7A9.24,9.24,0,0,1,3422.1,846.11Z"/><path class="cls-3" d="M3422.67,847.19l-.64,0a10.28,10.28,0,0,1,1.12-20.53,10.24,10.24,0,0,1,9.71,10.83,10.24,10.24,0,0,1-3.43,7.14A10.13,10.13,0,0,1,3422.67,847.19Zm0-18.43a8.15,8.15,0,0,0-.49,16.29h0a8.15,8.15,0,1,0,.88-16.28Z"/><path class="cls-2" d="M3420.87,864.49a9.21,9.21,0,1,1,9.81-8.58A9.22,9.22,0,0,1,3420.87,864.49Z"/><path class="cls-3" d="M3421.55,865.58c-.25,0-.51,0-.76,0a10.27,10.27,0,0,1,1.37-20.5,10.08,10.08,0,0,1,7,3.42,10.26,10.26,0,0,1,2.56,7.51,10.24,10.24,0,0,1-10.19,9.6Zm0-18.43a8.15,8.15,0,0,0-.6,16.28h0a8.11,8.11,0,0,0,8.67-7.59,8.16,8.16,0,0,0-2-6,8,8,0,0,0-5.55-2.71Z"/><path class="cls-2" d="M3419.44,882.87a9.22,9.22,0,1,1,9.9-8.47A9.21,9.21,0,0,1,3419.44,882.87Z"/><path class="cls-3" d="M3420.22,884q-.43,0-.87,0a10.28,10.28,0,0,1,1.59-20.5,10.26,10.26,0,0,1,9.46,11.05,10.31,10.31,0,0,1-3.61,7.07A10.15,10.15,0,0,1,3420.22,884Zm0-18.43a8.15,8.15,0,0,0-.68,16.28h0a8,8,0,0,0,5.88-1.88,8.16,8.16,0,0,0-4.62-14.38Z"/><path class="cls-2" d="M3417.8,901.22a9.21,9.21,0,1,1,10-8.36A9.22,9.22,0,0,1,3417.8,901.22Z"/><path class="cls-3" d="M3418.69,902.33c-.33,0-.66,0-1-.05a10.28,10.28,0,0,1,1.83-20.47,10.24,10.24,0,0,1,9.32,11.15,10.28,10.28,0,0,1-3.67,7A10.13,10.13,0,0,1,3418.69,902.33Zm0-18.43a8.15,8.15,0,0,0-.78,16.27h0a8.15,8.15,0,1,0,1.45-16.24Z"/><path class="cls-2" d="M3416,919.56a9.22,9.22,0,1,1,10.09-8.25A9.23,9.23,0,0,1,3416,919.56Z"/><path class="cls-3" d="M3416.94,920.68a10.28,10.28,0,0,1-1.1-.06h0a10.28,10.28,0,0,1,2.06-20.45,10.12,10.12,0,0,1,6.9,3.65,10.26,10.26,0,0,1,2.3,7.59,10.25,10.25,0,0,1-10.16,9.27Zm0-18.43a8.15,8.15,0,0,0-.86,16.25h0a8.11,8.11,0,0,0,8.92-7.29,8.2,8.2,0,0,0-1.83-6,8,8,0,0,0-5.46-2.9C3417.44,902.26,3417.19,902.25,3416.93,902.25Z"/><path class="cls-2" d="M3413.93,937.88a9.22,9.22,0,1,1,10.18-8.15A9.19,9.19,0,0,1,3413.93,937.88Z"/><path class="cls-3" d="M3415,939a9.66,9.66,0,0,1-1.2-.07,10.27,10.27,0,1,1,7.51-2.14A10.08,10.08,0,0,1,3415,939Zm0-18.43a8.15,8.15,0,0,0-.95,16.25h0a8,8,0,0,0,5.95-1.69,8.19,8.19,0,0,0,1.29-11.55,8,8,0,0,0-5.44-3A8.24,8.24,0,0,0,3415,920.57Z"/><path class="cls-2" d="M3411.73,956.17a9.21,9.21,0,1,1,10.24-8A9.2,9.2,0,0,1,3411.73,956.17Z"/><path class="cls-3" d="M3412.89,957.31a11.48,11.48,0,0,1-1.3-.08,10.28,10.28,0,0,1,2.46-20.41,10.28,10.28,0,0,1-1.16,20.49Zm0-18.43a8.15,8.15,0,0,0-1,16.24,8,8,0,0,0,6-1.64,8.14,8.14,0,0,0,3.1-5.48,8.14,8.14,0,0,0-7.11-9.07C3413.5,938.9,3413.19,938.88,3412.88,938.88Z"/><path class="cls-2" d="M3409.33,974.45a9.22,9.22,0,1,1,10.32-7.94A9.25,9.25,0,0,1,3409.33,974.45Z"/><path class="cls-3" d="M3410.59,975.6a10.85,10.85,0,0,1-1.4-.1h0a10.28,10.28,0,0,1,2.68-20.38,10.11,10.11,0,0,1,6.79,3.87,10.34,10.34,0,0,1-1.88,14.5A10.11,10.11,0,0,1,3410.59,975.6Zm-1.12-2.21a8,8,0,0,0,6-1.59,8.21,8.21,0,0,0,1.48-11.51,8,8,0,0,0-5.36-3.06,8.15,8.15,0,0,0-2.13,16.16Z"/><path class="cls-2" d="M3406.76,992.69a9.21,9.21,0,1,1,10.41-7.84A9.2,9.2,0,0,1,3406.76,992.69Z"/><path class="cls-3" d="M3408.1,993.86a10.81,10.81,0,0,1-1.5-.11,10.28,10.28,0,0,1,2.87-20.36,10.16,10.16,0,0,1,6.75,3.94,10.31,10.31,0,0,1-2,14.47A10.12,10.12,0,0,1,3408.1,993.86Zm0-18.43a8.15,8.15,0,0,0-1.18,16.21h0a8.11,8.11,0,0,0,9.2-6.93,8.16,8.16,0,0,0-1.58-6.09,8,8,0,0,0-5.34-3.12A8.23,8.23,0,0,0,3408.09,975.43Z"/><path class="cls-2" d="M3404,1010.92a9.22,9.22,0,1,1,10.49-7.74A9.19,9.19,0,0,1,3404,1010.92Z"/><path class="cls-3" d="M3405.44,1012.09a10.64,10.64,0,0,1-1.59-.12h0a10.28,10.28,0,0,1,3.06-20.33,10.16,10.16,0,0,1,6.72,4,10.28,10.28,0,0,1-8.19,16.44Zm-1.26-2.22a8,8,0,0,0,6-1.47,8.14,8.14,0,0,0,1.73-11.48,8,8,0,0,0-5.32-3.17,8.15,8.15,0,0,0-2.42,16.12Z"/><path class="cls-2" d="M3401.11,1029.12a9.22,9.22,0,1,1,10.55-7.65A9.22,9.22,0,0,1,3401.11,1029.12Z"/><path class="cls-3" d="M3402.62,1030.31a10.58,10.58,0,0,1-1.68-.14h0a10.28,10.28,0,0,1,3.24-20.3,10.26,10.26,0,0,1,8.53,11.78,10.28,10.28,0,0,1-4.16,6.73A10.1,10.1,0,0,1,3402.62,1030.31Zm-1.33-2.24a8,8,0,0,0,6-1.41,8.17,8.17,0,0,0,3.3-5.36,8.13,8.13,0,0,0-6.76-9.33,8.15,8.15,0,0,0-2.56,16.1Z"/><path class="cls-2" d="M3398,1047.29a9.21,9.21,0,1,1,10.61-7.55A9.23,9.23,0,0,1,3398,1047.29Z"/><path class="cls-3" d="M3399.63,1048.49a10.66,10.66,0,0,1-1.77-.15h0a10.28,10.28,0,0,1,3.42-20.27,10.1,10.1,0,0,1,6.66,4.14,10.34,10.34,0,0,1-2.46,14.42A10.12,10.12,0,0,1,3399.63,1048.49Zm0-18.43a8.15,8.15,0,0,0-1.4,16.18h0a8,8,0,0,0,6-1.35,8.17,8.17,0,0,0,3.34-5.33,8.09,8.09,0,0,0-1.39-6.11,8,8,0,0,0-5.27-3.28A7.32,7.32,0,0,0,3399.63,1030.06Z"/><path class="cls-2" d="M3394.8,1065.43a9.21,9.21,0,1,1,10.68-7.45A9.24,9.24,0,0,1,3394.8,1065.43Z"/><path class="cls-3" d="M3396.47,1066.65a10.64,10.64,0,0,1-1.86-.17h0a10.28,10.28,0,0,1,3.62-20.24,10.12,10.12,0,0,1,6.59,4.19,10.32,10.32,0,0,1-2.54,14.38A10.09,10.09,0,0,1,3396.47,1066.65Zm-1.48-2.27a8.09,8.09,0,0,0,9.44-6.59,8.1,8.1,0,0,0-1.35-6.14,8,8,0,0,0-5.22-3.31,8.15,8.15,0,0,0-2.87,16Z"/><path class="cls-2" d="M3391.4,1083.54a9.21,9.21,0,1,1,10.75-7.35A9.21,9.21,0,0,1,3391.4,1083.54Z"/><path class="cls-3" d="M3393.15,1084.77a10.72,10.72,0,0,1-2-.18h0a10.28,10.28,0,0,1,3.79-20.21,10.13,10.13,0,0,1,6.56,4.25,10.28,10.28,0,0,1-8.4,16.14Zm-1.55-2.27a8.12,8.12,0,0,0,9.51-6.51,8.15,8.15,0,0,0-1.31-6.15,8,8,0,0,0-5.19-3.36,8.15,8.15,0,0,0-3,16Z"/><path class="cls-2" d="M3387.84,1101.63a9.22,9.22,0,1,1,10.83-7.27A9.19,9.19,0,0,1,3387.84,1101.63Z"/><path class="cls-3" d="M3389.67,1102.87a10.85,10.85,0,0,1-2-.2h0a10.28,10.28,0,0,1,4-20.17,10.13,10.13,0,0,1,6.52,4.3,10.28,10.28,0,0,1-2.81,14.35A10.08,10.08,0,0,1,3389.67,1102.87Zm0-18.43a8.15,8.15,0,0,0-1.61,16.14h0a8,8,0,0,0,6.08-1.2,8.16,8.16,0,0,0,2.23-11.39,8,8,0,0,0-5.16-3.4A8.11,8.11,0,0,0,3389.66,1084.44Z"/><path class="cls-2" d="M3384.13,1119.68a9.21,9.21,0,1,1,10.88-7.17A9.21,9.21,0,0,1,3384.13,1119.68Z"/><path class="cls-3" d="M3386,1120.94a10.29,10.29,0,1,1,5.56-1.67A10.12,10.12,0,0,1,3386,1120.94Zm0-18.43a8.15,8.15,0,0,0-1.69,16.13h0a8,8,0,0,0,6.08-1.15,8.18,8.18,0,0,0,2.36-11.35,8,8,0,0,0-5.16-3.47A7.8,7.8,0,0,0,3386,1102.51Z"/><path class="cls-2" d="M3380.27,1137.7a9.21,9.21,0,1,1,10.93-7.08A9.22,9.22,0,0,1,3380.27,1137.7Z"/><path class="cls-3" d="M3382.24,1139a9.71,9.71,0,0,1-2.2-.25h0a10.27,10.27,0,0,1,4.31-20.09,10.24,10.24,0,0,1,7.89,12.21,10.25,10.25,0,0,1-4.51,6.5A10.15,10.15,0,0,1,3382.24,1139Zm-1.74-2.32a8,8,0,0,0,6.08-1.09,8.19,8.19,0,0,0,3.58-5.18,8.1,8.1,0,0,0-6.25-9.67,8.15,8.15,0,0,0-3.41,15.94Z"/><path class="cls-2" d="M3376.25,1155.68a9.21,9.21,0,1,1,11-7A9.23,9.23,0,0,1,3376.25,1155.68Z"/><path class="cls-3" d="M3378.3,1157a10.51,10.51,0,0,1-2.29-.26,10.28,10.28,0,0,1,4.48-20.06,10.22,10.22,0,0,1,7.78,12.27,10.25,10.25,0,0,1-10,8Zm0-18.43a8.15,8.15,0,0,0-1.82,16.1h0a8,8,0,0,0,6.09-1,8.21,8.21,0,0,0,2.55-11.32,8.06,8.06,0,0,0-5.09-3.56A8.54,8.54,0,0,0,3378.31,1138.55Z"/><path class="cls-2" d="M3372.06,1173.63a9.22,9.22,0,1,1,11.05-6.89A9.23,9.23,0,0,1,3372.06,1173.63Z"/><path class="cls-3" d="M3374.2,1174.94a10.2,10.2,0,0,1-2.39-.28h0a10.27,10.27,0,0,1,4.67-20,10.1,10.1,0,0,1,6.37,4.52,10.33,10.33,0,0,1-3.29,14.23A10.1,10.1,0,0,1,3374.2,1174.94Zm-1.89-2.35a8.1,8.1,0,0,0,9.77-6.09,8.13,8.13,0,0,0-1-6.2,8,8,0,0,0-5-3.58,8.15,8.15,0,0,0-3.7,15.87Z"/><path class="cls-2" d="M3367.72,1191.54a9.21,9.21,0,1,1,11.12-6.79A9.22,9.22,0,0,1,3367.72,1191.54Z"/><path class="cls-3" d="M3369.93,1192.87a10.43,10.43,0,0,1-2.47-.3h0a10.28,10.28,0,0,1,4.84-20,10.13,10.13,0,0,1,6.34,4.59,10.28,10.28,0,0,1-8.71,15.69Zm-2-2.36a8.15,8.15,0,0,0,3.84-15.85,8.15,8.15,0,0,0-3.84,15.85Z"/><path class="cls-2" d="M3363.22,1209.41a9.21,9.21,0,1,1,11.19-6.69A9.19,9.19,0,0,1,3363.22,1209.41Z"/><path class="cls-3" d="M3365.51,1210.76a10.15,10.15,0,0,1-2.56-.32h0a10.28,10.28,0,0,1,5-19.93,10.09,10.09,0,0,1,6.29,4.63,10.29,10.29,0,0,1-3.56,14.19A10.15,10.15,0,0,1,3365.51,1210.76Zm-2-2.38a8,8,0,0,0,6.14-.88,8.16,8.16,0,0,0,2.82-11.26,8,8,0,0,0-5-3.67,8.15,8.15,0,0,0-4,15.81Z"/><path class="cls-2" d="M3358.56,1227.24a9.21,9.21,0,1,1,11.24-6.58A9.2,9.2,0,0,1,3358.56,1227.24Z"/><path class="cls-3" d="M3360.93,1228.62a10.28,10.28,0,1,1,2.55-20.24,10.29,10.29,0,0,1-2.55,20.24Zm0-18.43a8.15,8.15,0,0,0-2.11,16h0a8,8,0,0,0,6.12-.82,8.13,8.13,0,0,0-4-15.2Z"/><path class="cls-2" d="M3353.75,1245a9.21,9.21,0,1,1,11.29-6.49A9.23,9.23,0,0,1,3353.75,1245Z"/><path class="cls-3" d="M3356.19,1246.43a10.27,10.27,0,0,1-2.73-.38h0a10.28,10.28,0,0,1,5.37-19.84,10.23,10.23,0,0,1,7.23,12.61,10.29,10.29,0,0,1-4.84,6.27A10.11,10.11,0,0,1,3356.19,1246.43ZM3354,1244a8,8,0,0,0,6.13-.77,8.2,8.2,0,0,0,3.06-11.18,8,8,0,0,0-4.93-3.79A8.15,8.15,0,0,0,3354,1244Z"/><path class="cls-2" d="M3348.75,1262.77a9.22,9.22,0,1,1,11.36-6.38A9.23,9.23,0,0,1,3348.75,1262.77Z"/><path class="cls-3" d="M3351.29,1264.19a10.13,10.13,0,0,1-2.83-.4h0A10.27,10.27,0,0,1,3354,1244a10.09,10.09,0,0,1,6.16,4.8,10.29,10.29,0,0,1-8.9,15.38Zm0-18.43a8.15,8.15,0,0,0-2.25,16h0a8.1,8.1,0,0,0,10-5.64,8.18,8.18,0,0,0-.74-6.26,8,8,0,0,0-4.87-3.79A8.17,8.17,0,0,0,3351.3,1245.76Z"/><path class="cls-2" d="M3343.59,1280.46a9.21,9.21,0,1,1,11.43-6.27A9.23,9.23,0,0,1,3343.59,1280.46Z"/><path class="cls-3" d="M3346.21,1281.91a10.43,10.43,0,0,1-2.92-.43h0a10.28,10.28,0,0,1,5.75-19.73,10.09,10.09,0,0,1,6.12,4.86,10.3,10.3,0,0,1-8.95,15.3Zm-2.32-2.47a8.12,8.12,0,0,0,10.11-5.54,8.18,8.18,0,0,0-.7-6.26,8,8,0,0,0-4.84-3.85,8.15,8.15,0,0,0-4.57,15.65Z"/><path class="cls-2" d="M3338.26,1298.1a9.21,9.21,0,1,1,11.49-6.15A9.2,9.2,0,0,1,3338.26,1298.1Z"/><path class="cls-3" d="M3341,1299.57a10.36,10.36,0,0,1-3-.45h0a10.28,10.28,0,0,1,5.94-19.68,10.11,10.11,0,0,1,6.08,4.94,10.29,10.29,0,0,1-9,15.19Zm0-18.43a8.16,8.16,0,0,0-2.41,15.95h0a8,8,0,0,0,6.15-.59,8.16,8.16,0,0,0,3.37-11.11,8.11,8.11,0,0,0-7.11-4.25Z"/><path class="cls-2" d="M3332.77,1315.69a9.21,9.21,0,1,1,11.53-6A9.22,9.22,0,0,1,3332.77,1315.69Z"/><path class="cls-3" d="M3335.55,1317.19a10.4,10.4,0,0,1-3.11-.48h0a10.28,10.28,0,0,1,6.13-19.62,10.29,10.29,0,0,1,1.65,19A10,10,0,0,1,3335.55,1317.19Zm0-18.43a8.15,8.15,0,0,0-2.5,15.92h0a8,8,0,0,0,6.16-.52,8.21,8.21,0,0,0,4-4.83,8.11,8.11,0,0,0-7.7-10.57Z"/><path class="cls-2" d="M3327.08,1333.22a9.22,9.22,0,1,1,11.6-5.92A9.23,9.23,0,0,1,3327.08,1333.22Z"/><path class="cls-3" d="M3330,1334.75a10.19,10.19,0,0,1-3.22-.52h0a10.28,10.28,0,0,1,6.35-19.55,10.15,10.15,0,0,1,6,5,10.35,10.35,0,0,1-4.49,13.92A10.17,10.17,0,0,1,3330,1334.75Zm-2.55-2.54a8.09,8.09,0,0,0,10.25-5.24,8.16,8.16,0,0,0-.49-6.28,8,8,0,0,0-4.72-4,8.15,8.15,0,0,0-5,15.5Z"/><path class="cls-2" d="M3321.2,1350.69a9.22,9.22,0,1,1,11.68-5.8A9.22,9.22,0,0,1,3321.2,1350.69Z"/><path class="cls-3" d="M3324.17,1352.25a9.92,9.92,0,0,1-3.31-.56h0a10.28,10.28,0,0,1,6.55-19.48,10.13,10.13,0,0,1,5.91,5.1,10.3,10.3,0,0,1-9.15,14.94Zm0-18.43a8.15,8.15,0,0,0-2.65,15.86h0a8,8,0,0,0,6.19-.4,8.18,8.18,0,0,0,3.68-11,8.09,8.09,0,0,0-7.22-4.45Z"/><path class="cls-2" d="M3315.15,1368.09a9.21,9.21,0,1,1,11.73-5.67A9.22,9.22,0,0,1,3315.15,1368.09Z"/><path class="cls-3" d="M3318.2,1369.69a10.28,10.28,0,1,1,3.34-20,10.24,10.24,0,0,1,6.34,13.09,10.27,10.27,0,0,1-9.68,6.92Zm.05-18.43a8.15,8.15,0,0,0-2.75,15.83h0a8,8,0,0,0,6.17-.32,8.18,8.18,0,0,0,4.2-4.7,8.08,8.08,0,0,0-7.62-10.81Z"/><path class="cls-2" d="M3308.89,1385.43a9.22,9.22,0,1,1,11.79-5.54A9.25,9.25,0,0,1,3308.89,1385.43Z"/><path class="cls-3" d="M3312.05,1387.06a10.05,10.05,0,0,1-3.53-.64h0a10.28,10.28,0,0,1,7-19.33,10.13,10.13,0,0,1,5.82,5.25,10.3,10.3,0,0,1-9.27,14.72Zm0-18.43a8.15,8.15,0,0,0-2.83,15.8h0a8.1,8.1,0,0,0,10.42-4.9,8.1,8.1,0,0,0-.29-6.28,8.11,8.11,0,0,0-7.3-4.62Z"/><path class="cls-2" d="M3302.42,1402.69a9.22,9.22,0,1,1,11.87-5.4A9.22,9.22,0,0,1,3302.42,1402.69Z"/><path class="cls-3" d="M3305.68,1404.35a10.19,10.19,0,0,1-3.64-.67h0a10.28,10.28,0,0,1,7.21-19.25,10.12,10.12,0,0,1,5.74,5.29,10.3,10.3,0,0,1-5.11,13.72A10.12,10.12,0,0,1,3305.68,1404.35Zm0-18.42a8.15,8.15,0,0,0-2.92,15.76h0a8,8,0,0,0,6.21-.18,8.18,8.18,0,0,0,4-10.89,8,8,0,0,0-4.54-4.19A8.08,8.08,0,0,0,3305.72,1385.93Z"/><path class="cls-2" d="M3295.76,1419.87a9.21,9.21,0,1,1,11.92-5.26A9.23,9.23,0,0,1,3295.76,1419.87Z"/><path class="cls-3" d="M3299.12,1421.58a10.16,10.16,0,0,1-3.75-.72h0a10.28,10.28,0,0,1,7.43-19.17,10.3,10.3,0,0,1,.37,19A10.25,10.25,0,0,1,3299.12,1421.58Zm.06-18.43a8.15,8.15,0,0,0-3,15.73h0a8,8,0,0,0,6.17-.1,8.17,8.17,0,0,0,4.37-4.55,8.09,8.09,0,0,0-7.51-11.08Z"/><path class="cls-2" d="M3288.86,1437a9.21,9.21,0,1,1,12-5.09A9.24,9.24,0,0,1,3288.86,1437Z"/><path class="cls-3" d="M3292.33,1438.71a10.28,10.28,0,0,1-3.88-.77h0a10.28,10.28,0,0,1,7.7-19.06,10.05,10.05,0,0,1,5.6,5.43,10.29,10.29,0,0,1-9.42,14.4Zm.05-18.42a8.14,8.14,0,0,0-3.12,15.68h0a8.11,8.11,0,0,0,10.61-4.5,8.19,8.19,0,0,0-.07-6.32,7.94,7.94,0,0,0-4.43-4.29A8.09,8.09,0,0,0,3292.38,1420.29Z"/><path class="cls-2" d="M3281.74,1454a9.22,9.22,0,1,1,12.07-4.93A9.2,9.2,0,0,1,3281.74,1454Z"/><path class="cls-3" d="M3285.31,1455.76a10.12,10.12,0,0,1-4-.83h0a10.28,10.28,0,0,1,7.94-19,10.27,10.27,0,0,1,5.53,13.46,10.28,10.28,0,0,1-5.67,5.58A10.1,10.1,0,0,1,3285.31,1455.76Zm-3.16-2.78a8,8,0,0,0,6.18.06,8.18,8.18,0,0,0,4.51-10.73,8,8,0,0,0-4.39-4.37,8.15,8.15,0,0,0-6.3,15Z"/><path class="cls-2" d="M3274.36,1470.84a9.22,9.22,0,1,1,12.14-4.76A9.25,9.25,0,0,1,3274.36,1470.84Z"/><path class="cls-3" d="M3278.08,1472.7a10,10,0,0,1-4.15-.89h0a10.28,10.28,0,0,1,8.22-18.84,10.29,10.29,0,0,1-4.07,19.73Zm-3.28-2.83a8.09,8.09,0,0,0,10.72-4.21,8.12,8.12,0,0,0,.13-6.29,8,8,0,0,0-4.33-4.44,8.15,8.15,0,0,0-6.52,14.94Z"/><path class="cls-2" d="M3266.74,1487.62a9.21,9.21,0,1,1,12.22-4.57A9.21,9.21,0,0,1,3266.74,1487.62Z"/><path class="cls-3" d="M3270.56,1489.54a10,10,0,0,1-4.27-1h0a10.28,10.28,0,0,1,8.5-18.71,10.07,10.07,0,0,1,5.37,5.67,10.31,10.31,0,0,1-9.6,14Zm.06-18.43a8.15,8.15,0,0,0-3.44,15.54h0a8,8,0,0,0,6.16.26,8.17,8.17,0,0,0,4.84-10.61,8,8,0,0,0-4.25-4.49A8.24,8.24,0,0,0,3270.62,1471.11Z"/><path class="cls-2" d="M3258.83,1504.26a9.21,9.21,0,1,1,12.28-4.36A9.14,9.14,0,0,1,3258.83,1504.26Z"/><path class="cls-3" d="M3262.8,1506.25a10.07,10.07,0,0,1-4.44-1h0a10.28,10.28,0,0,1,8.82-18.57,10.11,10.11,0,0,1,5.3,5.78,10.26,10.26,0,0,1-.41,7.93,10.14,10.14,0,0,1-5.86,5.3A10,10,0,0,1,3262.8,1506.25Zm-3.51-2.94a8.15,8.15,0,1,0,7-14.73,8.15,8.15,0,0,0-7,14.73Z"/><path class="cls-2" d="M3250.64,1520.77a9.21,9.21,0,1,1,12.36-4.14A9.22,9.22,0,0,1,3250.64,1520.77Z"/><path class="cls-3" d="M3254.74,1522.83a10.05,10.05,0,0,1-4.59-1.11h0a10.28,10.28,0,0,1,9.14-18.41,10.1,10.1,0,0,1,5.19,5.86,10.32,10.32,0,0,1-9.74,13.66Zm-3.62-3a8,8,0,0,0,6.14.47,8.21,8.21,0,0,0,5.21-10.44,8,8,0,0,0-4.11-4.64,8.15,8.15,0,0,0-7.24,14.61Z"/><path class="cls-2" d="M3242.11,1537.11a9.22,9.22,0,1,1,12.45-3.9A9.25,9.25,0,0,1,3242.11,1537.11Z"/><path class="cls-3" d="M3246.39,1539.25a10.06,10.06,0,0,1-4.78-1.2h0a10.28,10.28,0,0,1,9.51-18.23,10.09,10.09,0,0,1,5.06,5.92,10.32,10.32,0,0,1-.68,8,10.13,10.13,0,0,1-6.07,5.09A10.29,10.29,0,0,1,3246.39,1539.25Zm.06-18.42a8.14,8.14,0,0,0-3.84,15.34h0a8,8,0,0,0,6.19.59,8.09,8.09,0,0,0,4.82-4,8.24,8.24,0,0,0,.54-6.32,8,8,0,0,0-4-4.68A8.23,8.23,0,0,0,3246.45,1520.83Z"/><path class="cls-2" d="M3233.25,1553.27a9.14,9.14,0,1,1,7,.82A9.18,9.18,0,0,1,3233.25,1553.27Z"/><path class="cls-3" d="M3237.71,1555.51a10,10,0,0,1-5-1.32,10.35,10.35,0,0,1-4-13.91,10.39,10.39,0,0,1,13.88-4.11,10.22,10.22,0,0,1,4.1,14,10.22,10.22,0,0,1-9,5.36Zm.09-18.41a8.27,8.27,0,0,0-7.21,4.21,8.21,8.21,0,0,0,3.18,11,8,8,0,0,0,6.19.73,8.2,8.2,0,0,0,4.89-4,8.05,8.05,0,0,0,.69-6.24,8.05,8.05,0,0,0-7.74-5.78Z"/><path class="cls-2" d="M3224,1569.22a9.21,9.21,0,1,1,12.61-3.34A9.24,9.24,0,0,1,3224,1569.22Z"/><path class="cls-3" d="M3228.64,1571.57a10,10,0,0,1-5.17-1.44h0a10.28,10.28,0,0,1,10.3-17.79,10,10,0,0,1,4.81,6.17,10.22,10.22,0,0,1-1,7.9,10.33,10.33,0,0,1-8.91,5.16Zm.09-18.42a8.14,8.14,0,0,0-4.17,15.16h0a7.92,7.92,0,0,0,6.07.88,8.23,8.23,0,0,0,5.9-10.12,8,8,0,0,0-3.8-4.88A8.23,8.23,0,0,0,3228.73,1553.15Z"/><path class="cls-2" d="M3214.35,1584.91a9.22,9.22,0,1,1,12.71-3A9.24,9.24,0,0,1,3214.35,1584.91Z"/><path class="cls-3" d="M3219.18,1587.39a10,10,0,0,1-5.4-1.59h0a10.28,10.28,0,0,1,10.78-17.5,10,10,0,0,1,4.63,6.24,10.32,10.32,0,0,1-10,12.85Zm.08-18.42a8.11,8.11,0,0,0-6.94,3.86,8.19,8.19,0,0,0,2.6,11.18h0a7.91,7.91,0,0,0,6.06,1,8.22,8.22,0,0,0,6.15-10,7.91,7.91,0,0,0-3.66-4.92A8.25,8.25,0,0,0,3219.26,1569Z"/><path class="cls-2" d="M3204.21,1600.3a9.22,9.22,0,0,1,10.14-15.39,9.22,9.22,0,1,1-10.14,15.39Z"/><path class="cls-3" d="M3209.29,1602.94a10,10,0,0,1-5.68-1.77h0a10.28,10.28,0,0,1,11.31-17.16,10,10,0,0,1,4.46,6.37,10.33,10.33,0,0,1-10.09,12.56Zm.08-18.41a8.08,8.08,0,0,0-6.81,3.64,8.24,8.24,0,0,0,2.26,11.25h0a7.87,7.87,0,0,0,6,1.24,8.13,8.13,0,0,0,5.27-3.55,8.21,8.21,0,0,0,1.18-6.27,7.92,7.92,0,0,0-3.53-5A8.27,8.27,0,0,0,3209.37,1584.53Z"/><path class="cls-2" d="M3193.55,1615.33a9.28,9.28,0,0,1-2.09-12.78,9,9,0,0,1,5.89-3.71,9.25,9.25,0,0,1,6.86,1.46,9,9,0,0,1,3.83,5.92,9.35,9.35,0,0,1-1.59,7A9.14,9.14,0,0,1,3193.55,1615.33Z"/><path class="cls-3" d="M3198.89,1618.17a9.94,9.94,0,0,1-6-2h0a10.28,10.28,0,0,1-2.33-14.25,10.07,10.07,0,0,1,6.57-4.14,10.31,10.31,0,0,1,7.65,1.63,10.15,10.15,0,0,1,4.28,6.62,10.4,10.4,0,0,1-8.58,12A11.06,11.06,0,0,1,3198.89,1618.17Zm.11-18.41a8.19,8.19,0,0,0-1.47.13,7.93,7.93,0,0,0-5.2,3.27,8.16,8.16,0,0,0,1.86,11.31h0a7.85,7.85,0,0,0,6,1.47,8.14,8.14,0,0,0,5.4-3.38,8.28,8.28,0,0,0,1.42-6.16,8.09,8.09,0,0,0-3.38-5.23A8.19,8.19,0,0,0,3199,1599.76Z"/><path class="cls-2" d="M3182.28,1629.91a9.21,9.21,0,0,1,11.27-14.58,9.21,9.21,0,1,1-11.27,14.58Z"/><path class="cls-3" d="M3187.92,1633a9.94,9.94,0,0,1-6.31-2.26h0a10.28,10.28,0,0,1,12.57-16.26,10,10,0,0,1,4,6.68,10.39,10.39,0,0,1-9.11,11.77A11.09,11.09,0,0,1,3187.92,1633Zm.09-18.41a8.09,8.09,0,0,0-6.44,3.13,8.27,8.27,0,0,0,1.39,11.38h0a7.83,7.83,0,0,0,5.88,1.72,8.28,8.28,0,0,0,7.24-9.36,7.89,7.89,0,0,0-3.16-5.27A8.28,8.28,0,0,0,3188,1614.58Z"/><path class="cls-2" d="M3170.29,1643.9a9.21,9.21,0,0,1,12-14,9.21,9.21,0,1,1-12,14Z"/><path class="cls-3" d="M3176.29,1647.3a9.89,9.89,0,0,1-6.72-2.62h0a10.28,10.28,0,0,1,13.38-15.6,9.91,9.91,0,0,1,3.68,6.8,10.4,10.4,0,0,1-9.76,11.4Zm-5.28-4.19a7.77,7.77,0,0,0,5.74,2.05,8.27,8.27,0,0,0,7.76-9.07,7.81,7.81,0,0,0-2.89-5.35,8.15,8.15,0,0,0-10.61,12.37Z"/><path class="cls-2" d="M3157.45,1657.11a9.36,9.36,0,0,1-.06-12.89,9.25,9.25,0,0,1,6.3-2.75,9.37,9.37,0,0,1,6.6,2.43,8.87,8.87,0,0,1,2.94,6.39,9.27,9.27,0,0,1-15.78,6.82Z"/><path class="cls-3" d="M3163.92,1660.94h0a9.83,9.83,0,0,1-7.21-3.1,10.28,10.28,0,0,1,14.32-14.73,9.9,9.9,0,0,1,3.29,7.15,10.48,10.48,0,0,1-10.37,10.68Zm0-18.41h-.25a8.1,8.1,0,0,0-5.49,13.85h0a7.7,7.7,0,0,0,5.66,2.43h0a8.35,8.35,0,0,0,8.25-8.49,7.87,7.87,0,0,0-2.59-5.64A8.33,8.33,0,0,0,3164,1642.53Z"/><path class="cls-2" d="M3143.61,1669.26a9.51,9.51,0,0,1-2-6.7,9,9,0,0,1,9.48-8.32,9.34,9.34,0,0,1,6.38,2.87,9,9,0,0,1,2.5,6.62,9.48,9.48,0,0,1-10.11,8.87A8.79,8.79,0,0,1,3143.61,1669.26Z"/><path class="cls-3" d="M3150.48,1673.69l-.72,0a9.84,9.84,0,0,1-7-3.74h0a10.61,10.61,0,0,1-2.25-7.44,10,10,0,0,1,10.6-9.3,10.35,10.35,0,0,1,7.09,3.2,10,10,0,0,1,2.79,7.4,10.55,10.55,0,0,1-10.53,9.91Zm.07-18.4a7.68,7.68,0,0,0-5.22,2,7.8,7.8,0,0,0-2.68,5.38,8.48,8.48,0,0,0,1.79,6h0a7.78,7.78,0,0,0,5.48,2.94,8.49,8.49,0,0,0,6.13-2.08,8.58,8.58,0,0,0,2.84-5.79,7.89,7.89,0,0,0-2.2-5.82,8.27,8.27,0,0,0-5.66-2.55Z"/><path class="cls-2" d="M3128.54,1679.86a9.9,9.9,0,0,1-1.2-6.91,9.29,9.29,0,0,1,1.24-3.17,8.4,8.4,0,0,1,1.06-1.32,7.71,7.71,0,0,1,1.31-1.17,9.08,9.08,0,0,1,6.57-1.51,9.57,9.57,0,0,1,6.09,3.48,8.77,8.77,0,0,1,1.83,6.82,9.29,9.29,0,0,1-3.9,6.23,8.71,8.71,0,0,1-3.55,1.56,9.6,9.6,0,0,1-3.66,0A8.61,8.61,0,0,1,3128.54,1679.86Z"/><path class="cls-3" d="M3136,1685.13a10.91,10.91,0,0,1-1.9-.17,9.68,9.68,0,0,1-6.5-4.55h0a10.82,10.82,0,0,1-1.33-7.65,10.2,10.2,0,0,1,1.38-3.55,9.63,9.63,0,0,1,1.2-1.5,9.13,9.13,0,0,1,1.45-1.29,10.19,10.19,0,0,1,7.33-1.7,10.59,10.59,0,0,1,6.78,3.88,9.85,9.85,0,0,1,2.06,7.63,10.87,10.87,0,0,1-6.24,8,12.22,12.22,0,0,1-2.06.64A10.73,10.73,0,0,1,3136,1685.13Zm-6.58-5.82a7.52,7.52,0,0,0,5.06,3.55,8.33,8.33,0,0,0,3.26,0,8.94,8.94,0,0,0,1.65-.5,9.24,9.24,0,0,0,1.5-.88,8.15,8.15,0,0,0,3.47-5.5,7.71,7.71,0,0,0-1.61-6,8.45,8.45,0,0,0-5.41-3.1,8.08,8.08,0,0,0-5.8,1.32,7.67,7.67,0,0,0-1.16,1,7.42,7.42,0,0,0-.93,1.18,7.75,7.75,0,0,0-1.09,2.79,8.72,8.72,0,0,0,1.06,6.16Z"/><path class="cls-2" d="M3112.07,1688.05a9.81,9.81,0,0,1,0-7,8.94,8.94,0,0,1,1.67-2.93,9.3,9.3,0,0,1,2.64-2.05,9,9,0,0,1,6.59-.51,9.72,9.72,0,0,1,5.57,4.26,8.6,8.6,0,0,1,.93,7,9.37,9.37,0,0,1-4.86,5.69,9.72,9.72,0,0,1-7.51.53A8.57,8.57,0,0,1,3112.07,1688.05Z"/><path class="cls-3" d="M3120.23,1694.66a10.64,10.64,0,0,1-3.48-.59,9.64,9.64,0,0,1-5.68-5.64h0a10.87,10.87,0,0,1,0-7.72,10,10,0,0,1,1.85-3.24,10.38,10.38,0,0,1,2.93-2.28,10.09,10.09,0,0,1,7.39-.62,10.81,10.81,0,0,1,6.2,4.73,9.68,9.68,0,0,1,1,7.85,10.38,10.38,0,0,1-5.39,6.34A10.78,10.78,0,0,1,3120.23,1694.66Zm-7.17-7a7.48,7.48,0,0,0,4.42,4.4,8.67,8.67,0,0,0,6.64-.47,8.25,8.25,0,0,0,4.32-5,7.57,7.57,0,0,0-.8-6.16,8.65,8.65,0,0,0-5-3.79,8,8,0,0,0-5.8.43,7.91,7.91,0,0,0-2.32,1.8,8.14,8.14,0,0,0-1.48,2.59,8.74,8.74,0,0,0,0,6.23Z"/><path class="cls-2" d="M3094.25,1692.56a9.87,9.87,0,0,1,.28-3.62,10.67,10.67,0,0,1,1.4-3.19,8.72,8.72,0,0,1,2.21-2.35A7.29,7.29,0,0,1,3101,1682a9.84,9.84,0,0,1,3.24-.17,9.05,9.05,0,0,1,3.14,1.09,9.86,9.86,0,0,1,4.66,5.17,8.59,8.59,0,0,1-.39,7.1,9.36,9.36,0,0,1-2.45,2.83,8.9,8.9,0,0,1-3.66,1.79,11.14,11.14,0,0,1-4.08.23,9.79,9.79,0,0,1-3.57-1.41,8.11,8.11,0,0,1-2.5-2.55A8.65,8.65,0,0,1,3094.25,1692.56Z"/><path class="cls-3" d="M3102.9,1701.15a11.21,11.21,0,0,1-1.55-.1,10.82,10.82,0,0,1-4-1.57,9.08,9.08,0,0,1-2.83-2.89,9.69,9.69,0,0,1-1.31-3.91,10.93,10.93,0,0,1,.3-4,12.18,12.18,0,0,1,1.53-3.5,9.93,9.93,0,0,1,2.49-2.63,8.09,8.09,0,0,1,3.27-1.61,9.62,9.62,0,0,1,7.14,1,10.81,10.81,0,0,1,5.13,5.72,9.66,9.66,0,0,1-.43,8,10.64,10.64,0,0,1-2.74,3.18,10.15,10.15,0,0,1-4.09,2A12.36,12.36,0,0,1,3102.9,1701.15Zm.32-18.37a10.13,10.13,0,0,0-2,.23,6.07,6.07,0,0,0-2.43,1.22,7.66,7.66,0,0,0-2,2.1,9.72,9.72,0,0,0-1.26,2.87,9,9,0,0,0-.25,3.24h0a7.55,7.55,0,0,0,1,3,7.14,7.14,0,0,0,2.17,2.21,8.64,8.64,0,0,0,3.18,1.25,10.36,10.36,0,0,0,3.65-.21,8.09,8.09,0,0,0,3.25-1.6,8.24,8.24,0,0,0,2.18-2.51,7.54,7.54,0,0,0,.32-6.2,8.8,8.8,0,0,0-4.15-4.6,8,8,0,0,0-2.81-1A5.21,5.21,0,0,0,3103.22,1682.78Z"/><path class="cls-2" d="M3075.92,1691.75a10.81,10.81,0,0,1,3.7-6,8.49,8.49,0,0,1,5.83-2.07,7,7,0,0,1,3,.73,10.3,10.3,0,0,1,1.38.83,10,10,0,0,1,1.26,1,10.46,10.46,0,0,1,3.13,6.26,8.14,8.14,0,0,1-2.24,6.7,9.33,9.33,0,0,1-1.46,1.25,8.4,8.4,0,0,1-1.75.87,11.19,11.19,0,0,1-4.14.7,9.72,9.72,0,0,1-7.11-3.46A8,8,0,0,1,3075.92,1691.75Z"/><path class="cls-3" d="M3085,1703.15h-.33a10.84,10.84,0,0,1-7.93-3.88,9.05,9.05,0,0,1-1.82-7.73h0A11.76,11.76,0,0,1,3079,1685a9.43,9.43,0,0,1,6.6-2.31,8.09,8.09,0,0,1,3.41.84,10.85,10.85,0,0,1,1.5.91,10.41,10.41,0,0,1,1.4,1.12,11.51,11.51,0,0,1,3.45,6.9,9.23,9.23,0,0,1-2.53,7.57,11.34,11.34,0,0,1-1.62,1.38,10.06,10.06,0,0,1-2,1A12.24,12.24,0,0,1,3085,1703.15Zm0-18.39a7.73,7.73,0,0,0-4.67,1.87A9.72,9.72,0,0,0,3077,1692h0a7,7,0,0,0,1.41,6,8.75,8.75,0,0,0,6.37,3.07,10,10,0,0,0,3.69-.64,7.24,7.24,0,0,0,1.53-.76,8.88,8.88,0,0,0,1.28-1.09,7.13,7.13,0,0,0,2-5.85,9.51,9.51,0,0,0-2.82-5.62,7.87,7.87,0,0,0-1.11-.89,9.48,9.48,0,0,0-1.25-.76,6.07,6.07,0,0,0-2.59-.63Z"/></svg>