<?xml version="1.0" encoding="utf-8"?>
<!-- Generator: Adobe Illustrator 24.0.1, SVG Export Plug-In . SVG Version: 6.00 Build 0)  -->
<svg version="1.1" id="Calque_1" xmlns="http://www.w3.org/2000/svg" xmlns:xlink="http://www.w3.org/1999/xlink" x="0px" y="0px"
	 viewBox="0 0 374.9 331.8" style="enable-background:new 0 0 374.9 331.8;" xml:space="preserve">
<style type="text/css">
	.st0{fill:#E8E8E8;stroke:#000000;stroke-width:0.7087;stroke-miterlimit:10;}
	.st1{fill:none;}
	.st2{font-family:'Helvetica-Bold';}
	.st3{font-size:18.4203px;}
</style>
<g>
	<g>
		<path class="st0" d="M123.3,171c0.7-20.5,3.8-43.1,13.6-50.2c3.2-2.3,6.8-4.3,10.6-6c0,0,0,0,0,0l-19.8,8.1l-88.4,36.3
			c0,0-3.5,5.1-3.1,11.4c0.4,6.3,5.1,9.8,5.1,9.8l82.5,18c3.9,0.8,8.1,0.3,12.3-1.3c-7.7,0.4-12.8-5.4-12.8-17.1c0,0,0,0,0,0
			c0,0,0-0.1,0-0.2C123.2,177,123.2,174,123.3,171z"/>
		<path class="st0" d="M161.4,124.7c-0.7-1.6-1.5-3-2.3-4.2c-4.5-4.8-6.1-5.6-11.5-5.7c-3.9,1.7-7.4,3.7-10.6,6
			c-9.8,7.1-12.9,29.7-13.6,50.2c-0.1,5.1-0.1,8.1-0.1,8.9c0,0.1,0,0.1,0,0.2c0,11.7,5.2,17.6,12.8,17.1c0,0,0,0,0,0
			c4-0.2,9.8-4.4,15.1-10.9c4.9-6.1,9.3-14.3,11-23.2C164.8,148.3,164.1,132.7,161.4,124.7z"/>
	</g>
	<circle class="st0" cx="78.9" cy="188.4" r="11.5"/>
	<rect x="72.5" y="181.6" class="st1" width="33.7" height="32"/>
	<text transform="matrix(1 0 0 1 72.4899 194.8925)" class="st2 st3">B</text>
</g>
</svg>
