<?xml version="1.0" encoding="utf-8"?>
<!-- Generator: Adobe Illustrator 24.0.1, SVG Export Plug-In . SVG Version: 6.00 Build 0)  -->
<svg version="1.1" id="Calque_1" xmlns="http://www.w3.org/2000/svg" xmlns:xlink="http://www.w3.org/1999/xlink" x="0px" y="0px"
	 viewBox="0 0 374.9 331.8" style="enable-background:new 0 0 374.9 331.8;" xml:space="preserve">
<style type="text/css">
	.st0{fill:#E8E8E8;stroke:#000000;stroke-width:0.7087;stroke-miterlimit:10;}
	.st1{fill:none;}
	.st2{font-family:'Helvetica-Bold';}
	.st3{font-size:18.4203px;}
</style>
<g>
	<g>
		<path class="st0" d="M151.4,121c0.2,0.2,0.3,0.4,0.5,0.6c0,0,0.1,0.1,0.1,0.1c0.1,0.2,0.3,0.3,0.4,0.5c0,0,0,0,0.1,0.1
			c0.2,0.2,0.3,0.4,0.5,0.5c0,0,0.1,0.1,0.1,0.1c0.1,0.1,0.3,0.3,0.4,0.4c0,0,0.1,0.1,0.1,0.1c0.2,0.2,0.4,0.3,0.5,0.5
			c0,0,0.1,0.1,0.1,0.1c0.1,0.1,0.3,0.3,0.5,0.4c0,0,0.1,0.1,0.1,0.1c0.2,0.2,0.4,0.3,0.6,0.5c0,0,0.1,0.1,0.1,0.1
			c0.2,0.1,0.3,0.3,0.5,0.4c0.1,0,0.1,0.1,0.2,0.1c0.2,0.2,0.4,0.3,0.6,0.5c0,0,0.1,0,0.1,0.1c0.2,0.1,0.4,0.3,0.5,0.4
			c0.1,0,0.1,0.1,0.2,0.1c0.2,0.1,0.4,0.3,0.6,0.4c0.2,0.1,0.4,0.3,0.7,0.4c0.1,0,0.1,0.1,0.2,0.1c0.2,0.1,0.4,0.2,0.6,0.4
			c0,0,0.1,0,0.1,0.1c0.2,0.1,0.5,0.3,0.7,0.4c0.1,0,0.1,0.1,0.2,0.1c0.2,0.1,0.4,0.2,0.6,0.3c0,0,0.1,0,0.1,0.1
			c0.2,0.1,0.5,0.2,0.7,0.4c0.1,0,0.1,0.1,0.2,0.1c0.2,0.1,0.4,0.2,0.6,0.3c0.1,0,0.1,0.1,0.2,0.1c0.2,0.1,0.5,0.2,0.8,0.3
			c0,0,0.1,0,0.2,0.1c0.2,0.1,0.4,0.2,0.6,0.3c0.1,0,0.1,0.1,0.2,0.1c0.3,0.1,0.5,0.2,0.8,0.3c0,0,0.1,0,0.1,0
			c0.2,0.1,0.5,0.2,0.7,0.2c0.1,0,0.1,0,0.2,0.1c0.3,0.1,0.6,0.2,0.8,0.3c18,5.2,34.8,0.5,46.2-6.1c4.4-2.9,9.7-7.3,3.9-10.1
			c-0.6-0.2-1.1-0.5-1.7-0.7c-0.6-0.2-1-0.3-1.3-0.5c-3.1-1.1-6.6-2.2-10.7-3.1c-17-4.1-35.6-3.8-51,1.3c-0.2,0.1-0.5,0.2-1,0.4
			C147.6,114.2,149.2,118,151.4,121z"/>
		<path class="st0" d="M227.6,152.7c-1.2,2.6-2.4,5.8-3.4,9.5c-1.3,6-2.3,13.3-2.4,20.9c0.2,9.8,2.1,20.6,7,31.2
			c8.1,17.5,24.5,16.1,27.1-2.6c0.1-0.6,0.2-1.1,0.2-1.3c1.1-7.3,2.1-14.3,3-20.2c4.1-28.4-3.6-44.2-10-51.8h0
			C241,137.5,231.4,144.5,227.6,152.7z"/>
		<path class="st0" d="M228.7,214.2c-4.9-10.6-6.8-21.4-7-31.2c0.1-7.6,1.1-14.8,2.4-20.9c1-3.7,2.1-6.9,3.4-9.5
			c3.9-8.2,13.5-15.1,21.4-14.4h0c-1.5-1.7-2.9-3-4-4c-5.5-4.4-9.8-8.6-15.1-12.3c-2.1-1.5-5.6-3.9-8.1-5.3
			c-1.7-0.9-7.2-2.4-9.8-3.5c5.1,2.2,3.1,8.8-1.2,11.6c-10.8,6.4-24.2,11.2-41.2,7.1c-4.1-1.2-10-2.9-16.4-8.7
			c-1.9-2.4-3.2-6.8-1.4-9.4c0.2-0.3,0.4-0.5,0.7-0.8c0,0,0,0,0,0c0.2-0.1,0.3-0.3,0.4-0.4c0.7-0.6,1.4-1.1,2.3-1.5
			c-1,0.4-6.2,2.1-7.4,2.6c-0.4,0.2-0.8,0.3-1.2,0.5c-3.8,1.6-7.3,3.6-10.4,5.9c-16.8,12.2-14.1,70.2-12.6,84.7
			c1.5,14.5,9.2,70.6,9.2,70.6c15.3,13.4,34.7,19.1,61.4,20.6c26.7,1.5,51.9-18.3,51.9-18.3s4-27.1,8-54.1l0,0v0
			c0.1-0.9,0.3-1.8,0.4-2.7c0,0,0.9-6.4,1.4-9.4C253.2,230.3,236.8,231.7,228.7,214.2z"/>
	</g>
	<g>
		<circle class="st0" cx="165.7" cy="292" r="11.5"/>
		<rect x="159" y="284.9" class="st1" width="33.7" height="32"/>
		<text transform="matrix(1 0 0 1 158.9755 298.184)" class="st2 st3">A</text>
	</g>
</g>
</svg>
