<svg id="Calque_1" data-name="Calque 1" xmlns="http://www.w3.org/2000/svg" viewBox="0 0 4073.02 2347.24"><defs><style>.cls-1,.cls-2{fill:none;stroke:#c7c7c6;stroke-miterlimit:10;}.cls-1{stroke-width:5.67px;}.cls-2{stroke-width:8.5px;}.cls-3{fill:#c7c7c6;}</style></defs><title>scan</title><ellipse class="cls-1" cx="3174.51" cy="1086.89" rx="619.03" ry="199.51" transform="translate(1496.61 3992.66) rotate(-78.9)"/><path class="cls-1" d="M2318.87,912.77a104.22,104.22,0,1,1-167.69,89.2c-398.48,213.6-894.56,493-1103.51,617.68l95.64,356.21,1912.42-281.53c-108.12-21.22-142.4-310.38-76.56-645.86,59.4-302.67,180-539.63,282.42-567.5l.24-1.39C3166.48,481.7,2761.06,679.48,2318.87,912.77Z"/><circle class="cls-2" cx="2255.19" cy="999.15" r="104.23"/><path class="cls-3" d="M2245.35,932.71h28.45L2316.38,1053h-27.27l-7.94-24.73h-44.32L2228.7,1053h-26.31Zm-1.66,74.86h30.82l-15.2-47.35Z"/></svg>