<?xml version="1.0" encoding="utf-8"?>
<!-- Generator: Adobe Illustrator 24.3.0, SVG Export Plug-In . SVG Version: 6.00 Build 0)  -->
<svg version="1.1" id="Calque_1" xmlns="http://www.w3.org/2000/svg" xmlns:xlink="http://www.w3.org/1999/xlink" x="0px" y="0px"
	 viewBox="0 0 595.3 908.8" style="enable-background:new 0 0 595.3 908.8;" xml:space="preserve">
<style type="text/css">
	.st0{fill:#1E1E1C;}
	.st1{fill:#C7C7C6;}
	.st2{fill:#B2B2B2;}
	.st3{fill:#FFFFFF;}
</style>
<path class="st1" d="M595.3,794c-15.2-8.5-113.6-63.3-159-87.4l-0.6,1.1c46.1,24.5,146.7,80.6,159.6,87.8V794z"/>
<path class="st1" d="M0.4,795.6c11.4-6.4,113-63.2,159.4-88l-0.6-1.1c-45.6,24.4-144.7,79.8-158.8,87.6V795.6z"/>
<path class="st1" d="M297.6,767.1c-39.6,0-76.8-4.6-104.8-12.8c-28.3-8.3-43.8-19.5-43.8-31.5c0-12,15.6-23.2,43.8-31.5
	c28-8.3,65.2-12.8,104.8-12.8s76.8,4.6,104.8,12.8c28.3,8.3,43.8,19.5,43.8,31.5c0,12-15.6,23.2-43.8,31.5
	C374.4,762.6,337.2,767.1,297.6,767.1z M297.6,679.8c-39.5,0-76.6,4.5-104.5,12.8c-13.5,4-24.1,8.6-31.5,13.8
	c-7.5,5.3-11.4,10.8-11.4,16.5c0,5.7,3.8,11.2,11.4,16.5c7.4,5.2,18,9.8,31.5,13.8c27.9,8.2,65,12.8,104.5,12.8s76.6-4.5,104.5-12.8
	c13.5-4,24.1-8.6,31.5-13.8c7.5-5.3,11.4-10.8,11.4-16.5c0-5.7-3.8-11.2-11.4-16.5c-7.4-5.2-18-9.8-31.5-13.8
	C374.2,684.3,337.1,679.8,297.6,679.8z"/>
<g>
	<g>
		<circle class="st0" cx="533.6" cy="753.5" r="24.9"/>
		<path class="st1" d="M533.6,779.1c-14.1,0-25.6-11.5-25.6-25.6c0-14.1,11.5-25.6,25.6-25.6c14.1,0,25.6,11.5,25.6,25.6
			C559.1,767.6,547.6,779.1,533.6,779.1z M533.6,729.3c-13.4,0-24.3,10.9-24.3,24.3s10.9,24.3,24.3,24.3c13.4,0,24.3-10.9,24.3-24.3
			S546.9,729.3,533.6,729.3z"/>
	</g>
	<g>
		<path class="st1" d="M544.1,742.3c0.9,1.2,1.3,2.7,1.3,4.4c0,1.8-0.4,3.2-1.3,4.2c-0.5,0.6-1.2,1.1-2.2,1.6
			c1.5,0.5,2.6,1.4,3.3,2.5c0.7,1.2,1.1,2.6,1.1,4.2c0,1.7-0.4,3.2-1.3,4.6c-0.5,0.9-1.2,1.7-2,2.3c-0.9,0.7-2,1.2-3.3,1.4
			c-1.2,0.3-2.6,0.4-4.1,0.4h-13v-28.8h13.9C540.2,739.3,542.6,740.4,544.1,742.3z M528.5,744.3v6.3h7c1.2,0,2.3-0.2,3-0.7
			c0.8-0.5,1.2-1.3,1.2-2.5c0-1.3-0.5-2.2-1.5-2.7c-0.9-0.3-2-0.4-3.4-0.4H528.5z M528.5,755.4v7.7h7c1.2,0,2.2-0.2,2.9-0.5
			c1.3-0.6,1.9-1.8,1.9-3.6c0-1.5-0.6-2.5-1.8-3.1c-0.7-0.3-1.6-0.5-2.9-0.5H528.5z"/>
	</g>
</g>
</svg>
