<?xml version="1.0" encoding="utf-8"?>
<!-- Generator: Adobe Illustrator 24.0.1, SVG Export Plug-In . SVG Version: 6.00 Build 0)  -->
<svg version="1.1" id="Calque_1" xmlns="http://www.w3.org/2000/svg" xmlns:xlink="http://www.w3.org/1999/xlink" x="0px" y="0px"
	 viewBox="0 0 269.7 216.2" style="enable-background:new 0 0 269.7 216.2;" xml:space="preserve">
<path d="M254.7,160.1c-8.3-3.1-16.6-6.1-25-9.2c0.7,0,1.3,0,2,0c1.1,0,1.1-1.6,0-1.7c-3-0.4-6.1-0.7-9.1-0.9
	c-4.4-1.6-8.7-3.2-13.1-4.9c-15.1-5.6-30.1-11.3-45.1-17.1c-2.8-1.1-5.6-2.2-8.4-3.2c-0.1-1.1-0.2-2.2-0.3-3.4
	c1.1,0,2.2-0.1,3.3-0.1c0.9,0,1.2-1.5,0.2-1.7c-1.2-0.2-2.5-0.5-3.8-0.7c-0.2-1.6-0.3-3.3-0.5-4.9c-0.1-0.6-0.1-1.3-0.2-1.9
	c0.9-0.5,1.8-1,2.7-1.5c1.2,0.6,2.4,1.2,3.5,2c0.1,0.1,0.3,0.2,0.4,0.3c-1.1,0.2-2.3,0.5-3.4,0.7c-1.1,0.2-0.6,1.9,0.5,1.7
	c1.8-0.4,3.6-0.7,5.4-1.1c0.8-0.2,0.7-1.2,0.2-1.6c-1.5-1.2-3.2-2.2-4.9-3c0.6-0.4,1.2-0.9,1.8-1.3c3.9-3,7.4-6.6,10.6-10.3
	c0.4-0.4,0.7-0.8,1-1.2c9.2,6.8,18.7,13.2,28.5,19.1c1.9,1.2,3.9,2.3,5.9,3.4c-5.8-2.3-11.6-4.6-17.5-6.9c-0.9-0.4-1.5,1.1-0.7,1.6
	c12.4,7.4,25.5,13.3,39.2,17.7c4,1.3,8,2.4,12,3.4c0.6,0.2,1.5-0.6,1-1.3c-6.9-9-16.8-15.5-22.8-25.2c-2.9-4.7-4.9-10.2-4.4-15.7
	c0.3-4.2,2.3-8,5.5-10.6c4.9-0.6,9.8-1.3,14.6-2c0.8-0.1,0.8-1.2,0.2-1.6c-5.1-3.1-11.1-1.6-15.5,1.9c-12.1,1.6-24.2,2.9-36.3,3.9
	c1.2-1.6,2.4-3.3,3.6-4.9c4.6-0.7,9.2-1.4,13.8-2.1c7.5-1.2,14.9-2.3,22.4-3.5c0.9-0.2,0.7-1.8-0.2-1.7c-11.1,1.3-22.2,2.4-33.3,3.4
	c4.6-6.7,8.8-13.6,12.8-20.7c0.5-0.9-0.6-1.7-1.4-1c-7.7,7.2-15,14.7-21.8,22.7c-1.3,0.1-2.6,0.2-4,0.3c0.9-1.6,1.7-3.1,2.6-4.7
	c2-3.1,4-6.2,5.9-9.3c2.9-4.6,5.9-9.2,8.8-13.7c0.3-0.4,0.1-0.8-0.1-1c4.2-7.5,8.1-15.2,11.8-23c0.5-1-0.9-1.9-1.5-0.9
	c-7.5,13.5-15.1,26.9-22.8,40.2c-2.4,4.2-4.9,8.4-7.4,12.6c-1,0.1-2.1,0.2-3.1,0.2c-2.4-1.5-4.9-2.9-7.4-4.3
	c-2.4-2.1-4.9-4.2-7.3-6.4c5.4-4.2,10.8-8.4,16.1-12.7c0.4-0.3,0.3-0.9,0-1.2c-2.9-3.2-6.9-3.3-10.8-2.4c-0.1-0.1-0.2-0.2-0.3-0.3
	c-3.6-1.7-7.5-2.2-11.3-1.5c-1.1-8.6-2.3-17.3-3.5-25.9c-0.1-1-1.7-0.7-1.7,0.2c0.2,9,0.6,18,1,27c-0.1,0-0.2,0.1-0.3,0.1
	c-0.2,0.1-0.5,0.5-0.4,0.7c0.2,2.2,0.5,4.3,0.7,6.5c0,0-0.1,0-0.1,0.1c-3.2-2.8-6.5-5.7-9.8-8.5c-0.8-0.7-2,0.4-1.2,1.2
	c2.8,2.9,5.6,5.8,8.5,8.6c-1.4,0.8-2.8,1.5-4.2,2.3c-2.9-1.2-5.8-2.4-8.8-3.6c-0.8-0.3-1.5,0.9-0.8,1.4c1.8,1.5,3.7,3,5.5,4.5
	c-0.5,0.3-1.1,0.6-1.6,1c-1.3-1.2-2.5-2.5-3.8-3.7c-0.3-0.3-0.9-0.3-1.2,0c-4.7,4.4-9.3,8.9-14,13.3c-7.1-8.8-14.9-17-23.3-24.6
	c-0.7-0.7-1.8,0.2-1.3,1c5.7,10,12.5,19.3,20.1,28c-0.5,0.5-1,0.9-1.5,1.4c-10.6-0.1-21.2-0.1-31.7,0c-7,0-14,0.1-21,0.2
	c-8.9-4-17.8-7.9-26.8-11.7c-1-0.4-1.9,1-0.9,1.5c7.1,3.5,14.1,7,21.3,10.3c-1,0-1.9,0-2.8,0c-1.1,0-1.1,1.6,0,1.7
	c0.9,0.1,1.7,0.2,2.6,0.2c-8.5,0.2-17.1,0.3-25.6,0.5c-1.1,0-1.1,1.7,0,1.7c11.7,0.1,23.3,0.1,35,0c4.4,2.1,8.9,4.1,13.3,6.1
	c1.8,0.8,3.6,1.6,5.4,2.4c-3.4,0.1-6.8,0.1-10.2,0.2c-5.7,0.1-11.3,0.2-17,0.3c-1,0-1.2,1.4-0.2,1.7c1.6,0.4,3.2,0.9,4.8,1.3
	c-0.8,0-1.6,0-2.4,0.1c-1,0-2,0.1-3,0.1c-1.1,0-1.1,1.8,0,1.7c3.8-0.1,7.5-0.2,11.2-0.3c7.5,2.1,15,4.1,22.6,6
	c-3.7,3.5-7.4,7.1-11.2,10.6c1-1.4,2-2.9,2.9-4.4c0.6-0.9-0.9-1.8-1.5-0.9c-2.9,4.6-6.2,8.9-9.8,12.9c-3.7,4-7.8,7.6-12.1,10.8
	c-2.5,1.8-5,3.5-7.7,5c-1,0.6-0.1,2,0.9,1.5c3.6-2.1,7-4.4,10.3-7c0.2,0.1,0.5,0.1,0.7-0.1c11.1-6,22.1-12.3,32.9-18.9
	c3.8-1.7,7.5-3.6,11.1-5.5c3.6,0.9,7.3,1.7,10.9,2.6c2.6,3.4,5.4,6.8,8.3,10c-3.2,0.1-6.5,0.1-9.7,0.2c-5.1,0.1-10.1,0.2-15.2,0.3
	c-1,0-1.1,1.4-0.2,1.7c6.4,2.2,12.8,4.3,19.3,6.3c-2.6,4.3-4.7,8.9-6,13.8c-3.4,2-7,3.9-10.5,5.8c-1.3-0.1-2.6-0.1-3.8-0.1
	c-8.2-0.3-16.5-0.2-24.7,0c-0.9,0-1.2,1.5-0.2,1.7c6.4,1.3,12.8,2.5,19.3,3.6c-3.4,1.9-6.7,4-9.9,6.2c-4.3,3-8.3,6.3-11.8,10.2
	c-6,1.5-11.9,3-17.9,4.6c-1.6,0.4-3.1,0.8-4.7,1.2c-0.9,0.2-0.8,1.8,0.2,1.7c0.1,0,0.2,0,0.2,0l0,0l0,0c6.7-0.9,13.3-2.1,19.9-3.6
	c0.1,0.1,0.3,0.2,0.6,0.2c16-1.3,32.1-2.5,48.1-3.7c15.2-1.1,30.4-2.2,45.7-3.3c0.2,1.3,0.4,2.6,0.6,3.9c-12,1.2-23.9,3.1-35.7,5.5
	c-7.9,1.6-15.8,3.6-23.6,5.7c-1.1,0.3-0.6,1.9,0.5,1.7c19.2-4.1,38.5-7.7,57.9-10.7c0.4-0.1,0.8-0.1,1.1-0.2c0.1,1,0.3,1.9,0.4,2.9
	c-10.9,1.6-21.8,3.3-32.7,5.3c-7.7,1.4-15.3,3-22.9,4.7c-0.6,0.1-0.7,0.8-0.5,1.2c-4.7,0-9.5,0-14.2,0c-1.1,0-1.1,1.7,0,1.7
	c10.7,0,21.3,0,32,0c2.9,0,5.8,0,8.7,0c8.9,0.2,17.8,0.3,26.6,0.3c5-0.1,9.9-0.1,14.9-0.3c1.1,0,1.1-1.7,0-1.7c-10.7,0-21.3,0-32,0
	c-3.1,0-6.3,0-9.4,0c-3.7-0.1-7.3-0.2-11-0.4c-2.9-0.1-5.8-0.3-8.7-0.4c11.4-2.4,22.9-4.5,34.4-6.4c5-0.8,9.9-1.5,14.9-2.3
	c0.1,0.4,0.1,0.8,0.2,1.2c0.1,0.9,1.8,0.7,1.7-0.2c0-0.4-0.1-0.8-0.1-1.2c8.1-1.1,16.2-2.2,24.3-3.2c7.7-1,15.3-1.9,23-2.8
	c1.1-0.1,1.1-1.7,0-1.7c-7.6-0.4-15.1-0.4-22.7-0.3c10.1-1.2,20.1-2.3,30.2-3.3c11-1,22-1.9,33-2.5c1.1-0.1,1.1-1.7,0-1.7
	c-9.5,0.1-19,0.1-28.4,0.2c-0.3,0-0.6,0.2-0.7,0.4c-0.1-0.2-0.4-0.4-0.7-0.4c-5.7,0-11.4,0-17.1,0c-0.1,0-0.2-0.1-0.3-0.1
	c-9.5-1.1-18.9-1.9-28.4-2.6c5-2.3,10-4.5,14.9-6.8c0.6,0,1.2,0,1.8,0c7.6,0.2,15.2,0.8,22.8,1.9c1.3,0.2,2.5,0.4,3.8,0.6
	c-1.1,0-2.2,0-3.3,0c-0.3,0-0.7,0-1,0c-4.4-0.1-8.9-0.1-13.3,0c-1.1,0-1.1,1.7,0,1.7c4.7,0,9.5,0,14.2,0c10.7,0.4,21.4,1.6,31.9,3.6
	c4.3,0.8,8.6,1.8,12.8,2.9C255.3,162,255.7,160.5,254.7,160.1z M81.3,163.9c-0.3,0.1-0.5,0.1-0.8,0.2c1.9-1.7,3.9-3.4,5.9-5.1l0,0
	c3.4,0.1,6.7,0.2,10.1,0.3c-2.2,0.9-4.3,1.7-6.5,2.6C87.1,162.5,84.2,163.2,81.3,163.9z M90.9,151.7c-0.7-0.1-1.3-0.2-2-0.3
	c1.6-0.9,3.2-1.7,4.8-2.6c0.8,0,1.6,0.1,2.4,0.1c-1.1,0.9-2.3,1.8-3.4,2.7c-0.2,0.1-0.3,0.3-0.5,0.4
	C91.8,151.9,91.4,151.8,90.9,151.7z M98.8,149c0.8,0.1,1.7,0.1,2.5,0.1c-1.8,1-3.7,2-5.6,3c-0.2,0.1-0.3,0.2-0.5,0.2
	s-0.4-0.1-0.7-0.1C96,151.2,97.4,150.1,98.8,149z M76.9,113.6c2.6-3.5,5.3-6.8,8.2-10.1c2.5,0.6,5,1.2,7.6,1.9
	c-2.7,1.7-5.4,3.3-8.1,5C82,111.5,79.5,112.6,76.9,113.6z M184.4,149.3C184.3,149.3,184.3,149.3,184.4,149.3c-0.1,0-0.1,0-0.2,0
	C184.2,149.3,184.3,149.3,184.4,149.3z M155.6,138.2c0,0.4,0.1,0.8,0.1,1.1c-0.7-0.2-1.4-0.4-2.1-0.6c-0.3-2.9-0.6-5.9-0.9-8.8
	c0.8,0.4,1.5,0.9,2.3,1.3C155.2,133.5,155.4,135.9,155.6,138.2z M156.8,132.2c8.3,4.6,16.5,9.3,24.6,14c-8-2.1-16-4.2-24-6.4
	C157.2,137.3,157,134.8,156.8,132.2z M110.6,75.6c0.2-0.2,0.5-0.4,0.7-0.7c0.2,0.2,0.3,0.4,0.5,0.6c-0.1,0.1-0.1,0.2-0.2,0.4
	c-0.4,0.3-0.8,0.6-1.2,1c-0.2-0.2-0.3-0.4-0.4-0.6C110.1,76,110.4,75.8,110.6,75.6z M108.9,74.8c-2.5-3.5-5-6.9-7.4-10.4
	c3,2.9,5.9,6,8.7,9.2C109.8,74,109.3,74.4,108.9,74.8z M104.4,149.4c0.7,0.1,1.4,0.1,2.1,0.1c-0.9,1-1.8,2.1-2.8,3.1
	c0.1-1,0.1-1.9,0.2-2.9C104.1,149.6,104.3,149.5,104.4,149.4z M107.2,147.9c0.5-0.3,1-0.6,1.6-0.9c-0.3,0.3-0.5,0.6-0.8,1
	C107.7,147.9,107.4,147.9,107.2,147.9z M103,156.4c-4.2,0.1-8.3,0.3-12.5,0.5c0.1-0.1,0.2-0.1,0.3-0.2
	C94.8,155.8,99,155.6,103,156.4z M106.6,155.9c0.8,0.1,1.7,0.2,2.5,0.4c-0.1,0-0.1,0-0.2,0c-0.8,0-1.5,0-2.2,0.1
	C106.6,156.2,106.6,156.1,106.6,155.9z M118.2,155.8c-4.5-0.6-8.9-1.2-13.4-1.9c1.3-1.4,2.6-2.8,3.9-4.2c8.8,0.7,17.6,1.8,26.4,3.1
	c-5.4,0.9-10.9,1.9-16.3,2.9C118.5,155.8,118.3,155.8,118.2,155.8z M110,148.1c0.9-1.1,1.9-2.3,2.8-3.5c5.8-3.4,11.5-7.1,17.1-11
	c0.5,0.2,1.1,0.3,1.6,0.5c3.4,2.8,6.8,5.5,10.4,8.1c0.7,0.5,1.4-0.3,1.3-1c-0.2-1.2-0.4-2.4-0.6-3.7c0.3,0.4,0.6,0.8,0.8,1.1
	c0.6,0.8,1.8,0.2,1.6-0.6c1.1,0.3,2.2,0.6,3.2,0.9c1,3.1,1.9,6.2,2.9,9.4c0.2,0.7,0.4,1.4,0.7,2.1c-3.8,0.5-7.5,1-11.2,1.6
	C130.4,150.3,120.2,149,110,148.1z M119.5,108.6c-5.2-2.1-10.4-4.3-15.6-6.5c1.7-1,3.3-2.1,4.9-3.1c3.1,0.4,6.1,0.8,9.2,1.2
	c2.6,0.4,5.2,0.8,7.7,1.2c0.1,0.1,0.1,0.2,0.2,0.3c2.7,3.7,5.7,7.5,9.8,9.7c1.1,0.6,2.1,1,3.2,1.3c-0.1,0.5-0.1,0.9-0.1,1.4
	c-4.1-0.8-8.2-1.7-12.3-2.6C124.2,110.5,121.9,109.5,119.5,108.6z M89.7,95.4c1.1-1,2.1-2,3.1-3h0.1c-0.6,0.6-1.1,1.1-1.7,1.7
	c-0.4,0.5-0.9,0.9-1.3,1.4C89.8,95.5,89.8,95.5,89.7,95.4C89.8,95.4,89.7,95.4,89.7,95.4z M104.5,81.3c0.1,0,0.3,0,0.4,0
	c-1.7,1.4-3.3,2.9-4.9,4.3l0,0C101.5,84.2,103,82.7,104.5,81.3z M97.9,85.3c-6.8-1.1-13.6-2.2-20.4-3.1c7.3-0.2,14.6-0.4,22-0.7
	c0.8,0,1.7-0.1,2.6-0.1C100.6,82.7,99.2,84,97.9,85.3z M148.3,67.1c-0.7,0.5-1.4,1-2,1.5c-0.1-0.7-0.1-1.3-0.2-2
	c0.2-0.3,0.4-0.5,0.7-0.8c0.5,0.2,1,0.5,1.5,0.8C148.2,66.8,148.2,67,148.3,67.1z M177.1,83.2c-0.4-0.2-0.7-0.4-1.1-0.7
	c0.1,0,0.1,0.1,0.2,0.1C176.6,82.8,176.9,83,177.1,83.2L177.1,83.2z M151.3,143.4c0,0.1,0,0.2,0,0.3c-0.4-1.4-0.9-2.8-1.3-4.1
	c0.3,0.1,0.6,0.1,0.8,0.2C151.1,141,151.2,142.2,151.3,143.4z M149.5,137.6c-1.2-3.8-2.4-7.6-3.6-11.3c1.2,0.7,2.4,1.3,3.6,2
	c0.4,3.2,0.7,6.5,1.1,9.7C150.3,137.8,149.9,137.7,149.5,137.6z M122.3,129.5c0.6-0.6,1.2-1.3,1.8-2c0.3,0.3,0.5,0.5,0.8,0.8
	c-0.7,0.4-1.4,0.9-2.1,1.4C122.7,129.6,122.5,129.6,122.3,129.5z M126.3,129.5c0.7,0.6,1.3,1.2,2,1.8c-1.1-0.3-2.2-0.7-3.2-1
	C125.4,130.1,125.9,129.8,126.3,129.5z M131.8,132.2c1.4-1,2.7-2,4-3c0.2,0.2,0.3,0.4,0.5,0.6c1.4,1.6,2.7,3.1,3.9,4.8
	c0,0.1,0,0.3,0.1,0.4c-2.7-0.8-5.4-1.6-8.1-2.4C132.1,132.4,132,132.3,131.8,132.2z M137.2,128.1c0.6-0.5,1.3-1,1.9-1.5
	c0.1-0.1,0.2-0.2,0.3-0.2c0.1,1.6,0.3,3.3,0.5,4.9C139,130.2,138.1,129.2,137.2,128.1z M140.6,136.8c0.1,0.9,0.3,1.8,0.4,2.6
	c-1.8-1.3-3.6-2.7-5.3-4.1C137.3,135.8,138.9,136.3,140.6,136.8z M143.4,135.8c-0.5-0.7-1-1.3-1.5-2c-0.4-2.9-0.7-5.9-0.9-8.8
	c0.1-0.1,0.1-0.1,0.2-0.2c0.2,0.3,0.3,0.6,0.5,0.9c0.3,0.6,1.1,0.6,1.5,0c0.1-0.2,0.3-0.5,0.4-0.7c0,0,0,0,0.1,0
	c1.2,4,2.5,8,3.7,11.9C146.1,136.6,144.7,136.2,143.4,135.8z M166.5,78.4c0.2,0.2,0.5,0.4,0.7,0.6c-0.1,0-0.1,0-0.2,0
	c-3.4-0.1-6.8-0.2-10.2-0.3c-0.2-0.1-0.4-0.3-0.5-0.4c2.8-0.2,5.6-0.4,8.4-0.6C165.3,78,165.9,78.2,166.5,78.4z M141,116.2
	c0.1,0.4,0.2,0.8,0.4,1.2c-0.2-0.1-0.4-0.2-0.6-0.2c0-0.3,0-0.7,0-1C140.8,116.2,140.9,116.2,141,116.2z M144.8,118.3
	c0.5-0.3,1.1-0.6,1.6-0.9c-0.2,0.3-0.4,0.6-0.5,0.9C145.5,118.2,145.1,118.2,144.8,118.3z M143.1,117.2c-0.1-0.2-0.1-0.4-0.2-0.7
	c0.3,0.1,0.7,0.1,1,0.2C143.6,116.9,143.4,117.1,143.1,117.2z M141.7,120c0.2,0,0.3,0,0.5,0c0.1,0.5,0.3,0.9,0.4,1.4
	c-0.2,0.2-0.5,0.4-0.8,0.7l0,0c-0.2-0.6-0.4-1.2-0.6-1.8C141.4,120.2,141.6,120.1,141.7,120z M146.2,115.5c-1.3-0.3-2.6-0.5-3.9-0.8
	c-0.2-0.5-0.3-1-0.5-1.5c2,0.2,4.1,0.1,6.1-0.3c0.1,0.5,0.1,1,0.1,1.5C147.5,114.8,146.8,115.1,146.2,115.5z M141.3,111.4
	c-0.8-2.6-1.6-5.2-2.4-7.8c0.9,0.2,1.8,0.3,2.6,0.5c1.9,0.4,3.9,0.8,5.8,1.3c0.2,2,0.4,3.9,0.6,5.9
	C145.6,111.7,143.5,111.8,141.3,111.4z M130.4,82.4c0.2,0.7,0.4,1.4,0.7,2.1c-1.3,0.2-2.5,0.4-3.8,0.6
	C128.3,84.3,129.4,83.4,130.4,82.4z M145.4,84.1c0,0.4,0.1,0.8,0.1,1.2c-0.1,0-0.2,0-0.3,0c-3.7,0.2-7.4,0.3-11,0.5
	C137.9,85.2,141.7,84.7,145.4,84.1z M142.4,82.8c-3.2,0.5-6.4,1-9.6,1.5c-0.3-1-0.6-2-0.9-3c0.1-0.1,0.2-0.1,0.3-0.2
	c4.4,0,8.7,0,13.1,0c0,0.4,0.1,0.9,0.1,1.3C144.3,82.5,143.4,82.7,142.4,82.8z M149.2,77.1c-0.7,0.1-1.3,0.1-2,0.1
	c-0.1-0.9-0.2-1.8-0.3-2.7C147.6,75.4,148.4,76.3,149.2,77.1z M164.9,81.1c1.1,0,2.3,0,3.4,0c-0.6,1-1.2,2-1.7,2.9
	c-0.8,0.1-1.6,0.1-2.4,0.2c-1.1-0.8-2.2-1.7-3.4-2.5C162.1,81.5,163.5,81.3,164.9,81.1z M116.3,81.1c1,1.4,2.1,2.7,3.1,4.1
	c0.6,0.9,2.1,0,1.5-0.9c-0.8-1.1-1.6-2.2-2.4-3.3c3.6,0,7.1,0,10.7-0.1c-1.5,1.1-3,2.1-4.5,3.1c-0.8,0.6-1.7,1.2-2.5,1.7
	c-0.7,0.1-1.4,0.2-2.2,0.3c-0.7,0.1-0.8,1-0.4,1.4c-0.3,0.2-0.7,0.4-1,0.7c-1.7-2.4-3.4-4.8-5.2-7.2
	C114.4,81.1,115.4,81.1,116.3,81.1z M145.7,87c0.4,5.5,0.9,11,1.4,16.5c-0.8-0.2-1.6-0.4-2.4-0.6c-2.1-0.5-4.3-0.9-6.4-1.3
	c-1.3-4-2.5-8-3.8-12.1c-0.2-0.7-0.4-1.4-0.6-2.1C137.8,87.4,141.7,87.2,145.7,87z M149.9,81.1c0,0.2,0,0.4,0.1,0.6
	c-0.2-0.2-0.4-0.4-0.6-0.6C149.6,81.1,149.7,81.1,149.9,81.1z M136.5,78c0.6-0.5,1.3-0.9,1.9-1.4c1,0.4,2,0.7,3,1.1
	C139.7,77.8,138.1,77.9,136.5,78z M112.7,78c0.1-0.4,0.2-0.7,0.3-1.1c0.3,0.4,0.6,0.7,0.9,1.1C113.5,78,113.1,78,112.7,78z
	 M111.5,81.5c0.1,0.1,0.2,0.1,0.3,0.2c1.4,1.9,2.8,3.9,4.2,5.8c0.3,0.4,0.5,0.8,0.8,1.1c-4.8-0.9-9.7-1.8-14.6-2.7
	c1.7-1.5,3.3-3,5-4.4c0.2-0.1,0.3-0.3,0.5-0.4c1.2,0,2.3,0,3.4,0C111.3,81.3,111.4,81.4,111.5,81.5z M106.1,88.4
	c3.3,0.6,6.5,1.2,9.8,1.8l0,0c-6.2,0.1-12.4,0.2-18.6,0.4c1.1-1.1,2.2-2.1,3.3-3.2C102.4,87.8,104.3,88.1,106.1,88.4z M112.3,96.6
	c2.2-1.5,4.4-3.1,6.6-4.7c0.1,0,0.1,0,0.2,0c1.8,2.5,3.5,4.9,5.3,7.4c-1-0.2-1.9-0.3-2.9-0.4c-3.5-0.5-6.9-1-10.4-1.4
	C111.5,97.2,111.9,96.9,112.3,96.6z M121.2,91.9c0.9,0,1.9,0,2.8-0.1c0.9,0,1.2-1.5,0.2-1.7c-0.8-0.2-1.6-0.3-2.4-0.5
	c0.7-0.6,1.5-1.2,2.2-1.8c2.7-0.1,5.3-0.2,8-0.2c1.4,4.6,2.9,9.1,4.3,13.7c-3.2-0.6-6.4-1.1-9.6-1.6C124.9,97.1,123,94.5,121.2,91.9
	z M136.9,103.2c0.8,2.6,1.6,5.1,2.4,7.7c-0.1,0-0.1,0-0.1,0c-4.6-1.5-7.9-5.2-10.8-8.9c-0.1-0.1-0.1-0.2-0.2-0.3
	C131.1,102.1,134,102.7,136.9,103.2z M145.2,123.9c-0.1-0.3-0.2-0.6-0.3-0.9c0.4-0.7,0.8-1.3,1.2-1.9c0.9,0.4,1.9,0.7,2.8,1.1
	c0.1,1.3,0.3,2.6,0.4,3.9C147.9,125.4,146.6,124.6,145.2,123.9z M147.8,119.9c0.3,0,0.6,0,0.8,0c0,0.1,0,0.2,0,0.4
	C148.4,120.1,148.1,120,147.8,119.9z M147.6,81.7c0.1,0.1,0.2,0.2,0.3,0.3c-0.1,0-0.2,0-0.2,0C147.6,81.9,147.6,81.8,147.6,81.7z
	 M164.4,86.5c0.1,0.1,0.3,0.2,0.4,0.3v0.1c-0.2-0.2-0.4-0.3-0.6-0.5C164.3,86.5,164.3,86.5,164.4,86.5z M168.4,86.3
	c0.1-0.2,0.2-0.5,0.4-0.7c0.2,0,0.5,0,0.7-0.1c-0.2,0.3-0.5,0.6-0.7,0.9C168.7,86.4,168.6,86.3,168.4,86.3z M169.7,83.8
	c0.3-0.6,0.6-1.2,0.9-1.8c0.3,0.3,0.7,0.6,1,0.9c-0.2,0.3-0.4,0.6-0.6,0.8C170.5,83.7,170.1,83.8,169.7,83.8z M154.2,76.8
	c-1.1-0.9-2.3-1.7-3.4-2.6c-0.1-0.4-0.1-0.8-0.1-1.2c3.4,1,6.8,2.1,10.2,3.3C158.7,76.5,156.5,76.6,154.2,76.8z M148.9,72.7
	c-0.1-0.1-0.3-0.2-0.4-0.3c0.1,0,0.3,0.1,0.4,0.1C148.9,72.6,148.9,72.7,148.9,72.7z M147,70.2c0.5-0.4,1-0.7,1.5-1.1
	c0.1,0.5,0.1,1,0.2,1.6C148.1,70.5,147.6,70.3,147,70.2z M147.8,64.5l0.1-0.1c0,0.1,0,0.1,0,0.2C147.9,64.6,147.9,64.6,147.8,64.5z
	 M147,62.9c-0.2,0.3-0.5,0.6-0.8,0.9c-0.2-0.1-0.3-0.2-0.5-0.2c0-0.6-0.1-1.2-0.1-1.9C146.1,62.1,146.6,62.5,147,62.9z M144.6,72.2
	c0.1,1.5,0.2,3,0.3,4.4c-0.9-0.9-1.9-1.8-2.8-2.8C142.9,73.3,143.7,72.7,144.6,72.2C144.5,72.1,144.6,72.1,144.6,72.2z M141.8,76
	c-0.6-0.2-1.1-0.4-1.7-0.6c0.2-0.2,0.4-0.3,0.6-0.4C141.1,75.3,141.4,75.6,141.8,76z M98.4,87.1c-0.1,0.1-0.2,0.2-0.3,0.3
	C98.2,87.3,98.3,87.2,98.4,87.1L98.4,87.1z M94.7,90.7L94.7,90.7c0.7-0.7,1.4-1.4,2.1-2.1C96.2,89.3,95.4,90,94.7,90.7z M95.4,92.4
	c3.8-0.1,7.7-0.2,11.5-0.2c2.1,0,4.2-0.1,6.3-0.1c-2.4,1.6-4.9,3.3-7.4,4.9c-2.8-0.3-5.6-0.6-8.4-0.8c-1.8-0.2-3.5-0.3-5.3-0.4
	C93.3,94.5,94.4,93.4,95.4,92.4z M138.8,115.7c0,0.2,0,0.4,0,0.6c-1.1-0.4-2.1-0.8-3.1-1.3C136.8,115.3,137.8,115.5,138.8,115.7z
	 M139.2,122.6c0,0.6,0.1,1.1,0.1,1.7c-1.1,0.9-2.1,1.7-3.2,2.6c-0.7-0.7-1.4-1.5-2.1-2.2c0.7-0.4,1.4-0.9,2.1-1.3s1.4-0.9,2.1-1.3
	C138.6,122.3,138.9,122.4,139.2,122.6z M134.7,127.9c-1.4,1.1-2.8,2.1-4.2,3.1c-0.9-0.8-1.8-1.6-2.7-2.4c1.6-1,3.1-2,4.7-3
	C133.2,126.4,133.9,127.1,134.7,127.9z M126.4,127.4c-0.4-0.4-0.8-0.7-1.2-1.1c1.2-1.4,2.2-2.9,3.2-4.4c0.9,0.8,1.8,1.7,2.7,2.5
	C129.6,125.4,128,126.4,126.4,127.4z M126.5,121.7c-0.6,0.8-1.2,1.7-1.8,2.5c0.2-0.5,0.4-0.9,0.6-1.4
	C125.7,122.4,126.1,122,126.5,121.7z M118,137c0.1,0,0.2,0,0.3-0.1c0.4-0.1,0.6-0.5,0.6-0.8s0.1-0.6,0.1-0.9c0.3-0.5,0.6-1,0.9-1.5
	c1.1-0.7,2.2-1.4,3.2-2.2c1.5,0.5,3.1,0.9,4.6,1.4c-0.7,0.4-1.3,0.9-1.9,1.3c-3.4,2.3-6.9,4.6-10.4,6.7
	C116.2,139.7,117.1,138.4,118,137z M151.7,152.1c0.2,0,0.3,0,0.5-0.1c0.1,0.4,0.3,0.9,0.4,1.3c0,0.3,0.1,0.6,0.1,0.9
	c-2.3-0.5-4.6-0.9-6.9-1.4C147.8,152.7,149.8,152.4,151.7,152.1z M150.2,106.2c0.8,0.2,1.7,0.5,2.5,0.8l0,0c-0.7,1.1-1.4,2.2-2,3.4
	C150.5,109,150.4,107.6,150.2,106.2z M150,104.4c-0.6-5.8-1.2-11.6-1.8-17.5c0.8,0,1.6-0.1,2.4-0.1c0.7,6.1,1.3,12.2,1.9,18.3
	C151.7,104.9,150.9,104.6,150,104.4z M148,85.2c-0.1-0.5-0.1-1-0.2-1.5c0.5-0.1,1.1-0.2,1.6-0.2c0.3,0.3,0.6,0.6,0.9,0.8
	c0,0.3,0.1,0.5,0.1,0.8C149.6,85.1,148.8,85.2,148,85.2z M151.9,83.5c0-0.1,0-0.3-0.1-0.4c0.7-0.1,1.4-0.2,2.1-0.3
	c0.5,0.7,1.1,1.3,1.6,2c-0.7,0-1.4,0.1-2.2,0.1C152.9,84.4,152.4,84,151.9,83.5z M156.7,83.5c0.7,0.3,1.5,0.6,2.2,0.9
	c0.1,0.1,0.1,0.1,0.2,0.2c-0.5,0-1,0.1-1.5,0.1C157.3,84.3,157,83.9,156.7,83.5z M161.1,86.1c0.9,0.8,1.9,1.5,2.8,2.3
	c-0.5,0.9-1.1,1.8-1.6,2.7c-1.1-1.6-2.3-3.2-3.5-4.8C159.6,86.2,160.3,86.2,161.1,86.1z M163.9,91.7c-0.2,0.3-0.3,0.7-0.5,1
	l-0.1-0.1C163.6,92.3,163.8,92,163.9,91.7z M171.8,85.4c0.8-0.1,1.6-0.1,2.4-0.2c0.8,0.7,1.6,1.4,2.4,2.1c-0.5,0.6-0.9,1.2-1.4,1.8
	c-1.6-0.7-3.2-1.3-4.8-1.9C170.9,86.5,171.4,85.9,171.8,85.4z M176.6,85C176.6,85,176.7,85,176.6,85c0.5,0.2,0.9,0.5,1.3,0.7
	c-0.1,0.1-0.1,0.2-0.2,0.2C177.4,85.6,177,85.3,176.6,85z M150.5,71.1c-0.1-1.1-0.3-2.2-0.4-3.2c0.1-0.1,0.2-0.1,0.3-0.2
	c2.2,1.1,4.4,2.2,6.5,3.4c1.6,1.2,3.1,2.4,4.7,3.6C157.9,73.4,154.2,72.2,150.5,71.1z M150.2,65.7c-0.1-0.1-0.2-0.1-0.4-0.2
	c0-0.1,0-0.1,0-0.2C149.9,65.4,150,65.5,150.2,65.7L150.2,65.7z M144.4,69.2c-0.1-0.1-0.2-0.2-0.4-0.3c0.1-0.1,0.2-0.2,0.3-0.3
	C144.4,68.8,144.4,69,144.4,69.2z M143.1,71c-0.8,0.6-1.5,1.1-2.2,1.7c-0.1-0.1-0.1-0.1-0.1-0.2c0.5-0.6,1.1-1.1,1.6-1.7
	C142.6,70.9,142.8,70.9,143.1,71z M132.5,78.2c-0.3,0-0.6,0-1,0.1c-0.2,0-0.4,0-0.6,0c-0.5-1.7-1-3.3-1.6-5c1.2,0.4,2.4,0.9,3.7,1.3
	c0.8,0.3,1.6,0.6,2.4,0.9C134.4,76.4,133.4,77.3,132.5,78.2z M65.9,82.4c10.2,1.2,20.3,2.7,30.4,4.3c-1.4,1.3-2.8,2.6-4.2,4
	c-3.9,0.1-7.8,0.2-11.7,0.2c-6-2.9-12.1-5.7-18.1-8.5C63.5,82.4,64.7,82.4,65.9,82.4z M90.3,92.5c-0.8,0.7-1.5,1.4-2.2,2.1
	c-1.4-0.7-2.8-1.3-4.2-2C86,92.6,88.1,92.5,90.3,92.5z M94,97.5L94,97.5c3.3,0.2,6.4,0.5,9.6,0.9c-1.1,0.7-2.2,1.4-3.3,2.2
	c-0.4-0.2-0.8-0.3-1.1-0.5C97.4,99.2,95.7,98.3,94,97.5z M126.1,113.1c4.3,1.8,8.6,3.5,13,5.2v0.1c-1.3,0-2.6,0.1-4,0.1
	c-3.1-1.7-6.2-3.3-9.3-4.9c-0.6-0.3-1.2-0.6-1.8-0.9C124.7,112.8,125.4,112.9,126.1,113.1z M136.5,121.1c-1.3,0.8-2.5,1.5-3.8,2.3
	c-1.1-1.1-2.2-2.1-3.3-3.1l0,0c1.7,0,3.5-0.1,5.2-0.1C135.3,120.5,135.9,120.8,136.5,121.1z M115.3,136.9c0.2,0.1,0.4,0.1,0.7,0.1
	c-1.4,2.1-2.8,4.2-4.3,6.2c-2.4,1.4-4.9,2.9-7.4,4.2c0.2-1,0.3-2.1,0.6-3.1c0.5-0.4,1-0.8,1.6-1.2
	C109.3,141.1,112.3,139,115.3,136.9z M101.9,153.5c-1.3-0.2-2.6-0.4-3.9-0.6c1.4-0.7,2.7-1.5,4.1-2.2
	C102,151.6,102,152.6,101.9,153.5z M95.7,154.2c-0.1,0-0.1,0-0.2,0H95.7L95.7,154.2z M140.4,153.7c3.6,0.6,7.2,1.3,10.8,2
	c0.6,0.1,1.1,0.2,1.7,0.4c0,0.3,0.1,0.6,0.1,0.8c-9.1-0.4-18.3-0.7-27.5-0.7C130.5,155.3,135.5,154.5,140.4,153.7z M157.6,169.3
	c-0.2,0-0.5,0-0.7,0.1c-0.1-1.2-0.2-2.4-0.4-3.6C156.9,167,157.2,168.2,157.6,169.3z M157.2,162.3c0.1,0,0.2,0,0.3,0
	c0,0.5,0.1,0.9,0.1,1.4C157.5,163.2,157.4,162.8,157.2,162.3z M166.2,159.4c0,0,0.1,0,0.1-0.1c0.5,0,1,0.1,1.5,0.1
	C167.3,159.5,166.8,159.5,166.2,159.4z M162.4,159.3c-1.1,0-2.2-0.1-3.3-0.1c0-0.1,0-0.2,0-0.3c1.2,0.1,2.5,0.1,3.7,0.2
	C162.6,159.2,162.5,159.3,162.4,159.3z M157.3,159.2c-0.4,0-0.7,0-1.1,0c0-0.1-0.1-0.3-0.1-0.4c0.4,0,0.8,0,1.2,0.1
	C157.3,159,157.3,159.1,157.3,159.2z M152.5,127.9c0-0.2,0-0.3-0.1-0.5c-0.1-1.3-0.3-2.6-0.4-3.9c0.8,0.3,1.6,0.6,2.4,0.9
	c0.1,1.6,0.3,3.2,0.4,4.8C154,128.7,153.3,128.3,152.5,127.9z M152.2,86.7c0.1,0,0.3,0,0.4,0c2.6,2.5,5.2,5.1,7.8,7.6
	c-1.7,2.8-3.4,5.6-5,8.4c-0.4,0.7-0.8,1.3-1.2,2C153.6,98.6,152.9,92.7,152.2,86.7z M155,86.5c0.6,0,1.2-0.1,1.8-0.1
	c1.6,2.1,3.1,4.2,4.6,6.3c0,0,0,0,0,0.1C159.2,90.7,157.1,88.6,155,86.5z M168.6,89.6c1.3,0.9,2.6,1.9,3.9,2.8
	c-0.1,0.1-0.1,0.2-0.2,0.3c-1.3-1-2.6-1.9-3.8-2.9C168.5,89.7,168.5,89.6,168.6,89.6z M170.9,89.1c1.1,0.4,2.2,0.9,3.3,1.3
	c-0.2,0.2-0.4,0.4-0.5,0.6C172.7,90.4,171.8,89.8,170.9,89.1z M175.8,91.1c1.9,0.8,3.7,1.5,5.6,2.3c1.5,0.6,2.9,1.2,4.4,1.8
	c3.8,3.3,7.6,6.6,11.3,9.9c3.3,2.8,6.5,5.7,9.8,8.6c-10.8-7-21.4-14.2-31.9-21.6C175.3,91.8,175.5,91.4,175.8,91.1z M176.9,89.7
	c0.4-0.4,0.7-0.9,1-1.3c1.3,1.1,2.5,2.2,3.8,3.3C180.1,91.1,178.5,90.4,176.9,89.7z M179,87.1c0.1-0.2,0.2-0.3,0.4-0.5
	c2.7,1.6,5.4,3.2,8.2,4.7c1.3,0.7,2.5,1.4,3.8,2c2.3,1.8,4.6,3.5,6.8,5.4c-3.8-1.7-7.6-3.3-11.5-4.9C184.2,91.6,181.6,89.3,179,87.1
	z M188.1,88.8c0.5,0.3,1,0.6,1.5,0.8c2.7,1.6,5.3,3.2,7.9,4.9c-1.8-0.8-3.5-1.7-5.2-2.6C190.9,90.8,189.5,89.8,188.1,88.8z
	 M177.1,81.2c1.3,0,2.5,0,3.8,0c0.3,0,0.5-0.1,0.6-0.2c-0.4,0.6-0.9,1.2-1.3,1.7C179.2,82.1,178.2,81.6,177.1,81.2z M147.3,59.4
	c-0.6-0.5-1.3-1.1-1.9-1.7c0-0.5-0.1-0.9-0.1-1.3c0.4-0.2,0.8-0.4,1.1-0.6c0.1-0.1,0.2-0.1,0.4-0.2C147,56.9,147.2,58.2,147.3,59.4z
	 M148.5,54.9c2.4-1.2,4.8-2.3,7.2-3.2c-2.1,2.9-4.3,5.8-6.5,8.6C148.9,58.4,148.7,56.7,148.5,54.9z M145.2,54.5
	c-0.1-1.7-0.2-3.4-0.3-5.2c0.3-0.1,0.7-0.2,1-0.3c0.2,1.6,0.4,3.2,0.6,4.8C146.2,54.1,145.7,54.3,145.2,54.5z M144.1,64.9
	c0,0.4,0.1,0.8,0.1,1.2c-0.5,0.6-1,1.1-1.5,1.7c-2.5-2-5-4-7.4-5.9c0.4-0.2,0.8-0.5,1.2-0.7c2.6,1.1,5.1,2.3,7.6,3.4
	C144.1,64.7,144.1,64.8,144.1,64.9z M139.5,71.3c-0.5-0.5-1-1-1.5-1.5c0.8,0.2,1.6,0.3,2.4,0.5C140.1,70.7,139.8,71,139.5,71.3z
	 M138.3,72.5c-0.5,0.5-1,1.1-1.6,1.6c-1.6-0.6-3.3-1.2-5-1.8c-1-0.4-2-0.7-3-1.1c-0.3-1.1-0.7-2.2-1-3.3c2.4,0.4,4.8,0.8,7.2,1.2
	C136,70.3,137.1,71.4,138.3,72.5z M128,66.3c0.8-0.5,1.6-1,2.4-1.5c0.8,0.8,1.5,1.5,2.3,2.3C131.1,66.8,129.6,66.5,128,66.3z
	 M125.8,67.7c0.3,1,0.6,2,0.9,2.9c-1.4-0.4-2.8-0.6-4.2-0.7C123.6,69.2,124.7,68.5,125.8,67.7z M123.8,71.8c1.2,0.2,2.4,0.4,3.5,0.8
	c0.6,1.9,1.2,3.7,1.8,5.6c-0.6,0-1.1,0-1.7,0c-3.7-0.1-7.4-0.1-11.2-0.1c-0.6-0.8-1.2-1.5-1.8-2.3c1.8-1.4,3.6-2.7,5.4-4
	C121.2,71.6,122.5,71.6,123.8,71.8z M99.9,65.1c-1.5-2-3-4.1-4.4-6.2C96.9,61,98.4,63.1,99.9,65.1z M88.3,97.3
	c-1.3,1.4-2.6,2.9-3.9,4.3c-0.3-0.1-0.7-0.2-1-0.2c1.5-1.4,3-2.8,4.5-4.3C88.1,97.1,88.2,97.2,88.3,97.3z M90,98
	c2.8,1.2,5.6,2.4,8.3,3.6c0.1,0,0.1,0.1,0.2,0.1c-1.3,0.8-2.6,1.7-3.9,2.5c-2.8-0.7-5.6-1.4-8.3-2.1C87.5,100.7,88.8,99.3,90,98z
	 M131.6,118.5c-0.5,0-1,0-1.4,0c-0.2-0.5-0.7-0.8-1.2-0.5c-0.3,0.2-0.6,0.3-0.9,0.5c-0.2,0-0.3,0-0.5,0c-3.1-2.6-6.3-5-9.6-7.2
	C122.4,113.7,127,116.1,131.6,118.5z M123.9,121.7c-0.6,0.5-1.1,1.1-1.6,1.7c-0.9-0.9-1.9-1.9-2.8-2.9c1.6,0,3.3-0.1,4.9-0.1
	C124.3,120.8,124.1,121.3,123.9,121.7z M118.2,131.1c-1.3,1.2-2.7,2.3-4.2,3.4c-2.1-1.4-3.4-4.2-2.4-6.6c2.3,0.7,4.6,1.5,6.9,2.2
	C118.4,130.4,118.3,130.8,118.2,131.1z M112.6,135.6c-2.1,1.5-4.3,3-6.5,4.3c1-3.1,2.2-6,3.7-8.9
	C110.1,132.8,111.2,134.4,112.6,135.6z M102.5,147.5c-0.5,0-1.1-0.1-1.6-0.1c0.6-0.5,1.2-1,1.9-1.4
	C102.7,146.5,102.6,147,102.5,147.5z M100.7,159.4L100.7,159.4c0,0-0.1,0-0.2,0.1C100.6,159.4,100.7,159.4,100.7,159.4z
	 M116.4,157.9c1.5,0,3,0,4.4,0c1,0.1,2,0.3,3,0.4c-2.7-0.1-5.5-0.1-8.2-0.2C115.9,158,116.2,158,116.4,157.9z M137.6,158.2
	c-0.4,0-0.8-0.1-1.2-0.1c5.6,0.1,11.2,0.3,16.9,0.6c0,0.1,0,0.3,0.1,0.4c-3.3-0.1-6.6-0.2-9.9-0.3
	C141.5,158.6,139.6,158.4,137.6,158.2z M159.3,162.5c0.1,0,0.1,0,0.1,0c1.8,0,3.5,0,5.2,0c2,0.1,4,0.3,6,0.4
	c-3.8,0.2-7.5,0.5-11.3,0.8C159.3,163.2,159.3,162.9,159.3,162.5z M176.4,160.6c0-0.2,0-0.3-0.1-0.5c1.8,0.1,3.6,0.3,5.4,0.5
	C179.9,160.6,178.1,160.6,176.4,160.6z M157.1,157.1c-0.5,0-1.1-0.1-1.6-0.1c0-0.1,0-0.3-0.1-0.4c0.5,0.1,1.1,0.2,1.6,0.3
	C157.1,157,157.1,157.1,157.1,157.1z M155.3,154.8c-0.1-1-0.2-2.1-0.3-3.1c0.6-0.1,1.1-0.1,1.7-0.2c0.1,1.2,0.2,2.4,0.3,3.6
	C156.4,155.1,155.9,154.9,155.3,154.8z M156.2,149.9c-0.4,0.1-0.9,0.1-1.3,0.2c-0.3-3.1-0.7-6.3-1-9.4c0.7,0.2,1.4,0.4,2,0.6
	c0.2,2.9,0.5,5.8,0.7,8.7C156.4,149.8,156.3,149.9,156.2,149.9z M157.6,141.7c2.6,0.7,5.3,1.5,7.9,2.2c4.5,1.2,9.1,2.4,13.6,3.6
	c-2.4,0.2-4.7,0.5-7,0.9c-4.6,0.4-9.2,0.8-13.9,1.3C158.1,147,157.9,144.3,157.6,141.7z M188.4,149.3c0.1-0.1,0.3-0.1,0.4-0.2
	c0.1,0,0.3,0,0.4,0c7.2-0.2,14.4-0.2,21.5,0.1c-6.7,0-13.3,0.1-20,0.1C190,149.3,189.2,149.3,188.4,149.3z M158,125.7
	c15,5.8,30,11.5,45.1,17.1c4.4,1.7,8.9,3.3,13.3,4.9c-7.5-0.5-15-0.6-22.5-0.5c-1.1,0-2.3,0-3.4,0.1c-0.1-0.3-0.4-0.5-0.7-0.5
	c-1.2,0-2.4,0-3.6,0.1c-9.8-5.7-19.6-11.4-29.5-16.8c-0.1-1.7-0.3-3.4-0.5-5.1C156.8,125.3,157.4,125.5,158,125.7z M154.2,122.4
	c-0.8-0.3-1.6-0.6-2.4-0.9c-0.1-0.6-0.1-1.1-0.2-1.7c0.8,0,1.5,0,2.3-0.1C154,120.7,154.1,121.5,154.2,122.4z M151.3,116.5
	c0-0.2-0.1-0.4-0.1-0.7c0.7-0.7,1.4-1.4,2.1-2.2c0.1,1.1,0.2,2.2,0.3,3.3C152.9,116.8,152.1,116.6,151.3,116.5z M153.2,111.8
	c-0.1,0-0.3,0-0.5,0.1c-0.5,0.3-0.9,0.5-1.4,0.8c0.2-0.3,0.4-0.6,0.6-0.9c0.4-0.2,0.9-0.3,1.3-0.5
	C153.1,111.4,153.1,111.6,153.2,111.8z M154.6,108.7c0-0.3-0.1-0.7-0.1-1c0.4,0.1,0.7,0.3,1.1,0.4
	C155.2,108.3,154.9,108.5,154.6,108.7z M157.3,107c-0.7-0.3-1.4-0.6-2.1-0.9c2.1-3.5,4.3-7.1,6.4-10.6c0.2,0.2,0.5,0.5,0.7,0.7
	c0,0.1,0.1,0.1,0.1,0.1c1.1,1.1,2.3,2.3,3.5,3.4c-0.8,0.8-1.6,1.6-2.4,2.3C161.7,103.8,159.6,105.5,157.3,107z M167.2,98.5
	c-0.8-1.3-1.6-2.5-2.4-3.8c0.9-1.2,1.7-2.4,2.6-3.6c1.2,1,2.5,1.9,3.8,2.9C169.9,95.5,168.6,97,167.2,98.5z M173.7,93.7
	c0.1-0.1,0.2-0.2,0.2-0.3c7,5,14.2,9.9,21.4,14.7c2.9,1.9,5.8,3.9,8.8,5.8C193.6,107.7,183.4,101,173.7,93.7z M230.4,77.2
	c-2.6,0.4-5.2,0.7-7.8,1.1C225.1,77.1,227.8,76.6,230.4,77.2z M216.5,80.8c-1.6,1.8-2.9,3.8-3.6,5.9c-1.8,5.3-0.7,11.3,1.5,16.4
	c2.4,5.5,6.2,10.1,10.3,14.4c4.4,4.5,9.2,8.7,13.3,13.5c-12.4-3.3-24.6-7.8-36.1-13.6c5.7,2.3,11.4,4.6,17.2,6.8
	c0.9,0.4,1.5-1.1,0.7-1.6c-1.1-0.6-2.1-1.1-3.1-1.7c0.3-0.3,0.3-0.8,0-1.1c-8.6-7.5-17.2-15-25.8-22.5c4,1.7,8.1,3.5,12.1,5.2
	c0.8,0.4,1.9-0.7,1-1.3c-1.7-1.4-3.4-2.9-5.1-4.3c2.2,1,4.4,2,6.6,3c1,0.4,1.8-0.8,0.9-1.5c-7.2-5.3-14.8-10-22.7-14.2
	c8.6-0.8,17.2-1.7,25.7-2.7C211.7,81.4,214.1,81.1,216.5,80.8z M183.2,78.7c-0.5,0.7-1,1.4-1.5,2c0.3-0.5,0-1.3-0.7-1.3
	c-1.4-0.1-2.8-0.1-4.2-0.1c0,0,0-0.1,0.1-0.1c2.2-0.3,4.5-0.7,6.8-1C183.4,78.4,183.3,78.5,183.2,78.7z M179,76.6
	c2-0.2,4-0.4,6.1-0.5c-0.1,0.1-0.1,0.2-0.2,0.2c-2.2,0.3-4.3,0.7-6.5,1C178.6,77,178.8,76.8,179,76.6z M188.3,75.7
	c-0.4,0.1-0.7,0.1-1.1,0.2c0,0,0-0.1,0.1-0.1C187.7,75.8,188,75.8,188.3,75.7z M192.2,62.2c1.6-1.6,3.2-3.2,4.8-4.8
	c-3.3,5.7-6.9,11.3-10.6,16.7c-1.9,0.2-3.8,0.3-5.7,0.5C184.4,70.4,188.2,66.2,192.2,62.2z M176.6,76.8c-0.2,0.3-0.5,0.6-0.7,0.9
	c-1.1,0.2-2.1,0.3-3.2,0.5c0.2-0.4,0.4-0.7,0.6-1.1C174.4,77,175.5,76.9,176.6,76.8z M168,51.7c-5.1,4.1-10.3,8.2-15.5,12.2
	c-0.3-0.3-0.6-0.5-0.9-0.8c-0.5-0.4-1-0.9-1.5-1.3c2.9-3.6,5.7-7.3,8.3-11.1C161.6,49.8,165.4,49.5,168,51.7z M156.7,49.5
	c-2.1,0.7-4.1,1.6-5.9,2.4c-0.9,0.4-1.7,0.8-2.5,1.2c-0.2-1.5-0.4-3-0.6-4.4C150.7,48.1,153.8,48.4,156.7,49.5z M144.5,37.5
	c0.4,3.3,0.9,6.6,1.3,9.8c-0.3,0.1-0.6,0.2-0.9,0.3C144.8,44.2,144.6,40.9,144.5,37.5z M141.9,58.2c0.6,0.5,1.1,1,1.7,1.6
	c0.1,1,0.2,1.9,0.3,2.9c-1.8-0.9-3.7-1.7-5.6-2.5C139.5,59.5,140.7,58.8,141.9,58.2z M132.1,59.4c0.8,0.3,1.5,0.6,2.3,1
	c-0.2,0.1-0.4,0.3-0.6,0.4C133.2,60.3,132.7,59.8,132.1,59.4z M133.7,62.8c2.5,2,4.9,4,7.4,5.9c-1.8-0.4-3.6-0.8-5.3-1.1
	c-1.3-1.2-2.6-2.5-3.8-3.8C132.5,63.5,133.1,63.2,133.7,62.8z M126.2,60.7c1,1,1.9,1.9,2.9,2.8c-3.4,2.1-6.7,4.3-9.9,6.6
	c-2.3,0.4-4.4,1.4-6,3.2c-0.1,0.1-0.2,0.3-0.4,0.4c-0.1-0.1-0.1-0.2-0.2-0.2C117.2,69.3,121.7,65,126.2,60.7z M95.8,57.2
	c-0.6,0-1.1,0.5-0.8,1.1c-1.2-1.7-2.3-3.5-3.4-5.3C93,54.4,94.4,55.8,95.8,57.2z M108.1,77.9L108.1,77.9C108.1,78,108,78,108.1,77.9
	C108.1,78,108.1,77.9,108.1,77.9z M86.3,79.7c-8.7,0.1-17.3,0.2-26,0.4c-0.6-0.1-1.2-0.1-1.7-0.2C67.8,79.7,77,79.7,86.3,79.7z
	 M52.9,93.2c8.4-0.2,16.7-0.3,25.1-0.5c1.8,0.8,3.6,1.6,5.4,2.4c-3.3-0.2-6.6-0.3-9.9-0.4c-5.2-0.2-10.5-0.2-15.7-0.1
	C56,94.1,54.5,93.6,52.9,93.2z M71.6,98.3c-2.6-0.7-5.1-1.4-7.7-2.1c2.1,0,4.2,0,6.2,0.1c5.2,0.1,10.3,0.3,15.4,0.6
	c-1.4,1.3-2.8,2.6-4.1,3.9C78.2,100,74.9,99.1,71.6,98.3z M83.2,103c-3.3,3.9-6.5,7.9-9.5,12c-0.4,0.5,0.2,1.3,0.8,1.3
	c-5.6,3.3-11.3,6.6-17,9.7c8.2-7.8,16.4-15.6,24.6-23.3C82.4,102.8,82.8,102.9,83.2,103z M98.7,105.1c1.1-0.6,2.1-1.2,3.1-1.8
	c1.2,0.6,2.4,1.2,3.7,1.8c-0.3,0.2-0.5,0.6-0.2,1c0.2,0.2,0.3,0.4,0.5,0.6C103.4,106.2,101.1,105.7,98.7,105.1z M110,109.5
	c0.8,0.2,1.6,0.4,2.3,0.5c4.4,2.6,8.5,5.4,12.4,8.6c-2.3,0.1-4.6,0.1-6.9,0.2C115.2,115.8,112.6,112.7,110,109.5z M117.2,120.6
	c1.3,1.4,2.7,2.8,4.1,4.2c-0.8,1.2-1.6,2.4-2.2,3.8c-2.3-0.7-4.7-1.5-7.1-2.2c-5.4-1.7-10.9-3.5-16.3-5.3
	C102.9,120.9,110.1,120.7,117.2,120.6z M102.8,143.8c-1.5,1.1-3.1,2.3-4.6,3.5c-0.5,0-1-0.1-1.6-0.1
	C98.8,146.1,100.8,144.9,102.8,143.8z M72.8,148.5c5.9-0.1,11.7,0,17.6,0.2c-1.4,0.8-2.8,1.5-4.1,2.3
	C81.7,150.1,77.2,149.3,72.8,148.5z M86.5,152.7c1.3,0.2,2.7,0.5,4,0.7c-1.1,0.9-2.1,1.7-3.2,2.6c-1,0.4-2,0.8-2.9,1.2
	c-0.2,0-0.4,0-0.6,0c-0.5,0-0.7,0.3-0.8,0.7c-1.8,1-3.6,2.2-5.1,3.6c-0.8,0.7,0.2,1.8,1,1.4c0.3-0.1,0.5-0.3,0.8-0.4
	c-0.8,0.7-1.7,1.5-2.5,2.2c-0.1,0.1-0.2,0.2-0.2,0.3c-3.9,1-7.9,1.9-11.8,2.9C71.4,161.7,78.9,157,86.5,152.7z M136.1,165.3
	c-16.1,1.1-32.2,2.3-48.3,3.6c-6.2,0.5-12.4,1-18.7,1.5c7.2-1.9,14.4-4.2,21.4-6.8c5.9-1.4,11.8-2.7,17.7-3.9
	c11.8,0.3,23.6,0.6,35.4,1c0.1,0,0.2,0,0.3,0c-2.7,0-5.4,0-8.1,0c-1.1,0-1.1,1.7,0,1.7c6,0,12.1,0,18.1,0c0.1,0.6,0.2,1.1,0.2,1.7
	C148.1,164.4,142.1,164.8,136.1,165.3z M180.6,169.7c4.3-0.1,8.6-0.1,12.9-0.1c-9.9,1.2-19.8,2.5-29.6,3.8c-2.2,0.3-4.3,0.6-6.5,0.9
	c-0.1-1-0.2-2-0.3-3c0.4-0.1,0.7-0.1,1.1-0.2l0,0c0.3,0.9,1.8,0.8,1.7-0.2l0,0c0.5-0.1,1-0.2,1.6-0.2
	C167.8,170.2,174.2,169.8,180.6,169.7z M216.2,161.9c0.1,0.2,0.4,0.4,0.7,0.4c0.9,0,1.8,0,2.7,0c-11.1,0.9-22.2,2.1-33.2,3.4
	c-8.3,1-16.6,2.1-24.9,3.3c-0.6,0.1-1.1,0.1-1.7,0.1c-0.1-1.3-0.2-2.5-0.3-3.8c8.2-0.6,16.5-1.1,24.7-1.6c0.8-0.1,1-0.9,0.7-1.4
	c0.7,0,1.5,0,2.2,0c3.6,0,7.3,0,10.9,0c5.8,0,11.7,0,17.5,0C215.8,162.3,216.1,162.1,216.2,161.9z M166.6,157.4
	c-2.6-0.6-5.2-1.2-7.9-1.8c-0.1-1.4-0.2-2.8-0.3-4.2c1.3-0.1,2.6-0.3,3.8-0.4c-0.1,0.5,0.2,1,0.8,1c5.2-0.5,10.4-0.8,15.7-0.8
	c0.1,0,0.2,0.1,0.3,0.1c0.4,0,0.9,0,1.3,0C175.8,153.2,171.2,155.3,166.6,157.4z M223.1,154.5c0-0.4-0.1-0.8-0.6-0.9
	c-5.1-1.1-10.2-1.9-15.3-2.6c4.2,0,8.5,0,12.8-0.1c1.6,0,3.2,0,4.8,0c5.7,2.1,11.4,4.2,17.1,6.3C235.7,156,229.4,155.1,223.1,154.5z
	"/>
</svg>
