<?xml version="1.0" encoding="utf-8"?>
<!-- Generator: Adobe Illustrator 24.0.1, SVG Export Plug-In . SVG Version: 6.00 Build 0)  -->
<svg version="1.1" id="Calque_1" xmlns="http://www.w3.org/2000/svg" xmlns:xlink="http://www.w3.org/1999/xlink" x="0px" y="0px"
	 viewBox="0 0 269.7 229.4" style="enable-background:new 0 0 269.7 229.4;" xml:space="preserve">
<style type="text/css">
	.st0{fill:#FFFFFF;}
	.st1{fill-rule:evenodd;clip-rule:evenodd;fill:#FFFFFF;}
</style>
<path class="st0" d="M71.9,113.1c-2.8,0.9-3.6,2.9-4,5.4c-0.4,2.4-0.1,4.8,0.7,7.1c0.2,0.6-0.1,1.2-0.1,1.9c0,1-0.1,2.1,0.1,3.1
	c0.3,1.4,0.9,2.8,1.3,4.2c0.4,1.6,1.5,2.9,2.4,4.2c1,1.6,1.9,3.1,2.9,4.7c0.5,0.8,1,1.6,1.4,2.5c0.4,0.9,0.8,1.9,0.9,2.9
	c0.2,1.5,1,2.7,1.7,4c0.7,1.2,1,2.5,1.5,3.7c0.8,1.8,1,3.8,2.7,5.1c0.6,0.4,1,1,1.3,1.6c0.9,1.6,0.6,4.1-1.3,5
	c-1.5,0.8-2.9,1.7-4.6,1.5c-2.3-0.3-4.2-1.2-5.2-3.4c-0.1-0.1-0.2-0.3-0.2-0.5c0.2-1.3-0.2-2.5-0.7-3.6c-0.4-0.8-0.6-1.8-1-2.5
	c-1.8-3.2-3.7-6.3-5.5-9.4c-0.9-1.6-1.9-3.2-2.9-4.7c-1-1.6-2-3.2-3.1-4.8c-0.4-0.6-1-1.2-1.5-1.8c-2,0.8-3.8,1.6-5.5,2.3
	c-0.3,0.1-0.8,0.2-1.1,0.2c-2.3-0.4-4.6-0.7-6.9-1.3c-0.9-0.2-1.7-0.9-2.6-1.3c-1.9-0.9-4-1.5-5.7-2.7c-1.5-1-2.7-2.5-4-3.9
	c-1.1-1.1-2-2.4-3.1-3.5c-0.9-1-1.6-2.3-2.9-3c-0.4-0.2-0.5-0.8-0.8-1.2c-0.6-0.8-1.2-1.6-1.8-2.3c-0.2-0.2-0.4-0.4-0.5-0.6
	c-0.6-1.1-1.3-2.3-1.9-3.4c-0.6-1.2-1.1-2.4-2-3.5c-0.8-1-1.5-2.2-1.3-3.7c0-0.2-0.1-0.4-0.1-0.6c-0.2-1.1-0.2-2.2-0.2-3.3
	c0.1-1.3-0.2-2.6-0.3-3.9c0-0.5,0-1.1,0.1-1.6c0-0.6,0-1.3,0.1-1.9c0-0.3,0.2-0.7,0.3-1c0.2-0.7,0.6-1.5,0.5-2.2
	c-0.2-1.1,0.2-2,0.7-2.9c1.1-1.8,2.2-3.6,3.4-5.3c0.4-0.5,0.9-1,1.4-1.3c1-0.5,1.7-1.3,2.4-2.1c0.9-1.1,1.9-2.1,3.4-2.3
	c0.2,0,0.4-0.2,0.6-0.2c1.6-0.5,2.4-1.6,2.5-3.2c0.2-1.9,1-3.5,2-5c0.3-0.4,0.6-1,1-1.2c1.1-0.5,1.3-1.5,1.6-2.4
	c0.8-0.6,1.5-1.1,2.3-1.6c0.2-0.1,0.4-0.2,0.6-0.3c0.9-0.2,1.9-0.4,2.8-0.6c1.4-0.3,2.9-0.6,4.3-0.9c1.5-0.4,3-0.8,4.6-1.2
	c1.3-0.3,2.7-0.5,4-0.7c0.6-0.1,1.3-0.3,1.8-0.5c1.7-0.8,3.4-1.6,5.2-2.3c2.3-0.9,6,0.2,7.1,2.2c0.5,0.8,0.6,2.1,0.4,3
	c-0.2,1.2-0.7,2.4-1.6,3.3C68.6,72,68,73,67.7,74.2c-0.2,0.7-0.4,1.5-1.2,2.1c-0.5,0.3-0.7,1.1-0.8,1.7c-0.3,1.2-0.5,2.4-0.7,3.7
	c-0.3,2.2-0.6,4.4-0.7,6.7c-0.1,1.6,0,3.1,0,5c0.2-0.6,0.4-0.9,0.5-1.2c1-2.3,1.6-4.9,3.5-6.8c0.5-0.5,0.7-1.2,1.1-1.8
	c1.6-2.3,3.9-3.9,6-5.7c0.8-0.6,1.7-1.1,2.6-1.7c0.2-0.2,0.5-0.3,0.6-0.6c0.6-1.5,1.9-2.2,3.3-2.7c1-0.3,1.8-0.8,2.7-1.4
	c1.6-1,3.3-1.6,4.9-2.5c1.3-0.7,2.6-1.3,4-1.6c1.8-0.4,3.5-0.6,5.3-0.9c1.2-0.2,2.3-0.6,3.5-0.8c1.1-0.2,2.1-0.2,3.2-0.2
	c0.4,0,0.8-0.1,1.1-0.1c1-0.1,2.1-0.3,3.1-0.3c1.6,0,3.3,0.2,4.9-0.6c0.8-0.4,1.9-0.2,2.7-0.5c2.3-0.8,4.7-0.9,7-1.3
	c1.3-0.2,2.5-1,3.7-1.5c0.4-0.2,0.9-0.4,1.3-0.5c2.9-0.4,5.8-1.2,8.7-1c2.6,0.1,5.3,0.4,7.3,2.5c0.8,0.8,1.6,1.5,2.4,2.1
	c2.1,1.8,2.1,4.3,2.3,6.7c0.1,0.9-0.4,1.8-0.6,2.6c0.4,0.8,1.3,0.8,1.9,0.6c2.2-0.4,4,0.6,5.5,1.8c0.9,0.8,2,1.3,3.3,1.8
	c0.9-0.8,1.8-1.6,2.8-2.4c0.4-0.3,0.9-0.5,1.4-0.7c1.2-0.4,2.4-0.9,3.7-1.1c1.8-0.2,3.6-0.3,5.4-0.4c0.8-0.1,1.8-0.3,2.4,0
	c1.4,0.6,2.8,0.6,4.2,0.7c0.7,1,1.7,1.5,2.8,2c1.7,0.7,3.3,1.8,4.8,2.9c0.6,0.4,1,1.3,1.4,2c0.6,1,0.6,1,1.6,0.5
	c1.2-0.7,2.4-1.5,3.6-2.2c0.6-0.3,1.1-0.6,1.9-0.9c-0.9-1.8-1.8-3.6-2.7-5.4c-0.1-0.2-0.3-0.4-0.3-0.6c-0.3-1.9-1.6-3.3-2.6-4.9
	c-0.4-0.7-0.8-1.3-1.1-2c-0.1-0.4-0.2-1,0-1.2c0.7-0.6,0.6-1.4,0.8-2.2c0.2-1.4,1.2-2.4,2.4-3c2.4-1.2,4.9-1.1,7.1,0.5
	c1.3,0.9,2.2,2.4,2.7,4c0.4,1.2,0.8,2.4,1.7,3.4c0.7,0.8,1.3,1.8,1,3c0,0.1,0,0.2,0.1,0.3c0.5,1.3,1,2.6,1.6,4.1
	c0.9,0.1,2.1,0.3,3.2,0.2c0.9-0.1,1.9-0.4,2.8-0.7c0.3-0.1,0.6-0.2,0.8-0.2c1.4,0.7,2.5-0.1,3.7-0.5c0.9-0.4,2-0.6,3-0.8
	c1.4-0.3,2.6,0.4,3.9,0.8c1.7,0.5,2.6,1.7,3.3,3.3c0.4,0.9,1,1.6,1.8,2.2c1.9,1.8,3.9,3.5,5.7,5.5c1.2,1.4,2.8,2.3,4.4,3.2
	c1.9,1.1,3.8,2.3,5.7,3.4c0.4,0.2,0.9,0.3,1.4,0.4c2.4,0.3,5,3.4,5,5.8c0,1.4-1.4,2.4-2.8,2.6c-1.6,0.2-3.1-0.4-4.6,0
	c-1.2,0.3-2.3-0.3-3.2-1.2c-0.5-0.5-0.9-1.2-1.4-1.7c-0.3-0.4-0.6-0.8-1-1.1c-1.4-1.1-2.6-2.4-4.4-3.1c-0.9-0.3-1.6-1.2-2.2-1.9
	c-0.7-0.9-1.8-0.6-2.7-0.9c-0.4-0.2-0.8,0.4-0.8,1c-0.1,1.1-0.3,2.2-0.4,3.2c-0.1,1.4-0.3,2.7-0.3,4.1c0,1-0.4,1.9-0.6,2.8
	c-0.4,1.6-0.4,3.3-0.3,5c0,0.3,0,0.7-0.1,1c-0.2,1.1-0.6,2.2-0.7,3.3c-0.2,2.4-0.3,4.9-0.5,7.3c-0.1,0.7-0.2,1.4-0.4,2.1
	c-0.4,1.7-0.2,3.4,0,5.1c0.1,0.6,0.1,1.3-0.1,1.9c-0.6,2.4-0.7,4.9-0.3,7.3c0.4,2.2,0.4,4.4,0.6,6.6c0.1,1,0.6,2.1,1,3
	c0.6,1.4,1.6,2.7,1.9,4.1c0.2,1.1,0.7,2.6-0.5,3.7c-1.4,1.3-1.3,1.3-3.4,1c-1.3,0.7-2.2-0.4-3.3-0.8c-0.8-0.2-1-0.9-1.4-1.5
	c-0.8-1.6-1.9-3.1-1.4-5c0.1-0.3-0.1-0.6-0.2-0.9c-0.4-2.4-0.9-4.7-1.3-7.2c-0.8,0.4-1.4,1-2.2,1.2c-1.6,0.4-3.2,0.6-4.9,0.1
	c-1.3-0.4-2.7-0.6-4-0.9c-0.8-0.2-1.6-0.3-2.2-0.9c-0.4-0.4-1.2-0.5-1.8-0.6c-1.9-0.4-3.8-0.7-5.6,0.2c-0.1,0.1-0.3,0.1-0.5,0.1
	c-1.7,0.1-3.4,0.2-5,0.5c-1.4,0.2-2.9,0.7-4.3,1c-0.6,0.1-1.3,0.2-1.9,0.3c-2,0.1-4,0.1-6,0.4c-1.1,0.1-2,0.5-2.7,1.6
	c-1.3,1.9-2.7,3.7-4,5.5c-0.6,0.9-1,2-1.9,2.8c-0.4,0.3-0.4,1.2-0.6,1.9c-1.4,0.1-1.7,1.6-2.3,2.6c-1.3,1.9-2.8,3.6-4.6,5
	c-0.8,0.6-1.7,1-2.5,1.4c-0.2,0.1-0.4,0.1-0.6,0.3c-1.1,1.1-2.2,2.1-4.1,2.1c0.4,0.9,0.6,1.6,0.9,2.3c0.8,2.4,1.7,4.8,3.6,6.6
	c0.7,0.7,1,1.7,1.4,2.6c0.4,1,0.9,2.1,1.1,3.2c0.2,0.9,0.3,1.9,0.4,2.9c-0.8,0.6-1.6,1.4-2.4,1.9c-0.8,0.5-1.8,0.8-2.7,1
	c-0.5,0.1-1-0.2-1.5-0.4c-0.4-0.1-0.6-0.6-0.9-0.6c-1.8-0.3-2.3-1.7-2.6-3.1c-0.1-0.2,0-0.5-0.2-0.6c-0.8-1-1.6-2-1.1-3.4
	c0-0.1-0.2-0.3-0.3-0.4c-0.8-1.4-1.7-2.8-1.9-4.5c-0.1-0.6-0.6-1.2-1-1.9c-0.4,0.1-0.8,0.1-1.1,0.2c-2.2,1.4-4.6,1.6-7.1,1.1
	c-1.8-0.4-3.5-0.7-5.1-1.7c-0.9-0.6-1.6-1.2-2.4-1.8c-0.2-0.2-0.3-0.6-0.2-0.9c0.5-1.4,1.1-2.7,1.7-4c0.4-0.8,0.9-1.5,1.4-2.2
	c0.6-0.8,1.2-1.6,1.8-2.3c0.5-0.6,1-1.2,1.3-1.9c0.2-0.4,0.2-1.1,0-1.5c-0.6-1.1-1.3-2.1-2-3.1c-0.2-0.2-0.5-0.4-0.8-0.6
	c-0.2-0.2-0.6-0.4-0.6-0.7c0-1-0.6-1.7-1.2-2.4c-0.5-0.6-1-1.3-1.4-1.9c-0.8-1-1.8-1.9-2.2-3.2c-0.6-1.6-1.5-1.8-3.1-1.3
	c-1.6,0.5-3.2,0.8-4.7,1.2c-1.8,0.6-3.6,1.3-5.4,2c-1.1,0.4-2.2,0.6-3.4,1c0.5,2.3,0.9,4.5,1.4,6.7c0.1,0.5,0.5,0.9,0.7,1.4
	c0.7,1.4,1.6,2.6,1.3,4.4c-0.1,1-0.9,1.2-1.3,1.7c-0.8,1.1-2,1.4-3.4,1.1c-0.4-0.1-0.9-0.1-1.3-0.2c-1.9-0.1-3.1-1.3-3.4-3.3
	c-0.2-1.3-0.5-2.7-0.9-3.9c-0.6-1.8-1-3.6-1.3-5.5c-0.2-1.1-1.3-2.1-2.4-2.2c-2.8-0.2-5.1-1.4-7.2-3.2c-1.3-1.1-3-1.5-4.6-1.8
	c-0.9-0.2-1.8-0.4-2.7-0.8c-1.8-0.8-3.6-1.8-5.4-2.7c-0.3-0.2-0.6-0.6-0.8-1c-0.4-0.7-0.8-1.4-1.2-2.1c-0.2-0.3-0.5-0.5-0.6-0.8
	c-0.9-2.1-1.8-4.2-2.8-6.2c-0.7-1.5-1.1-3.2-2.3-4.5c-0.2-0.3-0.4-0.6-0.6-1C73.4,117.2,72.7,115.2,71.9,113.1z M30.5,116
	c0.2-0.1,3.1-1.2,3.2-1.2c0.6,0,1.3,0,1.9,0c1,0,2,0,3-0.1c1.9-0.2,3.9-0.5,5.8-0.7c1.6-0.1,3-0.6,4.2-1.6c0.5-0.4,1.2-0.6,1.8-0.7
	c1.3-0.3,1.5-0.4,1-1.7c-0.3-0.9-0.9-1.7-1-2.5c-0.2-1.7-1.1-3.1-1.8-4.5c-0.9-2.1-2.2-4-3.3-5.9c-1.2-1.9-2.5-3.7-4.5-4.8
	c-0.3-0.2-0.6-0.4-0.9-0.7c-1.3-1.3-1.8-1.3-3.2-0.1c-1.2,1.1-2.5,2.1-4,3c-1.1,0.7-2.2,1.8-2.3,3.4c-0.1,0.5-0.3,1.1-0.6,1.5
	c-0.6,1-0.8,2.1-0.9,3.3c-0.1,0.6,0,1.3-0.4,1.7c-0.9,1.2-0.6,2.5-0.4,3.8c0.2,1.3,0.5,2.6,0.8,3.8C29.3,113.2,29.5,114.7,30.5,116z
	 M166.1,105.8c0.5-0.7,0.7-1.3,1.1-1.6c1.3-1.1,1.7-2.7,2.4-4.1c0.3-0.7,0.6-1.4,1.1-1.9c0.8-0.9,1.9-1.6,2.4-2.6
	c0.7-1.2,1.5-1.9,2.8-2.5c1.2-0.5,1.6-1.7,1.4-2.5c-0.2-0.7-0.5-1.4-0.8-2.1c-0.9-2.1-1.6-4.2-1.3-6.5c0-0.4-0.2-0.8-0.3-1.2
	c-1,0.1-2,0.1-2.9,0.3c-0.9,0.2-1.9,0.5-2.5,1.4c-0.2,0.4-0.7,0.6-1.1,0.8c-1.4,0.9-2.8,1.8-3.1,3.8c-0.1,0.7-0.4,1.2-1,1.8
	c-0.5,0.5-0.8,1.6-0.8,2.3c0,1.8-0.6,3.2-1.7,4.4c-0.4,0.4-0.8,1.1-0.7,1.6c0.4,1.5,0.6,3,1.5,4.4
	C163.5,103.2,165.3,103.9,166.1,105.8z M149.5,141.3c0.2-0.7,0.2-1.2,0.4-1.7c0.3-0.6,0.7-1.2,0.9-1.9c0.3-1.3,0.4-2.6,0.7-3.9
	c0.2-1,0.6-2.1,1.1-3c1-1.6,2.1-3.1,3.2-4.7c0.8-1.1,1.4-2.4,2.2-3.4c0.7-0.9,1-1.9,1.2-3c0.2-1.4,0.8-2.5,1.7-3.4
	c0.2-0.2,0.2-0.5,0.4-0.8c-3.7-0.2-7.3-0.4-10.9-0.6c-0.5,1-0.6,2.3-2,2.6c-0.1,0-0.1,0.2-0.1,0.3c-0.4,0.9-0.9,1.9-1.3,2.8
	c-0.7,1.7-1.4,3.4-2.1,5.1c-0.1,0.3-0.3,0.8-0.2,1.1c0.5,1.1-0.2,2.6,1.1,3.4c0.1,0.1,0.1,0.3,0.1,0.4c0.2,1.1,0.3,2.2,0.5,3.4
	c0.1,0.4,0.3,0.8,0.5,1.2c0.3,0.7,0.6,1.4,0.8,2.1C147.9,138.8,148.3,140.1,149.5,141.3z M193,95.4c0.6,1.4,1.3,2.6,1.5,3.8
	c0.3,1.7,1.5,2.8,2.1,4.3c0.3,0.7,1,1.2,1.6,1.8c0.5,0.5,1.1,1,1.6,1.5c0.8,0.8,1,0.9,2,0.4c0.7-0.3,1.3-0.8,2-1.1
	c0.8-0.4,1.2-1,1-1.8c-0.4-1.9-1.1-3.8-1.3-5.7c-0.1-1.5-0.9-2.9-1.3-4.3c-0.2-0.7-0.3-1.4-0.3-2.1c0-0.8-0.1-1.6-0.8-2.2
	c-0.3-0.2-0.4-0.8-0.4-1.2c0.3-1.6-0.5-2.6-1.4-3.3c-1.6,0.8-3,1.5-4.5,2.3c-0.2,0.1-0.4,0.3-0.4,0.5c-0.6,1.3-1.8,2.2-3.1,3
	c0.9,1.3-0.7,2.7,0.3,4.1c1.2-1.1,1.2-1.1,2.1-1C193.4,94.7,193.2,95.1,193,95.4z M101.7,73.7c0,0.1-0.1,0.3-0.1,0.4
	c0.2,0.1,0.3,0.3,0.5,0.4c2.6,0.9,4.6,2.7,6.4,4.6c1.6,1.7,1.7,3.3,0.3,5.2c-0.2,0.2-0.3,0.5-0.4,1c1.9,0.4,3.6,0.8,5.4,0.6
	c2-0.2,4.1-0.5,6.2-0.8c-0.1-4-0.3-8.2-2.7-12.2c-2.4,0.1-4.9,0.2-7.5,0.3c-0.5,0-1.1,0.2-1.6,0.2C106,73.5,103.8,73.6,101.7,73.7z
	 M77.2,95.2c1.3-2.1,3.1-3.2,4.9-4.4c0.7-0.4,1.4-0.8,2.1-1.1c0.9-0.2,1.5-0.6,1.9-1.4c0.2-0.4,0.5-0.8,0.8-1
	c1.4-0.7,2.8-1.2,4.2-1.8c0.6-0.3,1.3-0.8,1.5-1.4c0.3-1.4,1.2-2.5,1.8-3.8c0.7-1.5,0.8-3.3,2-4.7c-0.9,0.1-1.7,0.2-2.5,0.7
	c-0.9,0.5-2,0.9-2.9,1.4C90,78,88.9,78.3,88.3,79c-1,1.3-2.4,1.8-3.5,2.7c-0.8,0.7-1.9,1-2.8,1.6c-0.5,0.3-1.1,0.9-1.3,1.4
	c-0.2,0.9-0.8,1.2-1.5,1.5c-0.6,0.2-1.1,0.5-1.6,0.7c-0.3,1.7-0.7,2.3-2,3.5c-1.1,1-1.2,1.6-0.2,2.8C75.9,93.8,76.5,94.4,77.2,95.2z
	 M219.9,96.3c0.5-0.9,0.7-1.8,0.8-2.8c0-1.5-0.4-3,0.3-4.5c0.2-0.4,0.1-0.9,0.1-1.3c-0.1-0.9,0-2.1-0.6-2.6c-1-1.1-2.2-2.3-3.7-2.9
	c-0.1-0.1-0.3-0.1-0.5-0.1c-1.4,0.2-2.9,0.2-4.3-0.4c-0.2-0.1-0.4-0.1-0.6,0c-0.8,0.2-1.7,0.5-2.5,0.7c-0.2,2.1-0.1,3.9,1.7,5.4
	c0.7,0.6,1.3,1.6,1.5,2.4c0.3,1.5,1.2,2.6,2.3,3.4C216,94.9,217.6,96.1,219.9,96.3z M169.1,118.1c-1,1.5-1.9,3-2.8,4.5
	c-0.3,0.6-0.6,1.2-1,1.6c-1.4,1.1-1.6,2.5-1,4c-2.1,1.6-5.4,8.2-5.1,10.3c2.2-0.8,4.2-1.8,5.7-3.4c-0.1-0.7-0.4-1.4-0.2-2
	c0.6-2.2,1.9-3.9,4.4-4.2c0.3,0,0.6-0.2,0.8-0.4c1.1-1.2,2.4-1.7,4.2-1.4c0.7-2.1,1.4-4.2,1.4-6.4c-1.1-0.7-2-1.4-3-1.8
	C171.3,118.5,170.1,118.3,169.1,118.1z M108,100.8c-0.1,0.6-0.2,0.9-0.2,1.2c0.2,1.1,0.4,2.3,0.6,3.4c0.3,1.5,0.2,3-0.6,4.3
	c-0.5,0.8-0.6,1.6-0.7,2.5c-0.1,1,0,1.9,0,2.9c0,0.7-0.2,1.5,0.1,2.1c0.6,1.3,0.2,2.5-0.1,3.8c-0.2,1,0.1,1.5,1,1.6
	c1.4,0.1,2.5,0.7,3.6,1.5c1.6,1.1,3.5,1.2,5.4,0.8c0.3-0.1,0.5-0.2,1-0.3c-0.8-0.6-1.2-0.9-1.5-1.2c-0.7-0.6-1.3-1.3-1.9-2
	c-0.8-0.9-1.4-2-2.2-2.8c-1.5-1.5-1.8-3.3-1.2-5.1c0.6-1.7,0.5-3.3,0.4-5.1C111.5,105.3,110.4,102.9,108,100.8z M149,94.3
	c0.6-0.2,1.2-0.2,1.7-0.4c1.8-0.9,3.3-2.1,3.5-4.3c0.1-0.9,0.3-1.7,0.5-2.6c0.4-1.3-0.2-2.6-1.3-3.4c-2.3-1.8-4.9-1.7-7.6-1.2
	c-0.7,0.1-1.3,1-1.1,1.7c0.2,0.8,0.4,1.6,1,2.2c0.4,0.3,0.7,0.9,0.8,1.4C146.9,90,148.2,92,149,94.3z M57.9,73.8
	c-2,0.2-3.7,0.4-5.4,0.6c-1.7,0.1-3.3,1-5,0.8c-1.8-0.2-2.5,1.4-3.7,2.1c-0.2,0.1-0.2,0.5-0.2,0.8c0,0.5,0,1.1,0,1.7
	c1.7-0.4,3.4,0,4.7-1.2c0.2-0.1,0.5-0.1,0.8-0.1c1.5,0.3,3,0.6,4.5,0.9c0.6,0.1,1.2,0.2,1.8,0.4C56.2,77.8,57.3,76.1,57.9,73.8z
	 M84.6,119c0.3,1.3,0.4,2.3,0.7,3.2c0.3,0.9,0.5,2,1,2.7c1,1.3,2.1,2.5,3.4,3.5c1.9,1.5,3.9,2.8,5.9,4.1c0.8,0.6,1.7,1,2.7,1.6
	c-0.6-2.3-2.1-3.8-3.3-5.4c-0.4-0.6-1.1-1-1.7-1.6c-1.6-1.6-3-3.4-4.7-4.9C87.5,121.1,86.1,120.2,84.6,119z M142.5,145
	c-0.4-2-0.7-4.1-1.8-5.8c-0.1-0.2-0.2-0.5-0.3-0.8c-0.8-2.2-1.7-4.4-2.5-6.6c-0.3-0.8-1.1-1.1-1.9-1.2c-0.5,0-1,0-1.5,0
	c-0.3,1.1,0,2.1,0.4,3.1c0.6,1.4,1.2,2.9,2,4.3c0.7,1.2,1.9,2.2,2.5,3.5C140.1,143,141.3,143.9,142.5,145z M54.4,96.7
	c0-0.2-0.1-0.5,0-0.6c0.6-0.9,0.4-1.9,0-2.8c-0.2-0.5-0.4-1.1-0.3-1.6c0.1-1.7,0-3.4-0.4-5.1c-0.2-0.8-0.5-1-1.2-1
	c-1,0-1.9,0-2.9,0.1c-0.5,0.1-1,0.3-1.6,0.5c0.6,2.2,1.6,3.8,3,5.4C51.1,93.9,53.4,94.8,54.4,96.7z M132.3,77.9
	c1.5-2.2,4-2.1,5.8-3.5c0.2-0.5,0.4-1.1,0.7-1.7c0.3-0.8,0.2-1-0.7-1.2c-2.6-0.7-5.2-0.2-7.8-0.3c-0.1,0-0.3,0.2-0.4,0.2
	C130.6,73.4,131.4,75.5,132.3,77.9z M126.4,97.7c-0.7,0.2-1,0.4-1.3,0.4c-1.1-0.1-1.4,0.7-1.6,1.5c-0.4,1.5-0.7,3-1.1,4.5
	c-0.2,1-0.1,1.9,0.4,2.8c1.7-0.6,3.4-1.2,5-1.9c0.2-0.1,0.4-0.3,0.7-0.6C127.9,102.2,127.2,100,126.4,97.7z M121.8,132.2
	c-3.9-0.2-7.5-0.4-11.2-0.5c0.1,1,0.3,2,0.4,3c0,0.9,0.5,1.2,1.2,1.1c1.2-0.1,2.3-0.5,3.5-0.6c2-0.1,3.6-1.2,5.2-2
	C121.3,133,121.5,132.6,121.8,132.2z M89,109.9c0.5-3.2,1-6.1,1.5-9.4c-2.5,1.8-4.6,3.4-6.9,5.2c1.3,1.4,2.6,2.7,3.9,3.9
	C87.8,109.9,88.5,109.8,89,109.9z M139.5,102.2c0.7-0.5,0.8-0.9,0.7-1.5c-0.2-1.1-0.5-2.2-0.3-3.2c0.4-1.8-0.2-3.4-0.6-5
	c-0.4-2-1.5-3.9-2.3-5.8c-0.6,0.4-1.2,0.8-1.7,1.2c-0.2,0.2-0.4,0.7-0.3,1c0.6,1.4,1.2,2.9,2,4.2c0.7,1.3,1.1,2.5,0.9,4
	c0,0.3,0,0.5,0.1,0.8c0.2,0.7,0.4,1.5,0.6,2.2C138.9,100.8,139.2,101.5,139.5,102.2z M156.9,107c-0.2-0.6-0.2-0.8-0.3-1
	c-0.7-1.4-1.4-2.8-2.1-4.2c-0.3-0.6-0.8-0.9-1.5-0.6c-2.6,1.1-3.4,2.2-2.3,4.7c0,0.1,0.1,0.2,0.1,0.3c0.6,1.5,0.7,1.5,2.3,1.3
	c0.4-0.1,0.9,0,1.3-0.1C155.2,107.3,156,107.2,156.9,107z M183,130.7c0.1,0.2,0.3,0.4,0.4,0.6c6.8-1.1,13.6-2.3,20.3-4.1
	c-1-0.2-2-0.3-2.9-0.1c-1.1,0.2-2.2,0.6-3.3,0.9c-0.4,0.1-0.8,0.1-1.1,0c-1.8-0.6-3.6-0.2-5.5-0.2c-2.5,0-4.6,1.5-6.9,2.2
	C183.6,130.1,183.3,130.5,183,130.7z M187.7,104.8c-1.5,0.9-1.8,1.9-1.2,3.3c0.4,1,0.7,1.9,0.5,3c-0.1,0.3,0.1,0.6,0.2,1.2
	c1.8-0.4,3.6-0.9,5.4-1.3c-0.5-1-0.8-1.9-1.3-2.5C190.2,107.2,189,106.1,187.7,104.8z M217.6,119.8c0.1-1.1,0.3-2.1,0.4-3.1
	c0.1-1,0.1-2,0-3c-0.1-0.9,0.9-1.8,0.4-2.7c-1,0.4-1.8,0.7-2.6,1c-0.7,0.3-1.3,0.6-2,0.8c1.1,2.3,1.8,4.4,1.6,6.7
	C216,119.6,216.7,119.7,217.6,119.8z M49.3,129.7c-1.7-2.8-10-6.3-13.1-5.4C40.1,127.2,44.4,129.1,49.3,129.7z M115.2,96.9
	c0.9-1.1,1.6-2.1,2.3-2.9c-1-1.4-2.4-0.8-3.5-1.2c-1.2-0.4-2.3-0.5-3.6-0.3C112.4,93.5,113.3,95.7,115.2,96.9z M159.3,146.4
	c-0.1-0.1-0.1-0.1-0.2-0.2c-0.4,0.2-0.9,0.4-1.3,0.6c-1.6,1.1-3.1,2.3-4.7,3.5c-1.3,0.9-1.3,1.2-0.3,2.8
	C155.1,150.8,157.2,148.6,159.3,146.4z M132.8,117.8c-1.2,0.9-2.7,0.6-3.4,2.1c0.4,0.6,0.8,1.3,1.4,2.3c1-1.3,1.7-2.3,2.4-3.4
	C133.3,118.7,133,118.3,132.8,117.8z M99,121.2c0.2,0,0.3,0.1,0.5,0.1c0.1-0.3,0.3-0.6,0.2-0.8c-0.4-1.3-0.4-2.6,0.1-3.8
	c0.1-0.2,0.1-0.6,0-0.8c-0.3-1.2-0.7-2.4-1.1-3.7C97.8,115.3,98.9,118.2,99,121.2z M99.7,98.7c-0.6,0.5-1.1,1.6-1.5,3.4
	c-0.5,2.2-0.5,2.2,0.1,3.5C99,103.4,99.8,101.2,99.7,98.7z M177.8,111.7c0.3-0.6,0.6-1.1,0.8-1.7c0.1-0.4-0.2-0.9-0.6-0.7
	c-0.9,0.5-2.1,0.7-2.9,1.9C176.1,111.4,177,111.6,177.8,111.7z M64.8,98.9c0.7-0.1,1.2-0.2,0.7-0.9c0-0.1-0.2-0.1-0.4-0.1
	C65.1,98.1,64.9,98.5,64.8,98.9z M143,161c0.1,0.1,0.2,0.2,0.3,0.4c0.2-0.2,0.5-0.4,0.7-0.6c-0.1-0.1-0.3-0.3-0.4-0.4
	C143.5,160.5,143.2,160.7,143,161z M65.4,100.2c-0.3,1-0.3,1,0.4,1.7C65.7,101.2,65.6,100.8,65.4,100.2z"/>
<path shape-rendering="geometricPrecision" text-rendering="geometricPrecision" image-rendering="optimizeQuality" class="st1" d="
	M244.6,78.8c0,0.3,0.2,0.5,0.5,0.5h0.6c0.9,0,1.8,0,1.8-1.1c0-0.9-0.8-1-1.5-1h-0.9c-0.3,0-0.5,0.2-0.5,0.5V78.8z M243.5,76.7
	c0-0.3,0.2-0.5,0.5-0.5h2.1c1.6,0,2.4,0.6,2.4,1.9c0,1-0.5,1.5-1.2,1.7c-0.3,0.1-0.4,0.4-0.2,0.7l1.1,1.7c0.2,0.3,0,0.7-0.4,0.7l0,0
	c-0.2,0-0.3-0.1-0.4-0.2l-1.6-2.5c-0.1-0.1-0.2-0.2-0.4-0.2h-0.4c-0.3,0-0.5,0.2-0.5,0.5v2c0,0.3-0.2,0.5-0.5,0.5H244
	c-0.3,0-0.5-0.2-0.5-0.5L243.5,76.7L243.5,76.7z M245.8,84.6c2.7,0,4.8-2.2,4.8-5c0-2.8-2.1-4.9-4.8-4.9c-2.7,0-4.8,2.2-4.8,4.9
	C241,82.4,243.1,84.6,245.8,84.6z M245.8,73.8c3.2,0,5.8,2.5,5.8,5.8c0,3.3-2.6,5.8-5.8,5.8c-3.2,0-5.8-2.5-5.8-5.8
	C239.9,76.3,242.6,73.8,245.8,73.8L245.8,73.8z"/>
</svg>
