<?xml version="1.0" encoding="utf-8"?>
<!-- Generator: Adobe Illustrator 24.0.1, SVG Export Plug-In . SVG Version: 6.00 Build 0)  -->
<svg version="1.1" id="Calque_1" xmlns="http://www.w3.org/2000/svg" xmlns:xlink="http://www.w3.org/1999/xlink" x="0px" y="0px"
	 viewBox="0 0 184.5 65.2" style="enable-background:new 0 0 184.5 65.2;" xml:space="preserve">
<style type="text/css">
	.st0{fill:none;stroke:#DDDEE0;stroke-width:0.7087;stroke-miterlimit:10;}
	.st1{fill:#DDDEE0;}
</style>
<path class="st0" d="M163.8,31.7H25.6c-7.4,0-13.4,6-13.4,13.4v0c0,7.4,6,13.4,13.4,13.4h138.3c7.4,0,13.4-6,13.4-13.4v0
	C177.2,37.7,171.2,31.7,163.8,31.7z"/>
<g>
	<path class="st1" d="M26.2,45.9v-1.1h5.7v6.9h-1.1v-2.3c-0.2,0.4-0.5,0.8-0.8,1.1c-0.3,0.3-0.7,0.6-1,0.8c-0.4,0.2-0.9,0.4-1.4,0.5
		C27.1,52,26.5,52,25.9,52c-0.8,0-1.6-0.1-2.3-0.4s-1.3-0.7-1.8-1.3c-0.5-0.6-0.9-1.3-1.2-2.2c-0.3-0.9-0.4-1.9-0.4-3.1
		c0-1,0.1-1.9,0.4-2.7c0.2-0.8,0.6-1.6,1.1-2.2c0.5-0.6,1.2-1.1,1.9-1.5c0.8-0.4,1.7-0.5,2.7-0.5c0.7,0,1.4,0.1,2,0.3
		s1.2,0.4,1.6,0.8c0.5,0.4,0.9,0.8,1.2,1.3c0.3,0.5,0.6,1.1,0.7,1.9h-1.3c-0.1-0.5-0.3-0.9-0.6-1.3c-0.3-0.4-0.6-0.7-1-1
		c-0.4-0.3-0.8-0.5-1.2-0.6c-0.5-0.1-0.9-0.2-1.4-0.2c-0.9,0-1.6,0.2-2.3,0.5c-0.6,0.3-1.1,0.7-1.6,1.3c-0.4,0.6-0.7,1.2-0.9,2
		c-0.2,0.8-0.3,1.6-0.3,2.6c0,0.7,0.1,1.4,0.3,2.1c0.2,0.7,0.5,1.3,0.9,1.8c0.4,0.5,0.9,0.9,1.5,1.2c0.6,0.3,1.3,0.4,2,0.4
		c0.4,0,0.7,0,1.1-0.1c0.4-0.1,0.8-0.2,1.1-0.4c0.4-0.2,0.7-0.4,1-0.7c0.3-0.3,0.6-0.7,0.8-1.1c0.2-0.4,0.4-0.9,0.4-1.3
		c0.1-0.5,0.1-0.9,0.1-1.4H26.2z"/>
	<path class="st1" d="M35.9,51.7h-1.1v-9.6h1.1v1.8h0c0.3-0.8,0.7-1.3,1.2-1.6c0.5-0.3,1.1-0.5,1.9-0.5V43c-0.6,0-1.1,0.1-1.6,0.3
		c-0.4,0.2-0.7,0.5-1,0.9c-0.2,0.4-0.4,0.8-0.5,1.3c-0.1,0.5-0.1,1-0.1,1.5V51.7z"/>
	<path class="st1" d="M45.3,46.1c0.2,0,0.5-0.1,0.7-0.1c0.3,0,0.5-0.1,0.7-0.2c0.2-0.1,0.3-0.2,0.3-0.4c0-0.2,0.1-0.4,0.1-0.6
		c0-0.6-0.2-1-0.5-1.4c-0.4-0.4-1-0.5-1.8-0.5c-0.4,0-0.7,0-1.1,0.1c-0.3,0.1-0.6,0.2-0.8,0.4c-0.2,0.2-0.4,0.4-0.6,0.7
		c-0.2,0.3-0.3,0.6-0.3,1h-1.1c0-0.6,0.2-1.1,0.4-1.5c0.2-0.4,0.5-0.7,0.9-1c0.4-0.3,0.8-0.4,1.2-0.6c0.5-0.1,1-0.2,1.5-0.2
		c0.5,0,0.9,0.1,1.4,0.2c0.4,0.1,0.8,0.3,1.1,0.5s0.6,0.5,0.7,0.9c0.2,0.4,0.3,0.9,0.3,1.4V50c0,0.4,0.1,0.7,0.2,0.8
		c0.2,0.1,0.5,0.1,0.9-0.1v0.9c-0.1,0-0.2,0.1-0.4,0.1c-0.2,0-0.3,0.1-0.5,0.1c-0.2,0-0.3,0-0.5-0.1c-0.2,0-0.3-0.1-0.4-0.2
		c-0.1-0.1-0.2-0.2-0.3-0.3c-0.1-0.1-0.1-0.3-0.1-0.4c0-0.2,0-0.3,0-0.5c-0.5,0.5-1,0.9-1.6,1.2c-0.6,0.3-1.3,0.4-2,0.4
		c-0.4,0-0.8-0.1-1.2-0.2c-0.4-0.1-0.7-0.3-1-0.5c-0.3-0.2-0.5-0.5-0.7-0.9c-0.2-0.3-0.3-0.7-0.3-1.2c0-1.6,1.1-2.6,3.3-2.9
		L45.3,46.1z M47.2,46.6c-0.5,0.2-0.9,0.3-1.4,0.4c-0.5,0.1-1,0.1-1.4,0.1c-0.9,0.1-1.5,0.3-2,0.6c-0.5,0.3-0.7,0.8-0.7,1.5
		c0,0.3,0.1,0.6,0.2,0.8c0.1,0.2,0.3,0.4,0.5,0.5c0.2,0.1,0.4,0.2,0.7,0.3c0.3,0.1,0.5,0.1,0.8,0.1c0.4,0,0.9-0.1,1.3-0.2
		c0.4-0.1,0.8-0.3,1.1-0.5c0.3-0.2,0.6-0.5,0.8-0.9c0.2-0.4,0.3-0.8,0.3-1.2V46.6z"/>
	<path class="st1" d="M52.5,55.4h-1.1V42.1h1.1v1.7h0c0.2-0.3,0.4-0.6,0.6-0.8c0.3-0.2,0.5-0.4,0.8-0.6c0.3-0.2,0.6-0.3,0.9-0.4
		c0.3-0.1,0.6-0.1,0.9-0.1c0.8,0,1.4,0.1,2,0.4c0.5,0.3,1,0.6,1.3,1.1c0.4,0.4,0.6,1,0.8,1.6s0.2,1.3,0.2,2c0,0.7-0.1,1.3-0.3,1.9
		c-0.2,0.6-0.4,1.2-0.8,1.6c-0.4,0.5-0.8,0.8-1.3,1.1s-1.2,0.4-1.9,0.4c-0.7,0-1.3-0.1-2-0.5c-0.6-0.3-1.1-0.7-1.5-1.3V55.4z
		 M52.5,46.9c0,0.5,0.1,1.1,0.2,1.5c0.1,0.5,0.4,0.9,0.6,1.3c0.3,0.4,0.6,0.7,1,0.9c0.4,0.2,0.9,0.3,1.4,0.3c0.6,0,1.1-0.1,1.5-0.3
		c0.4-0.2,0.8-0.5,1-0.9c0.3-0.4,0.5-0.9,0.6-1.4s0.2-1.1,0.1-1.7c0-0.6-0.1-1.1-0.2-1.6c-0.2-0.5-0.4-0.9-0.7-1.2
		c-0.3-0.3-0.6-0.6-1-0.7c-0.4-0.2-0.8-0.3-1.3-0.3c-0.5,0-1,0.1-1.4,0.3c-0.4,0.2-0.7,0.5-1,0.9c-0.3,0.4-0.5,0.8-0.6,1.3
		C52.5,45.8,52.5,46.3,52.5,46.9z"/>
	<path class="st1" d="M62.5,51.7V38.3h1.1v5.1c0.4-0.5,0.9-0.9,1.4-1.1c0.5-0.3,1-0.4,1.7-0.4c0.6,0,1.1,0.1,1.6,0.3
		c0.5,0.2,0.9,0.6,1.3,1.1c0.2,0.3,0.4,0.7,0.4,1.1c0,0.4,0.1,0.7,0.1,1.1v6.3H69v-6.3c0-0.9-0.2-1.5-0.6-1.9
		c-0.4-0.4-1-0.6-1.9-0.6c-0.3,0-0.7,0.1-0.9,0.2c-0.3,0.1-0.5,0.2-0.8,0.4c-0.2,0.2-0.4,0.4-0.6,0.6c-0.2,0.2-0.3,0.5-0.4,0.7
		c-0.1,0.3-0.2,0.6-0.2,0.9s0,0.6,0,0.9v5.2H62.5z"/>
	<path class="st1" d="M72.9,40v-1.6h1.2V40H72.9z M73,51.7v-9.6h1.1v9.6H73z"/>
	<path class="st1" d="M83.7,45.1c-0.2-0.7-0.5-1.3-1-1.7c-0.5-0.4-1.1-0.6-1.8-0.6c-0.6,0-1.1,0.1-1.5,0.4c-0.4,0.2-0.7,0.5-1,0.9
		c-0.3,0.4-0.4,0.8-0.6,1.3c-0.1,0.5-0.2,1-0.2,1.5c0,0.5,0.1,1,0.2,1.5c0.1,0.5,0.3,0.9,0.6,1.3c0.3,0.4,0.6,0.7,1,0.9
		c0.4,0.2,0.9,0.3,1.5,0.3c0.8,0,1.5-0.2,2-0.7c0.5-0.5,0.8-1.1,1-1.9H85c-0.1,0.5-0.3,1-0.5,1.5c-0.2,0.4-0.5,0.8-0.8,1.1
		c-0.3,0.3-0.7,0.6-1.2,0.7c-0.5,0.2-1,0.3-1.6,0.3c-0.8,0-1.4-0.1-2-0.4c-0.6-0.3-1-0.6-1.4-1.1c-0.4-0.5-0.6-1-0.8-1.6
		c-0.2-0.6-0.3-1.3-0.3-2c0-0.7,0.1-1.3,0.3-1.9c0.2-0.6,0.5-1.1,0.8-1.6c0.4-0.5,0.8-0.8,1.4-1.1c0.5-0.3,1.2-0.4,1.9-0.4
		c1.1,0,2,0.3,2.7,0.8c0.7,0.5,1.1,1.4,1.3,2.5H83.7z"/>
	<path class="st1" d="M91.3,38.3h9.7v1.1h-4.2v12.2h-1.3V39.4h-4.2V38.3z"/>
	<path class="st1" d="M103.3,47.1c0,0.5,0.1,1,0.2,1.5c0.1,0.5,0.3,0.9,0.6,1.2c0.3,0.3,0.6,0.6,1,0.8c0.4,0.2,0.9,0.3,1.4,0.3
		c0.7,0,1.3-0.2,1.9-0.6c0.5-0.4,0.9-0.9,1-1.6h1.2c-0.1,0.5-0.3,0.9-0.5,1.3c-0.2,0.4-0.5,0.7-0.8,1c-0.3,0.3-0.7,0.5-1.2,0.7
		c-0.5,0.2-1,0.2-1.6,0.2c-0.8,0-1.4-0.1-2-0.4c-0.6-0.3-1-0.6-1.4-1.1c-0.4-0.5-0.6-1-0.8-1.6c-0.2-0.6-0.3-1.3-0.3-2
		s0.1-1.4,0.3-2c0.2-0.6,0.5-1.2,0.9-1.6c0.4-0.5,0.8-0.8,1.4-1.1c0.5-0.3,1.2-0.4,1.8-0.4c1.3,0,2.4,0.5,3.1,1.4
		c0.8,0.9,1.1,2.2,1.1,3.9H103.3z M109.5,46.2c0-0.5-0.1-0.9-0.2-1.3c-0.1-0.4-0.3-0.8-0.6-1.1c-0.3-0.3-0.6-0.5-1-0.7
		c-0.4-0.2-0.8-0.3-1.3-0.3c-0.5,0-0.9,0.1-1.3,0.3c-0.4,0.2-0.7,0.4-1,0.7c-0.3,0.3-0.5,0.7-0.6,1.1c-0.2,0.4-0.3,0.8-0.3,1.3
		H109.5z"/>
	<path class="st1" d="M114.1,51.7h-1.1v-9.6h1.1v1.8h0c0.3-0.8,0.7-1.3,1.2-1.6c0.5-0.3,1.1-0.5,1.9-0.5V43c-0.6,0-1.1,0.1-1.6,0.3
		c-0.4,0.2-0.7,0.5-1,0.9c-0.2,0.4-0.4,0.8-0.5,1.3c-0.1,0.5-0.1,1-0.1,1.5V51.7z"/>
	<path class="st1" d="M120.2,51.7h-1.1v-9.6h1.1v1.8h0c0.3-0.8,0.7-1.3,1.2-1.6c0.5-0.3,1.1-0.5,1.9-0.5V43c-0.6,0-1.1,0.1-1.6,0.3
		c-0.4,0.2-0.7,0.5-1,0.9c-0.2,0.4-0.4,0.8-0.5,1.3c-0.1,0.5-0.1,1-0.1,1.5V51.7z"/>
	<path class="st1" d="M129,51.9c-0.6,0-1.2-0.1-1.7-0.3c-0.5-0.2-1-0.5-1.4-0.9c-0.4-0.4-0.7-0.9-1-1.6c-0.2-0.6-0.4-1.4-0.4-2.2
		c0-0.7,0.1-1.4,0.3-2c0.2-0.6,0.5-1.1,0.8-1.6c0.4-0.5,0.8-0.8,1.4-1.1c0.6-0.3,1.2-0.4,1.9-0.4c0.8,0,1.4,0.1,2,0.4
		c0.6,0.3,1,0.6,1.4,1.1c0.4,0.5,0.6,1,0.8,1.6c0.2,0.6,0.3,1.3,0.3,2c0,0.8-0.1,1.5-0.3,2.1c-0.2,0.6-0.5,1.1-0.9,1.6
		c-0.4,0.4-0.9,0.8-1.4,1C130.3,51.8,129.7,51.9,129,51.9z M132.3,46.9c0-0.6-0.1-1.1-0.2-1.6c-0.1-0.5-0.3-0.9-0.6-1.3
		c-0.3-0.4-0.6-0.7-1-0.9c-0.4-0.2-0.9-0.3-1.5-0.3c-0.6,0-1.1,0.1-1.5,0.3c-0.4,0.2-0.7,0.5-1,0.9c-0.3,0.4-0.4,0.8-0.6,1.3
		c-0.1,0.5-0.2,1-0.2,1.5c0,0.6,0.1,1.1,0.2,1.6c0.1,0.5,0.3,0.9,0.6,1.3c0.3,0.4,0.6,0.6,1,0.8c0.4,0.2,0.9,0.3,1.4,0.3
		c0.6,0,1.1-0.1,1.5-0.3c0.4-0.2,0.7-0.5,1-0.9c0.3-0.4,0.4-0.8,0.6-1.3C132.2,47.9,132.3,47.4,132.3,46.9z"/>
	<path class="st1" d="M136.7,51.7h-1.1v-9.6h1.1v1.8h0c0.3-0.8,0.7-1.3,1.2-1.6c0.5-0.3,1.1-0.5,1.9-0.5V43c-0.6,0-1.1,0.1-1.6,0.3
		c-0.4,0.2-0.7,0.5-1,0.9c-0.2,0.4-0.4,0.8-0.5,1.3c-0.1,0.5-0.1,1-0.1,1.5V51.7z"/>
	<path class="st1" d="M141.8,40v-1.6h1.2V40H141.8z M141.8,51.7v-9.6h1.1v9.6H141.8z"/>
	<path class="st1" d="M146.4,48.7c0.2,0.8,0.5,1.4,0.9,1.7c0.4,0.3,1.1,0.5,1.9,0.5c0.4,0,0.8,0,1.1-0.1c0.3-0.1,0.5-0.2,0.7-0.4
		c0.2-0.2,0.3-0.4,0.4-0.6c0.1-0.2,0.1-0.4,0.1-0.7c0-0.5-0.2-0.8-0.5-1c-0.3-0.2-0.7-0.4-1.1-0.5c-0.5-0.1-0.9-0.2-1.5-0.3
		c-0.5-0.1-1-0.2-1.5-0.4c-0.5-0.2-0.8-0.4-1.1-0.8c-0.3-0.3-0.5-0.8-0.5-1.5c0-0.8,0.3-1.5,0.9-2c0.6-0.5,1.4-0.8,2.5-0.8
		c1,0,1.9,0.2,2.5,0.7c0.6,0.5,1,1.2,1.2,2.3h-1.1c-0.1-0.7-0.4-1.3-0.8-1.6c-0.5-0.3-1-0.5-1.7-0.5s-1.2,0.2-1.6,0.5
		c-0.4,0.3-0.6,0.7-0.6,1.2c0,0.4,0.2,0.8,0.5,1c0.3,0.2,0.7,0.4,1.1,0.6c0.5,0.1,0.9,0.3,1.5,0.4c0.5,0.1,1,0.3,1.5,0.5
		c0.5,0.2,0.8,0.5,1.1,0.8c0.3,0.3,0.5,0.8,0.5,1.4c0,0.5-0.1,0.9-0.3,1.2c-0.2,0.4-0.5,0.6-0.8,0.9c-0.3,0.2-0.8,0.4-1.2,0.5
		c-0.5,0.1-1,0.2-1.6,0.2s-1.1-0.1-1.5-0.2c-0.4-0.2-0.8-0.4-1.1-0.7c-0.3-0.3-0.5-0.6-0.7-1c-0.2-0.4-0.3-0.8-0.3-1.3H146.4z"/>
	<path class="st1" d="M156,51.7h-1.1v-9.6h1.1v1.4h0c0.3-0.6,0.7-1,1.2-1.3c0.5-0.3,1.1-0.4,1.7-0.4c0.4,0,0.8,0.1,1.1,0.1
		c0.3,0.1,0.6,0.2,0.8,0.4c0.2,0.2,0.4,0.4,0.5,0.6c0.1,0.2,0.3,0.5,0.4,0.7c0.3-0.6,0.7-1.1,1.3-1.4c0.5-0.3,1.1-0.5,1.8-0.5
		c0.7,0,1.2,0.1,1.6,0.3c0.4,0.2,0.7,0.5,0.9,0.9c0.2,0.4,0.3,0.8,0.4,1.2c0.1,0.5,0.1,0.9,0.1,1.4v6h-1.1V45c0-0.7-0.1-1.2-0.4-1.6
		c-0.3-0.4-0.8-0.6-1.6-0.6c-0.4,0-0.8,0.1-1.2,0.3c-0.4,0.2-0.7,0.5-1,0.8c-0.1,0.2-0.2,0.3-0.3,0.6c-0.1,0.2-0.1,0.4-0.2,0.7
		c-0.1,0.2-0.1,0.5-0.1,0.7c0,0.2,0,0.4,0,0.6v5.2h-1.1V45c0-0.7-0.1-1.2-0.4-1.6c-0.3-0.4-0.8-0.6-1.6-0.6c-0.4,0-0.8,0.1-1.2,0.3
		c-0.4,0.2-0.7,0.5-1,0.8c-0.1,0.2-0.2,0.3-0.3,0.6c-0.1,0.2-0.1,0.4-0.2,0.7c0,0.2-0.1,0.5-0.1,0.7c0,0.2,0,0.4,0,0.6V51.7z"/>
</g>
<g>
	<path class="st1" d="M136.4,21.9c0,0.7,0.2,1.1,0.5,1.4c0.3,0.3,0.8,0.4,1.4,0.4c0.3,0,0.6,0,0.9-0.1c0.2-0.1,0.5-0.2,0.6-0.3
		c0.2-0.1,0.3-0.3,0.4-0.4c0.1-0.2,0.2-0.3,0.2-0.5c0.1-0.4,0-0.6-0.2-0.8c-0.2-0.2-0.5-0.3-0.8-0.4c-0.3-0.1-0.7-0.2-1.1-0.3
		c-0.4-0.1-0.8-0.2-1.1-0.3c-0.3-0.1-0.6-0.4-0.8-0.6c-0.2-0.3-0.2-0.7-0.1-1.2c0.1-0.6,0.5-1.2,1-1.6c0.5-0.4,1.2-0.6,2.1-0.6
		c0.8,0,1.4,0.2,1.9,0.5c0.4,0.4,0.6,1,0.5,1.8H141c0-0.6-0.1-1-0.4-1.2c-0.3-0.2-0.7-0.4-1.3-0.4c-0.6,0-1,0.1-1.4,0.4
		c-0.3,0.2-0.6,0.6-0.6,0.9c-0.1,0.3,0,0.5,0.1,0.6c0.1,0.2,0.3,0.3,0.5,0.4c0.2,0.1,0.4,0.2,0.7,0.3c0.3,0.1,0.6,0.1,0.8,0.2
		c0.3,0.1,0.6,0.2,0.8,0.3c0.3,0.1,0.5,0.2,0.7,0.4c0.2,0.2,0.3,0.4,0.4,0.6c0.1,0.2,0.1,0.5,0,0.9c-0.1,0.4-0.2,0.7-0.4,1
		c-0.2,0.3-0.5,0.5-0.8,0.7c-0.3,0.2-0.7,0.3-1.1,0.4c-0.4,0.1-0.8,0.1-1.3,0.1c-0.4,0-0.8-0.1-1.1-0.2c-0.3-0.1-0.6-0.3-0.8-0.5
		c-0.2-0.2-0.3-0.5-0.4-0.8c-0.1-0.3-0.1-0.6,0-1H136.4z"/>
	<path class="st1" d="M145.4,24.3c-0.1,0-0.3,0.1-0.4,0.1c-0.2,0-0.4,0.1-0.6,0.1c-0.4,0-0.7-0.1-0.9-0.3c-0.2-0.2-0.2-0.6-0.1-1.2
		l1.2-5.5h-1.1l0.2-0.7h1.1l0.5-2.1h0.9l-0.5,2.1h1.4l-0.2,0.7h-1.4l-1.1,5.2c0,0.2-0.1,0.3-0.1,0.5c0,0.1,0,0.2,0,0.3
		c0,0.1,0.1,0.2,0.2,0.2c0.1,0,0.2,0.1,0.4,0.1c0.1,0,0.2,0,0.4,0c0.1,0,0.2,0,0.4-0.1L145.4,24.3z"/>
	<path class="st1" d="M153.5,16.7h0.9l-1.6,7.6h-0.9l0.2-1.1c-0.1,0.1-0.3,0.3-0.5,0.4c-0.2,0.1-0.4,0.3-0.6,0.4
		c-0.2,0.1-0.5,0.2-0.7,0.3c-0.3,0.1-0.6,0.1-0.9,0.1c-0.5,0-0.9-0.1-1.2-0.2c-0.3-0.1-0.5-0.3-0.7-0.6c-0.2-0.3-0.2-0.5-0.3-0.9
		c0-0.3,0-0.7,0.1-1.1l1.1-5h0.9l-1.1,5c-0.1,0.7-0.1,1.2,0.1,1.5c0.2,0.3,0.7,0.5,1.4,0.5c0.4,0,0.7-0.1,1-0.2
		c0.3-0.1,0.6-0.3,0.8-0.6c0.2-0.3,0.5-0.6,0.6-0.9c0.2-0.4,0.3-0.7,0.4-1.2L153.5,16.7z"/>
	<path class="st1" d="M163,13.7h0.9l-2.2,10.5h-0.9l0.3-1.3h0c-0.2,0.3-0.4,0.5-0.6,0.7c-0.2,0.2-0.5,0.3-0.8,0.5
		c-0.3,0.1-0.5,0.2-0.8,0.3c-0.3,0.1-0.5,0.1-0.8,0.1c-0.6,0-1.1-0.1-1.5-0.3c-0.4-0.2-0.7-0.5-0.9-0.8c-0.2-0.4-0.3-0.8-0.3-1.3
		c0-0.5,0-1,0.1-1.6c0.1-0.5,0.3-1,0.5-1.5c0.2-0.5,0.5-0.9,0.9-1.3c0.4-0.4,0.8-0.7,1.2-0.9c0.5-0.2,1-0.3,1.6-0.3
		c0.5,0,1,0.1,1.5,0.4c0.4,0.2,0.8,0.6,0.9,1.1L163,13.7z M161.6,20.4c0.1-0.4,0.1-0.8,0.1-1.2c0-0.4-0.1-0.7-0.3-1
		c-0.2-0.3-0.4-0.5-0.7-0.7c-0.3-0.2-0.6-0.3-1-0.3c-0.5,0-0.9,0.1-1.2,0.3c-0.4,0.2-0.7,0.4-1,0.7c-0.3,0.3-0.5,0.7-0.7,1.1
		c-0.2,0.4-0.3,0.9-0.4,1.3c-0.1,0.5-0.1,0.9-0.1,1.3c0.1,0.4,0.2,0.7,0.3,0.9c0.2,0.3,0.4,0.4,0.7,0.6c0.3,0.1,0.6,0.2,1,0.2
		c0.4,0,0.8-0.1,1.1-0.2c0.4-0.2,0.7-0.4,1-0.7c0.3-0.3,0.5-0.6,0.7-1C161.3,21.3,161.5,20.9,161.6,20.4z"/>
	<path class="st1" d="M164,24.3l1.6-7.6h0.9l-1.6,7.6H164z M165.9,15l0.3-1.3h1l-0.3,1.3H165.9z"/>
	<path class="st1" d="M170.1,24.5c-0.5,0-0.9-0.1-1.3-0.3c-0.4-0.2-0.7-0.4-1-0.7c-0.2-0.3-0.4-0.7-0.5-1.2c-0.1-0.5,0-1.1,0.1-1.7
		c0.1-0.6,0.3-1.1,0.5-1.6c0.2-0.5,0.6-0.9,0.9-1.3c0.4-0.4,0.8-0.6,1.3-0.9c0.5-0.2,1-0.3,1.6-0.3c0.6,0,1.1,0.1,1.5,0.3
		c0.4,0.2,0.7,0.5,0.9,0.8c0.2,0.4,0.3,0.8,0.4,1.3c0,0.5,0,1-0.1,1.6c-0.1,0.6-0.3,1.2-0.6,1.6c-0.3,0.5-0.6,0.9-1,1.3
		c-0.4,0.4-0.8,0.6-1.3,0.8C171.1,24.4,170.6,24.5,170.1,24.5z M173.5,20.5c0.1-0.4,0.1-0.9,0.1-1.3c0-0.4-0.1-0.7-0.2-1
		c-0.1-0.3-0.4-0.5-0.6-0.7c-0.3-0.2-0.7-0.2-1.1-0.2c-0.5,0-0.9,0.1-1.2,0.3c-0.4,0.2-0.7,0.4-1,0.7c-0.3,0.3-0.5,0.6-0.7,1
		c-0.2,0.4-0.3,0.8-0.4,1.2c-0.1,0.5-0.1,0.9-0.1,1.3s0.1,0.7,0.3,1c0.2,0.3,0.4,0.5,0.7,0.7c0.3,0.2,0.6,0.2,1.1,0.2
		c0.5,0,0.9-0.1,1.2-0.3c0.4-0.2,0.7-0.4,1-0.7c0.3-0.3,0.5-0.6,0.7-1C173.3,21.3,173.4,20.9,173.5,20.5z"/>
</g>
<g>
	<path class="st1" d="M16.8,12.1v3.3H30v3H16.8v3.3H30v3.3H12.6V8.8H30v3.3H16.8z"/>
	<path class="st1" d="M50.9,17.5l0,7.6h-4v-6.1c0-2.9-1-4.4-4.3-4.4c-2.7,0-5.6,1.4-6.8,2.8v7.7h-4V11.4h4v2.4c2-1.5,4.7-2.6,8-2.6
		C47.5,11.1,50.9,12.4,50.9,17.5z"/>
	<path class="st1" d="M56.8,6.4v3.5h-4V6.4H56.8z M56.8,11.4v13.8h-4V11.4H56.8z"/>
	<path class="st1" d="M73.1,20.2h4c-0.9,3.5-4.3,5.2-9.4,5.2c-5.2,0-9.3-2.1-9.3-7.1c0-5.1,4-7.1,9.6-7.1c5.2,0,9.4,1.8,9.4,8.1
		H62.4c0.4,2.2,2.6,2.9,5.2,2.9C70.4,22.1,72.1,21.6,73.1,20.2z M62.6,16.7H73c-0.7-1.9-2.6-2.5-5.2-2.5
		C65.1,14.2,63.2,14.7,62.6,16.7z"/>
	<path class="st1" d="M108.7,17.4l0,7.7h-4v-6.1c0-2.9-0.5-4.4-3.4-4.4c-2.1,0-4.2,1-5.4,2.1c0,0.2,0,0.5,0,0.7l0,7.7h-4v-6.1
		c0-2.9-0.5-4.4-3.3-4.4c-2.3,0-4.6,1.2-5.7,2.4v8.1h-4V11.4h4v2.2c1.5-1.2,3.7-2.5,7.2-2.5c2.1,0,4.1,0.6,5.1,2.5
		c1.8-1.3,4.2-2.5,7.7-2.5C105.9,11.1,108.7,12.4,108.7,17.4z"/>
	<path class="st1" d="M124.9,20.2h4c-0.9,3.5-4.3,5.2-9.4,5.2c-5.2,0-9.3-2.1-9.3-7.1c0-5.1,4-7.1,9.6-7.1c5.2,0,9.4,1.8,9.4,8.1
		h-14.9c0.4,2.2,2.6,2.9,5.2,2.9C122.2,22.1,123.9,21.6,124.9,20.2z M114.4,16.7h10.5c-0.7-1.9-2.6-2.5-5.2-2.5
		C116.9,14.2,115,14.7,114.4,16.7z"/>
</g>
</svg>
