<?xml version="1.0" encoding="utf-8"?>
<!-- Generator: Adobe Illustrator 24.0.1, SVG Export Plug-In . SVG Version: 6.00 Build 0)  -->
<svg version="1.1" id="Calque_1" xmlns="http://www.w3.org/2000/svg" xmlns:xlink="http://www.w3.org/1999/xlink" x="0px" y="0px"
	 viewBox="0 0 511 123.2" style="enable-background:new 0 0 511 123.2;" xml:space="preserve">
<style type="text/css">
	.st0{fill:#2B2B2B;}
	.st1{fill-rule:evenodd;clip-rule:evenodd;fill:#2B2B2B;}
</style>
<title>zipperlogo</title>
<g>
	<g>
		<path class="st0" d="M20.1,105.9h7.2v2H16.7v-1.2c0-3.9,8.3-3.1,8.3-5.2c0-0.8-0.5-1.1-2.6-1.1s-3.1,0.3-3.1,1.8h-2.4
			c0-3.2,2.2-3.9,5.4-3.9c3.3,0,5.2,0.6,5.2,3C27.4,105,20.7,104,20.1,105.9z"/>
		<path class="st0" d="M28.1,103.2c0-3.1,1.8-4.9,5.6-4.9c3.8,0,5.6,1.7,5.6,4.9c0,3.1-1.8,4.9-5.6,4.9
			C29.9,108.1,28.1,106.4,28.1,103.2z M36.7,103.2c0-1.8-1-2.8-3.1-2.8c-2.1,0-3.1,1-3.1,2.8c0,1.8,1,2.8,3.1,2.8
			C35.8,106.1,36.7,105,36.7,103.2z"/>
		<path class="st0" d="M43.2,105.9h7.2v2H39.8v-1.2c0-3.9,8.3-3.1,8.3-5.2c0-0.8-0.5-1.1-2.6-1.1c-2.1,0-3.1,0.3-3.1,1.8H40
			c0-3.2,2.2-3.9,5.4-3.9c3.3,0,5.2,0.6,5.2,3C50.5,105,43.8,104,43.2,105.9z"/>
		<path class="st0" d="M60.5,105.9v2h-8.9v-2h3.3l0-4.5c-1,0.9-2.3,0.9-3.3,0.9v-2.1c1.4,0,3.3,0,3.3-1.8h2.4v7.4H60.5z"/>
		<path class="st0" d="M63.6,100.1l-1.9-1l0.9-1.5l1.8,1.2l-0.1-1.7l1.7,0l-0.1,1.7l1.8-1.2l0.9,1.5l-1.9,1l1.9,0.9l-0.9,1.5
			l-1.8-1.2l0.1,1.7h-1.7l0.1-1.7l-1.8,1.2l-0.9-1.5L63.6,100.1z"/>
		<path class="st0" d="M84.2,101c0-0.8-0.2-1.4-0.7-1.8c-0.4-0.4-1.1-0.5-1.9-0.5c-0.6,0-1.1,0.1-1.6,0.4c-0.5,0.2-0.9,0.6-1.3,0.9
			c-0.4,0.4-0.7,0.9-0.9,1.4c-0.2,0.5-0.4,1.1-0.5,1.6c-0.1,0.5-0.2,1.1-0.2,1.6c0,0.5,0.1,1,0.3,1.4c0.2,0.4,0.5,0.7,0.8,1
			c0.4,0.3,0.9,0.4,1.6,0.4c0.4,0,0.8-0.1,1.2-0.2c0.4-0.1,0.7-0.3,1-0.6c0.3-0.2,0.6-0.5,0.8-0.8c0.2-0.3,0.5-0.7,0.6-1.1h1
			c-0.2,0.5-0.5,0.9-0.8,1.3c-0.3,0.4-0.6,0.8-1,1.1c-0.4,0.3-0.9,0.6-1.4,0.8c-0.5,0.2-1.1,0.3-1.8,0.3c-0.7,0-1.4-0.1-1.8-0.4
			c-0.5-0.3-0.8-0.6-1.1-1.1c-0.2-0.5-0.4-1-0.4-1.6c0-0.6,0-1.3,0.2-2c0.2-0.9,0.5-1.7,0.8-2.4c0.4-0.7,0.8-1.2,1.3-1.6
			c0.5-0.4,1-0.7,1.6-0.9C80.8,98,81.4,98,82,98c1,0,1.8,0.3,2.4,0.8s0.8,1.3,0.8,2.3H84.2z"/>
		<path class="st0" d="M86.3,108h-0.8l1.5-7h0.8l-0.3,1.3h0c0.3-0.6,0.7-1,1.1-1.2c0.4-0.2,0.9-0.3,1.5-0.3l-0.2,0.9
			c-0.5,0-0.8,0.1-1.2,0.2c-0.3,0.2-0.6,0.4-0.8,0.6c-0.2,0.3-0.4,0.6-0.6,0.9c-0.1,0.4-0.3,0.7-0.3,1.1L86.3,108z"/>
		<path class="st0" d="M91.2,104.6c-0.1,0.4-0.1,0.7-0.1,1.1c0,0.3,0.1,0.6,0.3,0.9c0.1,0.2,0.3,0.4,0.6,0.6c0.3,0.1,0.6,0.2,1,0.2
			c0.5,0,1-0.1,1.5-0.4c0.4-0.3,0.8-0.7,1-1.2h0.9c-0.2,0.3-0.4,0.6-0.6,0.9c-0.2,0.3-0.5,0.5-0.8,0.7c-0.3,0.2-0.6,0.4-1,0.5
			c-0.4,0.1-0.8,0.2-1.2,0.2c-0.6,0-1-0.1-1.4-0.3c-0.4-0.2-0.6-0.4-0.8-0.8c-0.2-0.3-0.3-0.7-0.3-1.2c0-0.4,0-0.9,0.1-1.4
			c0.1-0.5,0.3-1,0.5-1.4c0.2-0.5,0.5-0.8,0.9-1.2c0.3-0.3,0.7-0.6,1.2-0.8c0.4-0.2,0.9-0.3,1.4-0.3c1,0,1.7,0.3,2.1,1
			c0.4,0.7,0.5,1.6,0.2,2.9H91.2z M95.9,104c0.1-0.3,0.1-0.7,0.1-1c0-0.3-0.1-0.6-0.3-0.8c-0.1-0.2-0.3-0.4-0.6-0.5
			c-0.3-0.1-0.6-0.2-0.9-0.2c-0.4,0-0.7,0.1-1,0.2c-0.3,0.1-0.6,0.3-0.8,0.5s-0.5,0.5-0.6,0.8c-0.2,0.3-0.3,0.6-0.4,0.9H95.9z"/>
		<path class="st0" d="M101.6,103.9c0.2,0,0.3,0,0.6-0.1c0.2,0,0.4-0.1,0.6-0.1c0.2-0.1,0.3-0.2,0.3-0.3c0.1-0.1,0.1-0.3,0.1-0.4
			c0-0.2,0.1-0.4,0-0.6c0-0.2-0.1-0.3-0.2-0.4c-0.1-0.1-0.3-0.2-0.5-0.3c-0.2-0.1-0.5-0.1-0.8-0.1c-0.6,0-1,0.1-1.5,0.3
			c-0.4,0.2-0.7,0.6-0.9,1.2h-0.8c0.1-0.4,0.3-0.8,0.5-1.1c0.2-0.3,0.5-0.5,0.8-0.7c0.3-0.2,0.6-0.3,1-0.4c0.4-0.1,0.7-0.1,1.1-0.1
			c0.4,0,0.7,0,1,0.1c0.3,0.1,0.5,0.2,0.7,0.4c0.2,0.2,0.3,0.4,0.4,0.7c0.1,0.3,0.1,0.6,0,1l-0.8,3.8c-0.1,0.3-0.1,0.5,0,0.6
			s0.3,0.1,0.7-0.1l-0.1,0.6c-0.1,0-0.2,0-0.3,0.1c-0.1,0-0.3,0.1-0.4,0.1c-0.1,0-0.2,0-0.4,0c-0.3,0-0.4-0.2-0.4-0.4
			c0-0.2,0-0.4,0-0.7c-0.4,0.4-0.9,0.7-1.4,0.9c-0.5,0.2-1,0.3-1.5,0.3c-0.3,0-0.6,0-0.9-0.1c-0.3-0.1-0.5-0.2-0.7-0.4
			c-0.2-0.2-0.3-0.4-0.4-0.6c-0.1-0.2-0.1-0.5,0-0.9c0.2-1.2,1.2-1.9,2.9-2.1L101.6,103.9z M102.9,104.3c-0.4,0.1-0.7,0.2-1.1,0.3
			c-0.4,0-0.7,0.1-1.1,0.1c-0.6,0-1.1,0.2-1.6,0.4c-0.4,0.2-0.7,0.6-0.8,1.1c0,0.2,0,0.4,0,0.6c0.1,0.2,0.1,0.3,0.3,0.4
			c0.1,0.1,0.3,0.2,0.4,0.2c0.2,0,0.4,0.1,0.5,0.1c0.3,0,0.6,0,1-0.1c0.3-0.1,0.6-0.2,0.9-0.4c0.3-0.2,0.5-0.4,0.7-0.6
			c0.2-0.3,0.3-0.6,0.4-0.9L102.9,104.3z"/>
		<path class="st0" d="M107.5,108c-0.1,0-0.2,0-0.4,0.1c-0.2,0-0.4,0.1-0.6,0.1c-0.4,0-0.7-0.1-0.9-0.3c-0.2-0.2-0.2-0.6-0.1-1.1
			l1.1-5.1h-1l0.1-0.7h1l0.4-2h0.8l-0.4,2h1.3l-0.1,0.7h-1.3l-1,4.8c0,0.2-0.1,0.3-0.1,0.4c0,0.1,0,0.2,0,0.3c0,0.1,0.1,0.1,0.2,0.2
			c0.1,0,0.2,0.1,0.4,0.1c0.1,0,0.2,0,0.3,0s0.2,0,0.3-0.1L107.5,108z"/>
		<path class="st0" d="M111.6,108.2c-0.5,0-0.9-0.1-1.2-0.2c-0.4-0.2-0.7-0.4-0.9-0.7c-0.2-0.3-0.4-0.7-0.5-1.2
			c-0.1-0.5,0-1,0.1-1.6c0.1-0.5,0.3-1,0.5-1.4c0.2-0.4,0.5-0.8,0.9-1.2c0.3-0.3,0.7-0.6,1.2-0.8c0.4-0.2,0.9-0.3,1.5-0.3
			c0.6,0,1,0.1,1.4,0.3c0.4,0.2,0.6,0.5,0.8,0.8c0.2,0.3,0.3,0.7,0.4,1.2c0,0.5,0,0.9-0.1,1.4c-0.1,0.6-0.3,1.1-0.6,1.5
			c-0.3,0.5-0.6,0.8-0.9,1.2c-0.4,0.3-0.7,0.6-1.2,0.8C112.5,108.1,112.1,108.2,111.6,108.2z M114.7,104.5c0.1-0.4,0.1-0.8,0.1-1.2
			c0-0.4-0.1-0.7-0.2-0.9c-0.1-0.3-0.3-0.5-0.6-0.6c-0.3-0.2-0.6-0.2-1-0.2c-0.4,0-0.8,0.1-1.1,0.3c-0.3,0.2-0.6,0.4-0.9,0.7
			c-0.3,0.3-0.5,0.6-0.6,0.9c-0.2,0.4-0.3,0.7-0.4,1.1c-0.1,0.4-0.1,0.8-0.1,1.2c0,0.4,0.1,0.7,0.3,0.9c0.1,0.3,0.3,0.5,0.6,0.6
			c0.3,0.1,0.6,0.2,1,0.2c0.4,0,0.8-0.1,1.1-0.3s0.6-0.4,0.9-0.7c0.2-0.3,0.5-0.6,0.6-0.9C114.5,105.2,114.7,104.8,114.7,104.5z"/>
		<path class="st0" d="M117.2,108h-0.8l1.5-7h0.8l-0.3,1.3h0c0.3-0.6,0.7-1,1.1-1.2c0.4-0.2,0.9-0.3,1.5-0.3l-0.2,0.9
			c-0.5,0-0.8,0.1-1.2,0.2c-0.3,0.2-0.6,0.4-0.8,0.6c-0.2,0.3-0.4,0.6-0.6,0.9c-0.1,0.4-0.3,0.7-0.3,1.1L117.2,108z"/>
		<path class="st0" d="M124.7,108l2.1-9.8h3.6c0.6,0,1.1,0.1,1.5,0.2c0.4,0.1,0.7,0.3,0.8,0.6c0.2,0.3,0.3,0.5,0.3,0.9
			c0,0.3,0,0.7-0.1,1c-0.1,0.5-0.3,1-0.6,1.3c-0.3,0.4-0.6,0.6-1,0.8c-0.4,0.2-0.8,0.3-1.3,0.4c-0.5,0.1-0.9,0.1-1.4,0.1h-2.1
			l-0.9,4.3H124.7z M128.8,102.9c0.4,0,0.8,0,1.2-0.1c0.4-0.1,0.7-0.2,0.9-0.3c0.3-0.1,0.5-0.4,0.7-0.6c0.2-0.3,0.3-0.6,0.4-1
			c0.1-0.6,0-1.1-0.3-1.4c-0.3-0.3-0.9-0.5-1.8-0.5h-2.4l-0.8,3.9H128.8z"/>
		<path class="st0" d="M133,108l2.1-9.8h0.8l-2.1,9.8H133z"/>
		<path class="st0" d="M140,103.9c0.2,0,0.3,0,0.6-0.1c0.2,0,0.4-0.1,0.6-0.1c0.2-0.1,0.3-0.2,0.3-0.3c0.1-0.1,0.1-0.3,0.1-0.4
			c0-0.2,0.1-0.4,0-0.6s-0.1-0.3-0.2-0.4c-0.1-0.1-0.3-0.2-0.5-0.3c-0.2-0.1-0.5-0.1-0.8-0.1c-0.6,0-1,0.1-1.5,0.3
			c-0.4,0.2-0.7,0.6-0.9,1.2h-0.8c0.1-0.4,0.3-0.8,0.5-1.1c0.2-0.3,0.5-0.5,0.8-0.7c0.3-0.2,0.6-0.3,1-0.4c0.4-0.1,0.7-0.1,1.1-0.1
			c0.4,0,0.7,0,1,0.1c0.3,0.1,0.5,0.2,0.7,0.4c0.2,0.2,0.3,0.4,0.4,0.7c0.1,0.3,0.1,0.6,0,1l-0.8,3.8c-0.1,0.3-0.1,0.5,0,0.6
			c0.1,0.1,0.3,0.1,0.7-0.1l-0.1,0.6c-0.1,0-0.2,0-0.3,0.1c-0.1,0-0.3,0.1-0.4,0.1c-0.1,0-0.2,0-0.4,0c-0.3,0-0.4-0.2-0.4-0.4
			c0-0.2,0-0.4,0-0.7c-0.4,0.4-0.9,0.7-1.4,0.9c-0.5,0.2-1,0.3-1.5,0.3c-0.3,0-0.6,0-0.9-0.1c-0.3-0.1-0.5-0.2-0.7-0.4
			c-0.2-0.2-0.3-0.4-0.4-0.6c-0.1-0.2-0.1-0.5,0-0.9c0.2-1.2,1.2-1.9,2.9-2.1L140,103.9z M141.3,104.3c-0.4,0.1-0.7,0.2-1.1,0.3
			c-0.4,0-0.7,0.1-1.1,0.1c-0.6,0-1.1,0.2-1.6,0.4c-0.4,0.2-0.7,0.6-0.8,1.1c0,0.2,0,0.4,0,0.6c0.1,0.2,0.1,0.3,0.3,0.4
			c0.1,0.1,0.3,0.2,0.4,0.2c0.2,0,0.4,0.1,0.5,0.1c0.3,0,0.6,0,1-0.1s0.6-0.2,0.9-0.4c0.3-0.2,0.5-0.4,0.7-0.6
			c0.2-0.3,0.3-0.6,0.4-0.9L141.3,104.3z"/>
		<path class="st0" d="M145.9,108c-0.1,0-0.2,0-0.4,0.1c-0.2,0-0.4,0.1-0.6,0.1c-0.4,0-0.7-0.1-0.9-0.3c-0.2-0.2-0.2-0.6-0.1-1.1
			l1.1-5.1h-1l0.1-0.7h1l0.4-2h0.8l-0.4,2h1.3l-0.1,0.7h-1.3l-1,4.8c0,0.2-0.1,0.3-0.1,0.4c0,0.1,0,0.2,0,0.3c0,0.1,0.1,0.1,0.2,0.2
			c0.1,0,0.2,0.1,0.4,0.1c0.1,0,0.2,0,0.3,0c0.1,0,0.2,0,0.3-0.1L145.9,108z"/>
		<path class="st0" d="M147.8,101.6l0.1-0.7h1l0.2-1.1c0.1-0.6,0.3-1,0.6-1.3c0.3-0.3,0.7-0.5,1.3-0.5c0.3,0,0.5,0,0.7,0.1l-0.2,0.7
			c-0.2,0-0.3-0.1-0.5-0.1c-0.2,0-0.4,0-0.5,0.1c-0.1,0.1-0.2,0.2-0.3,0.3c-0.1,0.1-0.1,0.3-0.2,0.4c0,0.2-0.1,0.3-0.1,0.5l-0.2,0.9
			h1.4l-0.1,0.7h-1.4l-1.3,6.3h-0.8l1.3-6.3H147.8z"/>
		<path class="st0" d="M153.7,108.2c-0.5,0-0.9-0.1-1.2-0.2c-0.4-0.2-0.7-0.4-0.9-0.7c-0.2-0.3-0.4-0.7-0.5-1.2
			c-0.1-0.5,0-1,0.1-1.6c0.1-0.5,0.3-1,0.5-1.4c0.2-0.4,0.5-0.8,0.9-1.2c0.3-0.3,0.7-0.6,1.2-0.8c0.4-0.2,0.9-0.3,1.5-0.3
			c0.6,0,1,0.1,1.4,0.3c0.4,0.2,0.6,0.5,0.8,0.8c0.2,0.3,0.3,0.7,0.4,1.2c0,0.5,0,0.9-0.1,1.4c-0.1,0.6-0.3,1.1-0.6,1.5
			c-0.3,0.5-0.6,0.8-0.9,1.2c-0.4,0.3-0.7,0.6-1.2,0.8C154.7,108.1,154.2,108.2,153.7,108.2z M156.9,104.5c0.1-0.4,0.1-0.8,0.1-1.2
			c0-0.4-0.1-0.7-0.2-0.9c-0.1-0.3-0.3-0.5-0.6-0.6c-0.3-0.2-0.6-0.2-1-0.2c-0.4,0-0.8,0.1-1.1,0.3c-0.3,0.2-0.6,0.4-0.9,0.7
			c-0.3,0.3-0.5,0.6-0.6,0.9c-0.2,0.4-0.3,0.7-0.4,1.1c-0.1,0.4-0.1,0.8-0.1,1.2c0,0.4,0.1,0.7,0.3,0.9c0.1,0.3,0.3,0.5,0.6,0.6
			c0.3,0.1,0.6,0.2,1,0.2c0.4,0,0.8-0.1,1.1-0.3c0.3-0.2,0.6-0.4,0.9-0.7c0.2-0.3,0.5-0.6,0.6-0.9
			C156.7,105.2,156.8,104.8,156.9,104.5z"/>
		<path class="st0" d="M159.3,108h-0.8l1.5-7h0.8l-0.3,1.3h0c0.3-0.6,0.7-1,1.1-1.2c0.4-0.2,0.9-0.3,1.5-0.3l-0.2,0.9
			c-0.5,0-0.8,0.1-1.2,0.2c-0.3,0.2-0.6,0.4-0.8,0.6c-0.2,0.3-0.4,0.6-0.6,0.9c-0.1,0.4-0.3,0.7-0.3,1.1L159.3,108z"/>
		<path class="st0" d="M163.7,108h-0.8l1.5-7h0.8L165,102h0c0.3-0.4,0.7-0.7,1.1-0.9c0.4-0.2,0.9-0.3,1.3-0.3c0.3,0,0.6,0,0.8,0.1
			c0.2,0.1,0.4,0.2,0.5,0.3c0.1,0.1,0.2,0.3,0.3,0.4c0.1,0.2,0.1,0.3,0.2,0.5c0.3-0.5,0.7-0.8,1.2-1c0.4-0.2,0.9-0.3,1.4-0.3
			c0.5,0,0.8,0.1,1.1,0.2c0.3,0.2,0.4,0.4,0.5,0.6c0.1,0.3,0.1,0.6,0.1,0.9c0,0.3-0.1,0.7-0.1,1l-0.9,4.4h-0.8l1-4.8
			c0.1-0.3,0.1-0.5,0.1-0.7c0-0.2,0-0.4-0.1-0.5c-0.1-0.1-0.2-0.2-0.4-0.3c-0.2-0.1-0.4-0.1-0.7-0.1c-0.3,0-0.6,0.1-0.9,0.2
			c-0.3,0.1-0.6,0.3-0.9,0.6c-0.1,0.1-0.2,0.3-0.3,0.4c-0.1,0.2-0.2,0.3-0.3,0.5c-0.1,0.2-0.1,0.3-0.2,0.5c-0.1,0.2-0.1,0.3-0.1,0.5
			l-0.8,3.8h-0.8l1-4.8c0.1-0.3,0.1-0.5,0.1-0.7c0-0.2,0-0.4-0.1-0.5c-0.1-0.1-0.2-0.2-0.4-0.3c-0.2-0.1-0.4-0.1-0.7-0.1
			c-0.3,0-0.6,0.1-0.9,0.2c-0.3,0.1-0.6,0.3-0.9,0.6c-0.1,0.1-0.2,0.3-0.3,0.4c-0.1,0.2-0.2,0.3-0.3,0.5s-0.1,0.3-0.2,0.5
			c-0.1,0.2-0.1,0.3-0.1,0.5L163.7,108z"/>
		<path class="st0" d="M179.4,98.2h1l1.1,8.7l4.8-8.7h1l-5.5,9.8h-1L179.4,98.2z"/>
		<path class="st0" d="M186.4,108l1.5-7h0.8l-1.5,7H186.4z M188.2,99.4l0.3-1.2h0.9l-0.3,1.2H188.2z"/>
		<path class="st0" d="M190.5,104.6c-0.1,0.4-0.1,0.7-0.1,1.1c0,0.3,0.1,0.6,0.3,0.9c0.1,0.2,0.3,0.4,0.6,0.6c0.3,0.1,0.6,0.2,1,0.2
			c0.5,0,1-0.1,1.5-0.4c0.4-0.3,0.8-0.7,1-1.2h0.9c-0.2,0.3-0.4,0.6-0.6,0.9c-0.2,0.3-0.5,0.5-0.8,0.7c-0.3,0.2-0.6,0.4-1,0.5
			c-0.4,0.1-0.8,0.2-1.2,0.2c-0.6,0-1-0.1-1.4-0.3c-0.4-0.2-0.6-0.4-0.8-0.8c-0.2-0.3-0.3-0.7-0.3-1.2c0-0.4,0-0.9,0.1-1.4
			c0.1-0.5,0.3-1,0.5-1.4c0.2-0.5,0.5-0.8,0.9-1.2c0.3-0.3,0.7-0.6,1.2-0.8c0.4-0.2,0.9-0.3,1.4-0.3c1,0,1.7,0.3,2.1,1
			c0.4,0.7,0.5,1.6,0.2,2.9H190.5z M195.3,104c0.1-0.3,0.1-0.7,0.1-1c0-0.3-0.1-0.6-0.3-0.8c-0.1-0.2-0.3-0.4-0.6-0.5
			c-0.3-0.1-0.6-0.2-0.9-0.2c-0.4,0-0.7,0.1-1,0.2c-0.3,0.1-0.6,0.3-0.8,0.5s-0.5,0.5-0.6,0.8c-0.2,0.3-0.3,0.6-0.4,0.9H195.3z"/>
		<path class="st0" d="M203,106.9l3.1-5.9h0.8l-3.8,7h-0.9l-0.3-5.9h0l-2.8,5.9h-1l-0.7-7h0.8l0.5,6l2.9-6h0.9L203,106.9z"/>
		<path class="st0" d="M207.8,104.6c-0.1,0.4-0.1,0.7-0.1,1.1c0,0.3,0.1,0.6,0.3,0.9c0.1,0.2,0.3,0.4,0.6,0.6c0.3,0.1,0.6,0.2,1,0.2
			c0.5,0,1-0.1,1.5-0.4c0.4-0.3,0.8-0.7,1-1.2h0.9c-0.2,0.3-0.4,0.6-0.6,0.9c-0.2,0.3-0.5,0.5-0.8,0.7c-0.3,0.2-0.6,0.4-1,0.5
			c-0.4,0.1-0.8,0.2-1.2,0.2c-0.6,0-1-0.1-1.4-0.3c-0.4-0.2-0.6-0.4-0.8-0.8c-0.2-0.3-0.3-0.7-0.3-1.2c0-0.4,0-0.9,0.1-1.4
			c0.1-0.5,0.3-1,0.5-1.4c0.2-0.5,0.5-0.8,0.9-1.2c0.3-0.3,0.7-0.6,1.2-0.8c0.4-0.2,0.9-0.3,1.4-0.3c1,0,1.7,0.3,2.1,1
			c0.4,0.7,0.5,1.6,0.2,2.9H207.8z M212.6,104c0.1-0.3,0.1-0.7,0.1-1c0-0.3-0.1-0.6-0.3-0.8c-0.1-0.2-0.3-0.4-0.6-0.5
			c-0.3-0.1-0.6-0.2-0.9-0.2c-0.4,0-0.7,0.1-1,0.2c-0.3,0.1-0.6,0.3-0.8,0.5s-0.5,0.5-0.6,0.8c-0.2,0.3-0.3,0.6-0.4,0.9H212.6z"/>
		<path class="st0" d="M215,108h-0.8l1.5-7h0.8l-0.3,1.3h0c0.3-0.6,0.7-1,1.1-1.2c0.4-0.2,0.9-0.3,1.5-0.3l-0.2,0.9
			c-0.5,0-0.8,0.1-1.2,0.2c-0.3,0.2-0.6,0.4-0.8,0.6c-0.2,0.3-0.4,0.6-0.6,0.9c-0.1,0.4-0.3,0.7-0.3,1.1L215,108z"/>
		<path class="st0" d="M244.1,98.5l-3.7,9.5H237l-2.8-7.1l-2.8,7.1h-3.4l-3.7-9.5h2.6l2.8,7.4l3-7.4h3l3,7.5l2.8-7.5H244.1z"/>
		<path class="st0" d="M264.5,98.5l-3.7,9.5h-3.4l-2.8-7.1l-2.8,7.1h-3.4l-3.7-9.5h2.6l2.8,7.4l3-7.4h3l3,7.5l2.8-7.5H264.5z"/>
		<path class="st0" d="M284.9,98.5l-3.7,9.5h-3.4l-2.8-7.1l-2.8,7.1h-3.4l-3.7-9.5h2.6l2.8,7.4l3-7.4h3l3,7.5l2.8-7.5H284.9z"/>
		<path class="st0" d="M287,106.2v1.8h-2.3v-1.8H287z"/>
		<path class="st0" d="M298.8,100.5l-7.2,5.4h7.2v2h-10.7v-2l7.2-5.4h-7.2v-2h10.7V100.5z"/>
		<path class="st0" d="M302.3,108h-2.4v-9.5h2.4V108z"/>
		<path class="st0" d="M314.4,102c0,2.1-1.5,3.5-3.6,3.5h-5v2.5h-2.4v-9.5h7.4C313,98.5,314.4,99.9,314.4,102z M312,102
			c0-1.4-1.1-1.4-1.9-1.4h-4.3v2.9h4.3C310.9,103.4,312,103.4,312,102z"/>
		<path class="st0" d="M326.4,102c0,2.1-1.5,3.5-3.6,3.5h-5v2.5h-2.4v-9.5h7.4C324.9,98.5,326.4,99.9,326.4,102z M324,102
			c0-1.4-1.1-1.4-1.9-1.4h-4.3v2.9h4.3C322.8,103.4,324,103.4,324,102z"/>
		<path class="st0" d="M329.7,100.4v1.9h7.6v1.8h-7.6v1.9h7.6v1.9h-10v-9.5h10v1.9H329.7z"/>
		<path class="st0" d="M347.2,105.1l1.7,2.8h-2.9l-1.5-2.5h-3.9v2.5h-2.4v-9.5h7.4c2.2,0,3.6,1.4,3.6,3.5
			C349.3,103.5,348.5,104.6,347.2,105.1z M340.6,103.4h4.3c0.7,0,1.9,0,1.9-1.4c0-1.4-1.1-1.4-1.9-1.4h-4.3V103.4z"/>
		<path class="st0" d="M352.5,106.2v1.8h-2.3v-1.8H352.5z"/>
		<path class="st0" d="M359.3,98.3c3.8,0,5.7,1.4,5.9,4.2h-2.5c-0.2-1.5-1.4-2.1-3.4-2.1c-2.5,0-3.5,0.9-3.5,2.8
			c0,2,1.1,2.8,3.5,2.8c2,0,3.2-0.6,3.4-2.2h2.5c-0.2,2.7-2.1,4.2-5.9,4.2c-4.2,0-6-1.7-6-4.9C353.3,100.1,355.1,98.3,359.3,98.3z"
			/>
		<path class="st0" d="M366,103.2c0-3.1,1.8-4.9,6-4.9c4.2,0,6,1.7,6,4.9c0,3.1-1.8,4.9-6,4.9C367.8,108.1,366,106.4,366,103.2z
			 M375.4,103.2c0-1.9-1-2.8-3.5-2.8s-3.5,0.9-3.5,2.8c0,2,1,2.8,3.5,2.8S375.4,105.1,375.4,103.2z"/>
		<path class="st0" d="M393.3,108h-2.4v-6.5l-3.9,6.5h-1.8l-3.9-6.5v6.5h-2.4v-9.5h3.3l4,6.7l4-6.7h3.3V108z"/>
		<path class="st0" d="M409.1,101c0-0.8-0.2-1.4-0.7-1.8c-0.4-0.4-1.1-0.5-1.9-0.5c-0.6,0-1.1,0.1-1.6,0.4c-0.5,0.2-0.9,0.6-1.3,0.9
			c-0.4,0.4-0.7,0.9-0.9,1.4c-0.2,0.5-0.4,1.1-0.5,1.6c-0.1,0.5-0.2,1.1-0.2,1.6c0,0.5,0.1,1,0.3,1.4c0.2,0.4,0.5,0.7,0.8,1
			c0.4,0.3,0.9,0.4,1.6,0.4c0.4,0,0.8-0.1,1.2-0.2c0.4-0.1,0.7-0.3,1-0.6c0.3-0.2,0.6-0.5,0.8-0.8c0.2-0.3,0.5-0.7,0.6-1.1h1
			c-0.2,0.5-0.5,0.9-0.8,1.3c-0.3,0.4-0.6,0.8-1,1.1c-0.4,0.3-0.9,0.6-1.4,0.8c-0.5,0.2-1.1,0.3-1.8,0.3c-0.7,0-1.4-0.1-1.8-0.4
			c-0.5-0.3-0.8-0.6-1.1-1.1c-0.2-0.5-0.4-1-0.4-1.6c0-0.6,0-1.3,0.2-2c0.2-0.9,0.5-1.7,0.8-2.4c0.4-0.7,0.8-1.2,1.3-1.6
			c0.5-0.4,1-0.7,1.6-0.9c0.6-0.2,1.2-0.3,1.9-0.3c1,0,1.8,0.3,2.4,0.8s0.8,1.3,0.8,2.3H409.1z"/>
		<path class="st0" d="M413.1,108.2c-0.5,0-0.9-0.1-1.2-0.2c-0.4-0.2-0.7-0.4-0.9-0.7c-0.2-0.3-0.4-0.7-0.5-1.2
			c-0.1-0.5,0-1,0.1-1.6c0.1-0.5,0.3-1,0.5-1.4c0.2-0.4,0.5-0.8,0.9-1.2c0.3-0.3,0.7-0.6,1.2-0.8c0.4-0.2,0.9-0.3,1.5-0.3
			c0.6,0,1,0.1,1.4,0.3c0.4,0.2,0.6,0.5,0.8,0.8c0.2,0.3,0.3,0.7,0.4,1.2c0,0.5,0,0.9-0.1,1.4c-0.1,0.6-0.3,1.1-0.6,1.5
			c-0.3,0.5-0.6,0.8-0.9,1.2c-0.4,0.3-0.7,0.6-1.2,0.8C414.1,108.1,413.6,108.2,413.1,108.2z M416.3,104.5c0.1-0.4,0.1-0.8,0.1-1.2
			c0-0.4-0.1-0.7-0.2-0.9c-0.1-0.3-0.3-0.5-0.6-0.6c-0.3-0.2-0.6-0.2-1-0.2c-0.4,0-0.8,0.1-1.1,0.3c-0.3,0.2-0.6,0.4-0.9,0.7
			c-0.3,0.3-0.5,0.6-0.6,0.9c-0.2,0.4-0.3,0.7-0.4,1.1c-0.1,0.4-0.1,0.8-0.1,1.2c0,0.4,0.1,0.7,0.3,0.9c0.1,0.3,0.3,0.5,0.6,0.6
			c0.3,0.1,0.6,0.2,1,0.2c0.4,0,0.8-0.1,1.1-0.3c0.3-0.2,0.6-0.4,0.9-0.7c0.2-0.3,0.5-0.6,0.6-0.9
			C416.1,105.2,416.2,104.8,416.3,104.5z"/>
		<path class="st0" d="M418.2,110.7h-0.8l2.1-9.8h0.8l-0.3,1.2h0c0.2-0.2,0.4-0.4,0.6-0.6c0.2-0.2,0.5-0.3,0.7-0.4
			c0.2-0.1,0.5-0.2,0.7-0.3c0.2-0.1,0.5-0.1,0.7-0.1c0.6,0,1,0.1,1.4,0.3c0.4,0.2,0.6,0.4,0.8,0.8c0.2,0.3,0.3,0.7,0.3,1.2
			c0,0.5,0,0.9-0.1,1.4c-0.1,0.5-0.3,1-0.5,1.4c-0.2,0.5-0.5,0.8-0.8,1.2c-0.3,0.3-0.7,0.6-1.2,0.8c-0.4,0.2-0.9,0.3-1.5,0.3
			c-0.5,0-1-0.1-1.4-0.3c-0.4-0.2-0.7-0.5-0.9-1L418.2,110.7z M419.5,104.5c-0.1,0.4-0.1,0.8-0.1,1.1c0,0.4,0.1,0.7,0.3,0.9
			c0.1,0.3,0.4,0.5,0.6,0.6c0.3,0.2,0.6,0.2,0.9,0.2c0.4,0,0.8-0.1,1.1-0.3c0.3-0.2,0.7-0.4,0.9-0.7c0.3-0.3,0.5-0.6,0.6-1
			c0.2-0.4,0.3-0.8,0.4-1.2c0.2-0.9,0.1-1.6-0.3-2c-0.3-0.5-0.9-0.7-1.6-0.7c-0.4,0-0.7,0.1-1.1,0.2c-0.3,0.2-0.6,0.4-0.9,0.6
			c-0.3,0.3-0.5,0.6-0.7,0.9C419.8,103.7,419.6,104.1,419.5,104.5z"/>
		<path class="st0" d="M425.7,109.9c0.1,0,0.2,0,0.3,0.1c0.1,0,0.2,0,0.3,0c0.2,0,0.4-0.1,0.6-0.2c0.2-0.1,0.3-0.3,0.5-0.5
			c0.1-0.2,0.3-0.4,0.4-0.6c0.1-0.2,0.2-0.4,0.3-0.6l-1.2-7.1h0.9l1,6l3.5-6h0.9l-4.1,6.9c-0.3,0.4-0.5,0.8-0.7,1.2
			c-0.2,0.4-0.4,0.7-0.7,0.9c-0.2,0.2-0.4,0.4-0.7,0.6c-0.2,0.1-0.5,0.2-0.8,0.2c-0.1,0-0.3,0-0.4,0c-0.1,0-0.2,0-0.3-0.1
			L425.7,109.9z"/>
		<path class="st0" d="M433.8,108H433l1.5-7h0.8l-0.3,1.3h0c0.3-0.6,0.7-1,1.1-1.2c0.4-0.2,0.9-0.3,1.5-0.3l-0.2,0.9
			c-0.5,0-0.8,0.1-1.2,0.2c-0.3,0.2-0.6,0.4-0.8,0.6c-0.2,0.3-0.4,0.6-0.6,0.9c-0.1,0.4-0.3,0.7-0.3,1.1L433.8,108z"/>
		<path class="st0" d="M437.6,108l1.5-7h0.8l-1.5,7H437.6z M439.3,99.4l0.3-1.2h0.9l-0.3,1.2H439.3z"/>
		<path class="st0" d="M447.4,100.9h0.8l-1.3,6.3c-0.1,0.5-0.2,0.9-0.4,1.3c-0.2,0.4-0.4,0.8-0.8,1.1c-0.3,0.3-0.7,0.6-1.2,0.8
			c-0.5,0.2-1,0.3-1.7,0.3c-0.5,0-0.9-0.1-1.3-0.2c-0.3-0.1-0.6-0.3-0.8-0.5c-0.2-0.2-0.3-0.4-0.4-0.7c-0.1-0.2-0.1-0.5,0-0.7h0.9
			c0,0.3,0,0.5,0.1,0.6c0.1,0.2,0.2,0.3,0.4,0.4c0.2,0.1,0.4,0.2,0.6,0.2c0.2,0,0.4,0.1,0.7,0.1c0.6,0,1-0.1,1.4-0.3
			c0.4-0.2,0.7-0.4,0.9-0.7c0.2-0.3,0.4-0.7,0.6-1c0.1-0.4,0.2-0.8,0.3-1.2c-0.4,0.4-0.8,0.8-1.3,1c-0.5,0.2-1,0.3-1.5,0.3
			c-0.5,0-1-0.1-1.3-0.3c-0.4-0.2-0.6-0.5-0.8-0.8c-0.2-0.3-0.3-0.7-0.3-1.2c0-0.5,0-0.9,0.1-1.4c0.1-0.5,0.3-1,0.5-1.4
			c0.2-0.5,0.5-0.8,0.8-1.2c0.3-0.3,0.7-0.6,1.1-0.8c0.4-0.2,0.9-0.3,1.5-0.3c0.2,0,0.4,0,0.7,0.1c0.2,0.1,0.4,0.2,0.6,0.3
			c0.2,0.1,0.4,0.3,0.5,0.4c0.1,0.2,0.3,0.4,0.3,0.6h0L447.4,100.9z M446.6,104.5c0.1-0.4,0.1-0.8,0.1-1.2c0-0.4-0.1-0.7-0.3-0.9
			c-0.1-0.3-0.3-0.5-0.6-0.6c-0.3-0.2-0.6-0.2-1-0.2c-0.3,0-0.7,0.1-1,0.2c-0.3,0.1-0.6,0.3-0.9,0.5c-0.3,0.2-0.5,0.5-0.7,0.9
			c-0.2,0.3-0.3,0.7-0.4,1.2c-0.1,0.4-0.2,0.9-0.1,1.2c0,0.4,0.1,0.7,0.2,1c0.1,0.3,0.3,0.5,0.6,0.7c0.3,0.2,0.6,0.3,1,0.3
			c0.4,0,0.7-0.1,1-0.2c0.3-0.2,0.6-0.4,0.9-0.6c0.3-0.3,0.5-0.6,0.7-0.9C446.4,105.3,446.5,104.9,446.6,104.5z"/>
		<path class="st0" d="M448.7,108l2.1-9.8h0.8l-0.8,3.7c0.4-0.3,0.8-0.6,1.2-0.8c0.4-0.2,0.8-0.3,1.3-0.3c0.4,0,0.8,0.1,1.2,0.2
			c0.3,0.1,0.6,0.4,0.8,0.8c0.1,0.3,0.2,0.5,0.1,0.8c0,0.3-0.1,0.5-0.1,0.8l-1,4.6h-0.8l1-4.6c0.1-0.6,0.1-1.1-0.1-1.4
			c-0.2-0.3-0.6-0.5-1.3-0.5c-0.3,0-0.5,0-0.7,0.1c-0.2,0.1-0.4,0.2-0.6,0.3c-0.2,0.1-0.4,0.3-0.5,0.4c-0.2,0.2-0.3,0.3-0.4,0.5
			c-0.1,0.2-0.2,0.4-0.3,0.7c-0.1,0.2-0.1,0.4-0.2,0.7l-0.8,3.8H448.7z"/>
		<path class="st0" d="M458.7,108c-0.1,0-0.2,0-0.4,0.1c-0.2,0-0.4,0.1-0.6,0.1c-0.4,0-0.7-0.1-0.9-0.3c-0.2-0.2-0.2-0.6-0.1-1.1
			l1.1-5.1h-1l0.1-0.7h1l0.4-2h0.8l-0.4,2h1.3l-0.1,0.7h-1.3l-1,4.8c0,0.2-0.1,0.3-0.1,0.4c0,0.1,0,0.2,0,0.3c0,0.1,0.1,0.1,0.2,0.2
			c0.1,0,0.2,0.1,0.4,0.1c0.1,0,0.2,0,0.3,0s0.2,0,0.3-0.1L458.7,108z"/>
		<path class="st0" d="M468.7,98c-0.8,0.9-1.6,1.9-2.2,3c-0.6,1.1-1,2.2-1.2,3.3c-0.2,1.1-0.3,2.2-0.1,3.3c0.2,1.1,0.4,2,0.9,3h-0.7
			c-0.3-0.5-0.5-1-0.7-1.5c-0.2-0.5-0.3-1-0.4-1.5c-0.1-0.5-0.1-1-0.1-1.6c0-0.5,0.1-1.1,0.2-1.8c0.1-0.6,0.3-1.2,0.5-1.8
			c0.2-0.5,0.5-1.1,0.8-1.6c0.3-0.5,0.7-1,1-1.5c0.4-0.5,0.8-1,1.3-1.5H468.7z"/>
		<path class="st0" d="M474.3,103.2c0-0.5-0.2-0.9-0.5-1.2c-0.3-0.3-0.7-0.4-1.2-0.4c-0.4,0-0.8,0.1-1.1,0.3
			c-0.3,0.2-0.6,0.4-0.9,0.7c-0.3,0.3-0.5,0.6-0.6,1c-0.2,0.4-0.3,0.7-0.4,1.1c-0.1,0.4-0.1,0.7-0.1,1.1c0,0.4,0.1,0.7,0.2,0.9
			c0.1,0.3,0.3,0.5,0.6,0.7c0.3,0.2,0.6,0.3,1,0.3c0.6,0,1.1-0.2,1.6-0.5c0.4-0.3,0.8-0.8,1-1.4h0.9c-0.2,0.4-0.3,0.7-0.6,1.1
			c-0.2,0.3-0.5,0.6-0.8,0.8c-0.3,0.2-0.6,0.4-1,0.5c-0.4,0.1-0.8,0.2-1.2,0.2c-0.6,0-1-0.1-1.4-0.3c-0.4-0.2-0.6-0.4-0.8-0.8
			c-0.2-0.3-0.3-0.7-0.3-1.2c0-0.5,0-0.9,0.1-1.4c0.1-0.5,0.3-1,0.5-1.4c0.2-0.4,0.5-0.8,0.9-1.2c0.3-0.3,0.7-0.6,1.2-0.8
			c0.4-0.2,0.9-0.3,1.5-0.3c0.8,0,1.4,0.2,1.8,0.6c0.4,0.4,0.6,1,0.5,1.8H474.3z"/>
		<path class="st0" d="M475.1,110.6c0.8-0.9,1.6-1.9,2.2-3c0.6-1.1,1-2.2,1.3-3.3c0.2-1.1,0.3-2.2,0.1-3.3c-0.1-1.1-0.4-2-0.9-3h0.7
			c0.3,0.5,0.5,1,0.7,1.5c0.2,0.5,0.3,1,0.4,1.5c0.1,0.5,0.1,1,0.1,1.6c0,0.5-0.1,1.1-0.2,1.8c-0.1,0.6-0.3,1.2-0.5,1.8
			c-0.2,0.5-0.5,1.1-0.8,1.6c-0.3,0.5-0.7,1-1,1.5c-0.4,0.5-0.8,1-1.3,1.5H475.1z"/>
		<path class="st0" d="M487.4,109.2h-0.8l5.6-11.2h0.8L487.4,109.2z"/>
		<path class="st0" d="M491.1,109.2h-0.8l5.6-11.2h0.8L491.1,109.2z"/>
	</g>
	<g>
		<polygon class="st1" points="278.4,40.5 275.9,41.7 273.7,40.1 274,37.5 276.5,36.4 278.6,37.9 		"/>
		<rect x="97" y="15.3" class="st0" width="21.8" height="69.8"/>
		<polygon class="st0" points="16.2,36.4 56,36.4 16.3,62.1 16.3,62.1 16.3,85.1 92.6,85 92.5,64 53,64 92.5,38.2 92.5,38.2 
			92.5,15.2 16.2,15.3 		"/>
		<path class="st0" d="M276.2,42.6c-2,0-3.7-1.6-3.7-3.7c0-2,1.6-3.7,3.7-3.7c2.1,0,3.7,1.6,3.7,3.7l0,0
			C279.9,41,278.2,42.6,276.2,42.6z M276.2,36.6c-1.3,0-2.4,1-2.4,2.3c0,1.3,1,2.4,2.4,2.4c1.3,0,2.4-1,2.4-2.4
			C278.6,37.7,277.5,36.6,276.2,36.6L276.2,36.6L276.2,36.6z"/>
		<path class="st0" d="M198.6,43.5c0-4.4-1.6-6.9-8.1-6.9V33h14.2c-1.7-3.5-4.2-6.6-7.2-9c0,0,0,0-1.3-1c-4.5-3-9.4-5.2-14.8-6.3
			c-2.4-0.6-2.8-0.7-6.5-1c-3-0.4-6.2-0.5-9.3-0.5h-42l0.1,69.9h24.1V55.4h0.7c0.1,10.7,11.1,22.6,26,22.6c9.6,0,18.2-3.4,24.2-9.5
			v0.4l0,0C198.6,68.8,198.6,47.5,198.6,43.5z M170.8,55c-5.8-0.1-11.4-2.1-16-5.7c-4.2-3.1-6.9-7.1-6.9-10.1h20.7
			c2.2,0,4.4,0.1,6.5,0.4h0.2h0.4l0.4,0.1h0.2c0.6,0.1,1.2,0.2,1.8,0.4l0.4,0.1l0.3,0.1l0.4,0.1c3,1,4.3,2.9,4.3,5.7
			C183.5,52.2,176.9,55,170.8,55z"/>
		<g>
			<path class="st0" d="M418.9,75.3c0-3.8-0.2-10-0.4-15.4v-0.1c-0.2-5.7-0.4-11.5-0.4-15c0-4.9,1.1-7.6,7.2-7.6h1v-3.3h-26.8v3.3h1
				c4.8,0,7.1,1.2,7.1,7.8v28.8c0,5.5-1.5,8.3-9.9,8.4h-11.6c-21-22.6-49.1-30.9-63.2-30.9c-4.9,0-8,1-9.2,3.3
				c-2,3.7,2,9.4,5.7,14.9l0.3,0.4c2.9,4.2,6.2,8.9,5.1,10.9c-0.6,1-2.2,1.5-4.9,1.5c-2.6,0-9-1.5-15.5-5.8
				c-5.2-3.5-11.7-9.8-12.9-19.7l-0.1-0.6l-0.4,0.4c-0.2,0.2-0.4,0.4-0.6,0.5c-0.2,0.2-0.5,0.4-0.7,0.6l-0.1,0.1v0.1
				c2.5,15.4,16.6,23.4,25.6,25.7c-23.5-1.1-35.7-8.4-36.2-21.4v-0.3l-0.3,0.1c-0.5,0.1-0.9,0.1-1.3,0.1h-0.3v0.3
				c0.6,15.4,15.6,23.3,44.5,23.3c0.2,0,0.4,0,0.6,0c14.2,0,21-1.7,22.3-5.6c1.6-4.9-7.8-11.3-16-17l-0.1-0.1c-3-2-9.7-6.7-9.4-7.5
				c0,0,0.4-0.5,2.7-0.5c13.6,0,36.5,16,36.5,23.5c0,1-0.7,2.1-1.7,2.6c-1.4,0.8-3.8,1.2-6.8,1.2h-1v3.3l39.8-0.1h41v-3.3h-4.9
				C421,82,418.9,79.6,418.9,75.3z M326.7,81.7c1.6-3.1-1.8-8.1-5.4-13.3l-0.1-0.2c-3.2-4.8-6.9-10.2-5.5-12.8
				c0.5-0.9,1.4-1.4,2.9-1.8c-0.6,0.3-1,0.7-1.1,1.2c-0.6,2.2,2.7,4.6,10.2,9.7c6.6,4.5,16.4,11.3,15.3,14.9
				c-0.5,1.5-3.4,4-18.6,4.2C325.4,83.4,326.3,82.7,326.7,81.7z M357.6,83c1.7-0.9,2.8-2.5,2.8-4.3c0-8.8-23-24.3-37-25.4
				c13.7,0.1,41,8.3,61.5,30.5h-29.4C356.1,83.6,356.9,83.3,357.6,83z M351.7,84L351.7,84L351.7,84L351.7,84z M404.9,35.8h16.3
				c-4.3,1.4-4.9,5.3-4.9,9c0,3.6,0.2,9.6,0.4,14.8V60c0.2,5.1,0.4,11.5,0.4,15.4c0,4.1,1.6,6.9,4.6,8.1h-17.9
				c4.3-1.1,6.2-4.3,6.2-9.7V44.9C409.8,42.2,409.8,37.4,404.9,35.8z"/>
			<path class="st0" d="M487.7,82.3c-11.5,0-26.6-5-40.5-13.6c-12.1-7.3-20.9-16-21.9-21.4l18-0.1c0.3,14.3,6.8,21.9,18.8,21.9
				c12.8,0,26.5-8.9,26.5-23.2c0-18.3-27-30.5-67.3-30.5h-32.5l0.1,51.2v0.3h3.2l-0.1-15.1c0-27.4,20.6-31.3,42.8-31.4
				c22.5,0,40,14.8,40,33.6v4.3c-18.9-0.3-28.1-8-28.1-23.5v-1h-1c-15,0-27.2,9.5-27.2,21.3c0,8.1,5.6,15.4,15.9,20.7
				c12.3,6.4,30.3,9.6,53.3,9.6h1v-2.9L487.7,82.3L487.7,82.3z M420.6,55c0-3,1-6,2.7-8.8v0.1c0,6,8.9,15.3,22.5,23.7
				c10.6,6.5,21.7,11,31.7,13c-17.7-0.8-32.2-3.9-42.2-9.1l0,0C425.8,69,420.6,62.2,420.6,55z M434.8,18.5c-13.2,0-22.6,1.6-29.6,5
				c-8,4-12.8,10.5-14.5,19.6V17.4h30.5c39,0,65.3,11.5,65.3,28.5c0,13.1-12.8,21.2-24.6,21.2c-11.2,0-16.8-7-16.8-20.9v-1
				l-21.3,0.2c1-1.4,2.3-2.7,3.8-3.9c5-3.8,10.9-5.8,17.1-5.8c0.4,16.6,10.6,24.6,31.1,24.6h1v-6.2
				C476.8,34.1,458.3,18.5,434.8,18.5z"/>
			<path class="st0" d="M299,35.2c0.1,0.3,0.2,0.7,0.2,1v0.5l0.4-0.2c23.8-12.8,62.2-18.7,82.2-18.9v23.9
				c-2.3-14.8-9.9-20.7-26-20.7c-0.1,0-0.2,0-0.4,0c-13.8,0-21.1,4.9-21.1,14.1v13.9h-7.5V33.7h-1c-9.8,0-19.9,0.4-26.6,3l-0.2,0.1
				v0.2c0,0.2,0,0.5,0,0.8s0.1,0.6,0.1,0.9v0.4l0.4-0.2c5-2.1,12.8-3,25.2-3v14.8h30.5c7.6,0,10.1,2.3,10.1,9.4v0.9h3.2V28.9h-3.1v1
				c0,9-13.1,16.6-29.2,16.9V34.6c0-10,10.4-12.1,19.1-12.1c18.5,0,25,7.7,25,29.3V67h3.2l-0.1-51.3v-0.3h-1
				c-14.7,0-40.7,3.2-63.3,10.5c-7.2,2.3-13.9,4.9-20.4,8.4l-0.2,0.1v0.2C298.9,34.8,298.9,35,299,35.2z M357.6,43.6
				c4.7-2.7,7.7-5.9,9.1-9.5l0.1,20.7c-1.3-4.3-4.9-6.1-11.3-6.1h-14.9C346.9,48.1,352.8,46.3,357.6,43.6z"/>
			<path class="st0" d="M486.9,14.3c-3.4,0-6.2,2.6-6.2,6.1s2.9,6.2,6.2,6.2c3.3,0,6.1-2.7,6.1-6.2C493,16.9,490.2,14.3,486.9,14.3z
				 M486.9,25.6c-3,0-5.1-2.2-5-5.2c0-3,2.2-5.2,5-5.2c2.9,0,5,2.3,5,5.2C491.9,23.3,489.7,25.6,486.9,25.6z"/>
			<path class="st0" d="M488.4,20.7c0.8-0.2,1.2-0.8,1.2-1.8c0-1.4-0.8-2.1-2.5-2.1h-2.3c-0.3,0-0.5,0.2-0.5,0.5h0.2v6.2
				c0,0.3,0.2,0.5,0.5,0.5h0.1c0.3,0,0.5-0.2,0.5-0.5v-2c0-0.3,0.2-0.5,0.5-0.5h0.4c0.1,0,0.3,0,0.4,0.2l1.6,2.7
				c0.1,0.1,0.2,0.2,0.4,0.2c0.4,0,0.6-0.4,0.4-0.8l-1.1-1.8C487.9,21.2,488.1,20.8,488.4,20.7z M486.7,20H486
				c-0.3,0-0.5-0.2-0.5-0.5v-1.3c0-0.3,0.2-0.5,0.5-0.5h1c0.8,0,1.6,0.2,1.6,1.1C488.6,20,487.7,20,486.7,20z"/>
			<path class="st0" d="M271.8,61.6l-0.1,0.3L271.8,61.6h-0.2l-0.1,0.2c-4.7,8.6-14.4,14.7-23.7,14.7c-19.9,0-28.5-12.1-28.5-40.5
				v-1h-1.9c-4.8,0.2-10.4,2.3-10.4,11.1v0.3c0,3.6,0.2,9,0.4,14.4c0.2,5.5,0.4,11.1,0.4,14.8c0,4.1,1.8,7.1,4.8,8.3h-18.3
				c3.9-1,6.3-3.6,6.3-9.8V44.8c0-4.6-0.7-9.5-8.3-9.9v-0.3h27.9c0.5,22.3,16.4,35,43.6,35h1V59.1v-0.2l-0.1-0.1
				c-0.5-0.3-1-0.6-1.4-1l-0.5-0.4v10C236.9,67.3,222,54.9,222,33.6v-1h-31.8v4.1h0.3c6.5,0,7.8,2.7,7.8,6.7v30.7
				c0,5.6-1.5,8.5-10,8.5h-8.1l0.2,3.3l51.4-0.2v-3.3h-16.6c-3.8,0-5.9-2.5-5.9-6.9c0-3.7-0.2-8.9-0.4-14.9
				c-0.2-5.3-0.4-10.8-0.4-14.4c0-5.8,2.9-8.9,8.4-9.3c0.3,29,9.3,41.5,30.5,41.5c10.1,0,20.7-6.6,25.6-16.1l0.1-0.2l-0.1-0.1
				C272.8,61.8,272.3,61.7,271.8,61.6z"/>
			<path class="st0" d="M226.5,18.2c-3.5,0-7.2,0.2-11,0.5c-7.5,0.7-14.1,2-19.4,4l-0.5,0.2l1.9,1.3h0.1c5.2-1.8,11.4-3,18.5-3.6
				c3-0.3,6.4-0.4,10.6-0.4c9.2,0,19.1,5.2,26.6,13.9l0.4,0.5l0.1-0.6c0-0.3,0.1-0.6,0.2-0.8c0.1-0.3,0.2-0.6,0.2-0.9v-0.1l-0.1-0.1
				C246.3,23.4,236,18.2,226.5,18.2z"/>
			<path class="st0" d="M207.8,16.9c2.3,0,4.6,0,6.8,0.1c17.6,0.6,32.3,3.5,42.4,8.7l0.2,0.1l1.1-1.6L258,24
				c-10.7-5.3-26-8.4-44.2-8.9c-2-0.1-4.1-0.1-6.1-0.1h-40.6v0.6l7.8,0.4c3.7,0.4,4.1,0.5,6.4,1H207.8z"/>
		</g>
		<g>
			<path class="st0" d="M276.2,62.4c-12.9,0-23.4-10.5-23.4-23.4s10.5-23.4,23.4-23.4l0,0c12.9,0,23.4,10.5,23.4,23.4
				S289.1,62.4,276.2,62.4z M276.2,17.7L276.2,17.7c-11.8,0-21.3,9.6-21.3,21.4s9.6,21.3,21.4,21.3s21.3-9.6,21.3-21.4l0,0
				C297.5,27.2,288,17.6,276.2,17.7L276.2,17.7z"/>
			<path class="st0" d="M276.2,62.8c-13.1,0-23.8-10.7-23.8-23.8s10.7-23.8,23.8-23.8c13.1,0,23.8,10.7,23.8,23.8
				S289.3,62.8,276.2,62.8z M276.2,16c-12.8,0-23,10.4-23,23c0,12.8,10.4,23,23,23c12.7,0,23-10.4,23-23
				C299.2,26.3,288.9,16,276.2,16z M276.3,60.8c-12,0-21.8-9.7-21.8-21.7s9.7-21.8,21.7-21.8c5.8,0,11.2,2.2,15.3,6.3
				s6.4,9.5,6.4,15.3C298,51,288.2,60.8,276.3,60.8z M276.2,18.1c-11.6,0-20.9,9.4-20.9,21s9.4,20.9,21,20.9s20.9-9.4,20.9-21
				c0-5.6-2.3-10.9-6.2-14.8C287,20.2,281.8,18,276.2,18.1L276.2,18.1z"/>
		</g>
	</g>
</g>
</svg>
