<?xml version="1.0" encoding="utf-8"?>
<!-- Generator: Adobe Illustrator 24.3.0, SVG Export Plug-In . SVG Version: 6.00 Build 0)  -->
<svg version="1.1" id="Calque_1" xmlns="http://www.w3.org/2000/svg" xmlns:xlink="http://www.w3.org/1999/xlink" x="0px" y="0px"
	 viewBox="0 0 106 527" style="enable-background:new 0 0 106 527;" xml:space="preserve">
<style type="text/css">
	.st0{fill-rule:evenodd;clip-rule:evenodd;fill:#FDFFFF;}
	.st1{fill:#DEDEE2;}
</style>
<polygon class="st0" points="42.5,236.1 43.7,238.7 42,241 39.3,240.7 38.1,238.1 39.7,235.9 "/>
<rect x="16" y="403.8" class="st1" width="73.3" height="22.9"/>
<polygon class="st1" points="38.1,511.6 38.1,469.8 65.2,511.5 65.2,511.5 89.3,511.5 89.2,431.3 67.1,431.4 67.1,472.9 40,431.4 
	40,431.4 15.9,431.4 16,511.6 "/>
<path class="st1" d="M44.7,238.4c0,2.1-1.7,3.9-3.9,3.9c-2.1,0-3.9-1.7-3.9-3.9s1.7-3.9,3.9-3.9l0,0C43,234.5,44.7,236.3,44.7,238.4
	z M38.4,238.4c0,1.4,1.1,2.5,2.4,2.5c1.4,0,2.5-1.1,2.5-2.5s-1.1-2.5-2.5-2.5C39.5,235.9,38.4,237,38.4,238.4L38.4,238.4L38.4,238.4
	z"/>
<path class="st1" d="M45.6,319.9c-4.6,0-7.3,1.7-7.3,8.5h-3.7v-14.9c-3.7,1.8-6.9,4.4-9.5,7.6c0,0,0,0-1,1.4
	c-3.2,4.7-5.5,9.9-6.6,15.5c-0.6,2.5-0.7,2.9-1.1,6.8c-0.4,3.2-0.5,6.5-0.5,9.8v44.1l73.4-0.1v-25.3H58.1v-0.7
	c11.2-0.1,23.7-11.7,23.7-27.3c0-10.1-3.6-19.1-10-25.4h0.4l0,0C72.2,319.9,49.8,319.9,45.6,319.9z M57.7,349.1
	c-0.1,6.1-2.2,12-6,16.8c-3.3,4.4-7.5,7.2-10.6,7.3v-21.8c0-2.3,0.1-4.6,0.4-6.8v-0.2V344l0.1-0.4v-0.2c0.1-0.6,0.2-1.3,0.4-1.9
	l0.1-0.4l0.1-0.3l0.1-0.4c1.1-3.1,3-4.5,6-4.5C54.8,335.8,57.7,342.7,57.7,349.1z"/>
<g>
	<path class="st1" d="M79,88.4c-4,0-10.5,0.2-16.2,0.4h-0.1c-6,0.2-12.1,0.4-15.8,0.4c-5.2,0-8-1.2-8-7.6v-1h-3.5v28.2h3.5v-1
		c0-5,1.3-7.5,8.2-7.5h30.3c5.8,0,8.7,1.6,8.8,10.4v12.2c-23.8,22.1-32.5,51.6-32.5,66.4c0,5.2,1.1,8.4,3.5,9.7
		c3.9,2.1,9.9-2.1,15.7-6l0.4-0.3c4.4-3,9.4-6.5,11.5-5.4c1,0.6,1.6,2.3,1.6,5.2c0,2.7-1.6,9.5-6.1,16.3
		c-3.7,5.5-10.3,12.3-20.7,13.6l-0.6,0.1l0.4,0.4c0.2,0.2,0.4,0.4,0.5,0.6c0.2,0.2,0.4,0.5,0.6,0.7l0.1,0.1h0.1
		c16.2-2.6,24.6-17.4,27-26.9c-1.2,24.7-8.8,37.5-22.5,38h-0.3l0.1,0.3c0.1,0.5,0.1,0.9,0.1,1.4v0.3h0.3
		c16.2-0.6,24.5-16.4,24.5-46.8c0-0.2,0-0.4,0-0.6c0-14.9-1.8-22.1-5.9-23.4c-5.2-1.7-11.9,8.2-17.9,16.8l-0.1,0.1
		c-2.1,3.1-7,10.2-7.9,9.9c0,0-0.5-0.4-0.5-2.8c0-14.3,16.8-38.4,24.7-38.4c1.1,0,2.2,0.7,2.7,1.8c0.8,1.5,1.3,4,1.3,7.1v1h3.5
		l-0.1-41.8V77.2h-3.5v5.1C86.1,86.2,83.5,88.4,79,88.4z M85.8,185.3c-3.3-1.7-8.5,1.9-14,5.7l-0.2,0.1c-5,3.4-10.7,7.3-13.4,5.8
		c-0.9-0.5-1.5-1.5-1.9-3c0.3,0.6,0.7,1,1.3,1.2c2.3,0.6,4.8-2.8,10.2-10.7c4.7-6.9,11.9-17.2,15.7-16.1c1.6,0.5,4.2,3.6,4.4,19.5
		C87.5,186.7,86.8,185.8,85.8,185.3z M87.1,152.9c-0.9-1.8-2.6-2.9-4.5-2.9c-9.2,0-25.5,24.2-26.7,38.9c0.1-14.4,8.7-43.1,32-64.6
		v30.9C87.7,154.4,87.4,153.6,87.1,152.9z M88.2,159.1L88.2,159.1L88.2,159.1L88.2,159.1z M37.5,103.2V86.1c1.5,4.5,5.6,5.2,9.5,5.2
		c3.8,0,10.1-0.2,15.6-0.4h0.3c5.4-0.2,12.1-0.4,16.2-0.4c4.3,0,7.3-1.7,8.5-4.8v18.8C86.4,100,83.1,98,77.4,98H47.1
		C44.2,98,39.2,98,37.5,103.2z"/>
	<path class="st1" d="M86.4,16.2c0,12.1-5.3,28-14.3,42.6c-7.7,12.7-16.8,22-22.5,23l-0.1-18.9c15-0.3,23-7.1,23-19.8
		c0-13.4-9.3-27.8-24.4-27.8C28.9,15.3,16,43.7,16,86v34.2l53.8-0.1h0.3v-3.4l-15.9,0.1c-28.8,0-32.9-21.6-33-45
		c0-23.6,15.5-42,35.3-42H61c-0.3,19.9-8.4,29.5-24.7,29.5h-1v1c0,15.8,10,28.6,22.4,28.6c8.5,0,16.2-5.9,21.8-16.7
		c6.7-12.9,10.1-31.8,10.1-56v-1h-3L86.4,16.2L86.4,16.2z M57.7,86.7c-3.2,0-6.3-1-9.2-2.8h0.1c6.3,0,16.1-9.3,24.9-23.6
		C80.3,49.2,85.1,37.5,87.2,27c-0.8,18.6-4.1,33.8-9.6,44.3l0,0C72.4,81.2,65.3,86.7,57.7,86.7z M19.3,71.7
		c0,13.9,1.7,23.8,5.3,31.1c4.2,8.4,11,13.4,20.6,15.2h-27V85.9c0-41,12.1-68.6,30-68.6c13.8,0,22.3,13.4,22.3,25.8
		c0,11.8-7.4,17.7-22,17.7h-1.1l0.2,22.4c-1.5-1.1-2.8-2.4-4.1-4c-4-5.3-6.1-11.5-6.1-18c17.4-0.4,25.8-11.1,25.8-32.7v-1h-6.5
		C35.7,27.6,19.3,47,19.3,71.7z"/>
	<path class="st1" d="M36.9,214.4c0.3-0.1,0.7-0.2,1-0.2h0.5l-0.2-0.4c-13.5-25-19.7-65.4-19.9-86.4h25.1
		c-15.6,2.4-21.8,10.4-21.8,27.3c0,0.1,0,0.2,0,0.4c0,14.5,5.1,22.2,14.8,22.2H51v7.9H35.3v1c0,10.3,0.4,20.9,3.1,27.9l0.1,0.2h0.2
		c0.2,0,0.5,0,0.8,0s0.6-0.1,0.9-0.1h0.4l-0.2-0.4c-2.2-5.3-3.2-13.4-3.2-26.5H53v-32.1c0-8,2.4-10.6,9.9-10.6h0.9v-3.4H30.3v3.3
		h1.1c9.5,0,17.4,13.8,17.8,30.7H36.3c-10.5,0-12.7-10.9-12.7-20.1c0-19.4,8.1-26.3,30.8-26.3h15.9v-3.4l-53.9,0.1h-0.3v1
		c0,15.4,3.4,42.8,11,66.5c2.4,7.6,5.2,14.6,8.8,21.4l0.1,0.2h0.2C36.5,214.5,36.7,214.5,36.9,214.4z M45.7,152.9
		c-2.8-4.9-6.2-8.1-10-9.6l21.7-0.1c-4.5,1.4-6.4,5.1-6.4,11.9v15.7C50.4,164.1,48.6,157.9,45.7,152.9z"/>
	<path class="st1" d="M14.9,17c0,3.6,2.7,6.5,6.4,6.5s6.5-3,6.5-6.5s-2.8-6.4-6.5-6.4C17.7,10.6,14.9,13.5,14.9,17z M26.8,17
		c0,3.1-2.3,5.4-5.5,5.3c-3.1,0-5.5-2.3-5.5-5.3s2.4-5.3,5.5-5.3S26.8,14,26.8,17z"/>
	<path class="st1" d="M21.7,15.4c-0.2-0.8-0.8-1.3-1.9-1.3c-1.5,0-2.2,0.8-2.2,2.6v2.4c0,0.3,0.2,0.5,0.5,0.5v-0.2h6.5
		c0.3,0,0.5-0.2,0.5-0.5v-0.1c0-0.3-0.2-0.5-0.5-0.5h-2.1c-0.3,0-0.5-0.2-0.5-0.5v-0.4c0-0.1,0-0.3,0.2-0.4l2.8-1.7
		c0.1-0.1,0.2-0.2,0.2-0.4c0-0.4-0.4-0.6-0.8-0.4l-1.9,1.2C22.2,15.9,21.8,15.7,21.7,15.4z M20.9,17.2v0.7c0,0.3-0.2,0.5-0.5,0.5H19
		c-0.3,0-0.5-0.2-0.5-0.5v-1c0-0.8,0.2-1.7,1.2-1.7C20.9,15.2,20.9,16.2,20.9,17.2z"/>
	<path class="st1" d="M64.6,243l0.3,0.1L64.6,243v0.2l0.2,0.1c9,4.9,15.4,15.1,15.4,24.9c0,20.9-12.7,29.9-42.6,30h-1v2
		c0.2,5,2.4,10.9,11.7,10.9h0.3c3.8,0,9.5-0.2,15.1-0.4c5.8-0.2,11.7-0.4,15.6-0.4c4.3,0,7.5-1.9,8.7-5v19.2
		c-1-4.1-3.8-6.6-10.3-6.6H47c-4.8,0-10,0.7-10.4,8.7h-0.3v-29.3c23.4-0.5,36.8-17.2,36.8-45.8v-1H62h-0.2l-0.1,0.1
		c-0.3,0.5-0.6,1-1,1.5l-0.4,0.5h10.5c-0.2,27.1-13.2,42.7-35.6,42.7h-1v33.4h4.3v-0.3c0-6.8,2.8-8.2,7-8.2h32.3
		c5.9,0,8.9,1.6,8.9,10.5v8.5l3.5-0.2L90,285h-3.5v17.4c0,4-2.6,6.2-7.2,6.2c-3.9,0-9.4,0.2-15.7,0.4c-5.6,0.2-11.4,0.4-15.1,0.4
		c-6.1,0-9.4-3-9.8-8.8c30.5-0.3,43.6-9.8,43.6-32c0-10.6-6.9-21.7-16.9-26.9l-0.2-0.1l-0.1,0.1C64.8,242,64.7,242.5,64.6,243z"/>
	<path class="st1" d="M19,290.6c0,3.7,0.2,7.6,0.5,11.6c0.7,7.9,2.1,14.8,4.2,20.4l0.2,0.5l1.4-2V321c-1.9-5.5-3.2-12-3.8-19.4
		c-0.3-3.2-0.4-6.7-0.4-11.1c0-9.7,5.5-20.1,14.6-27.9l0.5-0.4l-0.6-0.1c-0.3,0-0.6-0.1-0.8-0.2c-0.3-0.1-0.6-0.2-0.9-0.2h-0.1
		l-0.1,0.1C24.5,269.8,19,280.6,19,290.6z"/>
	<path class="st1" d="M17.7,310.3c0-2.4,0-4.8,0.1-7.1c0.6-18.5,3.7-33.9,9.1-44.6l0.1-0.2l-1.7-1.2l-0.2,0.3
		c-5.6,11.2-8.8,27.3-9.4,46.4c-0.1,2.1-0.1,4.3-0.1,6.4V353h0.6l0.4-8.2c0.4-3.9,0.5-4.3,1.1-6.7V310.3z"/>
</g>
<g>
	<path class="st1" d="M65.5,238.4c0,13.6-11,24.6-24.6,24.6s-24.6-11-24.6-24.6l0,0c0-13.6,11-24.6,24.6-24.6S65.5,224.8,65.5,238.4
		z M18.5,238.4L18.5,238.4c0,12.4,10.1,22.4,22.5,22.4s22.4-10.1,22.4-22.5s-10.1-22.4-22.5-22.4l0,0C28.5,216,18.4,226,18.5,238.4
		L18.5,238.4z"/>
	<path class="st1" d="M65.9,238.4c0,13.8-11.2,25-25,25s-25-11.2-25-25s11.2-25,25-25S65.9,224.6,65.9,238.4z M16.7,238.4
		c0,13.4,10.9,24.2,24.2,24.2c13.4,0,24.2-10.9,24.2-24.2s-10.9-24.2-24.2-24.2C27.5,214.2,16.7,225,16.7,238.4z M63.8,238.3
		c0,12.6-10.2,22.9-22.8,22.9S18.1,251,18.1,238.4c0-6.1,2.3-11.8,6.6-16.1c4.3-4.3,10-6.7,16.1-6.7
		C53.5,215.5,63.8,225.8,63.8,238.3z M18.9,238.4c0,12.2,9.9,22,22.1,22s22-9.9,22-22.1s-9.9-22-22.1-22c-5.9,0-11.5,2.4-15.6,6.5
		C21.1,227,18.8,232.5,18.9,238.4L18.9,238.4z"/>
</g>
</svg>
