<?xml version="1.0" encoding="utf-8"?>
<!-- Generator: Adobe Illustrator 24.0.1, SVG Export Plug-In . SVG Version: 6.00 Build 0)  -->
<svg version="1.1" id="Calque_1" xmlns="http://www.w3.org/2000/svg" xmlns:xlink="http://www.w3.org/1999/xlink" x="0px" y="0px"
	 viewBox="0 0 296.6 152.7" style="enable-background:new 0 0 296.6 152.7;" xml:space="preserve">
<title>zipperlogomini</title>
<rect x="84.9" y="0.4" width="22.9" height="73.3"/>
<polygon points="0,22.5 41.8,22.5 0.1,49.6 0.1,49.6 0.1,73.7 80.3,73.6 80.2,51.5 38.8,51.5 80.2,24.4 80.2,24.4 80.2,0.3 0,0.4 
	"/>
<path d="M53.9,107.4c-2.1,0-3.9-1.7-3.9-3.9c0-2.1,1.7-3.9,3.9-3.9c2.1,0,3.9,1.7,3.9,3.9l0,0C57.8,105.7,56.1,107.4,53.9,107.4z
	 M53.9,101.1c-1.4,0-2.5,1.1-2.5,2.4c0,1.4,1.1,2.5,2.4,2.5c1.4,0,2.5-1.1,2.5-2.4l0,0C56.4,102.2,55.3,101.1,53.9,101.1z"/>
<path d="M268.5,49.3c-4.9,9.1-15.2,15.5-25.1,15.5c-21.2,0-30.2-12.8-30.2-42.9v-0.7h-0.7c-5.3,0-11.6,2-11.7,11.4v0.3
	c0,3.8,0.2,9.6,0.4,15.1c0.2,5.7,0.4,11.7,0.4,15.6c0,5.2,2.7,8.6,7.1,9h-25.9c6.6-0.3,10.6-2.4,10.6-10.6V31.4
	c0-4.7-0.7-9.8-8.7-10.1v-0.9h29.9c0.4,23.4,17,36.8,45.5,36.8h0.7V46.4c-0.5-0.3-1-0.6-1.5-1v10.2c-27.5-0.2-43.3-13.3-43.3-36
	v-0.7h-17.9c-1.8-3.7-4.4-6.9-7.6-9.5c7.9-2.8,17.9-4.2,30.6-4.2c9.9,0,20.3,5.5,28.2,14.7c0.1-0.6,0.3-1.1,0.4-1.7
	c-8-9.1-18.7-14.5-28.6-14.5c-13,0-23.8,1.6-31.9,4.7c-4.7-3.2-9.9-5.5-15.5-6.6h27.7c21.7,0,39.6,3.2,51.8,9.2
	c0.3-0.4,0.6-0.8,0.9-1.2c-12.5-6.2-30.7-9.5-52.7-9.5h-34.5v0.4c-3.2-0.3-6.5-0.5-9.8-0.5H113l0.1,73.4h25.3V42.4h0.7
	c0.1,11.2,11.7,23.7,27.2,23.6c10.1,0,19.1-3.6,25.4-10v6c0,6-1.7,9.2-10.8,9.2h-8.2l0.2,2.9l53.6-0.1v-3h-17.1
	c-4.1,0-6.5-2.8-6.5-7.5c0-4-0.2-9.9-0.4-15.6s-0.4-11.4-0.4-15.2c0-6.5,3.2-9.8,9.4-10.1c0.2,30.6,9.7,43.6,31.7,43.6
	c10.6,0,21.5-6.9,26.6-16.7C269.5,49.5,269,49.4,268.5,49.3z M162.5,42.1c-6.1-0.1-12-2.2-16.8-6c-4.3-3.3-7.2-7.5-7.3-10.6h21.8
	c2.3,0,4.6,0.1,6.8,0.4h0.2l0.4,0.1l0.4,0.1h0.2c0.7,0.1,1.3,0.2,1.9,0.4l0.4,0.1l0.3,0.1c0.1,0,0.3,0.1,0.4,0.1
	c3.1,1.1,4.5,3,4.5,6C175.8,39.2,168.9,42.1,162.5,42.1L162.5,42.1z"/>
<path d="M202.1,142.2c0-3.9-0.2-10.1-0.4-16.1V126c-0.2-5.9-0.4-12.1-0.4-15.8c0-5.3,1.3-8.3,7.9-8.3h0.7V99h-27.6v2.9h0.7
	c5.1,0,7.8,1.4,7.8,8.5v30.3c0,5.9-1.7,9.1-10.7,9.1H167l0.2,2.9l45.8-0.1v-2.9h-4.8C204.5,149.6,202.1,146.9,202.1,142.2z
	 M182.4,151.1c6.3-0.4,10.1-2.5,10.1-10.5v-30.3c0-4.6-0.6-9.4-7.9-10h23.2c-7,0.5-8,5-8,9.8c0,3.7,0.2,9.7,0.4,15.6v0.3
	c0.2,5.8,0.4,12.3,0.4,16.2c0,5.1,2.6,8.4,6.9,8.8L182.4,151.1z"/>
<path d="M274.7,149.9c-12.1,0-28-5.3-42.7-14.3c-13.2-8-22.5-17.2-23.2-23l19.5-0.1c0.2,15.1,7,23,19.5,23
	c13.2,0,27.5-9.2,27.5-24.1c0-19-28.3-31.8-70.4-31.8H171l0.1,53.5h2.8v-15.6c0-29.5,22.4-33.2,45.3-33.3
	c23.7,0,42.3,15.6,42.3,35.6v4.8c-20.3-0.2-30.1-8.4-30.2-25v-0.7h-0.7c-15.6,0-28.3,9.9-28.3,22.1c0,8.3,5.9,16,16.5,21.5
	c12.8,6.7,31.7,10.1,55.9,10.1h0.7V150L274.7,149.9z M219.4,141.1c-10.1-5.3-15.7-12.4-15.7-20.2c0-5.4,2.7-10.5,7.6-14.4
	c5.3-4,11.8-6.2,18.4-6.2c0.3,17.3,10.9,25.8,32.4,25.8h0.7v-6.2c0-20.8-19.3-37.1-43.8-37.1c-22.6,0-44.4,4.2-46.6,29.9V81.1h32.4
	c41.2,0,68.9,12.1,68.9,30.3c0,14-13.5,22.6-26,22.6c-12,0-18-7.5-18-22.3V111l-22.3,0.1h-0.2v0.7c0,6.2,9.2,15.9,23.5,24.6
	c12.7,7.8,26.1,12.9,37.5,14.4C247.5,150.3,230.7,147,219.4,141.1L219.4,141.1z"/>
<path d="M76.8,101c24.9-13.5,65.6-19.8,86.8-19.9v31c-1.2-19.7-9.1-27.2-27.9-27.1c-14.3,0-21.9,5-21.9,14.5v14.6h0.7
	c8.8,0,17-2,23.3-5.5c5.6-3.2,9-7.2,9.9-11.7l0.1,26.3c-0.8-6.3-4.4-8.8-12.2-8.8h-30.3V98.8h-0.7c-12,0-21.4,0.6-27.8,3.1
	c0,0.6,0.1,1.1,0.1,1.7c5.3-2.2,13.4-3.2,26.9-3.2V116h31.8c8.2,0,10.9,2.6,10.9,10.2v0.7h2.8L149.2,94v-0.1h-2.7v0.7
	c0,9.8-14,17.9-31.3,18.1V99.5c0-10.7,11.1-13,20.4-13c19.6,0,26.6,8.1,26.6,31.1v15.6h2.8V79.6h-0.7c-15.5,0-42.9,3.5-66.4,11
	c-7.4,2.3-14.5,5.2-21.4,8.8C76.7,99.9,76.8,100.5,76.8,101z"/>
<path d="M169.5,151.4c-22.2-25.2-52.7-34.3-67.8-34.3c-5.1,0-8.2,1.1-9.4,3.3c-2,3.8,2.2,9.7,6.1,15.5c3.3,4.8,6.8,9.8,5.6,12.1
	c-0.6,1.1-2.4,1.7-5.3,1.7c-2.8,0-9.7-1.7-16.5-6.1c-5.6-3.7-12.4-10.3-13.7-20.9c-0.4,0.4-0.9,0.7-1.3,1.1
	c3.1,19.3,23.8,27.5,31.5,27.5c3.6,0,5.8-0.8,6.7-2.5c1.6-3.1-1.9-8.2-5.7-13.7c-3.6-5.1-7.6-11-6-13.9c0.9-1.7,3.6-2.5,8.1-2.5
	c14.5,0,43.8,8.6,65.6,32.6H132c2.1,0,4.2-0.5,6.1-1.4c1.6-0.7,2.7-2.4,2.7-4.2c0-9.4-25.9-26.5-40.2-26.5c-2.8,0-4.1,0.5-4.5,1.6
	c-0.7,2.1,3.2,4.9,10.6,9.9s17.4,12,16.2,15.9c-0.6,2.1-4.9,4.6-21.7,4.6c-29.8,0-45.2-7.7-45.7-22.9c-0.5,0.1-1,0.1-1.5,0.1
	c0.6,16.1,16.4,24.2,47.1,24.2c14.6,0,21.9-1.8,23.1-5.7c1.6-5-8.2-11.7-16.8-17.6c-4.1-2.8-10.4-7.1-10.1-8.3c0,0,0.3-0.6,3.1-0.6
	c14.4,0,38.7,17,38.7,25c0,1.3-0.7,2.4-1.9,2.9c-1.5,0.8-4,1.2-7.2,1.3h-0.8v2.9l41.3-0.1L169.5,151.4z"/>
<path d="M53.9,128.1c-13.6,0-24.6-11-24.6-24.6S40.4,79,53.9,79l0,0c13.6,0,24.6,11,24.6,24.6S67.5,128.1,53.9,128.1z M53.9,81.1
	L53.9,81.1c-12.4,0-22.4,10.1-22.4,22.5C31.5,116,41.6,126,54,126s22.4-10,22.4-22.4S66.4,81.1,53.9,81.1L53.9,81.1z"/>
<path d="M272.1,28.4c-2.1,0-3.9-1.7-3.9-3.9c0-2.1,1.7-3.9,3.9-3.9s3.9,1.7,3.9,3.9l0,0C275.9,26.7,274.2,28.4,272.1,28.4z
	 M272.1,22.1c-1.4,0-2.4,1.1-2.4,2.5s1.1,2.4,2.5,2.4s2.4-1.1,2.4-2.5l0,0C274.5,23.2,273.4,22.1,272.1,22.1L272.1,22.1L272.1,22.1z
	"/>
<path d="M272,49.1c-13.6-0.3-24.3-11.5-24.1-25.1c0.3-13.1,11-23.7,24.1-24l0,0c13.6,0.3,24.3,11.5,24.1,25.1
	C295.9,38.2,285.2,48.9,272,49.1z M272,2.1L272,2.1c-12.4,0-22.4,10.1-22.4,22.5S259.7,47,272.1,47s22.4-10.1,22.4-22.5l0,0
	C294.5,12.2,284.4,2.1,272,2.1L272,2.1z"/>
</svg>
