<?xml version="1.0" encoding="utf-8"?>
<!-- Generator: Adobe Illustrator 24.0.1, SVG Export Plug-In . SVG Version: 6.00 Build 0)  -->
<svg version="1.1" id="Calque_1" xmlns="http://www.w3.org/2000/svg" xmlns:xlink="http://www.w3.org/1999/xlink" x="0px" y="0px"
	 viewBox="0 0 546 123.2" style="enable-background:new 0 0 546 123.2;" xml:space="preserve">
<style type="text/css">
	.st0{fill-rule:evenodd;clip-rule:evenodd;fill:#FDFFFF;}
	.st1{stroke:#000000;stroke-width:0.5669;stroke-miterlimit:10;}
	.st2{fill-rule:evenodd;clip-rule:evenodd;}
	.st3{fill:none;}
	.st4{fill:#5D50D3;stroke:#5D50D3;stroke-width:0.7087;stroke-miterlimit:10;}
</style>
<title>zipperlogo</title>
<polygon class="st0" points="299.4,52.9 296.8,54.1 294.5,52.4 294.8,49.7 297.4,48.5 299.6,50.1 "/>
<path class="st1" d="M446.8,89.4c0-3.9-0.2-10.1-0.4-16.2v-0.1c-0.2-5.9-0.4-12.1-0.4-15.8c0-5.3,1.3-8.3,7.9-8.3h0.7v-2.9H427V49
	h0.7c5.1,0,7.8,1.3,7.8,8.5v30.3c0,5.9-1.7,9-10.7,9.1h-13.1l0.2,2.9H458v-2.9h-4.8C449.2,96.8,446.8,94.1,446.8,89.4z M427.1,98.3
	c6.3-0.3,10.1-2.6,10.1-10.5V57.5c0-4.5-0.6-9.4-7.9-9.9h23.2c-7,0.5-8,5-8,9.8c0,3.7,0.2,9.7,0.4,15.6v0.3
	c0.2,5.8,0.4,12.3,0.4,16.2c0,5.1,2.6,8.4,6.9,8.8H427.1z"/>
<path class="st1" d="M519.3,97.1c-12.1,0-28-5.3-42.7-14.3c-13.2-8-22.5-17.3-23.2-23l19.5-0.1c0.2,15.1,7,23,19.5,23
	c13.2,0,27.5-9.2,27.5-24.1c0-19-28.3-31.8-70.4-31.8h-33.9l0.1,53.5h2.8l-0.1-15.6c0-29.5,22.4-33.2,45.3-33.3
	C487.4,31.4,506,47,506,67v4.8c-20.3-0.2-30.1-8.3-30.1-25v-0.7h-0.7c-15.6,0-28.3,9.9-28.3,22.1c0,8.3,5.9,16,16.5,21.5
	c12.9,6.7,31.7,10.1,55.9,10.1h0.7v-2.6L519.3,97.1z M464.1,88.3C454,83,448.5,75.9,448.5,68.1c0-5.4,2.7-10.5,7.6-14.4
	c5.3-4,11.7-6.2,18.4-6.2c0.3,17.4,10.9,25.8,32.4,25.8h0.7v-6.2c0-20.8-19.3-37.1-43.8-37.1c-22.6,0-44.4,4.2-46.6,29.9V28.3h32.4
	c41.2,0,68.9,12.1,68.9,30.3c0,14-13.5,22.6-26.1,22.6c-12,0-18-7.5-18-22.3v-0.8L452,58.3h-0.1V59c0,6.2,9.2,15.9,23.5,24.7
	c12.7,7.8,26.1,12.9,37.5,14.4C492.2,97.6,475.4,94.2,464.1,88.3L464.1,88.3z"/>
<rect x="108.8" y="26.4" width="22.9" height="73.3"/>
<polygon points="23.9,48.5 65.7,48.5 24,75.6 24,75.6 24,99.7 104.2,99.6 104.1,77.5 62.6,77.5 104.1,50.4 104.1,50.4 104.1,26.3 
	23.9,26.4 "/>
<path d="M297.1,55.1c-2.1,0-3.9-1.7-3.9-3.9c0-2.1,1.7-3.9,3.9-3.9s3.9,1.7,3.9,3.9l0,0C301,53.4,299.2,55.1,297.1,55.1z
	 M297.1,48.8c-1.4,0-2.5,1.1-2.5,2.4c0,1.4,1.1,2.5,2.5,2.5s2.5-1.1,2.5-2.5C299.6,49.9,298.5,48.8,297.1,48.8L297.1,48.8
	L297.1,48.8z"/>
<path class="st1" d="M321.5,48.3c25-13.5,65.6-19.8,86.8-19.9v31c-1.2-19.7-9.1-27.2-27.9-27.1c-14.3,0-21.9,5-21.9,14.5v14.6h0.7
	c8.8,0,17-2,23.3-5.5c5.6-3.2,9-7.2,10-11.7l0.1,26.3c-0.8-6.3-4.4-8.8-12.2-8.8H350V46h-0.7c-12,0-21.4,0.6-27.8,3.1
	c0,0.5,0.1,1.1,0.1,1.7c5.3-2.2,13.4-3.2,26.9-3.2v15.6h31.8c8.2,0,10.9,2.6,10.9,10.2V74h2.8V41.1V41h-2.7v0.8
	c0,9.8-14,17.8-31.3,18.1V46.7c0-10.7,11.1-13,20.4-13c19.6,0,26.6,8.1,26.6,31.1v15.6h2.8l-0.1-53.6H409c-15.5,0-42.9,3.5-66.4,11
	c-7.4,2.3-14.5,5.2-21.4,8.8C321.3,47.2,321.5,47.7,321.5,48.3z"/>
<path class="st1" d="M414.1,98.7c-22.2-25.2-52.7-34.3-67.9-34.3c-5.1,0-8.2,1.1-9.4,3.3c-2,3.8,2.1,9.7,6.1,15.5
	c3.3,4.8,6.8,9.8,5.6,12.1c-0.6,1.1-2.4,1.7-5.4,1.7c-2.8,0-9.7-1.7-16.5-6.1c-5.5-3.7-12.4-10.3-13.7-20.9
	c-0.4,0.4-0.9,0.7-1.3,1.1c3.1,19.3,23.8,27.5,31.6,27.5c3.6,0,5.8-0.8,6.7-2.5c1.6-3.1-1.9-8.2-5.7-13.7c-3.5-5.1-7.6-11-6-13.9
	c0.9-1.7,3.6-2.5,8.1-2.5c14.5,0,43.8,8.7,65.6,32.6h-35.5c2.1,0,4.2-0.5,6.1-1.4c1.6-0.8,2.7-2.4,2.7-4.2
	c0-9.4-25.9-26.5-40.2-26.5c-2.8,0-4.1,0.5-4.5,1.6c-0.6,2.1,3.2,4.8,10.6,9.9s17.4,12,16.2,16c-0.6,2.1-4.9,4.6-21.7,4.6
	c-29.8,0-45.1-7.7-45.7-22.9c-0.5,0.1-1,0.1-1.5,0.1c0.6,16.1,16.4,24.3,47.1,24.2c14.6,0,21.9-1.8,23.1-5.7
	c1.6-5-8.2-11.7-16.8-17.6c-4.1-2.8-10.4-7.1-10-8.3c0,0,0.2-0.6,3-0.6c14.4,0,38.7,17,38.7,25c0,1.2-0.8,2.4-1.9,2.9
	c-1.5,0.8-4,1.3-7.2,1.3h-0.7v2.9l41.3-0.1L414.1,98.7z"/>
<path shape-rendering="geometricPrecision" text-rendering="geometricPrecision" image-rendering="optimizeQuality" class="st2" d="
	M517.1,30.8c0,0.3,0.2,0.5,0.5,0.5h0.7c1,0,2,0,2-1.2c0-1-0.9-1.2-1.7-1.2h-1c-0.3,0-0.5,0.2-0.5,0.5V30.8z M515.9,28.5
	c0-0.3,0.2-0.5,0.5-0.5h2.4c1.8,0,2.6,0.7,2.6,2.2c0,1.1-0.5,1.7-1.3,1.9c-0.3,0.1-0.5,0.5-0.3,0.8l1.2,1.9c0.2,0.4,0,0.8-0.4,0.8
	l0,0c-0.2,0-0.3-0.1-0.4-0.2l-1.7-2.8c-0.1-0.2-0.3-0.2-0.4-0.2h-0.4c-0.3,0-0.5,0.2-0.5,0.5V35c0,0.3-0.2,0.5-0.5,0.5h-0.1
	c-0.3,0-0.5-0.2-0.5-0.5v-6.5H515.9z M518.5,37.2c3,0,5.3-2.4,5.3-5.5s-2.3-5.5-5.3-5.5s-5.3,2.4-5.3,5.5
	C513.1,34.9,515.4,37.2,518.5,37.2z M518.5,25.3c3.5,0,6.4,2.8,6.4,6.4c0,3.7-2.9,6.5-6.4,6.5s-6.5-2.8-6.5-6.5
	C512,28,514.9,25.3,518.5,25.3L518.5,25.3z"/>
<path class="st3" d="M195.1,52.7l-0.4-0.1l-0.3-0.1l-0.4-0.1c-0.6-0.2-1.3-0.3-1.9-0.4h-0.2l-0.4-0.1h-0.4h-0.2
	c-2.2-0.3-4.5-0.4-6.8-0.4h-21.8c0.1,3.1,2.9,7.3,7.3,10.6c4.8,3.8,10.7,5.9,16.8,6c6.4,0,13.3-2.9,13.2-9.4
	C199.6,55.7,198.2,53.8,195.1,52.7z"/>
<path class="st3" d="M208.4,29.4c0,0-8.4-1-10.9-1.6c5.6,1.1,10.8,3.4,15.5,6.6C211.6,33.4,208.4,29.4,208.4,29.4z"/>
<path class="st3" d="M214.4,35.4c3.2,2.6,5.8,5.8,7.6,9.5l-0.5-4.6L214.4,35.4z"/>
<path d="M215.6,56c0-4.6-1.7-7.3-8.5-7.3V45H222c-1.8-3.7-4.4-6.9-7.6-9.5c0,0,0,0-1.4-1c-4.7-3.2-9.9-5.5-15.5-6.6
	c-2.5-0.6-2.9-0.7-6.8-1.1c-3.2-0.4-6.5-0.5-9.8-0.5h-44.1l0.1,73.4h25.3V68.5h0.7c0.1,11.2,11.7,23.7,27.3,23.7
	c10.1,0,19.1-3.6,25.4-10v0.4l0,0C215.6,82.6,215.6,60.2,215.6,56z M186.4,68.1c-6.1-0.1-12-2.2-16.8-6c-4.4-3.3-7.2-7.5-7.3-10.6
	h21.8c2.3,0,4.6,0.1,6.8,0.4h0.2h0.4l0.4,0.1h0.2c0.6,0.1,1.3,0.2,1.9,0.4l0.4,0.1l0.3,0.1l0.4,0.1c3.1,1.1,4.5,3,4.5,6
	C199.7,65.2,192.8,68.1,186.4,68.1z"/>
<path class="st1" d="M292.4,75.3c-4.9,9.1-15.2,15.5-25.1,15.5c-21.2,0-30.2-12.8-30.3-42.9v-0.7h-0.7c-0.3,0-0.6,0-1,0
	c-5.1,0.2-10.6,2.5-10.6,11.4v0.1v0.1v0.1c0,3.8,0.2,9.6,0.4,15.1c0.2,5.7,0.4,11.7,0.4,15.6c0,5.2,2.7,8.6,7.1,9h-25.9
	c6.6-0.3,10.6-2.4,10.6-10.6V57.4c0-4.8-0.7-9.8-8.7-10.1v-0.9h26.8h3.1c0.4,23.4,17,36.8,45.5,36.8h0.7V72.4c-0.5-0.3-1-0.6-1.5-1
	v10.2c-27.5-0.2-43.3-13.3-43.3-36v-0.7h-4.5H222h-14.9v3.7c6.9,0,8.5,2.8,8.5,7.3c0,4.3,0,26.7,0,26.7l0,0v5.6
	c0,6-1.7,9.2-10.8,9.2h-8.2l0.2,2.9l53.5-0.2v-2.9h-17.1c-4.1,0-6.5-2.8-6.5-7.5c0-4-0.2-9.9-0.4-15.6s-0.4-11.4-0.4-15.2
	c0-6.4,3.2-9.8,9.4-10.1l0,0c0.2,30.6,9.7,43.6,31.7,43.6c10.6,0,21.5-6.9,26.6-16.7C293.4,75.5,292.9,75.4,292.4,75.3z"/>
<g>
	<path class="st1" d="M244.9,29.7c-4.1,0-8,0.2-11.6,0.5c-7.9,0.7-14.7,2.1-20.3,4.2c1.4,1,1.4,1,1.4,1c5.4-1.9,11.9-3.2,19.5-3.8
		c3.5-0.3,7.2-0.4,11.1-0.4c9.9,0,20.3,5.5,28.1,14.7c0.1-0.6,0.3-1.1,0.4-1.7C265.5,35.1,254.8,29.7,244.9,29.7z"/>
	<path class="st1" d="M231.6,26.4c-2.1-0.1-4.3-0.1-6.4-0.1h-42.7l8.2,0.4c3.9,0.4,4.3,0.5,6.8,1.1h27.7c2.4,0,4.8,0,7.1,0.1
		c18.5,0.6,33.9,3.7,44.7,9.1c0.3-0.4,0.6-0.8,0.9-1.2C266.6,30.2,250.7,27,231.6,26.4z"/>
</g>
<path class="st4" d="M297.1,75.9c-13.6,0-24.6-11-24.6-24.6s11-24.6,24.6-24.6l0,0c13.6,0,24.6,11,24.6,24.6S310.7,75.9,297.1,75.9z
	 M297.1,28.9L297.1,28.9c-12.4,0-22.4,10.1-22.4,22.5s10.1,22.4,22.5,22.4s22.4-10.1,22.4-22.5l0,0
	C319.5,38.9,309.5,28.8,297.1,28.9L297.1,28.9z"/>
</svg>
