<?xml version="1.0" encoding="utf-8"?>
<!-- Generator: Adobe Illustrator 24.0.1, SVG Export Plug-In . SVG Version: 6.00 Build 0)  -->
<svg version="1.1" id="Calque_1" xmlns="http://www.w3.org/2000/svg" xmlns:xlink="http://www.w3.org/1999/xlink" x="0px" y="0px"
	 viewBox="0 0 1052.8 618.4" style="enable-background:new 0 0 1052.8 618.4;" xml:space="preserve">
<style type="text/css">
	.st0{fill:#C7C7C6;}
	.st1{fill:none;stroke:#B2B2B2;stroke-width:2.126;stroke-miterlimit:10;}
	.st2{fill:none;}
	.st3{font-family:'MonumentExtended-Regular';}
	.st4{font-size:48px;}
	.st5{font-family:'Helvetica-LightOblique';}
	.st6{font-size:38px;}
	.st7{letter-spacing:2;}
</style>
<g>
	<path class="st0" d="M140.7,112.9c-5.9,0-10.2,0.8-15,2.9c-1.5,0.6-3.1-0.8-2.5-2.5l1.2-4.8c0.2-0.8,1-1.5,1.9-1.5h27.6
		c1.2,0,1.9-0.8,1.9-2.1v-5.8c0-1.3-0.8-2.1-1.9-2.1h-36c-1,0-1.7,0.6-1.9,1.7l-5,21.5c-0.2,1.3,0.4,2.3,1.5,2.5l6.9,1.5
		c0.4,0,0.8,0,1.2-0.2c7.3-3.1,11.7-4.2,15.9-4.2c8.8,0,11.1,3.1,11.1,7.7c0,5-3.1,8.1-12.7,8.1c-8.8,0-14-1.3-15-5.4
		c-0.2-0.8-1-1.7-1.9-1.7h-7.9c-1.2,0-2.1,1-1.9,2.3c1.2,12.3,12.3,15.2,26.3,15.2c15,0,24.3-5,24.3-17.1
		C159.1,118.7,152.2,112.9,140.7,112.9z"/>
	<path class="st0" d="M213.1,127.1H208c-1.2,0-1.9-0.8-1.9-2.1V99.1c0-1.3-0.8-2.1-1.9-2.1h-8.8c-0.4,0-1,0.2-1.3,0.4l-30.1,29
		c-0.4,0.4-0.6,1-0.6,1.7v7.5c0,1.3,0.8,2.1,1.9,2.1h27.6c1.2,0,1.9,0.8,1.9,2.1v3.8c0,1.3,0.8,2.1,1.9,2.1h7.7
		c1.2,0,1.9-0.8,1.9-2.1v-3.8c0-1.3,0.8-2.1,1.9-2.1h5.2c1.2,0,1.9-0.8,1.9-2.1v-6.5C215.1,128.1,214.3,127.1,213.1,127.1z
		 M194.9,125h-0.2c0,1.3-0.8,2.1-1.9,2.1h-11.9c-1.7,0-2.7-2.5-1.2-3.8l11.9-11.1c1.3-1.3,3.3-0.2,3.3,1.7L194.9,125L194.9,125z"/>
	<path class="st0" d="M240.3,18.4H85.1c-13.2,0-23.9,10.7-23.9,23.9v140.2c0,13.2,10.7,23.9,23.9,23.9h155.2
		c13.2,0,23.9-10.7,23.9-23.9V42.3C264.1,29.1,253.4,18.4,240.3,18.4z M85.1,21.3h155.2c8,0,15,4.5,18.5,11.1
		c-2.8,11.2-5.6,22.4-8.5,33.5c-9.4-0.8-16.1-4.6-23.8-11.1c-5.8-4.8-11.7-8.1-19.2-8.1c-7.9,0-13.8,3.8-19.7,9.2
		c-7.7,6.9-14.8,10.2-24.9,10.2c-10.4,0-17.8-3.5-25.7-10.2c-6.1-5.2-12.3-9-20.1-9.2c-7.3,0-13.2,3.1-18.6,8.1
		c-7.5,6.7-13.6,10.2-23,11.1c-2.9-11.3-5.7-22.6-8.6-33.9C70.3,25.6,77.2,21.3,85.1,21.3z M246.9,79.9c-6.5,26.1-13,52-19.6,78
		c-43.1,0-86.1,0-129.2,0c-6.5-26.1-13-52-19.6-78c7.7-1,15-3.3,21.5-8.6c5.4-4.2,9.6-10.2,16.7-10.2c7.7,0,12.8,7.1,18.8,11.3
		c8.1,5.8,17.6,7.9,27.2,7.9c9.4,0,18.8-2.1,26.8-7.9c5.8-4.2,10.4-11.3,17.8-11.3c7.1,0,11.9,6.1,17.4,10.2
		C231.5,76.6,239,78.9,246.9,79.9z M240.3,203.4h-9.9c2.9-4.1,1.2-11.7-5-11.7c-42.4,0-84.5,0-126.9,0c-6.2,0-7.8,7.6-5,11.7H85
		c-11.6,0-21-9.4-21-21V75.8c7.6,30.4,15.2,60.8,22.7,91.2c0.8,2.9,3.5,5.2,6.3,5.2c46.4,0,92.8,0,139.2,0c2.9,0,5.6-2.3,6.3-5.2
		c7.5-30.1,15-60.3,22.6-90.4v105.9C261.2,194,251.8,203.4,240.3,203.4z"/>
</g>
<path class="st0" d="M510,177.1v5.4c0,4.9-1.7,9.5-4.6,13.1c0.7,0.7,1.4,1.4,2.1,2c3.4-4.1,5.4-9.4,5.4-15.1v-8.7
	C512.2,175.1,511.2,176.3,510,177.1z"/>
<path class="st0" d="M510,42.3V163c0.8,1.3,1.7,2.6,2.5,3.9c0.1,0.2,0.2,0.4,0.3,0.6V42.3c0-3.7-0.8-7.1-2.3-10.2
	c-0.7,0.7-1.5,1.4-2.2,2.1C509.4,36.6,510,39.4,510,42.3z"/>
<path class="st0" d="M510,163v14.1c1.2-0.8,2.2-2,2.9-3.4v-6.3c-0.1-0.2-0.2-0.4-0.3-0.6C511.7,165.6,510.9,164.3,510,163z"/>
<path class="st0" d="M487.8,53.8c6.9-6.5,13.7-13.1,20.6-19.6c0.7-0.7,1.5-1.4,2.2-2.1c-2.1-4.5-5.6-8.1-9.9-10.6
	c-3.5-2-7.5-3.1-11.7-3.1H333.8c-3.9,0-7.6,0.9-10.8,2.6c-4.4,2.2-8,5.8-10.3,10.1c-1.8,3.3-2.8,7.1-2.8,11.1v123.3v9.3v7.6
	c0,5.8,2.1,11.2,5.6,15.3c3.2,3.8,7.6,6.7,12.6,7.9c1.8,0.4,3.7,0.7,5.7,0.7H489c2,0,3.9-0.3,5.8-0.7c5-1.3,9.4-4.1,12.6-8
	c-0.7-0.7-1.4-1.4-2.1-2c-5.9-5.8-12-11.6-18.2-17.4c6.5,0,13,0,19.6,0c1.1,0,2.2-0.4,3.2-1.1V163c-17.6-26.7-35.1-53.1-52.9-79.8
	C467.3,73.4,477.7,63.6,487.8,53.8z M489,21.3c3.4,0,6.7,0.8,9.5,2.3c-16.4,15.7-33,31.4-49.4,47.1C438.6,54.8,428,39,417.7,23.1
	c-0.4-0.7-0.8-1.3-1.3-1.9L489,21.3L489,21.3z M411.9,126.2c12.8,12.3,25.7,24.4,38.3,36.7c-25.5,0-51,0-76.7,0
	C386.4,150.6,399.3,138.5,411.9,126.2z M352.7,163.1c-4.4-0.2-9-0.2-13.4-0.2c-3.5,0-7.1,0-10.5,0c15.7-23.8,31.4-47.6,47.2-71.1
	c8.6,8.1,17.1,16.3,25.7,24.6C385.3,132,369,147.5,352.7,163.1z M384.1,79.4c9-13.6,18-27.1,27-40.9c9.2,14,18.6,28,27.8,41.9
	c-9,8.6-17.8,17.1-26.8,25.7C402.7,97.2,393.5,88.2,384.1,79.4z M333.8,21.3h71.9c-0.5,0.6-1,1.2-1.3,1.9
	c-10.2,15.4-20.5,30.9-30.7,46.3c-9.2-8.8-18.6-17.7-27.8-26.5c-6.9-6.6-13.8-13.2-20.7-19.8C327.9,21.9,330.8,21.3,333.8,21.3z
	 M312.9,42.3c0-3.2,0.8-6.3,2.1-9c16.9,16.2,33.7,32.3,50.6,48.5c-17.6,26.4-35.1,53-52.7,79.5V42.3z M312.9,182.4v-5.2
	c0.7,0.3,1.5,0.5,2.3,0.5c7.1,0,14.4,0,21.5,0c-0.2,0.2-0.6,0.4-0.8,0.6c-6.1,5.8-12.1,11.6-18.2,17.4
	C314.6,192.1,312.9,187.5,312.9,182.4z M492.3,203.1c-1.1,0.2-2.1,0.3-3.3,0.3H333.8c-1.1,0-2.1-0.1-3.1-0.3
	c8.9-8.5,17.8-17,26.6-25.4c36,0,72.3,0,108.3,0c4,3.8,7.9,7.5,11.9,11.3C482.4,193.7,487.4,198.4,492.3,203.1z M493.4,162.9
	c-7.3,0-14.6,0-22,0c-16.3-15.6-32.6-31.1-48.9-46.7c8.2-7.7,16.3-15.6,24.5-23.4C462.5,116.2,477.9,139.5,493.4,162.9z"/>
<g>
	<path class="st0" d="M674.6,139.3c-4.4-2-9.4,0.3-11.3,5.1c-1.8,4.8,0.3,10.3,4.7,12.3s9.4-0.3,11.3-5.1S679,141.2,674.6,139.3z"/>
	<path class="st0" d="M733.1,18.4H577.9c-13.2,0-23.9,10.7-23.9,23.9v128.6v11.6c0,13.2,10.7,23.9,23.9,23.9h155.2
		c10.6,0,19.7-7,22.7-16.6c0.7-2.3,1.1-4.7,1.1-7.2v-70.9V57.4c-1-3-1.9-6-2.9-9c0.5,1.5,1,3,1.4,4.5c0.5,1.5,1,3,1.4,4.5V42.3
		C757,29.1,746.3,18.4,733.1,18.4z M555.5,161.5L555.5,161.5c0.1-0.3,0.1-0.6,0.2-0.9C555.6,160.9,555.6,161.2,555.5,161.5z
		 M556.9,154.7V42.3c0-11.6,9.4-21,21-21h8.9c-5.7,4.2-4.2,16.3,4.5,16.3c47.4,0,94.7,0,142.1,0c5.8,17.9,11.5,36.1,17.1,54
		c-11.7,0-23.2,0-34.9,0c-29.1,0-59-2.3-87.8,1.3c-19.7,2.5-39.9,9.2-53.7,25.7C565.4,128.9,560.1,141.4,556.9,154.7z M589.6,189.7
		c-6.9,0-13.6,0-20.5,0c0.6-20.4,3.6-42.4,16.1-58c12.3-15.4,31.4-20.4,49.3-21.9c27.6-2.3,55.8-0.6,83.4-0.6c12.1,0,24.1,0,36.2,0
		v73.3c0,2.5-0.5,5-1.3,7.2C698.5,189.7,644,189.7,589.6,189.7z"/>
</g>
<g>
	<path class="st0" d="M974.4,18.4H819.2c-13.2,0-23.9,10.7-23.9,23.9v140.2c0,13.2,10.7,23.9,23.9,23.9h155.2
		c13.2,0,23.9-10.7,23.9-23.9V42.3C998.3,29.1,987.6,18.4,974.4,18.4z M995.4,182.4c0,11.6-9.4,21-21,21H819.2c-11.6,0-21-9.4-21-21
		V42.3c0-11.6,9.4-21,21-21h155.2c11.6,0,21,9.4,21,21V182.4z"/>
	<path class="st0" d="M896.1,41.3c-45.7,0-82.9,31.9-82.9,71s37.2,71,82.9,71s82.9-31.9,82.9-71S941.8,41.3,896.1,41.3z
		 M896.1,166.1c-36.2,0-65.6-24.1-65.6-53.8s29.4-53.8,65.6-53.8s65.6,24.1,65.6,53.8S932.3,166.1,896.1,166.1z"/>
	<path class="st0" d="M896.1,101.1c-4.9,0-8.8,4.3-8.8,9.6c0,5.3,3.9,9.6,8.8,9.6c4.9,0,8.8-4.3,8.8-9.6
		C904.9,105.4,901,101.1,896.1,101.1z"/>
</g>
<rect x="61.2" y="249.2" class="st1" width="937.1" height="316.4"/>
<rect x="76.1" y="261.8" class="st2" width="904" height="338.8"/>
<text transform="matrix(1 0 0 1 76.0708 300.2076)" class="st0 st3 st4">Notes :</text>
<text transform="matrix(1 0 0 1 316.6708 300.2076)" class="st0 st5 st4">  «</text>
<text transform="matrix(1 0 0 1 370.0708 300.2076)" class="st0 st5 st6">ZIPPER(c), est une plateforme de </text>
<text transform="matrix(1 0 0 1 76.0708 348.2076)" class="st0 st5 st6">collaboration</text>
<text transform="matrix(1 0 0 1 295.6708 348.2076)" class="st0 st5 st6"> </text>
<text transform="matrix(1 0 0 1 305.9708 348.2076)" class="st0 st5 st6">en</text>
<text transform="matrix(1 0 0 1 348.2708 348.2076)" class="st0 st5 st6"> </text>
<text transform="matrix(1 0 0 1 358.4708 348.2076)" class="st0 st5 st6">ligne</text>
<text transform="matrix(1 0 0 1 440.8708 348.2076)" class="st0 st5 st6"> </text>
<text transform="matrix(1 0 0 1 451.1708 348.2076)" class="st0 st5 st6">destinée</text>
<text transform="matrix(1 0 0 1 596.8708 348.2076)" class="st0 st5 st6"> </text>
<text transform="matrix(1 0 0 1 607.1708 348.2076)" class="st0 st5 st6">aux</text>
<text transform="matrix(1 0 0 1 668.3708 348.2076)" class="st0 st5 st6"> </text>
<text transform="matrix(1 0 0 1 678.6708 348.2076)" class="st0 st5 st6">créateurs,</text>
<text transform="matrix(1 0 0 1 849.7708 348.2076)" class="st0 st5 st6"> </text>
<text transform="matrix(1 0 0 1 859.9708 348.2076)" class="st0 st5 st6">elle</text>
<text transform="matrix(1 0 0 1 919.1708 348.2076)" class="st0 st5 st6"> </text>
<text transform="matrix(1 0 0 1 929.3708 348.2076)" class="st0 st5 st6">est </text>
<text transform="matrix(1 0 0 1 76.0708 396.2076)" class="st0 st5 st6">conçu pour visualiser les multiples combinaisons</text>
<text transform="matrix(1 0 0 1 76.0708 444.2076)" class="st0 st5 st6">générée</text>
<text transform="matrix(1 0 0 1 217.5708 444.2076)" class="st0 st5 st6"> </text>
<text transform="matrix(1 0 0 1 229.1708 444.2076)" class="st0 st5 st6">par</text>
<text transform="matrix(1 0 0 1 286.1708 444.2076)" class="st0 st5 st6"> </text>
<text transform="matrix(1 0 0 1 297.8708 444.2076)" class="st0 st5 st6">son</text>
<text transform="matrix(1 0 0 1 359.0708 444.2076)" class="st0 st5 st6"> </text>
<text transform="matrix(1 0 0 1 370.6708 444.2076)" class="st0 st5 st6">concept</text>
<text transform="matrix(1 0 0 1 510.1708 444.2076)" class="st0 st5 st6"> </text>
<text transform="matrix(1 0 0 1 521.7708 444.2076)" class="st0 st5 st6">:</text>
<text transform="matrix(1 0 0 1 532.3708 444.2076)" class="st0 st5 st6"> </text>
<text transform="matrix(1 0 0 1 543.9708 444.2076)" class="st0 st5 st6">La</text>
<text transform="matrix(1 0 0 1 586.1708 444.2076)" class="st0 st5 st6"> </text>
<text transform="matrix(1 0 0 1 597.8708 444.2076)" class="st0 st5 st6">division</text>
<text transform="matrix(1 0 0 1 726.6708 444.2076)" class="st0 st5 st6"> </text>
<text transform="matrix(1 0 0 1 738.2708 444.2076)" class="st0 st5 st6">d’un</text>
<text transform="matrix(1 0 0 1 812.1708 444.2076)" class="st0 st5 st6"> </text>
<text transform="matrix(1 0 0 1 823.7708 444.2076)" class="st0 st5 st6">vêtement </text>
<text transform="matrix(1 0 0 1 76.0708 492.2076)" class="st0 st5 st6">en</text>
<text transform="matrix(1 0 0 1 118.3708 492.2076)" class="st0 st5 st6 st7"> </text>
<text transform="matrix(1 0 0 1 132.8708 492.2076)" class="st0 st5 st6">3</text>
<text transform="matrix(1 0 0 1 153.9708 492.2076)" class="st0 st5 st6 st7"> </text>
<text transform="matrix(1 0 0 1 168.5708 492.2076)" class="st0 st5 st6">parties,</text>
<text transform="matrix(1 0 0 1 295.2708 492.2076)" class="st0 st5 st6 st7"> </text>
<text transform="matrix(1 0 0 1 309.7708 492.2076)" class="st0 st5 st6">toutes</text>
<text transform="matrix(1 0 0 1 413.2708 492.2076)" class="st0 st5 st6 st7"> </text>
<text transform="matrix(1 0 0 1 427.7708 492.2076)" class="st0 st5 st6">modulables</text>
<text transform="matrix(1 0 0 1 626.2708 492.2076)" class="st0 st5 st6 st7"> </text>
<text transform="matrix(1 0 0 1 640.8708 492.2076)" class="st0 st5 st6">entres</text>
<text transform="matrix(1 0 0 1 746.4708 492.2076)" class="st0 st5 st6 st7"> </text>
<text transform="matrix(1 0 0 1 760.9708 492.2076)" class="st0 st5 st6">elles</text>
<text transform="matrix(1 0 0 1 839.0708 492.2076)" class="st0 st5 st6 st7"> </text>
<text transform="matrix(1 0 0 1 853.6708 492.2076)" class="st0 st5 st6">à</text>
<text transform="matrix(1 0 0 1 874.7708 492.2076)" class="st0 st5 st6 st7"> </text>
<text transform="matrix(1 0 0 1 889.2708 492.2076)" class="st0 st5 st6">l’aide </text>
<text transform="matrix(1 0 0 1 76.0708 540.2076)" class="st0 st5 st6">de zip.» La plateforme est totalement gratuite.</text>
</svg>
