<?xml version="1.0" encoding="utf-8"?>
<!-- Generator: Adobe Illustrator 24.0.1, SVG Export Plug-In . SVG Version: 6.00 Build 0)  -->
<svg version="1.1" id="Calque_1" xmlns="http://www.w3.org/2000/svg" xmlns:xlink="http://www.w3.org/1999/xlink" x="0px" y="0px"
	 viewBox="0 0 193.6 164.9" style="enable-background:new 0 0 193.6 164.9;" xml:space="preserve">
<title>1.icons</title>
<path d="M97.4,76.7c-13.9,13.9-27.8,27.8-41.8,41.8c-2.6,2.6-5.1,5.1-7.7,7.7c-6.3,6.3-17.8,6.8-24.1,0c-6.2-6.8-6.7-17.3,0-24.1
	c17.9-17.9,35.8-35.8,53.8-53.8c2.6-2.6,5.1-5.1,7.7-7.7c6.5-6.5,17.5-6.5,24.1,0c17.7,17.7,35.4,35.4,53.1,53.1
	c2.5,2.5,5.1,5.1,7.6,7.6c6.3,6.3,6.8,17.8,0,24.1c-6.8,6.2-17.3,6.7-24.1,0C129.8,109.2,113.6,92.9,97.4,76.7z"/>
</svg>
