<?xml version="1.0" encoding="utf-8"?>
<!-- Generator: Adobe Illustrator 24.0.1, SVG Export Plug-In . SVG Version: 6.00 Build 0)  -->
<svg version="1.1" id="Calque_1" xmlns="http://www.w3.org/2000/svg" xmlns:xlink="http://www.w3.org/1999/xlink" x="0px" y="0px"
	 viewBox="0 0 542.9 125.2" style="enable-background:new 0 0 542.9 125.2;" xml:space="preserve">
<style type="text/css">
	.st0{fill:#FFFFFF;}
</style>
<g id="Calque_1_1_">
</g>
<g id="Calque_2_1_">
	<path class="st0" d="M248.3,97c3.4,0,6.8,0,10.2,0c2.4,0,4.7-3.2,3-5.4c-9.6-13.4-19.2-26.7-28.9-40.1c5.3-4.7,10.7-9.4,16-14.1
		c4.1-3.6,8.2-7.2,12.3-10.8c3.5-3.1-1.6-8.2-5.1-5.1c-9.1,8-18.3,16-27.4,24c-5.5-7.6-11-15.2-16.4-22.8c-0.3-0.5-0.7-1-1.2-1.3
		c-0.6-0.5-1.3-0.7-2-0.7c-0.1,0-0.1,0-0.2,0c-0.1,0-0.1,0-0.2,0c-0.7,0-1.4,0.2-2.1,0.7c-0.5,0.3-0.9,0.8-1.2,1.3
		c-5.3,7.4-10.7,14.8-16,22.2c-4.8-4.2-9.7-8.5-14.5-12.7c-4.1-3.6-8.2-7.2-12.3-10.8c-3.5-3.1-8.6,2-5.1,5.1
		c9.2,8.1,18.4,16.2,27.6,24.3c-9.8,13.5-19.5,27.1-29.3,40.6c-1.6,2.3,0.6,5.4,3,5.4c3.7,0,7.5,0,11.2,0c-0.1,0.1-0.3,0.2-0.4,0.3
		c-4.1,3.6-8.2,7.2-12.3,10.8c-3.5,3.1,1.6,8.2,5.1,5.1c6.1-5.4,12.3-10.8,18.4-16.2c18.8,0,37.7,0,56.5,0c2.1,1.8,4.1,3.6,6.2,5.4
		c4.1,3.6,8.2,7.2,12.3,10.8c3.5,3.1,8.6-2,5.1-5.1C256.7,104.3,252.5,100.6,248.3,97z M251.5,89.7c-3.8,0-7.6,0-11.5,0
		c-8.5-7.5-17-14.9-25.5-22.4c4.3-3.7,8.5-7.5,12.8-11.2C235.4,67.3,243.4,78.5,251.5,89.7z M208.6,30.1c4.8,6.7,9.7,13.4,14.5,20.1
		c-4.7,4.1-9.3,8.2-14,12.3c-4.9-4.3-9.7-8.6-14.6-12.8C199.2,43.2,203.9,36.7,208.6,30.1z M171.1,89.7c-1.8,0-3.7,0-5.5,0
		c8.2-11.4,16.4-22.8,24.6-34.1c4.5,3.9,8.9,7.8,13.4,11.8c-8.5,7.5-17,14.9-25.5,22.4C175.8,89.7,173.4,89.7,171.1,89.7z M189,89.7
		c6.7-5.9,13.4-11.7,20-17.6c6.7,5.9,13.4,11.7,20,17.6C215.7,89.7,202.4,89.7,189,89.7z"/>
	<g>
		<path class="st0" d="M412,104.2c-8.2-23.7-16.4-47.4-24.6-71.1c-1.2-3.4-2.4-6.9-3.6-10.3c-0.6-1.8-2.1-3.1-4.1-3.1
			c-25.7,0-51.4,0-77.1,0c-5.5,0-5.5,8.5,0,8.5c24.7,0,49.4,0,74.1,0c3,8.6,6,17.3,8.9,25.9c-6.1,0-12.1,0-18.2,0
			c-15.2,0-30.8-1.1-45.8,0.6c-10.3,1.2-20.8,4.4-28,12.3c-9.4,10.3-11.2,25-11.3,38.4c0,2.3,2,4.3,4.3,4.3c35.4,0,70.8,0,106.2,0
			c5,0,10,0,15,0C410.6,109.6,413,106.8,412,104.2z M301.7,101.1c-3.6,0-7.1,0-10.7,0c0.3-9.8,1.9-20.3,8.4-27.8
			c6.4-7.4,16.4-9.8,25.7-10.5c14.4-1.1,29.1-0.3,43.5-0.3c6.5,0,12.9,0,19.4,0c0.2,0,0.4,0,0.6,0c3.9,11.2,7.7,22.4,11.6,33.6
			c0.6,1.7,1.1,3.3,1.7,5C368.6,101.1,335.1,101.1,301.7,101.1z"/>
		<ellipse class="st0" cx="344.3" cy="81.1" rx="4.5" ry="4.5"/>
	</g>
	<g>
		<ellipse class="st0" cx="476.1" cy="64.3" rx="4.5" ry="4.5"/>
		<path class="st0" d="M516.6,20.5c-27,0-53.9,0-80.9,0c-1.8,0-3.4,1.6-3.4,3.4c0,27,0,53.9,0,80.9c0,1.8,1.6,3.4,3.4,3.4
			c27,0,53.9,0,80.9,0c1,0,1.8-0.4,2.3-0.9l0.1-0.1c0,0,0,0,0.1-0.1c0.6-0.5,0.9-1.3,0.9-2.3c0-27,0-53.9,0-80.9
			C520,22.1,518.4,20.5,516.6,20.5z M439.1,87.8c3.6,5.6,8.3,10.2,13.8,13.6c-4.6,0-9.2,0-13.8,0C439.1,96.8,439.1,92.3,439.1,87.8z
			 M447.7,88.1c-10-11.8-11.4-29.2-3.6-42.5C452,32.2,468,24.9,483.4,28c17.3,3.5,29.5,18.9,29.8,36.3c-0.3,15.5-9.8,29.7-24.7,34.9
			C474,104.4,457.6,99.8,447.7,88.1z M442.5,36.2c-1.3,1.5-2.4,3.1-3.4,4.8c0-4.6,0-9.1,0-13.7c4.5,0,9.1,0,13.6,0
			C448.9,29.7,445.4,32.7,442.5,36.2z M513.2,101.4c-4.5,0-9.1,0-13.6,0c5.5-3.6,10.2-8.3,13.6-13.9
			C513.2,92.1,513.2,96.7,513.2,101.4z M499.5,27.3c4.6,0,9.1,0,13.7,0c0,4.6,0,9.2,0,13.9C509.7,35.6,505.1,30.9,499.5,27.3z"/>
	</g>
	<g>
		<path class="st0" d="M129.8,23c-1.7,6.2-3.4,12.4-5.1,18.6c-4.9-0.4-8.4-2.2-12.4-5.3c-3-2.3-6.1-3.9-10-3.9
			c-4.1,0-7.2,1.8-10.3,4.4c-4,3.3-7.7,4.9-13,4.9c-5.4,0-9.3-1.7-13.4-4.9c-3.2-2.5-6.4-4.3-10.5-4.4c-3.8,0-6.9,1.5-9.7,3.9
			c-3.9,3.2-7.1,4.9-12,5.3C31.7,35.4,30,29.2,28.3,23c-1.2-4.2-7.7-2.4-6.6,1.8C27.6,46.5,33.5,68.3,39.4,90
			c0.4,1.4,1.8,2.5,3.3,2.5c24.2,0,48.4,0,72.6,0c1.5,0,2.9-1.1,3.3-2.5c5.9-21.7,11.8-43.5,17.8-65.2C137.6,20.6,131,18.8,129.8,23
			z M112.7,85.7c-22.5,0-44.9,0-67.4,0c-3.4-12.5-6.8-24.9-10.2-37.4c4-0.5,7.8-1.6,11.2-4.1c2.8-2,5-4.9,8.7-4.9
			c4,0,6.7,3.4,9.8,5.4C69,47.5,74,48.5,79,48.5c4.9,0,9.8-1,14-3.8c3-2,5.4-5.4,9.3-5.4c3.7,0,6.2,2.9,9.1,4.9
			c3.5,2.5,7.4,3.6,11.5,4.1C119.5,60.8,116.1,73.2,112.7,85.7z"/>
		<path class="st0" d="M111.7,101.9c-22.1,0-44.1,0-66.2,0c-4.4,0-4.4,6.8,0,6.8c22.1,0,44.1,0,66.2,0
			C116.1,108.7,116.1,101.9,111.7,101.9z"/>
		<path class="st0" d="M67.5,64.1c-3.1,0-5.3,0.4-7.8,1.4c-0.8,0.3-1.6-0.4-1.3-1.2L59,62c0.1-0.4,0.5-0.7,1-0.7h14.4
			c0.6,0,1-0.4,1-1v-2.8c0-0.6-0.4-1-1-1H55.6c-0.5,0-0.9,0.3-1,0.8L52,67.6c-0.1,0.6,0.2,1.1,0.8,1.2l3.6,0.7c0.2,0,0.4,0,0.6-0.1
			c3.8-1.5,6.1-2,8.3-2c4.6,0,5.8,1.5,5.8,3.7c0,2.4-1.6,3.9-6.6,3.9c-4.6,0-7.3-0.6-7.8-2.6c-0.1-0.4-0.5-0.8-1-0.8h-4.1
			c-0.6,0-1.1,0.5-1,1.1C51.2,78.6,57,80,64.3,80c7.8,0,12.7-2.4,12.7-8.2C77.1,66.9,73.5,64.1,67.5,64.1z"/>
		<path class="st0" d="M105.3,70.9h-2.7c-0.6,0-1-0.4-1-1V57.5c0-0.6-0.4-1-1-1H96c-0.2,0-0.5,0.1-0.7,0.2L79.6,70.6
			c-0.2,0.2-0.3,0.5-0.3,0.8V75c0,0.6,0.4,1,1,1h14.4c0.6,0,1,0.4,1,1v1.8c0,0.6,0.4,1,1,1h4c0.6,0,1-0.4,1-1V77c0-0.6,0.4-1,1-1
			h2.7c0.6,0,1-0.4,1-1v-3.1C106.3,71.4,105.9,70.9,105.3,70.9z M95.7,69.9c0,0.6-0.4,1-1,1h-6.2c-0.9,0-1.4-1.2-0.6-1.8l6.2-5.3
			c0.7-0.6,1.7-0.1,1.7,0.8L95.7,69.9L95.7,69.9z"/>
	</g>
</g>
</svg>
