<?xml version="1.0" encoding="utf-8"?>
<!-- Generator: Adobe Illustrator 24.0.1, SVG Export Plug-In . SVG Version: 6.00 Build 0)  -->
<svg version="1.1" id="Calque_1" xmlns="http://www.w3.org/2000/svg" xmlns:xlink="http://www.w3.org/1999/xlink" x="0px" y="0px"
	 viewBox="0 0 621.5 595.3" style="enable-background:new 0 0 621.5 595.3;" xml:space="preserve">
<style type="text/css">
	.st0{fill:#222526;}
</style>
<title>picto</title>
<path class="st0" d="M307.3,467.5c-92.2,0-167.3-75-167.3-167.3S215.1,133,307.3,133c85.6,0,156.4,64.6,166.1,147.6l-54.1-46.3
	l-25.8,30.1l25.2,21.6l0,0l53,45.3c0,0.1,0,0.2,0,0.2l28,24.1l0,0l17.1-19.2l0,0l68.8-80.4l-30.2-25.8l-42.1,49.2
	c-10.6-104.3-98.9-186.1-206-186.1c-114.1,0-206.9,92.8-206.9,207s92.8,207,207,207c82.6,0,154-48.6,187.2-118.8l-35.8-17.1
	C431.1,430.1,372.1,467.5,307.3,467.5z"/>
</svg>
