<?xml version="1.0" encoding="utf-8"?>
<!-- Generator: Adobe Illustrator 24.3.0, SVG Export Plug-In . SVG Version: 6.00 Build 0)  -->
<svg version="1.1" id="Calque_1" xmlns="http://www.w3.org/2000/svg" xmlns:xlink="http://www.w3.org/1999/xlink" x="0px" y="0px"
	 viewBox="0 0 269.7 123.7" style="enable-background:new 0 0 269.7 123.7;" xml:space="preserve">
<style type="text/css">
	.st0{fill:#CCCCCC;}
	.st1{fill-rule:evenodd;clip-rule:evenodd;fill:#FFFFFF;}
</style>
<path class="st0" d="M71.9,55.1c-2.8,0.9-3.6,2.9-4,5.4c-0.4,2.4-0.1,4.8,0.7,7.1c0.2,0.6-0.1,1.2-0.1,1.9c0,1-0.1,2.1,0.1,3.1
	c0.3,1.4,0.9,2.8,1.3,4.2c0.4,1.6,1.5,2.9,2.4,4.2c1,1.6,1.9,3.1,2.9,4.7c0.5,0.8,1,1.6,1.4,2.5s0.8,1.9,0.9,2.9
	c0.2,1.5,1,2.7,1.7,4c0.7,1.2,1,2.5,1.5,3.7c0.8,1.8,1,3.8,2.7,5.1c0.6,0.4,1,1,1.3,1.6c0.9,1.6,0.6,4.1-1.3,5
	c-1.5,0.8-2.9,1.7-4.6,1.5c-2.3-0.3-4.2-1.2-5.2-3.4c-0.1-0.1-0.2-0.3-0.2-0.5c0.2-1.3-0.2-2.5-0.7-3.6c-0.4-0.8-0.6-1.8-1-2.5
	c-1.8-3.2-3.7-6.3-5.5-9.4c-0.9-1.6-1.9-3.2-2.9-4.7c-1-1.6-2-3.2-3.1-4.8c-0.4-0.6-1-1.2-1.5-1.8c-2,0.8-3.8,1.6-5.5,2.3
	c-0.3,0.1-0.8,0.2-1.1,0.2c-2.3-0.4-4.6-0.7-6.9-1.3c-0.9-0.2-1.7-0.9-2.6-1.3c-1.9-0.9-4-1.5-5.7-2.7c-1.5-1-2.7-2.5-4-3.9
	c-1.1-1.1-2-2.4-3.1-3.5c-0.9-1-1.6-2.3-2.9-3c-0.4-0.2-0.5-0.8-0.8-1.2c-0.6-0.8-1.2-1.6-1.8-2.3c-0.2-0.2-0.4-0.4-0.5-0.6
	c-0.6-1.1-1.3-2.3-1.9-3.4c-0.6-1.2-1.1-2.4-2-3.5c-0.8-1-1.5-2.2-1.3-3.7c0-0.2-0.1-0.4-0.1-0.6c-0.2-1.1-0.2-2.2-0.2-3.3
	c0.1-1.3-0.2-2.6-0.3-3.9c0-0.5,0-1.1,0.1-1.6c0-0.6,0-1.3,0.1-1.9c0-0.3,0.2-0.7,0.3-1c0.2-0.7,0.6-1.5,0.5-2.2
	c-0.2-1.1,0.2-2,0.7-2.9c1.1-1.8,2.2-3.6,3.4-5.3c0.4-0.5,0.9-1,1.4-1.3c1-0.5,1.7-1.3,2.4-2.1c0.9-1.1,1.9-2.1,3.4-2.3
	c0.2,0,0.4-0.2,0.6-0.2c1.6-0.5,2.4-1.6,2.5-3.2c0.2-1.9,1-3.5,2-5c0.3-0.4,0.6-1,1-1.2c1.1-0.5,1.3-1.5,1.6-2.4
	c0.8-0.6,1.5-1.1,2.3-1.6c0.2-0.1,0.4-0.2,0.6-0.3c0.9-0.2,1.9-0.4,2.8-0.6c1.4-0.3,2.9-0.6,4.3-0.9c1.5-0.4,3-0.8,4.6-1.2
	c1.3-0.3,2.7-0.5,4-0.7c0.6-0.1,1.3-0.3,1.8-0.5c1.7-0.8,3.4-1.6,5.2-2.3c2.3-0.9,6,0.2,7.1,2.2c0.5,0.8,0.6,2.1,0.4,3
	c-0.2,1.2-0.7,2.4-1.6,3.3C68.6,14,68,15,67.7,16.2c-0.2,0.7-0.4,1.5-1.2,2.1c-0.5,0.3-0.7,1.1-0.8,1.7c-0.3,1.2-0.5,2.4-0.7,3.7
	c-0.3,2.2-0.6,4.4-0.7,6.7c-0.1,1.6,0,3.1,0,5c0.2-0.6,0.4-0.9,0.5-1.2c1-2.3,1.6-4.9,3.5-6.8c0.5-0.5,0.7-1.2,1.1-1.8
	c1.6-2.3,3.9-3.9,6-5.7c0.8-0.6,1.7-1.1,2.6-1.7c0.2-0.2,0.5-0.3,0.6-0.6c0.6-1.5,1.9-2.2,3.3-2.7c1-0.3,1.8-0.8,2.7-1.4
	c1.6-1,3.3-1.6,4.9-2.5c1.3-0.7,2.6-1.3,4-1.6C95.3,9,97,8.8,98.8,8.5c1.2-0.2,2.3-0.6,3.5-0.8c1.1-0.2,2.1-0.2,3.2-0.2
	c0.4,0,0.8-0.1,1.1-0.1c1-0.1,2.1-0.3,3.1-0.3c1.6,0,3.3,0.2,4.9-0.6c0.8-0.4,1.9-0.2,2.7-0.5c2.3-0.8,4.7-0.9,7-1.3
	c1.3-0.2,2.5-1,3.7-1.5c0.4-0.2,0.9-0.4,1.3-0.5c2.9-0.4,5.8-1.2,8.7-1c2.6,0.1,5.3,0.4,7.3,2.5c0.8,0.8,1.6,1.5,2.4,2.1
	c2.1,1.8,2.1,4.3,2.3,6.7c0.1,0.9-0.4,1.8-0.6,2.6c0.4,0.8,1.3,0.8,1.9,0.6c2.2-0.4,4,0.6,5.5,1.8c0.9,0.8,2,1.3,3.3,1.8
	c0.9-0.8,1.8-1.6,2.8-2.4c0.4-0.3,0.9-0.5,1.4-0.7c1.2-0.4,2.4-0.9,3.7-1.1c1.8-0.2,3.6-0.3,5.4-0.4c0.8-0.1,1.8-0.3,2.4,0
	c1.4,0.6,2.8,0.6,4.2,0.7c0.7,1,1.7,1.5,2.8,2c1.7,0.7,3.3,1.8,4.8,2.9c0.6,0.4,1,1.3,1.4,2c0.6,1,0.6,1,1.6,0.5
	c1.2-0.7,2.4-1.5,3.6-2.2c0.6-0.3,1.1-0.6,1.9-0.9c-0.9-1.8-1.8-3.6-2.7-5.4c-0.1-0.2-0.3-0.4-0.3-0.6c-0.3-1.9-1.6-3.3-2.6-4.9
	c-0.4-0.7-0.8-1.3-1.1-2c-0.1-0.4-0.2-1,0-1.2c0.7-0.6,0.6-1.4,0.8-2.2c0.2-1.4,1.2-2.4,2.4-3c2.4-1.2,4.9-1.1,7.1,0.5
	c1.3,0.9,2.2,2.4,2.7,4c0.4,1.2,0.8,2.4,1.7,3.4c0.7,0.8,1.3,1.8,1,3c0,0.1,0,0.2,0.1,0.3c0.5,1.3,1,2.6,1.6,4.1
	c0.9,0.1,2.1,0.3,3.2,0.2c0.9-0.1,1.9-0.4,2.8-0.7c0.3-0.1,0.6-0.2,0.8-0.2c1.4,0.7,2.5-0.1,3.7-0.5c0.9-0.4,2-0.6,3-0.8
	c1.4-0.3,2.6,0.4,3.9,0.8c1.7,0.5,2.6,1.7,3.3,3.3c0.4,0.9,1,1.6,1.8,2.2c1.9,1.8,3.9,3.5,5.7,5.5c1.2,1.4,2.8,2.3,4.4,3.2
	c1.9,1.1,3.8,2.3,5.7,3.4c0.4,0.2,0.9,0.3,1.4,0.4c2.4,0.3,5,3.4,5,5.8c0,1.4-1.4,2.4-2.8,2.6c-1.6,0.2-3.1-0.4-4.6,0
	c-1.2,0.3-2.3-0.3-3.2-1.2c-0.5-0.5-0.9-1.2-1.4-1.7c-0.3-0.4-0.6-0.8-1-1.1c-1.4-1.1-2.6-2.4-4.4-3.1c-0.9-0.3-1.6-1.2-2.2-1.9
	c-0.7-0.9-1.8-0.6-2.7-0.9c-0.4-0.2-0.8,0.4-0.8,1c-0.1,1.1-0.3,2.2-0.4,3.2c-0.1,1.4-0.3,2.7-0.3,4.1c0,1-0.4,1.9-0.6,2.8
	c-0.4,1.6-0.4,3.3-0.3,5c0,0.3,0,0.7-0.1,1c-0.2,1.1-0.6,2.2-0.7,3.3c-0.2,2.4-0.3,4.9-0.5,7.3c-0.1,0.7-0.2,1.4-0.4,2.1
	c-0.4,1.7-0.2,3.4,0,5.1c0.1,0.6,0.1,1.3-0.1,1.9c-0.6,2.4-0.7,4.9-0.3,7.3c0.4,2.2,0.4,4.4,0.6,6.6c0.1,1,0.6,2.1,1,3
	c0.6,1.4,1.6,2.7,1.9,4.1c0.2,1.1,0.7,2.6-0.5,3.7c-1.4,1.3-1.3,1.3-3.4,1c-1.3,0.7-2.2-0.4-3.3-0.8c-0.8-0.2-1-0.9-1.4-1.5
	c-0.8-1.6-1.9-3.1-1.4-5c0.1-0.3-0.1-0.6-0.2-0.9c-0.4-2.4-0.9-4.7-1.3-7.2c-0.8,0.4-1.4,1-2.2,1.2c-1.6,0.4-3.2,0.6-4.9,0.1
	c-1.3-0.4-2.7-0.6-4-0.9c-0.8-0.2-1.6-0.3-2.2-0.9c-0.4-0.4-1.2-0.5-1.8-0.6c-1.9-0.4-3.8-0.7-5.6,0.2c-0.1,0.1-0.3,0.1-0.5,0.1
	c-1.7,0.1-3.4,0.2-5,0.5c-1.4,0.2-2.9,0.7-4.3,1c-0.6,0.1-1.3,0.2-1.9,0.3c-2,0.1-4,0.1-6,0.4c-1.1,0.1-2,0.5-2.7,1.6
	c-1.3,1.9-2.7,3.7-4,5.5c-0.6,0.9-1,2-1.9,2.8c-0.4,0.3-0.4,1.2-0.6,1.9c-1.4,0.1-1.7,1.6-2.3,2.6c-1.3,1.9-2.8,3.6-4.6,5
	c-0.8,0.6-1.7,1-2.5,1.4c-0.2,0.1-0.4,0.1-0.6,0.3c-1.1,1.1-2.2,2.1-4.1,2.1c0.4,0.9,0.6,1.6,0.9,2.3c0.8,2.4,1.7,4.8,3.6,6.6
	c0.7,0.7,1,1.7,1.4,2.6c0.4,1,0.9,2.1,1.1,3.2c0.2,0.9,0.3,1.9,0.4,2.9c-0.8,0.6-1.6,1.4-2.4,1.9c-0.8,0.5-1.8,0.8-2.7,1
	c-0.5,0.1-1-0.2-1.5-0.4c-0.4-0.1-0.6-0.6-0.9-0.6c-1.8-0.3-2.3-1.7-2.6-3.1c-0.1-0.2,0-0.5-0.2-0.6c-0.8-1-1.6-2-1.1-3.4
	c0-0.1-0.2-0.3-0.3-0.4c-0.8-1.4-1.7-2.8-1.9-4.5c-0.1-0.6-0.6-1.2-1-1.9c-0.4,0.1-0.8,0.1-1.1,0.2c-2.2,1.4-4.6,1.6-7.1,1.1
	c-1.8-0.4-3.5-0.7-5.1-1.7c-0.9-0.6-1.6-1.2-2.4-1.8c-0.2-0.2-0.3-0.6-0.2-0.9c0.5-1.4,1.1-2.7,1.7-4c0.4-0.8,0.9-1.5,1.4-2.2
	c0.6-0.8,1.2-1.6,1.8-2.3c0.5-0.6,1-1.2,1.3-1.9c0.2-0.4,0.2-1.1,0-1.5c-0.6-1.1-1.3-2.1-2-3.1c-0.2-0.2-0.5-0.4-0.8-0.6
	c-0.2-0.2-0.6-0.4-0.6-0.7c0-1-0.6-1.7-1.2-2.4c-0.5-0.6-1-1.3-1.4-1.9c-0.8-1-1.8-1.9-2.2-3.2c-0.6-1.6-1.5-1.8-3.1-1.3
	s-3.2,0.8-4.7,1.2c-1.8,0.6-3.6,1.3-5.4,2c-1.1,0.4-2.2,0.6-3.4,1c0.5,2.3,0.9,4.5,1.4,6.7c0.1,0.5,0.5,0.9,0.7,1.4
	c0.7,1.4,1.6,2.6,1.3,4.4c-0.1,1-0.9,1.2-1.3,1.7c-0.8,1.1-2,1.4-3.4,1.1c-0.4-0.1-0.9-0.1-1.3-0.2c-1.9-0.1-3.1-1.3-3.4-3.3
	c-0.2-1.3-0.5-2.7-0.9-3.9c-0.6-1.8-1-3.6-1.3-5.5c-0.2-1.1-1.3-2.1-2.4-2.2c-2.8-0.2-5.1-1.4-7.2-3.2c-1.3-1.1-3-1.5-4.6-1.8
	c-0.9-0.2-1.8-0.4-2.7-0.8c-1.8-0.8-3.6-1.8-5.4-2.7c-0.3-0.2-0.6-0.6-0.8-1c-0.4-0.7-0.8-1.4-1.2-2.1c-0.2-0.3-0.5-0.5-0.6-0.8
	c-0.9-2.1-1.8-4.2-2.8-6.2c-0.7-1.5-1.1-3.2-2.3-4.5c-0.2-0.3-0.4-0.6-0.6-1C73.4,59.2,72.7,57.2,71.9,55.1z M30.5,58
	c0.2-0.1,3.1-1.2,3.2-1.2c0.6,0,1.3,0,1.9,0c1,0,2,0,3-0.1c1.9-0.2,3.9-0.5,5.8-0.7c1.6-0.1,3-0.6,4.2-1.6c0.5-0.4,1.2-0.6,1.8-0.7
	c1.3-0.3,1.5-0.4,1-1.7c-0.3-0.9-0.9-1.7-1-2.5c-0.2-1.7-1.1-3.1-1.8-4.5c-0.9-2.1-2.2-4-3.3-5.9c-1.2-1.9-2.5-3.7-4.5-4.8
	c-0.3-0.2-0.6-0.4-0.9-0.7c-1.3-1.3-1.8-1.3-3.2-0.1c-1.2,1.1-2.5,2.1-4,3c-1.1,0.7-2.2,1.8-2.3,3.4c-0.1,0.5-0.3,1.1-0.6,1.5
	c-0.6,1-0.8,2.1-0.9,3.3c-0.1,0.6,0,1.3-0.4,1.7c-0.9,1.2-0.6,2.5-0.4,3.8s0.5,2.6,0.8,3.8C29.3,55.2,29.5,56.7,30.5,58z
	 M166.1,47.8c0.5-0.7,0.7-1.3,1.1-1.6c1.3-1.1,1.7-2.7,2.4-4.1c0.3-0.7,0.6-1.4,1.1-1.9c0.8-0.9,1.9-1.6,2.4-2.6
	c0.7-1.2,1.5-1.9,2.8-2.5c1.2-0.5,1.6-1.7,1.4-2.5c-0.2-0.7-0.5-1.4-0.8-2.1c-0.9-2.1-1.6-4.2-1.3-6.5c0-0.4-0.2-0.8-0.3-1.2
	c-1,0.1-2,0.1-2.9,0.3c-0.9,0.2-1.9,0.5-2.5,1.4c-0.2,0.4-0.7,0.6-1.1,0.8c-1.4,0.9-2.8,1.8-3.1,3.8c-0.1,0.7-0.4,1.2-1,1.8
	c-0.5,0.5-0.8,1.6-0.8,2.3c0,1.8-0.6,3.2-1.7,4.4c-0.4,0.4-0.8,1.1-0.7,1.6c0.4,1.5,0.6,3,1.5,4.4C163.5,45.2,165.3,45.9,166.1,47.8
	z M149.5,83.3c0.2-0.7,0.2-1.2,0.4-1.7c0.3-0.6,0.7-1.2,0.9-1.9c0.3-1.3,0.4-2.6,0.7-3.9c0.2-1,0.6-2.1,1.1-3c1-1.6,2.1-3.1,3.2-4.7
	c0.8-1.1,1.4-2.4,2.2-3.4c0.7-0.9,1-1.9,1.2-3c0.2-1.4,0.8-2.5,1.7-3.4c0.2-0.2,0.2-0.5,0.4-0.8c-3.7-0.2-7.3-0.4-10.9-0.6
	c-0.5,1-0.6,2.3-2,2.6c-0.1,0-0.1,0.2-0.1,0.3c-0.4,0.9-0.9,1.9-1.3,2.8c-0.7,1.7-1.4,3.4-2.1,5.1c-0.1,0.3-0.3,0.8-0.2,1.1
	c0.5,1.1-0.2,2.6,1.1,3.4c0.1,0.1,0.1,0.3,0.1,0.4c0.2,1.1,0.3,2.2,0.5,3.4c0.1,0.4,0.3,0.8,0.5,1.2c0.3,0.7,0.6,1.4,0.8,2.1
	C147.9,80.8,148.3,82.1,149.5,83.3z M193,37.4c0.6,1.4,1.3,2.6,1.5,3.8c0.3,1.7,1.5,2.8,2.1,4.3c0.3,0.7,1,1.2,1.6,1.8
	c0.5,0.5,1.1,1,1.6,1.5c0.8,0.8,1,0.9,2,0.4c0.7-0.3,1.3-0.8,2-1.1c0.8-0.4,1.2-1,1-1.8c-0.4-1.9-1.1-3.8-1.3-5.7
	c-0.1-1.5-0.9-2.9-1.3-4.3c-0.2-0.7-0.3-1.4-0.3-2.1c0-0.8-0.1-1.6-0.8-2.2c-0.3-0.2-0.4-0.8-0.4-1.2c0.3-1.6-0.5-2.6-1.4-3.3
	c-1.6,0.8-3,1.5-4.5,2.3c-0.2,0.1-0.4,0.3-0.4,0.5c-0.6,1.3-1.8,2.2-3.1,3c0.9,1.3-0.7,2.7,0.3,4.1c1.2-1.1,1.2-1.1,2.1-1
	C193.4,36.7,193.2,37.1,193,37.4z M101.7,15.7c0,0.1-0.1,0.3-0.1,0.4c0.2,0.1,0.3,0.3,0.5,0.4c2.6,0.9,4.6,2.7,6.4,4.6
	c1.6,1.7,1.7,3.3,0.3,5.2c-0.2,0.2-0.3,0.5-0.4,1c1.9,0.4,3.6,0.8,5.4,0.6c2-0.2,4.1-0.5,6.2-0.8c-0.1-4-0.3-8.2-2.7-12.2
	c-2.4,0.1-4.9,0.2-7.5,0.3c-0.5,0-1.1,0.2-1.6,0.2C106,15.5,103.8,15.6,101.7,15.7z M77.2,37.2c1.3-2.1,3.1-3.2,4.9-4.4
	c0.7-0.4,1.4-0.8,2.1-1.1c0.9-0.2,1.5-0.6,1.9-1.4c0.2-0.4,0.5-0.8,0.8-1c1.4-0.7,2.8-1.2,4.2-1.8c0.6-0.3,1.3-0.8,1.5-1.4
	c0.3-1.4,1.2-2.5,1.8-3.8c0.7-1.5,0.8-3.3,2-4.7c-0.9,0.1-1.7,0.2-2.5,0.7c-0.9,0.5-2,0.9-2.9,1.4c-1,0.3-2.1,0.6-2.7,1.3
	c-1,1.3-2.4,1.8-3.5,2.7c-0.8,0.7-1.9,1-2.8,1.6c-0.5,0.3-1.1,0.9-1.3,1.4c-0.2,0.9-0.8,1.2-1.5,1.5c-0.6,0.2-1.1,0.5-1.6,0.7
	c-0.3,1.7-0.7,2.3-2,3.5c-1.1,1-1.2,1.6-0.2,2.8C75.9,35.8,76.5,36.4,77.2,37.2z M219.9,38.3c0.5-0.9,0.7-1.8,0.8-2.8
	c0-1.5-0.4-3,0.3-4.5c0.2-0.4,0.1-0.9,0.1-1.3c-0.1-0.9,0-2.1-0.6-2.6c-1-1.1-2.2-2.3-3.7-2.9c-0.1-0.1-0.3-0.1-0.5-0.1
	c-1.4,0.2-2.9,0.2-4.3-0.4c-0.2-0.1-0.4-0.1-0.6,0c-0.8,0.2-1.7,0.5-2.5,0.7c-0.2,2.1-0.1,3.9,1.7,5.4c0.7,0.6,1.3,1.6,1.5,2.4
	c0.3,1.5,1.2,2.6,2.3,3.4C216,36.9,217.6,38.1,219.9,38.3z M169.1,60.1c-1,1.5-1.9,3-2.8,4.5c-0.3,0.6-0.6,1.2-1,1.6
	c-1.4,1.1-1.6,2.5-1,4c-2.1,1.6-5.4,8.2-5.1,10.3c2.2-0.8,4.2-1.8,5.7-3.4c-0.1-0.7-0.4-1.4-0.2-2c0.6-2.2,1.9-3.9,4.4-4.2
	c0.3,0,0.6-0.2,0.8-0.4c1.1-1.2,2.4-1.7,4.2-1.4c0.7-2.1,1.4-4.2,1.4-6.4c-1.1-0.7-2-1.4-3-1.8C171.3,60.5,170.1,60.3,169.1,60.1z
	 M108,42.8c-0.1,0.6-0.2,0.9-0.2,1.2c0.2,1.1,0.4,2.3,0.6,3.4c0.3,1.5,0.2,3-0.6,4.3c-0.5,0.8-0.6,1.6-0.7,2.5c-0.1,1,0,1.9,0,2.9
	c0,0.7-0.2,1.5,0.1,2.1c0.6,1.3,0.2,2.5-0.1,3.8c-0.2,1,0.1,1.5,1,1.6c1.4,0.1,2.5,0.7,3.6,1.5c1.6,1.1,3.5,1.2,5.4,0.8
	c0.3-0.1,0.5-0.2,1-0.3c-0.8-0.6-1.2-0.9-1.5-1.2c-0.7-0.6-1.3-1.3-1.9-2c-0.8-0.9-1.4-2-2.2-2.8c-1.5-1.5-1.8-3.3-1.2-5.1
	c0.6-1.7,0.5-3.3,0.4-5.1C111.5,47.3,110.4,44.9,108,42.8z M149,36.3c0.6-0.2,1.2-0.2,1.7-0.4c1.8-0.9,3.3-2.1,3.5-4.3
	c0.1-0.9,0.3-1.7,0.5-2.6c0.4-1.3-0.2-2.6-1.3-3.4c-2.3-1.8-4.9-1.7-7.6-1.2c-0.7,0.1-1.3,1-1.1,1.7c0.2,0.8,0.4,1.6,1,2.2
	c0.4,0.3,0.7,0.9,0.8,1.4C146.9,32,148.2,34,149,36.3z M57.9,15.8c-2,0.2-3.7,0.4-5.4,0.6c-1.7,0.1-3.3,1-5,0.8
	c-1.8-0.2-2.5,1.4-3.7,2.1c-0.2,0.1-0.2,0.5-0.2,0.8c0,0.5,0,1.1,0,1.7c1.7-0.4,3.4,0,4.7-1.2c0.2-0.1,0.5-0.1,0.8-0.1
	c1.5,0.3,3,0.6,4.5,0.9c0.6,0.1,1.2,0.2,1.8,0.4C56.2,19.8,57.3,18.1,57.9,15.8z M84.6,61c0.3,1.3,0.4,2.3,0.7,3.2
	c0.3,0.9,0.5,2,1,2.7c1,1.3,2.1,2.5,3.4,3.5c1.9,1.5,3.9,2.8,5.9,4.1c0.8,0.6,1.7,1,2.7,1.6c-0.6-2.3-2.1-3.8-3.3-5.4
	c-0.4-0.6-1.1-1-1.7-1.6c-1.6-1.6-3-3.4-4.7-4.9C87.5,63.1,86.1,62.2,84.6,61z M142.5,87c-0.4-2-0.7-4.1-1.8-5.8
	c-0.1-0.2-0.2-0.5-0.3-0.8c-0.8-2.2-1.7-4.4-2.5-6.6c-0.3-0.8-1.1-1.1-1.9-1.2c-0.5,0-1,0-1.5,0c-0.3,1.1,0,2.1,0.4,3.1
	c0.6,1.4,1.2,2.9,2,4.3c0.7,1.2,1.9,2.2,2.5,3.5C140.1,85,141.3,85.9,142.5,87z M54.4,38.7c0-0.2-0.1-0.5,0-0.6
	c0.6-0.9,0.4-1.9,0-2.8c-0.2-0.5-0.4-1.1-0.3-1.6c0.1-1.7,0-3.4-0.4-5.1c-0.2-0.8-0.5-1-1.2-1c-1,0-1.9,0-2.9,0.1
	c-0.5,0.1-1,0.3-1.6,0.5c0.6,2.2,1.6,3.8,3,5.4C51.1,35.9,53.4,36.8,54.4,38.7z M132.3,19.9c1.5-2.2,4-2.1,5.8-3.5
	c0.2-0.5,0.4-1.1,0.7-1.7c0.3-0.8,0.2-1-0.7-1.2c-2.6-0.7-5.2-0.2-7.8-0.3c-0.1,0-0.3,0.2-0.4,0.2C130.6,15.4,131.4,17.5,132.3,19.9
	z M126.4,39.7c-0.7,0.2-1,0.4-1.3,0.4c-1.1-0.1-1.4,0.7-1.6,1.5c-0.4,1.5-0.7,3-1.1,4.5c-0.2,1-0.1,1.9,0.4,2.8
	c1.7-0.6,3.4-1.2,5-1.9c0.2-0.1,0.4-0.3,0.7-0.6C127.9,44.2,127.2,42,126.4,39.7z M121.8,74.2c-3.9-0.2-7.5-0.4-11.2-0.5
	c0.1,1,0.3,2,0.4,3c0,0.9,0.5,1.2,1.2,1.1c1.2-0.1,2.3-0.5,3.5-0.6c2-0.1,3.6-1.2,5.2-2C121.3,75,121.5,74.6,121.8,74.2z M89,51.9
	c0.5-3.2,1-6.1,1.5-9.4c-2.5,1.8-4.6,3.4-6.9,5.2c1.3,1.4,2.6,2.7,3.9,3.9C87.8,51.9,88.5,51.8,89,51.9z M139.5,44.2
	c0.7-0.5,0.8-0.9,0.7-1.5c-0.2-1.1-0.5-2.2-0.3-3.2c0.4-1.8-0.2-3.4-0.6-5c-0.4-2-1.5-3.9-2.3-5.8c-0.6,0.4-1.2,0.8-1.7,1.2
	c-0.2,0.2-0.4,0.7-0.3,1c0.6,1.4,1.2,2.9,2,4.2c0.7,1.3,1.1,2.5,0.9,4c0,0.3,0,0.5,0.1,0.8c0.2,0.7,0.4,1.5,0.6,2.2
	C138.9,42.8,139.2,43.5,139.5,44.2z M156.9,49c-0.2-0.6-0.2-0.8-0.3-1c-0.7-1.4-1.4-2.8-2.1-4.2c-0.3-0.6-0.8-0.9-1.5-0.6
	c-2.6,1.1-3.4,2.2-2.3,4.7c0,0.1,0.1,0.2,0.1,0.3c0.6,1.5,0.7,1.5,2.3,1.3c0.4-0.1,0.9,0,1.3-0.1C155.2,49.3,156,49.2,156.9,49z
	 M183,72.7c0.1,0.2,0.3,0.4,0.4,0.6c6.8-1.1,13.6-2.3,20.3-4.1c-1-0.2-2-0.3-2.9-0.1c-1.1,0.2-2.2,0.6-3.3,0.9
	c-0.4,0.1-0.8,0.1-1.1,0c-1.8-0.6-3.6-0.2-5.5-0.2c-2.5,0-4.6,1.5-6.9,2.2C183.6,72.1,183.3,72.5,183,72.7z M187.7,46.8
	c-1.5,0.9-1.8,1.9-1.2,3.3c0.4,1,0.7,1.9,0.5,3c-0.1,0.3,0.1,0.6,0.2,1.2c1.8-0.4,3.6-0.9,5.4-1.3c-0.5-1-0.8-1.9-1.3-2.5
	C190.2,49.2,189,48.1,187.7,46.8z M217.6,61.8c0.1-1.1,0.3-2.1,0.4-3.1c0.1-1,0.1-2,0-3c-0.1-0.9,0.9-1.8,0.4-2.7
	c-1,0.4-1.8,0.7-2.6,1c-0.7,0.3-1.3,0.6-2,0.8c1.1,2.3,1.8,4.4,1.6,6.7C216,61.6,216.7,61.7,217.6,61.8z M49.3,71.7
	c-1.7-2.8-10-6.3-13.1-5.4C40.1,69.2,44.4,71.1,49.3,71.7z M115.2,38.9c0.9-1.1,1.6-2.1,2.3-2.9c-1-1.4-2.4-0.8-3.5-1.2
	c-1.2-0.4-2.3-0.5-3.6-0.3C112.4,35.5,113.3,37.7,115.2,38.9z M159.3,88.4c-0.1-0.1-0.1-0.1-0.2-0.2c-0.4,0.2-0.9,0.4-1.3,0.6
	c-1.6,1.1-3.1,2.3-4.7,3.5c-1.3,0.9-1.3,1.2-0.3,2.8C155.1,92.8,157.2,90.6,159.3,88.4z M132.8,59.8c-1.2,0.9-2.7,0.6-3.4,2.1
	c0.4,0.6,0.8,1.3,1.4,2.3c1-1.3,1.7-2.3,2.4-3.4C133.3,60.7,133,60.3,132.8,59.8z M99,63.2c0.2,0,0.3,0.1,0.5,0.1
	c0.1-0.3,0.3-0.6,0.2-0.8c-0.4-1.3-0.4-2.6,0.1-3.8c0.1-0.2,0.1-0.6,0-0.8c-0.3-1.2-0.7-2.4-1.1-3.7C97.8,57.3,98.9,60.2,99,63.2z
	 M99.7,40.7c-0.6,0.5-1.1,1.6-1.5,3.4c-0.5,2.2-0.5,2.2,0.1,3.5C99,45.4,99.8,43.2,99.7,40.7z M177.8,53.7c0.3-0.6,0.6-1.1,0.8-1.7
	c0.1-0.4-0.2-0.9-0.6-0.7c-0.9,0.5-2.1,0.7-2.9,1.9C176.1,53.4,177,53.6,177.8,53.7z M64.8,40.9c0.7-0.1,1.2-0.2,0.7-0.9
	c0-0.1-0.2-0.1-0.4-0.1C65.1,40.1,64.9,40.5,64.8,40.9z M143,103c0.1,0.1,0.2,0.2,0.3,0.4c0.2-0.2,0.5-0.4,0.7-0.6
	c-0.1-0.1-0.3-0.3-0.4-0.4C143.5,102.5,143.2,102.7,143,103z M65.4,42.2c-0.3,1-0.3,1,0.4,1.7C65.7,43.2,65.6,42.8,65.4,42.2z"/>
<path image-rendering="optimizeQuality" text-rendering="geometricPrecision" shape-rendering="geometricPrecision" class="st1" d="
	M244.6,20.8c0,0.3,0.2,0.5,0.5,0.5h0.6c0.9,0,1.8,0,1.8-1.1c0-0.9-0.8-1-1.5-1h-0.9c-0.3,0-0.5,0.2-0.5,0.5L244.6,20.8L244.6,20.8z
	 M243.5,18.7c0-0.3,0.2-0.5,0.5-0.5h2.1c1.6,0,2.4,0.6,2.4,1.9c0,1-0.5,1.5-1.2,1.7c-0.3,0.1-0.4,0.4-0.2,0.7l1.1,1.7
	c0.2,0.3,0,0.7-0.4,0.7l0,0c-0.2,0-0.3-0.1-0.4-0.2l-1.6-2.5c-0.1-0.1-0.2-0.2-0.4-0.2H245c-0.3,0-0.5,0.2-0.5,0.5v2
	c0,0.3-0.2,0.5-0.5,0.5l0,0c-0.3,0-0.5-0.2-0.5-0.5V18.7L243.5,18.7z M245.8,26.6c2.7,0,4.8-2.2,4.8-5s-2.1-4.9-4.8-4.9
	s-4.8,2.2-4.8,4.9C241,24.4,243.1,26.6,245.8,26.6z M245.8,15.8c3.2,0,5.8,2.5,5.8,5.8s-2.6,5.8-5.8,5.8s-5.8-2.5-5.8-5.8
	C239.9,18.3,242.6,15.8,245.8,15.8L245.8,15.8z"/>
</svg>
