<?xml version="1.0" encoding="utf-8"?>
<!-- Generator: Adobe Illustrator 24.3.0, SVG Export Plug-In . SVG Version: 6.00 Build 0)  -->
<svg version="1.1" id="Calque_1" xmlns="http://www.w3.org/2000/svg" xmlns:xlink="http://www.w3.org/1999/xlink" x="0px" y="0px"
	 viewBox="0 0 269.7 165.9" style="enable-background:new 0 0 269.7 165.9;" xml:space="preserve">
<style type="text/css">
	.st0{fill:#CCCCCC;}
</style>
<path class="st0" d="M254.7,138.7c-8.3-3.1-16.6-6.1-25-9.2c0.7,0,1.3,0,2,0c1.1,0,1.1-1.6,0-1.7c-3-0.4-6.1-0.7-9.1-0.9
	c-4.4-1.6-8.7-3.2-13.1-4.9c-15.1-5.6-30.1-11.3-45.1-17.1c-2.8-1.1-5.6-2.2-8.4-3.2c-0.1-1.1-0.2-2.2-0.3-3.4
	c1.1,0,2.2-0.1,3.3-0.1c0.9,0,1.2-1.5,0.2-1.7c-1.2-0.2-2.5-0.5-3.8-0.7c-0.2-1.6-0.3-3.3-0.5-4.9c-0.1-0.6-0.1-1.3-0.2-1.9
	c0.9-0.5,1.8-1,2.7-1.5c1.2,0.6,2.4,1.2,3.5,2c0.1,0.1,0.3,0.2,0.4,0.3c-1.1,0.2-2.3,0.5-3.4,0.7c-1.1,0.2-0.6,1.9,0.5,1.7
	c1.8-0.4,3.6-0.7,5.4-1.1c0.8-0.2,0.7-1.2,0.2-1.6c-1.5-1.2-3.2-2.2-4.9-3c0.6-0.4,1.2-0.9,1.8-1.3c3.9-3,7.4-6.6,10.6-10.3
	c0.4-0.4,0.7-0.8,1-1.2c9.2,6.8,18.7,13.2,28.5,19.1c1.9,1.2,3.9,2.3,5.9,3.4c-5.8-2.3-11.6-4.6-17.5-6.9c-0.9-0.4-1.5,1.1-0.7,1.6
	c12.4,7.4,25.5,13.3,39.2,17.7c4,1.3,8,2.4,12,3.4c0.6,0.2,1.5-0.6,1-1.3c-6.9-9-16.8-15.5-22.8-25.2c-2.9-4.7-4.9-10.2-4.4-15.7
	c0.3-4.2,2.3-8,5.5-10.6c4.9-0.6,9.8-1.3,14.6-2c0.8-0.1,0.8-1.2,0.2-1.6c-5.1-3.1-11.1-1.6-15.5,1.9c-12.1,1.6-24.2,2.9-36.3,3.9
	c1.2-1.6,2.4-3.3,3.6-4.9c4.6-0.7,9.2-1.4,13.8-2.1c7.5-1.2,14.9-2.3,22.4-3.5c0.9-0.2,0.7-1.8-0.2-1.7c-11.1,1.3-22.2,2.4-33.3,3.4
	c4.6-6.7,8.8-13.6,12.8-20.7c0.5-0.9-0.6-1.7-1.4-1c-7.7,7.2-15,14.7-21.8,22.7c-1.3,0.1-2.6,0.2-4,0.3c0.9-1.6,1.7-3.1,2.6-4.7
	c2-3.1,4-6.2,5.9-9.3c2.9-4.6,5.9-9.2,8.8-13.7c0.3-0.4,0.1-0.8-0.1-1c4.2-7.5,8.1-15.2,11.8-23c0.5-1-0.9-1.9-1.5-0.9
	c-7.5,13.5-15.1,26.9-22.8,40.2c-2.4,4.2-4.9,8.4-7.4,12.6c-1,0.1-2.1,0.2-3.1,0.2c-2.4-1.5-4.9-2.9-7.4-4.3
	c-2.4-2.1-4.9-4.2-7.3-6.4c5.4-4.2,10.8-8.4,16.1-12.7c0.4-0.3,0.3-0.9,0-1.2c-2.9-3.2-6.9-3.3-10.8-2.4c-0.1-0.1-0.2-0.2-0.3-0.3
	c-3.6-1.7-7.5-2.2-11.3-1.5c-1.1-8.6-2.3-17.3-3.5-25.9c-0.1-1-1.7-0.7-1.7,0.2c0.2,9,0.6,18,1,27c-0.1,0-0.2,0.1-0.3,0.1
	c-0.2,0.1-0.5,0.5-0.4,0.7c0.2,2.2,0.5,4.3,0.7,6.5c0,0-0.1,0-0.1,0.1c-3.2-2.8-6.5-5.7-9.8-8.5c-0.8-0.7-2,0.4-1.2,1.2
	c2.8,2.9,5.6,5.8,8.5,8.6c-1.4,0.8-2.8,1.5-4.2,2.3c-2.9-1.2-5.8-2.4-8.8-3.6c-0.8-0.3-1.5,0.9-0.8,1.4c1.8,1.5,3.7,3,5.5,4.5
	c-0.5,0.3-1.1,0.6-1.6,1c-1.3-1.2-2.5-2.5-3.8-3.7c-0.3-0.3-0.9-0.3-1.2,0c-4.7,4.4-9.3,8.9-14,13.3c-7.1-8.8-14.9-17-23.3-24.6
	c-0.7-0.7-1.8,0.2-1.3,1c5.7,10,12.5,19.3,20.1,28c-0.5,0.5-1,0.9-1.5,1.4c-10.6-0.1-21.2-0.1-31.7,0c-7,0-14,0.1-21,0.2
	c-8.9-4-17.8-7.9-26.8-11.7c-1-0.4-1.9,1-0.9,1.5c7.1,3.5,14.1,7,21.3,10.3c-1,0-1.9,0-2.8,0c-1.1,0-1.1,1.6,0,1.7
	c0.9,0.1,1.7,0.2,2.6,0.2c-8.5,0.2-17.1,0.3-25.6,0.5c-1.1,0-1.1,1.7,0,1.7c11.7,0.1,23.3,0.1,35,0C60.1,63,64.6,65,69,67
	c1.8,0.8,3.6,1.6,5.4,2.4c-3.4,0.1-6.8,0.1-10.2,0.2c-5.7,0.1-11.3,0.2-17,0.3c-1,0-1.2,1.4-0.2,1.7c1.6,0.4,3.2,0.9,4.8,1.3
	c-0.8,0-1.6,0-2.4,0.1c-1,0-2,0.1-3,0.1c-1.1,0-1.1,1.8,0,1.7c3.8-0.1,7.5-0.2,11.2-0.3c7.5,2.1,15,4.1,22.6,6
	C76.5,84,72.8,87.6,69,91.1c1-1.4,2-2.9,2.9-4.4c0.6-0.9-0.9-1.8-1.5-0.9c-2.9,4.6-6.2,8.9-9.8,12.9c-3.7,4-7.8,7.6-12.1,10.8
	c-2.5,1.8-5,3.5-7.7,5c-1,0.6-0.1,2,0.9,1.5c3.6-2.1,7-4.4,10.3-7c0.2,0.1,0.5,0.1,0.7-0.1c11.1-6,22.1-12.3,32.9-18.9
	c3.8-1.7,7.5-3.6,11.1-5.5c3.6,0.9,7.3,1.7,10.9,2.6c2.6,3.4,5.4,6.8,8.3,10c-3.2,0.1-6.5,0.1-9.7,0.2c-5.1,0.1-10.1,0.2-15.2,0.3
	c-1,0-1.1,1.4-0.2,1.7c6.4,2.2,12.8,4.3,19.3,6.3c-2.6,4.3-4.7,8.9-6,13.8c-3.4,2-7,3.9-10.5,5.8c-1.3-0.1-2.6-0.1-3.8-0.1
	c-8.2-0.3-16.5-0.2-24.7,0c-0.9,0-1.2,1.5-0.2,1.7c6.4,1.3,12.8,2.5,19.3,3.6c-3.4,1.9-6.7,4-9.9,6.2c-4.3,3-8.3,6.3-11.8,10.2
	c-6,1.5-11.9,3-17.9,4.6c-1.6,0.4-3.1,0.8-4.7,1.2c-0.9,0.2-0.8,1.8,0.2,1.7c0.1,0,0.2,0,0.2,0l0,0l0,0c6.7-0.9,13.3-2.1,19.9-3.6
	c0.1,0.1,0.3,0.2,0.6,0.2c16-1.3,32.1-2.5,48.1-3.7c15.2-1.1,30.4-2.2,45.7-3.3c0.2,1.3,0.4,2.6,0.6,3.9c-12,1.2-23.9,3.1-35.7,5.5
	c-7.9,1.6-15.8,3.6-23.6,5.7c-1.1,0.3-0.6,1.9,0.5,1.7c19.2-4.1,38.5-7.7,57.9-10.7c0.4-0.1,0.8-0.1,1.1-0.2c0.1,1,0.3,1.9,0.4,2.9
	c-10.9,1.6-21.8,3.3-32.7,5.3c-7.7,1.4-15.3,3-22.9,4.7c-0.6,0.1-0.7,0.8-0.5,1.2c-4.7,0-9.5,0-14.2,0c-1.1,0-1.1,1.7,0,1.7
	c10.7,0,21.3,0,32,0c2.9,0,5.8,0,8.7,0c8.9,0.2,17.8,0.3,26.6,0.3c5-0.1,9.9-0.1,14.9-0.3c1.1,0,1.1-1.7,0-1.7c-10.7,0-21.3,0-32,0
	c-3.1,0-6.3,0-9.4,0c-3.7-0.1-7.3-0.2-11-0.4c-2.9-0.1-5.8-0.3-8.7-0.4c11.4-2.4,22.9-4.5,34.4-6.4c5-0.8,9.9-1.5,14.9-2.3
	c0.1,0.4,0.1,0.8,0.2,1.2c0.1,0.9,1.8,0.7,1.7-0.2c0-0.4-0.1-0.8-0.1-1.2c8.1-1.1,16.2-2.2,24.3-3.2c7.7-1,15.3-1.9,23-2.8
	c1.1-0.1,1.1-1.7,0-1.7c-7.6-0.4-15.1-0.4-22.7-0.3c10.1-1.2,20.1-2.3,30.2-3.3c11-1,22-1.9,33-2.5c1.1-0.1,1.1-1.7,0-1.7
	c-9.5,0.1-19,0.1-28.4,0.2c-0.3,0-0.6,0.2-0.7,0.4c-0.1-0.2-0.4-0.4-0.7-0.4c-5.7,0-11.4,0-17.1,0c-0.1,0-0.2-0.1-0.3-0.1
	c-9.5-1.1-18.9-1.9-28.4-2.6c5-2.3,10-4.5,14.9-6.8c0.6,0,1.2,0,1.8,0c7.6,0.2,15.2,0.8,22.8,1.9c1.3,0.2,2.5,0.4,3.8,0.6
	c-1.1,0-2.2,0-3.3,0c-0.3,0-0.7,0-1,0c-4.4-0.1-8.9-0.1-13.3,0c-1.1,0-1.1,1.7,0,1.7c4.7,0,9.5,0,14.2,0c10.7,0.4,21.4,1.6,31.9,3.6
	c4.3,0.8,8.6,1.8,12.8,2.9C255.3,140.6,255.7,139.1,254.7,138.7z M81.3,142.5c-0.3,0.1-0.5,0.1-0.8,0.2c1.9-1.7,3.9-3.4,5.9-5.1l0,0
	c3.4,0.1,6.7,0.2,10.1,0.3c-2.2,0.9-4.3,1.7-6.5,2.6C87.1,141.1,84.2,141.8,81.3,142.5z M90.9,130.3c-0.7-0.1-1.3-0.2-2-0.3
	c1.6-0.9,3.2-1.7,4.8-2.6c0.8,0,1.6,0.1,2.4,0.1c-1.1,0.9-2.3,1.8-3.4,2.7c-0.2,0.1-0.3,0.3-0.5,0.4
	C91.8,130.5,91.4,130.4,90.9,130.3z M98.8,127.6c0.8,0.1,1.7,0.1,2.5,0.1c-1.8,1-3.7,2-5.6,3c-0.2,0.1-0.3,0.2-0.5,0.2
	s-0.4-0.1-0.7-0.1C96,129.8,97.4,128.7,98.8,127.6z M76.9,92.2c2.6-3.5,5.3-6.8,8.2-10.1c2.5,0.6,5,1.2,7.6,1.9
	c-2.7,1.7-5.4,3.3-8.1,5C82,90.1,79.5,91.2,76.9,92.2z M184.4,127.9C184.3,127.9,184.3,127.9,184.4,127.9c-0.1,0-0.1,0-0.2,0
	C184.2,127.9,184.3,127.9,184.4,127.9z M155.6,116.8c0,0.4,0.1,0.8,0.1,1.1c-0.7-0.2-1.4-0.4-2.1-0.6c-0.3-2.9-0.6-5.9-0.9-8.8
	c0.8,0.4,1.5,0.9,2.3,1.3C155.2,112.1,155.4,114.5,155.6,116.8z M156.8,110.8c8.3,4.6,16.5,9.3,24.6,14c-8-2.1-16-4.2-24-6.4
	C157.2,115.9,157,113.4,156.8,110.8z M110.6,54.2c0.2-0.2,0.5-0.4,0.7-0.7c0.2,0.2,0.3,0.4,0.5,0.6c-0.1,0.1-0.1,0.2-0.2,0.4
	c-0.4,0.3-0.8,0.6-1.2,1c-0.2-0.2-0.3-0.4-0.4-0.6C110.1,54.6,110.4,54.4,110.6,54.2z M108.9,53.4c-2.5-3.5-5-6.9-7.4-10.4
	c3,2.9,5.9,6,8.7,9.2C109.8,52.6,109.3,53,108.9,53.4z M104.4,128c0.7,0.1,1.4,0.1,2.1,0.1c-0.9,1-1.8,2.1-2.8,3.1
	c0.1-1,0.1-1.9,0.2-2.9C104.1,128.2,104.3,128.1,104.4,128z M107.2,126.5c0.5-0.3,1-0.6,1.6-0.9c-0.3,0.3-0.5,0.6-0.8,1
	C107.7,126.5,107.4,126.5,107.2,126.5z M103,135c-4.2,0.1-8.3,0.3-12.5,0.5c0.1-0.1,0.2-0.1,0.3-0.2C94.8,134.4,99,134.2,103,135z
	 M106.6,134.5c0.8,0.1,1.7,0.2,2.5,0.4c-0.1,0-0.1,0-0.2,0c-0.8,0-1.5,0-2.2,0.1C106.6,134.8,106.6,134.7,106.6,134.5z M118.2,134.4
	c-4.5-0.6-8.9-1.2-13.4-1.9c1.3-1.4,2.6-2.8,3.9-4.2c8.8,0.7,17.6,1.8,26.4,3.1c-5.4,0.9-10.9,1.9-16.3,2.9
	C118.5,134.4,118.3,134.4,118.2,134.4z M110,126.7c0.9-1.1,1.9-2.3,2.8-3.5c5.8-3.4,11.5-7.1,17.1-11c0.5,0.2,1.1,0.3,1.6,0.5
	c3.4,2.8,6.8,5.5,10.4,8.1c0.7,0.5,1.4-0.3,1.3-1c-0.2-1.2-0.4-2.4-0.6-3.7c0.3,0.4,0.6,0.8,0.8,1.1c0.6,0.8,1.8,0.2,1.6-0.6
	c1.1,0.3,2.2,0.6,3.2,0.9c1,3.1,1.9,6.2,2.9,9.4c0.2,0.7,0.4,1.4,0.7,2.1c-3.8,0.5-7.5,1-11.2,1.6
	C130.4,128.9,120.2,127.6,110,126.7z M119.5,87.2c-5.2-2.1-10.4-4.3-15.6-6.5c1.7-1,3.3-2.1,4.9-3.1c3.1,0.4,6.1,0.8,9.2,1.2
	c2.6,0.4,5.2,0.8,7.7,1.2c0.1,0.1,0.1,0.2,0.2,0.3c2.7,3.7,5.7,7.5,9.8,9.7c1.1,0.6,2.1,1,3.2,1.3c-0.1,0.5-0.1,0.9-0.1,1.4
	c-4.1-0.8-8.2-1.7-12.3-2.6C124.2,89.1,121.9,88.1,119.5,87.2z M89.7,74c1.1-1,2.1-2,3.1-3h0.1c-0.6,0.6-1.1,1.1-1.7,1.7
	c-0.4,0.5-0.9,0.9-1.3,1.4C89.8,74.1,89.8,74.1,89.7,74C89.8,74,89.7,74,89.7,74z M104.5,59.9c0.1,0,0.3,0,0.4,0
	c-1.7,1.4-3.3,2.9-4.9,4.3l0,0C101.5,62.8,103,61.3,104.5,59.9z M97.9,63.9c-6.8-1.1-13.6-2.2-20.4-3.1c7.3-0.2,14.6-0.4,22-0.7
	c0.8,0,1.7-0.1,2.6-0.1C100.6,61.3,99.2,62.6,97.9,63.9z M148.3,45.7c-0.7,0.5-1.4,1-2,1.5c-0.1-0.7-0.1-1.3-0.2-2
	c0.2-0.3,0.4-0.5,0.7-0.8c0.5,0.2,1,0.5,1.5,0.8C148.2,45.4,148.2,45.6,148.3,45.7z M177.1,61.8c-0.4-0.2-0.7-0.4-1.1-0.7
	c0.1,0,0.1,0.1,0.2,0.1C176.6,61.4,176.9,61.6,177.1,61.8L177.1,61.8z M151.3,122c0,0.1,0,0.2,0,0.3c-0.4-1.4-0.9-2.8-1.3-4.1
	c0.3,0.1,0.6,0.1,0.8,0.2C151.1,119.6,151.2,120.8,151.3,122z M149.5,116.2c-1.2-3.8-2.4-7.6-3.6-11.3c1.2,0.7,2.4,1.3,3.6,2
	c0.4,3.2,0.7,6.5,1.1,9.7C150.3,116.4,149.9,116.3,149.5,116.2z M122.3,108.1c0.6-0.6,1.2-1.3,1.8-2c0.3,0.3,0.5,0.5,0.8,0.8
	c-0.7,0.4-1.4,0.9-2.1,1.4C122.7,108.2,122.5,108.2,122.3,108.1z M126.3,108.1c0.7,0.6,1.3,1.2,2,1.8c-1.1-0.3-2.2-0.7-3.2-1
	C125.4,108.7,125.9,108.4,126.3,108.1z M131.8,110.8c1.4-1,2.7-2,4-3c0.2,0.2,0.3,0.4,0.5,0.6c1.4,1.6,2.7,3.1,3.9,4.8
	c0,0.1,0,0.3,0.1,0.4c-2.7-0.8-5.4-1.6-8.1-2.4C132.1,111,132,110.9,131.8,110.8z M137.2,106.7c0.6-0.5,1.3-1,1.9-1.5
	c0.1-0.1,0.2-0.2,0.3-0.2c0.1,1.6,0.3,3.3,0.5,4.9C139,108.8,138.1,107.8,137.2,106.7z M140.6,115.4c0.1,0.9,0.3,1.8,0.4,2.6
	c-1.8-1.3-3.6-2.7-5.3-4.1C137.3,114.4,138.9,114.9,140.6,115.4z M143.4,114.4c-0.5-0.7-1-1.3-1.5-2c-0.4-2.9-0.7-5.9-0.9-8.8
	c0.1-0.1,0.1-0.1,0.2-0.2c0.2,0.3,0.3,0.6,0.5,0.9c0.3,0.6,1.1,0.6,1.5,0c0.1-0.2,0.3-0.5,0.4-0.7c0,0,0,0,0.1,0
	c1.2,4,2.5,8,3.7,11.9C146.1,115.2,144.7,114.8,143.4,114.4z M166.5,57c0.2,0.2,0.5,0.4,0.7,0.6c-0.1,0-0.1,0-0.2,0
	c-3.4-0.1-6.8-0.2-10.2-0.3c-0.2-0.1-0.4-0.3-0.5-0.4c2.8-0.2,5.6-0.4,8.4-0.6C165.3,56.6,165.9,56.8,166.5,57z M141,94.8
	c0.1,0.4,0.2,0.8,0.4,1.2c-0.2-0.1-0.4-0.2-0.6-0.2c0-0.3,0-0.7,0-1C140.8,94.8,140.9,94.8,141,94.8z M144.8,96.9
	c0.5-0.3,1.1-0.6,1.6-0.9c-0.2,0.3-0.4,0.6-0.5,0.9C145.5,96.8,145.1,96.8,144.8,96.9z M143.1,95.8c-0.1-0.2-0.1-0.4-0.2-0.7
	c0.3,0.1,0.7,0.1,1,0.2C143.6,95.5,143.4,95.7,143.1,95.8z M141.7,98.6c0.2,0,0.3,0,0.5,0c0.1,0.5,0.3,0.9,0.4,1.4
	c-0.2,0.2-0.5,0.4-0.8,0.7l0,0c-0.2-0.6-0.4-1.2-0.6-1.8C141.4,98.8,141.6,98.7,141.7,98.6z M146.2,94.1c-1.3-0.3-2.6-0.5-3.9-0.8
	c-0.2-0.5-0.3-1-0.5-1.5c2,0.2,4.1,0.1,6.1-0.3c0.1,0.5,0.1,1,0.1,1.5C147.5,93.4,146.8,93.7,146.2,94.1z M141.3,90
	c-0.8-2.6-1.6-5.2-2.4-7.8c0.9,0.2,1.8,0.3,2.6,0.5c1.9,0.4,3.9,0.8,5.8,1.3c0.2,2,0.4,3.9,0.6,5.9C145.6,90.3,143.5,90.4,141.3,90z
	 M130.4,61c0.2,0.7,0.4,1.4,0.7,2.1c-1.3,0.2-2.5,0.4-3.8,0.6C128.3,62.9,129.4,62,130.4,61z M145.4,62.7c0,0.4,0.1,0.8,0.1,1.2
	c-0.1,0-0.2,0-0.3,0c-3.7,0.2-7.4,0.3-11,0.5C137.9,63.8,141.7,63.3,145.4,62.7z M142.4,61.4c-3.2,0.5-6.4,1-9.6,1.5
	c-0.3-1-0.6-2-0.9-3c0.1-0.1,0.2-0.1,0.3-0.2c4.4,0,8.7,0,13.1,0c0,0.4,0.1,0.9,0.1,1.3C144.3,61.1,143.4,61.3,142.4,61.4z
	 M149.2,55.7c-0.7,0.1-1.3,0.1-2,0.1c-0.1-0.9-0.2-1.8-0.3-2.7C147.6,54,148.4,54.9,149.2,55.7z M164.9,59.7c1.1,0,2.3,0,3.4,0
	c-0.6,1-1.2,2-1.7,2.9c-0.8,0.1-1.6,0.1-2.4,0.2c-1.1-0.8-2.2-1.7-3.4-2.5C162.1,60.1,163.5,59.9,164.9,59.7z M116.3,59.7
	c1,1.4,2.1,2.7,3.1,4.1c0.6,0.9,2.1,0,1.5-0.9c-0.8-1.1-1.6-2.2-2.4-3.3c3.6,0,7.1,0,10.7-0.1c-1.5,1.1-3,2.1-4.5,3.1
	c-0.8,0.6-1.7,1.2-2.5,1.7c-0.7,0.1-1.4,0.2-2.2,0.3c-0.7,0.1-0.8,1-0.4,1.4c-0.3,0.2-0.7,0.4-1,0.7c-1.7-2.4-3.4-4.8-5.2-7.2
	C114.4,59.7,115.4,59.7,116.3,59.7z M145.7,65.6c0.4,5.5,0.9,11,1.4,16.5c-0.8-0.2-1.6-0.4-2.4-0.6c-2.1-0.5-4.3-0.9-6.4-1.3
	c-1.3-4-2.5-8-3.8-12.1c-0.2-0.7-0.4-1.4-0.6-2.1C137.8,66,141.7,65.8,145.7,65.6z M149.9,59.7c0,0.2,0,0.4,0.1,0.6
	c-0.2-0.2-0.4-0.4-0.6-0.6C149.6,59.7,149.7,59.7,149.9,59.7z M136.5,56.6c0.6-0.5,1.3-0.9,1.9-1.4c1,0.4,2,0.7,3,1.1
	C139.7,56.4,138.1,56.5,136.5,56.6z M112.7,56.6c0.1-0.4,0.2-0.7,0.3-1.1c0.3,0.4,0.6,0.7,0.9,1.1C113.5,56.6,113.1,56.6,112.7,56.6
	z M111.5,60.1c0.1,0.1,0.2,0.1,0.3,0.2c1.4,1.9,2.8,3.9,4.2,5.8c0.3,0.4,0.5,0.8,0.8,1.1c-4.8-0.9-9.7-1.8-14.6-2.7
	c1.7-1.5,3.3-3,5-4.4c0.2-0.1,0.3-0.3,0.5-0.4c1.2,0,2.3,0,3.4,0C111.3,59.9,111.4,60,111.5,60.1z M106.1,67
	c3.3,0.6,6.5,1.2,9.8,1.8l0,0c-6.2,0.1-12.4,0.2-18.6,0.4c1.1-1.1,2.2-2.1,3.3-3.2C102.4,66.4,104.3,66.7,106.1,67z M112.3,75.2
	c2.2-1.5,4.4-3.1,6.6-4.7c0.1,0,0.1,0,0.2,0c1.8,2.5,3.5,4.9,5.3,7.4c-1-0.2-1.9-0.3-2.9-0.4c-3.5-0.5-6.9-1-10.4-1.4
	C111.5,75.8,111.9,75.5,112.3,75.2z M121.2,70.5c0.9,0,1.9,0,2.8-0.1c0.9,0,1.2-1.5,0.2-1.7c-0.8-0.2-1.6-0.3-2.4-0.5
	c0.7-0.6,1.5-1.2,2.2-1.8c2.7-0.1,5.3-0.2,8-0.2c1.4,4.6,2.9,9.1,4.3,13.7c-3.2-0.6-6.4-1.1-9.6-1.6C124.9,75.7,123,73.1,121.2,70.5
	z M136.9,81.8c0.8,2.6,1.6,5.1,2.4,7.7c-0.1,0-0.1,0-0.1,0c-4.6-1.5-7.9-5.2-10.8-8.9c-0.1-0.1-0.1-0.2-0.2-0.3
	C131.1,80.7,134,81.3,136.9,81.8z M145.2,102.5c-0.1-0.3-0.2-0.6-0.3-0.9c0.4-0.7,0.8-1.3,1.2-1.9c0.9,0.4,1.9,0.7,2.8,1.1
	c0.1,1.3,0.3,2.6,0.4,3.9C147.9,104,146.6,103.2,145.2,102.5z M147.8,98.5c0.3,0,0.6,0,0.8,0c0,0.1,0,0.2,0,0.4
	C148.4,98.7,148.1,98.6,147.8,98.5z M147.6,60.3c0.1,0.1,0.2,0.2,0.3,0.3c-0.1,0-0.2,0-0.2,0C147.6,60.5,147.6,60.4,147.6,60.3z
	 M164.4,65.1c0.1,0.1,0.3,0.2,0.4,0.3v0.1c-0.2-0.2-0.4-0.3-0.6-0.5C164.3,65.1,164.3,65.1,164.4,65.1z M168.4,64.9
	c0.1-0.2,0.2-0.5,0.4-0.7c0.2,0,0.5,0,0.7-0.1c-0.2,0.3-0.5,0.6-0.7,0.9C168.7,65,168.6,64.9,168.4,64.9z M169.7,62.4
	c0.3-0.6,0.6-1.2,0.9-1.8c0.3,0.3,0.7,0.6,1,0.9c-0.2,0.3-0.4,0.6-0.6,0.8C170.5,62.3,170.1,62.4,169.7,62.4z M154.2,55.4
	c-1.1-0.9-2.3-1.7-3.4-2.6c-0.1-0.4-0.1-0.8-0.1-1.2c3.4,1,6.8,2.1,10.2,3.3C158.7,55.1,156.5,55.2,154.2,55.4z M148.9,51.3
	c-0.1-0.1-0.3-0.2-0.4-0.3c0.1,0,0.3,0.1,0.4,0.1C148.9,51.2,148.9,51.3,148.9,51.3z M147,48.8c0.5-0.4,1-0.7,1.5-1.1
	c0.1,0.5,0.1,1,0.2,1.6C148.1,49.1,147.6,48.9,147,48.8z M147.8,43.1l0.1-0.1c0,0.1,0,0.1,0,0.2C147.9,43.2,147.9,43.2,147.8,43.1z
	 M147,41.5c-0.2,0.3-0.5,0.6-0.8,0.9c-0.2-0.1-0.3-0.2-0.5-0.2c0-0.6-0.1-1.2-0.1-1.9C146.1,40.7,146.6,41.1,147,41.5z M144.6,50.8
	c0.1,1.5,0.2,3,0.3,4.4c-0.9-0.9-1.9-1.8-2.8-2.8C142.9,51.9,143.7,51.3,144.6,50.8C144.5,50.7,144.6,50.7,144.6,50.8z M141.8,54.6
	c-0.6-0.2-1.1-0.4-1.7-0.6c0.2-0.2,0.4-0.3,0.6-0.4C141.1,53.9,141.4,54.2,141.8,54.6z M98.4,65.7c-0.1,0.1-0.2,0.2-0.3,0.3
	C98.2,65.9,98.3,65.8,98.4,65.7L98.4,65.7z M94.7,69.3L94.7,69.3c0.7-0.7,1.4-1.4,2.1-2.1C96.2,67.9,95.4,68.6,94.7,69.3z M95.4,71
	c3.8-0.1,7.7-0.2,11.5-0.2c2.1,0,4.2-0.1,6.3-0.1c-2.4,1.6-4.9,3.3-7.4,4.9c-2.8-0.3-5.6-0.6-8.4-0.8c-1.8-0.2-3.5-0.3-5.3-0.4
	C93.3,73.1,94.4,72,95.4,71z M138.8,94.3c0,0.2,0,0.4,0,0.6c-1.1-0.4-2.1-0.8-3.1-1.3C136.8,93.9,137.8,94.1,138.8,94.3z
	 M139.2,101.2c0,0.6,0.1,1.1,0.1,1.7c-1.1,0.9-2.1,1.7-3.2,2.6c-0.7-0.7-1.4-1.5-2.1-2.2c0.7-0.4,1.4-0.9,2.1-1.3s1.4-0.9,2.1-1.3
	C138.6,100.9,138.9,101,139.2,101.2z M134.7,106.5c-1.4,1.1-2.8,2.1-4.2,3.1c-0.9-0.8-1.8-1.6-2.7-2.4c1.6-1,3.1-2,4.7-3
	C133.2,105,133.9,105.7,134.7,106.5z M126.4,106c-0.4-0.4-0.8-0.7-1.2-1.1c1.2-1.4,2.2-2.9,3.2-4.4c0.9,0.8,1.8,1.7,2.7,2.5
	C129.6,104,128,105,126.4,106z M126.5,100.3c-0.6,0.8-1.2,1.7-1.8,2.5c0.2-0.5,0.4-0.9,0.6-1.4C125.7,101,126.1,100.6,126.5,100.3z
	 M118,115.6c0.1,0,0.2,0,0.3-0.1c0.4-0.1,0.6-0.5,0.6-0.8s0.1-0.6,0.1-0.9c0.3-0.5,0.6-1,0.9-1.5c1.1-0.7,2.2-1.4,3.2-2.2
	c1.5,0.5,3.1,0.9,4.6,1.4c-0.7,0.4-1.3,0.9-1.9,1.3c-3.4,2.3-6.9,4.6-10.4,6.7C116.2,118.3,117.1,117,118,115.6z M151.7,130.7
	c0.2,0,0.3,0,0.5-0.1c0.1,0.4,0.3,0.9,0.4,1.3c0,0.3,0.1,0.6,0.1,0.9c-2.3-0.5-4.6-0.9-6.9-1.4C147.8,131.3,149.8,131,151.7,130.7z
	 M150.2,84.8c0.8,0.2,1.7,0.5,2.5,0.8l0,0c-0.7,1.1-1.4,2.2-2,3.4C150.5,87.6,150.4,86.2,150.2,84.8z M150,83
	c-0.6-5.8-1.2-11.6-1.8-17.5c0.8,0,1.6-0.1,2.4-0.1c0.7,6.1,1.3,12.2,1.9,18.3C151.7,83.5,150.9,83.2,150,83z M148,63.8
	c-0.1-0.5-0.1-1-0.2-1.5c0.5-0.1,1.1-0.2,1.6-0.2c0.3,0.3,0.6,0.6,0.9,0.8c0,0.3,0.1,0.5,0.1,0.8C149.6,63.7,148.8,63.8,148,63.8z
	 M151.9,62.1c0-0.1,0-0.3-0.1-0.4c0.7-0.1,1.4-0.2,2.1-0.3c0.5,0.7,1.1,1.3,1.6,2c-0.7,0-1.4,0.1-2.2,0.1
	C152.9,63,152.4,62.6,151.9,62.1z M156.7,62.1c0.7,0.3,1.5,0.6,2.2,0.9c0.1,0.1,0.1,0.1,0.2,0.2c-0.5,0-1,0.1-1.5,0.1
	C157.3,62.9,157,62.5,156.7,62.1z M161.1,64.7c0.9,0.8,1.9,1.5,2.8,2.3c-0.5,0.9-1.1,1.8-1.6,2.7c-1.1-1.6-2.3-3.2-3.5-4.8
	C159.6,64.8,160.3,64.8,161.1,64.7z M163.9,70.3c-0.2,0.3-0.3,0.7-0.5,1l-0.1-0.1C163.6,70.9,163.8,70.6,163.9,70.3z M171.8,64
	c0.8-0.1,1.6-0.1,2.4-0.2c0.8,0.7,1.6,1.4,2.4,2.1c-0.5,0.6-0.9,1.2-1.4,1.8c-1.6-0.7-3.2-1.3-4.8-1.9
	C170.9,65.1,171.4,64.5,171.8,64z M176.6,63.6C176.6,63.6,176.7,63.6,176.6,63.6c0.5,0.2,0.9,0.5,1.3,0.7c-0.1,0.1-0.1,0.2-0.2,0.2
	C177.4,64.2,177,63.9,176.6,63.6z M150.5,49.7c-0.1-1.1-0.3-2.2-0.4-3.2c0.1-0.1,0.2-0.1,0.3-0.2c2.2,1.1,4.4,2.2,6.5,3.4
	c1.6,1.2,3.1,2.4,4.7,3.6C157.9,52,154.2,50.8,150.5,49.7z M150.2,44.3c-0.1-0.1-0.2-0.1-0.4-0.2c0-0.1,0-0.1,0-0.2
	C149.9,44,150,44.1,150.2,44.3L150.2,44.3z M144.4,47.8c-0.1-0.1-0.2-0.2-0.4-0.3c0.1-0.1,0.2-0.2,0.3-0.3
	C144.4,47.4,144.4,47.6,144.4,47.8z M143.1,49.6c-0.8,0.6-1.5,1.1-2.2,1.7c-0.1-0.1-0.1-0.1-0.1-0.2c0.5-0.6,1.1-1.1,1.6-1.7
	C142.6,49.5,142.8,49.5,143.1,49.6z M132.5,56.8c-0.3,0-0.6,0-1,0.1c-0.2,0-0.4,0-0.6,0c-0.5-1.7-1-3.3-1.6-5
	c1.2,0.4,2.4,0.9,3.7,1.3c0.8,0.3,1.6,0.6,2.4,0.9C134.4,55,133.4,55.9,132.5,56.8z M65.9,61c10.2,1.2,20.3,2.7,30.4,4.3
	c-1.4,1.3-2.8,2.6-4.2,4c-3.9,0.1-7.8,0.2-11.7,0.2c-6-2.9-12.1-5.7-18.1-8.5C63.5,61,64.7,61,65.9,61z M90.3,71.1
	c-0.8,0.7-1.5,1.4-2.2,2.1c-1.4-0.7-2.8-1.3-4.2-2C86,71.2,88.1,71.1,90.3,71.1z M94,76.1L94,76.1c3.3,0.2,6.4,0.5,9.6,0.9
	c-1.1,0.7-2.2,1.4-3.3,2.2c-0.4-0.2-0.8-0.3-1.1-0.5C97.4,77.8,95.7,76.9,94,76.1z M126.1,91.7c4.3,1.8,8.6,3.5,13,5.2V97
	c-1.3,0-2.6,0.1-4,0.1c-3.1-1.7-6.2-3.3-9.3-4.9c-0.6-0.3-1.2-0.6-1.8-0.9C124.7,91.4,125.4,91.5,126.1,91.7z M136.5,99.7
	c-1.3,0.8-2.5,1.5-3.8,2.3c-1.1-1.1-2.2-2.1-3.3-3.1l0,0c1.7,0,3.5-0.1,5.2-0.1C135.3,99.1,135.9,99.4,136.5,99.7z M115.3,115.5
	c0.2,0.1,0.4,0.1,0.7,0.1c-1.4,2.1-2.8,4.2-4.3,6.2c-2.4,1.4-4.9,2.9-7.4,4.2c0.2-1,0.3-2.1,0.6-3.1c0.5-0.4,1-0.8,1.6-1.2
	C109.3,119.7,112.3,117.6,115.3,115.5z M101.9,132.1c-1.3-0.2-2.6-0.4-3.9-0.6c1.4-0.7,2.7-1.5,4.1-2.2
	C102,130.2,102,131.2,101.9,132.1z M95.7,132.8c-0.1,0-0.1,0-0.2,0H95.7L95.7,132.8z M140.4,132.3c3.6,0.6,7.2,1.3,10.8,2
	c0.6,0.1,1.1,0.2,1.7,0.4c0,0.3,0.1,0.6,0.1,0.8c-9.1-0.4-18.3-0.7-27.5-0.7C130.5,133.9,135.5,133.1,140.4,132.3z M157.6,147.9
	c-0.2,0-0.5,0-0.7,0.1c-0.1-1.2-0.2-2.4-0.4-3.6C156.9,145.6,157.2,146.8,157.6,147.9z M157.2,140.9c0.1,0,0.2,0,0.3,0
	c0,0.5,0.1,0.9,0.1,1.4C157.5,141.8,157.4,141.4,157.2,140.9z M166.2,138c0,0,0.1,0,0.1-0.1c0.5,0,1,0.1,1.5,0.1
	C167.3,138.1,166.8,138.1,166.2,138z M162.4,137.9c-1.1,0-2.2-0.1-3.3-0.1c0-0.1,0-0.2,0-0.3c1.2,0.1,2.5,0.1,3.7,0.2
	C162.6,137.8,162.5,137.9,162.4,137.9z M157.3,137.8c-0.4,0-0.7,0-1.1,0c0-0.1-0.1-0.3-0.1-0.4c0.4,0,0.8,0,1.2,0.1
	C157.3,137.6,157.3,137.7,157.3,137.8z M152.5,106.5c0-0.2,0-0.3-0.1-0.5c-0.1-1.3-0.3-2.6-0.4-3.9c0.8,0.3,1.6,0.6,2.4,0.9
	c0.1,1.6,0.3,3.2,0.4,4.8C154,107.3,153.3,106.9,152.5,106.5z M152.2,65.3c0.1,0,0.3,0,0.4,0c2.6,2.5,5.2,5.1,7.8,7.6
	c-1.7,2.8-3.4,5.6-5,8.4c-0.4,0.7-0.8,1.3-1.2,2C153.6,77.2,152.9,71.3,152.2,65.3z M155,65.1c0.6,0,1.2-0.1,1.8-0.1
	c1.6,2.1,3.1,4.2,4.6,6.3c0,0,0,0,0,0.1C159.2,69.3,157.1,67.2,155,65.1z M168.6,68.2c1.3,0.9,2.6,1.9,3.9,2.8
	c-0.1,0.1-0.1,0.2-0.2,0.3c-1.3-1-2.6-1.9-3.8-2.9C168.5,68.3,168.5,68.2,168.6,68.2z M170.9,67.7c1.1,0.4,2.2,0.9,3.3,1.3
	c-0.2,0.2-0.4,0.4-0.5,0.6C172.7,69,171.8,68.4,170.9,67.7z M175.8,69.7c1.9,0.8,3.7,1.5,5.6,2.3c1.5,0.6,2.9,1.2,4.4,1.8
	c3.8,3.3,7.6,6.6,11.3,9.9c3.3,2.8,6.5,5.7,9.8,8.6c-10.8-7-21.4-14.2-31.9-21.6C175.3,70.4,175.5,70,175.8,69.7z M176.9,68.3
	c0.4-0.4,0.7-0.9,1-1.3c1.3,1.1,2.5,2.2,3.8,3.3C180.1,69.7,178.5,69,176.9,68.3z M179,65.7c0.1-0.2,0.2-0.3,0.4-0.5
	c2.7,1.6,5.4,3.2,8.2,4.7c1.3,0.7,2.5,1.4,3.8,2c2.3,1.8,4.6,3.5,6.8,5.4c-3.8-1.7-7.6-3.3-11.5-4.9C184.2,70.2,181.6,67.9,179,65.7
	z M188.1,67.4c0.5,0.3,1,0.6,1.5,0.8c2.7,1.6,5.3,3.2,7.9,4.9c-1.8-0.8-3.5-1.7-5.2-2.6C190.9,69.4,189.5,68.4,188.1,67.4z
	 M177.1,59.8c1.3,0,2.5,0,3.8,0c0.3,0,0.5-0.1,0.6-0.2c-0.4,0.6-0.9,1.2-1.3,1.7C179.2,60.7,178.2,60.2,177.1,59.8z M147.3,38
	c-0.6-0.5-1.3-1.1-1.9-1.7c0-0.5-0.1-0.9-0.1-1.3c0.4-0.2,0.8-0.4,1.1-0.6c0.1-0.1,0.2-0.1,0.4-0.2C147,35.5,147.2,36.8,147.3,38z
	 M148.5,33.5c2.4-1.2,4.8-2.3,7.2-3.2c-2.1,2.9-4.3,5.8-6.5,8.6C148.9,37,148.7,35.3,148.5,33.5z M145.2,33.1
	c-0.1-1.7-0.2-3.4-0.3-5.2c0.3-0.1,0.7-0.2,1-0.3c0.2,1.6,0.4,3.2,0.6,4.8C146.2,32.7,145.7,32.9,145.2,33.1z M144.1,43.5
	c0,0.4,0.1,0.8,0.1,1.2c-0.5,0.6-1,1.1-1.5,1.7c-2.5-2-5-4-7.4-5.9c0.4-0.2,0.8-0.5,1.2-0.7c2.6,1.1,5.1,2.3,7.6,3.4
	C144.1,43.3,144.1,43.4,144.1,43.5z M139.5,49.9c-0.5-0.5-1-1-1.5-1.5c0.8,0.2,1.6,0.3,2.4,0.5C140.1,49.3,139.8,49.6,139.5,49.9z
	 M138.3,51.1c-0.5,0.5-1,1.1-1.6,1.6c-1.6-0.6-3.3-1.2-5-1.8c-1-0.4-2-0.7-3-1.1c-0.3-1.1-0.7-2.2-1-3.3c2.4,0.4,4.8,0.8,7.2,1.2
	C136,48.9,137.1,50,138.3,51.1z M128,44.9c0.8-0.5,1.6-1,2.4-1.5c0.8,0.8,1.5,1.5,2.3,2.3C131.1,45.4,129.6,45.1,128,44.9z
	 M125.8,46.3c0.3,1,0.6,2,0.9,2.9c-1.4-0.4-2.8-0.6-4.2-0.7C123.6,47.8,124.7,47.1,125.8,46.3z M123.8,50.4c1.2,0.2,2.4,0.4,3.5,0.8
	c0.6,1.9,1.2,3.7,1.8,5.6c-0.6,0-1.1,0-1.7,0c-3.7-0.1-7.4-0.1-11.2-0.1c-0.6-0.8-1.2-1.5-1.8-2.3c1.8-1.4,3.6-2.7,5.4-4
	C121.2,50.2,122.5,50.2,123.8,50.4z M99.9,43.7c-1.5-2-3-4.1-4.4-6.2C96.9,39.6,98.4,41.7,99.9,43.7z M88.3,75.9
	c-1.3,1.4-2.6,2.9-3.9,4.3c-0.3-0.1-0.7-0.2-1-0.2c1.5-1.4,3-2.8,4.5-4.3C88.1,75.7,88.2,75.8,88.3,75.9z M90,76.6
	c2.8,1.2,5.6,2.4,8.3,3.6c0.1,0,0.1,0.1,0.2,0.1c-1.3,0.8-2.6,1.7-3.9,2.5c-2.8-0.7-5.6-1.4-8.3-2.1C87.5,79.3,88.8,77.9,90,76.6z
	 M131.6,97.1c-0.5,0-1,0-1.4,0c-0.2-0.5-0.7-0.8-1.2-0.5c-0.3,0.2-0.6,0.3-0.9,0.5c-0.2,0-0.3,0-0.5,0c-3.1-2.6-6.3-5-9.6-7.2
	C122.4,92.3,127,94.7,131.6,97.1z M123.9,100.3c-0.6,0.5-1.1,1.1-1.6,1.7c-0.9-0.9-1.9-1.9-2.8-2.9c1.6,0,3.3-0.1,4.9-0.1
	C124.3,99.4,124.1,99.9,123.9,100.3z M118.2,109.7c-1.3,1.2-2.7,2.3-4.2,3.4c-2.1-1.4-3.4-4.2-2.4-6.6c2.3,0.7,4.6,1.5,6.9,2.2
	C118.4,109,118.3,109.4,118.2,109.7z M112.6,114.2c-2.1,1.5-4.3,3-6.5,4.3c1-3.1,2.2-6,3.7-8.9C110.1,111.4,111.2,113,112.6,114.2z
	 M102.5,126.1c-0.5,0-1.1-0.1-1.6-0.1c0.6-0.5,1.2-1,1.9-1.4C102.7,125.1,102.6,125.6,102.5,126.1z M100.7,138L100.7,138
	c0,0-0.1,0-0.2,0.1C100.6,138,100.7,138,100.7,138z M116.4,136.5c1.5,0,3,0,4.4,0c1,0.1,2,0.3,3,0.4c-2.7-0.1-5.5-0.1-8.2-0.2
	C115.9,136.6,116.2,136.6,116.4,136.5z M137.6,136.8c-0.4,0-0.8-0.1-1.2-0.1c5.6,0.1,11.2,0.3,16.9,0.6c0,0.1,0,0.3,0.1,0.4
	c-3.3-0.1-6.6-0.2-9.9-0.3C141.5,137.2,139.6,137,137.6,136.8z M159.3,141.1c0.1,0,0.1,0,0.1,0c1.8,0,3.5,0,5.2,0c2,0.1,4,0.3,6,0.4
	c-3.8,0.2-7.5,0.5-11.3,0.8C159.3,141.8,159.3,141.5,159.3,141.1z M176.4,139.2c0-0.2,0-0.3-0.1-0.5c1.8,0.1,3.6,0.3,5.4,0.5
	C179.9,139.2,178.1,139.2,176.4,139.2z M157.1,135.7c-0.5,0-1.1-0.1-1.6-0.1c0-0.1,0-0.3-0.1-0.4c0.5,0.1,1.1,0.2,1.6,0.3
	C157.1,135.6,157.1,135.7,157.1,135.7z M155.3,133.4c-0.1-1-0.2-2.1-0.3-3.1c0.6-0.1,1.1-0.1,1.7-0.2c0.1,1.2,0.2,2.4,0.3,3.6
	C156.4,133.7,155.9,133.5,155.3,133.4z M156.2,128.5c-0.4,0.1-0.9,0.1-1.3,0.2c-0.3-3.1-0.7-6.3-1-9.4c0.7,0.2,1.4,0.4,2,0.6
	c0.2,2.9,0.5,5.8,0.7,8.7C156.4,128.4,156.3,128.5,156.2,128.5z M157.6,120.3c2.6,0.7,5.3,1.5,7.9,2.2c4.5,1.2,9.1,2.4,13.6,3.6
	c-2.4,0.2-4.7,0.5-7,0.9c-4.6,0.4-9.2,0.8-13.9,1.3C158.1,125.6,157.9,122.9,157.6,120.3z M188.4,127.9c0.1-0.1,0.3-0.1,0.4-0.2
	c0.1,0,0.3,0,0.4,0c7.2-0.2,14.4-0.2,21.5,0.1c-6.7,0-13.3,0.1-20,0.1C190,127.9,189.2,127.9,188.4,127.9z M158,104.3
	c15,5.8,30,11.5,45.1,17.1c4.4,1.7,8.9,3.3,13.3,4.9c-7.5-0.5-15-0.6-22.5-0.5c-1.1,0-2.3,0-3.4,0.1c-0.1-0.3-0.4-0.5-0.7-0.5
	c-1.2,0-2.4,0-3.6,0.1c-9.8-5.7-19.6-11.4-29.5-16.8c-0.1-1.7-0.3-3.4-0.5-5.1C156.8,103.9,157.4,104.1,158,104.3z M154.2,101
	c-0.8-0.3-1.6-0.6-2.4-0.9c-0.1-0.6-0.1-1.1-0.2-1.7c0.8,0,1.5,0,2.3-0.1C154,99.3,154.1,100.1,154.2,101z M151.3,95.1
	c0-0.2-0.1-0.4-0.1-0.7c0.7-0.7,1.4-1.4,2.1-2.2c0.1,1.1,0.2,2.2,0.3,3.3C152.9,95.4,152.1,95.2,151.3,95.1z M153.2,90.4
	c-0.1,0-0.3,0-0.5,0.1c-0.5,0.3-0.9,0.5-1.4,0.8c0.2-0.3,0.4-0.6,0.6-0.9c0.4-0.2,0.9-0.3,1.3-0.5C153.1,90,153.1,90.2,153.2,90.4z
	 M154.6,87.3c0-0.3-0.1-0.7-0.1-1c0.4,0.1,0.7,0.3,1.1,0.4C155.2,86.9,154.9,87.1,154.6,87.3z M157.3,85.6c-0.7-0.3-1.4-0.6-2.1-0.9
	c2.1-3.5,4.3-7.1,6.4-10.6c0.2,0.2,0.5,0.5,0.7,0.7c0,0.1,0.1,0.1,0.1,0.1c1.1,1.1,2.3,2.3,3.5,3.4c-0.8,0.8-1.6,1.6-2.4,2.3
	C161.7,82.4,159.6,84.1,157.3,85.6z M167.2,77.1c-0.8-1.3-1.6-2.5-2.4-3.8c0.9-1.2,1.7-2.4,2.6-3.6c1.2,1,2.5,1.9,3.8,2.9
	C169.9,74.1,168.6,75.6,167.2,77.1z M173.7,72.3c0.1-0.1,0.2-0.2,0.2-0.3c7,5,14.2,9.9,21.4,14.7c2.9,1.9,5.8,3.9,8.8,5.8
	C193.6,86.3,183.4,79.6,173.7,72.3z M230.4,55.8c-2.6,0.4-5.2,0.7-7.8,1.1C225.1,55.7,227.8,55.2,230.4,55.8z M216.5,59.4
	c-1.6,1.8-2.9,3.8-3.6,5.9c-1.8,5.3-0.7,11.3,1.5,16.4c2.4,5.5,6.2,10.1,10.3,14.4c4.4,4.5,9.2,8.7,13.3,13.5
	c-12.4-3.3-24.6-7.8-36.1-13.6c5.7,2.3,11.4,4.6,17.2,6.8c0.9,0.4,1.5-1.1,0.7-1.6c-1.1-0.6-2.1-1.1-3.1-1.7c0.3-0.3,0.3-0.8,0-1.1
	c-8.6-7.5-17.2-15-25.8-22.5c4,1.7,8.1,3.5,12.1,5.2c0.8,0.4,1.9-0.7,1-1.3c-1.7-1.4-3.4-2.9-5.1-4.3c2.2,1,4.4,2,6.6,3
	c1,0.4,1.8-0.8,0.9-1.5c-7.2-5.3-14.8-10-22.7-14.2c8.6-0.8,17.2-1.7,25.7-2.7C211.7,60,214.1,59.7,216.5,59.4z M183.2,57.3
	c-0.5,0.7-1,1.4-1.5,2c0.3-0.5,0-1.3-0.7-1.3c-1.4-0.1-2.8-0.1-4.2-0.1c0,0,0-0.1,0.1-0.1c2.2-0.3,4.5-0.7,6.8-1
	C183.4,57,183.3,57.1,183.2,57.3z M179,55.2c2-0.2,4-0.4,6.1-0.5c-0.1,0.1-0.1,0.2-0.2,0.2c-2.2,0.3-4.3,0.7-6.5,1
	C178.6,55.6,178.8,55.4,179,55.2z M188.3,54.3c-0.4,0.1-0.7,0.1-1.1,0.2c0,0,0-0.1,0.1-0.1C187.7,54.4,188,54.4,188.3,54.3z
	 M192.2,40.8c1.6-1.6,3.2-3.2,4.8-4.8c-3.3,5.7-6.9,11.3-10.6,16.7c-1.9,0.2-3.8,0.3-5.7,0.5C184.4,49,188.2,44.8,192.2,40.8z
	 M176.6,55.4c-0.2,0.3-0.5,0.6-0.7,0.9c-1.1,0.2-2.1,0.3-3.2,0.5c0.2-0.4,0.4-0.7,0.6-1.1C174.4,55.6,175.5,55.5,176.6,55.4z
	 M168,30.3c-5.1,4.1-10.3,8.2-15.5,12.2c-0.3-0.3-0.6-0.5-0.9-0.8c-0.5-0.4-1-0.9-1.5-1.3c2.9-3.6,5.7-7.3,8.3-11.1
	C161.6,28.4,165.4,28.1,168,30.3z M156.7,28.1c-2.1,0.7-4.1,1.6-5.9,2.4c-0.9,0.4-1.7,0.8-2.5,1.2c-0.2-1.5-0.4-3-0.6-4.4
	C150.7,26.7,153.8,27,156.7,28.1z M144.5,16.1c0.4,3.3,0.9,6.6,1.3,9.8c-0.3,0.1-0.6,0.2-0.9,0.3C144.8,22.8,144.6,19.5,144.5,16.1z
	 M141.9,36.8c0.6,0.5,1.1,1,1.7,1.6c0.1,1,0.2,1.9,0.3,2.9c-1.8-0.9-3.7-1.7-5.6-2.5C139.5,38.1,140.7,37.4,141.9,36.8z M132.1,38
	c0.8,0.3,1.5,0.6,2.3,1c-0.2,0.1-0.4,0.3-0.6,0.4C133.2,38.9,132.7,38.4,132.1,38z M133.7,41.4c2.5,2,4.9,4,7.4,5.9
	c-1.8-0.4-3.6-0.8-5.3-1.1c-1.3-1.2-2.6-2.5-3.8-3.8C132.5,42.1,133.1,41.8,133.7,41.4z M126.2,39.3c1,1,1.9,1.9,2.9,2.8
	c-3.4,2.1-6.7,4.3-9.9,6.6c-2.3,0.4-4.4,1.4-6,3.2c-0.1,0.1-0.2,0.3-0.4,0.4c-0.1-0.1-0.1-0.2-0.2-0.2
	C117.2,47.9,121.7,43.6,126.2,39.3z M95.8,35.8c-0.6,0-1.1,0.5-0.8,1.1c-1.2-1.7-2.3-3.5-3.4-5.3C93,33,94.4,34.4,95.8,35.8z
	 M108.1,56.5L108.1,56.5C108.1,56.6,108,56.6,108.1,56.5C108.1,56.6,108.1,56.5,108.1,56.5z M86.3,58.3c-8.7,0.1-17.3,0.2-26,0.4
	c-0.6-0.1-1.2-0.1-1.7-0.2C67.8,58.3,77,58.3,86.3,58.3z M52.9,71.8c8.4-0.2,16.7-0.3,25.1-0.5c1.8,0.8,3.6,1.6,5.4,2.4
	c-3.3-0.2-6.6-0.3-9.9-0.4c-5.2-0.2-10.5-0.2-15.7-0.1C56,72.7,54.5,72.2,52.9,71.8z M71.6,76.9c-2.6-0.7-5.1-1.4-7.7-2.1
	c2.1,0,4.2,0,6.2,0.1c5.2,0.1,10.3,0.3,15.4,0.6c-1.4,1.3-2.8,2.6-4.1,3.9C78.2,78.6,74.9,77.7,71.6,76.9z M83.2,81.6
	c-3.3,3.9-6.5,7.9-9.5,12c-0.4,0.5,0.2,1.3,0.8,1.3c-5.6,3.3-11.3,6.6-17,9.7c8.2-7.8,16.4-15.6,24.6-23.3
	C82.4,81.4,82.8,81.5,83.2,81.6z M98.7,83.7c1.1-0.6,2.1-1.2,3.1-1.8c1.2,0.6,2.4,1.2,3.7,1.8c-0.3,0.2-0.5,0.6-0.2,1
	c0.2,0.2,0.3,0.4,0.5,0.6C103.4,84.8,101.1,84.3,98.7,83.7z M110,88.1c0.8,0.2,1.6,0.4,2.3,0.5c4.4,2.6,8.5,5.4,12.4,8.6
	c-2.3,0.1-4.6,0.1-6.9,0.2C115.2,94.4,112.6,91.3,110,88.1z M117.2,99.2c1.3,1.4,2.7,2.8,4.1,4.2c-0.8,1.2-1.6,2.4-2.2,3.8
	c-2.3-0.7-4.7-1.5-7.1-2.2c-5.4-1.7-10.9-3.5-16.3-5.3C102.9,99.5,110.1,99.3,117.2,99.2z M102.8,122.4c-1.5,1.1-3.1,2.3-4.6,3.5
	c-0.5,0-1-0.1-1.6-0.1C98.8,124.7,100.8,123.5,102.8,122.4z M72.8,127.1c5.9-0.1,11.7,0,17.6,0.2c-1.4,0.8-2.8,1.5-4.1,2.3
	C81.7,128.7,77.2,127.9,72.8,127.1z M86.5,131.3c1.3,0.2,2.7,0.5,4,0.7c-1.1,0.9-2.1,1.7-3.2,2.6c-1,0.4-2,0.8-2.9,1.2
	c-0.2,0-0.4,0-0.6,0c-0.5,0-0.7,0.3-0.8,0.7c-1.8,1-3.6,2.2-5.1,3.6c-0.8,0.7,0.2,1.8,1,1.4c0.3-0.1,0.5-0.3,0.8-0.4
	c-0.8,0.7-1.7,1.5-2.5,2.2c-0.1,0.1-0.2,0.2-0.2,0.3c-3.9,1-7.9,1.9-11.8,2.9C71.4,140.3,78.9,135.6,86.5,131.3z M136.1,143.9
	c-16.1,1.1-32.2,2.3-48.3,3.6c-6.2,0.5-12.4,1-18.7,1.5c7.2-1.9,14.4-4.2,21.4-6.8c5.9-1.4,11.8-2.7,17.7-3.9
	c11.8,0.3,23.6,0.6,35.4,1c0.1,0,0.2,0,0.3,0c-2.7,0-5.4,0-8.1,0c-1.1,0-1.1,1.7,0,1.7c6,0,12.1,0,18.1,0c0.1,0.6,0.2,1.1,0.2,1.7
	C148.1,143,142.1,143.4,136.1,143.9z M180.6,148.3c4.3-0.1,8.6-0.1,12.9-0.1c-9.9,1.2-19.8,2.5-29.6,3.8c-2.2,0.3-4.3,0.6-6.5,0.9
	c-0.1-1-0.2-2-0.3-3c0.4-0.1,0.7-0.1,1.1-0.2l0,0c0.3,0.9,1.8,0.8,1.7-0.2l0,0c0.5-0.1,1-0.2,1.6-0.2
	C167.8,148.8,174.2,148.4,180.6,148.3z M216.2,140.5c0.1,0.2,0.4,0.4,0.7,0.4c0.9,0,1.8,0,2.7,0c-11.1,0.9-22.2,2.1-33.2,3.4
	c-8.3,1-16.6,2.1-24.9,3.3c-0.6,0.1-1.1,0.1-1.7,0.1c-0.1-1.3-0.2-2.5-0.3-3.8c8.2-0.6,16.5-1.1,24.7-1.6c0.8-0.1,1-0.9,0.7-1.4
	c0.7,0,1.5,0,2.2,0c3.6,0,7.3,0,10.9,0c5.8,0,11.7,0,17.5,0C215.8,140.9,216.1,140.7,216.2,140.5z M166.6,136
	c-2.6-0.6-5.2-1.2-7.9-1.8c-0.1-1.4-0.2-2.8-0.3-4.2c1.3-0.1,2.6-0.3,3.8-0.4c-0.1,0.5,0.2,1,0.8,1c5.2-0.5,10.4-0.8,15.7-0.8
	c0.1,0,0.2,0.1,0.3,0.1c0.4,0,0.9,0,1.3,0C175.8,131.8,171.2,133.9,166.6,136z M223.1,133.1c0-0.4-0.1-0.8-0.6-0.9
	c-5.1-1.1-10.2-1.9-15.3-2.6c4.2,0,8.5,0,12.8-0.1c1.6,0,3.2,0,4.8,0c5.7,2.1,11.4,4.2,17.1,6.3
	C235.7,134.6,229.4,133.7,223.1,133.1z"/>
</svg>
