<?xml version="1.0" encoding="utf-8"?>
<!-- Generator: Adobe Illustrator 24.3.0, SVG Export Plug-In . SVG Version: 6.00 Build 0)  -->
<svg version="1.1" id="Calque_1" xmlns="http://www.w3.org/2000/svg" xmlns:xlink="http://www.w3.org/1999/xlink" x="0px" y="0px"
	 viewBox="0 0 546 123.2" style="enable-background:new 0 0 546 123.2;" xml:space="preserve">
<style type="text/css">
	.st0{fill:#CCCCCC;}
	.st1{fill-rule:evenodd;clip-rule:evenodd;fill:#CCCCCC;}
	.st2{fill:none;}
</style>
<g>
	<path class="st0" d="M446.8,89.4c0-3.9-0.2-10.1-0.4-16.2v-0.1c-0.2-5.9-0.4-12.1-0.4-15.8c0-5.3,1.3-8.3,7.9-8.3h0.7v-2.9H427V49
		h0.7c5.1,0,7.8,1.3,7.8,8.5v30.3c0,5.9-1.7,9-10.7,9.1h-13.1l0.2,2.9H458v-2.9h-4.8C449.2,96.8,446.8,94.1,446.8,89.4z M427.1,98.3
		c6.3-0.3,10.1-2.6,10.1-10.5V57.5c0-4.5-0.6-9.4-7.9-9.9h23.2c-7,0.5-8,5-8,9.8c0,3.7,0.2,9.7,0.4,15.6v0.3
		c0.2,5.8,0.4,12.3,0.4,16.2c0,5.1,2.6,8.4,6.9,8.8H427.1z"/>
	<path class="st0" d="M458.3,100.1h-46.6l-0.2-3.5h13.4c8.8-0.1,10.4-3,10.4-8.8V57.5c0-6.9-2.5-8.2-7.5-8.2h-1v-3.5h28.2v3.5h-1
		c-6.4,0-7.6,2.8-7.6,8c0,3.7,0.2,9.8,0.4,15.8v0.1c0.2,5.7,0.4,12.2,0.4,16.2c0,4.5,2.2,7.1,6.1,7.2h5.1V100.1z M412.2,99.5h45.6
		v-2.3h-4.5c-4.2-0.1-6.7-3-6.7-7.8c0-4-0.2-10.5-0.4-16.2v-0.1c-0.2-6-0.4-12.1-0.4-15.8c0-5.4,1.3-8.6,8.2-8.6h0.4v-2.3h-27v2.3
		h0.4c5.2,0,8.1,1.4,8.1,8.8v30.3c0,6-1.8,9.3-11,9.4H412L412.2,99.5z M452.2,98.6h-25.1l0-0.6c7-0.3,9.8-3.3,9.8-10.2V57.5
		c0-4.4-0.6-9.1-7.6-9.6l0-0.6h23.2l0,0.6c-6.8,0.5-7.7,4.9-7.7,9.5c0,3.8,0.2,10.1,0.4,15.6v0.3c0.2,5.4,0.4,12.1,0.4,16.2
		c0,4.9,2.5,8.1,6.6,8.5L452.2,98.6z M431,98h18.8c-3-1.2-4.8-4.3-4.8-8.5c0-4-0.2-10.8-0.4-16.2V73c-0.2-5.5-0.4-11.8-0.4-15.6
		c0-3.9,0.7-8,5.2-9.5h-17.1c5.1,1.7,5.1,6.7,5.1,9.6v30.3C437.5,93.6,435.5,96.8,431,98z"/>
</g>
<g>
	<path class="st0" d="M519.3,97.1c-12.1,0-28-5.3-42.7-14.3c-13.2-8-22.5-17.3-23.2-23l19.5-0.1c0.2,15.1,7,23,19.5,23
		c13.2,0,27.5-9.2,27.5-24.1c0-19-28.3-31.8-70.4-31.8h-33.9l0.1,53.5h2.8l-0.1-15.6c0-29.5,22.4-33.2,45.3-33.3
		C487.4,31.4,506,47,506,67v4.8c-20.3-0.2-30.1-8.3-30.1-25v-0.7h-0.7c-15.6,0-28.3,9.9-28.3,22.1c0,8.3,5.9,16,16.5,21.5
		c12.9,6.7,31.7,10.1,55.9,10.1h0.7v-2.6L519.3,97.1z M464.1,88.3C454,83,448.5,75.9,448.5,68.1c0-5.4,2.7-10.5,7.6-14.4
		c5.3-4,11.7-6.2,18.4-6.2c0.3,17.4,10.9,25.8,32.4,25.8h0.7v-6.2c0-20.8-19.3-37.1-43.8-37.1c-22.6,0-44.4,4.2-46.6,29.9V28.3h32.4
		c41.2,0,68.9,12.1,68.9,30.3c0,14-13.5,22.6-26.1,22.6c-12,0-18-7.5-18-22.3v-0.8L452,58.3h-0.1V59c0,6.2,9.2,15.9,23.5,24.7
		c12.7,7.8,26.1,12.9,37.5,14.4C492.2,97.6,475.4,94.2,464.1,88.3L464.1,88.3z"/>
	<path class="st0" d="M520.3,100.1h-1c-24.2,0-43.1-3.4-56-10.1c-10.7-5.6-16.7-13.3-16.7-21.8c0-12.3,12.8-22.4,28.6-22.4h1v1
		c0,16.4,9.7,24.4,29.5,24.7V67c0-19.8-18.5-35.3-42-35.3c-23.4,0.1-45,4.2-45,33l0.1,15.9h-3.4v-0.3l-0.1-53.8h34.2
		c42.3,0,70.7,12.9,70.7,32.1c0,15.1-14.4,24.4-27.8,24.4c-12.7,0-19.5-8-19.8-23l-18.9,0.1c1,5.6,10.4,14.8,23,22.5
		c14.6,8.9,30.5,14.3,42.6,14.3l0,0l0.9,0.1V100.1z M475.2,46.4c-15.4,0-28,9.8-28,21.8c0,8.2,5.8,15.8,16.3,21.2
		c12.9,6.7,31.6,10.1,55.8,10.1h0.4v-2.1l-0.4-0.1c-12.2,0-28.2-5.4-42.8-14.3c-13.2-8-22.6-17.3-23.3-23.2l0-0.3l20.1-0.1l0,0.3
		c0.2,14.9,6.8,22.7,19.2,22.7c13.1,0,27.2-9.1,27.2-23.8c0-18.9-28.2-31.5-70.1-31.5h-33.6L416,80h2.2l-0.1-15.3
		c0-29.3,21.9-33.5,45.6-33.6c23.9,0,42.6,15.8,42.6,35.9v5.1l-0.3,0c-20.4-0.2-30.4-8.5-30.4-25.3v-0.4H475.2z M512.9,98.4
		c-20.6-0.5-37.6-3.9-48.9-9.8h0c-10.2-5.3-15.8-12.6-15.8-20.5c0-5.5,2.7-10.7,7.7-14.6c5.4-4.1,11.9-6.3,18.6-6.3h0.3l0,0.3
		c0.3,17.2,10.8,25.5,32.1,25.5h0.4v-5.9c0-20.6-19.1-36.8-43.5-36.8c-21.6,0-44.1,3.5-46.3,29.6l-0.6,0V28h32.7
		c41.4,0,69.2,12.3,69.2,30.6c0,14.1-13.7,22.9-26.4,22.9c-12.1,0-18.3-7.6-18.3-22.6v-0.5l-21.9,0.2V59c0,6.1,9.2,15.7,23.4,24.5
		c12.6,7.7,25.9,12.8,37.4,14.4L512.9,98.4z M464.2,88c10.5,5.5,25.7,8.8,44.3,9.6c-10.5-2.1-22.2-6.9-33.3-13.7
		c-14.4-8.8-23.6-18.6-23.6-24.9v-0.1c-1.9,2.8-2.8,5.9-2.8,9.2C448.8,75.7,454.3,82.8,464.2,88L464.2,88z M474.7,57.8v1.1
		c0,14.6,6,22,17.7,22c12.4,0,25.8-8.5,25.8-22.3c0-18-27.6-30-68.6-30h-32.1v27.1c1.8-9.6,6.8-16.4,15.2-20.6
		c7.3-3.6,17.2-5.3,31.1-5.3c24.7,0,44.1,16.4,44.1,37.4v6.5h-1c-21.6,0-32.3-8.4-32.7-25.8c-6.5,0.1-12.7,2.2-18,6.1
		c-1.6,1.2-2.9,2.6-4,4.1L474.7,57.8z"/>
</g>
<rect x="108.8" y="26.4" class="st0" width="22.9" height="73.3"/>
<polygon class="st0" points="23.9,48.5 65.7,48.5 24,75.6 24,75.6 24,99.7 104.2,99.6 104.1,77.5 62.6,77.5 104.1,50.4 104.1,50.4 
	104.1,26.3 23.9,26.4 "/>
<path class="st0" d="M297.1,55.1c-2.1,0-3.9-1.7-3.9-3.9c0-2.1,1.7-3.9,3.9-3.9s3.9,1.7,3.9,3.9l0,0C301,53.4,299.2,55.1,297.1,55.1
	z M297.1,48.8c-1.4,0-2.5,1.1-2.5,2.4c0,1.4,1.1,2.5,2.5,2.5s2.5-1.1,2.5-2.5C299.6,49.9,298.5,48.8,297.1,48.8L297.1,48.8
	L297.1,48.8z"/>
<g>
	<path class="st0" d="M321.5,48.3c25-13.5,65.6-19.8,86.8-19.9v31c-1.2-19.7-9.1-27.2-27.9-27.1c-14.3,0-21.9,5-21.9,14.5v14.6h0.7
		c8.8,0,17-2,23.3-5.5c5.6-3.2,9-7.2,10-11.7l0.1,26.3c-0.8-6.3-4.4-8.8-12.2-8.8H350V46h-0.7c-12,0-21.4,0.6-27.8,3.1
		c0,0.5,0.1,1.1,0.1,1.7c5.3-2.2,13.4-3.2,26.9-3.2v15.6h31.8c8.2,0,10.9,2.6,10.9,10.2V74h2.8V41.1V41h-2.7v0.8
		c0,9.8-14,17.8-31.3,18.1V46.7c0-10.7,11.1-13,20.4-13c19.6,0,26.6,8.1,26.6,31.1v15.6h2.8l-0.1-53.6H409c-15.5,0-42.9,3.5-66.4,11
		c-7.4,2.3-14.5,5.2-21.4,8.8C321.3,47.2,321.5,47.7,321.5,48.3z"/>
	<path class="st0" d="M410.1,80.7h-3.4V64.8c0-22.8-6.9-30.8-26.3-30.8c-9.2,0-20.1,2.2-20.1,12.7v12.9c17-0.4,30.7-8.3,30.7-17.8
		v-1.1h3.3v33.6h-3.4v-0.9c0-7.5-2.6-9.9-10.6-9.9h-32.1V47.9c-13.1,0-21.2,1-26.5,3.2l-0.4,0.2v-0.4c0-0.3,0-0.6-0.1-0.9
		c0-0.3,0-0.6,0-0.8v-0.2l0.2-0.1c7-2.7,17.6-3.1,27.9-3.1h1v15.7l7.9,0V46.8c0-9.7,7.7-14.8,22.2-14.8c0.1,0,0.2,0,0.4,0
		c16.9,0,24.9,6.2,27.2,21.8V28.7c-21,0.2-61.4,6.4-86.4,19.9l-0.4,0.2v-0.5c0-0.4-0.1-0.7-0.2-1c0-0.2-0.1-0.4-0.1-0.6l0-0.2
		l0.2-0.1c6.9-3.6,13.9-6.5,21.4-8.8c23.7-7.6,51.1-11,66.5-11h1v0.3L410.1,80.7z M407.3,80.1h2.2l-0.1-53H409
		c-15.4,0-42.7,3.4-66.3,11c-7.5,2.3-14.4,5.2-21.2,8.7c0,0.1,0.1,0.3,0.1,0.4c0.1,0.2,0.1,0.5,0.1,0.7
		c25.2-13.4,65.7-19.6,86.5-19.7l0.3,0v31.3l-0.6,0c-1.2-19.3-8.8-26.8-27.3-26.8c-0.1,0-0.2,0-0.4,0c-14.1,0-21.6,4.9-21.6,14.2
		v14.3h0.4c8.6,0,16.8-1.9,23.2-5.5c5.5-3.1,8.9-7.1,9.9-11.5l0.5-2.5l0.1,28.8l-0.6,0c-0.8-6.1-4.2-8.6-11.9-8.6h-30.7V46.3h-0.4
		c-10.2,0-20.6,0.4-27.5,3c0,0.2,0,0.4,0,0.6c0,0.2,0,0.4,0,0.5c5.4-2.1,13.6-3.1,26.6-3.1h0.3v15.6h31.5c8.4,0,11.2,2.6,11.2,10.5
		v0.3h2.2V41.3h-2.1v0.5c0,10-13.9,18.1-31.6,18.4l-0.3,0V46.7c0-6.1,3.6-13.3,20.7-13.3c19.8,0,26.9,8.2,26.9,31.4V80.1z
		 M364.7,61.4h15.7c6.8,0,10.5,1.9,11.9,6.4l-0.1-21.7c-1.5,3.8-4.7,7.3-9.6,10C377.6,59,371.4,60.8,364.7,61.4z"/>
</g>
<g>
	<path class="st0" d="M414.1,98.7c-22.2-25.2-52.7-34.3-67.9-34.3c-5.1,0-8.2,1.1-9.4,3.3c-2,3.8,2.1,9.7,6.1,15.5
		c3.3,4.8,6.8,9.8,5.6,12.1c-0.6,1.1-2.4,1.7-5.4,1.7c-2.8,0-9.7-1.7-16.5-6.1c-5.5-3.7-12.4-10.3-13.7-20.9
		c-0.4,0.4-0.9,0.7-1.3,1.1c3.1,19.3,23.8,27.5,31.6,27.5c3.6,0,5.8-0.8,6.7-2.5c1.6-3.1-1.9-8.2-5.7-13.7c-3.5-5.1-7.6-11-6-13.9
		c0.9-1.7,3.6-2.5,8.1-2.5c14.5,0,43.8,8.7,65.6,32.6h-35.5c2.1,0,4.2-0.5,6.1-1.4c1.6-0.8,2.7-2.4,2.7-4.2
		c0-9.4-25.9-26.5-40.2-26.5c-2.8,0-4.1,0.5-4.5,1.6c-0.6,2.1,3.2,4.8,10.6,9.9s17.4,12,16.2,16c-0.6,2.1-4.9,4.6-21.7,4.6
		c-29.8,0-45.1-7.7-45.7-22.9c-0.5,0.1-1,0.1-1.5,0.1c0.6,16.1,16.4,24.3,47.1,24.2c14.6,0,21.9-1.8,23.1-5.7
		c1.6-5-8.2-11.7-16.8-17.6c-4.1-2.8-10.4-7.1-10-8.3c0,0,0.2-0.6,3-0.6c14.4,0,38.7,17,38.7,25c0,1.2-0.8,2.4-1.9,2.9
		c-1.5,0.8-4,1.3-7.2,1.3h-0.7v2.9l41.3-0.1L414.1,98.7z"/>
	<path class="st0" d="M344.9,100.3c-30.5,0-46.2-8.2-46.8-24.5l0-0.3h0.3c0.5,0,1,0,1.4-0.1l0.3-0.1l0,0.3
		c0.5,13.7,13.3,21.2,38,22.5c-9.4-2.4-24.3-10.8-26.9-27l0-0.1l0.1-0.1c0.2-0.2,0.4-0.4,0.7-0.6c0.2-0.2,0.4-0.3,0.6-0.5l0.4-0.4
		l0.1,0.6c1.3,10.4,8.1,17,13.6,20.7c6.8,4.4,13.6,6.1,16.3,6.1c2.8,0,4.6-0.5,5.2-1.6c1.1-2.1-2.3-7.1-5.4-11.5l-0.3-0.4
		c-4-5.8-8.1-11.8-6-15.7c1.3-2.3,4.4-3.5,9.7-3.5c15.2,0,45.9,9.2,68.1,34.4l0,0l1.3,1.6l-42.2,0.1v-3.5h1c3,0,5.5-0.5,7.1-1.3
		c1-0.5,1.8-1.6,1.8-2.7c0-7.9-24.1-24.7-38.4-24.7c-2.4,0-2.7,0.4-2.8,0.5c-0.3,1,6.8,5.8,9.9,7.9l0.1,0.1
		c8.7,5.9,18.5,12.7,16.8,17.9c-1.3,4.1-8.5,5.9-23.4,5.9C345.3,100.3,345.1,100.3,344.9,100.3z M298.7,76.1
		c0.8,15.7,16.3,23.6,46.2,23.6c0.2,0,0.4,0,0.6,0c14.4,0,21.7-1.7,22.8-5.5c1.5-4.8-8.1-11.4-16.6-17.2l-0.1-0.1
		c-7-4.8-10.5-7.4-10.1-8.6c0.1-0.2,0.6-0.8,3.3-0.8c7.8,0,18,4.9,24.9,9.5c8.6,5.7,14.1,11.9,14.1,15.7c0,1.3-0.8,2.6-2.1,3.2
		c-1.6,0.9-4.2,1.3-7.3,1.3H374v2.3l40.4-0.1l-0.5-0.6c-22.1-25.1-52.6-34.2-67.7-34.2c-4.9,0-8,1.1-9.2,3.2
		c-1.9,3.6,2.1,9.4,6,15.1l0.3,0.4c3.4,5,6.7,9.7,5.4,12.1c-0.7,1.2-2.6,1.9-5.7,1.9c-2.8,0-9.7-1.7-16.7-6.1
		c-5.5-3.7-12.3-10.2-13.8-20.6c-0.1,0.1-0.2,0.1-0.3,0.2c-0.2,0.1-0.4,0.3-0.5,0.4c3,18.3,22.2,26.5,30.4,27.1c0.5,0,1,0,1.5,0
		c3.1-0.1,5-0.9,5.8-2.3c1.5-3-2-8-5.7-13.4l-0.1-0.2c-3.5-5.1-7.5-11-5.9-14c0.9-1.8,3.7-2.6,8.3-2.6c14.5,0,43.9,8.7,65.8,32.7
		l0.4,0.5h-36.1v-0.6c2,0,4.1-0.5,6-1.4c1.5-0.8,2.5-2.3,2.5-3.9c0-9.3-25.7-26.2-39.9-26.2c-2.6,0-3.9,0.4-4.2,1.4
		c-0.5,1.9,3.2,4.6,10.5,9.6c7.8,5.4,17.6,12.1,16.3,16.3c-0.9,3.2-8.3,4.8-22,4.8c-0.6,0-1.2,0-1.8,0c-0.5,0-1,0-1.5,0
		c-27.5-0.6-41.9-8.2-42.7-22.8C299.3,76.1,299,76.1,298.7,76.1z M380.3,98.3h30.9c-21.5-23.3-50.2-31.9-64.6-32
		c14.6,1.2,38.9,17.6,38.9,26.7c0,1.9-1.1,3.6-2.9,4.5C381.9,97.8,381.1,98.1,380.3,98.3z M341.5,66.7c-1.5,0.4-2.5,1-3,1.9
		c-1.5,2.7,2.4,8.4,5.8,13.4l0.1,0.2c3.8,5.5,7.4,10.7,5.7,14c-0.5,0.9-1.4,1.6-2.6,2.1c15.9-0.2,19.1-2.8,19.5-4.4
		c1.1-3.8-9.2-11-16.1-15.7c-7.9-5.4-11.4-7.9-10.7-10.2C340.4,67.5,340.8,67,341.5,66.7z"/>
</g>
<path image-rendering="optimizeQuality" text-rendering="geometricPrecision" shape-rendering="geometricPrecision" class="st1" d="
	M517.1,30.8c0,0.3,0.2,0.5,0.5,0.5h0.7c1,0,2,0,2-1.2c0-1-0.9-1.2-1.7-1.2h-1c-0.3,0-0.5,0.2-0.5,0.5V30.8z M515.9,28.5
	c0-0.3,0.2-0.5,0.5-0.5h2.4c1.8,0,2.6,0.7,2.6,2.2c0,1.1-0.5,1.7-1.3,1.9c-0.3,0.1-0.5,0.5-0.3,0.8l1.2,1.9c0.2,0.4,0,0.8-0.4,0.8
	l0,0c-0.2,0-0.3-0.1-0.4-0.2l-1.7-2.8c-0.1-0.2-0.3-0.2-0.4-0.2h-0.4c-0.3,0-0.5,0.2-0.5,0.5V35c0,0.3-0.2,0.5-0.5,0.5h-0.1
	c-0.3,0-0.5-0.2-0.5-0.5v-6.5H515.9z M518.5,37.2c3,0,5.3-2.4,5.3-5.5s-2.3-5.5-5.3-5.5s-5.3,2.4-5.3,5.5
	C513.1,34.9,515.4,37.2,518.5,37.2z M518.5,25.3c3.5,0,6.4,2.8,6.4,6.4c0,3.7-2.9,6.5-6.4,6.5s-6.5-2.8-6.5-6.5
	S514.9,25.3,518.5,25.3L518.5,25.3z"/>
<path class="st2" d="M195.1,52.7l-0.4-0.1l-0.3-0.1l-0.4-0.1c-0.6-0.2-1.3-0.3-1.9-0.4h-0.2l-0.4-0.1h-0.4h-0.2
	c-2.2-0.3-4.5-0.4-6.8-0.4h-21.8c0.1,3.1,2.9,7.3,7.3,10.6c4.8,3.8,10.7,5.9,16.8,6c6.4,0,13.3-2.9,13.2-9.4
	C199.6,55.7,198.2,53.8,195.1,52.7z"/>
<path class="st2" d="M208.4,29.4c0,0-8.4-1-10.9-1.6c5.6,1.1,10.8,3.4,15.5,6.6C211.6,33.4,208.4,29.4,208.4,29.4z"/>
<path class="st2" d="M214.4,35.4c3.2,2.6,5.8,5.8,7.6,9.5l-0.5-4.6L214.4,35.4z"/>
<path class="st0" d="M215.6,56c0-4.6-1.7-7.3-8.5-7.3V45H222c-1.8-3.7-4.4-6.9-7.6-9.5c0,0,0,0-1.4-1c-4.7-3.2-9.9-5.5-15.5-6.6
	c-2.5-0.6-2.9-0.7-6.8-1.1c-3.2-0.4-6.5-0.5-9.8-0.5h-44.1l0.1,73.4h25.3V68.5h0.7c0.1,11.2,11.7,23.7,27.3,23.7
	c10.1,0,19.1-3.6,25.4-10v0.4l0,0C215.6,82.6,215.6,60.2,215.6,56z M186.4,68.1c-6.1-0.1-12-2.2-16.8-6c-4.4-3.3-7.2-7.5-7.3-10.6
	h21.8c2.3,0,4.6,0.1,6.8,0.4h0.2h0.4l0.4,0.1h0.2c0.6,0.1,1.3,0.2,1.9,0.4l0.4,0.1l0.3,0.1l0.4,0.1c3.1,1.1,4.5,3,4.5,6
	C199.7,65.2,192.8,68.1,186.4,68.1z"/>
<g>
	<path class="st0" d="M293.8,75.5c-0.3-0.3-0.8-0.4-1.3-0.5l-0.1,0.3l0.1-0.3l-0.2,0l-0.1,0.2c-4.9,9-15.1,15.4-24.9,15.4
		c-20.9,0-29.9-12.7-30-42.6v-1l-2,0c-5,0.2-10.9,2.4-10.9,11.7v0.3c0,3.8,0.2,9.5,0.4,15.1c0.2,5.8,0.4,11.7,0.4,15.6
		c0,4.3,1.9,7.5,5,8.7H211c4.1-1,6.6-3.8,6.6-10.3V57.4c0-4.8-0.7-10-8.7-10.4v-0.3h29.3c0.5,23.4,17.2,36.8,45.8,36.8h1V72.4l0-0.2
		l-0.1-0.1c-0.5-0.3-1-0.6-1.5-1l-0.5-0.4v10.5C255.8,81,240.2,68,240.2,45.6v-1h-33.4v4.3h0.3c6.8,0,8.2,2.8,8.2,7v32.3
		c0,5.9-1.6,8.9-10.5,8.9h-8.5l0.2,3.5l54-0.2v-3.5h-17.4c-4,0-6.2-2.6-6.2-7.2c0-3.9-0.2-9.4-0.4-15.7c-0.2-5.6-0.4-11.4-0.4-15.1
		c0-6.1,3-9.4,8.8-9.8c0.3,30.5,9.8,43.6,32,43.6c10.6,0,21.7-6.9,26.9-16.9l0.1-0.2L293.8,75.5z"/>
	<path class="st0" d="M244.9,29.4c-3.7,0-7.6,0.2-11.6,0.5c-7.9,0.7-14.8,2.1-20.4,4.2l-0.5,0.2l2,1.4l0.1,0
		c5.5-1.9,12-3.2,19.4-3.8c3.2-0.3,6.7-0.4,11.1-0.4c9.7,0,20.1,5.5,27.9,14.6l0.4,0.5l0.1-0.6c0-0.3,0.1-0.6,0.2-0.8
		c0.1-0.3,0.2-0.6,0.2-0.9l0-0.1l-0.1-0.1C265.7,34.9,254.9,29.4,244.9,29.4z"/>
	<path class="st0" d="M225.2,28.1c2.4,0,4.8,0,7.1,0.1c18.5,0.6,33.9,3.7,44.6,9.1l0.2,0.1l1.2-1.7l-0.3-0.2
		c-11.2-5.6-27.3-8.8-46.4-9.4c-2.1-0.1-4.3-0.1-6.4-0.1h-42.7l0,0.6l8.2,0.4c3.9,0.4,4.3,0.5,6.7,1.1L225.2,28.1z"/>
</g>
<g>
	<path class="st0" d="M297.1,75.9c-13.6,0-24.6-11-24.6-24.6s11-24.6,24.6-24.6l0,0c13.6,0,24.6,11,24.6,24.6S310.7,75.9,297.1,75.9
		z M297.1,28.9L297.1,28.9c-12.4,0-22.4,10.1-22.4,22.5s10.1,22.4,22.5,22.4s22.4-10.1,22.4-22.5l0,0
		C319.5,38.9,309.5,28.8,297.1,28.9L297.1,28.9z"/>
	<path class="st0" d="M297.1,76.3c-13.8,0-25-11.2-25-25s11.2-25,25-25s25,11.2,25,25S310.9,76.3,297.1,76.3z M297.1,27.1
		c-13.4,0-24.2,10.9-24.2,24.2c0,13.4,10.9,24.2,24.2,24.2s24.2-10.9,24.2-24.2C321.3,37.9,310.5,27.1,297.1,27.1z M297.2,74.2
		c-12.6,0-22.9-10.2-22.9-22.8c0-12.6,10.2-22.9,22.8-22.9c6.1,0,11.8,2.3,16.1,6.6c4.3,4.3,6.7,10,6.7,16.1
		C320,63.9,309.7,74.2,297.2,74.2z M297.1,29.3c-12.2,0-22,9.9-22,22.1c0,12.2,9.9,22,22.1,22c12.2,0,22-9.9,22-22.1
		c0-5.9-2.4-11.5-6.5-15.6C308.5,31.5,303,29.2,297.1,29.3L297.1,29.3z"/>
</g>
</svg>
