<?xml version="1.0" encoding="utf-8"?>
<!-- Generator: Adobe Illustrator 24.0.1, SVG Export Plug-In . SVG Version: 6.00 Build 0)  -->
<svg version="1.1" id="Calque_1" xmlns="http://www.w3.org/2000/svg" xmlns:xlink="http://www.w3.org/1999/xlink" x="0px" y="0px"
	 viewBox="0 0 841.9 516.6" style="enable-background:new 0 0 841.9 516.6;" xml:space="preserve">
<style type="text/css">
	.st0{fill:#FFFFFF;}
	.st1{fill:#FFFFFF;stroke:#000000;stroke-miterlimit:10;}
</style>
<path class="st0" d="M128-69.6c0,0-0.1,0.1-0.1,0.1c0.1,0,0.1,0,0.2,0L128-69.6z"/>
<path class="st1" d="M837.5,0.8C837.5,0.8,837.5,0.8,837.5,0.8L837.5,0.8z"/>
<path class="st1" d="M820.1-1.1c0.1,0,0.1-0.1,0.2-0.1c-0.1,0-0.1,0-0.2-0.1L820.1-1.1z"/>
<path class="st0" d="M472.9,7.8l5,3l-4,4c-4-10-10,1-14-3v12c3,0,8,2,9,0c5-5,9,0,15-2l-3,5l2,1l11-15l-2-3L472.9,7.8z"/>
<path class="st0" d="M447.9,16.8h2c0-2,1-4,1-6v-5h-5L447.9,16.8z"/>
<path class="st0" d="M353.9,21.8v4c-4-3-4-3-17-2l-1,5l-9-1c5,5,8,6,12,3c3-3,6-2,8,1l2,4l4-4l7-1l-4-9H353.9z"/>
<path class="st0" d="M582.9,34.8c0,1-2,1-3,2h-5l-5,10c2,0,5,1,7,0c3-1,6-3,9-4c2-1,5-2,8,0s8,0,12,0l10-1c-11-4-22-8-33-11
	C582.9,31.8,583.9,33.8,582.9,34.8z"/>
<rect x="-0.1" y="0.8" class="st0" width="841.9" height="515.8"/>
</svg>
