<?xml version="1.0" encoding="utf-8"?>
<!-- Generator: Adobe Illustrator 24.0.1, SVG Export Plug-In . SVG Version: 6.00 Build 0)  -->
<svg version="1.1" id="Calque_1" xmlns="http://www.w3.org/2000/svg" xmlns:xlink="http://www.w3.org/1999/xlink" x="0px" y="0px"
	 viewBox="0 0 56.7 56.7" style="enable-background:new 0 0 56.7 56.7;" xml:space="preserve">
<style type="text/css">
	.st0{fill:#1D1D1B;}
</style>
<path class="st0" d="M49.7,21.7c-0.7,2.4-1.8,4.7-3.4,6.6c-2.3-0.5-4.2-2.1-6.5-2.9c-1.8-0.6-4.1-0.7-5.7,0.4
	c-0.4,0.3-0.7,0.7-1,1.1c-0.3,0.5-0.4,1-0.7,1.5c-0.7,1-2.1,0.5-3,0.3c-1.2-0.3-2.4-0.6-3.6-1c0.4-0.3,0.9-0.6,1.3-0.9
	c2.5-1.6,5.2-3.2,8.1-3.9c1.6-0.1,3.2-0.1,4.7-0.2c0.2,0,0.4-0.1,0.4-0.3c0-0.2-0.1-0.4-0.3-0.4c-1.7-0.3-3.3-0.2-4.9,0.2
	c-1.9,0.1-3.7,0.1-5.6,0.2c-3.4,0.1-6.9,0.1-10.3,0c-2,0-3.9-0.1-5.9-0.2c-0.4,0-0.5,0.5-0.2,0.7c1.6,0.9,3.2,1.8,4.9,2.6
	c-0.6,0.5-1.2,1.1-1.6,1.8c-0.5,0.7-0.9,1.4-1.1,2.2c-0.1,0.2-0.1,0.3-0.2,0.5c-1.7,0-3.4-0.2-5.1-0.6c-0.5-0.1-1-0.2-1.5-0.4
	c-0.5-0.1-0.7,0.6-0.2,0.8c2.1,0.6,4.3,0.9,6.5,1c0.1,0,0.1,0,0.2,0c0,0,0,0.1,0,0.1c0.2,0.5,0.6,0.7,1,0.9c2,0.7,4.1-0.6,5.7-1.5
	c1-0.6,2.1-1.3,3.1-2c1,0.3,2.1,0.7,3.1,1c0.6,0.2,1.3,0.3,1.9,0.5c0.6,0.1,1.2,0.2,1.8,0.1c0.6-0.1,1-0.5,1.3-1
	c0.3-0.5,0.4-1,0.7-1.5c1-1.6,3.3-1.7,5-1.3c1.1,0.3,2.1,0.8,3.1,1.4c1.1,0.6,2.2,1.2,3.4,1.6c0.3,0.1,0.6,0.2,0.9,0.2
	c0.1,0,0.3,0,0.4-0.1c1.7-2.1,2.9-4.6,3.7-7.2C50.6,21.4,49.8,21.2,49.7,21.7z M15.1,23c2.9,0.1,5.8,0.1,8.8,0.1
	c2.9,0,5.8,0,8.6-0.1c-1.2,0.5-2.3,1-3.4,1.7c-1.4,0.8-2.8,1.8-4.2,2.7c-0.3-0.1-0.6-0.2-0.9-0.3c0.1-0.3,0.2-0.7,0.2-1.1
	c0-0.8-0.3-1.7-1.1-2.2c-0.9-0.5-1.9-0.1-2.8,0.3c-0.5,0.2-1,0.5-1.5,0.9C17.6,24.4,16.3,23.7,15.1,23z M21.8,26.2
	c-0.7-0.3-1.4-0.6-2.1-0.9c0.5-0.3,1-0.6,1.5-0.7c0.4-0.1,0.9-0.3,1.3-0.2c0.3,0.1,0.5,0.3,0.7,0.6c0.3,0.5,0.3,1.2,0.1,1.8
	C22.8,26.6,22.3,26.4,21.8,26.2z M16.4,29.2c0.6-1.3,1.5-2.5,2.6-3.4c0.5,0.2,1,0.5,1.5,0.7c0.8,0.3,1.6,0.7,2.4,1
	c-0.3,0.5-0.8,1-1.3,1.3c-1.6,1-3.6,1.1-5.4,1.2c-0.1,0-0.2,0-0.2,0C16.2,29.8,16.3,29.5,16.4,29.2z M16.5,31
	c-0.1,0-0.3-0.1-0.4-0.2c0.7,0,1.4,0,2.1-0.1c0.6-0.1,1.2-0.2,1.8-0.3c-0.3,0.1-0.6,0.3-0.9,0.4C18.3,31.1,17.3,31.3,16.5,31z
	 M23.2,28.6c0.2-0.2,0.4-0.5,0.5-0.8c0.1,0,0.3,0.1,0.4,0.1C23.8,28.2,23.5,28.4,23.2,28.6z"/>
</svg>
