<svg xmlns="http://www.w3.org/2000/svg" viewBox="0 0 582.22 939.26"><defs><style>.cls-1,.cls-3{fill:#c6c6c5;}.cls-2{fill:none;stroke:#b1b1b1;stroke-miterlimit:10;stroke-width:2.13px;}.cls-3{font-size:48px;font-family:MonumentExtended-Regular, Monument Extended;}.cls-4{letter-spacing:-0.01em;}.cls-5{letter-spacing:-0.05em;}.cls-6{letter-spacing:-0.02em;}.cls-7{letter-spacing:-0.03em;}.cls-8,.cls-9{font-family:Helvetica-LightOblique, Helvetica;font-weight:300;font-style:oblique;}.cls-9{font-size:38px;}.cls-10{letter-spacing:-0.01em;}.cls-11{letter-spacing:-0.01em;}.cls-12{letter-spacing:0.03em;}.cls-13{letter-spacing:0.03em;}.cls-14{letter-spacing:0.1em;}.cls-15{letter-spacing:0.1em;}</style></defs><title>Fichier 1</title><g id="Calque_2" data-name="Calque 2"><g id="Calque_3" data-name="Calque 3"><path class="cls-1" d="M94.5,858.72a34.43,34.43,0,0,0,2.92,14.95,1.91,1.91,0,0,1-2.5,2.49L90.12,875a1.91,1.91,0,0,1-1.46-1.91V845.49a1.9,1.9,0,0,0-2.09-1.92H80.73a1.9,1.9,0,0,0-2.09,1.92v36a1.91,1.91,0,0,0,1.67,1.92l21.49,5a2,2,0,0,0,2.51-1.53l1.46-6.9a2.22,2.22,0,0,0-.21-1.15c-3.13-7.29-4.18-11.7-4.18-15.91,0-8.82,3.13-11.12,7.72-11.12,5,0,8.14,3.06,8.14,12.65,0,8.82-1.25,14-5.42,14.95a2.11,2.11,0,0,0-1.67,1.92v7.86a2,2,0,0,0,2.29,1.92c12.31-1.15,15.23-12.27,15.23-26.27,0-15-5-24.34-17.11-24.34C100.34,840.32,94.5,847.22,94.5,858.72Z"/><path class="cls-1" d="M108.69,786.26v5.17a1.9,1.9,0,0,1-2.09,1.92H80.73a1.9,1.9,0,0,0-2.09,1.92v8.81a3.36,3.36,0,0,0,.42,1.35l29,30.09a2.46,2.46,0,0,0,1.67.58h7.51a1.9,1.9,0,0,0,2.09-1.92v-27.6a1.89,1.89,0,0,1,2.08-1.92h3.76a1.89,1.89,0,0,0,2.08-1.92v-7.67a1.89,1.89,0,0,0-2.08-1.91h-3.76a1.89,1.89,0,0,1-2.08-1.92v-5.18a1.89,1.89,0,0,0-2.09-1.91h-6.47A2.32,2.32,0,0,0,108.69,786.26Zm-2.09,18.21v.19a1.9,1.9,0,0,1,2.09,1.92v11.88a2.13,2.13,0,0,1-3.76,1.15L93.87,807.73c-1.25-1.35-.21-3.26,1.67-3.26Z"/><path class="cls-1" d="M0,759.14v155.2A23.89,23.89,0,0,0,23.86,938.2H164a23.89,23.89,0,0,0,23.86-23.86V759.14A23.88,23.88,0,0,0,164,735.28H23.86A23.88,23.88,0,0,0,0,759.14Zm2.87,155.2V759.14A21,21,0,0,1,14,740.61l33.55,8.45c-.84,9.4-4.59,16.11-11.06,23.78-4.8,5.75-8.14,11.69-8.14,19.17,0,7.86,3.76,13.8,9.18,19.74,6.89,7.67,10.22,14.76,10.22,24.92,0,10.36-3.54,17.83-10.22,25.69-5.21,6.14-9,12.27-9.18,20.13,0,7.28,3.13,13.23,8.14,18.6,6.67,7.47,10.22,13.61,11.06,23l-33.94,8.55A21,21,0,0,1,2.87,914.34ZM61.53,752.52c26.08,6.51,52,13,78,19.55V901.28c-26.07,6.51-51.95,13-78,19.55-1-7.67-3.33-15-8.55-21.47-4.17-5.37-10.22-9.59-10.22-16.68,0-7.67,7.09-12.84,11.26-18.79,5.85-8,7.93-17.63,7.93-27.22,0-9.39-2.08-18.78-7.93-26.84-4.17-5.75-11.26-10.35-11.26-17.82,0-7.1,6.05-11.89,10.22-17.45C58.2,767.85,60.49,760.38,61.53,752.52ZM185,759.14V769c-4.07-2.86-11.66-1.21-11.66,5v126.9c0,6.17,7.59,7.82,11.66,5v8.49a21,21,0,0,1-21,21H57.36Q103,924,148.54,912.59a6.9,6.9,0,0,0,5.21-6.33V767.08a6.9,6.9,0,0,0-5.21-6.32q-45.13-11.28-90.42-22.61H164A21,21,0,0,1,185,759.14Z"/><path class="cls-1" d="M158.68,489.36H164a20.92,20.92,0,0,1,13.08,4.6c.68-.7,1.35-1.37,2-2.06A23.77,23.77,0,0,0,164,486.49h-8.72A8.5,8.5,0,0,1,158.68,489.36Z"/><path class="cls-1" d="M23.86,489.36H144.62l3.85-2.54a4.56,4.56,0,0,1,.56-.33H23.86a23.59,23.59,0,0,0-10.21,2.3l2.1,2.2A20.9,20.9,0,0,1,23.86,489.36Z"/><path class="cls-1" d="M144.62,489.36h14.06a8.5,8.5,0,0,0-3.37-2.87H149a4.56,4.56,0,0,0-.56.33Z"/><path class="cls-1" d="M35.39,511.55Q25.58,501.26,15.75,491l-2.1-2.2a24,24,0,0,0-10.57,9.85A23.7,23.7,0,0,0,0,510.35v155.2a23.73,23.73,0,0,0,2.6,10.82,24.06,24.06,0,0,0,10.15,10.29,23.76,23.76,0,0,0,11.11,2.75H164a23.92,23.92,0,0,0,23.18-18.2,24,24,0,0,0,.68-5.66V510.35a23.86,23.86,0,0,0-8.74-18.45c-.69.69-1.36,1.36-2,2.06-5.79,5.88-11.64,12-17.37,18.16V492.57a5.83,5.83,0,0,0-1.06-3.21H144.62C118,506.91,91.48,524.48,64.81,542.22,55,532.06,45.2,521.71,35.39,511.55Zm-32.52-1.2a20.83,20.83,0,0,1,2.3-9.51c15.71,16.43,31.42,33,47.12,49.43-15.85,10.54-31.71,21.09-47.57,31.44A9.59,9.59,0,0,0,2.87,583Zm104.92,77.11c12.31-12.84,24.41-25.69,36.72-38.34V625.8C132.2,613,120.1,600.11,107.79,587.46Zm36.93,59.24c-.21,4.4-.21,9-.21,13.42v10.54q-35.68-23.58-71.15-47.16c8.14-8.63,16.28-17.06,24.62-25.69C113.63,614.11,129.07,630.4,144.72,646.7ZM61.06,615.26c-13.57-9-27.13-18-40.9-27,14-9.21,28-18.6,41.94-27.8,8.55,9,17.11,17.83,25.66,26.84C78.79,596.66,69.82,605.86,61.06,615.26ZM2.87,665.55V593.61a9.64,9.64,0,0,0,1.85,1.33C20.16,605.1,35.6,615.45,51,625.61c-8.76,9.2-17.73,18.59-26.5,27.8L4.73,674.14A20.92,20.92,0,0,1,2.87,665.55Zm21,21a20.85,20.85,0,0,1-9-2.07l48.51-50.62c26.42,17.63,53,35.09,79.47,52.69Zm140.17,0h-5.24a5.51,5.51,0,0,0,.53-2.27V662.8c.21.19.42.57.63.77q8.7,9.09,17.39,18.2A20.9,20.9,0,0,1,164,686.54Zm20.71-179.45a20.58,20.58,0,0,1,.28,3.26v155.2a20,20,0,0,1-.26,3.11c-8.48-8.85-17-17.76-25.44-26.56V533.78c3.76-4,7.51-7.86,11.27-11.88Q177.67,514.49,184.74,507.09ZM144.51,506v22c-15.65,16.3-31.09,32.59-46.74,48.89-7.71-8.25-15.64-16.3-23.36-24.54C97.77,536.85,121.14,521.51,144.51,506Z"/><path class="cls-1" d="M120.86,324.84c-2,4.4.29,9.44,5.08,11.27s10.28-.27,12.27-4.67-.29-9.45-5.08-11.27S122.84,320.43,120.86,324.84Z"/><path class="cls-1" d="M0,266.26v155.2a23.89,23.89,0,0,0,23.86,23.86H164a23.89,23.89,0,0,0,23.86-23.86V266.26A23.85,23.85,0,0,0,164,242.4H39l-9,2.87,4.52-1.44L39,242.4H23.86A23.88,23.88,0,0,0,0,266.26ZM143.15,443.88h0l-.9-.17Zm-6.86-1.43H23.86a21,21,0,0,1-21-21v-8.89c4.22,5.67,16.3,4.16,16.3-4.54V266c17.94-5.75,36.09-11.5,54-17.06V283.8c0,29.14-2.3,59.05,1.25,87.8,2.5,19.75,9.18,39.88,25.66,53.68C110.48,434,123,439.27,136.29,442.45Zm35-32.7v20.51c-20.44-.57-42.35-3.64-58-16.1-15.43-12.27-20.44-31.44-21.9-49.27-2.3-27.6-.63-55.78-.63-83.39V245.27H164a20.61,20.61,0,0,1,7.23,1.31Z"/><path class="cls-1" d="M0,25v155.2a23.88,23.88,0,0,0,23.86,23.86H164a23.88,23.88,0,0,0,23.86-23.86V25A23.88,23.88,0,0,0,164,1.13H23.86A23.88,23.88,0,0,0,0,25ZM164,4a21,21,0,0,1,21,21v155.2a21,21,0,0,1-21,21H23.86a21,21,0,0,1-21-21V25a21,21,0,0,1,21-21Z"/><path class="cls-1" d="M23,103.29C23,149,54.8,186.16,94,186.16s71-37.18,71-82.87S133.1,20.42,94,20.42,23,57.59,23,103.29Zm124.77,0c0,36.2-24.12,65.64-53.77,65.64s-53.78-29.44-53.78-65.64S64.29,37.64,94,37.64,147.72,67.09,147.72,103.29Z"/><path class="cls-1" d="M82.67,103.29c0,4.86,4.29,8.8,9.58,8.8s9.58-3.94,9.58-8.8-4.29-8.8-9.58-8.8S82.67,98.43,82.67,103.29Z"/><rect class="cls-2" x="-79.56" y="311.42" width="937.13" height="316.42" transform="translate(-80.62 858.64) rotate(-90)"/><text class="cls-3" transform="translate(281.82 923.32) rotate(-90)"><tspan class="cls-4">N</tspan><tspan class="cls-5" x="47.14" y="0">o</tspan><tspan class="cls-6" x="86.88" y="0">t</tspan><tspan class="cls-7" x="118.03" y="0">e</tspan><tspan x="158.83" y="0">s :</tspan><tspan class="cls-8" x="235.34" y="0" xml:space="preserve">  «</tspan><tspan class="cls-9" x="288.72" y="0">ZIPPER(c), est une plateforme de </tspan><tspan class="cls-9"><tspan x="0" y="48">collaboration</tspan><tspan class="cls-10" x="219.64" y="48"> </tspan><tspan x="229.91" y="48">en</tspan><tspan class="cls-11" x="272.17" y="48"> </tspan><tspan x="282.44" y="48">ligne</tspan><tspan class="cls-10" x="364.78" y="48"> </tspan><tspan x="375.05" y="48">destinée</tspan><tspan class="cls-10" x="520.78" y="48"> </tspan><tspan x="531.05" y="48">aux</tspan><tspan class="cls-10" x="592.31" y="48"> </tspan><tspan x="602.58" y="48">créateurs,</tspan><tspan class="cls-11" x="773.66" y="48"> </tspan><tspan x="783.93" y="48">elle</tspan><tspan class="cls-10" x="843.05" y="48"> </tspan><tspan x="853.32" y="48">est </tspan><tspan x="0" y="96">conçu pour visualiser les multiples combinaisons</tspan><tspan x="0" y="144">générée</tspan><tspan class="cls-12" x="141.51" y="144"> </tspan><tspan x="153.14" y="144">par</tspan><tspan class="cls-13" x="210.14" y="144"> </tspan><tspan x="221.77" y="144">son</tspan><tspan class="cls-12" x="283.02" y="144"> </tspan><tspan x="294.65" y="144">concept</tspan><tspan class="cls-12" x="434.07" y="144"> </tspan><tspan x="445.7" y="144">:</tspan><tspan class="cls-12" x="456.26" y="144"> </tspan><tspan x="467.89" y="144">La</tspan><tspan class="cls-13" x="510.15" y="144"> </tspan><tspan x="521.78" y="144">division</tspan><tspan class="cls-12" x="650.56" y="144"> </tspan><tspan x="662.19" y="144">d’un</tspan><tspan class="cls-12" x="736.09" y="144"> </tspan><tspan x="747.72" y="144">vêtement </tspan><tspan x="0" y="192">en</tspan><tspan class="cls-14" x="42.26" y="192"> </tspan><tspan x="56.8" y="192">3</tspan><tspan class="cls-15" x="77.92" y="192"> </tspan><tspan x="92.46" y="192">parties,</tspan><tspan class="cls-14" x="219.16" y="192"> </tspan><tspan x="233.7" y="192">toutes</tspan><tspan class="cls-15" x="337.21" y="192"> </tspan><tspan x="351.75" y="192">modulables</tspan><tspan class="cls-14" x="550.22" y="192"> </tspan><tspan x="564.76" y="192">entres</tspan><tspan class="cls-14" x="670.36" y="192"> </tspan><tspan x="684.9" y="192">elles</tspan><tspan class="cls-15" x="763.03" y="192"> </tspan><tspan x="777.57" y="192">à</tspan><tspan class="cls-14" x="798.7" y="192"> </tspan><tspan x="813.24" y="192">l’aide </tspan><tspan x="0" y="240">de zip.» La plateforme est totalement gratuite.</tspan></tspan></text></g></g></svg>