<?xml version="1.0" encoding="utf-8"?>
<!-- Generator: Adobe Illustrator 24.0.1, SVG Export Plug-In . SVG Version: 6.00 Build 0)  -->
<svg version="1.1" id="Calque_1" xmlns="http://www.w3.org/2000/svg" xmlns:xlink="http://www.w3.org/1999/xlink" x="0px" y="0px"
	 viewBox="0 0 1440 790" style="enable-background:new 0 0 1440 790;" xml:space="preserve">
<style type="text/css">
	.st0{display:none;}
</style>
<g id="Calque_1_1_" class="st0">
</g>
<path d="M1440,0.1v-0.3H-1v0.3H9.4v26.5H-1v0.3H9.4v26.5H-1v0.3H9.4v26.5H-1v0.3H9.4v26.5H-1v0.3H9.4v26.5H-1v0.3H9.4v26.5H-1v0.3
	H9.4v26.5H-1v0.3H9.4v26.5H-1v0.3H9.4v26.5H-1v0.3H9.4v26.5H-1v0.3H9.4v26.5H-1v0.3H9.4v26.5H-1v0.3H9.4v26.5H-1v0.3H9.4v26.5H-1
	v0.3H9.4v26.5H-1v0.3H9.4v26.5H-1v0.3H9.4v26.5H-1v0.3H9.4v26.5H-1v0.3H9.4v26.5H-1v0.3H9.4v26.5H-1v0.3H9.4v26.5H-1v0.3H9.4v26.5
	H-1v0.3H9.4v26.5H-1v0.3H9.4v26.5H-1v0.3H9.4v26.5H-1v0.3H9.4v26.5H-1v0.3H9.4v26.5H-1v0.3H9.4v26.5H-1v0.3H9.4v26.5H-1v0.3H9.4V790
	h0.3v-12.7h26.5V790h0.3v-12.7H63V790h0.3v-12.7h26.5V790H90v-12.7h26.5V790h0.3v-12.7h26.5V790h0.3v-12.7h26.5V790h0.3v-12.7H197
	V790h0.3v-12.7h26.5V790h0.3v-12.7h26.5V790h0.3v-12.7h26.5V790h0.3v-12.7h26.5V790h0.3v-12.7H331V790h0.3v-12.7h26.5V790h0.3v-12.7
	h26.5V790h0.3v-12.7h26.5V790h0.3v-12.7h26.5V790h0.3v-12.7H465V790h0.3v-12.7h26.5V790h0.3v-12.7h26.5V790h0.3v-12.7h26.5V790h0.3
	v-12.7h26.5V790h0.3v-12.7H599V790h0.3v-12.7h26.5V790h0.3v-12.7h26.5V790h0.3v-12.7h26.5V790h0.3v-12.7h26.5V790h0.3v-12.7H733V790
	h0.3v-12.7h26.5V790h0.3v-12.7h26.5V790h0.3v-12.7h26.5V790h0.3v-12.7h26.5V790h0.3v-12.7H867V790h0.3v-12.7h26.5V790h0.3v-12.7
	h26.5V790h0.3v-12.7h26.5V790h0.3v-12.7h26.5V790h0.3v-12.7h26.5V790h0.3v-12.7h26.5V790h0.3v-12.7h26.5V790h0.3v-12.7h26.5V790h0.3
	v-12.7h26.5V790h0.3v-12.7h26.5V790h0.3v-12.7h26.5V790h0.3v-12.7h26.5V790h0.3v-12.7h26.5V790h0.3v-12.7h26.5V790h0.3v-12.7h26.5
	V790h0.3v-12.7h26.5V790h0.3v-12.7h26.5V790h0.3v-12.7h26.5V790h0.3v-12.7h26.5V790h0.3v-12.7h26.5V790h0.3v-12.7h26.5V790h0.3
	v-12.7h10v-0.3h-10v-26.5h10v-0.3h-10v-26.5h10v-0.3h-10v-26.5h10v-0.3h-10v-26.5h10v-0.3h-10v-26.5h10v-0.3h-10v-26.5h10v-0.3h-10
	v-26.5h10v-0.3h-10v-26.5h10v-0.3h-10v-26.5h10v-0.3h-10v-26.5h10v-0.3h-10v-26.5h10v-0.3h-10v-26.5h10v-0.3h-10v-26.5h10v-0.3h-10
	v-26.5h10v-0.3h-10v-26.5h10v-0.3h-10v-26.5h10v-0.3h-10v-26.5h10v-0.3h-10v-26.5h10v-0.3h-10v-26.5h10v-0.3h-10v-26.5h10v-0.3h-10
	v-26.5h10v-0.3h-10v-26.5h10v-0.3h-10v-26.5h10v-0.3h-10v-26.5h10v-0.3h-10v-26.5h10v-0.3h-10V80.5h10v-0.3h-10V53.7h10v-0.3h-10
	V26.9h10v-0.3h-10V0.1H1440z M1001,375.1h-26.5v-26.5h26.5V375.1z M1001.2,348.5h26.5v26.5h-26.5V348.5z M974.2,375.1h-26.5v-26.5
	h26.5V375.1z M947.4,375.1h-26.5v-26.5h26.5V375.1z M920.6,375.1H894v-26.5h26.5V375.1z M893.8,375.1h-26.5v-26.5h26.5V375.1z
	 M867,375.1h-26.5v-26.5H867V375.1z M840.2,375.1h-26.5v-26.5h26.5V375.1z M813.4,375.1h-26.5v-26.5h26.5V375.1z M786.6,375.1H760
	v-26.5h26.5V375.1z M759.8,375.1h-26.5v-26.5h26.5V375.1z M733,375.1h-26.5v-26.5H733V375.1z M706.2,375.1h-26.5v-26.5h26.5V375.1z
	 M679.4,375.1h-26.5v-26.5h26.5V375.1z M652.6,375.1H626v-26.5h26.5V375.1z M625.8,375.1h-26.5v-26.5h26.5V375.1z M599,375.1h-26.5
	v-26.5H599V375.1z M572.2,375.1h-26.5v-26.5h26.5V375.1z M545.4,375.1h-26.5v-26.5h26.5V375.1z M518.6,375.1H492v-26.5h26.5V375.1z
	 M491.8,375.1h-26.5v-26.5h26.5V375.1z M465,375.1h-26.5v-26.5H465V375.1z M438.2,375.1h-26.5v-26.5h26.5V375.1z M411.4,375.1h-26.5
	v-26.5h26.5V375.1z M411.4,375.3v26.5h-26.5v-26.5H411.4z M411.6,375.3h26.5v26.5h-26.5V375.3z M438.4,375.3H465v26.5h-26.5V375.3z
	 M465.2,375.3h26.5v26.5h-26.5V375.3z M492,375.3h26.5v26.5H492V375.3z M518.8,375.3h26.5v26.5h-26.5V375.3z M545.6,375.3h26.5v26.5
	h-26.5V375.3z M572.4,375.3H599v26.5h-26.5V375.3z M599.2,375.3h26.5v26.5h-26.5V375.3z M626,375.3h26.5v26.5H626V375.3z
	 M652.8,375.3h26.5v26.5h-26.5V375.3z M679.6,375.3h26.5v26.5h-26.5V375.3z M706.4,375.3H733v26.5h-26.5V375.3z M733.2,375.3h26.5
	v26.5h-26.5V375.3z M760,375.3h26.5v26.5H760V375.3z M786.8,375.3h26.5v26.5h-26.5V375.3z M813.6,375.3h26.5v26.5h-26.5V375.3z
	 M840.4,375.3H867v26.5h-26.5V375.3z M867.2,375.3h26.5v26.5h-26.5V375.3z M894,375.3h26.5v26.5H894V375.3z M920.8,375.3h26.5v26.5
	h-26.5V375.3z M947.6,375.3h26.5v26.5h-26.5V375.3z M974.4,375.3h26.5v26.5h-26.5V375.3z M1001.2,375.3h26.5v26.5h-26.5V375.3z
	 M1028,375.3h26.5v26.5H1028V375.3z M1028,375.1v-26.5h26.5v26.5H1028z M1028,348.3v-26.5h26.5v26.5H1028z M1027.8,348.3h-26.5
	v-26.5h26.5V348.3z M1001,348.3h-26.5v-26.5h26.5V348.3z M974.2,348.3h-26.5v-26.5h26.5V348.3z M947.4,348.3h-26.5v-26.5h26.5V348.3
	z M920.6,348.3H894v-26.5h26.5V348.3z M893.8,348.3h-26.5v-26.5h26.5V348.3z M867,348.3h-26.5v-26.5H867V348.3z M840.2,348.3h-26.5
	v-26.5h26.5V348.3z M813.4,348.3h-26.5v-26.5h26.5V348.3z M786.6,348.3H760v-26.5h26.5V348.3z M759.8,348.3h-26.5v-26.5h26.5V348.3z
	 M733,348.3h-26.5v-26.5H733V348.3z M706.2,348.3h-26.5v-26.5h26.5V348.3z M679.4,348.3h-26.5v-26.5h26.5V348.3z M652.6,348.3H626
	v-26.5h26.5V348.3z M625.8,348.3h-26.5v-26.5h26.5V348.3z M599,348.3h-26.5v-26.5H599V348.3z M572.2,348.3h-26.5v-26.5h26.5V348.3z
	 M545.4,348.3h-26.5v-26.5h26.5V348.3z M518.6,348.3H492v-26.5h26.5V348.3z M491.8,348.3h-26.5v-26.5h26.5V348.3z M465,348.3h-26.5
	v-26.5H465V348.3z M438.2,348.3h-26.5v-26.5h26.5V348.3z M411.4,348.3h-26.5v-26.5h26.5V348.3z M384.6,348.3H358v-26.5h26.5V348.3z
	 M384.6,348.5v26.5H358v-26.5H384.6z M384.6,375.3v26.5H358v-26.5H384.6z M384.6,402.1v26.5H358v-26.5H384.6z M384.8,402.1h26.5
	v26.5h-26.5V402.1z M411.6,402.1h26.5v26.5h-26.5V402.1z M438.4,402.1H465v26.5h-26.5V402.1z M465.2,402.1h26.5v26.5h-26.5V402.1z
	 M492,402.1h26.5v26.5H492V402.1z M518.8,402.1h26.5v26.5h-26.5V402.1z M545.6,402.1h26.5v26.5h-26.5V402.1z M572.4,402.1H599v26.5
	h-26.5V402.1z M599.2,402.1h26.5v26.5h-26.5V402.1z M626,402.1h26.5v26.5H626V402.1z M652.8,402.1h26.5v26.5h-26.5V402.1z
	 M679.6,402.1h26.5v26.5h-26.5V402.1z M706.4,402.1H733v26.5h-26.5V402.1z M733.2,402.1h26.5v26.5h-26.5V402.1z M760,402.1h26.5
	v26.5H760V402.1z M786.8,402.1h26.5v26.5h-26.5V402.1z M813.6,402.1h26.5v26.5h-26.5V402.1z M840.4,402.1H867v26.5h-26.5V402.1z
	 M867.2,402.1h26.5v26.5h-26.5V402.1z M894,402.1h26.5v26.5H894V402.1z M920.8,402.1h26.5v26.5h-26.5V402.1z M947.6,402.1h26.5v26.5
	h-26.5V402.1z M974.4,402.1h26.5v26.5h-26.5V402.1z M1001.2,402.1h26.5v26.5h-26.5V402.1z M1028,402.1h26.5v26.5H1028V402.1z
	 M1054.8,402.1h26.5v26.5h-26.5V402.1z M1054.8,401.9v-26.5h26.5v26.5H1054.8z M1054.8,375.1v-26.5h26.5v26.5H1054.8z M1054.8,348.3
	v-26.5h26.5v26.5H1054.8z M1054.8,321.5v-26.5h26.5v26.5H1054.8z M1054.6,321.5H1028v-26.5h26.5V321.5z M1027.8,321.5h-26.5v-26.5
	h26.5V321.5z M1001,321.5h-26.5v-26.5h26.5V321.5z M974.2,321.5h-26.5v-26.5h26.5V321.5z M947.4,321.5h-26.5v-26.5h26.5V321.5z
	 M920.6,321.5H894v-26.5h26.5V321.5z M893.8,321.5h-26.5v-26.5h26.5V321.5z M867,321.5h-26.5v-26.5H867V321.5z M840.2,321.5h-26.5
	v-26.5h26.5V321.5z M813.4,321.5h-26.5v-26.5h26.5V321.5z M786.6,321.5H760v-26.5h26.5V321.5z M759.8,321.5h-26.5v-26.5h26.5V321.5z
	 M733,321.5h-26.5v-26.5H733V321.5z M706.2,321.5h-26.5v-26.5h26.5V321.5z M679.4,321.5h-26.5v-26.5h26.5V321.5z M652.6,321.5H626
	v-26.5h26.5V321.5z M625.8,321.5h-26.5v-26.5h26.5V321.5z M599,321.5h-26.5v-26.5H599V321.5z M572.2,321.5h-26.5v-26.5h26.5V321.5z
	 M545.4,321.5h-26.5v-26.5h26.5V321.5z M518.6,321.5H492v-26.5h26.5V321.5z M491.8,321.5h-26.5v-26.5h26.5V321.5z M465,321.5h-26.5
	v-26.5H465V321.5z M438.2,321.5h-26.5v-26.5h26.5V321.5z M411.4,321.5h-26.5v-26.5h26.5V321.5z M384.6,321.5H358v-26.5h26.5V321.5z
	 M357.8,321.5h-26.5v-26.5h26.5V321.5z M357.8,321.7v26.5h-26.5v-26.5H357.8z M357.8,348.5v26.5h-26.5v-26.5H357.8z M357.8,375.3
	v26.5h-26.5v-26.5H357.8z M357.8,402.1v26.5h-26.5v-26.5H357.8z M357.8,428.9v26.5h-26.5v-26.5H357.8z M358,428.9h26.5v26.5H358
	V428.9z M384.8,428.9h26.5v26.5h-26.5V428.9z M411.6,428.9h26.5v26.5h-26.5V428.9z M438.4,428.9H465v26.5h-26.5V428.9z M465.2,428.9
	h26.5v26.5h-26.5V428.9z M492,428.9h26.5v26.5H492V428.9z M518.8,428.9h26.5v26.5h-26.5V428.9z M545.6,428.9h26.5v26.5h-26.5V428.9z
	 M572.4,428.9H599v26.5h-26.5V428.9z M599.2,428.9h26.5v26.5h-26.5V428.9z M626,428.9h26.5v26.5H626V428.9z M652.8,428.9h26.5v26.5
	h-26.5V428.9z M679.6,428.9h26.5v26.5h-26.5V428.9z M706.4,428.9H733v26.5h-26.5V428.9z M733.2,428.9h26.5v26.5h-26.5V428.9z
	 M760,428.9h26.5v26.5H760V428.9z M786.8,428.9h26.5v26.5h-26.5V428.9z M813.6,428.9h26.5v26.5h-26.5V428.9z M840.4,428.9H867v26.5
	h-26.5V428.9z M867.2,428.9h26.5v26.5h-26.5V428.9z M894,428.9h26.5v26.5H894V428.9z M920.8,428.9h26.5v26.5h-26.5V428.9z
	 M947.6,428.9h26.5v26.5h-26.5V428.9z M974.4,428.9h26.5v26.5h-26.5V428.9z M1001.2,428.9h26.5v26.5h-26.5V428.9z M1028,428.9h26.5
	v26.5H1028V428.9z M1054.8,428.9h26.5v26.5h-26.5V428.9z M1081.6,428.9h26.5v26.5h-26.5V428.9z M1081.6,428.7v-26.5h26.5v26.5
	H1081.6z M1081.6,401.9v-26.5h26.5v26.5H1081.6z M1081.6,375.1v-26.5h26.5v26.5H1081.6z M1081.6,348.3v-26.5h26.5v26.5H1081.6z
	 M1081.6,321.5v-26.5h26.5v26.5H1081.6z M1081.6,294.7v-26.5h26.5v26.5H1081.6z M1081.4,294.7h-26.5v-26.5h26.5V294.7z
	 M1054.6,294.7H1028v-26.5h26.5V294.7z M1027.8,294.7h-26.5v-26.5h26.5V294.7z M1001,294.7h-26.5v-26.5h26.5V294.7z M974.2,294.7
	h-26.5v-26.5h26.5V294.7z M947.4,294.7h-26.5v-26.5h26.5V294.7z M920.6,294.7H894v-26.5h26.5V294.7z M893.8,294.7h-26.5v-26.5h26.5
	V294.7z M867,294.7h-26.5v-26.5H867V294.7z M840.2,294.7h-26.5v-26.5h26.5V294.7z M813.4,294.7h-26.5v-26.5h26.5V294.7z
	 M786.6,294.7H760v-26.5h26.5V294.7z M759.8,294.7h-26.5v-26.5h26.5V294.7z M733,294.7h-26.5v-26.5H733V294.7z M706.2,294.7h-26.5
	v-26.5h26.5V294.7z M679.4,294.7h-26.5v-26.5h26.5V294.7z M652.6,294.7H626v-26.5h26.5V294.7z M625.8,294.7h-26.5v-26.5h26.5V294.7z
	 M599,294.7h-26.5v-26.5H599V294.7z M572.2,294.7h-26.5v-26.5h26.5V294.7z M545.4,294.7h-26.5v-26.5h26.5V294.7z M518.6,294.7H492
	v-26.5h26.5V294.7z M491.8,294.7h-26.5v-26.5h26.5V294.7z M465,294.7h-26.5v-26.5H465V294.7z M438.2,294.7h-26.5v-26.5h26.5V294.7z
	 M411.4,294.7h-26.5v-26.5h26.5V294.7z M384.6,294.7H358v-26.5h26.5V294.7z M357.8,294.7h-26.5v-26.5h26.5V294.7z M331,294.7h-26.5
	v-26.5H331V294.7z M331,294.9v26.5h-26.5v-26.5H331z M331,321.7v26.5h-26.5v-26.5H331z M331,348.5v26.5h-26.5v-26.5H331z M331,375.3
	v26.5h-26.5v-26.5H331z M331,402.1v26.5h-26.5v-26.5H331z M331,428.9v26.5h-26.5v-26.5H331z M331,455.7v26.5h-26.5v-26.5H331z
	 M331.2,455.7h26.5v26.5h-26.5V455.7z M358,455.7h26.5v26.5H358V455.7z M384.8,455.7h26.5v26.5h-26.5V455.7z M411.6,455.7h26.5v26.5
	h-26.5V455.7z M438.4,455.7H465v26.5h-26.5V455.7z M465.2,455.7h26.5v26.5h-26.5V455.7z M492,455.7h26.5v26.5H492V455.7z
	 M518.8,455.7h26.5v26.5h-26.5V455.7z M545.6,455.7h26.5v26.5h-26.5V455.7z M572.4,455.7H599v26.5h-26.5V455.7z M599.2,455.7h26.5
	v26.5h-26.5V455.7z M626,455.7h26.5v26.5H626V455.7z M652.8,455.7h26.5v26.5h-26.5V455.7z M679.6,455.7h26.5v26.5h-26.5V455.7z
	 M706.4,455.7H733v26.5h-26.5V455.7z M733.2,455.7h26.5v26.5h-26.5V455.7z M760,455.7h26.5v26.5H760V455.7z M786.8,455.7h26.5v26.5
	h-26.5V455.7z M813.6,455.7h26.5v26.5h-26.5V455.7z M840.4,455.7H867v26.5h-26.5V455.7z M867.2,455.7h26.5v26.5h-26.5V455.7z
	 M894,455.7h26.5v26.5H894V455.7z M920.8,455.7h26.5v26.5h-26.5V455.7z M947.6,455.7h26.5v26.5h-26.5V455.7z M974.4,455.7h26.5v26.5
	h-26.5V455.7z M1001.2,455.7h26.5v26.5h-26.5V455.7z M1028,455.7h26.5v26.5H1028V455.7z M1054.8,455.7h26.5v26.5h-26.5V455.7z
	 M1081.6,455.7h26.5v26.5h-26.5V455.7z M1108.4,455.7h26.5v26.5h-26.5V455.7z M1108.4,455.5v-26.5h26.5v26.5H1108.4z M1108.4,428.7
	v-26.5h26.5v26.5H1108.4z M1108.4,401.9v-26.5h26.5v26.5H1108.4z M1108.4,375.1v-26.5h26.5v26.5H1108.4z M1108.4,348.3v-26.5h26.5
	v26.5H1108.4z M1108.4,321.5v-26.5h26.5v26.5H1108.4z M1108.4,294.7v-26.5h26.5v26.5H1108.4z M1108.4,267.9v-26.5h26.5v26.5H1108.4z
	 M1108.2,267.9h-26.5v-26.5h26.5V267.9z M1081.4,267.9h-26.5v-26.5h26.5V267.9z M1054.6,267.9H1028v-26.5h26.5V267.9z M1027.8,267.9
	h-26.5v-26.5h26.5V267.9z M1001,267.9h-26.5v-26.5h26.5V267.9z M974.2,267.9h-26.5v-26.5h26.5V267.9z M947.4,267.9h-26.5v-26.5h26.5
	V267.9z M920.6,267.9H894v-26.5h26.5V267.9z M893.8,267.9h-26.5v-26.5h26.5V267.9z M867,267.9h-26.5v-26.5H867V267.9z M840.2,267.9
	h-26.5v-26.5h26.5V267.9z M813.4,267.9h-26.5v-26.5h26.5V267.9z M786.6,267.9H760v-26.5h26.5V267.9z M759.8,267.9h-26.5v-26.5h26.5
	V267.9z M733,267.9h-26.5v-26.5H733V267.9z M706.2,267.9h-26.5v-26.5h26.5V267.9z M679.4,267.9h-26.5v-26.5h26.5V267.9z
	 M652.6,267.9H626v-26.5h26.5V267.9z M625.8,267.9h-26.5v-26.5h26.5V267.9z M599,267.9h-26.5v-26.5H599V267.9z M572.2,267.9h-26.5
	v-26.5h26.5V267.9z M545.4,267.9h-26.5v-26.5h26.5V267.9z M518.6,267.9H492v-26.5h26.5V267.9z M491.8,267.9h-26.5v-26.5h26.5V267.9z
	 M465,267.9h-26.5v-26.5H465V267.9z M438.2,267.9h-26.5v-26.5h26.5V267.9z M411.4,267.9h-26.5v-26.5h26.5V267.9z M384.6,267.9H358
	v-26.5h26.5V267.9z M357.8,267.9h-26.5v-26.5h26.5V267.9z M331,267.9h-26.5v-26.5H331V267.9z M304.2,267.9h-26.5v-26.5h26.5V267.9z
	 M304.2,268.1v26.5h-26.5v-26.5H304.2z M304.2,294.9v26.5h-26.5v-26.5H304.2z M304.2,321.7v26.5h-26.5v-26.5H304.2z M304.2,348.5
	v26.5h-26.5v-26.5H304.2z M304.2,375.3v26.5h-26.5v-26.5H304.2z M304.2,402.1v26.5h-26.5v-26.5H304.2z M304.2,428.9v26.5h-26.5
	v-26.5H304.2z M304.2,455.7v26.5h-26.5v-26.5H304.2z M304.2,482.5v26.5h-26.5v-26.5H304.2z M304.4,482.5H331v26.5h-26.5V482.5z
	 M331.2,482.5h26.5v26.5h-26.5V482.5z M358,482.5h26.5v26.5H358V482.5z M384.8,482.5h26.5v26.5h-26.5V482.5z M411.6,482.5h26.5v26.5
	h-26.5V482.5z M438.4,482.5H465v26.5h-26.5V482.5z M465.2,482.5h26.5v26.5h-26.5V482.5z M492,482.5h26.5v26.5H492V482.5z
	 M518.8,482.5h26.5v26.5h-26.5V482.5z M545.6,482.5h26.5v26.5h-26.5V482.5z M572.4,482.5H599v26.5h-26.5V482.5z M599.2,482.5h26.5
	v26.5h-26.5V482.5z M626,482.5h26.5v26.5H626V482.5z M652.8,482.5h26.5v26.5h-26.5V482.5z M679.6,482.5h26.5v26.5h-26.5V482.5z
	 M706.4,482.5H733v26.5h-26.5V482.5z M733.2,482.5h26.5v26.5h-26.5V482.5z M760,482.5h26.5v26.5H760V482.5z M786.8,482.5h26.5v26.5
	h-26.5V482.5z M813.6,482.5h26.5v26.5h-26.5V482.5z M840.4,482.5H867v26.5h-26.5V482.5z M867.2,482.5h26.5v26.5h-26.5V482.5z
	 M894,482.5h26.5v26.5H894V482.5z M920.8,482.5h26.5v26.5h-26.5V482.5z M947.6,482.5h26.5v26.5h-26.5V482.5z M974.4,482.5h26.5v26.5
	h-26.5V482.5z M1001.2,482.5h26.5v26.5h-26.5V482.5z M1028,482.5h26.5v26.5H1028V482.5z M1054.8,482.5h26.5v26.5h-26.5V482.5z
	 M1081.6,482.5h26.5v26.5h-26.5V482.5z M1108.4,482.5h26.5v26.5h-26.5V482.5z M1135.2,482.5h26.5v26.5h-26.5V482.5z M1135.2,482.3
	v-26.5h26.5v26.5H1135.2z M1135.2,455.5v-26.5h26.5v26.5H1135.2z M1135.2,428.7v-26.5h26.5v26.5H1135.2z M1135.2,401.9v-26.5h26.5
	v26.5H1135.2z M1135.2,375.1v-26.5h26.5v26.5H1135.2z M1135.2,348.3v-26.5h26.5v26.5H1135.2z M1135.2,321.5v-26.5h26.5v26.5H1135.2z
	 M1135.2,294.7v-26.5h26.5v26.5H1135.2z M1135.2,267.9v-26.5h26.5v26.5H1135.2z M1135.2,241.1v-26.5h26.5v26.5H1135.2z M1135,241.1
	h-26.5v-26.5h26.5V241.1z M1108.2,241.1h-26.5v-26.5h26.5V241.1z M1081.4,241.1h-26.5v-26.5h26.5V241.1z M1054.6,241.1H1028v-26.5
	h26.5V241.1z M1027.8,241.1h-26.5v-26.5h26.5V241.1z M1001,241.1h-26.5v-26.5h26.5V241.1z M974.2,241.1h-26.5v-26.5h26.5V241.1z
	 M947.4,241.1h-26.5v-26.5h26.5V241.1z M920.6,241.1H894v-26.5h26.5V241.1z M893.8,241.1h-26.5v-26.5h26.5V241.1z M867,241.1h-26.5
	v-26.5H867V241.1z M840.2,241.1h-26.5v-26.5h26.5V241.1z M813.4,241.1h-26.5v-26.5h26.5V241.1z M786.6,241.1H760v-26.5h26.5V241.1z
	 M759.8,241.1h-26.5v-26.5h26.5V241.1z M733,241.1h-26.5v-26.5H733V241.1z M706.2,241.1h-26.5v-26.5h26.5V241.1z M679.4,241.1h-26.5
	v-26.5h26.5V241.1z M652.6,241.1H626v-26.5h26.5V241.1z M625.8,241.1h-26.5v-26.5h26.5V241.1z M599,241.1h-26.5v-26.5H599V241.1z
	 M572.2,241.1h-26.5v-26.5h26.5V241.1z M545.4,241.1h-26.5v-26.5h26.5V241.1z M518.6,241.1H492v-26.5h26.5V241.1z M491.8,241.1
	h-26.5v-26.5h26.5V241.1z M465,241.1h-26.5v-26.5H465V241.1z M438.2,241.1h-26.5v-26.5h26.5V241.1z M411.4,241.1h-26.5v-26.5h26.5
	V241.1z M384.6,241.1H358v-26.5h26.5V241.1z M357.8,241.1h-26.5v-26.5h26.5V241.1z M331,241.1h-26.5v-26.5H331V241.1z M304.2,241.1
	h-26.5v-26.5h26.5V241.1z M277.4,241.1h-26.5v-26.5h26.5V241.1z M277.4,241.3v26.5h-26.5v-26.5H277.4z M277.4,268.1v26.5h-26.5
	v-26.5H277.4z M277.4,294.9v26.5h-26.5v-26.5H277.4z M277.4,321.7v26.5h-26.5v-26.5H277.4z M277.4,348.5v26.5h-26.5v-26.5H277.4z
	 M277.4,375.3v26.5h-26.5v-26.5H277.4z M277.4,402.1v26.5h-26.5v-26.5H277.4z M277.4,428.9v26.5h-26.5v-26.5H277.4z M277.4,455.7
	v26.5h-26.5v-26.5H277.4z M277.4,482.5v26.5h-26.5v-26.5H277.4z M277.4,509.3v26.5h-26.5v-26.5H277.4z M277.6,509.3h26.5v26.5h-26.5
	V509.3z M304.4,509.3H331v26.5h-26.5V509.3z M331.2,509.3h26.5v26.5h-26.5V509.3z M358,509.3h26.5v26.5H358V509.3z M384.8,509.3
	h26.5v26.5h-26.5V509.3z M411.6,509.3h26.5v26.5h-26.5V509.3z M438.4,509.3H465v26.5h-26.5V509.3z M465.2,509.3h26.5v26.5h-26.5
	V509.3z M492,509.3h26.5v26.5H492V509.3z M518.8,509.3h26.5v26.5h-26.5V509.3z M545.6,509.3h26.5v26.5h-26.5V509.3z M572.4,509.3
	H599v26.5h-26.5V509.3z M599.2,509.3h26.5v26.5h-26.5V509.3z M626,509.3h26.5v26.5H626V509.3z M652.8,509.3h26.5v26.5h-26.5V509.3z
	 M679.6,509.3h26.5v26.5h-26.5V509.3z M706.4,509.3H733v26.5h-26.5V509.3z M733.2,509.3h26.5v26.5h-26.5V509.3z M760,509.3h26.5
	v26.5H760V509.3z M786.8,509.3h26.5v26.5h-26.5V509.3z M813.6,509.3h26.5v26.5h-26.5V509.3z M840.4,509.3H867v26.5h-26.5V509.3z
	 M867.2,509.3h26.5v26.5h-26.5V509.3z M894,509.3h26.5v26.5H894V509.3z M920.8,509.3h26.5v26.5h-26.5V509.3z M947.6,509.3h26.5v26.5
	h-26.5V509.3z M974.4,509.3h26.5v26.5h-26.5V509.3z M1001.2,509.3h26.5v26.5h-26.5V509.3z M1028,509.3h26.5v26.5H1028V509.3z
	 M1054.8,509.3h26.5v26.5h-26.5V509.3z M1081.6,509.3h26.5v26.5h-26.5V509.3z M1108.4,509.3h26.5v26.5h-26.5V509.3z M1135.2,509.3
	h26.5v26.5h-26.5V509.3z M1162,509.3h26.5v26.5H1162V509.3z M1162,509.1v-26.5h26.5v26.5H1162z M1162,482.3v-26.5h26.5v26.5H1162z
	 M1162,455.5v-26.5h26.5v26.5H1162z M1162,428.7v-26.5h26.5v26.5H1162z M1162,401.9v-26.5h26.5v26.5H1162z M1162,375.1v-26.5h26.5
	v26.5H1162z M1162,348.3v-26.5h26.5v26.5H1162z M1162,321.5v-26.5h26.5v26.5H1162z M1162,294.7v-26.5h26.5v26.5H1162z M1162,267.9
	v-26.5h26.5v26.5H1162z M1162,241.1v-26.5h26.5v26.5H1162z M1162,214.3v-26.5h26.5v26.5H1162z M1161.8,214.3h-26.5v-26.5h26.5V214.3
	z M1135,214.3h-26.5v-26.5h26.5V214.3z M1108.2,214.3h-26.5v-26.5h26.5V214.3z M1081.4,214.3h-26.5v-26.5h26.5V214.3z M1054.6,214.3
	H1028v-26.5h26.5V214.3z M1027.8,214.3h-26.5v-26.5h26.5V214.3z M1001,214.3h-26.5v-26.5h26.5V214.3z M974.2,214.3h-26.5v-26.5h26.5
	V214.3z M947.4,214.3h-26.5v-26.5h26.5V214.3z M920.6,214.3H894v-26.5h26.5V214.3z M893.8,214.3h-26.5v-26.5h26.5V214.3z M867,214.3
	h-26.5v-26.5H867V214.3z M840.2,214.3h-26.5v-26.5h26.5V214.3z M813.4,214.3h-26.5v-26.5h26.5V214.3z M786.6,214.3H760v-26.5h26.5
	V214.3z M759.8,214.3h-26.5v-26.5h26.5V214.3z M733,214.3h-26.5v-26.5H733V214.3z M706.2,214.3h-26.5v-26.5h26.5V214.3z
	 M679.4,214.3h-26.5v-26.5h26.5V214.3z M652.6,214.3H626v-26.5h26.5V214.3z M625.8,214.3h-26.5v-26.5h26.5V214.3z M599,214.3h-26.5
	v-26.5H599V214.3z M572.2,214.3h-26.5v-26.5h26.5V214.3z M545.4,214.3h-26.5v-26.5h26.5V214.3z M518.6,214.3H492v-26.5h26.5V214.3z
	 M491.8,214.3h-26.5v-26.5h26.5V214.3z M465,214.3h-26.5v-26.5H465V214.3z M438.2,214.3h-26.5v-26.5h26.5V214.3z M411.4,214.3h-26.5
	v-26.5h26.5V214.3z M384.6,214.3H358v-26.5h26.5V214.3z M357.8,214.3h-26.5v-26.5h26.5V214.3z M331,214.3h-26.5v-26.5H331V214.3z
	 M304.2,214.3h-26.5v-26.5h26.5V214.3z M277.4,214.3h-26.5v-26.5h26.5V214.3z M250.6,214.3H224v-26.5h26.5V214.3z M250.6,214.5v26.5
	H224v-26.5H250.6z M250.6,241.3v26.5H224v-26.5H250.6z M250.6,268.1v26.5H224v-26.5H250.6z M250.6,294.9v26.5H224v-26.5H250.6z
	 M250.6,321.7v26.5H224v-26.5H250.6z M250.6,348.5v26.5H224v-26.5H250.6z M250.6,375.3v26.5H224v-26.5H250.6z M250.6,402.1v26.5H224
	v-26.5H250.6z M250.6,428.9v26.5H224v-26.5H250.6z M250.6,455.7v26.5H224v-26.5H250.6z M250.6,482.5v26.5H224v-26.5H250.6z
	 M250.6,509.3v26.5H224v-26.5H250.6z M250.6,536.1v26.5H224v-26.5H250.6z M250.8,536.1h26.5v26.5h-26.5V536.1z M277.6,536.1h26.5
	v26.5h-26.5V536.1z M304.4,536.1H331v26.5h-26.5V536.1z M331.2,536.1h26.5v26.5h-26.5V536.1z M358,536.1h26.5v26.5H358V536.1z
	 M384.8,536.1h26.5v26.5h-26.5V536.1z M411.6,536.1h26.5v26.5h-26.5V536.1z M438.4,536.1H465v26.5h-26.5V536.1z M465.2,536.1h26.5
	v26.5h-26.5V536.1z M492,536.1h26.5v26.5H492V536.1z M518.8,536.1h26.5v26.5h-26.5V536.1z M545.6,536.1h26.5v26.5h-26.5V536.1z
	 M572.4,536.1H599v26.5h-26.5V536.1z M599.2,536.1h26.5v26.5h-26.5V536.1z M626,536.1h26.5v26.5H626V536.1z M652.8,536.1h26.5v26.5
	h-26.5V536.1z M679.6,536.1h26.5v26.5h-26.5V536.1z M706.4,536.1H733v26.5h-26.5V536.1z M733.2,536.1h26.5v26.5h-26.5V536.1z
	 M760,536.1h26.5v26.5H760V536.1z M786.8,536.1h26.5v26.5h-26.5V536.1z M813.6,536.1h26.5v26.5h-26.5V536.1z M840.4,536.1H867v26.5
	h-26.5V536.1z M867.2,536.1h26.5v26.5h-26.5V536.1z M894,536.1h26.5v26.5H894V536.1z M920.8,536.1h26.5v26.5h-26.5V536.1z
	 M947.6,536.1h26.5v26.5h-26.5V536.1z M974.4,536.1h26.5v26.5h-26.5V536.1z M1001.2,536.1h26.5v26.5h-26.5V536.1z M1028,536.1h26.5
	v26.5H1028V536.1z M1054.8,536.1h26.5v26.5h-26.5V536.1z M1081.6,536.1h26.5v26.5h-26.5V536.1z M1108.4,536.1h26.5v26.5h-26.5V536.1
	z M1135.2,536.1h26.5v26.5h-26.5V536.1z M1162,536.1h26.5v26.5H1162V536.1z M1188.8,536.1h26.5v26.5h-26.5V536.1z M1188.8,535.9
	v-26.5h26.5v26.5H1188.8z M1188.8,509.1v-26.5h26.5v26.5H1188.8z M1188.8,482.3v-26.5h26.5v26.5H1188.8z M1188.8,455.5v-26.5h26.5
	v26.5H1188.8z M1188.8,428.7v-26.5h26.5v26.5H1188.8z M1188.8,401.9v-26.5h26.5v26.5H1188.8z M1188.8,375.1v-26.5h26.5v26.5H1188.8z
	 M1188.8,348.3v-26.5h26.5v26.5H1188.8z M1188.8,321.5v-26.5h26.5v26.5H1188.8z M1188.8,294.7v-26.5h26.5v26.5H1188.8z
	 M1188.8,267.9v-26.5h26.5v26.5H1188.8z M1188.8,241.1v-26.5h26.5v26.5H1188.8z M1188.8,214.3v-26.5h26.5v26.5H1188.8z
	 M1188.8,187.5v-26.5h26.5v26.5H1188.8z M1188.6,187.5H1162v-26.5h26.5V187.5z M1161.8,187.5h-26.5v-26.5h26.5V187.5z M1135,187.5
	h-26.5v-26.5h26.5V187.5z M1108.2,187.5h-26.5v-26.5h26.5V187.5z M1081.4,187.5h-26.5v-26.5h26.5V187.5z M1054.6,187.5H1028v-26.5
	h26.5V187.5z M1027.8,187.5h-26.5v-26.5h26.5V187.5z M1001,187.5h-26.5v-26.5h26.5V187.5z M974.2,187.5h-26.5v-26.5h26.5V187.5z
	 M947.4,187.5h-26.5v-26.5h26.5V187.5z M920.6,187.5H894v-26.5h26.5V187.5z M893.8,187.5h-26.5v-26.5h26.5V187.5z M867,187.5h-26.5
	v-26.5H867V187.5z M840.2,187.5h-26.5v-26.5h26.5V187.5z M813.4,187.5h-26.5v-26.5h26.5V187.5z M786.6,187.5H760v-26.5h26.5V187.5z
	 M759.8,187.5h-26.5v-26.5h26.5V187.5z M733,187.5h-26.5v-26.5H733V187.5z M706.2,187.5h-26.5v-26.5h26.5V187.5z M679.4,187.5h-26.5
	v-26.5h26.5V187.5z M652.6,187.5H626v-26.5h26.5V187.5z M625.8,187.5h-26.5v-26.5h26.5V187.5z M599,187.5h-26.5v-26.5H599V187.5z
	 M572.2,187.5h-26.5v-26.5h26.5V187.5z M545.4,187.5h-26.5v-26.5h26.5V187.5z M518.6,187.5H492v-26.5h26.5V187.5z M491.8,187.5
	h-26.5v-26.5h26.5V187.5z M465,187.5h-26.5v-26.5H465V187.5z M438.2,187.5h-26.5v-26.5h26.5V187.5z M411.4,187.5h-26.5v-26.5h26.5
	V187.5z M384.6,187.5H358v-26.5h26.5V187.5z M357.8,187.5h-26.5v-26.5h26.5V187.5z M331,187.5h-26.5v-26.5H331V187.5z M304.2,187.5
	h-26.5v-26.5h26.5V187.5z M277.4,187.5h-26.5v-26.5h26.5V187.5z M250.6,187.5H224v-26.5h26.5V187.5z M223.8,187.5h-26.5v-26.5h26.5
	V187.5z M223.8,187.7v26.5h-26.5v-26.5H223.8z M223.8,214.5v26.5h-26.5v-26.5H223.8z M223.8,241.3v26.5h-26.5v-26.5H223.8z
	 M223.8,268.1v26.5h-26.5v-26.5H223.8z M223.8,294.9v26.5h-26.5v-26.5H223.8z M223.8,321.7v26.5h-26.5v-26.5H223.8z M223.8,348.5
	v26.5h-26.5v-26.5H223.8z M223.8,375.3v26.5h-26.5v-26.5H223.8z M223.8,402.1v26.5h-26.5v-26.5H223.8z M223.8,428.9v26.5h-26.5
	v-26.5H223.8z M223.8,455.7v26.5h-26.5v-26.5H223.8z M223.8,482.5v26.5h-26.5v-26.5H223.8z M223.8,509.3v26.5h-26.5v-26.5H223.8z
	 M223.8,536.1v26.5h-26.5v-26.5H223.8z M223.8,562.9v26.5h-26.5v-26.5H223.8z M224,562.9h26.5v26.5H224V562.9z M250.8,562.9h26.5
	v26.5h-26.5V562.9z M277.6,562.9h26.5v26.5h-26.5V562.9z M304.4,562.9H331v26.5h-26.5V562.9z M331.2,562.9h26.5v26.5h-26.5V562.9z
	 M358,562.9h26.5v26.5H358V562.9z M384.8,562.9h26.5v26.5h-26.5V562.9z M411.6,562.9h26.5v26.5h-26.5V562.9z M438.4,562.9H465v26.5
	h-26.5V562.9z M465.2,562.9h26.5v26.5h-26.5V562.9z M492,562.9h26.5v26.5H492V562.9z M518.8,562.9h26.5v26.5h-26.5V562.9z
	 M545.6,562.9h26.5v26.5h-26.5V562.9z M572.4,562.9H599v26.5h-26.5V562.9z M599.2,562.9h26.5v26.5h-26.5V562.9z M626,562.9h26.5
	v26.5H626V562.9z M652.8,562.9h26.5v26.5h-26.5V562.9z M679.6,562.9h26.5v26.5h-26.5V562.9z M706.4,562.9H733v26.5h-26.5V562.9z
	 M733.2,562.9h26.5v26.5h-26.5V562.9z M760,562.9h26.5v26.5H760V562.9z M786.8,562.9h26.5v26.5h-26.5V562.9z M813.6,562.9h26.5v26.5
	h-26.5V562.9z M840.4,562.9H867v26.5h-26.5V562.9z M867.2,562.9h26.5v26.5h-26.5V562.9z M894,562.9h26.5v26.5H894V562.9z
	 M920.8,562.9h26.5v26.5h-26.5V562.9z M947.6,562.9h26.5v26.5h-26.5V562.9z M974.4,562.9h26.5v26.5h-26.5V562.9z M1001.2,562.9h26.5
	v26.5h-26.5V562.9z M1028,562.9h26.5v26.5H1028V562.9z M1054.8,562.9h26.5v26.5h-26.5V562.9z M1081.6,562.9h26.5v26.5h-26.5V562.9z
	 M1108.4,562.9h26.5v26.5h-26.5V562.9z M1135.2,562.9h26.5v26.5h-26.5V562.9z M1162,562.9h26.5v26.5H1162V562.9z M1188.8,562.9h26.5
	v26.5h-26.5V562.9z M1215.6,562.9h26.5v26.5h-26.5V562.9z M1215.6,562.7v-26.5h26.5v26.5H1215.6z M1215.6,535.9v-26.5h26.5v26.5
	H1215.6z M1215.6,509.1v-26.5h26.5v26.5H1215.6z M1215.6,482.3v-26.5h26.5v26.5H1215.6z M1215.6,455.5v-26.5h26.5v26.5H1215.6z
	 M1215.6,428.7v-26.5h26.5v26.5H1215.6z M1215.6,401.9v-26.5h26.5v26.5H1215.6z M1215.6,375.1v-26.5h26.5v26.5H1215.6z
	 M1215.6,348.3v-26.5h26.5v26.5H1215.6z M1215.6,321.5v-26.5h26.5v26.5H1215.6z M1215.6,294.7v-26.5h26.5v26.5H1215.6z
	 M1215.6,267.9v-26.5h26.5v26.5H1215.6z M1215.6,241.1v-26.5h26.5v26.5H1215.6z M1215.6,214.3v-26.5h26.5v26.5H1215.6z
	 M1215.6,187.5v-26.5h26.5v26.5H1215.6z M1215.6,160.7v-26.5h26.5v26.5H1215.6z M1215.4,160.7h-26.5v-26.5h26.5V160.7z
	 M1188.6,160.7H1162v-26.5h26.5V160.7z M1161.8,160.7h-26.5v-26.5h26.5V160.7z M1135,160.7h-26.5v-26.5h26.5V160.7z M1108.2,160.7
	h-26.5v-26.5h26.5V160.7z M1081.4,160.7h-26.5v-26.5h26.5V160.7z M1054.6,160.7H1028v-26.5h26.5V160.7z M1027.8,160.7h-26.5v-26.5
	h26.5V160.7z M1001,160.7h-26.5v-26.5h26.5V160.7z M974.2,160.7h-26.5v-26.5h26.5V160.7z M947.4,160.7h-26.5v-26.5h26.5V160.7z
	 M920.6,160.7H894v-26.5h26.5V160.7z M893.8,160.7h-26.5v-26.5h26.5V160.7z M867,160.7h-26.5v-26.5H867V160.7z M840.2,160.7h-26.5
	v-26.5h26.5V160.7z M813.4,160.7h-26.5v-26.5h26.5V160.7z M786.6,160.7H760v-26.5h26.5V160.7z M759.8,160.7h-26.5v-26.5h26.5V160.7z
	 M733,160.7h-26.5v-26.5H733V160.7z M706.2,160.7h-26.5v-26.5h26.5V160.7z M679.4,160.7h-26.5v-26.5h26.5V160.7z M652.6,160.7H626
	v-26.5h26.5V160.7z M625.8,160.7h-26.5v-26.5h26.5V160.7z M599,160.7h-26.5v-26.5H599V160.7z M572.2,160.7h-26.5v-26.5h26.5V160.7z
	 M545.4,160.7h-26.5v-26.5h26.5V160.7z M518.6,160.7H492v-26.5h26.5V160.7z M491.8,160.7h-26.5v-26.5h26.5V160.7z M465,160.7h-26.5
	v-26.5H465V160.7z M438.2,160.7h-26.5v-26.5h26.5V160.7z M411.4,160.7h-26.5v-26.5h26.5V160.7z M384.6,160.7H358v-26.5h26.5V160.7z
	 M357.8,160.7h-26.5v-26.5h26.5V160.7z M331,160.7h-26.5v-26.5H331V160.7z M304.2,160.7h-26.5v-26.5h26.5V160.7z M277.4,160.7h-26.5
	v-26.5h26.5V160.7z M250.6,160.7H224v-26.5h26.5V160.7z M223.8,160.7h-26.5v-26.5h26.5V160.7z M197,160.7h-26.5v-26.5H197V160.7z
	 M197,160.9v26.5h-26.5v-26.5H197z M197,187.7v26.5h-26.5v-26.5H197z M197,214.5v26.5h-26.5v-26.5H197z M197,241.3v26.5h-26.5v-26.5
	H197z M197,268.1v26.5h-26.5v-26.5H197z M197,294.9v26.5h-26.5v-26.5H197z M197,321.7v26.5h-26.5v-26.5H197z M197,348.5v26.5h-26.5
	v-26.5H197z M197,375.3v26.5h-26.5v-26.5H197z M197,402.1v26.5h-26.5v-26.5H197z M197,428.9v26.5h-26.5v-26.5H197z M197,455.7v26.5
	h-26.5v-26.5H197z M197,482.5v26.5h-26.5v-26.5H197z M197,509.3v26.5h-26.5v-26.5H197z M197,536.1v26.5h-26.5v-26.5H197z M197,562.9
	v26.5h-26.5v-26.5H197z M197,589.7v26.5h-26.5v-26.5H197z M197.2,589.7h26.5v26.5h-26.5V589.7z M224,589.7h26.5v26.5H224V589.7z
	 M250.8,589.7h26.5v26.5h-26.5V589.7z M277.6,589.7h26.5v26.5h-26.5V589.7z M304.4,589.7H331v26.5h-26.5V589.7z M331.2,589.7h26.5
	v26.5h-26.5V589.7z M358,589.7h26.5v26.5H358V589.7z M384.8,589.7h26.5v26.5h-26.5V589.7z M411.6,589.7h26.5v26.5h-26.5V589.7z
	 M438.4,589.7H465v26.5h-26.5V589.7z M465.2,589.7h26.5v26.5h-26.5V589.7z M492,589.7h26.5v26.5H492V589.7z M518.8,589.7h26.5v26.5
	h-26.5V589.7z M545.6,589.7h26.5v26.5h-26.5V589.7z M572.4,589.7H599v26.5h-26.5V589.7z M599.2,589.7h26.5v26.5h-26.5V589.7z
	 M626,589.7h26.5v26.5H626V589.7z M652.8,589.7h26.5v26.5h-26.5V589.7z M679.6,589.7h26.5v26.5h-26.5V589.7z M706.4,589.7H733v26.5
	h-26.5V589.7z M733.2,589.7h26.5v26.5h-26.5V589.7z M760,589.7h26.5v26.5H760V589.7z M786.8,589.7h26.5v26.5h-26.5V589.7z
	 M813.6,589.7h26.5v26.5h-26.5V589.7z M840.4,589.7H867v26.5h-26.5V589.7z M867.2,589.7h26.5v26.5h-26.5V589.7z M894,589.7h26.5
	v26.5H894V589.7z M920.8,589.7h26.5v26.5h-26.5V589.7z M947.6,589.7h26.5v26.5h-26.5V589.7z M974.4,589.7h26.5v26.5h-26.5V589.7z
	 M1001.2,589.7h26.5v26.5h-26.5V589.7z M1028,589.7h26.5v26.5H1028V589.7z M1054.8,589.7h26.5v26.5h-26.5V589.7z M1081.6,589.7h26.5
	v26.5h-26.5V589.7z M1108.4,589.7h26.5v26.5h-26.5V589.7z M1135.2,589.7h26.5v26.5h-26.5V589.7z M1162,589.7h26.5v26.5H1162V589.7z
	 M1188.8,589.7h26.5v26.5h-26.5V589.7z M1215.6,589.7h26.5v26.5h-26.5V589.7z M1242.4,589.7h26.5v26.5h-26.5V589.7z M1242.4,589.5
	v-26.5h26.5v26.5H1242.4z M1242.4,562.7v-26.5h26.5v26.5H1242.4z M1242.4,535.9v-26.5h26.5v26.5H1242.4z M1242.4,509.1v-26.5h26.5
	v26.5H1242.4z M1242.4,482.3v-26.5h26.5v26.5H1242.4z M1242.4,455.5v-26.5h26.5v26.5H1242.4z M1242.4,428.7v-26.5h26.5v26.5H1242.4z
	 M1242.4,401.9v-26.5h26.5v26.5H1242.4z M1242.4,375.1v-26.5h26.5v26.5H1242.4z M1242.4,348.3v-26.5h26.5v26.5H1242.4z
	 M1242.4,321.5v-26.5h26.5v26.5H1242.4z M1242.4,294.7v-26.5h26.5v26.5H1242.4z M1242.4,267.9v-26.5h26.5v26.5H1242.4z
	 M1242.4,241.1v-26.5h26.5v26.5H1242.4z M1242.4,214.3v-26.5h26.5v26.5H1242.4z M1242.4,187.5v-26.5h26.5v26.5H1242.4z
	 M1242.4,160.7v-26.5h26.5v26.5H1242.4z M1242.4,133.9v-26.5h26.5v26.5H1242.4z M1242.2,133.9h-26.5v-26.5h26.5V133.9z
	 M1215.4,133.9h-26.5v-26.5h26.5V133.9z M1188.6,133.9H1162v-26.5h26.5V133.9z M1161.8,133.9h-26.5v-26.5h26.5V133.9z M1135,133.9
	h-26.5v-26.5h26.5V133.9z M1108.2,133.9h-26.5v-26.5h26.5V133.9z M1081.4,133.9h-26.5v-26.5h26.5V133.9z M1054.6,133.9H1028v-26.5
	h26.5V133.9z M1027.8,133.9h-26.5v-26.5h26.5V133.9z M1001,133.9h-26.5v-26.5h26.5V133.9z M974.2,133.9h-26.5v-26.5h26.5V133.9z
	 M947.4,133.9h-26.5v-26.5h26.5V133.9z M920.6,133.9H894v-26.5h26.5V133.9z M893.8,133.9h-26.5v-26.5h26.5V133.9z M867,133.9h-26.5
	v-26.5H867V133.9z M840.2,133.9h-26.5v-26.5h26.5V133.9z M813.4,133.9h-26.5v-26.5h26.5V133.9z M786.6,133.9H760v-26.5h26.5V133.9z
	 M759.8,133.9h-26.5v-26.5h26.5V133.9z M733,133.9h-26.5v-26.5H733V133.9z M706.2,133.9h-26.5v-26.5h26.5V133.9z M679.4,133.9h-26.5
	v-26.5h26.5V133.9z M652.6,133.9H626v-26.5h26.5V133.9z M625.8,133.9h-26.5v-26.5h26.5V133.9z M599,133.9h-26.5v-26.5H599V133.9z
	 M572.2,133.9h-26.5v-26.5h26.5V133.9z M545.4,133.9h-26.5v-26.5h26.5V133.9z M518.6,133.9H492v-26.5h26.5V133.9z M491.8,133.9
	h-26.5v-26.5h26.5V133.9z M465,133.9h-26.5v-26.5H465V133.9z M438.2,133.9h-26.5v-26.5h26.5V133.9z M411.4,133.9h-26.5v-26.5h26.5
	V133.9z M384.6,133.9H358v-26.5h26.5V133.9z M357.8,133.9h-26.5v-26.5h26.5V133.9z M331,133.9h-26.5v-26.5H331V133.9z M304.2,133.9
	h-26.5v-26.5h26.5V133.9z M277.4,133.9h-26.5v-26.5h26.5V133.9z M250.6,133.9H224v-26.5h26.5V133.9z M223.8,133.9h-26.5v-26.5h26.5
	V133.9z M197,133.9h-26.5v-26.5H197V133.9z M170.2,133.9h-26.5v-26.5h26.5V133.9z M170.2,134.1v26.5h-26.5v-26.5H170.2z
	 M170.2,160.9v26.5h-26.5v-26.5H170.2z M170.2,187.7v26.5h-26.5v-26.5H170.2z M170.2,214.5v26.5h-26.5v-26.5H170.2z M170.2,241.3
	v26.5h-26.5v-26.5H170.2z M170.2,268.1v26.5h-26.5v-26.5H170.2z M170.2,294.9v26.5h-26.5v-26.5H170.2z M170.2,321.7v26.5h-26.5
	v-26.5H170.2z M170.2,348.5v26.5h-26.5v-26.5H170.2z M170.2,375.3v26.5h-26.5v-26.5H170.2z M170.2,402.1v26.5h-26.5v-26.5H170.2z
	 M170.2,428.9v26.5h-26.5v-26.5H170.2z M170.2,455.7v26.5h-26.5v-26.5H170.2z M170.2,482.5v26.5h-26.5v-26.5H170.2z M170.2,509.3
	v26.5h-26.5v-26.5H170.2z M170.2,536.1v26.5h-26.5v-26.5H170.2z M170.2,562.9v26.5h-26.5v-26.5H170.2z M170.2,589.7v26.5h-26.5
	v-26.5H170.2z M170.2,616.5v26.5h-26.5v-26.5H170.2z M170.4,616.5H197v26.5h-26.5V616.5z M197.2,616.5h26.5v26.5h-26.5V616.5z
	 M224,616.5h26.5v26.5H224V616.5z M250.8,616.5h26.5v26.5h-26.5V616.5z M277.6,616.5h26.5v26.5h-26.5V616.5z M304.4,616.5H331v26.5
	h-26.5V616.5z M331.2,616.5h26.5v26.5h-26.5V616.5z M358,616.5h26.5v26.5H358V616.5z M384.8,616.5h26.5v26.5h-26.5V616.5z
	 M411.6,616.5h26.5v26.5h-26.5V616.5z M438.4,616.5H465v26.5h-26.5V616.5z M465.2,616.5h26.5v26.5h-26.5V616.5z M492,616.5h26.5
	v26.5H492V616.5z M518.8,616.5h26.5v26.5h-26.5V616.5z M545.6,616.5h26.5v26.5h-26.5V616.5z M572.4,616.5H599v26.5h-26.5V616.5z
	 M599.2,616.5h26.5v26.5h-26.5V616.5z M626,616.5h26.5v26.5H626V616.5z M652.8,616.5h26.5v26.5h-26.5V616.5z M679.6,616.5h26.5v26.5
	h-26.5V616.5z M706.4,616.5H733v26.5h-26.5V616.5z M733.2,616.5h26.5v26.5h-26.5V616.5z M760,616.5h26.5v26.5H760V616.5z
	 M786.8,616.5h26.5v26.5h-26.5V616.5z M813.6,616.5h26.5v26.5h-26.5V616.5z M840.4,616.5H867v26.5h-26.5V616.5z M867.2,616.5h26.5
	v26.5h-26.5V616.5z M894,616.5h26.5v26.5H894V616.5z M920.8,616.5h26.5v26.5h-26.5V616.5z M947.6,616.5h26.5v26.5h-26.5V616.5z
	 M974.4,616.5h26.5v26.5h-26.5V616.5z M1001.2,616.5h26.5v26.5h-26.5V616.5z M1028,616.5h26.5v26.5H1028V616.5z M1054.8,616.5h26.5
	v26.5h-26.5V616.5z M1081.6,616.5h26.5v26.5h-26.5V616.5z M1108.4,616.5h26.5v26.5h-26.5V616.5z M1135.2,616.5h26.5v26.5h-26.5
	V616.5z M1162,616.5h26.5v26.5H1162V616.5z M1188.8,616.5h26.5v26.5h-26.5V616.5z M1215.6,616.5h26.5v26.5h-26.5V616.5z
	 M1242.4,616.5h26.5v26.5h-26.5V616.5z M1269.2,616.5h26.5v26.5h-26.5V616.5z M1269.2,616.3v-26.5h26.5v26.5H1269.2z M1269.2,589.5
	v-26.5h26.5v26.5H1269.2z M1269.2,562.7v-26.5h26.5v26.5H1269.2z M1269.2,535.9v-26.5h26.5v26.5H1269.2z M1269.2,509.1v-26.5h26.5
	v26.5H1269.2z M1269.2,482.3v-26.5h26.5v26.5H1269.2z M1269.2,455.5v-26.5h26.5v26.5H1269.2z M1269.2,428.7v-26.5h26.5v26.5H1269.2z
	 M1269.2,401.9v-26.5h26.5v26.5H1269.2z M1269.2,375.1v-26.5h26.5v26.5H1269.2z M1269.2,348.3v-26.5h26.5v26.5H1269.2z
	 M1269.2,321.5v-26.5h26.5v26.5H1269.2z M1269.2,294.7v-26.5h26.5v26.5H1269.2z M1269.2,267.9v-26.5h26.5v26.5H1269.2z
	 M1269.2,241.1v-26.5h26.5v26.5H1269.2z M1269.2,214.3v-26.5h26.5v26.5H1269.2z M1269.2,187.5v-26.5h26.5v26.5H1269.2z
	 M1269.2,160.7v-26.5h26.5v26.5H1269.2z M1269.2,133.9v-26.5h26.5v26.5H1269.2z M1269.2,107.1V80.5h26.5v26.5H1269.2z M1269,107.1
	h-26.5V80.5h26.5V107.1z M1242.2,107.1h-26.5V80.5h26.5V107.1z M1215.4,107.1h-26.5V80.5h26.5V107.1z M1188.6,107.1H1162V80.5h26.5
	V107.1z M1161.8,107.1h-26.5V80.5h26.5V107.1z M1135,107.1h-26.5V80.5h26.5V107.1z M1108.2,107.1h-26.5V80.5h26.5V107.1z
	 M1081.4,107.1h-26.5V80.5h26.5V107.1z M1054.6,107.1H1028V80.5h26.5V107.1z M1027.8,107.1h-26.5V80.5h26.5V107.1z M1001,107.1
	h-26.5V80.5h26.5V107.1z M974.2,107.1h-26.5V80.5h26.5V107.1z M947.4,107.1h-26.5V80.5h26.5V107.1z M920.6,107.1H894V80.5h26.5
	V107.1z M893.8,107.1h-26.5V80.5h26.5V107.1z M867,107.1h-26.5V80.5H867V107.1z M840.2,107.1h-26.5V80.5h26.5V107.1z M813.4,107.1
	h-26.5V80.5h26.5V107.1z M786.6,107.1H760V80.5h26.5V107.1z M759.8,107.1h-26.5V80.5h26.5V107.1z M733,107.1h-26.5V80.5H733V107.1z
	 M706.2,107.1h-26.5V80.5h26.5V107.1z M679.4,107.1h-26.5V80.5h26.5V107.1z M652.6,107.1H626V80.5h26.5V107.1z M625.8,107.1h-26.5
	V80.5h26.5V107.1z M599,107.1h-26.5V80.5H599V107.1z M572.2,107.1h-26.5V80.5h26.5V107.1z M545.4,107.1h-26.5V80.5h26.5V107.1z
	 M518.6,107.1H492V80.5h26.5V107.1z M491.8,107.1h-26.5V80.5h26.5V107.1z M465,107.1h-26.5V80.5H465V107.1z M438.2,107.1h-26.5V80.5
	h26.5V107.1z M411.4,107.1h-26.5V80.5h26.5V107.1z M384.6,107.1H358V80.5h26.5V107.1z M357.8,107.1h-26.5V80.5h26.5V107.1z
	 M331,107.1h-26.5V80.5H331V107.1z M304.2,107.1h-26.5V80.5h26.5V107.1z M277.4,107.1h-26.5V80.5h26.5V107.1z M250.6,107.1H224V80.5
	h26.5V107.1z M223.8,107.1h-26.5V80.5h26.5V107.1z M197,107.1h-26.5V80.5H197V107.1z M170.2,107.1h-26.5V80.5h26.5V107.1z
	 M143.4,107.1h-26.5V80.5h26.5V107.1z M143.4,107.3v26.5h-26.5v-26.5H143.4z M143.4,134.1v26.5h-26.5v-26.5H143.4z M143.4,160.9
	v26.5h-26.5v-26.5H143.4z M143.4,187.7v26.5h-26.5v-26.5H143.4z M143.4,214.5v26.5h-26.5v-26.5H143.4z M143.4,241.3v26.5h-26.5
	v-26.5H143.4z M143.4,268.1v26.5h-26.5v-26.5H143.4z M143.4,294.9v26.5h-26.5v-26.5H143.4z M143.4,321.7v26.5h-26.5v-26.5H143.4z
	 M143.4,348.5v26.5h-26.5v-26.5H143.4z M143.4,375.3v26.5h-26.5v-26.5H143.4z M143.4,402.1v26.5h-26.5v-26.5H143.4z M143.4,428.9
	v26.5h-26.5v-26.5H143.4z M143.4,455.7v26.5h-26.5v-26.5H143.4z M143.4,482.5v26.5h-26.5v-26.5H143.4z M143.4,509.3v26.5h-26.5
	v-26.5H143.4z M143.4,536.1v26.5h-26.5v-26.5H143.4z M143.4,562.9v26.5h-26.5v-26.5H143.4z M143.4,589.7v26.5h-26.5v-26.5H143.4z
	 M143.4,616.5v26.5h-26.5v-26.5H143.4z M143.4,643.3v26.5h-26.5v-26.5H143.4z M143.6,643.3h26.5v26.5h-26.5V643.3z M170.4,643.3H197
	v26.5h-26.5V643.3z M197.2,643.3h26.5v26.5h-26.5V643.3z M224,643.3h26.5v26.5H224V643.3z M250.8,643.3h26.5v26.5h-26.5V643.3z
	 M277.6,643.3h26.5v26.5h-26.5V643.3z M304.4,643.3H331v26.5h-26.5V643.3z M331.2,643.3h26.5v26.5h-26.5V643.3z M358,643.3h26.5
	v26.5H358V643.3z M384.8,643.3h26.5v26.5h-26.5V643.3z M411.6,643.3h26.5v26.5h-26.5V643.3z M438.4,643.3H465v26.5h-26.5V643.3z
	 M465.2,643.3h26.5v26.5h-26.5V643.3z M492,643.3h26.5v26.5H492V643.3z M518.8,643.3h26.5v26.5h-26.5V643.3z M545.6,643.3h26.5v26.5
	h-26.5V643.3z M572.4,643.3H599v26.5h-26.5V643.3z M599.2,643.3h26.5v26.5h-26.5V643.3z M626,643.3h26.5v26.5H626V643.3z
	 M652.8,643.3h26.5v26.5h-26.5V643.3z M679.6,643.3h26.5v26.5h-26.5V643.3z M706.4,643.3H733v26.5h-26.5V643.3z M733.2,643.3h26.5
	v26.5h-26.5V643.3z M760,643.3h26.5v26.5H760V643.3z M786.8,643.3h26.5v26.5h-26.5V643.3z M813.6,643.3h26.5v26.5h-26.5V643.3z
	 M840.4,643.3H867v26.5h-26.5V643.3z M867.2,643.3h26.5v26.5h-26.5V643.3z M894,643.3h26.5v26.5H894V643.3z M920.8,643.3h26.5v26.5
	h-26.5V643.3z M947.6,643.3h26.5v26.5h-26.5V643.3z M974.4,643.3h26.5v26.5h-26.5V643.3z M1001.2,643.3h26.5v26.5h-26.5V643.3z
	 M1028,643.3h26.5v26.5H1028V643.3z M1054.8,643.3h26.5v26.5h-26.5V643.3z M1081.6,643.3h26.5v26.5h-26.5V643.3z M1108.4,643.3h26.5
	v26.5h-26.5V643.3z M1135.2,643.3h26.5v26.5h-26.5V643.3z M1162,643.3h26.5v26.5H1162V643.3z M1188.8,643.3h26.5v26.5h-26.5V643.3z
	 M1215.6,643.3h26.5v26.5h-26.5V643.3z M1242.4,643.3h26.5v26.5h-26.5V643.3z M1269.2,643.3h26.5v26.5h-26.5V643.3z M1296,643.3
	h26.5v26.5H1296V643.3z M1296,643.1v-26.5h26.5v26.5H1296z M1296,616.3v-26.5h26.5v26.5H1296z M1296,589.5v-26.5h26.5v26.5H1296z
	 M1296,562.7v-26.5h26.5v26.5H1296z M1296,535.9v-26.5h26.5v26.5H1296z M1296,509.1v-26.5h26.5v26.5H1296z M1296,482.3v-26.5h26.5
	v26.5H1296z M1296,455.5v-26.5h26.5v26.5H1296z M1296,428.7v-26.5h26.5v26.5H1296z M1296,401.9v-26.5h26.5v26.5H1296z M1296,375.1
	v-26.5h26.5v26.5H1296z M1296,348.3v-26.5h26.5v26.5H1296z M1296,321.5v-26.5h26.5v26.5H1296z M1296,294.7v-26.5h26.5v26.5H1296z
	 M1296,267.9v-26.5h26.5v26.5H1296z M1296,241.1v-26.5h26.5v26.5H1296z M1296,214.3v-26.5h26.5v26.5H1296z M1296,187.5v-26.5h26.5
	v26.5H1296z M1296,160.7v-26.5h26.5v26.5H1296z M1296,133.9v-26.5h26.5v26.5H1296z M1296,107.1V80.5h26.5v26.5H1296z M1296,80.3
	V53.7h26.5v26.5H1296z M1295.8,80.3h-26.5V53.7h26.5V80.3z M1269,80.3h-26.5V53.7h26.5V80.3z M1242.2,80.3h-26.5V53.7h26.5V80.3z
	 M1215.4,80.3h-26.5V53.7h26.5V80.3z M1188.6,80.3H1162V53.7h26.5V80.3z M1161.8,80.3h-26.5V53.7h26.5V80.3z M1135,80.3h-26.5V53.7
	h26.5V80.3z M1108.2,80.3h-26.5V53.7h26.5V80.3z M1081.4,80.3h-26.5V53.7h26.5V80.3z M1054.6,80.3H1028V53.7h26.5V80.3z
	 M1027.8,80.3h-26.5V53.7h26.5V80.3z M1001,80.3h-26.5V53.7h26.5V80.3z M974.2,80.3h-26.5V53.7h26.5V80.3z M947.4,80.3h-26.5V53.7
	h26.5V80.3z M920.6,80.3H894V53.7h26.5V80.3z M893.8,80.3h-26.5V53.7h26.5V80.3z M867,80.3h-26.5V53.7H867V80.3z M840.2,80.3h-26.5
	V53.7h26.5V80.3z M813.4,80.3h-26.5V53.7h26.5V80.3z M786.6,80.3H760V53.7h26.5V80.3z M759.8,80.3h-26.5V53.7h26.5V80.3z M733,80.3
	h-26.5V53.7H733V80.3z M706.2,80.3h-26.5V53.7h26.5V80.3z M679.4,80.3h-26.5V53.7h26.5V80.3z M652.6,80.3H626V53.7h26.5V80.3z
	 M625.8,80.3h-26.5V53.7h26.5V80.3z M599,80.3h-26.5V53.7H599V80.3z M572.2,80.3h-26.5V53.7h26.5V80.3z M545.4,80.3h-26.5V53.7h26.5
	V80.3z M518.6,80.3H492V53.7h26.5V80.3z M491.8,80.3h-26.5V53.7h26.5V80.3z M465,80.3h-26.5V53.7H465V80.3z M438.2,80.3h-26.5V53.7
	h26.5V80.3z M411.4,80.3h-26.5V53.7h26.5V80.3z M384.6,80.3H358V53.7h26.5V80.3z M357.8,80.3h-26.5V53.7h26.5V80.3z M331,80.3h-26.5
	V53.7H331V80.3z M304.2,80.3h-26.5V53.7h26.5V80.3z M277.4,80.3h-26.5V53.7h26.5V80.3z M250.6,80.3H224V53.7h26.5V80.3z M223.8,80.3
	h-26.5V53.7h26.5V80.3z M197,80.3h-26.5V53.7H197V80.3z M170.2,80.3h-26.5V53.7h26.5V80.3z M143.4,80.3h-26.5V53.7h26.5V80.3z
	 M116.6,80.3H90V53.7h26.5V80.3z M116.6,80.5v26.5H90V80.5H116.6z M116.6,107.3v26.5H90v-26.5H116.6z M116.6,134.1v26.5H90v-26.5
	H116.6z M116.6,160.9v26.5H90v-26.5H116.6z M116.6,187.7v26.5H90v-26.5H116.6z M116.6,214.5v26.5H90v-26.5H116.6z M116.6,241.3v26.5
	H90v-26.5H116.6z M116.6,268.1v26.5H90v-26.5H116.6z M116.6,294.9v26.5H90v-26.5H116.6z M116.6,321.7v26.5H90v-26.5H116.6z
	 M116.6,348.5v26.5H90v-26.5H116.6z M116.6,375.3v26.5H90v-26.5H116.6z M116.6,402.1v26.5H90v-26.5H116.6z M116.6,428.9v26.5H90
	v-26.5H116.6z M116.6,455.7v26.5H90v-26.5H116.6z M116.6,482.5v26.5H90v-26.5H116.6z M116.6,509.3v26.5H90v-26.5H116.6z
	 M116.6,536.1v26.5H90v-26.5H116.6z M116.6,562.9v26.5H90v-26.5H116.6z M116.6,589.7v26.5H90v-26.5H116.6z M116.6,616.5v26.5H90
	v-26.5H116.6z M116.6,643.3v26.5H90v-26.5H116.6z M116.6,670.1v26.5H90v-26.5H116.6z M116.8,670.1h26.5v26.5h-26.5V670.1z
	 M143.6,670.1h26.5v26.5h-26.5V670.1z M170.4,670.1H197v26.5h-26.5V670.1z M197.2,670.1h26.5v26.5h-26.5V670.1z M224,670.1h26.5
	v26.5H224V670.1z M250.8,670.1h26.5v26.5h-26.5V670.1z M277.6,670.1h26.5v26.5h-26.5V670.1z M304.4,670.1H331v26.5h-26.5V670.1z
	 M331.2,670.1h26.5v26.5h-26.5V670.1z M358,670.1h26.5v26.5H358V670.1z M384.8,670.1h26.5v26.5h-26.5V670.1z M411.6,670.1h26.5v26.5
	h-26.5V670.1z M438.4,670.1H465v26.5h-26.5V670.1z M465.2,670.1h26.5v26.5h-26.5V670.1z M492,670.1h26.5v26.5H492V670.1z
	 M518.8,670.1h26.5v26.5h-26.5V670.1z M545.6,670.1h26.5v26.5h-26.5V670.1z M572.4,670.1H599v26.5h-26.5V670.1z M599.2,670.1h26.5
	v26.5h-26.5V670.1z M626,670.1h26.5v26.5H626V670.1z M652.8,670.1h26.5v26.5h-26.5V670.1z M679.6,670.1h26.5v26.5h-26.5V670.1z
	 M706.4,670.1H733v26.5h-26.5V670.1z M733.2,670.1h26.5v26.5h-26.5V670.1z M760,670.1h26.5v26.5H760V670.1z M786.8,670.1h26.5v26.5
	h-26.5V670.1z M813.6,670.1h26.5v26.5h-26.5V670.1z M840.4,670.1H867v26.5h-26.5V670.1z M867.2,670.1h26.5v26.5h-26.5V670.1z
	 M894,670.1h26.5v26.5H894V670.1z M920.8,670.1h26.5v26.5h-26.5V670.1z M947.6,670.1h26.5v26.5h-26.5V670.1z M974.4,670.1h26.5v26.5
	h-26.5V670.1z M1001.2,670.1h26.5v26.5h-26.5V670.1z M1028,670.1h26.5v26.5H1028V670.1z M1054.8,670.1h26.5v26.5h-26.5V670.1z
	 M1081.6,670.1h26.5v26.5h-26.5V670.1z M1108.4,670.1h26.5v26.5h-26.5V670.1z M1135.2,670.1h26.5v26.5h-26.5V670.1z M1162,670.1
	h26.5v26.5H1162V670.1z M1188.8,670.1h26.5v26.5h-26.5V670.1z M1215.6,670.1h26.5v26.5h-26.5V670.1z M1242.4,670.1h26.5v26.5h-26.5
	V670.1z M1269.2,670.1h26.5v26.5h-26.5V670.1z M1296,670.1h26.5v26.5H1296V670.1z M1322.8,670.1h26.5v26.5h-26.5V670.1z
	 M1322.8,669.9v-26.5h26.5v26.5H1322.8z M1322.8,643.1v-26.5h26.5v26.5H1322.8z M1322.8,616.3v-26.5h26.5v26.5H1322.8z
	 M1322.8,589.5v-26.5h26.5v26.5H1322.8z M1322.8,562.7v-26.5h26.5v26.5H1322.8z M1322.8,535.9v-26.5h26.5v26.5H1322.8z
	 M1322.8,509.1v-26.5h26.5v26.5H1322.8z M1322.8,482.3v-26.5h26.5v26.5H1322.8z M1322.8,455.5v-26.5h26.5v26.5H1322.8z
	 M1322.8,428.7v-26.5h26.5v26.5H1322.8z M1322.8,401.9v-26.5h26.5v26.5H1322.8z M1322.8,375.1v-26.5h26.5v26.5H1322.8z
	 M1322.8,348.3v-26.5h26.5v26.5H1322.8z M1322.8,321.5v-26.5h26.5v26.5H1322.8z M1322.8,294.7v-26.5h26.5v26.5H1322.8z
	 M1322.8,267.9v-26.5h26.5v26.5H1322.8z M1322.8,241.1v-26.5h26.5v26.5H1322.8z M1322.8,214.3v-26.5h26.5v26.5H1322.8z
	 M1322.8,187.5v-26.5h26.5v26.5H1322.8z M1322.8,160.7v-26.5h26.5v26.5H1322.8z M1322.8,133.9v-26.5h26.5v26.5H1322.8z
	 M1322.8,107.1V80.5h26.5v26.5H1322.8z M1322.8,80.3V53.7h26.5v26.5H1322.8z M1322.8,53.5V26.9h26.5v26.5H1322.8z M1322.6,53.5H1296
	V26.9h26.5V53.5z M1295.8,53.5h-26.5V26.9h26.5V53.5z M1269,53.5h-26.5V26.9h26.5V53.5z M1242.2,53.5h-26.5V26.9h26.5V53.5z
	 M1215.4,53.5h-26.5V26.9h26.5V53.5z M1188.6,53.5H1162V26.9h26.5V53.5z M1161.8,53.5h-26.5V26.9h26.5V53.5z M1135,53.5h-26.5V26.9
	h26.5V53.5z M1108.2,53.5h-26.5V26.9h26.5V53.5z M1081.4,53.5h-26.5V26.9h26.5V53.5z M1054.6,53.5H1028V26.9h26.5V53.5z
	 M1027.8,53.5h-26.5V26.9h26.5V53.5z M1001,53.5h-26.5V26.9h26.5V53.5z M974.2,53.5h-26.5V26.9h26.5V53.5z M947.4,53.5h-26.5V26.9
	h26.5V53.5z M920.6,53.5H894V26.9h26.5V53.5z M893.8,53.5h-26.5V26.9h26.5V53.5z M867,53.5h-26.5V26.9H867V53.5z M840.2,53.5h-26.5
	V26.9h26.5V53.5z M813.4,53.5h-26.5V26.9h26.5V53.5z M786.6,53.5H760V26.9h26.5V53.5z M759.8,53.5h-26.5V26.9h26.5V53.5z M733,53.5
	h-26.5V26.9H733V53.5z M706.2,53.5h-26.5V26.9h26.5V53.5z M679.4,53.5h-26.5V26.9h26.5V53.5z M652.6,53.5H626V26.9h26.5V53.5z
	 M625.8,53.5h-26.5V26.9h26.5V53.5z M599,53.5h-26.5V26.9H599V53.5z M572.2,53.5h-26.5V26.9h26.5V53.5z M545.4,53.5h-26.5V26.9h26.5
	V53.5z M518.6,53.5H492V26.9h26.5V53.5z M491.8,53.5h-26.5V26.9h26.5V53.5z M465,53.5h-26.5V26.9H465V53.5z M438.2,53.5h-26.5V26.9
	h26.5V53.5z M411.4,53.5h-26.5V26.9h26.5V53.5z M384.6,53.5H358V26.9h26.5V53.5z M357.8,53.5h-26.5V26.9h26.5V53.5z M331,53.5h-26.5
	V26.9H331V53.5z M304.2,53.5h-26.5V26.9h26.5V53.5z M277.4,53.5h-26.5V26.9h26.5V53.5z M250.6,53.5H224V26.9h26.5V53.5z M223.8,53.5
	h-26.5V26.9h26.5V53.5z M197,53.5h-26.5V26.9H197V53.5z M170.2,53.5h-26.5V26.9h26.5V53.5z M143.4,53.5h-26.5V26.9h26.5V53.5z
	 M116.6,53.5H90V26.9h26.5V53.5z M89.8,53.5H63.2V26.9h26.5V53.5z M89.8,53.7v26.5H63.2V53.7H89.8z M89.8,80.5v26.5H63.2V80.5H89.8z
	 M89.8,107.3v26.5H63.2v-26.5H89.8z M89.8,134.1v26.5H63.2v-26.5H89.8z M89.8,160.9v26.5H63.2v-26.5H89.8z M89.8,187.7v26.5H63.2
	v-26.5H89.8z M89.8,214.5v26.5H63.2v-26.5H89.8z M89.8,241.3v26.5H63.2v-26.5H89.8z M89.8,268.1v26.5H63.2v-26.5H89.8z M89.8,294.9
	v26.5H63.2v-26.5H89.8z M89.8,321.7v26.5H63.2v-26.5H89.8z M89.8,348.5v26.5H63.2v-26.5H89.8z M89.8,375.3v26.5H63.2v-26.5H89.8z
	 M89.8,402.1v26.5H63.2v-26.5H89.8z M89.8,428.9v26.5H63.2v-26.5H89.8z M89.8,455.7v26.5H63.2v-26.5H89.8z M89.8,482.5v26.5H63.2
	v-26.5H89.8z M89.8,509.3v26.5H63.2v-26.5H89.8z M89.8,536.1v26.5H63.2v-26.5H89.8z M89.8,562.9v26.5H63.2v-26.5H89.8z M89.8,589.7
	v26.5H63.2v-26.5H89.8z M89.8,616.5v26.5H63.2v-26.5H89.8z M89.8,643.3v26.5H63.2v-26.5H89.8z M89.8,670.1v26.5H63.2v-26.5H89.8z
	 M89.8,696.9v26.5H63.2v-26.5H89.8z M90,696.9h26.5v26.5H90V696.9z M116.8,696.9h26.5v26.5h-26.5V696.9z M143.6,696.9h26.5v26.5
	h-26.5V696.9z M170.4,696.9H197v26.5h-26.5V696.9z M197.2,696.9h26.5v26.5h-26.5V696.9z M224,696.9h26.5v26.5H224V696.9z
	 M250.8,696.9h26.5v26.5h-26.5V696.9z M277.6,696.9h26.5v26.5h-26.5V696.9z M304.4,696.9H331v26.5h-26.5V696.9z M331.2,696.9h26.5
	v26.5h-26.5V696.9z M358,696.9h26.5v26.5H358V696.9z M384.8,696.9h26.5v26.5h-26.5V696.9z M411.6,696.9h26.5v26.5h-26.5V696.9z
	 M438.4,696.9H465v26.5h-26.5V696.9z M465.2,696.9h26.5v26.5h-26.5V696.9z M492,696.9h26.5v26.5H492V696.9z M518.8,696.9h26.5v26.5
	h-26.5V696.9z M545.6,696.9h26.5v26.5h-26.5V696.9z M572.4,696.9H599v26.5h-26.5V696.9z M599.2,696.9h26.5v26.5h-26.5V696.9z
	 M626,696.9h26.5v26.5H626V696.9z M652.8,696.9h26.5v26.5h-26.5V696.9z M679.6,696.9h26.5v26.5h-26.5V696.9z M706.4,696.9H733v26.5
	h-26.5V696.9z M733.2,696.9h26.5v26.5h-26.5V696.9z M760,696.9h26.5v26.5H760V696.9z M786.8,696.9h26.5v26.5h-26.5V696.9z
	 M813.6,696.9h26.5v26.5h-26.5V696.9z M840.4,696.9H867v26.5h-26.5V696.9z M867.2,696.9h26.5v26.5h-26.5V696.9z M894,696.9h26.5
	v26.5H894V696.9z M920.8,696.9h26.5v26.5h-26.5V696.9z M947.6,696.9h26.5v26.5h-26.5V696.9z M974.4,696.9h26.5v26.5h-26.5V696.9z
	 M1001.2,696.9h26.5v26.5h-26.5V696.9z M1028,696.9h26.5v26.5H1028V696.9z M1054.8,696.9h26.5v26.5h-26.5V696.9z M1081.6,696.9h26.5
	v26.5h-26.5V696.9z M1108.4,696.9h26.5v26.5h-26.5V696.9z M1135.2,696.9h26.5v26.5h-26.5V696.9z M1162,696.9h26.5v26.5H1162V696.9z
	 M1188.8,696.9h26.5v26.5h-26.5V696.9z M1215.6,696.9h26.5v26.5h-26.5V696.9z M1242.4,696.9h26.5v26.5h-26.5V696.9z M1269.2,696.9
	h26.5v26.5h-26.5V696.9z M1296,696.9h26.5v26.5H1296V696.9z M1322.8,696.9h26.5v26.5h-26.5V696.9z M1349.6,696.9h26.5v26.5h-26.5
	V696.9z M1349.6,696.7v-26.5h26.5v26.5H1349.6z M1349.6,669.9v-26.5h26.5v26.5H1349.6z M1349.6,643.1v-26.5h26.5v26.5H1349.6z
	 M1349.6,616.3v-26.5h26.5v26.5H1349.6z M1349.6,589.5v-26.5h26.5v26.5H1349.6z M1349.6,562.7v-26.5h26.5v26.5H1349.6z
	 M1349.6,535.9v-26.5h26.5v26.5H1349.6z M1349.6,509.1v-26.5h26.5v26.5H1349.6z M1349.6,482.3v-26.5h26.5v26.5H1349.6z
	 M1349.6,455.5v-26.5h26.5v26.5H1349.6z M1349.6,428.7v-26.5h26.5v26.5H1349.6z M1349.6,401.9v-26.5h26.5v26.5H1349.6z
	 M1349.6,375.1v-26.5h26.5v26.5H1349.6z M1349.6,348.3v-26.5h26.5v26.5H1349.6z M1349.6,321.5v-26.5h26.5v26.5H1349.6z
	 M1349.6,294.7v-26.5h26.5v26.5H1349.6z M1349.6,267.9v-26.5h26.5v26.5H1349.6z M1349.6,241.1v-26.5h26.5v26.5H1349.6z
	 M1349.6,214.3v-26.5h26.5v26.5H1349.6z M1349.6,187.5v-26.5h26.5v26.5H1349.6z M1349.6,160.7v-26.5h26.5v26.5H1349.6z
	 M1349.6,133.9v-26.5h26.5v26.5H1349.6z M1349.6,107.1V80.5h26.5v26.5H1349.6z M1349.6,80.3V53.7h26.5v26.5H1349.6z M1349.6,53.5
	V26.9h26.5v26.5H1349.6z M1349.6,26.7V0.1h26.5v26.5H1349.6z M1349.4,26.7h-26.5V0.1h26.5V26.7z M1322.6,26.7H1296V0.1h26.5V26.7z
	 M1295.8,26.7h-26.5V0.1h26.5V26.7z M1269,26.7h-26.5V0.1h26.5V26.7z M1242.2,26.7h-26.5V0.1h26.5V26.7z M1215.4,26.7h-26.5V0.1
	h26.5V26.7z M1188.6,26.7H1162V0.1h26.5V26.7z M1161.8,26.7h-26.5V0.1h26.5V26.7z M1135,26.7h-26.5V0.1h26.5V26.7z M1108.2,26.7
	h-26.5V0.1h26.5V26.7z M1081.4,26.7h-26.5V0.1h26.5V26.7z M1054.6,26.7H1028V0.1h26.5V26.7z M1027.8,26.7h-26.5V0.1h26.5V26.7z
	 M1001,26.7h-26.5V0.1h26.5V26.7z M974.2,26.7h-26.5V0.1h26.5V26.7z M947.4,26.7h-26.5V0.1h26.5V26.7z M920.6,26.7H894V0.1h26.5
	V26.7z M893.8,26.7h-26.5V0.1h26.5V26.7z M867,26.7h-26.5V0.1H867V26.7z M840.2,26.7h-26.5V0.1h26.5V26.7z M813.4,26.7h-26.5V0.1
	h26.5V26.7z M786.6,26.7H760V0.1h26.5V26.7z M759.8,26.7h-26.5V0.1h26.5V26.7z M733,26.7h-26.5V0.1H733V26.7z M706.2,26.7h-26.5V0.1
	h26.5V26.7z M679.4,26.7h-26.5V0.1h26.5V26.7z M652.6,26.7H626V0.1h26.5V26.7z M625.8,26.7h-26.5V0.1h26.5V26.7z M599,26.7h-26.5
	V0.1H599V26.7z M572.2,26.7h-26.5V0.1h26.5V26.7z M545.4,26.7h-26.5V0.1h26.5V26.7z M518.6,26.7H492V0.1h26.5V26.7z M491.8,26.7
	h-26.5V0.1h26.5V26.7z M465,26.7h-26.5V0.1H465V26.7z M438.2,26.7h-26.5V0.1h26.5V26.7z M411.4,26.7h-26.5V0.1h26.5V26.7z
	 M384.6,26.7H358V0.1h26.5V26.7z M357.8,26.7h-26.5V0.1h26.5V26.7z M331,26.7h-26.5V0.1H331V26.7z M304.2,26.7h-26.5V0.1h26.5V26.7z
	 M277.4,26.7h-26.5V0.1h26.5V26.7z M250.6,26.7H224V0.1h26.5V26.7z M223.8,26.7h-26.5V0.1h26.5V26.7z M197,26.7h-26.5V0.1H197V26.7z
	 M170.2,26.7h-26.5V0.1h26.5V26.7z M143.4,26.7h-26.5V0.1h26.5V26.7z M116.6,26.7H90V0.1h26.5V26.7z M89.8,26.7H63.2V0.1h26.5V26.7z
	 M63,26.7H36.4V0.1H63V26.7z M63,26.9v26.5H36.4V26.9H63z M63,53.7v26.5H36.4V53.7H63z M63,80.5v26.5H36.4V80.5H63z M63,107.3v26.5
	H36.4v-26.5H63z M63,134.1v26.5H36.4v-26.5H63z M63,160.9v26.5H36.4v-26.5H63z M63,187.7v26.5H36.4v-26.5H63z M63,214.5v26.5H36.4
	v-26.5H63z M63,241.3v26.5H36.4v-26.5H63z M63,268.1v26.5H36.4v-26.5H63z M63,294.9v26.5H36.4v-26.5H63z M63,321.7v26.5H36.4v-26.5
	H63z M63,348.5v26.5H36.4v-26.5H63z M63,375.3v26.5H36.4v-26.5H63z M63,402.1v26.5H36.4v-26.5H63z M63,428.9v26.5H36.4v-26.5H63z
	 M63,455.7v26.5H36.4v-26.5H63z M63,482.5v26.5H36.4v-26.5H63z M63,509.3v26.5H36.4v-26.5H63z M63,536.1v26.5H36.4v-26.5H63z
	 M63,562.9v26.5H36.4v-26.5H63z M63,589.7v26.5H36.4v-26.5H63z M63,616.5v26.5H36.4v-26.5H63z M63,643.3v26.5H36.4v-26.5H63z
	 M63,670.1v26.5H36.4v-26.5H63z M63,696.9v26.5H36.4v-26.5H63z M63,723.7v26.5H36.4v-26.5H63z M63.2,723.7h26.5v26.5H63.2V723.7z
	 M90,723.7h26.5v26.5H90V723.7z M116.8,723.7h26.5v26.5h-26.5V723.7z M143.6,723.7h26.5v26.5h-26.5V723.7z M170.4,723.7H197v26.5
	h-26.5V723.7z M197.2,723.7h26.5v26.5h-26.5V723.7z M224,723.7h26.5v26.5H224V723.7z M250.8,723.7h26.5v26.5h-26.5V723.7z
	 M277.6,723.7h26.5v26.5h-26.5V723.7z M304.4,723.7H331v26.5h-26.5V723.7z M331.2,723.7h26.5v26.5h-26.5V723.7z M358,723.7h26.5
	v26.5H358V723.7z M384.8,723.7h26.5v26.5h-26.5V723.7z M411.6,723.7h26.5v26.5h-26.5V723.7z M438.4,723.7H465v26.5h-26.5V723.7z
	 M465.2,723.7h26.5v26.5h-26.5V723.7z M492,723.7h26.5v26.5H492V723.7z M518.8,723.7h26.5v26.5h-26.5V723.7z M545.6,723.7h26.5v26.5
	h-26.5V723.7z M572.4,723.7H599v26.5h-26.5V723.7z M599.2,723.7h26.5v26.5h-26.5V723.7z M626,723.7h26.5v26.5H626V723.7z
	 M652.8,723.7h26.5v26.5h-26.5V723.7z M679.6,723.7h26.5v26.5h-26.5V723.7z M706.4,723.7H733v26.5h-26.5V723.7z M733.2,723.7h26.5
	v26.5h-26.5V723.7z M760,723.7h26.5v26.5H760V723.7z M786.8,723.7h26.5v26.5h-26.5V723.7z M813.6,723.7h26.5v26.5h-26.5V723.7z
	 M840.4,723.7H867v26.5h-26.5V723.7z M867.2,723.7h26.5v26.5h-26.5V723.7z M894,723.7h26.5v26.5H894V723.7z M920.8,723.7h26.5v26.5
	h-26.5V723.7z M947.6,723.7h26.5v26.5h-26.5V723.7z M974.4,723.7h26.5v26.5h-26.5V723.7z M1001.2,723.7h26.5v26.5h-26.5V723.7z
	 M1028,723.7h26.5v26.5H1028V723.7z M1054.8,723.7h26.5v26.5h-26.5V723.7z M1081.6,723.7h26.5v26.5h-26.5V723.7z M1108.4,723.7h26.5
	v26.5h-26.5V723.7z M1135.2,723.7h26.5v26.5h-26.5V723.7z M1162,723.7h26.5v26.5H1162V723.7z M1188.8,723.7h26.5v26.5h-26.5V723.7z
	 M1215.6,723.7h26.5v26.5h-26.5V723.7z M1242.4,723.7h26.5v26.5h-26.5V723.7z M1269.2,723.7h26.5v26.5h-26.5V723.7z M1296,723.7
	h26.5v26.5H1296V723.7z M1322.8,723.7h26.5v26.5h-26.5V723.7z M1349.6,723.7h26.5v26.5h-26.5V723.7z M1376.4,723.7h26.5v26.5h-26.5
	V723.7z M1376.4,723.5v-26.5h26.5v26.5H1376.4z M1376.4,696.7v-26.5h26.5v26.5H1376.4z M1376.4,669.9v-26.5h26.5v26.5H1376.4z
	 M1376.4,643.1v-26.5h26.5v26.5H1376.4z M1376.4,616.3v-26.5h26.5v26.5H1376.4z M1376.4,589.5v-26.5h26.5v26.5H1376.4z
	 M1376.4,562.7v-26.5h26.5v26.5H1376.4z M1376.4,535.9v-26.5h26.5v26.5H1376.4z M1376.4,509.1v-26.5h26.5v26.5H1376.4z
	 M1376.4,482.3v-26.5h26.5v26.5H1376.4z M1376.4,455.5v-26.5h26.5v26.5H1376.4z M1376.4,428.7v-26.5h26.5v26.5H1376.4z
	 M1376.4,401.9v-26.5h26.5v26.5H1376.4z M1376.4,375.1v-26.5h26.5v26.5H1376.4z M1376.4,348.3v-26.5h26.5v26.5H1376.4z
	 M1376.4,321.5v-26.5h26.5v26.5H1376.4z M1376.4,294.7v-26.5h26.5v26.5H1376.4z M1376.4,267.9v-26.5h26.5v26.5H1376.4z
	 M1376.4,241.1v-26.5h26.5v26.5H1376.4z M1376.4,214.3v-26.5h26.5v26.5H1376.4z M1376.4,187.5v-26.5h26.5v26.5H1376.4z
	 M1376.4,160.7v-26.5h26.5v26.5H1376.4z M1376.4,133.9v-26.5h26.5v26.5H1376.4z M1376.4,107.1V80.5h26.5v26.5H1376.4z M1376.4,80.3
	V53.7h26.5v26.5H1376.4z M1376.4,53.5V26.9h26.5v26.5H1376.4z M1376.4,26.7V0.1h26.5v26.5H1376.4z M9.6,0.1h26.5v26.5H9.6V0.1z
	 M9.6,26.9h26.5v26.5H9.6V26.9z M9.6,53.7h26.5v26.5H9.6V53.7z M9.6,80.5h26.5v26.5H9.6V80.5z M9.6,107.3h26.5v26.5H9.6V107.3z
	 M9.6,134.1h26.5v26.5H9.6V134.1z M9.6,160.9h26.5v26.5H9.6V160.9z M9.6,187.7h26.5v26.5H9.6V187.7z M9.6,214.5h26.5v26.5H9.6V214.5
	z M9.6,241.3h26.5v26.5H9.6V241.3z M9.6,268.1h26.5v26.5H9.6V268.1z M9.6,294.9h26.5v26.5H9.6V294.9z M9.6,321.7h26.5v26.5H9.6
	V321.7z M9.6,348.5h26.5v26.5H9.6V348.5z M9.6,375.3h26.5v26.5H9.6V375.3z M9.6,402.1h26.5v26.5H9.6V402.1z M9.6,428.9h26.5v26.5
	H9.6V428.9z M9.6,455.7h26.5v26.5H9.6V455.7z M9.6,482.5h26.5v26.5H9.6V482.5z M9.6,509.3h26.5v26.5H9.6V509.3z M9.6,536.1h26.5
	v26.5H9.6V536.1z M9.6,562.9h26.5v26.5H9.6V562.9z M9.6,589.7h26.5v26.5H9.6V589.7z M9.6,616.5h26.5v26.5H9.6V616.5z M9.6,643.3
	h26.5v26.5H9.6V643.3z M9.6,670.1h26.5v26.5H9.6V670.1z M9.6,696.9h26.5v26.5H9.6V696.9z M9.6,723.7h26.5v26.5H9.6V723.7z
	 M9.6,777.1v-26.5h26.5v26.5H9.6z M36.4,777.1v-26.5H63v26.5H36.4z M63.2,777.1v-26.5h26.5v26.5H63.2z M90,777.1v-26.5h26.5v26.5H90
	z M116.8,777.1v-26.5h26.5v26.5H116.8z M143.6,777.1v-26.5h26.5v26.5H143.6z M170.4,777.1v-26.5H197v26.5H170.4z M197.2,777.1v-26.5
	h26.5v26.5H197.2z M224,777.1v-26.5h26.5v26.5H224z M250.8,777.1v-26.5h26.5v26.5H250.8z M277.6,777.1v-26.5h26.5v26.5H277.6z
	 M304.4,777.1v-26.5H331v26.5H304.4z M331.2,777.1v-26.5h26.5v26.5H331.2z M358,777.1v-26.5h26.5v26.5H358z M384.8,777.1v-26.5h26.5
	v26.5H384.8z M411.6,777.1v-26.5h26.5v26.5H411.6z M438.4,777.1v-26.5H465v26.5H438.4z M465.2,777.1v-26.5h26.5v26.5H465.2z
	 M492,777.1v-26.5h26.5v26.5H492z M518.8,777.1v-26.5h26.5v26.5H518.8z M545.6,777.1v-26.5h26.5v26.5H545.6z M572.4,777.1v-26.5H599
	v26.5H572.4z M599.2,777.1v-26.5h26.5v26.5H599.2z M626,777.1v-26.5h26.5v26.5H626z M652.8,777.1v-26.5h26.5v26.5H652.8z
	 M679.6,777.1v-26.5h26.5v26.5H679.6z M706.4,777.1v-26.5H733v26.5H706.4z M733.2,777.1v-26.5h26.5v26.5H733.2z M760,777.1v-26.5
	h26.5v26.5H760z M786.8,777.1v-26.5h26.5v26.5H786.8z M813.6,777.1v-26.5h26.5v26.5H813.6z M840.4,777.1v-26.5H867v26.5H840.4z
	 M867.2,777.1v-26.5h26.5v26.5H867.2z M894,777.1v-26.5h26.5v26.5H894z M920.8,777.1v-26.5h26.5v26.5H920.8z M947.6,777.1v-26.5
	h26.5v26.5H947.6z M974.4,777.1v-26.5h26.5v26.5H974.4z M1001.2,777.1v-26.5h26.5v26.5H1001.2z M1028,777.1v-26.5h26.5v26.5H1028z
	 M1054.8,777.1v-26.5h26.5v26.5H1054.8z M1081.6,777.1v-26.5h26.5v26.5H1081.6z M1108.4,777.1v-26.5h26.5v26.5H1108.4z
	 M1135.2,777.1v-26.5h26.5v26.5H1135.2z M1162,777.1v-26.5h26.5v26.5H1162z M1188.8,777.1v-26.5h26.5v26.5H1188.8z M1215.6,777.1
	v-26.5h26.5v26.5H1215.6z M1242.4,777.1v-26.5h26.5v26.5H1242.4z M1269.2,777.1v-26.5h26.5v26.5H1269.2z M1296,777.1v-26.5h26.5
	v26.5H1296z M1322.8,777.1v-26.5h26.5v26.5H1322.8z M1349.6,777.1v-26.5h26.5v26.5H1349.6z M1376.4,777.1v-26.5h26.5v26.5H1376.4z
	 M1429.8,777.1h-26.5v-26.5h26.5V777.1z M1429.8,750.3h-26.5v-26.5h26.5V750.3z M1429.8,723.5h-26.5v-26.5h26.5V723.5z
	 M1429.8,696.7h-26.5v-26.5h26.5V696.7z M1429.8,669.9h-26.5v-26.5h26.5V669.9z M1429.8,643.1h-26.5v-26.5h26.5V643.1z
	 M1429.8,616.3h-26.5v-26.5h26.5V616.3z M1429.8,589.5h-26.5v-26.5h26.5V589.5z M1429.8,562.7h-26.5v-26.5h26.5V562.7z
	 M1429.8,535.9h-26.5v-26.5h26.5V535.9z M1429.8,509.1h-26.5v-26.5h26.5V509.1z M1429.8,482.3h-26.5v-26.5h26.5V482.3z
	 M1429.8,455.5h-26.5v-26.5h26.5V455.5z M1429.8,428.7h-26.5v-26.5h26.5V428.7z M1429.8,401.9h-26.5v-26.5h26.5V401.9z
	 M1429.8,375.1h-26.5v-26.5h26.5V375.1z M1429.8,348.3h-26.5v-26.5h26.5V348.3z M1429.8,321.5h-26.5v-26.5h26.5V321.5z
	 M1429.8,294.7h-26.5v-26.5h26.5V294.7z M1429.8,267.9h-26.5v-26.5h26.5V267.9z M1429.8,241.1h-26.5v-26.5h26.5V241.1z
	 M1429.8,214.3h-26.5v-26.5h26.5V214.3z M1429.8,187.5h-26.5v-26.5h26.5V187.5z M1429.8,160.7h-26.5v-26.5h26.5V160.7z
	 M1429.8,133.9h-26.5v-26.5h26.5V133.9z M1429.8,107.1h-26.5V80.5h26.5V107.1z M1429.8,80.3h-26.5V53.7h26.5V80.3z M1429.8,53.5
	h-26.5V26.9h26.5V53.5z M1429.8,26.7h-26.5V0.1h26.5V26.7z"/>
</svg>
