<?xml version="1.0" encoding="utf-8"?>
<!-- Generator: Adobe Illustrator 24.0.1, SVG Export Plug-In . SVG Version: 6.00 Build 0)  -->
<svg version="1.1" id="Calque_1" xmlns="http://www.w3.org/2000/svg" xmlns:xlink="http://www.w3.org/1999/xlink" x="0px" y="0px"
	 viewBox="0 0 1440 790" style="enable-background:new 0 0 1440 790;" xml:space="preserve">
<style type="text/css">
	.st0{fill:none;stroke:#FFFFFF;stroke-width:0.28;stroke-miterlimit:10;}
</style>
<title>fondpoint</title>
<line class="st0" x1="9.5" y1="0" x2="9.5" y2="790"/>
<line class="st0" x1="36.3" y1="0" x2="36.3" y2="790"/>
<line class="st0" x1="63.1" y1="0" x2="63.1" y2="790"/>
<line class="st0" x1="89.9" y1="0" x2="89.9" y2="790"/>
<line class="st0" x1="116.7" y1="0" x2="116.7" y2="790"/>
<line class="st0" x1="143.5" y1="0" x2="143.5" y2="790"/>
<line class="st0" x1="170.3" y1="0" x2="170.3" y2="790"/>
<line class="st0" x1="197.1" y1="0" x2="197.1" y2="790"/>
<line class="st0" x1="223.9" y1="0" x2="223.9" y2="790"/>
<line class="st0" x1="250.7" y1="0" x2="250.7" y2="790"/>
<line class="st0" x1="277.5" y1="0" x2="277.5" y2="790"/>
<line class="st0" x1="304.3" y1="0" x2="304.3" y2="790"/>
<line class="st0" x1="331.1" y1="0" x2="331.1" y2="790"/>
<line class="st0" x1="357.9" y1="0" x2="357.9" y2="790"/>
<line class="st0" x1="384.7" y1="0" x2="384.7" y2="790"/>
<line class="st0" x1="411.5" y1="0" x2="411.5" y2="790"/>
<line class="st0" x1="438.3" y1="0" x2="438.3" y2="790"/>
<line class="st0" x1="465.1" y1="0" x2="465.1" y2="790"/>
<line class="st0" x1="491.9" y1="0" x2="491.9" y2="790"/>
<line class="st0" x1="518.7" y1="0" x2="518.7" y2="790"/>
<line class="st0" x1="545.5" y1="0" x2="545.5" y2="790"/>
<line class="st0" x1="572.3" y1="0" x2="572.3" y2="790"/>
<line class="st0" x1="599.1" y1="0" x2="599.1" y2="790"/>
<line class="st0" x1="625.9" y1="0" x2="625.9" y2="790"/>
<line class="st0" x1="652.7" y1="0" x2="652.7" y2="790"/>
<line class="st0" x1="679.5" y1="0" x2="679.5" y2="790"/>
<line class="st0" x1="706.3" y1="0" x2="706.3" y2="790"/>
<line class="st0" x1="733.1" y1="0" x2="733.1" y2="790"/>
<line class="st0" x1="759.9" y1="0" x2="759.9" y2="790"/>
<line class="st0" x1="786.7" y1="0" x2="786.7" y2="790"/>
<line class="st0" x1="813.5" y1="0" x2="813.5" y2="790"/>
<line class="st0" x1="840.3" y1="0" x2="840.3" y2="790"/>
<line class="st0" x1="867.1" y1="0" x2="867.1" y2="790"/>
<line class="st0" x1="893.9" y1="0" x2="893.9" y2="790"/>
<line class="st0" x1="920.7" y1="0" x2="920.7" y2="790"/>
<line class="st0" x1="947.5" y1="0" x2="947.5" y2="790"/>
<line class="st0" x1="974.3" y1="0" x2="974.3" y2="790"/>
<line class="st0" x1="1001.1" y1="0" x2="1001.1" y2="790"/>
<line class="st0" x1="1027.9" y1="0" x2="1027.9" y2="790"/>
<line class="st0" x1="1054.7" y1="0" x2="1054.7" y2="790"/>
<line class="st0" x1="1081.5" y1="0" x2="1081.5" y2="790"/>
<line class="st0" x1="1108.3" y1="0" x2="1108.3" y2="790"/>
<line class="st0" x1="1135.1" y1="0" x2="1135.1" y2="790"/>
<line class="st0" x1="1161.9" y1="0" x2="1161.9" y2="790"/>
<line class="st0" x1="1188.7" y1="0" x2="1188.7" y2="790"/>
<line class="st0" x1="1215.5" y1="0" x2="1215.5" y2="790"/>
<line class="st0" x1="1242.3" y1="0" x2="1242.3" y2="790"/>
<line class="st0" x1="1269.1" y1="0" x2="1269.1" y2="790"/>
<line class="st0" x1="1295.9" y1="0" x2="1295.9" y2="790"/>
<line class="st0" x1="1322.7" y1="0" x2="1322.7" y2="790"/>
<line class="st0" x1="1349.5" y1="0" x2="1349.5" y2="790"/>
<line class="st0" x1="1376.3" y1="0" x2="1376.3" y2="790"/>
<line class="st0" x1="1403.1" y1="0" x2="1403.1" y2="790"/>
<line class="st0" x1="1429.9" y1="0" x2="1429.9" y2="790"/>
<line class="st0" x1="1440" y1="0" x2="-1" y2="0"/>
<line class="st0" x1="1440" y1="26.8" x2="-1" y2="26.8"/>
<line class="st0" x1="1440" y1="53.6" x2="-1" y2="53.6"/>
<line class="st0" x1="1440" y1="80.4" x2="-1" y2="80.4"/>
<line class="st0" x1="1440" y1="107.2" x2="-1" y2="107.2"/>
<line class="st0" x1="1440" y1="134" x2="-1" y2="134"/>
<line class="st0" x1="1440" y1="160.8" x2="-1" y2="160.8"/>
<line class="st0" x1="1440" y1="187.6" x2="-1" y2="187.6"/>
<line class="st0" x1="1440" y1="214.4" x2="-1" y2="214.4"/>
<line class="st0" x1="1440" y1="241.2" x2="-1" y2="241.2"/>
<line class="st0" x1="1440" y1="268" x2="-1" y2="268"/>
<line class="st0" x1="1440" y1="294.8" x2="-1" y2="294.8"/>
<line class="st0" x1="1440" y1="321.6" x2="-1" y2="321.6"/>
<line class="st0" x1="1440" y1="348.4" x2="-1" y2="348.4"/>
<line class="st0" x1="1440" y1="375.2" x2="-1" y2="375.2"/>
<line class="st0" x1="1440" y1="402" x2="-1" y2="402"/>
<line class="st0" x1="1440" y1="428.8" x2="-1" y2="428.8"/>
<line class="st0" x1="1440" y1="455.6" x2="-1" y2="455.6"/>
<line class="st0" x1="1440" y1="482.4" x2="-1" y2="482.4"/>
<line class="st0" x1="1440" y1="509.2" x2="-1" y2="509.2"/>
<line class="st0" x1="1440" y1="536" x2="-1" y2="536"/>
<line class="st0" x1="1440" y1="562.8" x2="-1" y2="562.8"/>
<line class="st0" x1="1440" y1="589.6" x2="-1" y2="589.6"/>
<line class="st0" x1="1440" y1="616.4" x2="-1" y2="616.4"/>
<line class="st0" x1="1440" y1="643.2" x2="-1" y2="643.2"/>
<line class="st0" x1="1440" y1="670" x2="-1" y2="670"/>
<line class="st0" x1="1440" y1="696.8" x2="-1" y2="696.8"/>
<line class="st0" x1="1440" y1="723.6" x2="-1" y2="723.6"/>
<line class="st0" x1="1440" y1="750.4" x2="-1" y2="750.4"/>
<line class="st0" x1="1440" y1="777.2" x2="-1" y2="777.2"/>
</svg>
