<?xml version="1.0" encoding="utf-8"?>
<!-- Generator: Adobe Illustrator 24.0.1, SVG Export Plug-In . SVG Version: 6.00 Build 0)  -->
<svg version="1.1" id="Calque_1" xmlns="http://www.w3.org/2000/svg" xmlns:xlink="http://www.w3.org/1999/xlink" x="0px" y="0px"
	 viewBox="0 0 992 235" style="enable-background:new 0 0 992 235;" xml:space="preserve">
<style type="text/css">
	.st0{fill:#FFFFFF;}
</style>
<path class="st0" d="M437.4,149.9c1.6,0,2.8,0,4.2,0c1.2-6.7,2.3-13.4,3.5-20C451,96.4,457,63,463,29.5c0.6-3.5,1.6-7,2.3-10.5
	c0.4-1.9,1.4-2.6,3.3-2.6c25.7,0,51.3,0,77,0c0.6,0,1.3,0.1,2.2,0.2c-0.1,1-0.2,1.8-0.4,2.5c-9.9,43.1-19.9,86.2-29.8,129.2
	c-4.5,19.6-9,39.1-13.5,58.7c-1,4.1-1,4.1-5.3,4.1c-42,0-84,0-126,0c-0.7,0-1.3-0.1-2,0c-2.3,0.2-3.1-0.5-2.8-3
	c1.6-13.1,3.1-26.1,4.7-39.2c2.3-18.9,4.5-37.9,6.8-56.8c1.3-10.6,2.6-21.2,3.9-31.7c0.1-0.8,0.1-1.6,0.2-2.4
	c-3.6-1.1-3.9-0.8-4.6,2.5c-7.9,42.3-15.9,84.6-23.9,126.9c-0.7,3.6-0.9,3.8-4.6,3.8c-24.7,0-49.5,0-74.2,0c-4.2,0-4.2,0-3.3-4.1
	c7.7-33.3,15.3-66.5,23-99.8c6.7-28.9,13.3-57.8,20-86.7c1-4.2,1-4.2,5.2-4.2c42.5,0,85,0,127.5,0c3.7,0,3.7,0,3.3,3.5
	c-3.8,34.4-7.6,68.7-11.5,103.1C439.5,131.9,438.4,140.7,437.4,149.9z"/>
<path class="st0" d="M634.5,140.2c-2.7-0.9-3.7,0.1-4.3,2.7c-4.8,21.4-9.8,42.7-14.7,64c-1,4.2-0.9,4.2-5.2,4.2c-30.7,0-61.3,0-92,0
	c-4,0-4,0-3.1-3.9c11-47.8,22-95.6,33.1-143.4c3.4-14.8,6.9-29.7,10.2-44.6c0.5-2.1,1.4-3.1,3.7-3.1c31.5,0.1,63,0,94.5,0
	c0.7,0,1.5,0.1,2.7,0.2c-5.4,23.5-10.7,46.7-16,70c3.4,1,3.6,0.8,4.7-2.2c7.4-21.7,14.8-43.3,22.2-65c0.7-2.1,1.9-3,4.2-3
	c33.1,0.1,66.2,0,99.2,0c0.9,0,1.7,0.1,3,0.2c-0.5,1.4-0.9,2.4-1.3,3.3c-13.9,30.1-27.8,60.2-41.7,90.3c-0.8,1.7-1.2,3.7-1.2,5.5
	c0,30.6,0.1,61.2,0.1,91.7c0,3.7,0,3.8-3.8,3.8c-32.8,0-65.7,0-98.5,0c-3.3,0-3.4-0.2-3-3.4c1.8-17.5,3.4-35,5.2-52.5
	C633,150.3,633.8,145.3,634.5,140.2z"/>
<path class="st0" d="M797.9,132.7c16,0,32,0,48,0c3.5,0,3.5,0.1,2.7,3.6c-1,4.1-1.9,8.1-2.9,12.2c-0.9,4,0.9,6,5,5.6
	c3-0.3,5.1-1.9,5.8-4.7c1.1-4.6,2.3-9.2,3.1-13.9c1-5.4-1.1-7.9-6.5-8.2c-1.3-0.1-2.7-0.1-4-0.1c-19.7-0.1-39.3,0.1-59-0.3
	c-5.4-0.1-10.8-0.9-16-2.2c-15.4-3.8-22-14.1-18.9-29.7c2.2-11.2,4.7-22.3,7.8-33.3c3.9-13.9,13.3-23.8,25.6-31.1
	c13.3-7.9,27.9-12.1,43.1-14.5c30.1-4.9,60.4-5.1,90.7-1.5c11.8,1.4,23.4,3.7,34.2,8.9c4.6,2.2,9.1,4.9,13,8.2
	c9.4,7.9,12.3,18.4,10.1,30.2c-1.8,9.7-4.3,19.3-6.5,29c-0.5,2.2-2,2.3-3.7,2.3c-25.3,0-50.7,0-76,0c-6.8,0-13.7,0-20.5,0
	c-3.2,0-3.3-0.1-2.5-3.3c0.6-2.3,1.2-4.7,1.7-7c0.9-3.6,0.4-5.3-1.8-6.2c-2.7-1.1-6.4,0-8,2.5c-0.5,0.8-0.8,1.6-1,2.5
	c-0.9,3.6-1.9,7.3-2.7,10.9c-0.8,3.6,0.2,5.2,3.9,5.7c2.4,0.3,4.8,0.4,7.2,0.4c18.1,0.1,36.2,0,54.2,0.2c8.8,0.1,17.7,0.8,26,4
	c9.5,3.7,13.9,9.9,13.8,20.1c-0.1,5.5-0.9,11-1.9,16.3c-1.8,9.1-3.7,18.3-6.4,27.2c-4.2,14-13.8,23.7-26.2,30.9
	c-13.9,8-29.2,12.1-44.9,14.5c-28.6,4.4-57.3,4.5-86,1.4c-12.2-1.3-24.2-3.8-35.5-8.8c-6.1-2.7-11.7-6.1-16.2-11
	c-8.5-9.1-9.6-19.9-7-31.5c2-8.8,4.1-17.5,6-26.3c0.5-2.4,1.6-3.1,3.9-3.1C765.7,132.8,781.8,132.7,797.9,132.7z"/>
<path class="st0" d="M170.8,16.6c-9.7,41.7-19.2,83.1-28.9,124.9c1.1,0.1,1.9,0.1,2.8,0.1c7.3,0,14.7,0,22,0c3,0,3.2,0.4,2.6,3.2
	c-4.9,21.1-9.9,42.2-14.7,63.3c-0.5,2.4-1.5,3.3-4,3.3c-42.3-0.1-84.7,0-127-0.1c-3.3,0-3.4-0.1-2.6-3.5
	c8.4-36.6,16.9-73.2,25.3-109.8c6-26,11.9-51.9,17.9-77.9c0.8-3.5,0.9-3.6,4.4-3.6c33,0,66,0,99,0C168.5,16.4,169.4,16.5,170.8,16.6
	z"/>
<path class="st0" d="M305.7,16.4c-0.8,3.7-1.5,6.9-2.2,10.1c-7.8,33.9-15.6,67.8-23.5,101.7c-6.2,26.7-12.3,53.4-18.4,80.1
	c-0.5,2.1-1.4,2.9-3.5,2.9c-31.4-0.1-62.8,0-94.2,0c-2.9,0-3.1-0.2-2.5-3c9.6-41.6,19.2-83.2,28.8-124.9c4.8-21,9.7-42,14.5-63
	c0.9-3.9,0.9-3.9,5-3.9c30.8,0,61.7,0,92.5,0C303.1,16.4,304.2,16.4,305.7,16.4z"/>
</svg>
