<?xml version="1.0" encoding="utf-8"?>
<!-- Generator: Adobe Illustrator 24.0.1, SVG Export Plug-In . SVG Version: 6.00 Build 0)  -->
<svg version="1.1" id="Calque_1" xmlns="http://www.w3.org/2000/svg" xmlns:xlink="http://www.w3.org/1999/xlink" x="0px" y="0px"
	 viewBox="0 0 889.3 517.8" style="enable-background:new 0 0 889.3 517.8;" xml:space="preserve">
<style type="text/css">
	.st0{fill:#FFFFFF;}
</style>
<path class="st0" d="M454.5,264.7c0-71.5,0-143,0-214.5c0-0.9,0-1.8,0-2.7c0.1-3.3,0.9-4.1,4.2-4.1c11.8,0,23.7,0,35.5,0
	c0.2,0,0.5,0,0.8,0c2.3,0,3.4,1.2,3.6,3.3c0.1,1.1,0.1,2.2,0.1,3.2c0,62.3,0,124.7,0,187c0,0.9-0.2,1.9,0.1,2.7
	c1,3.3,3.8,1.1,5.7,1.6c1.2,0.3,2.6,0.1,2.5-1.8c0-0.8,0-1.7,0-2.5c0-62,0-124,0-186c0-0.8,0-1.7,0-2.5c0-4.5,0.6-5.1,5-5.1
	c9.8,0,19.7,0,29.5,0c2,0,4,0,6,0c3.3,0,4.1,0.8,4.2,4.2c0,1.2,0,2.5,0,3.7c0,142.9,0,285.8,0,428.7c0,0.5,0,1,0,1.5
	c0,4.2-0.7,4.8-4.8,4.8c-11.7,0-23.3,0-35,0c-4.2,0-4.9-0.7-4.9-5c0-66.1,0-132.2,0-198.2c0-4.9,0.5-4.4-4.4-4.4
	c-3.8,0-3.8,0-3.8,3.8c0,65.5,0,131,0,196.5c0,1.1,0,2.2,0,3.2c-0.2,3-1.2,4-4.2,4c-12,0-24,0-36,0c-3,0-3.9-0.9-4-3.9
	c0-1.1,0-2.2,0-3.2C454.5,407.7,454.5,336.2,454.5,264.7z"/>
<path class="st0" d="M184.2,246.4c0-65.1,0-130.2,0-195.2c0-0.9,0-1.8,0-2.7c0-4.5,0.6-5.1,5-5.1c10.6,0,21.2,0,31.7,0
	c1.3,0,2.7,0,4,0c3,0.1,3.8,0.9,3.9,3.9c0,0.7,0,1.5,0,2.2c0,126.9,0,253.8,0,380.7c0,10.1-0.4,20.1-3.2,29.9
	c-4.4,15.3-14.2,24.5-30,27.3c-10.9,1.9-21.7,1.9-32.5-0.3c-14.9-3-24.1-12.2-28.2-26.8c-2-7.3-3-14.7-3.1-22.2
	c-0.1-21.5-0.1-43-0.1-64.5c0-107.7,0-215.3,0-323c0-0.9,0-1.8,0-2.7c0-4,0.7-4.7,4.7-4.7c11.6,0,23.2,0,34.7,0c3.7,0,4.6,1,4.7,4.8
	c0,1.1,0,2.2,0,3.2c0,130,0,260,0,390c0,2.2,0.1,4.3,0.3,6.5c0.2,2,1.5,2.8,3.4,3c2,0.2,3.6-0.4,4-2.5c0.4-1.9,0.5-3.8,0.5-5.7
	c0-54.4,0-108.8,0-163.2C184.2,268.4,184.2,257.4,184.2,246.4z"/>
<path class="st0" d="M239.3,264.7c0-71.7,0-143.3,0-215c0-1.1,0-2.2,0-3.2c0.1-2.1,1.3-3.1,3.3-3.2c0.2,0,0.5,0,0.7,0
	c15.4,0,30.8-0.1,46.2,0.1c6.4,0.1,12.7,1.2,18.8,3.5c11.1,4,18.5,11.8,22.7,22.7c3.4,8.7,5,17.8,5,27.1
	c0.1,41.2,0.1,82.3-0.1,123.5c-0.1,9.7-2.6,18.9-8.8,26.8c-3.4,4.4-7.9,7.3-13.2,9c-0.9,0.3-1.5,1.3-2.2,1.9
	c0.8,0.5,1.5,1.2,2.3,1.5c3.2,1,6.7,1.4,9.7,2.8c6.9,3.3,10.1,9.6,11.1,16.8c0.9,6.3,1.3,12.8,1.3,19.1c0.1,46.2,0,92.5,0.3,138.7
	c0.1,12.4,1.6,24.7,2.6,37.1c0.2,2.6,1,5.2,1.5,7.8c0.7,3.2-0.2,4.4-3.4,4.4c-12.7,0-25.3,0-38,0c-3.4,0-4.3-0.9-4.9-4
	c-2-11.6-2.8-23.3-2.8-35.1c0-52.7,0-105.5-0.1-158.2c0-2.1-0.3-4.3-0.7-6.4c-0.5-2.7-3.4-4.4-6.1-3.8c-0.5,0.1-1.1,0.9-1.3,1.5
	c-0.2,1-0.1,2-0.1,3c0,65.3,0,130.7,0,196c0,1,0,2,0,3c-0.1,3.1-1.2,4.1-4.3,4.1c-11.7,0-23.3,0-35,0c-4.1,0-4.8-0.6-4.8-4.8
	c0-35.7,0-71.3,0-107C239.3,337.9,239.3,301.3,239.3,264.7z M283.5,161c0,25.3,0,50.6,0,76c0,1.2,0.5,3.5,0.8,3.5c1.7,0,3.4-0.3,5-1
	c0.7-0.3,1.3-1.5,1.5-2.4c0.4-1.9,0.8-3.9,0.8-5.9c0.1-31.6,0.1-63.1,0.1-94.7c0-15.5,0-31-0.1-46.5c0-1.8-0.4-3.7-0.9-5.4
	c-0.7-2.2-3.6-3.9-5.8-3.3c-2.4,0.6-1.4,2.8-1.4,4.2C283.5,110.6,283.5,135.8,283.5,161z"/>
<path class="st0" d="M391.6,264.8c0,59.2,0,118.3,0,177.5c0,2,0.2,4,0.6,5.9c0.4,2.1,2.1,2.5,4,2.5c1.9,0,3-0.9,3.2-2.8
	c0.2-2.1,0.4-4.1,0.4-6.2c0-57,0-114,0-171c0-6.5,0.2-6.7,6.8-6.7c10.9,0,21.8,0,32.7,0c4.4,0,5.2,0.9,5.2,5.3
	c0,54.1,0,108.2,0,162.2c0,9.2-0.6,18.3-2.9,27.2c-4.1,15.5-13.4,25.6-30.3,28.6c-10.9,2-21.7,1.9-32.5-0.3
	c-14.1-2.9-23.7-11.1-28.1-25c-2.6-8.1-3.8-16.4-3.8-24.8c-0.1-61-0.1-122-0.1-183c0-54.3,0-108.7,0.1-163c0-10,1.5-19.9,5.8-29.2
	c4.6-10,12.4-16.2,23-19c12.3-3.3,24.8-3.3,37.1-0.8c14.2,2.9,23.5,11.4,27.9,25.3c2.5,7.8,3.7,15.8,3.7,23.9
	c0.1,51.7,0.1,103.3,0.1,155c0,3.3-1,4.3-4.3,4.3c-12.1,0-24.2,0-36.2,0c-3.2,0-4-0.9-4.2-4c0-1,0-2,0-3c0-52.1,0-104.2,0-156.2
	c0-2-0.2-4-0.4-6c-0.2-1.8-1.3-2.8-3.1-2.9c-2-0.1-3.8,0.4-4.2,2.6c-0.4,1.9-0.6,3.8-0.6,5.7C391.6,146.4,391.6,205.6,391.6,264.8z"
	/>
<path class="st0" d="M714.3,371.2c0,23.9,0,47.8,0,71.7c0,1.5,0.1,3,0.3,4.5c0.4,2.3,1.8,3.4,4.2,3.3c2.5,0,3.3-1.5,3.6-3.6
	c0.2-1.3,0.2-2.7,0.2-4c0-42.1,0-84.2,0-126.2c0-6.8-0.5-13.6-3-20.1c-3.2-8.3-9.8-13.4-16.9-18c-5.5-3.6-11-7.2-16.2-11.2
	c-9.4-7.1-14.6-16.7-15.8-28.3c-0.6-5.3-1-10.6-1-15.9c0-45.4-0.1-90.8,0.1-136.2c0-9.3,2-18.3,6.7-26.6c5.7-10.2,14.8-15.8,26-18.1
	c10.7-2.2,21.5-2.3,32.3,0c15.3,3.2,25.3,12.4,29.7,27.4c2.2,7.5,3,15.2,3,22.9c0,44.4,0,88.8,0,133.2c0,3.8-0.8,4.7-4.7,4.7
	c-11.6,0-23.2,0-34.7,0c-4.7,0-5.3-0.6-5.3-5.4c0-45.7,0-91.5,0-137.2c0-2.2-0.2-4.3-0.4-6.5c-0.2-1.7-1.3-2.6-3.1-2.7
	c-1.9-0.1-3.6,0.2-4.2,2.3c-0.3,1.3-0.6,2.6-0.6,3.9c0,42.2,0,84.3,0,126.5c0,12.1,4.9,21.5,14.7,28.5c6.9,4.9,13.9,9.8,20.6,14.9
	c10.6,7.9,16,18.8,16.7,31.8c0.6,10.2,0.9,20.5,1,30.7c0.1,39.2,0,78.5,0.1,117.7c0,9.3-0.7,18.5-3.9,27.3
	c-4.9,13.8-14.8,22-29.1,24.8c-11.9,2.4-23.9,2.3-35.6-1c-13.5-3.8-22-12.7-26.2-26.1c-2.4-7.8-3.1-15.8-3.1-23.9
	c0-46.2,0-92.5,0-138.7c0-4.2,0.8-5,4.9-5c11.6,0,23.2,0,34.7,0c4.3,0,5,0.7,5,5.2C714.3,322.2,714.3,346.7,714.3,371.2z"/>
<path class="st0" d="M566.9,264.9c1.3-26.6,2.6-53.3,3.8-79.9c1.1-24.5,2.2-48.9,3.3-73.4c1-21.5,2-42.9,3-64.4
	c0.1-2.8,1.3-3.9,4.1-3.9c20.2,0,40.3,0,60.5,0c2.9,0,4.3,1.6,4.4,4.8c0.4,11.2,0.9,22.3,1.3,33.5c1.2,29.9,2.5,59.8,3.7,89.7
	c1.5,35.4,3.1,70.8,4.6,106.1c0.8,18.6,1.5,37.3,2.3,55.9c1.1,27.2,2.3,54.4,3.5,81.7c0.9,22.5,1.8,45,2.7,67.4
	c0.1,2.9-0.7,3.8-3.6,3.8c-13.5,0-27,0-40.5,0c-2.8,0-3.7-1-3.7-4.1c-0.1-11.4-0.2-22.8-0.3-34.2c-0.2-20.2-0.4-40.3-0.4-60.5
	c0-2.5-0.8-3.1-3.1-3c-5.8,0.1-5.8,0-5.8,5.8c-0.1,29.4-0.3,58.8-0.4,88.2c0,1.2,0,2.3-0.1,3.5c-0.2,3.2-1.3,4.4-4.5,4.4
	c-13.5,0-27,0-40.5,0c-3.4,0-4.3-0.9-4.2-4.4c0.9-20.4,1.9-40.8,2.8-61.2c0.8-17,1.5-34,2.3-50.9c1.2-25.9,2.4-51.8,3.6-77.6
	C566.2,283.1,566.6,274,566.9,264.9C567,264.9,566.9,264.9,566.9,264.9z M607.9,227.4c-0.2,0-0.3,0-0.5,0c0,38.3,0,76.7,0,115
	c0,5.2-0.9,4.6,4.9,4.7c1.9,0,2.8-0.6,2.6-2.6c-0.1-0.7,0-1.3,0-2c-0.3-77.2-0.7-154.5-2.5-231.7c0-0.7,0.1-1.4-0.1-2
	c-0.2-0.4-0.8-0.9-1.2-0.9c-0.5,0-1.3,0.4-1.5,0.8c-0.3,0.6-0.2,1.5-0.2,2.2C608.9,149.7,608.4,188.5,607.9,227.4z"/>
<path class="st0" d="M25.2,264.7c0-71.6,0-143.1,0-214.7c0-0.9,0-1.8,0-2.7c0.1-3,1-3.9,3.9-3.9c4.6,0,9.2,0,13.7,0
	c9.7,0,19.3-0.1,29,0.1c8.4,0.2,16.5,1.4,24.3,4.7c11.1,4.8,18.1,13.2,21.9,24.5c3.5,10.3,4.2,21,4.2,31.8c0,55,0,110,0,165
	c0,9.4-0.6,18.6-3.2,27.7c-4.5,15.8-14,26.9-30.3,31c-5.1,1.3-10.5,1.7-15.7,2.3c-3.7,0.4-3.7,0.3-3.7,3.9c0,31.5,0,63,0,94.5
	c0,17.2,0,34.3,0,51.5c0,1,0,2-0.1,3c-0.3,1.9-1.3,3-3.4,3c-12.4,0-24.8,0-37.2,0c-2.2,0-3.4-1.2-3.4-3.4c0-1,0-2,0-3
	C25.2,408.1,25.2,336.4,25.2,264.7z M69.4,186.9c0,33.9,0,67.8,0,101.7c0,0.8-0.1,1.7,0.1,2.5c0.1,0.5,0.7,1.2,1.2,1.3
	c3.8,0.9,6.8-1.4,7-5.3c0-0.8,0-1.7,0-2.5c0-62.7,0-125.5-0.1-188.2c0-2.9,0.1-5.8,0-8.7c-0.1-1.3-0.4-2.6-1-3.8
	c-0.8-1.6-4.9-3.3-6.1-2.3c-0.9,0.7-1.1,2.6-1.1,3.9C69.4,119.3,69.4,153.1,69.4,186.9z"/>
<path class="st0" d="M777.1,264.8c0-71.6,0-143.2,0-214.7c0-1.1,0-2.2,0-3.2c0-2.4,1.3-3.5,3.6-3.5c18.3,0,36.7,0,55,0
	c2.7,0,3.7,1,3.7,3.9c0,13,0,26,0,39c0,3-0.8,3.8-3.9,3.9c-3.9,0.1-7.8,0.1-11.7,0c-1.8,0-2.6,0.7-2.5,2.5c0,0.5,0,1,0,1.5
	c0,47.8,0,95.7,0,143.5c0,3.7,0,3.7,3.7,3.7c3.4,0,6.8,0,10.2,0c3.4,0.1,4.3,1,4.3,4.4c0,9.6,0,19.2,0,28.7c0,3.5-0.7,4.2-4.3,4.2
	c-3.8,0-7.7,0.1-11.5,0c-1.9-0.1-2.6,0.7-2.4,2.5c0.1,0.7,0,1.3,0,2c0,50.7,0,101.3,0,152c0,4.4,0,4.4,4.6,4.4c3.3,0,6.7-0.1,10,0
	c2.8,0.1,3.6,0.9,3.6,3.7c0,13.1,0,26.2,0,39.2c0,2.8-1,3.8-3.8,3.8c-18.2,0-36.5,0-54.7,0c-2.9,0-3.7-0.9-3.8-3.8c0-1,0-2,0-3
	C777.1,407.9,777.1,336.3,777.1,264.8z"/>
</svg>
