<?xml version="1.0" encoding="utf-8"?>
<!-- Generator: Adobe Illustrator 24.0.1, SVG Export Plug-In . SVG Version: 6.00 Build 0)  -->
<svg version="1.1" id="Calque_1" xmlns="http://www.w3.org/2000/svg" xmlns:xlink="http://www.w3.org/1999/xlink" x="0px" y="0px"
	 viewBox="0 0 800 187.1" style="enable-background:new 0 0 800 187.1;" xml:space="preserve">
<style type="text/css">
	.st0{fill:#FFFFFF;}
</style>
<path class="st0" d="M738.7,114.3V58.8h4.8c3.9-5.4,5.8-11.1,5.8-17.2c0-3.4-0.4-6.3-1.3-8.8c-0.9-2.5-2.4-5.4-4.5-8.8H597.9h-3.2
	H476.3H428h-3.7h-5.6h-33.9h-41.9h-14.8c-3.4,2.5-5.3,5.6-5.7,9.1c6.1,7,9.1,15.6,9.1,25.8c0,2.9-0.4,5.2-1.1,6.9
	c-0.8,1.7-1.6,2.5-2.6,2.5c-1,0-1.7-0.2-2.2-0.6c0.6-1.8,1-4.4,1-7.7c0-11.8-4.1-21.2-12.4-28.3c-8.3-7.1-19.6-10.7-34-10.7
	c-11.4,0-21.4,3-30.1,9.1c-6.5,4.6-11.8,10.7-16.1,18.2c0.6-2.2,0.9-4.5,0.9-6.9c0-3.5-0.5-6.5-1.4-9.1c-1-2.5-2.4-5.4-4.5-8.5h-173
	c-2,3.1-3.5,5.9-4.5,8.5c-1,2.5-1.4,5.6-1.4,9.1c0,6,2,11.7,5.9,17.2h10.8c2.7-3.2,6.6-6,11.5-8.4c4.9-2.4,10.7-3.6,17.2-3.6
	c9.9,0,18.6,2.4,25.9,7.2c2.9,1.9,5.2,3.9,7,6.1c1.7,2.1,2.6,3.9,2.6,5.4c0,1.5-0.7,2.3-2.1,2.6c-7.8-11.3-18.9-17-33.4-17
	c-9,0-16.7,2.9-23.2,8.7c-6.5,5.8-9.8,13.2-9.8,22.3c0,5,1.3,9.5,3.8,13.4c2.5,3.9,5.4,6.6,8.8,8l24.8-11.6c0-1.5,0.4-2.6,1.3-3.4
	c0.9-0.8,1.9-1.2,3.2-1.2c1.3,0,2.3,0.4,3.1,1c0.8,0.7,1.2,1.5,1.2,2.3c0,0.8-0.1,1.7-0.2,2.6l-41.5,19.5c-0.3,1.6-0.4,3.8-0.4,6.6
	c0,7.8,2.4,14,7.1,18.6c4.1,4,9.1,6,15,6c5.9,0,10.9-1.2,15-3.6c4.1-2.4,8.1-6,12-10.9l14.1-17.4c1.5,0.5,2.3,1.4,2.3,2.7
	c0,1.3-0.5,2.6-1.4,4.1c-0.8,1.2-4.6,6.3-11.4,15.2c1.5,5.9,4.7,10.4,9.5,13.4c4.8,3,10.1,4.6,15.9,4.6c5.8,0,10.9-1.3,15.2-4
	c4.3-2.7,7.3-6.3,9.1-10.8c-1.4-2.3-2.4-4.8-3.1-7.5c-0.7-2.7-1-6-1-9.9c0-3.9,0.2-7.7,0.5-11.3c2.5,0.8,4.9,1.2,7.1,1.2
	c6.7,0,11.7-1.6,15-4.9c0.9,0.5,1.3,1.2,1.3,2c0,1.8-1.4,3.4-4.3,4.9c-2.9,1.5-6.2,2.2-10.1,2.2c-1.7,0-3.1-0.2-4.3-0.5
	c-0.1,2.7-0.2,4.8-0.2,6.4c0,9.1,3,15.9,9,20.2c4.5,3.2,10.3,4.9,17.4,4.9c8.5,0,15.6-2.7,21.3-8c5.7-5.3,8.5-12.7,8.5-22
	c0-7.5-2.6-14.1-7.7-19.8c-4.6-5-9.7-8-15.3-9.2c0.3-1.8,1.5-2.8,3.8-2.8c2.3,0,4.9,1,7.9,3c2.4-2.4,3.5-5.7,3.5-10.2
	c0-6.3-2.2-11.5-6.6-15.5c-4.4-4.1-10.9-6.1-19.5-6.1c-6.2,0-11.5,1.9-15.9,5.7c-4.4,3.8-6.6,9-6.6,15.5c0,3,0.3,5.8,1,8.2
	c-0.5,0.3-1.1,0.4-1.9,0.4c-2.8,0-4.2-3.4-4.2-10.1c0-6.8,2.7-12.4,8.1-17c5.4-4.5,11.9-6.8,19.6-6.8c6.1,0,11.2,0.9,15.3,2.6
	c4.1,1.7,7.3,3.8,9.5,6.4h11.7c2.2-3.1,3.8-6.3,4.8-9.5c0.1,6.1,2.1,11.8,6,17c4.6,6.1,10.7,9.5,18.5,10.1
	c2.4-4.8,5.8-8.5,10.1-11.2c4.4-2.7,8.6-4,12.9-4c4.2,0,6.3,1.1,6.3,3.3c0,0.4-0.1,0.9-0.3,1.2c-0.8-0.2-2.3-0.3-4.5-0.3
	c-6,0-11.1,1.9-15.2,5.8c-4.1,3.9-6.2,9-6.2,15.5c0,6.4,2,11.6,5.9,15.6c3.9,3.9,9.3,5.9,16.3,5.9c1.8,0,3.4-0.2,4.9-0.6
	c0.2,0.6,0.3,1.1,0.3,1.6c0,2.2-1.9,3.2-5.8,3.2c-8,0-14.4-2.4-19.1-7.3c-4.7-4.9-7.1-11.3-7.2-19.3c-7.1,0.1-13,1.9-17.7,5.4
	c-5.8,4.4-8.7,10.6-8.7,18.8c0,12,5.2,22,15.7,29.9c9.8,7.5,21.2,11.2,34.2,11.2c14.7,0,26.5-3.4,35.2-10.2
	c8.7-6.8,13.1-15.8,13.1-26.8c0-6.4-1.8-11.6-5.3-15.6c0.4-1.1,1.2-1.6,2.4-1.6c1.8,0,3.6,1.5,5.2,4.5c1.8,3.6,2.8,7.9,2.8,13.1
	c0,7.4-1.9,14.2-5.8,20.5c1.7,5.6,4.8,9.8,9.6,12.5c4.7,2.8,10.2,4.1,16.5,4.1c6.3,0,11.6-1.7,16.2-5.1c4.5-3.4,7.3-8.2,8.5-14.2
	c-2-2.4-3.4-4.9-4.2-7.7c-0.8-2.8-1.2-6.2-1.2-10.4V58.8h5.1V114c0,4.8,0.7,8.7,2,11.5c0.7,1.5,1.9,3.1,3.6,4.9
	c-0.4,3.8-1.3,7.2-2.9,10.3c2.2,3.6,5.4,6.4,9.5,8.2c4.1,1.9,8.6,2.8,13.4,2.8c6.6,0,12.2-1.7,16.7-5.1c4.5-3.4,7.3-8.2,8.5-14.2
	c-2-2.4-3.4-4.9-4.2-7.7c-0.8-2.8-1.2-6.2-1.2-10.4V58.8h1h3.7h58.8c0.3,0.5,0.4,1.2,0.4,2.2c0,2-2.1,3-6.4,3c-4.3,0-8.2-0.3-11.9-1
	c-6.7,5-10,11.9-10,20.7c0,6.3,2,11.4,6.1,15.2c4.1,3.8,9.3,5.8,15.5,5.8c2.7,0,5.3-0.6,7.8-1.8c0.4,0.6,0.7,1.3,0.7,2.1
	c0,1.4-1,2.4-3.1,3c-2.1,0.6-4.1,1-6.1,1c-8.1,0-14.5-2.4-19.1-7.1c-4.6-4.8-6.9-10.6-6.9-17.6c-7.3,0-13.3,1.8-17.9,5.3
	c-5.5,4.3-8.3,10.5-8.3,18.8c0,12,5.1,22,15.4,30.1c10.3,8.1,23.1,12.1,38.6,12.1c10.6,0,20.2-1.9,28.8-5.8
	c8.6-3.9,14.3-8.2,17.3-13c-0.4-1-0.9-2.5-1.3-4.6s-0.6-4.1-0.6-5.8c0-7.8,2.2-14.1,6.6-19.1c3.8-4.2,8-6.3,12.7-6.3
	c4.6,0,7,1.6,7,4.7c0,1.3-0.5,2.3-1.6,3c-1,0.8-2.6,1.1-4.8,1.1c-2.1,0-4.1-0.8-5.8-2.4c-2.7,1.7-4.8,4.2-6.5,7.5
	c-1.7,3.4-2.5,7.2-2.5,11.4c0,7.6,2.5,13.5,7.6,17.7c5,4.3,11.8,6.5,20.3,6.5c10.2,0,18.9-3.5,25.9-10.5c7-7,10.5-16.3,10.5-27.7
	c0-12.8-4.2-23.1-12.6-30.7c-7.7-6.9-17-10.4-27.8-10.4c-10.9,0-20.1,3.6-27.7,10.8c-0.6-0.8-1.2-1.5-1.8-2c-0.5-0.5-0.9-0.8-1.1-1
	c4.7-4,7.1-9.1,7.1-15.2c0-5.1-1-8.8-3-11.2c0.6-1,1.4-1.5,2.5-1.5c1.5,0,2.8,1.2,3.9,3.7c1.1,2.4,1.6,5.5,1.6,9.1h58.4h3.2h7.3
	c6.8-6.5,15.8-9.7,27.1-9.7h11.2c3.4,0,5.1,1.1,5.1,3.4c0,0.4,0,0.7-0.1,0.9h-16.3c-8.7,0-16.1,2.5-22.2,7.4
	c-6.1,4.9-9.1,11.2-9.1,18.7c0,5,0.8,9.1,2.4,12.6c1.6,3.4,3.6,6.4,6,9c5.1-2.9,11.4-4.3,18.7-4.3c8.8,0,16.2,2.8,22,8.3
	c2.4,2.2,4.3,4.7,5.6,7.3c1.3,2.7,2,5.2,2,7.6c0,2.4-1,3.6-3.1,3.8c-0.7-6.3-3.5-11.6-8.5-16.1c-5-4.4-11.3-6.6-18.9-6.6
	c-7.6,0-13.9,2.2-18.7,6.7c-4.9,4.5-7.3,10.2-7.3,17.2c0,5.5,1.6,11.3,4.9,17.4c6.6,3.2,14.9,5.4,25,6.7c3.7,9.5,8.2,16.7,13.5,21.7
	c5.3,5,11.5,7.5,18.4,7.5c6.9,0,12.4-1.9,16.3-5.6c3.9-3.7,5.9-8.9,5.9-15.3c0-3.2-0.5-6.5-1.4-9.9c-1.7,1.2-4.6,2.4-8.9,3.6
	c-4.3,1.2-7.8,1.8-10.5,1.8c-5,0-7.5-1.1-7.5-3.4c12.7-1.3,22.8-4.6,30.4-10.1c8.6-6.2,13.1-14.8,13.4-25.6c2.7,0.6,4.1,2.2,4.1,4.7
	c0,3.6-1,7.3-2.9,11.1c-1.9,3.8-4.1,6.9-6.7,9.4c2.1,4.2,5.4,7.4,9.8,9.6c4.4,2.2,9.2,3.3,14.2,3.3c6.6,0,12.2-1.7,16.7-5.1
	c4.5-3.4,7.3-8.2,8.5-14.2c-2-2.4-3.4-4.9-4.2-7.7C739.2,122,738.7,118.5,738.7,114.3z M698.9,70.8c0,4.4-0.4,7.9-1.2,10.5
	c-0.8,2.6-2.2,4.8-4.2,6.4c-8.9-6.3-18.9-9.4-29.9-9.4c-5.5,0-10.1,0.7-13.6,2.2c-0.1-0.6-0.2-1-0.2-1.2c0-1.7,1.3-3,4-3.9
	c2.6-0.9,6.2-1.3,10.6-1.3c10.4,0,19.6,2.5,27.6,7.4c1.3-2,1.9-6,1.9-12.2V51.5c3.4,0,5.1,2.6,5.1,7.7V70.8z"/>
</svg>
