<?xml version="1.0" encoding="utf-8"?>
<!-- Generator: Adobe Illustrator 24.0.1, SVG Export Plug-In . SVG Version: 6.00 Build 0)  -->
<svg version="1.1" id="Calque_1" xmlns="http://www.w3.org/2000/svg" xmlns:xlink="http://www.w3.org/1999/xlink" x="0px" y="0px"
	 viewBox="0 0 1495.2 378" style="enable-background:new 0 0 1495.2 378;" xml:space="preserve">
<style type="text/css">
	.st0{fill:#FFFFFF;}
	.st1{fill:#222526;}
</style>
<path class="st0" d="M805.8,1249.5c0,53.1,0,106.2,0,159.2c0,5-0.1,5.1-5,5.1c-19.2,0-38.3,0-57.5,0c-5.1,0-5.1,0-5.1-5
	c0-45.1,0-90.2,0-135.2c0-1.1-0.4-3.2-0.8-3.2c-2-0.3-4.1-0.1-6.2,0c-0.2,0-0.5,0.8-0.5,1.3c-0.1,0.8,0,1.7,0,2.5
	c0,44.6,0,89.2,0,133.7c0,0.9,0,1.8,0,2.7c0,2.1-1,3.2-3.2,3.2c-2.5-0.1-5,0-7.5,0c-17.3,0-34.7,0-52,0c-4.7,0-4.9-0.3-4.9-5
	c0-101.8,0-203.6,0-305.5c0-4.7,0-9.5,0-14.2c0-3.3,0.7-4,3.9-4c19.9,0,39.8,0,59.7,0c3.4,0,4,0.6,4,4.1c0,17.1,0,34.2,0,51.2
	c0,26.1,0,52.2,0,78.2c0,3.5,0,3.5,3.6,3.5c0.6,0,1.2,0,1.7,0c1.6,0.1,2.4-0.4,2.2-2.1c-0.1-0.7,0-1.5,0-2.2c0-42.7,0-85.3,0-128
	c0-4.7,0.1-4.8,4.8-4.8c19.5,0,39,0,58.5,0c3.9,0,4.3,0.4,4.3,4.3C805.8,1142.9,805.8,1196.2,805.8,1249.5z"/>
<path class="st0" d="M428.4,1273.4c0,1.3,0,2.4,0,3.6c0,43.8,0,87.7,0,131.5c0,1,0,2-0.1,3c-0.1,1.5-1,2.4-2.6,2.4c-0.5,0-1,0-1.5,0
	c-19.7,0-39.5,0-59.2,0c-3.7,0-4.2-0.5-4.2-4.2c0-106.7,0-213.5,0-320.2c0-3.7,0.5-4.2,4.1-4.2c24,0,48,0,72,0
	c11.7,0,23.3,0.8,34.5,4.4c10.3,3.3,19,8.9,24.5,18.6c4.2,7.5,6.5,15.6,6.8,24.1c0.5,16.9,0.7,33.8,0.7,50.7c0,10,0.2,20-0.8,29.9
	c-1.5,14.3-7.8,25.9-21.9,31.8c-0.8,0.4-1.7,0.8-2.6,0.9c-1.8,0.3-1.8,1.5-1.8,3c0,1.6,1.1,1.6,2.2,1.7c14.4,2.3,23,11.4,24.3,25.9
	c0.4,4.6,0.7,9.1,0.7,13.7c0.1,29.5,0,59,0.1,88.5c0,10.7,1.1,21.3,3.9,31.7c0.8,2.9,0.2,3.7-2.8,3.7c-8.8,0-17.7,0-26.5,0
	c-11.7,0-23.5,0-35.2,0c-4.2,0-4.8-0.4-5.3-4.5c-0.7-5.8-1.6-11.6-1.6-17.4c-0.2-36.7-0.1-73.5-0.1-110.2c0-1.1,0-2.2-0.1-3.2
	C435.3,1273.7,433.8,1272.6,428.4,1273.4z M428.4,1179.8c0,2.9,0,5.8,0,8.7c0,12,0,24,0,36c0,0.8,0.2,2,0.8,2.3
	c2.1,1.2,5.5-0.4,6.1-2.7c0.3-1.2,0.5-2.5,0.5-3.7c0-27.1,0-54.3,0-81.4c0-1.1-0.2-2.3-0.5-3.4c-0.7-2.2-2.8-3.2-5.5-2.8
	c-2.5,0.4-1.4,2.4-1.4,3.6C428.4,1150.8,428.4,1165.3,428.4,1179.8z"/>
<path class="st0" d="M208.2,1228c0-45.7,0-91.5,0-137.2c0-1,0-2,0.1-3c0.2-1.5,1-2.4,2.6-2.5c0.7,0,1.5,0,2.2,0
	c19.2,0,38.3,0,57.5,0c5,0,5.2,0.2,5.2,5.2c0,89.9,0,179.8,0,269.7c0,1.5,0,3,0.2,4.5c0.2,2,1.3,3.1,3.5,3.2
	c2.1,0.1,3.4-0.9,3.7-2.9c0.2-1.5,0.2-3,0.2-4.5c0-89.6,0-179.2,0-268.7c0-0.8,0-1.7,0-2.5c0-3.5,0.4-3.9,3.9-3.9
	c16.7,0,33.5,0,50.2,0c3.3,0,6.7,0,10,0c2.7,0,3.4,0.7,3.4,3.4c0,0.5,0,1,0,1.5c0,87.7,0,175.5,0,263.2c0,9.5-0.5,19-2.9,28.2
	c-3.9,15.1-13.2,25-27.9,30.1c-13.7,4.7-27.9,5.4-42.2,5.4c-11.4,0-22.8-0.8-33.9-3.9c-11.6-3.3-21.6-8.8-27.9-19.6
	c-4.7-8-6.7-16.8-7.4-26c-0.4-5.5-0.6-11-0.6-16.5C208.2,1310.1,208.2,1269,208.2,1228z"/>
<path class="st0" d="M1110.3,1313.8c0,17.7,0.3,35.3-0.1,53c-0.3,14.4-5.1,27.1-16.8,36.4c-7.9,6.2-17.1,9.6-26.8,11.5
	c-17.9,3.4-36,3.5-53.9,0.6c-12-1.9-23.2-5.9-32.4-14.3c-8.2-7.5-12.3-17.1-13.7-27.9c-0.6-4.7-0.7-9.5-0.7-14.2
	c-0.1-27.4,0-54.8,0-82.2c0-4.1,0.3-4.4,4.4-4.4c19.9,0,39.8,0,59.7,0c4,0,4.4,0.4,4.4,4.4c0,28.2,0,56.3,0,84.5c0,1.3,0,2.7,0.2,4
	c0.2,2,1.3,3.2,3.4,3.3c2.1,0.1,3.3-1.1,3.6-3c0.2-1,0.3-2,0.3-3c0-28.4,0-56.8,0-85.2c0-9.2-1.9-11.1-11.2-11.1
	c-9.7,0-19.5-0.1-29.2-0.1c-6.2-0.1-12.3-1.1-18.1-3.4c-10.2-4.1-15.4-12.1-16.9-22.6c-0.5-3.6-0.7-7.3-0.7-11
	c-0.1-30.6,0-61.2,0-91.7c0-8.1,0.9-16.1,4-23.7c4.8-11.9,13.7-19.6,25.4-24.4c11.6-4.8,23.9-6.4,36.4-6.7c12.9-0.4,25.7,0,38.2,3.1
	c13.8,3.4,26,9.4,33.7,22.2c4.5,7.4,6.7,15.7,6.8,24.3c0.2,29.7,0.1,59.5,0.1,89.2c0,2.7-0.6,3.3-3.5,3.3c-20.4,0-40.8,0-61.2,0
	c-3.2,0-3.7-0.5-3.7-3.9c0-27.2,0-54.5,0-81.7c0-1.4-0.1-2.8-0.4-4.2c-0.4-2-1.8-2.7-3.7-2.6c-1.8,0.1-2.9,1.1-3.2,2.9
	c-0.2,1.2-0.2,2.5-0.2,3.7c0,27.1,0,54.2,0,81.2c0,8.7,1.2,10,10,10.1c9.4,0.1,18.8-0.2,28.2,0.1c6.4,0.2,12.9,0.6,19.1,2
	c11,2.5,16.5,9.2,17.8,20.4c0.6,5,0.8,10,0.9,14.9C1110.4,1282.8,1110.3,1298.3,1110.3,1313.8L1110.3,1313.8z"/>
<path class="st0" d="M579.3,1249.8c0,37,0,74,0,111c0,1.2,0,2.5,0.2,3.7c0.3,2.1,1.4,3.3,3.7,3.3s3.4-1.2,3.5-3.3
	c0.1-1.3,0.2-2.7,0.2-4c0-35.4,0-70.8,0-106.2c0-0.9,0-1.8,0-2.7c0-1.8,0.9-2.8,2.8-2.8c0.3,0,0.7,0,1,0c20,0,40,0,60,0
	c3.3,0,3.8,0.5,3.8,3.8c0,36,0,72-0.2,108c0,8.6-1.2,17.1-4,25.3c-4.4,13.1-13.6,21.4-26.4,25.9c-13.7,4.8-27.9,5.5-42.2,5.4
	c-11.5,0-23-0.8-34.1-3.9c-10.4-2.9-19.7-7.7-26.1-16.9c-4.6-6.6-7.3-14.1-8.3-22c-0.9-7-1.4-14.1-1.5-21.2c-0.1-69-0.1-138-0.1-207
	c0-9.8,0.5-19.5,3.1-29c4.4-15.8,14.7-25.6,30.2-30.4c12.6-3.9,25.5-4.7,38.5-4.7c11,0,22,0.6,32.7,3.2c12.3,3,23.3,8.2,30.1,19.6
	c3.8,6.3,6,13.2,6.7,20.5c0.8,7.8,1.3,15.6,1.3,23.4c0.1,29.5,0.1,59,0.1,88.5c0,4.4-0.4,4.8-4.9,4.8c-19.4,0-38.8,0-58.2,0
	c-4.1,0-4.5-0.4-4.5-4.6c0-32.8,0-65.7,0-98.5c0-1.6-0.1-3.2-0.3-4.7c-0.2-2-1.4-2.9-3.4-2.9c-1.9,0-3.3,0.8-3.5,2.8
	c-0.2,1.6-0.3,3.1-0.3,4.7C579.3,1175.8,579.3,1212.8,579.3,1249.8z"/>
<path class="st0" d="M887.8,1085.3c16.6,0,33.2,0,49.7,0c3.6,0,4.3,0.6,4.5,4.1c1.1,15.3,2.1,30.6,3.1,45.9
	c1.6,23.9,3.3,47.7,4.9,71.6c1.1,16,2.1,31.9,3.2,47.9c1.1,16.2,2.3,32.4,3.4,48.6c1.1,15.5,2.1,30.9,3.2,46.4
	c1.3,19.9,2.7,39.9,4,59.8c0.3,4.1,0,4.4-4.2,4.4c-20.8,0-41.7,0-62.5,0c-4.2,0-4.6-0.4-4.6-4.5c-0.1-20-0.2-40-0.3-60
	c0-2.4-0.7-3.1-3.1-3.1c-5.9,0.1-6,0-6.1,5.9c-0.3,19.1-0.6,38.2-0.8,57.2c-0.1,4.3-0.3,4.5-4.6,4.5c-21,0-42,0-63,0
	c-4.1,0-4.4-0.4-4.1-4.5c1.1-15,2.1-29.9,3.2-44.9c1.4-19.4,2.8-38.9,4.1-58.3c1.1-15.5,2.2-31.1,3.3-46.6c1.6-22.5,3.2-45,4.8-67.5
	c1.1-15.3,2.1-30.6,3.2-45.9c1.1-15.6,2.3-31.2,3.4-46.9c0.2-3.4,0.4-6.8,0.7-10.2c0.3-3.4,0.9-3.8,4.2-3.8
	C854.3,1085.3,871.1,1085.3,887.8,1085.3z M890.8,1227.2c-0.1,0-0.1,0-0.2,0c-0.6-23.5-1.2-47-1.8-70.4c0-1,0.6-2.6-1.4-2.5
	c-1.9,0-1.4,1.5-1.5,2.6c-0.1,0.7-0.1,1.5-0.1,2.2c-0.7,45.2-1.5,90.4-2.1,135.7c-0.1,5.7-0.8,4.9,5,5.1c2.2,0.1,3-0.5,3-2.9
	C891.3,1273.7,891.1,1250.5,890.8,1227.2z"/>
<path class="st0" d="M58.5,1249.7c0-53.1,0-106.2,0-159.2c0-0.9-0.3-2,0.1-2.7c0.6-1,1.7-1.7,2.6-2.4c0.3-0.2,0.8,0,1.2,0
	c22.7,0,45.3,0,68,0c11,0,22,0.9,32.7,3.9c19.7,5.4,32.1,17.8,35.9,38c1.4,7.6,2.1,15.5,2.2,23.3c0.2,31.2,0.1,62.3,0.1,93.5
	c0,11-1,21.8-4.9,32.2c-5,13.6-14.5,22.6-27.9,27.7c-12.3,4.7-25.3,5.7-38.3,5.9c-4.2,0-3.9-0.6-3.9,4.1c0,31.5,0,63,0,94.5
	c0,0.8,0,1.7,0,2.5c0,2.1-1,3.2-3.3,3.1c-4.3-0.1-8.7,0-13,0c-15.7,0-31.3,0-47,0c-3.9,0-4.4-0.5-4.4-4.5
	C58.5,1356.2,58.5,1302.9,58.5,1249.7z M133.8,1198.7c0-19.2,0-38.5,0-57.7c0-1.2-0.1-2.5-0.5-3.7c-0.6-1.8-4.3-3.5-5.9-2.6
	c-0.8,0.5-1.1,2.3-1.1,3.6c-0.1,40.1,0,80.1,0,120.2c0,0.6,0,1.2,0,1.7c-0.1,1.4,0.6,1.8,2,1.9c4.2,0,5.6-1.3,5.6-5.7
	C133.8,1237.2,133.8,1218,133.8,1198.7z"/>
<path class="st0" d="M1118.5,1249.5c0-52.8,0-105.6,0-158.5c0-0.9,0-1.8,0-2.7c0.1-2,1-3.1,3.1-3c0.4,0,0.8,0,1.2,0
	c30.9,0,61.8,0,92.7,0c3.8,0,4.4,0.5,4.4,4.3c0,15.9,0,31.8,0,47.7c0,3.8-0.6,4.4-4.3,4.4c-8.9,0-17.8,0-26.7,0
	c-2,0-2.8,0.4-2.8,2.6c0.1,25.5,0.1,51,0,76.5c0,1.9,0.5,2.6,2.5,2.6c9.1-0.1,18.2,0,27.2,0c3.5,0,4,0.6,4,4.1c0,13,0,26,0,39
	c0,3.4-0.5,3.9-3.9,3.9c-9.1,0-18.2,0.1-27.2,0c-2.1,0-2.7,0.7-2.7,2.7c0.1,27.3,0.1,54.7,0,82c0,2,0.6,2.7,2.7,2.7c9-0.1,18,0,27,0
	c3.6,0,4.2,0.6,4.2,4.3c0,15.8,0,31.7,0,47.5c0,4.2-0.4,4.6-4.5,4.6c-30.7,0-61.5,0-92.2,0c-4.3,0-4.7-0.4-4.7-4.7
	C1118.5,1356,1118.5,1302.7,1118.5,1249.5z"/>
<circle class="st0" cx="1274.6" cy="1392.7" r="21.2"/>
<circle class="st0" cx="1274.6" cy="1211.3" r="21.2"/>
<path class="st1" d="M987.6,188.9c0,53.1,0,106.2,0,159.2c0,5-0.1,5.1-5,5.1c-19.2,0-38.3,0-57.5,0c-5.1,0-5.1,0-5.1-5
	c0-45.1,0-90.2,0-135.2c0-1.1-0.4-3.2-0.8-3.2c-2-0.3-4.1-0.1-6.2,0c-0.2,0-0.5,0.8-0.5,1.3c-0.1,0.8,0,1.7,0,2.5
	c0,44.6,0,89.2,0,133.7c0,0.9,0,1.8,0,2.7c0,2.1-1,3.2-3.2,3.2c-2.5-0.1-5,0-7.5,0c-17.3,0-34.7,0-52,0c-4.7,0-4.9-0.3-4.9-5
	c0-101.8,0-203.6,0-305.5c0-4.7,0-9.5,0-14.2c0-3.3,0.7-4,3.9-4c19.9,0,39.8,0,59.7,0c3.4,0,4,0.6,4,4.1c0,17.1,0,34.2,0,51.2
	c0,26.1,0,52.2,0,78.2c0,3.5,0,3.5,3.6,3.5c0.6,0,1.2,0,1.7,0c1.6,0.1,2.4-0.4,2.2-2.1c-0.1-0.7,0-1.5,0-2.2c0-42.7,0-85.3,0-128
	c0-4.7,0.1-4.8,4.8-4.8c19.5,0,39,0,58.5,0c3.9,0,4.3,0.4,4.3,4.3C987.6,82.2,987.6,135.6,987.6,188.9z"/>
<path class="st1" d="M1292.1,253.1c0,17.7,0.3,35.3-0.1,53c-0.3,14.4-5.1,27.1-16.8,36.4c-7.9,6.2-17.1,9.6-26.8,11.5
	c-17.9,3.4-36,3.5-53.9,0.6c-12-1.9-23.2-5.9-32.4-14.3c-8.2-7.5-12.3-17.1-13.7-27.9c-0.6-4.7-0.7-9.5-0.7-14.2
	c-0.1-27.4,0-54.8,0-82.2c0-4.1,0.3-4.4,4.4-4.4c19.9,0,39.8,0,59.7,0c4,0,4.4,0.4,4.4,4.4c0,28.2,0,56.3,0,84.5c0,1.3,0,2.7,0.2,4
	c0.2,2,1.3,3.2,3.4,3.3c2.1,0.1,3.3-1.1,3.6-3c0.2-1,0.3-2,0.3-3c0-28.4,0-56.8,0-85.2c0-9.2-1.9-11.1-11.2-11.1
	c-9.7,0-19.5-0.1-29.2-0.1c-6.2-0.1-12.3-1.1-18.1-3.4c-10.2-4.1-15.4-12.1-16.9-22.6c-0.5-3.6-0.7-7.3-0.7-11
	c-0.1-30.6,0-61.2,0-91.7c0-8.1,0.9-16.1,4-23.7c4.8-11.9,13.7-19.6,25.4-24.4c11.6-4.8,23.9-6.4,36.4-6.7c12.9-0.4,25.7,0,38.2,3.1
	c13.8,3.4,26,9.4,33.7,22.2c4.5,7.4,6.7,15.7,6.8,24.3c0.2,29.7,0.1,59.5,0.1,89.2c0,2.7-0.6,3.3-3.5,3.3c-20.4,0-40.8,0-61.2,0
	c-3.2,0-3.7-0.5-3.7-3.9c0-27.2,0-54.5,0-81.7c0-1.4-0.1-2.8-0.4-4.2c-0.4-2-1.8-2.7-3.7-2.6c-1.8,0.1-2.9,1.1-3.2,2.9
	c-0.2,1.2-0.2,2.5-0.2,3.7c0,27.1,0,54.2,0,81.2c0,8.7,1.2,10,10,10.1c9.4,0.1,18.8-0.2,28.2,0.1c6.4,0.2,12.9,0.6,19.1,2
	c11,2.5,16.5,9.2,17.8,20.4c0.6,5,0.8,10,0.9,14.9C1292.3,222.1,1292.2,237.6,1292.1,253.1C1292.2,253.1,1292.2,253.1,1292.1,253.1z
	"/>
<path class="st1" d="M1069.7,24.6c16.6,0,33.2,0,49.7,0c3.6,0,4.3,0.6,4.5,4.1c1.1,15.3,2.1,30.6,3.1,45.9
	c1.6,23.9,3.3,47.7,4.9,71.6c1.1,16,2.1,31.9,3.2,47.9c1.1,16.2,2.3,32.4,3.4,48.6c1.1,15.5,2.1,30.9,3.2,46.4
	c1.3,19.9,2.7,39.9,4,59.8c0.3,4.1,0,4.4-4.2,4.4c-20.8,0-41.7,0-62.5,0c-4.2,0-4.6-0.4-4.6-4.5c-0.1-20-0.2-40-0.3-60
	c0-2.4-0.7-3.1-3.1-3.1c-5.9,0.1-6,0-6.1,5.9c-0.3,19.1-0.6,38.2-0.8,57.2c-0.1,4.3-0.3,4.5-4.6,4.5c-21,0-42,0-63,0
	c-4.1,0-4.4-0.4-4.1-4.5c1.1-15,2.1-29.9,3.2-44.9c1.4-19.4,2.8-38.9,4.1-58.3c1.1-15.5,2.2-31.1,3.3-46.6c1.6-22.5,3.2-45,4.8-67.5
	c1.1-15.3,2.1-30.6,3.2-45.9c1.1-15.6,2.3-31.2,3.4-46.9c0.2-3.4,0.4-6.8,0.7-10.2s0.9-3.8,4.2-3.8
	C1036.2,24.6,1052.9,24.6,1069.7,24.6z M1072.7,166.6c-0.1,0-0.1,0-0.2,0c-0.6-23.5-1.2-47-1.8-70.4c0-1,0.6-2.6-1.4-2.5
	c-1.9,0-1.4,1.5-1.5,2.6c-0.1,0.7-0.1,1.5-0.1,2.2c-0.7,45.2-1.5,90.4-2.1,135.7c-0.1,5.7-0.8,4.9,5,5.1c2.2,0.1,3-0.5,3-2.9
	C1073.2,213.1,1073,189.8,1072.7,166.6z"/>
<path class="st1" d="M27.4,189c0-53.1,0-106.2,0-159.2c0-0.9-0.3-2,0.1-2.7c0.6-1,1.7-1.7,2.6-2.4c0.3-0.2,0.8,0,1.2,0
	c22.7,0,45.3,0,68,0c11,0,22,0.9,32.7,3.9c19.7,5.4,32.1,17.8,35.9,38c1.4,7.6,2.1,15.5,2.2,23.3c0.2,31.2,0.1,62.3,0.1,93.5
	c0,11-1,21.8-4.9,32.2c-5,13.6-14.5,22.6-27.9,27.7c-12.3,4.7-25.3,5.7-38.3,5.9c-4.2,0-3.9-0.6-3.9,4.1c0,31.5,0,63,0,94.5
	c0,0.8,0,1.7,0,2.5c0,2.1-1,3.2-3.3,3.1c-4.3-0.1-8.7,0-13,0c-15.7,0-31.3,0-47,0c-3.9,0-4.4-0.5-4.4-4.5
	C27.4,295.5,27.4,242.3,27.4,189z M102.7,138.1c0-19.2,0-38.5,0-57.7c0-1.2-0.1-2.5-0.5-3.7c-0.6-1.8-4.3-3.5-5.9-2.6
	c-0.8,0.5-1.1,2.3-1.1,3.6c-0.1,40.1,0,80.1,0,120.2c0,0.6,0,1.2,0,1.7c-0.1,1.4,0.6,1.8,2,1.9c4.2,0,5.6-1.3,5.6-5.7
	C102.7,176.6,102.7,157.3,102.7,138.1z"/>
<path class="st1" d="M1300.4,188.8c0-52.8,0-105.6,0-158.5c0-0.9,0-1.8,0-2.7c0.1-2,1-3.1,3.1-3c0.4,0,0.8,0,1.2,0
	c30.9,0,61.8,0,92.7,0c3.8,0,4.4,0.5,4.4,4.3c0,15.9,0,31.8,0,47.7c0,3.8-0.6,4.4-4.3,4.4c-8.9,0-17.8,0-26.7,0
	c-2,0-2.8,0.4-2.8,2.6c0.1,25.5,0.1,51,0,76.5c0,1.9,0.5,2.6,2.5,2.6c9.1-0.1,18.2,0,27.2,0c3.5,0,4,0.6,4,4.1c0,13,0,26,0,39
	c0,3.4-0.5,3.9-3.9,3.9c-9.1,0-18.2,0.1-27.2,0c-2.1,0-2.7,0.7-2.7,2.7c0.1,27.3,0.1,54.7,0,82c0,2,0.6,2.7,2.7,2.7c9-0.1,18,0,27,0
	c3.6,0,4.2,0.6,4.2,4.3c0,15.8,0,31.7,0,47.5c0,4.2-0.4,4.6-4.5,4.6c-30.7,0-61.5,0-92.2,0c-4.3,0-4.7-0.4-4.7-4.7
	C1300.4,295.3,1300.4,242.1,1300.4,188.8z"/>
<circle class="st0" cx="1456.5" cy="332" r="21.2"/>
<circle class="st1" cx="1456.5" cy="150.6" r="21.2"/>
<path class="st1" d="M768.7,190.8c0,0.6,0,1.2,0,1.8c0.4-1.3,0.7-2.7,1-4.1C769.1,189,768.8,189.8,768.7,190.8z"/>
<path class="st1" d="M715.8,207.3c0-27.6-7.7-53.9-22.2-77.2c0,32.5,0,65.1,0,97.6c7.1,0.6,14.5,0.9,22.2,1V207.3z"/>
<path class="st1" d="M768.7,299.8c0,1.3,0,2.7-0.2,4c-0.2,2.1-1.3,3.3-3.5,3.3c-2.3,0-3.4-1.2-3.7-3.3c-0.2-1.2-0.2-2.5-0.2-3.7
	c0-24.9,0-49.7,0-74.6c-6,8.7-13.6,16.7-22.5,23.8c-13.1,10.4-28.6,18.3-45.1,23.2c0,6.7,0,13.3,0,20c0,7.1,0.6,14.1,1.5,21.2
	c0.8,6.4,2.7,12.4,5.8,18c27,7.8,52.5,12,74.9,12h3.5v12.2h-3.5c-11,0-21.7-0.2-32.2-0.5c6.6,0.8,13.3,1.1,20,1.1
	c14.3,0,28.5-0.7,42.2-5.4c12.9-4.5,22-12.8,26.4-25.9c2.8-8.2,3.9-16.7,4-25.3c0.2-36,0.1-72,0.2-108c0-3.2-0.6-3.8-3.8-3.8
	c-18.5,0-37,0-55.5,0c-1.7,8.6-4.5,16.9-8.3,24.7C768.7,241.8,768.7,270.8,768.7,299.8z"/>
<path class="st1" d="M761.2,116.5c0-12.8,0-25.6,0-38.4c0-1.6,0.1-3.2,0.3-4.7c0.3-2,1.6-2.8,3.5-2.8c2,0,3.2,1,3.4,2.9
	c0.2,1.6,0.3,3.2,0.3,4.7c0,16.7,0,33.5,0,50.2c6.7,12.6,10.2,26,10.2,40.3c0,4.2-0.3,8.4-0.8,12.6c17.8,0,35.6,0,53.4,0
	c4.5,0,4.9-0.4,4.9-4.8c0-29.5,0.1-59-0.1-88.5c0-7.8-0.5-15.6-1.3-23.4c-0.7-7.3-2.9-14.2-6.7-20.5c-6.8-11.4-17.8-16.6-30.1-19.6
	c-10.8-2.6-21.7-3.2-32.7-3.2c-13,0-26,0.8-38.5,4.7c-15.5,4.8-25.8,14.7-30.2,30.4c-0.9,3.1-1.5,6.2-1.9,9.4
	C724.3,79.9,746.9,96.9,761.2,116.5z"/>
<path class="st1" d="M768.7,128.6c-2.2-4.1-4.7-8.1-7.5-12.1c0,4.3,0,8.6,0,13c3.3,5.7,5.8,11.6,7.5,17.7
	C768.7,141,768.7,134.8,768.7,128.6z"/>
<path class="st1" d="M715.9,347c-80-4.8-145.2-19.6-190.8-43.4c-61.8-32.3-71-71.3-71-91.6c0-24.2,12.1-47.2,34-64.8
	c22.1-17.7,51.9-27.7,84.2-28.4c0.6,34.9,10.2,61.3,29.4,80.6c20.1,20.2,50.9,32.1,92,35.5c0-2.4,0-4.7,0-7.1
	c-39-3.3-68.2-14.5-86.9-33.4c-18.4-18.5-27.3-44.4-27.3-79.2v-3.5H576c-35.3,0-68.1,10.6-92.2,29.9c-23.3,18.6-36.6,44.3-36.6,70.3
	c0,21.9,9.7,63.8,74.8,97.9c27.4,14.3,61.6,25.5,101.6,33.2c35.6,6.9,75.9,11,120.2,12.3c-4.7-0.6-9.5-1.5-14.1-2.8
	C724.6,351.1,720,349.4,715.9,347z"/>
<path class="st1" d="M446.4,308.7c0-17.8-0.8-46.3-1.6-73.9c-0.8-27-1.6-55-1.6-71.9c0-23.9,5.9-37.7,35.8-37.7h3.5v-13.6H356.9
	v13.6h3.5c29.7,0,35.3,13.6,35.3,38.6v137.5c0,16.5-3.8,27.1-11.8,33.1c-7.2,5.4-18.5,7.8-36.5,7.8H311v13.6h186.3v-13.6h-22.1
	C466.6,342.2,446.4,339,446.4,308.7z M361.8,348.7c25.7-2.5,41.1-13.3,41.1-47.4V163.8c0-20-2.7-41.3-32.3-45.1h98.2
	c-28.5,3.6-32.7,23.2-32.7,44.1c0,17.1,0.8,45.1,1.6,72.1c0.8,27.6,1.6,56.1,1.6,73.7c0,22.2,10.8,36.9,28.7,40H361.8V348.7z"/>
<path class="st1" d="M773.2,181.5c-1,0-1.7,0-2.3-0.1c-0.3,2.4-0.7,4.8-1.3,7.2c0.4-0.3,1-0.5,1.8-0.5c0.3,0,0.7,0,1,0
	c1.5,0,3,0,4.5,0c0.4-2.2,0.8-4.4,1-6.6C776.5,181.5,774.9,181.5,773.2,181.5z"/>
<path class="st1" d="M761.2,225.6c2.9-4.1,5.4-8.4,7.5-12.8c0-6.4,0-12.8,0-19.2c0-0.3,0-0.6,0-1c-1.8,6.7-4.3,13.2-7.6,19.3
	C761.2,216.5,761.2,221,761.2,225.6z"/>
<path class="st1" d="M653.6,271.4c-54.2,0-81.7-34-81.7-101.1v-3.6l-102.5,0.5v3.5c0,28.3,41.9,72.3,106.7,112.2
	c43.6,26.9,89.6,46.9,131.7,57.9c-1.6-1.6-3.1-3.3-4.5-5.3c-0.9-1.3-1.7-2.6-2.5-4c-39-11.2-80.9-30-121-54.7
	c-59.1-36.4-99.6-76.9-103.1-102.7l88.1-0.4c0.5,34.2,8.3,60.4,23.1,78c15,17.7,37,26.7,65.6,26.7c13.5,0,27.1-2.1,40.1-5.9
	c0-2.5,0-4.9,0-7.4C680.7,269.2,667.1,271.4,653.6,271.4z"/>
<path class="st1" d="M319.8,31.2h139.3c91.6,0,170,13.3,226.8,38.5c2.7,1.2,5.4,2.5,8,3.7c0.2-2.5,0.4-5,0.8-7.6
	C638.5,39.3,557,24,459,24H310.7v0.5c-1.4,0-2.9,0-4.3,0c-16.7,0-33.5,0-50.2,0c-3.5,0-3.9,0.4-3.9,3.9c0,0.8,0,1.7,0,2.5
	c0,89.6,0,179.2,0,268.7c0,1.5,0,3-0.2,4.5c-0.3,2-1.5,3-3.7,2.9c-2.1-0.1-3.2-1.1-3.5-3.2c-0.2-1.5-0.2-3-0.2-4.5
	c0-89.9,0-179.8,0-269.7c0-5-0.2-5.2-5.2-5.2c-19.2,0-38.3,0-57.5,0c-0.7,0-1.5,0-2.2,0c-1.6,0-2.5,0.9-2.6,2.5c-0.1,1-0.1,2-0.1,3
	c0,45.7,0,91.5,0,137.2c0,41.1,0,82.2,0,123.2c0,5.5,0.1,11,0.6,16.5c0.7,9.1,2.7,18,7.4,26c6.3,10.7,16.3,16.3,27.9,19.6
	c11.1,3.1,22.5,3.9,33.9,3.9c14.3,0,28.5-0.7,42.2-5.4c14.7-5,24-15,27.9-30.1c2.4-9.3,2.9-18.7,2.9-28.2c0-41.4,0-82.7,0-124.1
	c5.5-45.2,25.2-76.9,59.5-96.6c41.2-23.5,98.9-26.6,144.6-26.6c53.2,0,102.1,16.9,137.7,47.6c12.8,11,23.5,23.5,31.9,37
	c0-4.2,0-8.5,0-12.7c-7.7-10.7-16.8-20.6-27.3-29.6C629.4,56,578.8,38.5,523.9,38.5c-46.5,0-105.4,3.1-148.1,27.5
	c-27.5,15.7-46,38.5-56,69.2c-2.9,9-5.1,18.7-6.6,29.2l4.4-133.1L319.8,31.2L319.8,31.2z"/>
<path class="st1" d="M771.5,188.1c-0.8,0-1.4,0.2-1.8,0.5c-0.3,1.4-0.6,2.7-1,4.1c0,0.3,0,0.6,0,1c0,6.4,0,12.8,0,19.2
	c3.9-7.8,6.7-16.1,8.3-24.7c-1.5,0-3,0-4.5,0C772.2,188,771.8,188.1,771.5,188.1z"/>
<path class="st1" d="M719.3,235.9h3.5v-28.5c0-32.5-10.2-63.4-29.3-89.9c0,4.2,0,8.5,0,12.7c14.5,23.3,22.2,49.6,22.2,77.2v21.4
	c-7.7-0.1-15.1-0.4-22.2-1c0,2.4,0,4.7,0,7.1C701.8,235.5,710.3,235.9,719.3,235.9z"/>
<path class="st1" d="M761.2,129.5c0-4.3,0-8.6,0-13c-14.3-19.6-36.8-36.7-66.4-50.6c-0.4,2.5-0.6,5-0.8,7.6
	C726.3,89.1,748.9,108,761.2,129.5z"/>
<path class="st1" d="M779.3,355.8v-12.2h-3.5c-22.4,0-48-4.2-74.9-12c0.8,1.4,1.6,2.7,2.5,4c1.4,1.9,2.9,3.7,4.5,5.3
	c12.2,3.2,24.1,5.7,35.5,7.3c-9.3-0.3-18.5-0.7-27.4-1.3c4.2,2.4,8.8,4.2,13.6,5.6c4.7,1.3,9.4,2.2,14.1,2.8
	c10.5,0.3,21.3,0.5,32.2,0.5L779.3,355.8L779.3,355.8z"/>
<path class="st1" d="M768.7,128.6c0,6.2,0,12.4,0,18.6c2,7,3.1,14.3,3.1,21.7c0,4.2-0.3,8.4-0.8,12.5c0.6,0.1,1.3,0.1,2.3,0.1
	c1.6,0,3.2,0,4.8,0c0.5-4.1,0.8-8.3,0.8-12.6C778.9,154.6,775.4,141.2,768.7,128.6z"/>
<path class="st1" d="M734.3,243.8c-11.9,9.4-25.8,16.6-40.7,21.3c0,2.5,0,4.9,0,7.4c16.5-4.9,32-12.8,45.1-23.2
	c8.9-7,16.4-15,22.5-23.8c0-4.6,0-9.1,0-13.7C754.8,223.9,745.8,234.7,734.3,243.8z"/>
</svg>
