<svg id="Calque_1" data-name="Calque 1" xmlns="http://www.w3.org/2000/svg" viewBox="0 0 595.28 88.1"><defs><style>.cls-1{fill:#dddee0;}.cls-2{fill:none;stroke:#dddee0;stroke-miterlimit:10;}</style></defs><title>menu</title><path class="cls-1" d="M67.29,42h37.06V73.25H93.25l-.67-9.18c-5.51,6-14.27,10-26.7,10-21.54,0-34.72-10.68-34.72-30S44.34,14,68.38,14c23.36,0,35.05,9.09,36,23.61H89.07c-.83-4.42-4.84-11-20.69-11-19.53,0-22.2,10.76-22.2,17.77s2.75,18.11,22.2,18.11c14.52,0,20.36-6.34,20.69-10.77H67.29Z"/><path class="cls-1" d="M167.21,60.65h-35L126,73.09H109.47l30.12-58.42h20.28l30.21,58.42H173.47Zm-5.59-11.18-11.85-23.7-11.93,23.7Z"/><path class="cls-1" d="M255.81,60.48V73.09H195.73V14.67h15V60.48Z"/><path class="cls-1" d="M321.91,60.48V73.09H261.83V14.67h15V60.48Z"/><path class="cls-1" d="M343.22,26.61V38.46H390V49.3H343.22V61.15H390V73.09H328.2V14.67H390V26.61Z"/><path class="cls-1" d="M469.26,14.67h18.11l22.44,26.62,22.45-26.62h18.11l-33,39.22v19.2h-15V53.89Z"/><path class="cls-2" d="M442.09,40.36c0,12.84,5.55,18.72,15.25,18.72,10.52,0,21.79-7.21,21.79-19,0-15.17-23.12-25.28-56.6-25.28H396.6l-1,30.33h1.08c0-24.11,17.57-27.76,37.45-27.76,20.22,0,35,13.26,35,29.59v4.47c-20.71,0-25.68-9.94-25.68-21-29.77,0-40.45,42.42,35.79,42.42V72C457.09,72,425,50.47,425,40.44ZM419.63,65.13c0-6.29-.58-20-.58-26.1,0-4.31,1.08-7.37,7.05-7.37V30.5H404.88v1.16c6.05,0,7,3.14,7,7.54V63.81c0,6.54-3.23,8-9.28,8h-5.88v1.16h32.07V71.76h-3.32C421.54,71.76,419.63,68.94,419.63,65.13Z"/></svg>