<svg id="Calque_1" data-name="Calque 1" xmlns="http://www.w3.org/2000/svg" viewBox="0 0 595.28 88.1"><defs><style>.cls-1{fill:#dddee0;}.cls-2{fill:none;stroke:#dddee0;stroke-miterlimit:10;}</style></defs><title>menu</title><path class="cls-1" d="M133.47,72.87h-15V14.46h15Z"/><path class="cls-1" d="M112.33,14.65l-30,58.41H61.76l-30-58.41H48.57L72,62,95.47,14.65Z"/><path class="cls-1" d="M377.05,25.75V37.6h46.73V48.44H377.05V60.29h46.73V72.22H362V13.81h61.75V25.75Z"/><path class="cls-1" d="M356.22,14.65l-23,58.41H312.41l-17.19-44-17.28,44H257.25l-23-58.41h16.19l17.27,45.89L286,14.65H304.4l18.35,46,17.19-46Z"/><path class="cls-1" d="M486.28,55.7,497,73.06H479.35l-9.43-15.6h-24.2v15.6h-15V14.65h45.9c13.26,0,22.36,8.43,22.36,21.44C499,45.61,494.12,52.62,486.28,55.7ZM445.72,44.86h26.7c4.51,0,11.52,0,11.52-8.77s-7-8.84-11.52-8.84h-26.7Z"/><path class="cls-2" d="M180.42,43h25.37c7,0,9.51,2.33,9.51,8.93h1.09l-.09-25.79h-1c0,8-11.35,15.36-26.78,15.36V30.17c0-8.51,7.92-11.18,17.27-11.18,15.69,0,22.28,6.34,22.28,26h1.08l-1.08-30.37c-24.62,0-88.53,10.84-88.53,38.46,0,16.44,19.44,20,37.88,20,49.48,0-18.44-26.2-.5-26.2,15.69,0,46.89,25,24.11,25v1.17h47.41c-33.6-14.89-57.75-27.87-70.52-27.87-22.95,0,16,26.62-2.5,26.62-6,0-25.45-7.18-25.45-25.79,0-12.93,7.59-15.77,30.45-15.77Z"/></svg>