<svg id="Calque_1" data-name="Calque 1" xmlns="http://www.w3.org/2000/svg" viewBox="0 0 595.28 88.1"><defs><style>.cls-1{fill:#dddee0;}.cls-2{fill:none;stroke:#dddee0;stroke-miterlimit:10;}</style></defs><title>menu</title><path class="cls-1" d="M68.5,14c23.28,0,35,8.84,36.47,25.7H89.7c-1.42-9.43-8.68-13.1-21.2-13.1C53.23,26.61,46.81,32,46.81,44S53.32,61.49,68.5,61.49c12.44,0,19.78-3.76,21.2-13.27H105c-1.5,16.94-13.19,25.87-36.47,25.87C42.8,74.09,31.79,63.41,31.79,44S42.8,14,68.5,14Z"/><path class="cls-1" d="M282.18,14.84V73.25H261.74L221.93,29.44V73.25h-15V14.84h20.36l39.89,43.89V14.84Z"/><path class="cls-1" d="M403.12,60.82h-35L361.9,73.25H345.38L375.5,14.84h20.28L426,73.25H409.38Zm-5.59-11.18-11.85-23.7-11.93,23.7Z"/><path class="cls-1" d="M462.15,14c23.28,0,35,8.84,36.47,25.7H483.35c-1.42-9.43-8.68-13.1-21.2-13.1-15.27,0-21.69,5.42-21.69,17.35S447,61.49,462.15,61.49c12.44,0,19.78-3.76,21.2-13.27h15.27c-1.5,16.94-13.19,25.87-36.47,25.87-25.7,0-36.71-10.68-36.71-30.13S436.45,14,462.15,14Z"/><path class="cls-1" d="M573.71,27.44H545.34V73.25h-15V27.44H502V14.84h71.76Z"/><path class="cls-1" d="M361.53,27.44H333.15V73.25h-15V27.44H289.76V14.84h71.77Z"/><path class="cls-2" d="M188.67,38.79c0,15.15-24.46,33.61-40.54,33.61-15.32,0-25.31-9.4-25.31-22.6,0-14.22,21-33.35,41.81-33.35C178.18,16.45,188.67,27,188.67,38.79Zm12.11,0c0-20.48-22.1-23.95-33.95-23.95-25.3,0-56.2,13.8-56.2,34.87,0,20.49,23.62,24.38,35.47,24.38C171.32,74.09,200.78,59.78,200.78,38.79Z"/></svg>