<?xml version="1.0" encoding="utf-8"?>
<!-- Generator: Adobe Illustrator 24.0.1, SVG Export Plug-In . SVG Version: 6.00 Build 0)  -->
<svg version="1.1" id="Calque_1" xmlns="http://www.w3.org/2000/svg" xmlns:xlink="http://www.w3.org/1999/xlink" x="0px" y="0px"
	 viewBox="0 0 205.4 178.3" style="enable-background:new 0 0 205.4 178.3;" xml:space="preserve">
<style type="text/css">
	.st0{fill:#242526;}
	.st1{fill:#FFFFFF;}
</style>
<g>
	<path class="st0" d="M94.1,115.5c-11.5,0-17.3-14.1-8.9-22c17.3-16.2,54.5-10.6,54.5-29.4c0-9-9.2-14-33.8-14
		c-23,0-36.3,3-40.2,14.8c-1.7,5.1-6.4,8.7-11.8,8.7h-9.7c-8.3,0-14.4-7.7-12.5-15.7c7.1-29.2,35.5-36.6,72.2-36.6
		c43.2,0,70.1,9.9,70.1,39c0,37.4-51.4,31.5-62.7,49.5c-2.3,3.6-6.4,5.8-10.7,5.8H94.1z M109.3,144.2L109.3,144.2
		c0,7.1-5.7,12.8-12.8,12.8h-7.1c-7.1,0-12.8-5.7-12.8-12.8v0c0-7.1,5.7-12.8,12.8-12.8h7.1C103.5,131.4,109.3,137.1,109.3,144.2z"
		/>
	<path class="st1" d="M96.5,157.5h-7.1c-7.3,0-13.3-6-13.3-13.3s6-13.3,13.3-13.3h7.1c7.3,0,13.3,6,13.3,13.3
		S103.8,157.5,96.5,157.5z M89.4,131.9c-6.8,0-12.3,5.5-12.3,12.3s5.5,12.3,12.3,12.3h7.1c6.8,0,12.3-5.5,12.3-12.3
		s-5.5-12.3-12.3-12.3H89.4z M100.6,116h-6.6c-5.6,0-10.3-3.2-12.4-8.4c-2-5.1-0.8-10.7,3.2-14.5c7.8-7.3,19.6-10.2,30-12.9
		c13.1-3.3,24.3-6.1,24.3-16.2c0-5.8-3.5-13.5-33.3-13.5c-21.6,0-35.7,2.4-39.8,14.4c-1.8,5.4-6.7,9.1-12.3,9.1h-9.7
		c-4.1,0-7.9-1.9-10.5-5.1c-2.5-3.2-3.4-7.3-2.5-11.3c8-32.8,43.1-37,72.7-37c48.2,0,70.6,12.5,70.6,39.5c0,23.5-20,30.2-37.7,36.1
		c-10.7,3.6-20.9,7-25.1,13.7C109.4,113.7,105.2,116,100.6,116z M105.8,49.7c23.7,0,34.3,4.5,34.3,14.4c0,10.8-11.6,13.7-25.1,17.1
		c-10.3,2.6-22,5.5-29.5,12.6c-3.7,3.5-4.8,8.6-2.9,13.4c1.9,4.8,6.3,7.8,11.5,7.8h6.6c4.2,0,8.1-2.1,10.3-5.5
		c4.4-7,14.7-10.4,25.6-14.1c17.4-5.8,37-12.4,37-35.1c0-26.3-22.1-38.5-69.6-38.5C60.4,21.8,38.3,33,32.2,58
		c-0.9,3.6-0.1,7.4,2.3,10.4c2.4,3,5.9,4.7,9.7,4.7h9.7c5.1,0,9.6-3.4,11.3-8.4C69.3,52.2,83.8,49.7,105.8,49.7z"/>
</g>
</svg>
