<?xml version="1.0" encoding="utf-8"?>
<!-- Generator: Adobe Illustrator 24.0.1, SVG Export Plug-In . SVG Version: 6.00 Build 0)  -->
<svg version="1.1" id="Calque_1" xmlns="http://www.w3.org/2000/svg" xmlns:xlink="http://www.w3.org/1999/xlink" x="0px" y="0px"
	 viewBox="0 0 841.9 516.6" style="enable-background:new 0 0 841.9 516.6;" xml:space="preserve">
<style type="text/css">
	.st0{fill:#FFFFFF;}
	.st1{fill:#FFFFFF;stroke:#000000;stroke-miterlimit:10;}
</style>
<path class="st0" d="M128-69.6L128-69.6c0,0.1,0,0.1,0.1,0.1L128-69.6z"/>
<path class="st1" d="M837.5,0.8L837.5,0.8L837.5,0.8z"/>
<path class="st1" d="M820.1-1.1c0.1,0,0.1-0.1,0.2-0.1c-0.1,0-0.1,0-0.2-0.1V-1.1z"/>
<path class="st0" d="M171.9,93.8c3,5,8,6,13,7c-2-10-13-16-21-13C166.9,89.8,169.9,90.8,171.9,93.8z"/>
<path class="st0" d="M114.9,152.8l-3-10c-2,5-9,3-7,10C107.9,149.8,110.9,147.8,114.9,152.8z"/>
<path class="st0" d="M62.9,163.8l-5,6l2,4C60.9,170.8,61.9,166.8,62.9,163.8z"/>
<path class="st0" d="M49.9,210.8l-11-4c2-3,3-6,2-9l-9,18C36.9,222.8,47.9,221.8,49.9,210.8z"/>
<path class="st0" d="M807.9,113.8c1-10-5-12-11-15c-9-5-9-5-4-14l1-1l10-15l6,5c-1-4-2-8-3-12c-1-2-4-4-6-5c-1,0-4,2-5,3
	c-3,4-6,6-11,2l1,5c0,8,2,16-6,21c-1,1-1,3-1,4l1,21c0,11,8,19,19,17c3-1,7,0,7-6c8,5,17-2,13-13L807.9,113.8z"/>
<path class="st0" d="M821.9,187.8l6,10l2,2c0,1,2,1,3,1l2-2C825.9,187.8,824.9,187.8,821.9,187.8z"/>
<path class="st0" d="M24.9,289.8c6-3,6-3,2-8l-1-4l8,3l7-13l4,1c-3-8-13-8-13-18c1-3-6-7-10-10c-1-1-3-1-4,0c-5,1-9,4-11,9l6,1v2
	l-5,1l-3-1h-5v40C7.9,293.8,16.9,293.8,24.9,289.8z"/>
<path class="st0" d="M741.9,98.8v5l5,1l-3,6l-2,1v2l3-3l9-6l-4-2C746.9,101.8,743.9,100.8,741.9,98.8z"/>
<path class="st0" d="M472.9,7.8l5,3l-4,4c-4-10-10,1-14-3v12c3,0,8,2,9,0c5-5,9,0,15-2l-3,5l2,1l11-15l-2-3L472.9,7.8z"/>
<path class="st0" d="M447.9,16.8h2c0-2,1-4,1-6v-5h-5L447.9,16.8z"/>
<path class="st0" d="M347.9,14.8v4c-4-3-4-3-17-2l-1,5l-9-1c5,5,8,6,12,3c3-3,6-2,8,1l2,4l4-4l7-1l-4-9H347.9z"/>
<path class="st0" d="M582.9,34.8c0,1-2,1-3,2h-5l-5,10c2,0,5,1,7,0c3-1,6-3,9-4c2-1,5-2,8,0s8,0,12,0l10-1c-11-4-22-8-33-11
	C582.9,31.8,583.9,33.8,582.9,34.8z"/>
<polygon class="st0" points="0.9,381.8 -0.1,387.8 4.9,383.8 "/>
<polygon class="st0" points="472.9,97.8 473.9,98.8 472.9,95.8 "/>
<polygon class="st0" points="224.9,180.8 226.9,179.8 224.9,178.8 "/>
<polygon class="st0" points="66.9,517.8 68.9,517.8 68.9,513.8 "/>
<path d="M39.8,359.4l4.1-2.1l1,3c2,0,3-1,4-3l3.8-8.5l-7.9,3C41,352.8,39.1,355.6,39.8,359.4z"/>
<polygon points="224.9,180.8 226.9,179.8 224.9,178.8 "/>
<polygon points="369,624.3 369,622.3 368,621.3 "/>
<polygon points="0,387.5 -0.1,387.8 0,387.8 "/>
<path d="M40.1,399.2c-1.1,5.7,0.8,13.5,3.8,16.6c2.4,1.9,4.8,3.3,7.3,4.4l-0.2-4.9C51,407.3,46.7,401.4,40.1,399.2z"/>
<polygon points="841.9,332.6 842,332.3 841.9,332.3 "/>
<path d="M797.9,362.8l-1-3c-2,0-3,1-4,3l-3.8,8.5l7.9-3c3.9-1,5.8-3.8,5.1-7.6L797.9,362.8z"/>
<polygon points="472.9,97.8 473.9,98.8 472.9,95.8 "/>
<path d="M801.8,320.9c1.1-5.7-0.8-13.5-3.8-16.6c-2.4-1.9-4.8-3.3-7.3-4.4l0.2,4.9C790.9,312.8,795.2,318.7,801.8,320.9z"/>
<polygon points="617,541.3 617,539.3 615,540.3 "/>
<path d="M776.7,455.7c-0.6-0.3-1.2-0.6-1.8-0.9c0,0.8,0.1,1.7,0.2,2.5c0.5,0,1.1,0,1.8,0L776.7,455.7z"/>
<path d="M781.1,466.5l2-3.1C781.2,463.9,780.6,465.1,781.1,466.5z"/>
<path d="M783.1,463.5c0.5-0.1,1.1-0.2,1.8-0.2c1,0,3-1,3-2s0-3-1-3l-11-7l0.7,4.4c3.1,1.5,5.7,2.6,8.2,5.1L783.1,463.5z"/>
<path d="M781.1,466.5c-0.5-1.5,0.1-2.6,2-3.1l1.8-2.7c-2.5-2.5-5.1-3.6-8.2-5.1l0.3,1.6c-0.7,0-1.3,0-1.8,0c0.8,3.9,3.3,7.1,5.8,9.5
	L781.1,466.5z"/>
<path d="M782.9,438.8c-2,2,0,9,1,15c0,1,2,2,3,2l1,1c9-14,17-28,23-43c-4-2-4-1-5,6l-1,3l-5-8l-13,5l-1.7-1.7
	c-0.5,0.7-1.1,1.4-1.6,2.1C784.1,426,788.8,432.1,782.9,438.8z"/>
<path d="M753.9,158.8c-2,2,0,9,1,15c0,1,2,2,3,2l1,1c9-14,17-28,23-43c-4-2-4-1-5,6l-1,3l-5-8l-13,5l-1.7-1.7
	c-0.5,0.7-1.1,1.4-1.6,2.1C755.1,146,759.8,152.1,753.9,158.8z"/>
<path d="M783.6,420.1c0.5-0.7,1-1.4,1.6-2.1l-1.3-1.3C783.6,417.9,783.5,419,783.6,420.1z"/>
<path d="M713.8,580.5c1.5,0.7,3.1,1,5.1,1.9c2.7,1.2,4.4,0.4,7.1,1.5c-1.7-8.5,2.3-13.8,7.2-19.5c2.7,1.8,4.7,3.8,6.3,6
	c0.4-2.5,0.5-4.4,1.3-6.4c-0.2-3.6-1.5-5.9-1.8-9.5l-1.9-3.5c-7.4,8.8-15.6,17.9-23.4,26.8L713.8,580.5z"/>
<path d="M245.6,696.4c-0.3,0.4-0.6,0.8-0.9,1.1c1.4-0.1,2.9-0.2,4.4-0.2c0,0,0-0.1,0-0.1L245.6,696.4z"/>
<path d="M-123.6-23.9l0.4,10.3l5.4-7l5.2,16.1c0.1,0,0.1,0,0.2,0l5.7-8.2c-0.4-1-3.1-2.1-4-4.1c-0.9-1.9,0.5-3.7,0.5-6
	c2.2,0.2,3.5,0.8,5.3,2.3c1.3,0.6,1.8,3.9,3.1,4.5c1.8,1.5,3.1,2.1,5.8,3.3l0.4-1.4l-6.2-13.6c7.1,1.5,7.9,8.1,11.9,12.2l-2.6-15.1
	l1.8-0.8l5.3,11.6l5.3-4.7l3.3,4.3c-2.5-5.6-5.8-10.3-1.8-16.5c0.9-3.6-4.2-11.9-5.7-17.8c-1.2-1.2-2.4-2.4-3.5-2.4
	c-5.8-2.4-11.3-1.2-15.5,2.4l4.8,4.7l-1,2.4l-5.8-2.4l-2.4-2.4c-3.5-2.4-7.1-5.9-10.6-7.1l-11.3-1.2l3.8-9.5
	c6.8,1.2,12.2-2.4,16.1-10.7l-6.6,1.2l-5.4,3.6c-4.9-5.9-12.8-7.1-13.6-17.8c-0.2-3.6-7.3-8.3-12-11.9c-1.2-1.2-3.4-1.2-4.6-1.2
	c-5.4,2.4-9.7,5.9-11.5,11.9l6.8,1.2l0.2,2.4l-5.5,1.2l-4.6-1.2c-3.4,0-7.9-1.2-10.1,0c-9.8,4.7-18.3,10.7-26.9,15.4
	c-1,1.2-3.2,2.4-3.1,3.6c0.7,9.5,1.3,19,8.5,26.1c0.1,1.2,2.3,1.2,3.4,1.2c5.6,0,10.1,0,15.7,0l6.8,1.2c0.2,3.6,2.7,5.9,5.1,8.3
	l-14.4,19c1-1.2,3.1-3.6,4.2-3.6c2.2,0,5.7,1.2,5.8,2.4c0.3,4.7,3.7,4.7,5.8,3.6c3.3-1.2,6.4-4.7,6.2-7.1l-0.7-10.7h2.2h1.1l1.2,1.2
	c4.7,3.6,10.4,4.7,14,8.3c3.4,2.6,6.6,5.2,9.9,7.7c0.1-2.2,0.3-4.2,0.9-5.9L-123.6-23.9z"/>
<path d="M818.1,488.4l-4,0.6l-4,2.9l0.9,1.9l5.8-1.4c0.4,5.6-1.8,10.1-5.4,14c-0.9,0.4-2.7,1.2-4,0.6c-4.9-1.3-12-2.9-13.3-5.8
	c-4-8.7-10.6-6.9-16.4-10.2l-3.1,4.9l-4.9,3.3c0.5-8.4,3.6-13.2,9.4-14.6l0-9.3l-9.3,3c-3.1,0.2-7.1-1.5-10.6-2.3l-2.7-1.2l-5.3,0
	l0,2.3l5.3,2.3c-2.2,4.5-6.2,7.4-11.6,7.4c-0.9,0.4-2.2-0.2-3.5-0.8c-3.1-4.5-9.7-9.7-10.1-13c1.8-10.1-8.4-11.4-11.4-20.5l4.4,2.7
	l2.7-5.8l-0.4-1l-7-15.5c1.8,3.9,0.8,8.9-0.9,12.1c-0.9,2.7-5.3,2.4-8.9,3.9l-2.7,1.2c-1.8,0.8-3.1,0.2-4,0.6
	c-3.1,0.2-7.1,0.8-10.2-1.3l-4.9-1.3c-0.4,1.4,0,2.3,0.4,3.3c4,6.4,4.4,12,0.8,18.3c-0.4,1.4,0.4,3.3,0.9,4.3c0.9-0.4,3.1-0.2,4-0.6
	c2.7-1.2,3.6-3.9,5.8-6.1c1.3,7.6-2.7,10.5-6.7,11.1c-4.9,1-2.7,3.5-2.2,6.8l3.5,7.8l9.2,22.7l8-8.2l13.7,23.1
	c3.6-3.9,7.1-3.1,8.9,0.7c1.7,6.2,4.4,9.7,7.5,14.2c-1.2,1.5-2.5,3-3.7,4.5c8.9,0.7,11.9-1.7,13.5-8.5l1.8-5.9l2.9-5.9
	c-4.5-4.5-2-6.8,0-10.1h1l1.8,1.8l2-1.8h4.6l-4.1,5.3c4.7,3.6,10.2,2.4,13.3-2.4c3.5,2.4,7.1,4.7,8.3,7.1s1.5,4.7,1.6,7.1
	c0.2,2.4-1.8,5.9-0.6,7.1c2.6,4.7,6.3,9.5,9.9,13c2.4,2.4,5.8,3.6,8.2,4.7c6.9,2.4,10.1,0,12.9-7.1c0.8-4.7,3.9-8.3,4.8-11.9
	l3.9-8.3c-3.6-3.6-10.3-3.6-7.5-10.7h5.6c3.4,0,6.6-1.2,7.4-5.9c2.4-13,6-26.1,8.5-39.1c1.1-3.6,1.4-7.1,0.6-10.5
	c-3.8,5.4-7.7,11.1-12.2,16.6C824.8,486.6,820.8,487.2,818.1,488.4z"/>
<path d="M579.3-29.9c-0.4,0.2-0.7,0.4-1.1,0.6c-0.1,0.1-0.3,0.2-0.4,0.3l0.6,0.1C578.7-29.3,579-29.7,579.3-29.9z"/>
<path d="M793.4,75.6c-0.6,3.4,0.3,6.5-5.1,5.4c-2.5-0.7-5.3-0.6-7.6,1l3.9,3.8c0.2,0,0.4-0.1,0.6-0.1c0.1,0,0.3,0,0.4,0l3.4-2.5
	l1.8,1.5c2.2,0.2,4.9-1,6.7-1.8c1.8-0.8,3.1-2.5,5.8-3.7l2.7-3.5c3.1,9.1,6.2,11.2,13.3,10.4l5.3,0l5.3,0c0.1-1,0.2-1.7,0.5-2.2
	c1.9-4.2,8.7,2.5,10.6-1.5l0-7c5.8,0.9,11.1,3.2,16.4,3.2c14.6-3,14.6-3,16.4-6.1l-12.4,0.8c0-2.3-0.9-4.3-0.9-6.6
	c1.3-1.8,3.6-3.9,5.8-6.1c-0.4-1,2.2,0.2,2.2,0.2c2.6,5.8,6.2,4.2,8.9,3.1c6.2-0.4,11.5-2.8,17.3-4.2c-6.6-7.5-15.5-5.9-23-6.1
	l-6.2,0.4c4.5-6.6,2.7-10.5-3.5-14.8c-1.3-0.6-3.5-5.4-3.1-6.8c0.9-2.7,2.7-5.8,5.4-7c4.4-2,9.8-2,13.8-2.6l-5.4,7l18.1,14.1
	l1.8,1.5c11.1,5.6,11.5,6.5,16-4.7c2.7-8.2,5.4-16.4,16.5-13.1l-3-16.1c11.6-5.1,20.8,8.2,15.9,18.6c5.3,0,5.8,3.3,6.6,7.5
	C954.8,32.1,965,31,976,32l3.1-0.2l0-2.3l-6.2,0.4l6.2-9.8l2.6,10.5c1.8-0.8,3.1-0.2,4.9,1.3c3.1,2.1,6.2,4.2,10.6,6.9
	c-0.9-4.3,6.2-7.4,1.8-14.8c-1.3-2.9,0.5-6,4-5.3c2.7,1.2,4.9,3.7,7.1,3.9c1.8-0.8,2.2-2.1,1.3-4.1c0,0,1.8-0.8,2.7-1.2
	c7.1,1.5,8.4-4.9,10.7-9.4l-5.7-5.6c5.3-4.7,5.3-4.7,12-4.1c1.8-0.8,4-0.6,4.4-2c5.8-8.4,18.2-6.9,21.8-17.8c-0.4-1,0.9-0.4,1.8-0.8
	l5.8-6.1l9.8,0.3c-1.4-3.1-2-6.5-2.1-9.9c-2.5-2.6-6-4.4-10.6-4.4l-3.2,17.8c-1.3-1-2.5-1.8-3.7-2.4c-8.5-4.2-13.9,2.1-19.4,8.3
	c-9.4,9.5-9.5,8.3-19.2-2.4l-1.3-2.4l-13.9-22.5l8.6-4.7c-4.6-1.2-10.3-3.6-15.9-3.6c-3.4,0-6.6,2.4-8.6,4.7c-1,1.2-0.6,7.1,0.6,8.3
	c5,7.1,5.3,11.9-2.2,16.6l6.9,2.4c8.1,3.6,18.3,5.9,22.4,16.6c-6.8-1.2-13.5-1.2-20.4-3.6c-3.4,0-7.8,0-8.3-7.1c0,0-2.4-2.4-2.3-1.2
	c-3.3,1.2-6.6,2.4-8.7,3.6c-1,2.4-0.8,4.7-1.7,7.1L985.3-2c-3.2,2.4-3.2,2.4-20.2-1.2c-5.8-2.4-10.6-7.1-16.4-10.7l-2.9,7.1
	c-4.2,3.6-9.6-9.5-13.5-1.2l-5.8-2.4l-5.8-2.4c-8-2.4-10.5-5.9-10.1-16.6l-4.3,2.4c-2.9,0-4.8,0.9-6.8,1.1c-0.3,0-0.7,0.1-1,0.1
	c-2.2,0-5.6,0-7.9-1.2l-1.3-2.4l-5.5,1.2l-7.9-16.6c5.7,1.2,12.4,1.2,18.2,3.6c1.1,0,1.5,4.7,3.9,7.1c-0.2-2.4,0.8-4.7-0.5-7.1
	c-2.2-3.1-1.7-4.4,0.6-6.2l-0.6-8.6c-18.6,3.5-36.3,8-53.8,13.6l-2.9-9.5l-7.7,2.4l-1-14.2h-2.2l-3.3,16.6c-2.7-5.9-0.9-13-8-17.8
	l1.2,16.6l-1,1.2c-2.4-2.4-3.6-3.6-4.9-5.9c-1.2-1.2-0.3-4.7-1.5-5.9c-1.3-2.4-2.5-3.6-4.8-4.7c-1,2.4-3.1,3.6-2.9,5.9
	c0.2,2.4,2.6,4.7,2.7,5.9l-9.7,5.9l0.9-19l-8.6,4.7l3.7-10.7h-9c-3.1,3.6-4.9,9.5-6.8,15.4c-3.7,10.7-5.3,20.2,2.2,30.8
	c7.6-3.6,14.1-7.1,15.6-16.6c2.4,2.4,4.6,2.4,7.1,4.7s4.7,3.6,6,5.9c-15.2,7.1-31.5,14.2-45.6,21.3c1.5,5.9,3,10.7,2.4,17.8
	c0.3,4.7,3.9,7.1,9.3,4.7l5.4,29.6l12-4.7l0.8,27.3l0.5,7.3c0.4,1.1,0.6,2.3,1.1,3.4C794.1,76.1,793.8,75.9,793.4,75.6z"/>
<path d="M744.5,589.6c0.4,5.6,0.8,11.3-0.5,15.4l-7.1,3.1l-0.4-10.3l-5.4,7l-5.3-16.3l-5.8,8.4c0.4,1,3.1,2.1,4,4.1
	c0.9,1.9-0.5,3.7-0.5,6c-2.2-0.2-3.5-0.8-5.3-2.3c-1.3-0.6-1.8-3.9-3.1-4.5c-1.7-1.5-3.1-2.1-5.6-3.2l-0.2,0.2l-0.4,1.1l6.2,13.6
	c-1.6-0.3-2.8-0.9-3.8-1.7c0.6,2.6,0.3,5.3-1.6,8.3c-0.9,3.6,4.2,11.9,5.7,17.8c1.2,1.2,2.4,2.4,3.5,2.4c5.8,2.4,11.3,1.2,15.5-2.4
	l-4.8-4.7l1-2.4l5.8,2.4l2.4,2.4c3.5,2.4,7.1,5.9,10.6,7.1l11.3,1.2l-3.8,9.5c-6.8-1.2-12.2,2.4-16.1,10.7l6.6-1.2l5.4-3.6
	c4.9,5.9,12.8,7.1,13.6,17.8c0.2,3.6,7.3,8.3,12,11.9c1.2,1.2,3.4,1.2,4.6,1.2c5.4-2.4,9.7-5.9,11.5-11.9l-6.8-1.2l-0.2-2.4l5.5-1.2
	l4.6,1.2c3.4,0,7.9,1.2,10.1,0c9.8-4.7,18.3-10.7,26.9-15.4c1-1.2,3.2-2.4,3.1-3.6c-0.7-9.5-1.3-19-8.5-26.1
	c-0.1-1.2-2.3-1.2-3.4-1.2c-5.6,0-10.1,0-15.7,0l-6.8-1.2c-0.2-3.6-2.7-5.9-5.1-8.3l14.4-19c-1,1.2-3.1,3.6-4.2,3.6
	c-2.2,0-5.7-1.2-5.8-2.4c-0.3-4.7-3.7-4.7-5.8-3.6c-3.3,1.2-6.4,4.7-6.2,7.1l0.7,10.7h-2.2h-1.1l-1.2-1.2c-4.7-3.6-10.4-4.7-14-8.3
	c-9.4-7.3-17.8-14.6-28.2-17.8C744.4,587.6,744.5,588.6,744.5,589.6z"/>
<path d="M179.9,64.6l1.8,3.3l1.5-0.5l-0.5-4.5c4.3,0.2,7.4,2.4,10,5.4c0.2,0.7,0.6,2.1,0.1,3c-1.5,3.5-3.3,8.7-5.6,9.4
	c-6.9,2.1-6.2,7.3-9.3,11.2l3.3,2.8l2,4c-6.2-1.2-9.5-4-10-8.5l-7-1l1.3,7.3c-0.1,2.3-1.8,5.2-2.8,7.7l-1.1,1.9l-0.5,4l1.7,0.2
	l2.2-3.7c3.1,2.1,4.9,5.4,4.4,9.4c0.2,0.7-0.4,1.6-0.9,2.6c-3.6,1.9-8.2,6.3-10.7,6.3c-7.4-2.4-9.4,5.1-16.5,6.5l2.5-3l-4.1-2.6
	l-0.8,0.2l-12.3,3.7c3.1-0.9,6.8,0.2,8.9,1.9c2,0.9,1.2,4.2,2.1,7l0.6,2.1c0.4,1.4-0.1,2.3,0.1,3c-0.1,2.3-0.1,5.4-2,7.5L137,155
	c1,0.5,1.7,0.2,2.5,0c5.2-2.3,9.4-2.1,13.7,1.2c1,0.5,2.5,0,3.3-0.2c-0.2-0.7,0.1-2.3-0.1-3c-0.6-2.1-2.6-3.1-4-4.9
	c5.8-0.2,7.6,3.1,7.7,6.1c0.3,3.8,2.4,2.3,4.9,2.4l6.2-1.9l17.9-4.7l-5.3-6.8l18.6-7.9c-2.6-3.1-1.7-5.6,1.4-6.6
	c1.6-0.2,2.9-0.6,4.2-1l-3.2-2.2c-3.8,3-5.3,0.8-7.5-1l0.1-0.7l1.5-1.2l-1.1-1.7l0.5-3.4l3.6,3.6c3.1-3.2,2.8-7.4-0.5-10.2
	c2.1-2.4,4.2-4.8,6.1-5.5c1.9-0.7,3.7-0.6,5.5-0.5c1.8,0.1,4.3,2,5.3,1.2c3.8-1.5,7.7-3.7,10.7-6.1c2-1.6,3.2-4,4.4-5.6
	c2.5-4.9,1-7.5-4-10.4c-3.5-1.1-5.8-3.7-8.4-4.7l-5.8-3.7c-3,2.3-3.7,7.4-8.7,4.5l0.6-4.2c0.3-2.5-0.2-5.1-3.7-6.1
	c-7.8-2.6-15.5-5.7-23.3-8.4c0,0.1,0.1,0.2,0.1,0.3L179.9,64.6z"/>
<path d="M114.4-44.7l-3,3.9l1.4,1.6l5.2-2.9c2,5.3,1,10.2-1.3,15c-0.7,0.6-2.2,1.9-3.7,1.7c-5.1,0.1-12.3,0.5-14.4-1.9
	c-6.2-7.3-12.1-3.8-18.5-5.3l-1.7,5.5l-3.8,4.5c-1.8-8.2-0.2-13.7,5-16.6l-2.5-9l-8.2,5.4c-2.9,1.1-7.2,0.5-10.8,0.7l-2.9-0.4
	L50-40.9l0.6,2.2l5.7,0.8c-0.9,4.9-4,8.8-9.1,10.3c-0.7,0.6-2.2,0.4-3.6,0.2c-4.2-3.4-12-6.6-13.3-9.7c-1-10.2-11.2-8.7-16.7-16.6
	l5,1.4l1-6.4L19-59.4l-11-13c2.8,3.2,3.3,8.4,2.4,11.8c-0.1,2.9-4.5,3.7-7.5,6.2l-2.2,1.9c-1.5,1.2-2.9,1.1-3.7,1.7
	c-2.9,1.1-6.6,2.7-10.2,1.5l-5.1,0.1c-0.1,1.4,0.6,2.2,1.3,3.1c5.6,5.1,7.5,10.4,5.8,17.3c-0.1,1.4,1.3,3.1,2,3.9
	c0.7-0.6,2.9-1.1,3.7-1.7c2.2-1.9,2.4-4.7,3.9-7.4C1.9-27-1.2-23.1-4.9-21.4c-4.4,2.3-1.6,4.1-0.3,7.2l5.5,6.5l15.1,19.3l5.5-10.1
	l19.5,18.4c2.4-4.7,6-5,8.7-1.7c1.1,1.8,2.2,3.3,3.4,4.6l0.9-5.1c-5.6-3.1-3.8-6-2.7-9.7l0.9-0.3l2.2,1.2l1.5-2.3l4.4-1.3l-2.5,6.3
	c5.5,2.1,10.5-0.5,12.1-5.9c4,1.3,8.1,2.6,10,4.5s2.7,4.2,3.5,6.4c0.8,2.2-0.1,6.2,1.4,7c3.8,3.9,8.6,7.4,13.1,9.8
	c3,1.6,6.6,1.8,9.2,2.3c7.3,0.4,9.7-2.8,10.5-10.4c-0.5-4.8,1.5-9.1,1.3-12.7l1.5-9.1c-4.4-2.4-10.9-0.6-10.1-8.2l5.4-1.5
	c3.2-0.9,6.1-3,5.5-7.7c-1-10.8-1.3-21.8-2-32.7c-0.1,0.1-0.2,0.2-0.3,0.3L114.4-44.7z"/>
<path d="M105.1,85.2c-1.1-0.5-2-0.6-3-0.7l0.6,8.3c-0.7,2.9-0.7,5-1.2,7c3.4-3.9,6.9-7.8,10.2-11.7C110,86.5,107.8,86.3,105.1,85.2z
	"/>
<path d="M784.3,449.3c0.2,0.3,0.3,0.7,0.5,1C784.7,449.8,784.5,449.4,784.3,449.3z"/>
<path d="M733.1,564.4c-4.9,5.7-8.9,10.9-7.2,19.5c-2.7-1.2-4.4-0.4-7.1-1.5c-1.9-0.8-3.6-1.2-5.1-1.9l0.8,10.8l0.1,1.2l-5,4.5
	c2.6,1.1,3.9,1.7,5.6,3.2c1.3,0.6,1.8,3.9,3.1,4.5c1.8,1.5,3.1,2.1,5.3,2.3c0-2.3,1.3-4.1,0.5-6c-0.9-1.9-3.5-3.1-4-4.1l5.8-8.4
	l5.3,16.3l5.4-7l0.4,10.3l7.1-3.1c1.3-4.1,0.9-9.7,0.5-15.4c0-1-0.1-2.1-0.2-3.1c-1.5-0.5-2.9-0.8-4.5-1.1l-0.9-13
	c0.2-0.7,0.3-1.3,0.4-1.9C737.8,568.3,735.8,566.3,733.1,564.4z"/>
<path d="M163.7,66.7c3.1-1.1,5.1-3.2,8.1-3.5l-3.9-3.8C166,60.7,164.4,63,163.7,66.7z"/>
<path d="M709,598.4l0.4-1.1l0,0l-3.7-4.7c-0.3,7.2,4.5,12.3,5.7,17.7c1.1,0.7,2.3,1.3,3.8,1.7L709,598.4z"/>
<path d="M661.4,615.6c-4.3,1.1-9,2.9-13.6,2.9c-0.9,0.4-2.6-3.5-5.3-4.6c0.9,1.9,0.9,4.3,2.6,5.8c2.7,1.8,2.7,3.1,1.5,5.4l3.2,7
	c4.1-2.9,8.1-5.8,12.1-8.7l0-1.2L661.4,615.6z"/>
<path d="M92.8,62.7l-5.4,7l-0.4-10.3L80,62.6c-0.6,1.7-0.8,3.7-0.9,5.9c6,4.5,12,8.3,18.9,10.3L92.8,62.7z"/>
<path d="M180.5,53c0.3,0.2,0.7,0.5,1.1,0.6c-0.5-1.1-0.7-2.2-1.1-3.4l0.2,2.2C180.6,52.7,180.5,52.9,180.5,53z"/>
<path d="M663.3,615.1l-2.1-2.1l0.2,2.5C662,615.4,662.6,615.3,663.3,615.1z"/>
<path d="M175.4,58.4c5.4,1.1,4.4-2,5.1-5.4c-2.1-1.5-3.5-4.3-4.2-4c-5.3,0-10.7,2.4-15.5,3.4l7.1,7
	C170.1,57.8,172.9,57.8,175.4,58.4z"/>
<path d="M709.4,597.3l0.2-0.2c0,0-0.1,0-0.1-0.1L709.4,597.3z"/>
<path d="M171.8,63.2l0.4,0.4l0.6-0.4c-0.1,0-0.3,0-0.4,0C172.2,63.2,172,63.2,171.8,63.2z"/>
<path d="M713.8,580.5l-0.2-2.6c-0.5,0.5-0.9,1.1-1.4,1.6C712.7,579.9,713.2,580.3,713.8,580.5z"/>
<path d="M98.1,79l0.1-0.1c-0.1,0-0.1,0-0.2,0L98.1,79z"/>
<path d="M241.2,698.4l1.3,0.6c0.7-0.3,1.3-0.6,2.2-1.5c-1.4,0.1-2.8,0.3-4.2,0.6L241.2,698.4z"/>
<path d="M581.5-31.4c-0.7,0.3-1.3,0.6-2.2,1.5c1-0.5,1.9-0.9,3-1.1L581.5-31.4z"/>
<path d="M825.7,447.9c-0.2-0.9-0.4-1.9-0.5-2.9c0.7,0.4,1.4,0.7,2.1,1l-1.2-5.2l12.9,8.3c0.2,0,0.3,0.1,0.4,0.2
	c-2.5-4.2-5.7-7.8-10.5-9.9c-0.4-1-2.2-0.2-3.1,0.2c-1.6,0.7-3,1.3-4.5,2C821.1,446.3,821.6,447.6,825.7,447.9z"/>
<path d="M90.4,123.6c1.7-7.1,4.9-9.5,15.1-8.3l-2.6-4.7c-0.2-3.6-1.5-5.9-1.8-9.5c0.2-0.4,0.3-0.9,0.4-1.3
	c-6.7,7.5-13.3,15.1-19.2,22.3c2.1,3,4,5.6,5.5,8.8l0.7-1.3L90.4,123.6z"/>
<path d="M98.2,78.8L98.1,79L98,78.8c-6.9-2.1-12.9-5.9-18.9-10.3c-0.1,3,0.1,6.2,0.4,9.5c0.4,10.3,2.1,18.8,11.4,25.2
	c4.9-5.7,8.9-10.9,7.2-19.5c1.6,0.7,2.8,0.7,4.1,0.8l-0.3-4.7C100.6,79.5,99.4,79.2,98.2,78.8z"/>
<path d="M155,10.2l-3.7-4.7l-5.3,4.7l0.1,1.2l1.3,19c-0.3-4.7,2.7-9.5,5.9-11.9c2.1-2.4,6.7,0,11.2,0h3.4c2.2,0,3.4,1.2,4.6,1.2
	c3.4,1.2,8,2.4,10.5,5.9l4.7,3.6c1-1.2,1-2.4,0.9-3.6c-1.7-8.3,0.1-14.2,6.5-19c1-1.2,0.9-3.6,0.8-4.7c-1,0-2.9-0.9-4.2-1.1
	l-0.6,0.4l-0.4-0.4c-3,0.3-5,2.4-8.1,3.5c0.7-3.7,2.3-6,4.2-7.3l-7.1-7c4.9-1,10.2-3.4,15.5-3.4c0.8-0.3,2.2,2.5,4.2,4
	c0-0.2,0.1-0.4,0.1-0.6l-0.2-2.2c-0.3-0.9-0.7-1.8-1.5-2.5c-3.1-2.1-2.6-3.5-0.9-6.6c1.8-3.1,1.8-5.5-1.3-7.6
	c-14.7,10-28,20.6-40.9,32.1l-2-2.7C154,3.5,155.2,6.6,155,10.2z"/>
<path d="M14,217.3l0.9,4.2H11l-8.3-5.3c-1.1,0-1.3-2.4-1.4-3.6s2.1-2.4,3.2-2.4c5.6,0,5.4-3.6,1.7-7.1c-3.7-4.7-4.1-10.7-2.3-16.6
	c0.4-2.4,0.9-4.7,1.4-7.1c-2.7,1.1-6.3,1.7-7.6,3.4c-6.2,7.4-11.2,15.4-16.5,22.4c-0.4,1.4-1.8,3.1-1.3,4.1c3.5,7.8,7,15.5,15,19
	c0.4,1,2.2,0.2,3.1-0.2c4.4-2,8-3.5,12.4-5.5l5.8-1.4c0.9,1.9,2.3,3,3.9,3.9c0.1-1.4,0.2-2.6,0.2-3.6C20.4,218,19.1,217.3,14,217.3z
	"/>
<path d="M781.8,455c-0.8,0-1.4,0.1-1.9,0.2l-2.2,3.6c0.3,1,1,2.1,2,3.3c1.3,1.9,2,4,2.3,6.1c1.5-2,2.9-4,4.4-5.9
	c0.5-1.4,1.9-3.1,1.5-4.1c-1-2.8-2-5.5-3.2-8.1c0.2,0.8,0.2,1.8,0.2,2.4C785,453.8,782.8,455,781.8,455z"/>
<path d="M458.8-38.8c5.8,2.4,4.9,5.9,4.1,10.7c13.4-1.2,24.8,2.4,36.4,8.3l3.4,1.2l1-2.4l-6.9-2.4l10.7-7.1l-1.4,11.9
	c2.2,0,3.4,1.2,4.7,3.6c2.5,3.6,5,7.1,8.7,11.9c0.8-4.7,9.8-4.7,8-14.2c-0.2-3.6,2.9-5.9,6.5-3.6c2.4,2.4,3.8,5.9,6.1,7.1
	c2.2,0,3.3-1.2,3.1-3.6c0,0,2.2,0,3.4,0c7.1,4.7,11.1-1.2,15.4-4.7l-3.9-8.3c7.7-2.4,7.7-2.4,14.6,1.2c2,0,4,0.9,5.2,0.3l-2.9-0.6
	c0.9-2.7,2.2-4.5,4-5.3c-3.1-4.5-4.4-9.7-6.6-14.5l-1.8-1.5c-1.8-1.5-6.2-1.9-8.9-3.1c0.9,6.6-3.1,7.2-6.7,8.8
	c-4.4,2-10.2,1-12.4,5.5l-2.2-0.2c-4-4.1-7.1-3.9-10.6-2.3l-23-3.8l7.6-4.5c-4.4-5-2.6-8.2,0.5-10.7l4,6.4l8-5.9
	c0.9-0.4,1.3-1.8,2.2-2.1c-0.9-6.6-1.3-12.2,4.9-15c-8.4-6.8-17.3-5.2-25.3-6.3c2.6,3.5,6.2,6.6,6.6,9.9c0,2.3-2.7,5.8-4,9.9
	l-27-5.5c0.5-3.7-2.2-9.5-6.2-11.2c-4.9-1.3-16,4.7-17.3,11.2c-0.6,3-1,6.2-0.9,9.3C465.2-54.7,465.3-44.5,458.8-38.8z"/>
<path d="M739.9,585.4c1.5,0.3,3,0.7,4.5,1.1c-0.4-6.1-1.6-11.5-5-16.1c-0.1,0.6-0.2,1.3-0.4,1.9L739.9,585.4z"/>
<path d="M737,551.1c0.3-0.4,0.6-0.7,0.9-1.1c-0.5,0-1-0.1-1.6-0.2L737,551.1z"/>
<path d="M705.7,592.6l3.7,4.7l0,0l0.1-0.2c0,0,0.1,0,0.1,0.1l5-4.5l-0.1-1.2l-0.8-10.8c-0.6-0.3-1.1-0.6-1.6-1
	c0.5-0.5,0.9-1.1,1.4-1.6l-0.4-5.5c0.3,4.7-2.7,9.5-5.9,11.9c-2.1,2.4-6.7,0-11.2,0h-3.4c-2.2,0-3.4-1.2-4.6-1.2
	c-3.4-1.2-8-2.4-10.5-5.9l-4.7-3.6c-1,1.2-1,2.4-0.9,3.6c1.7,8.3-0.1,14.2-6.5,19c-1,1.2-0.9,3.6-0.8,4.7c1.1,0,3.4,1.2,4.6,1.2
	c3.4,0,5.4-2.4,8.7-3.6c-1.7,8.3-7.2,9.5-11.7,8.3c-5.7-1.2-4.3,2.4-5.2,5.9l0,0.4l2.1,2.1c-0.6,0.1-1.3,0.3-1.9,0.5l0.5,6.6l0,1.2
	c9.1-6.9,17.8-14,26.3-21.6l5.3,7l5.3-4.7l5.3,11.6l1.8-0.8l-2.6-15.1c3.1,3.2,4.3,7.9,8.1,10.5
	C710.1,604.8,705.4,599.8,705.7,592.6z"/>
<path d="M3.3,511.9c0.9,0,1.9,0.5,3.1,1.1c2.2-0.8,3.2-2.3,5.7-2.9c-3.6-3.5-4.8-7.3-5.1-11.4c0,0.1-0.1,0.1-0.1,0.2
	C6.1,503.6,4.2,508.4,3.3,511.9z"/>
<path d="M-38.1,316.8c0.5,2.4,0.9,4.8,1.4,7.2c-3.1-0.4-6.1-0.4-9.1-0.7c-0.6,0.3-1.3,0.6-2,0.8c-1.1,0.3-2.3,0.6-3.5,0.8l2.8,40.7
	l0.7,9.6c6.7-5.6,15-8.5,23.6-12c4.1-1.1,7.5-4.9,12.1-6.9l1.4-0.4l0.5-0.9l1-1.7l-7.8-4.5c-1.7-1-2.8-5.1-2.2-8.2
	c0.1-2.2,1.6-4.8,5.1-2.8c0.9,0.5,3.2-1.6,4.2-3.3c0.5-0.9-0.2-3.6-0.6-5l6.8,20.1c2.7-0.7,5.5-1.5,8.1,0l3.9-4.7
	c2.5-4.3,4.5-7.8,7-12.1c0.5-0.9,1.5-2.6,2.4-2.1c5-1.3,9.4-0.4,13.7,1.5c-0.6-3.7-1.1-7.4-1.8-11.1c-0.9-4.3,1.4-6.4,4-7.6l4.4-2
	c0-7-5.3-4.6-9.3-6.4l0.5-8.4c-0.4-3.3,0.9-7.4,0-11.7c0-7,1.8-10.1,8-10.5c2.2,0.2,5.3,0,8,1.1c4,1.7,8.4,4.4,11.9,7.5
	c1.3,0.6,0.9,4.3,1.7,6.2c0.9,1.9,1.8,3.9,3.5,5.4c1.8,1.5,5.3,2.3,8.9,3.1c0.9-5.1,4.9-8,9.8-6.7l-1.6,5.9l3.6-1.6l1.1-2.2l2,0.9
	l0.8-0.3c0.5-3.4,1.9-6.3-3.2-8.5l0.5-6l-0.4-5.6c-0.9-6.6,0.9-9.7,9.4-12.3l-3.5-3.1c-1.3-2.9-3.1-4.5-4.4-7.4
	c0-2.3-0.9-4.3-1.3-7.6l-4.8-10.7c-10.7,2.4-20.8-1.3-31.9-4.5c-4-1.7-8.9-0.7-13.7-2.1l-1.3-0.6l-0.9,0.4l-1.8,0.8l4,8.7
	c0.9,1.9-0.5,6-2.7,8.2c-1.3,1.8-4,2.9-5.8-0.9c-0.4-1-3.5-0.8-5.3,0c-0.9,0.4-1.8,3.1-2.2,4.5l5.4-21c-0.9-0.4-1.8-0.8-2.7-1.3
	c0,0.2,0,0.3,0,0.5c0.8,11.9-5.3,20.2-7.9,30.8c-1.9,4.7-6.1,9.5-9,15.4l1.1,3.7c-0.4,0.3-0.7,0.6-1.1,1c-3.6,0.6-5.3,6.7-9.6,2.4
	l-9.8,4.7c-0.6,3.8,0.3,9-0.9,12.8c-1.2-0.9-2.7-2.1-3.9-2.7c-0.9,2.2-2.7,4.4,0.7,6.6c-2.7,1.2-6.8,1.4-10.2,2.3l-1.2-1.2l-1.8,5.9
	c-2.6-4.7-4.9-5.9-7.1-4.7c0.2,1.4,0.5,2.8,0.7,4.1C-37.2,310.8-36.4,313.8-38.1,316.8z"/>
<path d="M14.5,515.4c0.5-0.1,1.1-0.2,1.6-0.4l-1.6-1.2L14.5,515.4z"/>
<path d="M20.6,519.6h1.6l-1.7-1.3C20.5,518.8,20.5,519.2,20.6,519.6z"/>
<path d="M-18.9,407.8c0.4,3.6-0.3,7.2-2.4,10.1c2.7,1.2,5.3,2.3,8.3,2.8c-0.7,1.9-0.5,4.1,0.7,6.7l2.9-2.1c-0.2-2.2,0.1-3.2,0.5-4.1
	l1.3-0.6l1.3-0.6c0.4-0.9,1.9,0.7,2.8,1.1l14.5,1.2l0.4-0.9l-7.5-2.8l5.1-2.3c3.7-7.1,9.2-10.4,16.1-8.9l-5.9-4.3l-3.2-2.7
	c-4.2,0.3-7.5,3.1-11.8,3.7l0.1,5.8l-2.1,5.7c-4.1-7-4.1-12.8-0.3-17.5l-4.9-7.5l-5.9,8.2c-2.4,2.1-6.5,3.2-9.7,4.8l-2.7,0.7
	l-4.2,3.3l1.2,1.9L-18.9,407.8z"/>
<path d="M36.1,380.7c2.3,3,3.3,6.3,3.4,9.9c0.4,0,0.9,0,1.4,0c4.4-0.8,7.1-3.6,8.8-7l-6.2-1.2c-0.9,0.4-1.8-1.5-2.2-2.5
	c-0.4-1,0.9-2.7,1.8-3.1c0.6-0.3,1.1-0.6,1.6-0.9l0.5-3.8c-0.6-0.7-1.6-1.4-2.9-1.9c-1-0.6-1.9-1.4-2.7-2.2c0,0.3,0,0.5-0.1,0.8
	c-0.1,2.2-3,5.2-4.5,7.8l-2.9,3l-1.6,4.8l1.7,1L36.1,380.7z"/>
<path d="M55.5,380.2c-0.1,0-0.1,0.1-0.2,0.1c0.2,0.3,0.3,0.6,0.4,0.9c-0.4,0-0.8-0.1-1.2-0.1c-0.1,0.1-0.3,0.3-0.4,0.5l2.2,3.4
	l-3.8-0.7c0,0.1,0.1,0.2,0.2,0.2c0.2,2.2,3,3.3,4.9,4c1.3,0.5,2.9,0.1,4.1-0.1c-0.4-1.3-0.8-2.6-1.5-4c-1.3-4.6-1.9-6.3-4.2-5.9
	L55.5,380.2z"/>
<path d="M-36.2,431.2c1.3-3.6,3.5-6.9-0.7-10.7c-2.5-0.5-4.6-1.1-5.5-2.1c-0.7-1.7-1.6-2.9-2.6-3.7l1.7,24.9c0.7,0.3,1.4,0.7,2.2,1
	C-40.2,437.5-37.5,434.6-36.2,431.2z"/>
</svg>
