<?xml version="1.0" encoding="utf-8"?>
<!-- Generator: Adobe Illustrator 24.0.1, SVG Export Plug-In . SVG Version: 6.00 Build 0)  -->
<svg version="1.1" id="Calque_1" xmlns="http://www.w3.org/2000/svg" xmlns:xlink="http://www.w3.org/1999/xlink" x="0px" y="0px"
	 viewBox="0 0 153.7 99.6" style="enable-background:new 0 0 153.7 99.6;" xml:space="preserve">
<style type="text/css">
	.st0{fill:#FFFFFF;stroke:#000000;stroke-miterlimit:10;}
	.st1{fill:none;stroke:#000000;stroke-miterlimit:10;}
	.st2{fill:#FFFFFF;}
</style>
<path class="st2" d="M141.6,5.5c-2.3,0-4.1,1.7-4.4,3.9H30.2V8.3h-3.4v3.4h3.4v-1.2h63.5C54.1,12.4,45.9,16.8,44,21.2
	c-1.8,4.3,2.9,9.2,8.3,14.9c5.4,5.6,11.5,11.9,11,18.3c-2.4,0-4.4,2-4.4,4.4c0,0.6,0.1,1.1,0.3,1.6c0.2,0.4,0.4,0.8,0.7,1.1
	l-0.1,0.1c-1.6,1.3-3.6,1.8-5.9,1.9c-3.5,0.2-7.8-0.7-12.3-1.7c-8.7-1.8-17.8-3.7-24.1,1.5c-3.4,2.8-5.7,7.3-6.9,13.8V35.4h1.2V32
	H8.4v3.4h1.2v49.9c-2.2,0.3-3.9,2.1-3.9,4.4c0,2.4,2,4.4,4.4,4.4c2.4,0,4.4-2,4.4-4.4c0-0.8-0.2-1.6-0.6-2.3
	c-0.7-1.1-1.8-1.9-3.2-2.1c0.5-10.6,2.9-17.6,7.4-21.2c6-4.9,14.8-3.1,23.3-1.3c3.8,0.8,7.5,1.6,10.8,1.7c1.9,0.1,3.7-0.1,5.2-0.6
	L32.4,89l-0.9-0.9l-2.3,2.5l2.5,2.3l2.3-2.5l-0.8-0.8l27.2-27.2c0.1-0.1,0.3-0.2,0.4-0.3c0.7,0.6,1.7,0.9,2.7,0.9
	c2.4,0,4.4-2,4.4-4.4c0-1-0.4-2-1-2.7l0.5-0.5L93.8,29l0.9,0.9l2.3-2.5l-2.5-2.3l-2.3,2.5l0.8,0.8L66.1,55.3
	c-0.5-0.4-1.1-0.7-1.8-0.9c0.5-6.8-5.7-13.3-11.3-19.1c-5-5.2-9.7-10.1-8.1-13.8c2.1-5.1,14.7-10.8,92.3-11.1c0.1,1,0.6,1.9,1.2,2.6
	c0.8,0.8,1.9,1.3,3.1,1.3c2.4,0,4.4-2,4.4-4.4C146,7.5,144,5.5,141.6,5.5z M141.6,13.4c-0.9,0-1.6-0.3-2.2-0.9c-0.6-0.5-1-1.2-1.1-2
	c0-0.2-0.1-0.3-0.1-0.5c0,0,0,0,0,0c0-0.2,0-0.3,0-0.5c0.2-1.6,1.6-2.9,3.4-2.9c1.9,0,3.4,1.5,3.4,3.4S143.5,13.4,141.6,13.4z
	 M66.1,56.7c0.4,0.6,0.7,1.3,0.7,2c0,1.9-1.5,3.4-3.4,3.4c-0.7,0-1.4-0.2-2-0.6c0,0,0,0-0.1,0c-0.1-0.1-0.2-0.2-0.4-0.3
	c-0.1-0.1-0.2-0.2-0.3-0.4c0,0,0,0,0,0c-0.2-0.3-0.4-0.6-0.5-1c-0.1-0.3-0.2-0.7-0.2-1.1c0-1.8,1.4-3.3,3.2-3.4c0.1,0,0.1,0,0.2,0
	c0.1,0,0.2,0,0.4,0c0.2,0,0.3,0,0.5,0.1c0.4,0.1,0.8,0.3,1.2,0.6c0.2,0.1,0.3,0.2,0.4,0.4C66,56.5,66.1,56.6,66.1,56.7z M10.1,93.1
	c-1.9,0-3.4-1.5-3.4-3.4c0-1.7,1.3-3.2,3-3.4c0.1,0,0.3,0,0.4,0c0,0,0,0,0.1,0c0.2,0,0.3,0,0.5,0.1c1,0.2,1.8,0.8,2.4,1.6
	c0.3,0.5,0.5,1.1,0.5,1.7C13.5,91.6,12,93.1,10.1,93.1z"/>
</svg>
