<svg id="Calque_1" data-name="Calque 1" xmlns="http://www.w3.org/2000/svg" viewBox="0 0 36.09 36.09"><defs><style>.cls-1{fill:#1d1d1b;}</style></defs><path class="cls-1" d="M14.79,19.89a4.45,4.45,0,0,0-2.82.55,4.73,4.73,0,0,0-2,6.22,4.78,4.78,0,0,0,6.15,2.26,4.84,4.84,0,0,0,3-4.5c0-6.88,0-13.77,0-20.66V3.38h4.33q1.15,6.3,7.52,7.28a2.85,2.85,0,0,1,0,.31c0,1.46,0,2.91,0,4.37,0,.3-.09.37-.37.37a8.09,8.09,0,0,1-6.93-3.28l-.26-.34V24.48a9.26,9.26,0,1,1-10.84-9c.62-.1,1.25-.09,1.88-.13.16,0,.27,0,.27.23,0,1.42,0,2.83,0,4.24C14.83,19.81,14.81,19.83,14.79,19.89Z"/></svg>