<svg id="Calque_1" data-name="Calque 1" xmlns="http://www.w3.org/2000/svg" viewBox="0 0 36.09 36.09"><path d="M11.62,3.1H24.5a3.49,3.49,0,0,0,.54.12c4.93.31,8.15,3.46,8.33,8.38.15,3.94.12,7.89.12,11.83a21.34,21.34,0,0,1-.24,3.2,7.9,7.9,0,0,1-4.19,6.19,10.67,10.67,0,0,1-4.9,1.12c-3.67,0-7.33.06-11,0a24.48,24.48,0,0,1-3.2-.24,7.9,7.9,0,0,1-7-6.5c-.16-.74-.26-1.5-.38-2.25V12.11c.08-.56.17-1.12.25-1.68A8,8,0,0,1,9.37,3.48C10.12,3.32,10.87,3.22,11.62,3.1ZM30.75,18.51c-.06-2.3-.07-4.64-.21-7A5.37,5.37,0,0,0,25,6.08C20.42,6,15.81,6,11.21,6.08a5.33,5.33,0,0,0-5.63,5.6q-.17,6.87,0,13.76A5.34,5.34,0,0,0,11.16,31q6.9.16,13.82,0c3.33-.08,5.38-2.2,5.57-5.54C30.68,23.18,30.69,20.86,30.75,18.51Z"/><path d="M18.06,26.52a8,8,0,1,1,8-8A8,8,0,0,1,18.06,26.52Zm0-2.84a5.13,5.13,0,1,0-5.13-5.1A5.15,5.15,0,0,0,18.06,23.68Z"/><path d="M26.31,12.13a1.8,1.8,0,0,1-1.88-1.84,1.85,1.85,0,0,1,1.9-1.85,1.82,1.82,0,0,1,1.84,1.84A1.77,1.77,0,0,1,26.31,12.13Z"/></svg>