<svg id="Calque_1" data-name="Calque 1" xmlns="http://www.w3.org/2000/svg" viewBox="0 0 36.09 36.09"><path d="M34,18.09v9.26a6.54,6.54,0,0,1-5.55,6.56,5.74,5.74,0,0,1-.93.07H8.59a6.52,6.52,0,0,1-6.48-6.44q0-9.53,0-19A6.53,6.53,0,0,1,8,2.13q.38,0,.75,0H27.38a6.55,6.55,0,0,1,6.55,5.65,7,7,0,0,1,.06.91Zm-4.8,11.07v-.29c0-.79,0-1.58,0-2.37,0-2.14,0-4.28,0-6.43a9.66,9.66,0,0,0-.47-3,4.14,4.14,0,0,0-3.24-3A8.49,8.49,0,0,0,23.39,14a4.71,4.71,0,0,0-4.08,2.31s0,0-.1.07v-2H15c-.21,0-.27,0-.26.26,0,1.19,0,2.37,0,3.56v11h4.63v-.3c0-2.32,0-4.65,0-7a9.88,9.88,0,0,1,.11-1.54A2.41,2.41,0,0,1,21.85,18a2.15,2.15,0,0,1,2.58,1.92,11.63,11.63,0,0,1,.14,1.77c0,2.4,0,4.79,0,7.18v.28ZM7.28,14.32V29.15h4.6V14.32Zm5-4.72a2.68,2.68,0,1,0-2.68,2.67A2.67,2.67,0,0,0,12.25,9.6Z"/></svg>