<svg id="Calque_1" data-name="Calque 1" xmlns="http://www.w3.org/2000/svg" viewBox="0 0 36.09 36.09"><path d="M8.39,32.05a4.39,4.39,0,0,1-4.12-2.78,4.63,4.63,0,0,1-.28-2,3.88,3.88,0,0,1,.47-1.69,5.73,5.73,0,0,1,.91-1.21c1.52-1.53,3.06-3,4.59-4.54l4.35-4.32q2.46-2.46,4.94-4.9L22.89,7c.63-.62,1.25-1.25,1.89-1.85a4.29,4.29,0,0,1,1.51-.87,4.55,4.55,0,0,1,2.1-.17,4.08,4.08,0,0,1,1.91.79,4.6,4.6,0,0,1,1.16,1.25,4.34,4.34,0,0,1,.65,2A4.17,4.17,0,0,1,31,11.44c-.85.9-1.76,1.76-2.64,2.64l-2.69,2.67L22,20.4l-3.15,3.1-3.67,3.64L11.7,30.61a4.37,4.37,0,0,1-2,1.24c-.43.11-.86.17-1.3.26Z"/><path d="M13.93,13.63c-.41.42-.77.8-1.14,1.16l-1.58,1.57L7,20.49,5.27,22.24a.53.53,0,0,1-.46.18c-.3,0-.6,0-.89,0a3.78,3.78,0,0,1-.67-.13,5.69,5.69,0,0,1-1.47-.6A3.57,3.57,0,0,1,.32,19.86,5.46,5.46,0,0,1,0,18.12a5.06,5.06,0,0,1,.18-1.2A3.6,3.6,0,0,1,1,15.31a4.35,4.35,0,0,1,1.91-1.42,5.83,5.83,0,0,1,2.23-.32l3.94,0,2.29,0h2.61Z"/><path d="M22.14,22.48l2.17-2.11L27,17.7l3.71-3.62L30.8,14a.75.75,0,0,1,.82-.29A12.26,12.26,0,0,1,33,14a4.17,4.17,0,0,1,1.93,1.18,4,4,0,0,1,.94,1.56,4,4,0,0,1,.24,1.7,4.44,4.44,0,0,1-2.75,3.8,5.51,5.51,0,0,1-2.38.36l-2.51,0-6.08,0Z"/><path d="M25.64,24.09l4.14.07a.53.53,0,0,1,.41.17,7.69,7.69,0,0,1,1.16,1.45,4.38,4.38,0,0,1,.47,2.81,4.27,4.27,0,0,1-1.48,2.64,4.44,4.44,0,0,1-1.66.91,4.64,4.64,0,0,1-1.78.12,3.9,3.9,0,0,1-2.39-1.07c-.87-.86-1.71-1.76-2.57-2.64l-2-2.11-.74-.79c-.08-.09-.07-.16,0-.25.4-.4.8-.81,1.22-1.2a.49.49,0,0,1,.32-.1Z"/><path d="M14.42,12H9.87l-3.6,0a.57.57,0,0,1-.33-.13,5.68,5.68,0,0,1-1.23-1.53,6,6,0,0,1-.35-.92,3.71,3.71,0,0,1-.14-1.28A4.22,4.22,0,0,1,4.86,6,4.27,4.27,0,0,1,7,4.15a3.91,3.91,0,0,1,1.71-.32A4.5,4.5,0,0,1,12,5.34c.58.64,1.2,1.25,1.79,1.87l2.38,2.5c.24.25.48.49.73.73a.17.17,0,0,1,0,.3c-.42.42-.83.84-1.26,1.25a.36.36,0,0,1-.23.08h-1Z"/><path d="M18.18,35.87A4.55,4.55,0,0,1,15.35,35,3.88,3.88,0,0,1,13.9,33c-.12-.45-.21-.91-.32-1.37a.71.71,0,0,1,.25-.68l2-2.06,2-2c.2-.2.21-.21.42,0,.45.45.89.91,1.33,1.36L21.31,30c.33.34.66.68,1,1a.43.43,0,0,1,.12.41,5.33,5.33,0,0,1-.23,1.19,5,5,0,0,1-1.29,2,4.41,4.41,0,0,1-1.49,1A3.92,3.92,0,0,1,18.18,35.87Z"/><path d="M22.83,4.58c.08.25-.09.47-.32.7-.73.73-1.44,1.49-2.16,2.22s-1.17,1.19-1.76,1.79c-.11.11-.18.13-.31,0Q16.68,7.64,15,6a8.41,8.41,0,0,0-.79-.79A.72.72,0,0,1,14,4.4a7.56,7.56,0,0,1,.4-1.33A4.72,4.72,0,0,1,16.5.74,4.25,4.25,0,0,1,18.43.22a5.79,5.79,0,0,1,1.15.16,3.41,3.41,0,0,1,1.33.56A4,4,0,0,1,22.5,3,5,5,0,0,1,22.83,4.58Z"/></svg>