<svg id="Calque_1" data-name="Calque 1" xmlns="http://www.w3.org/2000/svg" viewBox="0 0 36.09 36.09"><path d="M14.81,5.43h6.6c.33,0,.66.09,1,.11,2.85.15,5.69.26,8.53.45,2.57.18,4.17,1.46,4.66,3.79A21,21,0,0,1,36,13.56q.09,4.33,0,8.67a25.08,25.08,0,0,1-.43,4.06A4.28,4.28,0,0,1,31.74,30a58,58,0,0,1-5.89.51,163.26,163.26,0,0,1-20.51-.38C2.9,29.91,1.26,28.7.76,26.59a27.13,27.13,0,0,1-.47-3.11C.16,22.3.1,21.12,0,19.94V16.18c0-.28.1-.57.13-.85.15-1.62.23-3.25.44-4.87A4.68,4.68,0,0,1,5.31,6c2.74-.19,5.49-.3,8.24-.45C14,5.52,14.39,5.47,14.81,5.43ZM24,18.06l-9.47-5.42V23.49Z"/></svg>