<svg id="Calque_1" data-name="Calque 1" xmlns="http://www.w3.org/2000/svg" viewBox="0 0 36.09 36.09"><defs><style>.cls-1{fill-rule:evenodd;}</style></defs><path class="cls-1" d="M18.15,3.38a14.76,14.76,0,0,0-4.67,28.76c.74.13,1-.32,1-.7s0-1.52,0-2.75c-3.71.68-4.67-.91-5-1.74A5.28,5.28,0,0,0,8,24.87c-.52-.28-1.25-1,0-1a3,3,0,0,1,2.27,1.51,3.15,3.15,0,0,0,4.3,1.22,3.12,3.12,0,0,1,.94-2c-3.28-.37-6.71-1.64-6.71-7.29a5.76,5.76,0,0,1,1.51-4,5.25,5.25,0,0,1,.15-3.91S11.67,9.09,14.5,11a13.83,13.83,0,0,1,7.37,0c2.83-1.92,4.06-1.52,4.06-1.52a5.25,5.25,0,0,1,.15,3.91,5.74,5.74,0,0,1,1.51,4c0,5.66-3.45,6.92-6.73,7.29a3.46,3.46,0,0,1,1,2.73c0,2,0,3.56,0,4.06s.27.85,1,.7a14.76,14.76,0,0,0-4.7-28.76Z"/></svg>